<svg width="24" height="24" viewBox="0 0 24 24" fill="none" xmlns="http://www.w3.org/2000/svg">
<path d="M20.1148 3.89011C19.4262 3.2967 18.6393 3 17.7541 3C16.8689 3 16.082 3.2967 15.4918 3.89011L4.57377 14.8681C4.27869 15.1648 3.98361 15.6593 3.88525 16.0549L3 20.011V20.4066C3 20.5055 3.09836 20.7033 3.19672 20.8022C3.29508 20.9011 3.39344 21 3.59016 21H3.78689H3.98361L7.91803 20.1099C8.5082 20.011 8.90164 19.8132 9.09836 19.4176L20.1148 8.53846C20.7049 7.94505 21 7.15385 21 6.26374C21 5.37363 20.7049 4.58242 20.1148 3.89011ZM4.86885 19.1209L5.45902 16.4505C5.45902 16.2527 5.55738 16.1538 5.65574 16.0549L15 6.75824L17.2623 8.93407L8.01639 18.2308C7.91803 18.3297 7.72131 18.4286 7.52459 18.5275L4.86885 19.1209ZM19.3279 6.36264C19.3279 6.75824 19.1311 7.15385 18.8361 7.45055L18.4426 7.84615L16.1803 5.57143L16.5738 5.17582C16.8689 4.87912 17.2623 4.68132 17.6557 4.68132C18.0492 4.68132 18.4426 4.87912 18.7377 5.17582C19.1311 5.47253 19.3279 5.86813 19.3279 6.36264Z" fill="#1A1A1A"/>
</svg>
