<svg width="24" height="24" viewBox="0 0 24 24" fill="none" xmlns="http://www.w3.org/2000/svg">
<path d="M3.99805 16.501V20.001C3.99805 20.5314 4.20876 21.0401 4.58383 21.4152C4.95891 21.7903 5.46761 22.001 5.99805 22.001H17.998C18.5285 22.001 19.0372 21.7903 19.4123 21.4152C19.7873 21.0401 19.998 20.5314 19.998 20.001V16.501M2.99805 14.001V13.001C2.99805 12.4705 3.20876 11.9618 3.58383 11.5868C3.95891 11.2117 4.46761 11.001 4.99805 11.001H18.998C19.5285 11.001 20.0372 11.2117 20.4123 11.5868C20.7873 11.9618 20.998 12.4705 20.998 13.001V14.001M11.998 8.00098V11.001M11.998 8.00098C13.26 8.00098 13.998 7.03298 13.998 5.37598C13.998 3.71898 11.998 2.00098 11.998 2.00098C11.998 2.00098 9.99805 3.71898 9.99805 5.37598C9.99805 7.03298 10.736 8.00098 11.998 8.00098Z" stroke="#1A1A1A" stroke-width="2" stroke-linecap="round" stroke-linejoin="round"/>
<path d="M2.99805 14.001C2.99805 14.7966 3.31412 15.5597 3.87673 16.1223C4.43934 16.6849 5.2024 17.001 5.99805 17.001C6.7937 17.001 7.55676 16.6849 8.11937 16.1223C8.68198 15.5597 8.99805 14.7966 8.99805 14.001C8.99805 14.7966 9.31412 15.5597 9.87673 16.1223C10.4393 16.6849 11.2024 17.001 11.998 17.001C12.7937 17.001 13.5568 16.6849 14.1194 16.1223C14.682 15.5597 14.998 14.7966 14.998 14.001C14.998 14.7966 15.3141 15.5597 15.8767 16.1223C16.4393 16.6849 17.2024 17.001 17.998 17.001C18.7937 17.001 19.5568 16.6849 20.1194 16.1223C20.682 15.5597 20.998 14.7966 20.998 14.001" stroke="#1A1A1A" stroke-width="2" stroke-linecap="round" stroke-linejoin="round"/>
</svg>
