<svg width="24" height="24" viewBox="0 0 24 24" fill="none" xmlns="http://www.w3.org/2000/svg">
<path fill-rule="evenodd" clip-rule="evenodd" d="M19.0224 2H15.3734C15.1407 2 14.9174 2.09246 14.7529 2.25704C14.5883 2.42161 14.4958 2.64483 14.4958 2.87758C14.4958 3.11032 14.5883 3.33354 14.7529 3.49812C14.9174 3.6627 15.1407 3.75515 15.3734 3.75515H16.9041L14.9617 5.69748C14.2924 5.10286 13.4976 4.66553 12.6358 4.41846C11.7282 4.15827 10.7719 4.11646 9.84502 4.29644C8.91817 4.47642 8.04703 4.87309 7.30276 5.45406C6.55849 6.03502 5.9622 6.7838 5.56259 7.63923C5.16298 8.49466 4.97139 9.43249 5.00345 10.3761C5.03552 11.3197 5.29034 12.2424 5.7471 13.0687C6.20387 13.8951 6.84961 14.6016 7.63161 15.1307C8.37749 15.6354 9.22714 15.9649 10.1171 16.0955V17.3257H8.07547C7.84272 17.3257 7.6195 17.4181 7.45493 17.5827C7.29035 17.7473 7.19789 17.9705 7.19789 18.2032C7.19789 18.436 7.29035 18.6592 7.45493 18.8238C7.6195 18.9884 7.84272 19.0808 8.07547 19.0808H10.1171V21.1224C10.1171 21.3552 10.2095 21.5784 10.3741 21.743C10.5387 21.9075 10.7619 22 10.9946 22C11.2274 22 11.4506 21.9075 11.6152 21.743C11.7798 21.5784 11.8722 21.3552 11.8722 21.1224V19.0808H13.9138C14.1466 19.0808 14.3698 18.9884 14.5344 18.8238C14.6989 18.6592 14.7914 18.436 14.7914 18.2032C14.7914 17.9705 14.6989 17.7473 14.5344 17.5827C14.3698 17.4181 14.1466 17.3257 13.9138 17.3257H11.8722V16.0955C12.8279 15.9548 13.7359 15.5846 14.5181 15.0157C15.3356 14.4212 15.989 13.6291 16.4173 12.7135C16.8456 11.798 17.0347 10.7887 16.9671 9.78018C16.9021 8.81136 16.6022 7.87357 16.094 7.04756L18.1448 4.99599V6.52655C18.1448 6.75929 18.2373 6.98251 18.4018 7.14709C18.5664 7.31166 18.7896 7.40412 19.0224 7.40412C19.2551 7.40412 19.4783 7.31166 19.6429 7.14709C19.8075 6.98251 19.9 6.75929 19.9 6.52655V2.87758C19.9 2.64483 19.8075 2.42161 19.6429 2.25704C19.4783 2.09246 19.2551 2 19.0224 2ZM15.1969 2.16944C15.2537 2.15542 15.3124 2.14817 15.3719 2.14817H19.0208C19.2144 2.14817 19.4 2.22506 19.5369 2.36192C19.6737 2.49878 19.7506 2.68441 19.7506 2.87796V6.52693C19.7506 6.72048 19.6737 6.90611 19.5369 7.04297C19.4424 7.13741 19.3248 7.20329 19.1973 7.23506C19.3254 7.20344 19.4436 7.13741 19.5384 7.04259C19.6753 6.90573 19.7522 6.7201 19.7522 6.52655V2.87758C19.7522 2.68402 19.6753 2.4984 19.5384 2.36153C19.4016 2.22467 19.2159 2.14778 19.0224 2.14778H15.3734C15.3134 2.14778 15.2542 2.15517 15.1969 2.16944ZM18.291 4.64066V4.6395L15.9046 7.02684C16.4378 7.85602 16.7521 8.80684 16.8181 9.79046C16.8841 10.7741 16.6996 11.7584 16.2819 12.6513C15.8642 13.5443 15.227 14.3168 14.4297 14.8966C13.8241 15.337 13.1413 15.6553 12.4193 15.8364C13.1419 15.6553 13.8252 15.3369 14.4312 14.8962C15.2285 14.3164 15.8658 13.5439 16.2834 12.6509C16.7011 11.758 16.8856 10.7737 16.8196 9.79007C16.7536 8.80646 16.4394 7.85563 15.9062 7.02646L18.291 4.64066ZM11.7244 15.9666C11.7239 15.9667 11.7234 15.9667 11.7229 15.9668V17.4738H13.9123C14.1058 17.4738 14.2915 17.5507 14.4283 17.6876C14.5652 17.8245 14.6421 18.0101 14.6421 18.2036C14.6421 18.3972 14.5652 18.5828 14.4283 18.7197C14.3342 18.8138 14.2171 18.8795 14.0902 18.9114C14.2177 18.8796 14.3354 18.8137 14.4299 18.7193C14.5667 18.5824 14.6436 18.3968 14.6436 18.2032C14.6436 18.0097 14.5667 17.8241 14.4299 17.6872C14.293 17.5503 14.1074 17.4735 13.9138 17.4735H11.7244V15.9666ZM11.7244 18.9334H11.7229V21.1228C11.7229 21.3164 11.646 21.502 11.5091 21.6389C11.4151 21.7329 11.298 21.7986 11.1711 21.8306C11.2986 21.7988 11.4162 21.7329 11.5107 21.6385C11.6475 21.5016 11.7244 21.316 11.7244 21.1224V18.9334ZM7.89757 17.4955C7.95478 17.4812 8.01397 17.4738 8.07393 17.4738H10.2633V17.4735H8.07547C8.01498 17.4735 7.95526 17.481 7.89757 17.4955ZM9.57263 4.50815C9.67157 4.48349 9.77128 4.46139 9.87166 4.4419C10.7756 4.26636 11.7083 4.30714 12.5935 4.56091C13.4787 4.81467 14.2913 5.27423 14.965 5.90205L14.9659 5.9011C14.2924 5.27357 13.48 4.81421 12.595 4.56052C11.7098 4.30675 10.7772 4.26597 9.8732 4.44151C9.7723 4.46111 9.67208 4.48333 9.57263 4.50815ZM10.9945 14.4065C10.1577 14.4065 9.33977 14.1583 8.64403 13.6934C7.94825 13.2285 7.40596 12.5678 7.08573 11.7946C6.76549 11.0215 6.68171 10.1708 6.84496 9.35009C7.00821 8.52936 7.41117 7.77547 8.00289 7.18376C8.5946 6.59205 9.34849 6.18909 10.1692 6.02583C10.9899 5.86258 11.8407 5.94637 12.6138 6.2666C13.3869 6.58683 14.0477 7.12913 14.5126 7.82491C14.9774 8.52065 15.2256 9.33861 15.2256 10.1754C15.2245 11.2972 14.7783 12.3727 13.9851 13.1659C13.1918 13.9592 12.1163 14.4053 10.9945 14.4065ZM8.56193 13.8163C9.28201 14.2975 10.1286 14.5543 10.9946 14.5543C11.3549 14.5539 11.7105 14.5092 12.0543 14.4231C11.7101 14.5094 11.3539 14.5543 10.9931 14.5547C10.1271 14.5547 9.28047 14.2979 8.56039 13.8167C7.84031 13.3356 7.27907 12.6517 6.94765 11.8516C6.61623 11.0515 6.52952 10.171 6.69848 9.32165C6.86743 8.47225 7.28447 7.69203 7.89685 7.07965C8.45927 6.51723 9.16326 6.11958 9.93238 5.92755C9.16386 6.11973 8.46043 6.51722 7.89839 7.07926C7.28601 7.69164 6.86897 8.47186 6.70002 9.32126C6.53106 10.1707 6.61777 11.0511 6.94919 11.8512C7.28061 12.6513 7.84185 13.3352 8.56193 13.8163Z" fill="#1A1A1A"/>
</svg>
