<svg width="24" height="24" viewBox="0 0 24 24" fill="none" xmlns="http://www.w3.org/2000/svg">
<path d="M5.69622 13.8H17.5184C18.4299 13.8 18.8857 13.8 19.2485 13.6301C19.5681 13.4803 19.8367 13.24 20.0208 12.9388C20.2298 12.597 20.2801 12.144 20.3808 11.238L20.9073 6.49951C20.938 6.22279 20.9534 6.08444 20.9089 5.97734C20.8698 5.88329 20.8 5.80527 20.7108 5.75605C20.6093 5.7 20.4701 5.7 20.1917 5.7H5.24622M2.99609 3H4.11969C4.35785 3 4.47693 3 4.57009 3.04529C4.65211 3.08517 4.72008 3.14902 4.76499 3.22839C4.816 3.31854 4.82343 3.43739 4.83829 3.67509L5.6539 16.7249C5.66876 16.9626 5.67618 17.0815 5.7272 17.1716C5.77211 17.251 5.84008 17.3148 5.92209 17.3547C6.01526 17.4 6.13434 17.4 6.3725 17.4H18.2961M7.94609 20.55H7.95509M16.0461 20.55H16.0551M8.39609 20.55C8.39609 20.7985 8.19462 21 7.94609 21C7.69757 21 7.49609 20.7985 7.49609 20.55C7.49609 20.3015 7.69757 20.1 7.94609 20.1C8.19462 20.1 8.39609 20.3015 8.39609 20.55ZM16.4961 20.55C16.4961 20.7985 16.2946 21 16.0461 21C15.7976 21 15.5961 20.7985 15.5961 20.55C15.5961 20.3015 15.7976 20.1 16.0461 20.1C16.2946 20.1 16.4961 20.3015 16.4961 20.55Z" stroke="#1A1A1A" stroke-width="2" stroke-linecap="round" stroke-linejoin="round"/>
</svg>
