<svg width="24" height="24" viewBox="0 0 24 24" fill="none" xmlns="http://www.w3.org/2000/svg">
<path d="M5.70012 13.8H17.5223C18.4338 13.8 18.8896 13.8 19.2524 13.6301C19.572 13.4803 19.8406 13.24 20.0247 12.9388C20.2337 12.597 20.284 12.144 20.3847 11.238L20.9112 6.49951M3 3H4.12359C4.36176 3 4.48084 3 4.574 3.04529C4.65602 3.08517 4.72398 3.14902 4.76889 3.22839C4.81991 3.31854 4.82734 3.43739 4.84219 3.67509L5.65781 16.7249C5.67266 16.9626 5.68009 17.0815 5.73111 17.1716C5.77602 17.251 5.84398 17.3148 5.926 17.3547C6.01916 17.4 6.13824 17.4 6.3764 17.4H18.3M7.95 20.55H7.959M16.05 20.55H16.059M12.6 9V6M12.6 6V3M12.6 6H9.6M12.6 6H15.6M8.4 20.55C8.4 20.7985 8.19853 21 7.95 21C7.70147 21 7.5 20.7985 7.5 20.55C7.5 20.3015 7.70147 20.1 7.95 20.1C8.19853 20.1 8.4 20.3015 8.4 20.55ZM16.5 20.55C16.5 20.7985 16.2985 21 16.05 21C15.8015 21 15.6 20.7985 15.6 20.55C15.6 20.3015 15.8015 20.1 16.05 20.1C16.2985 20.1 16.5 20.3015 16.5 20.55Z" stroke="#1A1A1A" stroke-width="2" stroke-linecap="round" stroke-linejoin="round"/>
</svg>
