<svg width="24" height="24" viewBox="0 0 24 24" fill="none" xmlns="http://www.w3.org/2000/svg">
<path fill-rule="evenodd" clip-rule="evenodd" d="M15.2474 10.998L15.8744 8.9415H18.5459L19.1744 10.998H20.8544L18.1829 3H16.3319L13.6484 10.998H15.2474ZM17.2514 4.5285L18.2294 7.764H16.2029L17.1809 4.5285H17.2514ZM14.2929 21.4969H20.1909L20.1924 20.1964H16.2249V20.1154L20.0754 14.5354V13.4989H14.3979V14.7994H18.1614V14.8804L14.2929 20.4604V21.4969ZM7.28128 3.71654C7.42193 3.8572 7.50095 4.04796 7.50095 4.24687V18.9364L9.21995 17.2159C9.36078 17.0752 9.55171 16.9963 9.75073 16.9965C9.94975 16.9966 10.1406 17.0758 10.2812 17.2166C10.4218 17.3575 10.5008 17.5484 10.5006 17.7474C10.5005 17.9464 10.4213 18.1372 10.2804 18.2779L7.28045 21.2779C7.14201 21.4176 6.95397 21.4969 6.7573 21.4986C6.56063 21.5003 6.37126 21.4242 6.23045 21.2869L6.21995 21.2764L3.21995 18.2779C3.15022 18.2081 3.0949 18.1254 3.05716 18.0343C3.01942 17.9431 3 17.8455 3 17.7469C3 17.6483 3.01942 17.5506 3.05716 17.4595C3.0949 17.3684 3.15022 17.2856 3.21995 17.2159C3.28968 17.1461 3.37246 17.0908 3.46357 17.0531C3.55468 17.0154 3.65233 16.9959 3.75095 16.9959C3.84956 16.9959 3.94721 17.0154 4.03832 17.0531C4.12943 17.0908 4.21222 17.1461 4.28195 17.2159L6.00095 18.9364V4.24687C6.00095 4.04796 6.07997 3.8572 6.22062 3.71654C6.36127 3.57589 6.55204 3.49687 6.75095 3.49687C6.94986 3.49687 7.14062 3.57589 7.28128 3.71654Z" fill="#1A1A1A"/>
</svg>
