<svg width="24" height="24" viewBox="0 0 24 24" fill="none" xmlns="http://www.w3.org/2000/svg">
<path d="M8.58692 7.76911L2.77955 8.61109L2.67669 8.63202C2.52099 8.67336 2.37904 8.75528 2.26535 8.86942C2.15165 8.98355 2.07029 9.12582 2.02957 9.28169C1.98884 9.43756 1.99021 9.60144 2.03354 9.75661C2.07687 9.91177 2.1606 10.0527 2.27619 10.1649L6.48334 14.2601L5.49117 20.0447L5.47934 20.1448C5.46981 20.3059 5.50325 20.4665 5.57624 20.6104C5.64922 20.7543 5.75914 20.8762 5.89472 20.9636C6.0303 21.051 6.18668 21.1008 6.34785 21.1079C6.50902 21.1151 6.66918 21.0792 6.81194 21.0041L12.0058 18.2733L17.1878 21.0041L17.2789 21.046C17.4291 21.1051 17.5924 21.1233 17.752 21.0985C17.9115 21.0738 18.0617 21.007 18.1869 20.9051C18.3122 20.8032 18.4081 20.6698 18.4648 20.5186C18.5214 20.3674 18.5369 20.2038 18.5095 20.0447L17.5164 14.2601L21.7254 10.164L21.7964 10.0866C21.8978 9.96168 21.9643 9.81211 21.9891 9.65313C22.0139 9.49415 21.9961 9.33144 21.9376 9.18157C21.879 9.0317 21.7818 8.90003 21.6558 8.79997C21.5297 8.69992 21.3795 8.63506 21.2202 8.612L15.4129 7.76911L12.8168 2.50789C12.7417 2.35545 12.6254 2.22709 12.4811 2.13733C12.3368 2.04757 12.1703 2 12.0003 2C11.8304 2 11.6639 2.04757 11.5196 2.13733C11.3753 2.22709 11.259 2.35545 11.1839 2.50789L8.58692 7.76911Z" fill="#FFCC00"/>
</svg>
