<svg width="24" height="24" viewBox="0 0 24 24" fill="none" xmlns="http://www.w3.org/2000/svg">
<path d="M22 15.5V16.8C22 17.9201 22 18.4802 21.782 18.908C21.5903 19.2843 21.2843 19.5903 20.908 19.782C20.4802 20 19.9201 20 18.8 20H5.2C4.0799 20 3.51984 20 3.09202 19.782C2.71569 19.5903 2.40973 19.2843 2.21799 18.908C2 18.4802 2 17.9201 2 16.8V16.8C2 16.5005 2 16.3508 2.01613 16.2621C2.08341 15.8921 2.15572 15.7863 2.47599 15.5893C2.5528 15.542 2.79209 15.4488 3.27068 15.2622C4.57546 14.7536 5.5 13.4848 5.5 12C5.5 10.5152 4.57546 9.2464 3.27068 8.7378C2.79209 8.55125 2.5528 8.45797 2.47599 8.41072C2.15572 8.21367 2.08341 8.10787 2.01613 7.7379C2 7.64918 2 7.49945 2 7.2V7.2C2 6.0799 2 5.51984 2.21799 5.09202C2.40973 4.71569 2.71569 4.40973 3.09202 4.21799C3.51984 4 4.0799 4 5.2 4H9.85M10 8V7M10 12.5V11.5M10 17V16M18 4V8M18 8V12M18 8H14M18 8H22" stroke="#1A1A1A" stroke-width="2" stroke-linecap="round" stroke-linejoin="round"/>
</svg>
