<svg width="24" height="24" viewBox="0 0 24 24" fill="none" xmlns="http://www.w3.org/2000/svg">
<path d="M23.63 4.66536C23.168 3.87136 22.318 3.33203 21.3333 3.33203H12V4.66536H23.63ZM0 16.6654H24V17.9987H0V16.6654ZM12 11.332H24V12.6654H12V11.332ZM12 8.66536H24V9.9987H12V8.66536ZM0 13.9987H24V15.332H0V13.9987ZM2.66667 20.6654H21.3333C22.318 20.6654 23.168 20.126 23.63 19.332H0.37C0.832 20.126 1.682 20.6654 2.66667 20.6654ZM12 5.9987H24V7.33203H12V5.9987Z" fill="#B22334"/>
<path d="M0.0453333 18.452C0.0566667 18.514 0.0693333 18.576 0.0846667 18.6367C0.102 18.704 0.123333 18.7687 0.146 18.834C0.205333 19.0067 0.277333 19.1733 0.368 19.3293L0.37 19.3327H23.63L23.6313 19.33C23.7208 19.1728 23.7949 19.0074 23.8527 18.836C23.8966 18.7109 23.9305 18.5825 23.954 18.452C23.9813 18.3053 24 18.1547 24 17.9993H0C0 18.1547 0.0186667 18.3047 0.0453333 18.452ZM0 15.3327H24V16.666H0V15.3327ZM0 12.666V13.9993H24V12.666H12H0ZM12 9.99935H24V11.3327H12V9.99935ZM12 7.33268H24V8.66602H12V7.33268ZM0.0853333 5.36202C0.102 5.29402 0.125333 5.22935 0.146667 5.16402C0.123515 5.22915 0.103054 5.2952 0.0853333 5.36202ZM12 5.99935H24C24 5.84402 23.9813 5.69335 23.954 5.54602C23.9307 5.41542 23.8965 5.28698 23.852 5.16202C23.7942 4.98989 23.7199 4.82378 23.63 4.66602H12V5.99935Z" fill="#EEEEEE"/>
<path d="M12 3.33203H2.66667C1.95942 3.33203 1.28115 3.61298 0.781049 4.11308C0.280952 4.61318 0 5.29145 0 5.9987L0 12.6654H12V3.33203Z" fill="#3C3B6E"/>
<path d="M1.33594 5.15002L1.74794 5.44935L1.5906 5.93268L2.00194 5.63402L2.41394 5.93268L2.2566 5.44935L2.6686 5.15002H2.15927L2.00194 4.66602L1.84527 5.15002H1.33594ZM2.66927 6.48335L3.08127 6.78268L2.92394 7.26602L3.33527 6.96735L3.74727 7.26602L3.58994 6.78268L4.00194 6.48335H3.4926L3.33527 5.99935L3.1786 6.48335H2.66927ZM5.33594 6.48335L5.74794 6.78268L5.5906 7.26602L6.00194 6.96735L6.41394 7.26602L6.2566 6.78268L6.6686 6.48335H6.15927L6.00194 5.99935L5.84527 6.48335H5.33594ZM8.0026 6.48335L8.4146 6.78268L8.25727 7.26602L8.6686 6.96735L9.0806 7.26602L8.92327 6.78268L9.33527 6.48335H8.82594L8.6686 5.99935L8.51194 6.48335H8.0026ZM2.66927 9.15002L3.08127 9.44935L2.92394 9.93268L3.33527 9.63402L3.74727 9.93268L3.58994 9.44935L4.00194 9.15002H3.4926L3.33527 8.66602L3.1786 9.15002H2.66927ZM5.33594 9.15002L5.74794 9.44935L5.5906 9.93268L6.00194 9.63402L6.41394 9.93268L6.2566 9.44935L6.6686 9.15002H6.15927L6.00194 8.66602L5.84527 9.15002H5.33594ZM8.0026 9.15002L8.4146 9.44935L8.25727 9.93268L8.6686 9.63402L9.0806 9.93268L8.92327 9.44935L9.33527 9.15002H8.82594L8.6686 8.66602L8.51194 9.15002H8.0026ZM4.0026 5.15002L4.4146 5.44935L4.25727 5.93268L4.6686 5.63402L5.0806 5.93268L4.92327 5.44935L5.33527 5.15002H4.82594L4.6686 4.66602L4.51194 5.15002H4.0026ZM6.66927 5.15002L7.08127 5.44935L6.92394 5.93268L7.33527 5.63402L7.74727 5.93268L7.58994 5.44935L8.00194 5.15002H7.4926L7.33527 4.66602L7.1786 5.15002H6.66927ZM9.33594 5.15002L9.74794 5.44935L9.5906 5.93268L10.0019 5.63402L10.4139 5.93268L10.2566 5.44935L10.6686 5.15002H10.1593L10.0019 4.66602L9.84527 5.15002H9.33594ZM1.33594 7.81668L1.74794 8.11602L1.5906 8.59935L2.00194 8.30068L2.41394 8.59935L2.2566 8.11602L2.6686 7.81668H2.15927L2.00194 7.33268L1.84527 7.81668H1.33594ZM4.25727 8.59935L4.6686 8.30068L5.0806 8.59935L4.92327 8.11602L5.33527 7.81668H4.82594L4.6686 7.33268L4.51194 7.81668H4.0026L4.4146 8.11602L4.25727 8.59935ZM6.66927 7.81668L7.08127 8.11602L6.92394 8.59935L7.33527 8.30068L7.74727 8.59935L7.58994 8.11602L8.00194 7.81668H7.4926L7.33527 7.33268L7.1786 7.81668H6.66927ZM9.33594 7.81668L9.74794 8.11602L9.5906 8.59935L10.0019 8.30068L10.4139 8.59935L10.2566 8.11602L10.6686 7.81668H10.1593L10.0019 7.33268L9.84527 7.81668H9.33594ZM1.33594 10.4833L1.74794 10.7827L1.5906 11.266L2.00194 10.9673L2.41394 11.266L2.2566 10.7827L2.6686 10.4833H2.15927L2.00194 9.99935L1.84527 10.4833H1.33594ZM4.25727 11.266L4.6686 10.9673L5.0806 11.266L4.92327 10.7827L5.33527 10.4833H4.82594L4.6686 9.99935L4.51194 10.4833H4.0026L4.4146 10.7827L4.25727 11.266ZM6.66927 10.4833L7.08127 10.7827L6.92394 11.266L7.33527 10.9673L7.74727 11.266L7.58994 10.7827L8.00194 10.4833H7.4926L7.33527 9.99935L7.1786 10.4833H6.66927ZM9.33594 10.4833L9.74794 10.7827L9.5906 11.266L10.0019 10.9673L10.4139 11.266L10.2566 10.7827L10.6686 10.4833H10.1593L10.0019 9.99935L9.84527 10.4833H9.33594Z" fill="white"/>
</svg>
