<svg width="24" height="24" viewBox="0 0 24 24" fill="none" xmlns="http://www.w3.org/2000/svg">
<path d="M21.3333 3.33398H2.66667C1.95942 3.33398 1.28115 3.61494 0.781049 4.11503C0.280952 4.61513 0 5.29341 0 6.00065L0 18.0007C0 18.7079 0.280952 19.3862 0.781049 19.8863C1.28115 20.3864 1.95942 20.6673 2.66667 20.6673H21.3333C22.0406 20.6673 22.7189 20.3864 23.219 19.8863C23.719 19.3862 24 18.7079 24 18.0007V6.00065C24 5.29341 23.719 4.61513 23.219 4.11503C22.7189 3.61494 22.0406 3.33398 21.3333 3.33398Z" fill="#DA251D"/>
<path d="M13.1685 10.6914L11.9998 7.09473L10.8311 10.6914H7.0498L10.1091 12.9134L8.94047 16.5101L11.9998 14.2874L15.0591 16.5101L13.8905 12.9134L16.9498 10.6914H13.1685Z" fill="#FFFF00"/>
</svg>
