<svg width="14" height="14" viewBox="0 0 14 14" fill="none" xmlns="http://www.w3.org/2000/svg">
<path fill-rule="evenodd" clip-rule="evenodd" d="M4.66667 4.3369C4.66667 5.4395 3.46091 6.33333 2.33333 6.33333C1.20575 6.33333 0 5.31472 0 4.21212L2.33333 0.5H11.6667L14 4.21212C14 4.8776 13.3 6.33333 11.6667 6.33333C10.0333 6.33333 9.33333 5.00238 9.33333 4.3369C9.33333 5.00238 8.86667 6.33333 7 6.33333C5.13333 6.33333 4.66667 5.00238 4.66667 4.3369ZM12.25 12.2285V7.49972C12.25 7.49972 11.1303 7.49567 10.5 7.20801C9.9819 6.97156 9.33333 6.33305 9.33333 6.33305C9.33333 6.33305 8.68556 6.97331 8.16667 7.20801C7.73878 7.40155 7.46962 7.49957 7 7.49957C6.53038 7.49957 6.28895 7.43579 5.83333 7.20801C5.37772 6.98023 4.66667 6.33305 4.66667 6.33305C4.66667 6.33305 4.08333 6.91634 3.5 7.20801C2.91667 7.49967 1.75 7.49972 1.75 7.49972V12.2285C1.75 12.5215 1.87292 12.8024 2.09171 13.0095C2.3105 13.2167 2.60725 13.3331 2.91667 13.3331H4.66667C4.98883 13.3331 5.25 13.0719 5.25 12.7497V9.83301H8.75V12.7497C8.75 13.0719 9.01117 13.3331 9.33333 13.3331H11.0833C11.3928 13.3331 11.6895 13.2167 11.9083 13.0095C12.1271 12.8024 12.25 12.5215 12.25 12.2285Z" fill="#ffffff" fill-opacity="1"/>
</svg>
