<svg width="20" height="24" viewBox="0 0 20 24" fill="none" xmlns="http://www.w3.org/2000/svg">
    <path
        d="M2.13948 4.77966L8.13948 1.35109C9.29235 0.692308 10.7076 0.692308 11.8605 1.35109L17.8605 4.77966C19.0289 5.44732 19.75 6.68986 19.75 8.03557V15.9644C19.75 17.3101 19.0289 18.5527 17.8605 19.2203L11.8605 22.6489C10.7076 23.3077 9.29235 23.3077 8.13948 22.6489L2.13948 19.2203C0.971072 18.5527 0.25 17.3101 0.25 15.9644V8.03558C0.25 6.68986 0.971071 5.44733 2.13948 4.77966Z"
        fill="#EFE6F7" stroke="url(#paint0_linear_34393_397798)" stroke-width="0.5" />
    <path
        d="M10.0078 19.1386C9.12078 19.1386 8.25159 19.0165 7.40325 18.7605C6.2364 18.4063 5.18266 17.8437 4.24203 17.0668C4.20334 17.034 4.19143 17.0072 4.20929 16.9566C4.35217 16.525 4.45338 16.0785 4.62305 15.6558C5.37316 13.8043 7.06391 12.4469 9.0285 12.1195C10.2013 11.926 11.3324 12.0629 12.413 12.557C13.6721 13.1345 14.6068 14.0484 15.2289 15.2867C15.4611 15.7481 15.6069 16.2392 15.7319 16.7393C15.7498 16.8167 15.7706 16.8911 15.7944 16.9685C15.8093 17.0162 15.8004 17.0459 15.7587 17.0817C15.0205 17.6889 14.2079 18.1682 13.3179 18.5194C12.4606 18.8587 11.5735 19.0552 10.6567 19.1207C10.4424 19.1356 10.2251 19.1445 10.0078 19.1415V19.1386Z"
        fill="url(#paint1_linear_34393_397798)" />
    <path
        d="M6.7793 8.08359C6.78227 6.27672 8.23488 4.87469 9.96432 4.85088C11.7473 4.82707 13.2357 6.25886 13.2386 8.07764C13.2386 9.87259 11.795 11.2865 10.0536 11.3103C8.27656 11.3342 6.78525 9.91129 6.7793 8.08359Z"
        fill="url(#paint2_linear_34393_397798)" />
    <defs>
        <linearGradient id="paint0_linear_34393_397798" x1="2.92893" y1="20.4853" x2="17.5564"
            y2="8.45924" gradientUnits="userSpaceOnUse">
            <stop stop-color="#7E2EBC" />
            <stop offset="1" stop-color="#C054EE" />
        </linearGradient>
        <linearGradient id="paint1_linear_34393_397798" x1="5.89995" y1="18.1013" x2="9.85715"
            y2="11.729" gradientUnits="userSpaceOnUse">
            <stop stop-color="#7E2EBC" />
            <stop offset="1" stop-color="#C054EE" />
        </linearGradient>
        <linearGradient id="paint2_linear_34393_397798" x1="7.72525" y1="10.3646" x2="11.7379"
            y2="6.40622" gradientUnits="userSpaceOnUse">
            <stop stop-color="#7E2EBC" />
            <stop offset="1" stop-color="#C054EE" />
        </linearGradient>
    </defs>
</svg>
