<svg width="20" height="24" viewBox="0 0 20 24" fill="none" xmlns="http://www.w3.org/2000/svg">
    <path
        d="M2.13948 4.77966L8.13948 1.35109C9.29235 0.692308 10.7076 0.692308 11.8605 1.35109L17.8605 4.77966C19.0289 5.44732 19.75 6.68986 19.75 8.03557V15.9644C19.75 17.3101 19.0289 18.5527 17.8605 19.2203L11.8605 22.6489C10.7076 23.3077 9.29235 23.3077 8.13948 22.6489L2.13948 19.2203C0.971072 18.5527 0.25 17.3101 0.25 15.9644V8.03558C0.25 6.68986 0.971071 5.44733 2.13948 4.77966Z"
        fill="#EFE6F7" stroke="url(#paint0_linear_34408_115991)" stroke-width="0.5" />
    <path fill-rule="evenodd" clip-rule="evenodd"
        d="M7.83333 10.1038C7.83333 11.1277 6.71371 11.9577 5.66667 11.9577C4.61963 11.9577 3.5 11.0118 3.5 9.98799L5.66667 6.54102H14.3333L16.5 9.98799C16.5 10.6059 15.85 11.9577 14.3333 11.9577C12.8167 11.9577 12.1667 10.7218 12.1667 10.1038C12.1667 10.7218 11.7333 11.9577 10 11.9577C8.26667 11.9577 7.83333 10.7218 7.83333 10.1038ZM14.875 17.4321V13.0411C14.875 13.0411 13.8353 13.0373 13.25 12.7702C12.7689 12.5506 12.1667 11.9577 12.1667 11.9577C12.1667 11.9577 11.5652 12.5522 11.0833 12.7702C10.686 12.9499 10.4361 13.0409 10 13.0409C9.56392 13.0409 9.33973 12.9817 8.91667 12.7702C8.4936 12.5587 7.83333 11.9577 7.83333 11.9577C7.83333 11.9577 7.29167 12.4993 6.75 12.7702C6.20833 13.041 5.125 13.0411 5.125 13.0411V17.4321C5.125 17.7041 5.23914 17.965 5.4423 18.1573C5.64547 18.3497 5.92102 18.4577 6.20833 18.4577H7.83333C8.13249 18.4577 8.375 18.2152 8.375 17.9161V15.2077H11.625V17.9161C11.625 18.2152 11.8675 18.4577 12.1667 18.4577H13.7917C14.079 18.4577 14.3545 18.3497 14.5577 18.1573C14.7609 17.965 14.875 17.7041 14.875 17.4321Z"
        fill="url(#paint1_linear_34408_115991)" />
    <defs>
        <linearGradient id="paint0_linear_34408_115991" x1="2.92893" y1="20.4853" x2="17.5564"
            y2="8.45924" gradientUnits="userSpaceOnUse">
            <stop stop-color="#7E2EBC" />
            <stop offset="1" stop-color="#C054EE" />
        </linearGradient>
        <linearGradient id="paint1_linear_34408_115991" x1="5.40381" y1="16.7126" x2="12.7865"
            y2="8.76674" gradientUnits="userSpaceOnUse">
            <stop stop-color="#7E2EBC" />
            <stop offset="1" stop-color="#C054EE" />
        </linearGradient>
    </defs>
</svg>
