<svg width="14" height="14" viewBox="0 0 14 14" fill="none" xmlns="http://www.w3.org/2000/svg">
<path fill-rule="evenodd" clip-rule="evenodd" d="M10.25 3.25055C10.25 5.04577 8.79493 6.50109 7 6.50109C5.20507 6.50109 3.75 5.04577 3.75 3.25055C3.75 1.45532 5.20507 0 7 0C8.79493 0 10.25 1.45532 10.25 3.25055ZM9.88889 7.3125C10.8194 7.31255 11.7141 7.6719 12.3862 8.31559C13.0583 8.95928 13.456 9.83763 13.4964 10.7675L13.5 10.9242V11.6466C13.5001 12.011 13.3625 12.3621 13.1147 12.6293C12.8669 12.8966 12.5273 13.0603 12.1639 13.0876L12.0556 13.0912H1.94444C1.58003 13.0914 1.22904 12.9537 0.961826 12.7059C0.694618 12.458 0.530942 12.1184 0.503611 11.7549L0.5 11.6466V10.9242C0.500054 9.9935 0.859336 9.09874 1.50292 8.42651C2.14651 7.75429 3.02471 7.3565 3.95439 7.31611L4.11111 7.3125H9.88889ZM6.35989 8.76599L6.35944 8.7668L6.28564 8.8991C6.20464 9.04445 6.16414 9.11713 6.10115 9.16505C6.03792 9.21298 5.9594 9.23075 5.80213 9.2663L5.65903 9.2987C5.10554 9.4238 4.8288 9.48658 4.76288 9.69831C4.69718 9.91003 4.88572 10.1308 5.26304 10.5718L5.36069 10.6861L5.36093 10.6863C5.46787 10.8113 5.52158 10.874 5.54541 10.9516C5.56971 11.029 5.56161 11.1127 5.54541 11.2801L5.53056 11.4322L5.53045 11.4333C5.4736 12.0214 5.44518 12.3154 5.61763 12.4462C5.78975 12.5767 6.04895 12.4575 6.56711 12.219L6.70121 12.1573C6.84835 12.0894 6.92193 12.0556 7 12.0556C7.07807 12.0556 7.15165 12.0894 7.29879 12.1573L7.43311 12.219L7.43401 12.2194C7.95135 12.4576 8.21035 12.5769 8.38259 12.446C8.55482 12.3154 8.5264 12.0214 8.46955 11.4333L8.46944 11.4322L8.45459 11.2798C8.43839 11.1127 8.43029 11.029 8.45437 10.9513C8.47837 10.8742 8.53189 10.8115 8.63834 10.687L8.63931 10.6858L8.73696 10.5718C9.11427 10.1305 9.30282 9.90981 9.23712 9.69831C9.17122 9.48665 8.89485 9.42407 8.34171 9.29882L8.34119 9.2987L8.1981 9.2663C8.0406 9.23075 7.96185 9.21298 7.89885 9.16505C7.83586 9.11713 7.79536 9.04446 7.71436 8.89911L7.71436 8.8991L7.64056 8.7668L7.64011 8.766C7.35534 8.25533 7.21296 8 7 8C6.78704 8 6.64466 8.25533 6.35989 8.76599Z" fill="#ffffff" fill-opacity="1"/>
</svg>
