<svg width="540" height="540" viewBox="0 0 540 540" fill="none" xmlns="http://www.w3.org/2000/svg">
<g clip-path="url(#clip0_12851_45176)">
<rect width="540" height="540" fill="#E7E8E9"/>
<path d="M154.294 169.37C146.4 169.37 140 175.77 140 183.664C140 191.559 146.4 197.958 154.294 197.958H171.722L176.09 215.429C176.135 215.631 176.186 215.832 176.24 216.03L195.64 293.632L182.882 306.391C164.872 324.4 177.627 355.194 203.097 355.194H325.824C333.717 355.194 340.118 348.794 340.118 340.9C340.118 333.005 333.717 326.606 325.824 326.606H203.097L217.391 312.312H311.53C316.944 312.312 321.893 309.253 324.315 304.41L367.197 218.645C369.413 214.214 369.177 208.952 366.572 204.738C363.967 200.523 359.367 197.958 354.412 197.958H201.19L196.75 180.197C195.159 173.834 189.442 169.37 182.882 169.37H154.294Z" fill="#3C3C43" fill-opacity="0.3"/>
<path d="M340.118 390.929C340.118 402.771 330.518 412.371 318.677 412.371C306.836 412.371 297.236 402.771 297.236 390.929C297.236 379.088 306.836 369.488 318.677 369.488C330.518 369.488 340.118 379.088 340.118 390.929Z" fill="#3C3C43" fill-opacity="0.3"/>
<path d="M204.324 412.371C216.166 412.371 225.765 402.771 225.765 390.929C225.765 379.088 216.166 369.488 204.324 369.488C192.482 369.488 182.883 379.088 182.883 390.929C182.883 402.771 192.482 412.371 204.324 412.371Z" fill="#3C3C43" fill-opacity="0.3"/>
<rect x="254.21" y="107" width="155.52" height="155.52" rx="77.76" fill="#E7E8E9"/>
<rect x="267.17" y="119.96" width="129.6" height="129.6" rx="64.8" fill="#3C3C43" fill-opacity="0.3"/>
<path d="M340.78 157.856V141.02H323.159V157.856L308.538 166.274L317.348 181.52L331.97 173.102L346.592 181.52L355.402 166.274L340.78 157.856Z" fill="#E7E8E9"/>
<path d="M364.213 198.356V181.52H346.592V198.356L331.97 206.774L340.781 222.02L355.403 213.602L370.024 222.02L378.835 206.774L364.213 198.356Z" fill="#E7E8E9"/>
<path d="M317.348 181.52H299.727V198.356L285.105 206.774L293.916 222.02L308.538 213.602L323.16 222.02L331.97 206.774L317.348 198.356V181.52Z" fill="#E7E8E9"/>
</g>
<defs>
<clipPath id="clip0_12851_45176">
<rect width="540" height="540" fill="white"/>
</clipPath>
</defs>
</svg>
