<svg width="20" height="24" viewBox="0 0 20 24" fill="none" xmlns="http://www.w3.org/2000/svg">

    <path
        d="M10.0059 19.288C9.11882 19.288 8.24964 19.1659 7.40129 18.9099C6.23444 18.5557 5.18071 17.9931 4.24008 17.2162C4.20138 17.1834 4.18948 17.1566 4.20734 17.106C4.35022 16.6744 4.45142 16.2279 4.62109 15.8052C5.37121 13.9537 7.06195 12.5963 9.02655 12.2689C10.1994 12.0754 11.3305 12.2123 12.411 12.7065C13.6701 13.2839 14.6048 14.1978 15.2269 15.4361C15.4591 15.8975 15.605 16.3887 15.73 16.8887C15.7478 16.9661 15.7687 17.0406 15.7925 17.118C15.8074 17.1656 15.7984 17.1953 15.7568 17.2311C15.0186 17.8383 14.2059 18.3176 13.3159 18.6688C12.4586 19.0082 11.5716 19.2046 10.6548 19.2701C10.4405 19.285 10.2232 19.2939 10.0059 19.291V19.288Z"
        fill="url(#paint1_linear_34408_116001)" />
    <path
        d="M6.77734 8.233C6.78032 6.42614 8.23293 5.02411 9.96237 5.00029C11.7454 4.97648 13.2337 6.40828 13.2367 8.22705C13.2367 10.022 11.793 11.4359 10.0517 11.4598C8.2746 11.4836 6.7833 10.0607 6.77734 8.233Z"
        fill="url(#paint2_linear_34408_116001)" />
    <g clip-path="url(#clip0_34408_116001)">
        <path
            d="M9.14673 14.6874L7.69489 14.8979L7.66917 14.9031C7.63025 14.9135 7.59476 14.9339 7.56634 14.9625C7.53791 14.991 7.51757 15.0266 7.50739 15.0655C7.49721 15.1045 7.49755 15.1455 7.50838 15.1843C7.51922 15.2231 7.54015 15.2583 7.56905 15.2863L8.62084 16.3101L8.37279 17.7563L8.36984 17.7813C8.36745 17.8216 8.37581 17.8618 8.39406 17.8977C8.41231 17.9337 8.43978 17.9642 8.47368 17.986C8.50758 18.0079 8.54667 18.0203 8.58696 18.0221C8.62725 18.0239 8.6673 18.0149 8.70299 17.9961L10.0015 17.3135L11.297 17.9961L11.3197 18.0066C11.3573 18.0214 11.3981 18.0259 11.438 18.0197C11.4779 18.0136 11.5154 17.9969 11.5467 17.9714C11.578 17.9459 11.602 17.9126 11.6162 17.8748C11.6304 17.837 11.6342 17.7961 11.6274 17.7563L11.3791 16.3101L12.4314 15.2861L12.4491 15.2668C12.4745 15.2355 12.4911 15.1981 12.4973 15.1584C12.5035 15.1187 12.499 15.078 12.4844 15.0405C12.4698 15.003 12.4454 14.9701 12.4139 14.9451C12.3824 14.9201 12.3449 14.9039 12.3051 14.8981L10.8532 14.6874L10.2042 13.3721C10.1854 13.334 10.1564 13.3019 10.1203 13.2795C10.0842 13.257 10.0426 13.2451 10.0001 13.2451C9.9576 13.2451 9.91596 13.257 9.87989 13.2795C9.84381 13.3019 9.81474 13.334 9.79596 13.3721L9.14673 14.6874Z"
            fill="#FFFFFF" />
    </g>
    <defs>
        <linearGradient id="paint1_linear_34408_116001" x1="5.898" y1="18.2507" x2="9.85519"
            y2="11.8784" gradientUnits="userSpaceOnUse">
            <stop stop-color="#7E2EBC" />
            <stop offset="1" stop-color="#C054EE" />
        </linearGradient>
        <linearGradient id="paint2_linear_34408_116001" x1="7.72329" y1="10.514" x2="11.7359"
            y2="6.55564" gradientUnits="userSpaceOnUse">
            <stop stop-color="#7E2EBC" />
            <stop offset="1" stop-color="#C054EE" />
        </linearGradient>
        <clipPath id="clip0_34408_116001">
            <rect width="6" height="6" fill="white" transform="translate(7 12.7451)" />
        </clipPath>
    </defs>
</svg>
