<svg width="540" height="540" viewBox="0 0 540 540" fill="none" xmlns="http://www.w3.org/2000/svg">
<g clip-path="url(#clip0_12851_45177)">
<rect width="540" height="540" fill="#E7E8E9"/>
<rect x="183.6" y="126" width="172.8" height="172.8" rx="86.4" fill="#E7E8E9"/>
<rect x="198" y="140.4" width="144" height="144" rx="72" fill="#3C3C43" fill-opacity="0.3"/>
<path d="M279.789 182.507V163.8H260.21V182.507L243.964 191.86L253.753 208.8L270 199.447L286.246 208.8L296.036 191.86L279.789 182.507Z" fill="#E7E8E9"/>
<path d="M305.825 227.507V208.8H286.246V227.507L270 236.86L279.789 253.8L296.036 244.447L312.282 253.8L322.072 236.86L305.825 227.507Z" fill="#E7E8E9"/>
<path d="M253.754 208.8H234.175V227.507L217.928 236.86L227.718 253.8L243.964 244.447L260.21 253.8L270 236.86L253.754 227.507V208.8Z" fill="#E7E8E9"/>
<path d="M408.634 321.75C402.735 316.4 393.535 316.75 387.336 321.75L341.138 358.698C335.488 363.248 328.439 365.698 321.139 365.698H261.992C257.593 365.698 253.993 362.098 253.993 357.698C253.993 353.299 257.593 349.699 261.992 349.699H301.14C309.09 349.699 316.489 344.249 317.789 336.399C319.439 326.4 311.74 317.7 301.99 317.7H221.995C208.495 317.7 195.446 322.35 184.947 330.85L161.698 349.699H134C129.6 349.699 126 353.299 126 357.698V405.696C126 410.096 129.6 413.696 134 413.696H312.39C319.639 413.696 326.689 411.246 332.389 406.696L407.984 346.199C415.584 340.149 416.184 328.55 408.634 321.75Z" fill="#3C3C43" fill-opacity="0.3"/>
</g>
<defs>
<clipPath id="clip0_12851_45177">
<rect width="540" height="540" fill="white"/>
</clipPath>
</defs>
</svg>
