<svg width="14" height="14" viewBox="0 0 14 14" fill="none" xmlns="http://www.w3.org/2000/svg">
<path fill-rule="evenodd" clip-rule="evenodd" d="M7 6.50109C8.79493 6.50109 10.25 5.04577 10.25 3.25054C10.25 1.45532 8.79493 0 7 0C5.20507 0 3.75 1.45532 3.75 3.25054C3.75 5.04577 5.20507 6.50109 7 6.50109ZM12.3862 8.31582C11.7141 7.67212 10.8194 7.31278 9.88889 7.31273H4.11111L3.95439 7.31634C3.02471 7.35673 2.14651 7.75452 1.50292 8.42674C0.859336 9.09897 0.500054 9.99373 0.5 10.9244V11.6468L0.503611 11.7551C0.530942 12.1186 0.694618 12.4583 0.961826 12.7061C1.22904 12.9539 1.58003 13.0916 1.94444 13.0915H12.0556L12.1639 13.0879C12.5273 13.0605 12.8669 12.8968 13.1147 12.6296C13.3625 12.3623 13.5001 12.0113 13.5 11.6468V10.9244L13.4964 10.7677C13.456 9.83786 13.0583 8.95951 12.3862 8.31582Z" fill="#ffffff" fill-opacity="1"/>
</svg>
