<svg width="40" height="35" viewBox="0 0 40 35" fill="none" xmlns="http://www.w3.org/2000/svg">
<path d="M24.0074 7.32748C23.8543 7.23934 23.76 7.07615 23.76 6.89951V0.493827C23.76 0.221094 23.5389 0 23.2662 0H16.7338C16.4611 0 16.24 0.221094 16.24 0.493827V6.89951C16.24 7.07615 16.1456 7.23934 15.9926 7.32748L10.4287 10.5307C10.192 10.667 10.1109 10.9694 10.2475 11.2058L13.5133 16.8571C13.6496 17.093 13.9512 17.1739 14.1873 17.038L19.7536 13.8333C19.9061 13.7455 20.0939 13.7455 20.2464 13.8333L25.8127 17.038C26.0488 17.1739 26.3504 17.093 26.4867 16.8571L29.7525 11.2058C29.8891 10.9694 29.8079 10.667 29.5713 10.5307L24.0074 7.32748Z" fill="white"/>
<path d="M34.0074 24.6112C33.8543 24.523 33.76 24.3598 33.76 24.1832V17.7775C33.76 17.5048 33.5389 17.2837 33.2662 17.2837H26.7338C26.4611 17.2837 26.24 17.5048 26.24 17.7775V24.1832C26.24 24.3598 26.1456 24.523 25.9926 24.6112L20.4287 27.8144C20.192 27.9507 20.1109 28.2531 20.2475 28.4895L23.5133 34.1408C23.6496 34.3767 23.9512 34.4576 24.1873 34.3217L29.7536 31.117C29.9061 31.0292 30.0939 31.0292 30.2464 31.117L35.8127 34.3217C36.0488 34.4576 36.3504 34.3767 36.4867 34.1408L39.7525 28.4895C39.8891 28.2531 39.8079 27.9507 39.5713 27.8144L34.0074 24.6112Z" fill="white"/>
<path d="M13.76 17.7775C13.76 17.5048 13.5389 17.2837 13.2662 17.2837H6.73382C6.46109 17.2837 6.23999 17.5048 6.23999 17.7775V24.1832C6.23999 24.3598 6.14564 24.523 5.99256 24.6112L0.428663 27.8144C0.192032 27.9507 0.110869 28.2531 0.247488 28.4895L3.51331 34.1408C3.64962 34.3767 3.95118 34.4576 4.18727 34.3217L9.7536 31.117C9.90612 31.0292 10.0939 31.0292 10.2464 31.117L15.8127 34.3217C16.0488 34.4576 16.3504 34.3767 16.4867 34.1408L19.7525 28.4895C19.8891 28.2531 19.8079 27.9507 19.5713 27.8144L14.0074 24.6112C13.8543 24.523 13.76 24.3598 13.76 24.1832V17.7775Z" fill="white"/>
</svg>
