<svg width="380" height="512" viewBox="0 0 380 512" fill="none" xmlns="http://www.w3.org/2000/svg">
<path d="M220.46 59.3526C219.22 58.6387 218.456 57.3169 218.456 55.8861V4C218.456 1.79086 216.665 0 214.456 0H161.544C159.335 0 157.544 1.79086 157.544 4V55.8861C157.544 57.3169 156.78 58.6387 155.54 59.3526L110.472 85.2991C108.555 86.4026 107.898 88.8521 109.005 90.767L135.458 136.543C136.562 138.453 139.005 139.109 140.917 138.008L186.004 112.05C187.24 111.339 188.76 111.339 189.996 112.05L235.083 138.008C236.995 139.109 239.438 138.453 240.542 136.543L266.995 90.767C268.102 88.8521 267.445 86.4026 265.528 85.2991L220.46 59.3526Z" fill="white"/>
<path d="M301.46 199.353C300.22 198.639 299.456 197.317 299.456 195.886V144C299.456 141.791 297.665 140 295.456 140H242.544C240.335 140 238.544 141.791 238.544 144V195.886C238.544 197.317 237.78 198.639 236.54 199.353L191.472 225.299C189.555 226.403 188.898 228.852 190.005 230.767L216.458 276.543C217.562 278.453 220.005 279.109 221.917 278.008L267.004 252.05C268.24 251.339 269.76 251.339 270.996 252.05L316.083 278.008C317.995 279.109 320.438 278.453 321.542 276.543L347.995 230.767C349.102 228.852 348.445 226.403 346.528 225.299L301.46 199.353Z" fill="white"/>
<path d="M137.456 144C137.456 141.791 135.665 140 133.456 140H80.544C78.3349 140 76.544 141.791 76.544 144V195.886C76.544 197.317 75.7798 198.639 74.5398 199.353L29.4722 225.299C27.5555 226.403 26.898 228.852 28.0047 230.767L54.4578 276.543C55.5619 278.453 58.0046 279.109 59.9169 278.008L105.004 252.05C106.24 251.339 107.76 251.339 108.996 252.05L154.083 278.008C155.995 279.109 158.438 278.453 159.542 276.543L185.995 230.767C187.102 228.852 186.445 226.403 184.528 225.299L139.46 199.353C138.22 198.639 137.456 197.317 137.456 195.886V144Z" fill="white"/>
<path d="M145.747 374.539C146.681 371.933 144.75 369.189 141.981 369.189H107.877C106.121 369.189 104.57 370.334 104.054 372.012L82.1558 443.154C80.9971 446.919 75.6685 446.919 74.5098 443.154L52.6118 372.012C52.0953 370.334 50.5447 369.189 48.7888 369.189H14.6746C11.9089 369.189 9.97774 371.929 10.9074 374.533L57.5047 505.1C58.073 506.693 59.5812 507.756 61.272 507.756H95.1499C96.8383 507.756 98.345 506.695 98.915 505.106L145.747 374.539Z" fill="white"/>
<path d="M166.75 350.458C166.75 352.668 168.541 354.458 170.75 354.458H204.002C206.211 354.458 208.002 352.668 208.002 350.458V327C208.002 324.791 206.211 323 204.002 323H170.75C168.541 323 166.75 324.791 166.75 327V350.458ZM166.75 503.756C166.75 505.965 168.541 507.756 170.75 507.756H204.002C206.211 507.756 208.002 505.965 208.002 503.756V373.189C208.002 370.98 206.211 369.189 204.002 369.189H170.75C168.541 369.189 166.75 370.98 166.75 373.189V503.756Z" fill="white"/>
<path d="M231.394 438.347C231.394 472.303 255.499 512 305.697 512C355.895 512 380 472.303 380 438.347C380 404.392 355.895 364.695 305.697 364.695C255.499 364.695 231.394 404.392 231.394 438.098V438.347ZM272.646 438.347C272.646 418.124 287.805 403.394 305.697 403.394C323.589 403.394 338.748 418.124 338.748 438.347C338.748 458.571 323.589 473.301 305.697 473.301C287.805 473.301 272.646 458.571 272.646 438.597V438.347Z" fill="white"/>
</svg>
