<svg width="358" height="149" viewBox="0 0 358 149" fill="none" xmlns="http://www.w3.org/2000/svg">
<path d="M149.488 143H146.459V140.892H149.385C150.113 140.892 150.724 140.763 151.221 140.506C151.721 140.244 152.096 139.841 152.346 139.295C152.599 138.746 152.726 138.038 152.726 137.17C152.726 136.311 152.599 135.608 152.346 135.062C152.096 134.517 151.722 134.116 151.226 133.858C150.73 133.6 150.118 133.472 149.391 133.472H146.408V131.364H149.522C150.692 131.364 151.7 131.597 152.544 132.062C153.389 132.525 154.039 133.189 154.493 134.057C154.952 134.924 155.181 135.962 155.181 137.17C155.181 138.383 154.952 139.424 154.493 140.295C154.039 141.167 153.385 141.835 152.533 142.301C151.685 142.767 150.669 143 149.488 143ZM147.823 131.364V143H145.363V131.364H147.823ZM143.749 137.58V136.148H149.414V137.58H143.749ZM160.775 143.17C159.877 143.17 159.105 142.989 158.457 142.625C157.813 142.258 157.317 141.739 156.968 141.068C156.62 140.394 156.446 139.597 156.446 138.676C156.446 137.778 156.62 136.991 156.968 136.312C157.317 135.634 157.807 135.106 158.44 134.727C159.076 134.348 159.822 134.159 160.678 134.159C161.254 134.159 161.79 134.252 162.286 134.438C162.786 134.619 163.222 134.894 163.593 135.261C163.968 135.629 164.26 136.091 164.468 136.648C164.677 137.201 164.781 137.848 164.781 138.591V139.256H157.411V137.756H162.502C162.502 137.407 162.427 137.098 162.275 136.83C162.124 136.561 161.913 136.35 161.644 136.199C161.379 136.044 161.071 135.966 160.718 135.966C160.351 135.966 160.025 136.051 159.741 136.222C159.461 136.388 159.241 136.614 159.082 136.898C158.923 137.178 158.841 137.491 158.838 137.835V139.261C158.838 139.693 158.917 140.066 159.076 140.381C159.239 140.695 159.468 140.938 159.764 141.108C160.059 141.278 160.41 141.364 160.815 141.364C161.084 141.364 161.33 141.326 161.553 141.25C161.777 141.174 161.968 141.061 162.127 140.909C162.286 140.758 162.408 140.572 162.491 140.352L164.73 140.5C164.616 141.038 164.383 141.508 164.031 141.909C163.682 142.307 163.232 142.617 162.678 142.841C162.129 143.061 161.495 143.17 160.775 143.17ZM161.298 131.614L163.536 133.381H161.872L160.61 132.386L159.332 133.381H157.667L159.906 131.614H161.298ZM164.053 132.386H162.798L162.69 131.534C163.016 131.519 163.252 131.477 163.4 131.409C163.548 131.341 163.622 131.241 163.622 131.108C163.622 130.934 163.529 130.816 163.343 130.756C163.158 130.695 162.927 130.665 162.65 130.665L162.707 129.75C163.476 129.75 164.063 129.864 164.468 130.091C164.874 130.314 165.076 130.631 165.076 131.04C165.076 131.324 164.968 131.542 164.752 131.693C164.54 131.841 164.307 131.936 164.053 131.977V132.386ZM172.164 131.364V143H169.743V131.364H172.164ZM176.431 143.165C175.875 143.165 175.378 143.068 174.943 142.875C174.507 142.678 174.162 142.388 173.909 142.006C173.659 141.619 173.534 141.138 173.534 140.562C173.534 140.078 173.623 139.67 173.801 139.341C173.979 139.011 174.221 138.746 174.528 138.545C174.835 138.345 175.183 138.193 175.573 138.091C175.967 137.989 176.38 137.917 176.812 137.875C177.32 137.822 177.729 137.773 178.039 137.727C178.35 137.678 178.575 137.606 178.716 137.511C178.856 137.417 178.926 137.277 178.926 137.091V137.057C178.926 136.697 178.812 136.419 178.585 136.222C178.361 136.025 178.043 135.926 177.63 135.926C177.195 135.926 176.848 136.023 176.591 136.216C176.333 136.405 176.162 136.644 176.079 136.932L173.841 136.75C173.954 136.22 174.178 135.761 174.511 135.375C174.844 134.985 175.274 134.686 175.801 134.477C176.331 134.265 176.945 134.159 177.642 134.159C178.127 134.159 178.591 134.216 179.034 134.33C179.481 134.443 179.877 134.619 180.221 134.858C180.57 135.097 180.844 135.403 181.045 135.778C181.246 136.15 181.346 136.595 181.346 137.114V143H179.051V141.79H178.983C178.842 142.062 178.655 142.303 178.42 142.511C178.185 142.716 177.903 142.877 177.573 142.994C177.244 143.108 176.863 143.165 176.431 143.165ZM177.125 141.494C177.481 141.494 177.795 141.424 178.068 141.284C178.341 141.14 178.555 140.947 178.71 140.705C178.865 140.462 178.943 140.187 178.943 139.881V138.955C178.867 139.004 178.763 139.049 178.63 139.091C178.502 139.129 178.356 139.165 178.193 139.199C178.03 139.229 177.867 139.258 177.704 139.284C177.541 139.307 177.394 139.328 177.261 139.347C176.977 139.388 176.729 139.455 176.517 139.545C176.305 139.636 176.14 139.759 176.022 139.915C175.905 140.066 175.846 140.256 175.846 140.483C175.846 140.812 175.966 141.064 176.204 141.239C176.447 141.409 176.753 141.494 177.125 141.494ZM177.636 146.267C177.276 146.267 176.967 146.148 176.71 145.909C176.452 145.67 176.323 145.383 176.323 145.045C176.323 144.708 176.452 144.42 176.71 144.182C176.967 143.943 177.276 143.824 177.636 143.824C177.996 143.824 178.303 143.943 178.556 144.182C178.814 144.42 178.943 144.708 178.943 145.045C178.943 145.383 178.814 145.67 178.556 145.909C178.303 146.148 177.996 146.267 177.636 146.267ZM183.064 143V134.273H185.484V143H183.064ZM184.28 133.148C183.92 133.148 183.611 133.028 183.354 132.79C183.1 132.547 182.973 132.258 182.973 131.92C182.973 131.587 183.1 131.301 183.354 131.062C183.611 130.82 183.92 130.699 184.28 130.699C184.64 130.699 184.947 130.82 185.2 131.062C185.458 131.301 185.587 131.587 185.587 131.92C185.587 132.258 185.458 132.547 185.2 132.79C184.947 133.028 184.64 133.148 184.28 133.148ZM193.227 131.364V143H190.807V131.364H193.227ZM202.71 133.761H204.154C204.154 134.723 203.924 135.473 203.466 136.011C203.008 136.545 202.271 136.812 201.256 136.812V135.847C201.657 135.847 201.962 135.763 202.171 135.597C202.379 135.426 202.521 135.186 202.597 134.875C202.673 134.564 202.71 134.193 202.71 133.761ZM198.949 143.17C198.067 143.17 197.303 142.983 196.659 142.608C196.019 142.229 195.525 141.703 195.176 141.028C194.828 140.35 194.654 139.564 194.654 138.67C194.654 137.769 194.828 136.981 195.176 136.307C195.525 135.629 196.019 135.102 196.659 134.727C197.303 134.348 198.067 134.159 198.949 134.159C199.832 134.159 200.593 134.348 201.233 134.727C201.877 135.102 202.373 135.629 202.722 136.307C203.07 136.981 203.245 137.769 203.245 138.67C203.245 139.564 203.07 140.35 202.722 141.028C202.373 141.703 201.877 142.229 201.233 142.608C200.593 142.983 199.832 143.17 198.949 143.17ZM198.96 141.295C199.362 141.295 199.697 141.182 199.966 140.955C200.235 140.723 200.438 140.409 200.574 140.011C200.714 139.614 200.784 139.161 200.784 138.653C200.784 138.146 200.714 137.693 200.574 137.295C200.438 136.898 200.235 136.583 199.966 136.352C199.697 136.121 199.362 136.006 198.96 136.006C198.555 136.006 198.214 136.121 197.938 136.352C197.665 136.583 197.459 136.898 197.318 137.295C197.182 137.693 197.114 138.146 197.114 138.653C197.114 139.161 197.182 139.614 197.318 140.011C197.459 140.409 197.665 140.723 197.938 140.955C198.214 141.182 198.555 141.295 198.96 141.295ZM198.108 133.148L196.375 130.562H198.608L199.818 133.148H198.108ZM204.955 143V134.273H207.376V143H204.955ZM206.171 133.148C205.811 133.148 205.503 133.028 205.245 132.79C204.991 132.547 204.864 132.258 204.864 131.92C204.864 131.587 204.991 131.301 205.245 131.062C205.503 130.82 205.811 130.699 206.171 130.699C206.531 130.699 206.838 130.82 207.092 131.062C207.349 131.301 207.478 131.587 207.478 131.92C207.478 132.258 207.349 132.547 207.092 132.79C206.838 133.028 206.531 133.148 206.171 133.148ZM215.118 137.955V143H212.698V134.273H215.005V135.812H215.107C215.3 135.305 215.624 134.903 216.078 134.608C216.533 134.309 217.084 134.159 217.732 134.159C218.338 134.159 218.866 134.292 219.317 134.557C219.768 134.822 220.118 135.201 220.368 135.693C220.618 136.182 220.743 136.765 220.743 137.443V143H218.323V137.875C218.327 137.341 218.19 136.924 217.914 136.625C217.637 136.322 217.257 136.17 216.772 136.17C216.446 136.17 216.158 136.241 215.908 136.381C215.662 136.521 215.469 136.725 215.328 136.994C215.192 137.259 215.122 137.58 215.118 137.955ZM224.911 137.955V143H222.491V131.364H224.843V135.812H224.945C225.142 135.297 225.461 134.894 225.9 134.602C226.339 134.307 226.891 134.159 227.553 134.159C228.159 134.159 228.688 134.292 229.139 134.557C229.593 134.818 229.945 135.195 230.195 135.688C230.449 136.176 230.574 136.761 230.57 137.443V143H228.15V137.875C228.154 137.337 228.017 136.919 227.741 136.619C227.468 136.32 227.086 136.17 226.593 136.17C226.264 136.17 225.972 136.241 225.718 136.381C225.468 136.521 225.271 136.725 225.127 136.994C224.987 137.259 224.915 137.58 224.911 137.955ZM234.804 143.165C234.247 143.165 233.751 143.068 233.315 142.875C232.88 142.678 232.535 142.388 232.281 142.006C232.031 141.619 231.906 141.138 231.906 140.562C231.906 140.078 231.995 139.67 232.173 139.341C232.351 139.011 232.594 138.746 232.901 138.545C233.207 138.345 233.556 138.193 233.946 138.091C234.34 137.989 234.753 137.917 235.185 137.875C235.692 137.822 236.101 137.773 236.412 137.727C236.722 137.678 236.948 137.606 237.088 137.511C237.228 137.417 237.298 137.277 237.298 137.091V137.057C237.298 136.697 237.185 136.419 236.957 136.222C236.734 136.025 236.416 135.926 236.003 135.926C235.567 135.926 235.221 136.023 234.963 136.216C234.705 136.405 234.535 136.644 234.452 136.932L232.213 136.75C232.327 136.22 232.55 135.761 232.883 135.375C233.217 134.985 233.647 134.686 234.173 134.477C234.704 134.265 235.317 134.159 236.014 134.159C236.499 134.159 236.963 134.216 237.406 134.33C237.853 134.443 238.249 134.619 238.594 134.858C238.942 135.097 239.217 135.403 239.418 135.778C239.618 136.15 239.719 136.595 239.719 137.114V143H237.423V141.79H237.355C237.215 142.062 237.027 142.303 236.793 142.511C236.558 142.716 236.276 142.877 235.946 142.994C235.616 143.108 235.236 143.165 234.804 143.165ZM235.497 141.494C235.853 141.494 236.168 141.424 236.44 141.284C236.713 141.14 236.927 140.947 237.082 140.705C237.238 140.462 237.315 140.187 237.315 139.881V138.955C237.24 139.004 237.135 139.049 237.003 139.091C236.874 139.129 236.728 139.165 236.565 139.199C236.402 139.229 236.24 139.258 236.077 139.284C235.914 139.307 235.766 139.328 235.633 139.347C235.349 139.388 235.101 139.455 234.889 139.545C234.677 139.636 234.512 139.759 234.395 139.915C234.277 140.066 234.219 140.256 234.219 140.483C234.219 140.812 234.338 141.064 234.577 141.239C234.819 141.409 235.126 141.494 235.497 141.494ZM237.332 131.506H238.906C238.906 132.059 238.651 132.509 238.139 132.858C237.628 133.203 236.938 133.375 236.071 133.375C235.207 133.375 234.522 133.203 234.014 132.858C233.51 132.509 233.26 132.059 233.264 131.506H234.81C234.806 131.729 234.901 131.934 235.094 132.119C235.287 132.301 235.613 132.392 236.071 132.392C236.529 132.392 236.853 132.301 237.043 132.119C237.236 131.934 237.332 131.729 237.332 131.506ZM235.412 131.517L236.418 130.062H238.082L236.673 131.517H235.412ZM243.857 137.955V143H241.437V134.273H243.743V135.812H243.846C244.039 135.305 244.363 134.903 244.817 134.608C245.272 134.309 245.823 134.159 246.471 134.159C247.077 134.159 247.605 134.292 248.056 134.557C248.507 134.822 248.857 135.201 249.107 135.693C249.357 136.182 249.482 136.765 249.482 137.443V143H247.062V137.875C247.065 137.341 246.929 136.924 246.652 136.625C246.376 136.322 245.995 136.17 245.51 136.17C245.185 136.17 244.897 136.241 244.647 136.381C244.401 136.521 244.207 136.725 244.067 136.994C243.931 137.259 243.861 137.58 243.857 137.955ZM258.716 143.17C257.822 143.17 257.053 142.981 256.409 142.602C255.769 142.22 255.277 141.689 254.932 141.011C254.591 140.333 254.421 139.553 254.421 138.67C254.421 137.777 254.593 136.992 254.938 136.318C255.286 135.64 255.78 135.112 256.421 134.733C257.061 134.35 257.822 134.159 258.705 134.159C259.466 134.159 260.133 134.297 260.705 134.574C261.277 134.85 261.729 135.239 262.063 135.739C262.396 136.239 262.58 136.826 262.614 137.5H260.33C260.265 137.064 260.095 136.714 259.818 136.449C259.546 136.18 259.188 136.045 258.744 136.045C258.369 136.045 258.042 136.148 257.761 136.352C257.485 136.553 257.269 136.847 257.114 137.233C256.958 137.619 256.881 138.087 256.881 138.636C256.881 139.193 256.957 139.667 257.108 140.057C257.263 140.447 257.481 140.744 257.761 140.949C258.042 141.153 258.369 141.256 258.744 141.256C259.021 141.256 259.269 141.199 259.489 141.085C259.712 140.972 259.896 140.807 260.04 140.591C260.188 140.371 260.284 140.108 260.33 139.801H262.614C262.576 140.468 262.394 141.055 262.068 141.562C261.746 142.066 261.301 142.46 260.733 142.744C260.165 143.028 259.492 143.17 258.716 143.17ZM266.424 137.955V143H264.003V131.364H266.356V135.812H266.458C266.655 135.297 266.973 134.894 267.413 134.602C267.852 134.307 268.403 134.159 269.066 134.159C269.672 134.159 270.2 134.292 270.651 134.557C271.106 134.818 271.458 135.195 271.708 135.688C271.962 136.176 272.087 136.761 272.083 137.443V143H269.663V137.875C269.666 137.337 269.53 136.919 269.253 136.619C268.981 136.32 268.598 136.17 268.106 136.17C267.776 136.17 267.484 136.241 267.231 136.381C266.981 136.521 266.784 136.725 266.64 136.994C266.5 137.259 266.428 137.58 266.424 137.955ZM277.771 143.17C276.888 143.17 276.125 142.983 275.481 142.608C274.841 142.229 274.347 141.703 273.998 141.028C273.65 140.35 273.476 139.564 273.476 138.67C273.476 137.769 273.65 136.981 273.998 136.307C274.347 135.629 274.841 135.102 275.481 134.727C276.125 134.348 276.888 134.159 277.771 134.159C278.654 134.159 279.415 134.348 280.055 134.727C280.699 135.102 281.195 135.629 281.544 136.307C281.892 136.981 282.066 137.769 282.066 138.67C282.066 139.564 281.892 140.35 281.544 141.028C281.195 141.703 280.699 142.229 280.055 142.608C279.415 142.983 278.654 143.17 277.771 143.17ZM277.782 141.295C278.184 141.295 278.519 141.182 278.788 140.955C279.057 140.723 279.26 140.409 279.396 140.011C279.536 139.614 279.606 139.161 279.606 138.653C279.606 138.146 279.536 137.693 279.396 137.295C279.26 136.898 279.057 136.583 278.788 136.352C278.519 136.121 278.184 136.006 277.782 136.006C277.377 136.006 277.036 136.121 276.76 136.352C276.487 136.583 276.28 136.898 276.14 137.295C276.004 137.693 275.936 138.146 275.936 138.653C275.936 139.161 276.004 139.614 276.14 140.011C276.28 140.409 276.487 140.723 276.76 140.955C277.036 141.182 277.377 141.295 277.782 141.295ZM290.967 143.17C290.073 143.17 289.304 142.981 288.66 142.602C288.02 142.22 287.527 141.689 287.183 141.011C286.842 140.333 286.671 139.553 286.671 138.67C286.671 137.777 286.843 136.992 287.188 136.318C287.537 135.64 288.031 135.112 288.671 134.733C289.311 134.35 290.073 134.159 290.955 134.159C291.717 134.159 292.383 134.297 292.955 134.574C293.527 134.85 293.98 135.239 294.313 135.739C294.647 136.239 294.83 136.826 294.864 137.5H292.58C292.516 137.064 292.345 136.714 292.069 136.449C291.796 136.18 291.438 136.045 290.995 136.045C290.62 136.045 290.292 136.148 290.012 136.352C289.736 136.553 289.52 136.847 289.364 137.233C289.209 137.619 289.131 138.087 289.131 138.636C289.131 139.193 289.207 139.667 289.359 140.057C289.514 140.447 289.732 140.744 290.012 140.949C290.292 141.153 290.62 141.256 290.995 141.256C291.272 141.256 291.52 141.199 291.739 141.085C291.963 140.972 292.147 140.807 292.29 140.591C292.438 140.371 292.535 140.108 292.58 139.801H294.864C294.826 140.468 294.645 141.055 294.319 141.562C293.997 142.066 293.552 142.46 292.984 142.744C292.415 143.028 291.743 143.17 290.967 143.17ZM305.481 133.79H306.885C306.881 134.449 306.782 135.002 306.589 135.449C306.396 135.892 306.068 136.225 305.606 136.449C305.148 136.672 304.521 136.784 303.726 136.784V135.705C304.252 135.705 304.639 135.634 304.885 135.494C305.135 135.354 305.296 135.144 305.368 134.864C305.443 134.58 305.481 134.222 305.481 133.79ZM301.907 139.284V134.273H304.322V143H302.004V141.415H301.913C301.716 141.926 301.389 142.337 300.93 142.648C300.476 142.958 299.921 143.114 299.265 143.114C298.682 143.114 298.169 142.981 297.726 142.716C297.282 142.451 296.936 142.074 296.686 141.585C296.44 141.097 296.315 140.511 296.311 139.83V134.273H298.731V139.398C298.731 139.913 298.868 140.32 299.14 140.619C299.417 140.919 299.784 141.068 300.243 141.068C300.534 141.068 300.805 141.002 301.055 140.869C301.309 140.733 301.514 140.532 301.669 140.267C301.828 140.002 301.907 139.674 301.907 139.284ZM301.22 133.023H299.424L299.299 132C299.701 131.981 299.987 131.928 300.157 131.841C300.328 131.75 300.411 131.631 300.407 131.483C300.411 131.278 300.303 131.14 300.084 131.068C299.868 130.996 299.597 130.96 299.271 130.96L299.334 129.864C300.345 129.864 301.114 130 301.64 130.273C302.171 130.545 302.434 130.924 302.43 131.409C302.434 131.754 302.309 132.015 302.055 132.193C301.805 132.367 301.527 132.477 301.22 132.523V133.023ZM309.926 143.165C309.37 143.165 308.873 143.068 308.438 142.875C308.002 142.678 307.657 142.388 307.404 142.006C307.154 141.619 307.029 141.138 307.029 140.562C307.029 140.078 307.118 139.67 307.296 139.341C307.474 139.011 307.716 138.746 308.023 138.545C308.33 138.345 308.678 138.193 309.068 138.091C309.462 137.989 309.875 137.917 310.307 137.875C310.815 137.822 311.224 137.773 311.534 137.727C311.845 137.678 312.07 137.606 312.211 137.511C312.351 137.417 312.421 137.277 312.421 137.091V137.057C312.421 136.697 312.307 136.419 312.08 136.222C311.856 136.025 311.538 135.926 311.125 135.926C310.69 135.926 310.343 136.023 310.086 136.216C309.828 136.405 309.657 136.644 309.574 136.932L307.336 136.75C307.449 136.22 307.673 135.761 308.006 135.375C308.339 134.985 308.769 134.686 309.296 134.477C309.826 134.265 310.44 134.159 311.137 134.159C311.621 134.159 312.086 134.216 312.529 134.33C312.976 134.443 313.371 134.619 313.716 134.858C314.065 135.097 314.339 135.403 314.54 135.778C314.741 136.15 314.841 136.595 314.841 137.114V143H312.546V141.79H312.478C312.337 142.062 312.15 142.303 311.915 142.511C311.68 142.716 311.398 142.877 311.068 142.994C310.739 143.108 310.358 143.165 309.926 143.165ZM310.62 141.494C310.976 141.494 311.29 141.424 311.563 141.284C311.836 141.14 312.05 140.947 312.205 140.705C312.36 140.462 312.438 140.187 312.438 139.881V138.955C312.362 139.004 312.258 139.049 312.125 139.091C311.996 139.129 311.851 139.165 311.688 139.199C311.525 139.229 311.362 139.258 311.199 139.284C311.036 139.307 310.889 139.328 310.756 139.347C310.472 139.388 310.224 139.455 310.012 139.545C309.8 139.636 309.635 139.759 309.517 139.915C309.4 140.066 309.341 140.256 309.341 140.483C309.341 140.812 309.461 141.064 309.699 141.239C309.942 141.409 310.248 141.494 310.62 141.494ZM322.523 137.955V143H320.102V131.364H322.454V135.812H322.557C322.754 135.297 323.072 134.894 323.511 134.602C323.951 134.307 324.502 134.159 325.165 134.159C325.771 134.159 326.299 134.292 326.75 134.557C327.204 134.818 327.557 135.195 327.807 135.688C328.061 136.176 328.186 136.761 328.182 137.443V143H325.761V137.875C325.765 137.337 325.629 136.919 325.352 136.619C325.079 136.32 324.697 136.17 324.204 136.17C323.875 136.17 323.583 136.241 323.329 136.381C323.079 136.521 322.882 136.725 322.739 136.994C322.598 137.259 322.526 137.58 322.523 137.955ZM332.415 143.165C331.858 143.165 331.362 143.068 330.927 142.875C330.491 142.678 330.146 142.388 329.892 142.006C329.642 141.619 329.517 141.138 329.517 140.562C329.517 140.078 329.606 139.67 329.784 139.341C329.963 139.011 330.205 138.746 330.512 138.545C330.819 138.345 331.167 138.193 331.557 138.091C331.951 137.989 332.364 137.917 332.796 137.875C333.303 137.822 333.713 137.773 334.023 137.727C334.334 137.678 334.559 137.606 334.699 137.511C334.839 137.417 334.909 137.277 334.909 137.091V137.057C334.909 136.697 334.796 136.419 334.569 136.222C334.345 136.025 334.027 135.926 333.614 135.926C333.178 135.926 332.832 136.023 332.574 136.216C332.317 136.405 332.146 136.644 332.063 136.932L329.824 136.75C329.938 136.22 330.161 135.761 330.495 135.375C330.828 134.985 331.258 134.686 331.784 134.477C332.315 134.265 332.928 134.159 333.625 134.159C334.11 134.159 334.574 134.216 335.017 134.33C335.464 134.443 335.86 134.619 336.205 134.858C336.553 135.097 336.828 135.403 337.029 135.778C337.23 136.15 337.33 136.595 337.33 137.114V143H335.034V141.79H334.966C334.826 142.062 334.639 142.303 334.404 142.511C334.169 142.716 333.887 142.877 333.557 142.994C333.228 143.108 332.847 143.165 332.415 143.165ZM333.108 141.494C333.464 141.494 333.779 141.424 334.052 141.284C334.324 141.14 334.538 140.947 334.694 140.705C334.849 140.462 334.927 140.187 334.927 139.881V138.955C334.851 139.004 334.747 139.049 334.614 139.091C334.485 139.129 334.339 139.165 334.177 139.199C334.014 139.229 333.851 139.258 333.688 139.284C333.525 139.307 333.377 139.328 333.245 139.347C332.961 139.388 332.713 139.455 332.5 139.545C332.288 139.636 332.124 139.759 332.006 139.915C331.889 140.066 331.83 140.256 331.83 140.483C331.83 140.812 331.949 141.064 332.188 141.239C332.43 141.409 332.737 141.494 333.108 141.494ZM332.875 133.148L331.142 130.562H333.375L334.586 133.148H332.875ZM341.468 137.955V143H339.048V134.273H341.355V135.812H341.457C341.65 135.305 341.974 134.903 342.428 134.608C342.883 134.309 343.434 134.159 344.082 134.159C344.688 134.159 345.216 134.292 345.667 134.557C346.118 134.822 346.468 135.201 346.718 135.693C346.968 136.182 347.093 136.765 347.093 137.443V143H344.673V137.875C344.677 137.341 344.54 136.924 344.264 136.625C343.987 136.322 343.606 136.17 343.122 136.17C342.796 136.17 342.508 136.241 342.258 136.381C342.012 136.521 341.819 136.725 341.678 136.994C341.542 137.259 341.472 137.58 341.468 137.955ZM352.773 146.455C351.989 146.455 351.316 146.347 350.756 146.131C350.199 145.919 349.756 145.629 349.426 145.261C349.097 144.894 348.883 144.481 348.784 144.023L351.023 143.722C351.091 143.896 351.199 144.059 351.347 144.21C351.494 144.362 351.689 144.483 351.932 144.574C352.178 144.669 352.477 144.716 352.83 144.716C353.356 144.716 353.79 144.587 354.131 144.33C354.475 144.076 354.648 143.65 354.648 143.051V141.455H354.545C354.439 141.697 354.28 141.926 354.068 142.142C353.856 142.358 353.583 142.534 353.25 142.67C352.917 142.807 352.519 142.875 352.057 142.875C351.402 142.875 350.805 142.723 350.267 142.42C349.733 142.114 349.307 141.646 348.989 141.017C348.674 140.384 348.517 139.585 348.517 138.619C348.517 137.631 348.678 136.805 349 136.142C349.322 135.479 349.75 134.983 350.284 134.653C350.822 134.324 351.411 134.159 352.051 134.159C352.54 134.159 352.949 134.242 353.278 134.409C353.608 134.572 353.873 134.777 354.074 135.023C354.278 135.265 354.436 135.504 354.545 135.739H354.636V134.273H357.04V143.085C357.04 143.828 356.858 144.449 356.494 144.949C356.131 145.449 355.627 145.824 354.983 146.074C354.343 146.328 353.606 146.455 352.773 146.455ZM352.824 141.057C353.214 141.057 353.544 140.96 353.812 140.767C354.085 140.57 354.294 140.29 354.438 139.926C354.585 139.559 354.659 139.119 354.659 138.608C354.659 138.097 354.587 137.653 354.443 137.278C354.299 136.9 354.091 136.606 353.818 136.398C353.545 136.189 353.214 136.085 352.824 136.085C352.426 136.085 352.091 136.193 351.818 136.409C351.545 136.621 351.339 136.917 351.199 137.295C351.059 137.674 350.989 138.112 350.989 138.608C350.989 139.112 351.059 139.547 351.199 139.915C351.343 140.278 351.549 140.561 351.818 140.761C352.091 140.958 352.426 141.057 352.824 141.057Z" fill="white"/>
<path d="M260.439 116.683C260.338 117.226 259.817 117.584 259.274 117.483C258.731 117.383 258.372 116.861 258.473 116.318L260.439 116.683ZM238 71.0001L249.5 72.0355L242.853 81.4775L238 71.0001ZM258.473 116.318C260.451 105.65 260.656 98.6078 258.617 92.8728C256.586 87.1608 252.269 82.5775 244.76 76.9813L245.955 75.3777C253.55 81.0383 258.266 85.9175 260.501 92.2028C262.727 98.4649 262.429 105.955 260.439 116.683L258.473 116.318Z" fill="white"/>
<rect x="0.5" y="0.5" width="357" height="63" rx="3.5" stroke="white" stroke-linecap="round" stroke-linejoin="round" stroke-dasharray="4 4"/>
</svg>
