<svg width="358" height="68" viewBox="0 0 358 68" fill="none" xmlns="http://www.w3.org/2000/svg">
<defs>
<linearGradient id="paint0_linear_15899_82980" x1="287.615" y1="55.0711" x2="296.024" y2="33.5011" gradientUnits="userSpaceOnUse">
<stop stop-color="#7D2EBD"/>
<stop offset="1" stop-color="#C054EE"/>
</linearGradient>
</defs>
<rect x="238" y="28" width="120" height="40" rx="8" fill="white"/>
<path d="M268 43.3335V52.6666M263.333 48.0001H272.667" stroke="#7E2EBC" stroke-width="1.67" stroke-linecap="round" stroke-linejoin="round"/>
<path d="M284.942 53H281.332V42.8182H284.971C285.996 42.8182 286.877 43.022 287.616 43.4297C288.355 43.834 288.924 44.4157 289.322 45.1747C289.723 45.9337 289.923 46.8419 289.923 47.8991C289.923 48.9598 289.723 49.8712 289.322 50.6335C288.924 51.3958 288.352 51.9808 287.606 52.3885C286.864 52.7962 285.976 53 284.942 53ZM283.485 51.1555H284.852C285.488 51.1555 286.024 51.0429 286.458 50.8175C286.895 50.5888 287.224 50.2358 287.442 49.7585C287.664 49.2779 287.775 48.6581 287.775 47.8991C287.775 47.1468 287.664 46.532 287.442 46.0547C287.224 45.5774 286.897 45.2261 286.463 45.0007C286.029 44.7753 285.493 44.6626 284.857 44.6626H283.485V51.1555ZM291.478 53V45.3636H293.596V53H291.478ZM292.542 44.3793C292.227 44.3793 291.957 44.2749 291.732 44.0661C291.509 43.8539 291.398 43.6004 291.398 43.3054C291.398 43.0137 291.509 42.7635 291.732 42.5547C291.957 42.3426 292.227 42.2365 292.542 42.2365C292.857 42.2365 293.125 42.3426 293.347 42.5547C293.573 42.7635 293.685 43.0137 293.685 43.3054C293.685 43.6004 293.573 43.8539 293.347 44.0661C293.125 44.2749 292.857 44.3793 292.542 44.3793ZM292.557 55.8587C292.242 55.8587 291.972 55.7543 291.746 55.5455C291.521 55.3366 291.408 55.0848 291.408 54.7898C291.408 54.4948 291.521 54.2429 291.746 54.0341C291.972 53.8253 292.242 53.7209 292.557 53.7209C292.872 53.7209 293.14 53.8253 293.362 54.0341C293.588 54.2429 293.7 54.4948 293.7 54.7898C293.7 55.0848 293.588 55.3366 293.362 55.5455C293.14 55.7543 292.872 55.8587 292.557 55.8587ZM298.743 53.1491C297.961 53.1491 297.288 52.9834 296.724 52.652C296.164 52.3172 295.733 51.8532 295.432 51.2599C295.133 50.6667 294.984 49.9839 294.984 49.2116C294.984 48.4295 295.135 47.7434 295.437 47.1534C295.742 46.5601 296.174 46.0978 296.734 45.7663C297.294 45.4316 297.961 45.2642 298.733 45.2642C299.399 45.2642 299.982 45.3852 300.483 45.6271C300.983 45.8691 301.379 46.2088 301.671 46.6463C301.963 47.0838 302.123 47.5975 302.153 48.1875H300.155C300.098 47.8063 299.949 47.4998 299.707 47.2678C299.469 47.0324 299.155 46.9148 298.768 46.9148C298.439 46.9148 298.153 47.0043 297.907 47.1832C297.666 47.3589 297.477 47.6158 297.341 47.9538C297.205 48.2919 297.137 48.7012 297.137 49.1818C297.137 49.669 297.203 50.0833 297.336 50.4247C297.472 50.7661 297.662 51.0263 297.907 51.2053C298.153 51.3842 298.439 51.4737 298.768 51.4737C299.01 51.4737 299.227 51.424 299.419 51.3246C299.614 51.2251 299.775 51.081 299.901 50.892C300.03 50.6998 300.115 50.4695 300.155 50.201H302.153C302.12 50.7843 301.961 51.2981 301.676 51.7422C301.394 52.183 301.005 52.5277 300.508 52.7763C300.01 53.0249 299.422 53.1491 298.743 53.1491ZM305.627 48.5852V53H303.509V42.8182H305.567V46.7109H305.657C305.829 46.2602 306.108 45.9072 306.492 45.652C306.877 45.3935 307.359 45.2642 307.939 45.2642C308.469 45.2642 308.932 45.3802 309.326 45.6122C309.724 45.8409 310.032 46.1707 310.251 46.6016C310.473 47.0291 310.582 47.5412 310.579 48.1378V53H308.461V48.5156C308.464 48.045 308.345 47.6787 308.103 47.4169C307.864 47.1551 307.53 47.0241 307.099 47.0241C306.81 47.0241 306.555 47.0855 306.333 47.2081C306.114 47.3307 305.942 47.5097 305.816 47.745C305.693 47.977 305.63 48.2571 305.627 48.5852ZM322.605 45.3636L319.935 53H317.549L314.879 45.3636H317.116L318.702 50.8274H318.782L320.363 45.3636H322.605ZM328.586 49.7486V45.3636H330.704V53H328.67V51.6129H328.591C328.419 52.0604 328.132 52.42 327.731 52.6918C327.333 52.9635 326.848 53.0994 326.274 53.0994C325.764 53.0994 325.315 52.9834 324.927 52.7514C324.539 52.5194 324.236 52.1896 324.017 51.7621C323.802 51.3345 323.692 50.8224 323.689 50.2259V45.3636H325.807V49.848C325.81 50.2988 325.931 50.6551 326.17 50.9169C326.408 51.1787 326.728 51.3097 327.129 51.3097C327.384 51.3097 327.623 51.2517 327.845 51.1357C328.067 51.0163 328.246 50.8407 328.382 50.6087C328.521 50.3767 328.589 50.09 328.586 49.7486ZM327.517 55.8587C327.202 55.8587 326.932 55.7543 326.707 55.5455C326.481 55.3366 326.369 55.0848 326.369 54.7898C326.369 54.4948 326.481 54.2429 326.707 54.0341C326.932 53.8253 327.202 53.7209 327.517 53.7209C327.832 53.7209 328.1 53.8253 328.322 54.0341C328.548 54.2429 328.661 54.4948 328.661 54.7898C328.661 55.0848 328.548 55.3366 328.322 55.5455C328.1 55.7543 327.832 55.8587 327.517 55.8587Z" fill="url(#paint0_linear_15899_82980)"/>
<path d="M11.2784 10.4375H8.78977C8.74432 10.1155 8.65152 9.82955 8.51136 9.57955C8.37121 9.32576 8.19129 9.10985 7.97159 8.93182C7.75189 8.75379 7.49811 8.61742 7.21023 8.52273C6.92614 8.42803 6.61742 8.38068 6.28409 8.38068C5.68182 8.38068 5.1572 8.5303 4.71023 8.82955C4.26326 9.125 3.91667 9.55682 3.67045 10.125C3.42424 10.6894 3.30114 11.375 3.30114 12.1818C3.30114 13.0114 3.42424 13.7083 3.67045 14.2727C3.92045 14.8371 4.26894 15.2633 4.71591 15.5511C5.16288 15.839 5.67992 15.983 6.26705 15.983C6.59659 15.983 6.90152 15.9394 7.18182 15.8523C7.46591 15.7652 7.7178 15.6383 7.9375 15.4716C8.1572 15.3011 8.33902 15.0947 8.48295 14.8523C8.63068 14.6098 8.73295 14.3333 8.78977 14.0227L11.2784 14.0341C11.214 14.5682 11.053 15.0833 10.7955 15.5795C10.5417 16.072 10.1989 16.5133 9.76705 16.9034C9.33902 17.2898 8.82765 17.5966 8.23295 17.8239C7.64205 18.0473 6.97348 18.1591 6.22727 18.1591C5.18939 18.1591 4.26136 17.9242 3.44318 17.4545C2.62879 16.9848 1.98485 16.3049 1.51136 15.4148C1.04167 14.5246 0.806818 13.447 0.806818 12.1818C0.806818 10.9129 1.04545 9.83333 1.52273 8.94318C2 8.05303 2.64773 7.375 3.46591 6.90909C4.28409 6.43939 5.20455 6.20455 6.22727 6.20455C6.90152 6.20455 7.52652 6.29924 8.10227 6.48864C8.68182 6.67803 9.19508 6.95455 9.64205 7.31818C10.089 7.67803 10.4527 8.11932 10.733 8.64205C11.017 9.16477 11.1989 9.76326 11.2784 10.4375ZM15.2576 12.9545V18H12.8372V6.36364H15.1894V10.8125H15.2917C15.4887 10.2973 15.8069 9.89394 16.2463 9.60227C16.6856 9.30682 17.2368 9.15909 17.8997 9.15909C18.5057 9.15909 19.0341 9.29167 19.4849 9.55682C19.9394 9.81818 20.2917 10.1951 20.5417 10.6875C20.7955 11.1761 20.9205 11.7614 20.9167 12.4432V18H18.4963V12.875C18.5 12.3371 18.3637 11.9186 18.0872 11.6193C17.8144 11.3201 17.4319 11.1705 16.9394 11.1705C16.6099 11.1705 16.3182 11.2405 16.0644 11.3807C15.8144 11.5208 15.6175 11.7254 15.4735 11.9943C15.3334 12.2595 15.2614 12.5795 15.2576 12.9545ZM25.1502 18.1648C24.5934 18.1648 24.0971 18.0682 23.6615 17.875C23.2259 17.678 22.8812 17.3883 22.6274 17.0057C22.3774 16.6193 22.2524 16.1383 22.2524 15.5625C22.2524 15.0777 22.3415 14.6705 22.5195 14.3409C22.6975 14.0114 22.9399 13.7462 23.2468 13.5455C23.5536 13.3447 23.9021 13.1932 24.2922 13.0909C24.6862 12.9886 25.099 12.9167 25.5309 12.875C26.0384 12.822 26.4475 12.7727 26.7581 12.7273C27.0687 12.678 27.2941 12.6061 27.4343 12.5114C27.5744 12.4167 27.6445 12.2765 27.6445 12.0909V12.0568C27.6445 11.697 27.5309 11.4186 27.3036 11.2216C27.0801 11.0246 26.7619 10.9261 26.349 10.9261C25.9134 10.9261 25.5668 11.0227 25.3093 11.2159C25.0517 11.4053 24.8812 11.6439 24.7979 11.9318L22.5593 11.75C22.6729 11.2197 22.8964 10.7614 23.2297 10.375C23.563 9.98485 23.993 9.68561 24.5195 9.47727C25.0498 9.26515 25.6634 9.15909 26.3604 9.15909C26.8452 9.15909 27.3093 9.21591 27.7524 9.32955C28.1994 9.44318 28.5952 9.61932 28.9399 9.85795C29.2884 10.0966 29.563 10.4034 29.7638 10.7784C29.9646 11.1496 30.0649 11.5947 30.0649 12.1136V18H27.7695V16.7898H27.7013C27.5612 17.0625 27.3737 17.303 27.1388 17.5114C26.904 17.7159 26.6218 17.8769 26.2922 17.9943C25.9627 18.108 25.582 18.1648 25.1502 18.1648ZM25.8434 16.4943C26.1994 16.4943 26.5138 16.4242 26.7865 16.2841C27.0593 16.1402 27.2733 15.947 27.4286 15.7045C27.5839 15.4621 27.6615 15.1875 27.6615 14.8807V13.9545C27.5858 14.0038 27.4816 14.0492 27.349 14.0909C27.2202 14.1288 27.0744 14.1648 26.9115 14.1989C26.7487 14.2292 26.5858 14.2576 26.4229 14.2841C26.26 14.3068 26.1123 14.3277 25.9797 14.3466C25.6956 14.3883 25.4475 14.4545 25.2354 14.5455C25.0233 14.6364 24.8585 14.7595 24.7411 14.9148C24.6237 15.0663 24.5649 15.2557 24.5649 15.483C24.5649 15.8125 24.6843 16.0644 24.9229 16.2386C25.1653 16.4091 25.4721 16.4943 25.8434 16.4943ZM26.3547 21.267C25.9949 21.267 25.6862 21.1477 25.4286 20.9091C25.171 20.6705 25.0422 20.3826 25.0422 20.0455C25.0422 19.7083 25.171 19.4205 25.4286 19.1818C25.6862 18.9432 25.9949 18.8239 26.3547 18.8239C26.7146 18.8239 27.0214 18.9432 27.2752 19.1818C27.5327 19.4205 27.6615 19.7083 27.6615 20.0455C27.6615 20.3826 27.5327 20.6705 27.2752 20.9091C27.0214 21.1477 26.7146 21.267 26.3547 21.267ZM31.7828 18V9.27273H34.0896V10.8125H34.1919C34.3737 10.3011 34.6767 9.89773 35.101 9.60227C35.5252 9.30682 36.0328 9.15909 36.6237 9.15909C37.2222 9.15909 37.7316 9.30871 38.1521 9.60795C38.5726 9.90341 38.8529 10.3049 38.993 10.8125H39.0839C39.262 10.3125 39.5839 9.91288 40.0498 9.61364C40.5195 9.31061 41.0745 9.15909 41.7146 9.15909C42.529 9.15909 43.19 9.41856 43.6976 9.9375C44.2089 10.4527 44.4646 11.1837 44.4646 12.1307V18H42.0498V12.608C42.0498 12.1231 41.921 11.7595 41.6635 11.517C41.4059 11.2746 41.0839 11.1534 40.6976 11.1534C40.2582 11.1534 39.9154 11.2936 39.6691 11.5739C39.4229 11.8504 39.2998 12.2159 39.2998 12.6705V18H36.9532V12.5568C36.9532 12.1288 36.8301 11.7879 36.5839 11.5341C36.3415 11.2803 36.0214 11.1534 35.6237 11.1534C35.3548 11.1534 35.1123 11.2216 34.8964 11.358C34.6843 11.4905 34.5157 11.678 34.3907 11.9205C34.2657 12.1591 34.2032 12.4394 34.2032 12.7614V18H31.7828ZM52.9756 18.142C52.3127 18.142 51.7123 17.9716 51.1744 17.6307C50.6403 17.286 50.2161 16.7803 49.9017 16.1136C49.5911 15.4432 49.4358 14.6212 49.4358 13.6477C49.4358 12.6477 49.5968 11.8163 49.9188 11.1534C50.2407 10.4867 50.6688 9.98864 51.2028 9.65909C51.7407 9.32576 52.3297 9.15909 52.9699 9.15909C53.4585 9.15909 53.8657 9.24242 54.1915 9.40909C54.521 9.57197 54.7862 9.77652 54.9869 10.0227C55.1915 10.2652 55.3468 10.5038 55.4528 10.7386H55.5267V6.36364H57.9415V18H55.5551V16.6023H55.4528C55.3392 16.8447 55.1782 17.0852 54.9699 17.3239C54.7653 17.5587 54.4983 17.7538 54.1688 17.9091C53.843 18.0644 53.4453 18.142 52.9756 18.142ZM53.7426 16.2159C54.1328 16.2159 54.4623 16.1098 54.7313 15.8977C55.004 15.6818 55.2123 15.3807 55.3563 14.9943C55.504 14.608 55.5778 14.1553 55.5778 13.6364C55.5778 13.1174 55.5059 12.6667 55.3619 12.2841C55.218 11.9015 55.0097 11.6061 54.7369 11.3977C54.4642 11.1894 54.1328 11.0852 53.7426 11.0852C53.3449 11.0852 53.0097 11.1932 52.7369 11.4091C52.4642 11.625 52.2578 11.9242 52.1176 12.3068C51.9775 12.6894 51.9074 13.1326 51.9074 13.6364C51.9074 14.1439 51.9775 14.5928 52.1176 14.983C52.2616 15.3693 52.468 15.6723 52.7369 15.892C53.0097 16.108 53.3449 16.2159 53.7426 16.2159ZM53.2653 8.67614V7.25H58.9358V8.67614H53.2653ZM63.7488 18.1705C62.8511 18.1705 62.0784 17.9886 61.4306 17.625C60.7867 17.2576 60.2905 16.7386 59.942 16.0682C59.5935 15.3939 59.4193 14.5966 59.4193 13.6761C59.4193 12.7784 59.5935 11.9905 59.942 11.3125C60.2905 10.6345 60.781 10.1061 61.4136 9.72727C62.0499 9.34848 62.7962 9.15909 63.6522 9.15909C64.228 9.15909 64.764 9.25189 65.2602 9.4375C65.7602 9.61932 66.1958 9.89394 66.567 10.2614C66.942 10.6288 67.2337 11.0909 67.442 11.6477C67.6503 12.2008 67.7545 12.8485 67.7545 13.5909V14.2557H60.3852V12.7557H65.4761C65.4761 12.4072 65.4003 12.0985 65.2488 11.8295C65.0973 11.5606 64.8871 11.3504 64.6181 11.1989C64.353 11.0436 64.0443 10.9659 63.692 10.9659C63.3246 10.9659 62.9988 11.0511 62.7147 11.2216C62.4344 11.3883 62.2147 11.6136 62.0556 11.8977C61.8965 12.178 61.8151 12.4905 61.8113 12.8352V14.2614C61.8113 14.6932 61.8909 15.0663 62.0499 15.3807C62.2128 15.6951 62.442 15.9375 62.7374 16.108C63.0329 16.2784 63.3833 16.3636 63.7886 16.3636C64.0575 16.3636 64.3037 16.3258 64.5272 16.25C64.7507 16.1742 64.942 16.0606 65.1011 15.9091C65.2602 15.7576 65.3814 15.572 65.4647 15.3523L67.7034 15.5C67.5897 16.0379 67.3568 16.5076 67.0045 16.9091C66.656 17.3068 66.2052 17.6174 65.6522 17.8409C65.103 18.0606 64.4685 18.1705 63.7488 18.1705ZM64.2715 6.61364L66.5102 8.38068H64.8454L63.584 7.38636L62.3056 8.38068H60.6409L62.8795 6.61364H64.2715ZM67.0272 7.38636H65.7715L65.6636 6.53409C65.9893 6.51894 66.2261 6.47727 66.3738 6.40909C66.5215 6.34091 66.5954 6.24053 66.5954 6.10795C66.5954 5.93371 66.5026 5.81629 66.317 5.75568C66.1314 5.69508 65.9003 5.66477 65.6238 5.66477L65.6806 4.75C66.4496 4.75 67.0367 4.86364 67.442 5.09091C67.8473 5.31439 68.0499 5.63068 68.0499 6.03977C68.0499 6.32386 67.942 6.54167 67.7261 6.69318C67.514 6.84091 67.281 6.93561 67.0272 6.97727V7.38636ZM72.7172 18V9.27273H75.024V10.8125H75.1263C75.3081 10.3011 75.6111 9.89773 76.0353 9.60227C76.4596 9.30682 76.9672 9.15909 77.5581 9.15909C78.1566 9.15909 78.666 9.30871 79.0865 9.60795C79.5069 9.90341 79.7872 10.3049 79.9274 10.8125H80.0183C80.1963 10.3125 80.5183 9.91288 80.9842 9.61364C81.4539 9.31061 82.0088 9.15909 82.649 9.15909C83.4634 9.15909 84.1244 9.41856 84.6319 9.9375C85.1433 10.4527 85.399 11.1837 85.399 12.1307V18H82.9842V12.608C82.9842 12.1231 82.8554 11.7595 82.5978 11.517C82.3403 11.2746 82.0183 11.1534 81.6319 11.1534C81.1925 11.1534 80.8497 11.2936 80.6035 11.5739C80.3573 11.8504 80.2342 12.2159 80.2342 12.6705V18H77.8876V12.5568C77.8876 12.1288 77.7645 11.7879 77.5183 11.5341C77.2759 11.2803 76.9558 11.1534 76.5581 11.1534C76.2891 11.1534 76.0467 11.2216 75.8308 11.358C75.6187 11.4905 75.4501 11.678 75.3251 11.9205C75.2001 12.1591 75.1376 12.4394 75.1376 12.7614V18H72.7172ZM94.8555 8.76136H96.2986C96.2986 9.72348 96.0695 10.4735 95.6111 11.0114C95.1528 11.5455 94.4161 11.8125 93.4009 11.8125V10.8466C93.8024 10.8466 94.1073 10.7633 94.3157 10.5966C94.524 10.4261 94.6661 10.1856 94.7418 9.875C94.8176 9.56439 94.8555 9.19318 94.8555 8.76136ZM91.0941 18.1705C90.2115 18.1705 89.4483 17.983 88.8043 17.608C88.1642 17.2292 87.6698 16.7027 87.3214 16.0284C86.9729 15.3504 86.7986 14.5644 86.7986 13.6705C86.7986 12.7689 86.9729 11.9811 87.3214 11.3068C87.6698 10.6288 88.1642 10.1023 88.8043 9.72727C89.4483 9.34848 90.2115 9.15909 91.0941 9.15909C91.9767 9.15909 92.738 9.34848 93.3782 9.72727C94.0221 10.1023 94.5183 10.6288 94.8668 11.3068C95.2153 11.9811 95.3895 12.7689 95.3895 13.6705C95.3895 14.5644 95.2153 15.3504 94.8668 16.0284C94.5183 16.7027 94.0221 17.2292 93.3782 17.608C92.738 17.983 91.9767 18.1705 91.0941 18.1705ZM91.1055 16.2955C91.507 16.2955 91.8422 16.1818 92.1111 15.9545C92.3801 15.7235 92.5827 15.4091 92.7191 15.0114C92.8592 14.6136 92.9293 14.161 92.9293 13.6534C92.9293 13.1458 92.8592 12.6932 92.7191 12.2955C92.5827 11.8977 92.3801 11.5833 92.1111 11.3523C91.8422 11.1212 91.507 11.0057 91.1055 11.0057C90.7001 11.0057 90.3592 11.1212 90.0827 11.3523C89.81 11.5833 89.6036 11.8977 89.4634 12.2955C89.327 12.6932 89.2589 13.1458 89.2589 13.6534C89.2589 14.161 89.327 14.6136 89.4634 15.0114C89.6036 15.4091 89.81 15.7235 90.0827 15.9545C90.3592 16.1818 90.7001 16.2955 91.1055 16.2955ZM91.9861 8.02273H90.1907L90.0657 7C90.4672 6.98106 90.7532 6.92803 90.9236 6.84091C91.0941 6.75 91.1774 6.63068 91.1736 6.48295C91.1774 6.27841 91.0695 6.14015 90.8498 6.06818C90.6339 5.99621 90.363 5.96023 90.0373 5.96023L90.0998 4.86364C91.1111 4.86364 91.8801 5 92.4066 5.27273C92.9369 5.54545 93.2001 5.92424 93.1964 6.40909C93.2001 6.75379 93.0751 7.01515 92.8214 7.19318C92.5714 7.36742 92.293 7.47727 91.9861 7.52273V8.02273ZM103.859 18.142C103.196 18.142 102.596 17.9716 102.058 17.6307C101.524 17.286 101.1 16.7803 100.785 16.1136C100.475 15.4432 100.32 14.6212 100.32 13.6477C100.32 12.6477 100.481 11.8163 100.802 11.1534C101.124 10.4867 101.552 9.98864 102.087 9.65909C102.624 9.32576 103.213 9.15909 103.854 9.15909C104.342 9.15909 104.749 9.24242 105.075 9.40909C105.405 9.57197 105.67 9.77652 105.871 10.0227C106.075 10.2652 106.231 10.5038 106.337 10.7386H106.41V6.36364H108.825V18H106.439V16.6023H106.337C106.223 16.8447 106.062 17.0852 105.854 17.3239C105.649 17.5587 105.382 17.7538 105.052 17.9091C104.727 18.0644 104.329 18.142 103.859 18.142ZM104.626 16.2159C105.017 16.2159 105.346 16.1098 105.615 15.8977C105.888 15.6818 106.096 15.3807 106.24 14.9943C106.388 14.608 106.462 14.1553 106.462 13.6364C106.462 13.1174 106.39 12.6667 106.246 12.2841C106.102 11.9015 105.893 11.6061 105.621 11.3977C105.348 11.1894 105.017 11.0852 104.626 11.0852C104.229 11.0852 103.893 11.1932 103.621 11.4091C103.348 11.625 103.142 11.9242 103.001 12.3068C102.861 12.6894 102.791 13.1326 102.791 13.6364C102.791 14.1439 102.861 14.5928 103.001 14.983C103.145 15.3693 103.352 15.6723 103.621 15.892C103.893 16.108 104.229 16.2159 104.626 16.2159ZM113.144 18.1648C112.587 18.1648 112.091 18.0682 111.655 17.875C111.22 17.678 110.875 17.3883 110.621 17.0057C110.371 16.6193 110.246 16.1383 110.246 15.5625C110.246 15.0777 110.335 14.6705 110.513 14.3409C110.691 14.0114 110.934 13.7462 111.241 13.5455C111.547 13.3447 111.896 13.1932 112.286 13.0909C112.68 12.9886 113.093 12.9167 113.525 12.875C114.032 12.822 114.441 12.7727 114.752 12.7273C115.062 12.678 115.288 12.6061 115.428 12.5114C115.568 12.4167 115.638 12.2765 115.638 12.0909V12.0568C115.638 11.697 115.525 11.4186 115.297 11.2216C115.074 11.0246 114.756 10.9261 114.343 10.9261C113.907 10.9261 113.561 11.0227 113.303 11.2159C113.045 11.4053 112.875 11.6439 112.792 11.9318L110.553 11.75C110.667 11.2197 110.89 10.7614 111.223 10.375C111.557 9.98485 111.987 9.68561 112.513 9.47727C113.044 9.26515 113.657 9.15909 114.354 9.15909C114.839 9.15909 115.303 9.21591 115.746 9.32955C116.193 9.44318 116.589 9.61932 116.934 9.85795C117.282 10.0966 117.557 10.4034 117.758 10.7784C117.958 11.1496 118.059 11.5947 118.059 12.1136V18H115.763V16.7898H115.695C115.555 17.0625 115.367 17.303 115.133 17.5114C114.898 17.7159 114.616 17.8769 114.286 17.9943C113.956 18.108 113.576 18.1648 113.144 18.1648ZM113.837 16.4943C114.193 16.4943 114.508 16.4242 114.78 16.2841C115.053 16.1402 115.267 15.947 115.422 15.7045C115.578 15.4621 115.655 15.1875 115.655 14.8807V13.9545C115.58 14.0038 115.475 14.0492 115.343 14.0909C115.214 14.1288 115.068 14.1648 114.905 14.1989C114.742 14.2292 114.58 14.2576 114.417 14.2841C114.254 14.3068 114.106 14.3277 113.973 14.3466C113.689 14.3883 113.441 14.4545 113.229 14.5455C113.017 14.6364 112.852 14.7595 112.735 14.9148C112.617 15.0663 112.559 15.2557 112.559 15.483C112.559 15.8125 112.678 16.0644 112.917 16.2386C113.159 16.4091 113.466 16.4943 113.837 16.4943ZM122.197 12.9545V18H119.777V9.27273H122.083V10.8125H122.186C122.379 10.3049 122.703 9.90341 123.157 9.60795C123.612 9.30871 124.163 9.15909 124.811 9.15909C125.417 9.15909 125.945 9.29167 126.396 9.55682C126.847 9.82197 127.197 10.2008 127.447 10.6932C127.697 11.1818 127.822 11.7652 127.822 12.4432V18H125.402V12.875C125.405 12.3409 125.269 11.9242 124.992 11.625C124.716 11.322 124.335 11.1705 123.85 11.1705C123.525 11.1705 123.237 11.2405 122.987 11.3807C122.741 11.5208 122.547 11.7254 122.407 11.9943C122.271 12.2595 122.201 12.5795 122.197 12.9545ZM131.99 12.9545V18H129.57V6.36364H131.922V10.8125H132.024C132.221 10.2973 132.539 9.89394 132.979 9.60227C133.418 9.30682 133.969 9.15909 134.632 9.15909C135.238 9.15909 135.767 9.29167 136.217 9.55682C136.672 9.81818 137.024 10.1951 137.274 10.6875C137.528 11.1761 137.653 11.7614 137.649 12.4432V18H135.229V12.875C135.233 12.3371 135.096 11.9186 134.82 11.6193C134.547 11.3201 134.164 11.1705 133.672 11.1705C133.342 11.1705 133.051 11.2405 132.797 11.3807C132.547 11.5208 132.35 11.7254 132.206 11.9943C132.066 12.2595 131.994 12.5795 131.99 12.9545ZM150.199 11.7614L147.983 11.8977C147.945 11.7083 147.863 11.5379 147.738 11.3864C147.613 11.2311 147.449 11.108 147.244 11.017C147.043 10.9223 146.803 10.875 146.522 10.875C146.147 10.875 145.831 10.9545 145.574 11.1136C145.316 11.2689 145.187 11.4773 145.187 11.7386C145.187 11.947 145.27 12.1231 145.437 12.267C145.604 12.411 145.89 12.5265 146.295 12.6136L147.875 12.9318C148.723 13.1061 149.356 13.3864 149.772 13.7727C150.189 14.1591 150.397 14.6667 150.397 15.2955C150.397 15.8674 150.229 16.3693 149.892 16.8011C149.558 17.233 149.1 17.5701 148.517 17.8125C147.937 18.0511 147.269 18.1705 146.511 18.1705C145.356 18.1705 144.435 17.9299 143.75 17.4489C143.068 16.964 142.668 16.3049 142.551 15.4716L144.931 15.3466C145.003 15.6989 145.178 15.9678 145.454 16.1534C145.731 16.3352 146.085 16.4261 146.517 16.4261C146.941 16.4261 147.282 16.3447 147.539 16.1818C147.801 16.0152 147.933 15.8011 147.937 15.5398C147.933 15.3201 147.841 15.1402 147.659 15C147.477 14.8561 147.197 14.7462 146.818 14.6705L145.306 14.3693C144.454 14.1989 143.82 13.9034 143.403 13.483C142.99 13.0625 142.784 12.5265 142.784 11.875C142.784 11.3144 142.935 10.8314 143.238 10.4261C143.545 10.0208 143.975 9.70833 144.528 9.48864C145.085 9.26894 145.736 9.15909 146.483 9.15909C147.585 9.15909 148.452 9.39205 149.085 9.85795C149.721 10.3239 150.092 10.9583 150.199 11.7614ZM154.25 18.1648C153.693 18.1648 153.197 18.0682 152.762 17.875C152.326 17.678 151.981 17.3883 151.727 17.0057C151.477 16.6193 151.352 16.1383 151.352 15.5625C151.352 15.0777 151.441 14.6705 151.619 14.3409C151.798 14.0114 152.04 13.7462 152.347 13.5455C152.654 13.3447 153.002 13.1932 153.392 13.0909C153.786 12.9886 154.199 12.9167 154.631 12.875C155.138 12.822 155.548 12.7727 155.858 12.7273C156.169 12.678 156.394 12.6061 156.534 12.5114C156.674 12.4167 156.744 12.2765 156.744 12.0909V12.0568C156.744 11.697 156.631 11.4186 156.404 11.2216C156.18 11.0246 155.862 10.9261 155.449 10.9261C155.013 10.9261 154.667 11.0227 154.409 11.2159C154.152 11.4053 153.981 11.6439 153.898 11.9318L151.659 11.75C151.773 11.2197 151.996 10.7614 152.33 10.375C152.663 9.98485 153.093 9.68561 153.619 9.47727C154.15 9.26515 154.763 9.15909 155.46 9.15909C155.945 9.15909 156.409 9.21591 156.852 9.32955C157.299 9.44318 157.695 9.61932 158.04 9.85795C158.388 10.0966 158.663 10.4034 158.864 10.7784C159.065 11.1496 159.165 11.5947 159.165 12.1136V18H156.869V16.7898H156.801C156.661 17.0625 156.474 17.303 156.239 17.5114C156.004 17.7159 155.722 17.8769 155.392 17.9943C155.063 18.108 154.682 18.1648 154.25 18.1648ZM154.943 16.4943C155.299 16.4943 155.614 16.4242 155.887 16.2841C156.159 16.1402 156.373 15.947 156.529 15.7045C156.684 15.4621 156.762 15.1875 156.762 14.8807V13.9545C156.686 14.0038 156.582 14.0492 156.449 14.0909C156.32 14.1288 156.174 14.1648 156.012 14.1989C155.849 14.2292 155.686 14.2576 155.523 14.2841C155.36 14.3068 155.212 14.3277 155.08 14.3466C154.796 14.3883 154.548 14.4545 154.335 14.5455C154.123 14.6364 153.959 14.7595 153.841 14.9148C153.724 15.0663 153.665 15.2557 153.665 15.483C153.665 15.8125 153.784 16.0644 154.023 16.2386C154.265 16.4091 154.572 16.4943 154.943 16.4943ZM154.682 8.14773L155.887 5.5625H158.125L156.392 8.14773H154.682ZM164.826 18.1705C163.932 18.1705 163.163 17.9811 162.519 17.6023C161.879 17.2197 161.387 16.6894 161.042 16.0114C160.701 15.3333 160.531 14.553 160.531 13.6705C160.531 12.7765 160.703 11.9924 161.048 11.3182C161.396 10.6402 161.89 10.1117 162.531 9.73295C163.171 9.35038 163.932 9.15909 164.815 9.15909C165.576 9.15909 166.243 9.29735 166.815 9.57386C167.387 9.85038 167.839 10.2386 168.173 10.7386C168.506 11.2386 168.69 11.8258 168.724 12.5H166.44C166.375 12.0644 166.205 11.714 165.928 11.4489C165.656 11.1799 165.298 11.0455 164.854 11.0455C164.479 11.0455 164.152 11.1477 163.871 11.3523C163.595 11.553 163.379 11.8466 163.224 12.233C163.068 12.6193 162.991 13.0871 162.991 13.6364C162.991 14.1932 163.066 14.6667 163.218 15.0568C163.373 15.447 163.591 15.7443 163.871 15.9489C164.152 16.1534 164.479 16.2557 164.854 16.2557C165.131 16.2557 165.379 16.1989 165.599 16.0852C165.822 15.9716 166.006 15.8068 166.15 15.5909C166.298 15.3712 166.394 15.108 166.44 14.8011H168.724C168.686 15.4678 168.504 16.0549 168.178 16.5625C167.856 17.0663 167.411 17.4602 166.843 17.7443C166.275 18.0284 165.602 18.1705 164.826 18.1705ZM172.534 12.9545V18H170.113V6.36364H172.466V10.8125H172.568C172.765 10.2973 173.083 9.89394 173.523 9.60227C173.962 9.30682 174.513 9.15909 175.176 9.15909C175.782 9.15909 176.31 9.29167 176.761 9.55682C177.216 9.81818 177.568 10.1951 177.818 10.6875C178.072 11.1761 178.197 11.7614 178.193 12.4432V18H175.773V12.875C175.776 12.3371 175.64 11.9186 175.363 11.6193C175.091 11.3201 174.708 11.1705 174.216 11.1705C173.886 11.1705 173.594 11.2405 173.341 11.3807C173.091 11.5208 172.894 11.7254 172.75 11.9943C172.61 12.2595 172.538 12.5795 172.534 12.9545ZM4.18182 42.142C3.51894 42.142 2.91856 41.9716 2.38068 41.6307C1.84659 41.286 1.42235 40.7803 1.10795 40.1136C0.797349 39.4432 0.642045 38.6212 0.642045 37.6477C0.642045 36.6477 0.80303 35.8163 1.125 35.1534C1.44697 34.4867 1.875 33.9886 2.40909 33.6591C2.94697 33.3258 3.53598 33.1591 4.17614 33.1591C4.66477 33.1591 5.07197 33.2424 5.39773 33.4091C5.72727 33.572 5.99242 33.7765 6.19318 34.0227C6.39773 34.2652 6.55303 34.5038 6.65909 34.7386H6.73295V30.3636H9.14773V42H6.76136V40.6023H6.65909C6.54545 40.8447 6.38447 41.0852 6.17614 41.3239C5.97159 41.5587 5.70455 41.7538 5.375 41.9091C5.04924 42.0644 4.65152 42.142 4.18182 42.142ZM4.94886 40.2159C5.33902 40.2159 5.66856 40.1098 5.9375 39.8977C6.21023 39.6818 6.41856 39.3807 6.5625 38.9943C6.71023 38.608 6.78409 38.1553 6.78409 37.6364C6.78409 37.1174 6.71212 36.6667 6.56818 36.2841C6.42424 35.9015 6.21591 35.6061 5.94318 35.3977C5.67045 35.1894 5.33902 35.0852 4.94886 35.0852C4.55114 35.0852 4.21591 35.1932 3.94318 35.4091C3.67045 35.625 3.46402 35.9242 3.32386 36.3068C3.18371 36.6894 3.11364 37.1326 3.11364 37.6364C3.11364 38.1439 3.18371 38.5928 3.32386 38.983C3.4678 39.3693 3.67424 39.6723 3.94318 39.892C4.21591 40.108 4.55114 40.2159 4.94886 40.2159ZM10.9778 42V33.2727H13.3982V42H10.9778ZM12.1937 32.1477C11.8338 32.1477 11.5251 32.0284 11.2676 31.7898C11.0138 31.5473 10.8869 31.2576 10.8869 30.9205C10.8869 30.5871 11.0138 30.3011 11.2676 30.0625C11.5251 29.8201 11.8338 29.6989 12.1937 29.6989C12.5535 29.6989 12.8604 29.8201 13.1141 30.0625C13.3717 30.3011 13.5005 30.5871 13.5005 30.9205C13.5005 31.2576 13.3717 31.5473 13.1141 31.7898C12.8604 32.0284 12.5535 32.1477 12.1937 32.1477ZM12.2107 45.267C11.8509 45.267 11.5422 45.1477 11.2846 44.9091C11.027 44.6705 10.8982 44.3826 10.8982 44.0455C10.8982 43.7083 11.027 43.4205 11.2846 43.1818C11.5422 42.9432 11.8509 42.8239 12.2107 42.8239C12.5706 42.8239 12.8774 42.9432 13.1312 43.1818C13.3888 43.4205 13.5176 43.7083 13.5176 44.0455C13.5176 44.3826 13.3888 44.6705 13.1312 44.9091C12.8774 45.1477 12.5706 45.267 12.2107 45.267ZM19.1203 42.1705C18.2264 42.1705 17.4575 41.9811 16.8135 41.6023C16.1734 41.2197 15.6809 40.6894 15.3363 40.0114C14.9953 39.3333 14.8249 38.553 14.8249 37.6705C14.8249 36.7765 14.9972 35.9924 15.3419 35.3182C15.6904 34.6402 16.1847 34.1117 16.8249 33.733C17.465 33.3504 18.2264 33.1591 19.109 33.1591C19.8703 33.1591 20.537 33.2973 21.109 33.5739C21.6809 33.8504 22.1336 34.2386 22.4669 34.7386C22.8003 35.2386 22.984 35.8258 23.0181 36.5H20.734C20.6696 36.0644 20.4991 35.714 20.2226 35.4489C19.9499 35.1799 19.5919 35.0455 19.1488 35.0455C18.7738 35.0455 18.4461 35.1477 18.1658 35.3523C17.8893 35.553 17.6734 35.8466 17.5181 36.233C17.3628 36.6193 17.2851 37.0871 17.2851 37.6364C17.2851 38.1932 17.3609 38.6667 17.5124 39.0568C17.6677 39.447 17.8855 39.7443 18.1658 39.9489C18.4461 40.1534 18.7738 40.2557 19.1488 40.2557C19.4253 40.2557 19.6734 40.1989 19.8931 40.0852C20.1166 39.9716 20.3003 39.8068 20.4442 39.5909C20.5919 39.3712 20.6885 39.108 20.734 38.8011H23.0181C22.9802 39.4678 22.7984 40.0549 22.4726 40.5625C22.1506 41.0663 21.7056 41.4602 21.1374 41.7443C20.5692 42.0284 19.8969 42.1705 19.1203 42.1705ZM26.8282 36.9545V42H24.4078V30.3636H26.7601V34.8125H26.8623C27.0593 34.2973 27.3775 33.8939 27.8169 33.6023C28.2563 33.3068 28.8074 33.1591 29.4703 33.1591C30.0763 33.1591 30.6048 33.2917 31.0555 33.5568C31.5101 33.8182 31.8623 34.1951 32.1123 34.6875C32.3661 35.1761 32.4911 35.7614 32.4873 36.4432V42H30.0669V36.875C30.0707 36.3371 29.9343 35.9186 29.6578 35.6193C29.3851 35.3201 29.0025 35.1705 28.5101 35.1705C28.1805 35.1705 27.8888 35.2405 27.6351 35.3807C27.3851 35.5208 27.1881 35.7254 27.0441 35.9943C26.904 36.2595 26.832 36.5795 26.8282 36.9545ZM45.9116 33.2727L42.8605 42H40.1332L37.0821 33.2727H39.6389L41.4514 39.517H41.5423L43.3491 33.2727H45.9116ZM52.5869 38.2841V33.2727H55.0073V42H52.6835V40.4148H52.5926C52.3956 40.9261 52.0679 41.3371 51.6096 41.6477C51.1551 41.9583 50.6001 42.1136 49.9448 42.1136C49.3615 42.1136 48.8482 41.9811 48.4051 41.7159C47.9619 41.4508 47.6153 41.0739 47.3653 40.5852C47.1191 40.0966 46.9941 39.5114 46.9903 38.8295V33.2727H49.4107V38.3977C49.4145 38.9129 49.5528 39.3201 49.8255 39.6193C50.0982 39.9186 50.4638 40.0682 50.9221 40.0682C51.2138 40.0682 51.4865 40.0019 51.7403 39.8693C51.9941 39.733 52.1986 39.5322 52.3539 39.267C52.513 39.0019 52.5907 38.6742 52.5869 38.2841ZM51.3653 45.267C51.0054 45.267 50.6967 45.1477 50.4391 44.9091C50.1816 44.6705 50.0528 44.3826 50.0528 44.0455C50.0528 43.7083 50.1816 43.4205 50.4391 43.1818C50.6967 42.9432 51.0054 42.8239 51.3653 42.8239C51.7251 42.8239 52.032 42.9432 52.2857 43.1818C52.5433 43.4205 52.6721 43.7083 52.6721 44.0455C52.6721 44.3826 52.5433 44.6705 52.2857 44.9091C52.032 45.1477 51.7251 45.267 51.3653 45.267Z" fill="white"/>
<path d="M189.471 11.146C189.056 11.4844 188.976 12.141 189.294 12.6126C189.611 13.0843 190.205 13.1923 190.62 12.8539L189.471 11.146ZM256.999 23.1779L254.406 11.3082L246.51 19.4317L256.999 23.1779ZM190.62 12.8539C203.753 2.15447 230.623 -3.23675 250.487 16.919L251.74 15.3865C231.013 -5.64491 203.106 0.038013 189.471 11.146L190.62 12.8539Z" fill="white"/>

</svg>
