<svg width="358" height="67" viewBox="0 0 358 67" fill="none" xmlns="http://www.w3.org/2000/svg">
<defs>
<linearGradient id="paint0_linear_15899_82981" x1="281.958" y1="54.0711" x2="288.761" y2="31.2511" gradientUnits="userSpaceOnUse">
<stop stop-color="#7D2EBD"/>
<stop offset="1" stop-color="#C054EE"/>
</linearGradient>
</defs>
<rect x="238" y="27" width="120" height="40" rx="8" fill="white"/>
<path d="M260 42.3335V51.6666M255.333 47.0001H264.667" stroke="#7E2EBC" stroke-width="1.67" stroke-linecap="round" stroke-linejoin="round"/>
<path d="M278.543 44.7464C278.503 44.3454 278.333 44.0339 278.031 43.8118C277.729 43.5897 277.32 43.4787 276.803 43.4787C276.452 43.4787 276.155 43.5284 275.913 43.6278C275.671 43.724 275.486 43.8582 275.356 44.0305C275.23 44.2029 275.167 44.3984 275.167 44.6172C275.161 44.7995 275.199 44.9586 275.282 45.0945C275.368 45.2304 275.486 45.348 275.635 45.4474C275.784 45.5436 275.956 45.6281 276.152 45.701C276.347 45.7706 276.556 45.8303 276.778 45.88L277.693 46.0987C278.137 46.1982 278.545 46.3307 278.916 46.4964C279.287 46.6622 279.609 46.866 279.881 47.108C280.152 47.3499 280.363 47.6349 280.512 47.9631C280.664 48.2912 280.742 48.6674 280.746 49.0916C280.742 49.7147 280.583 50.255 280.268 50.7124C279.957 51.1664 279.506 51.5194 278.916 51.7713C278.329 52.0199 277.622 52.1442 276.793 52.1442C275.971 52.1442 275.255 52.0182 274.645 51.7663C274.039 51.5144 273.565 51.1416 273.224 50.6477C272.885 50.1506 272.708 49.5357 272.692 48.8033H274.775C274.798 49.1446 274.896 49.4297 275.068 49.6584C275.244 49.8838 275.477 50.0545 275.769 50.1705C276.064 50.2831 276.397 50.3395 276.768 50.3395C277.133 50.3395 277.449 50.2865 277.718 50.1804C277.99 50.0743 278.2 49.9268 278.349 49.7379C278.498 49.549 278.573 49.3319 278.573 49.0866C278.573 48.858 278.505 48.6657 278.369 48.5099C278.237 48.3542 278.041 48.2216 277.782 48.1122C277.527 48.0028 277.214 47.9034 276.843 47.8139L275.734 47.5355C274.876 47.3267 274.198 47.0002 273.701 46.5561C273.204 46.112 272.957 45.5137 272.96 44.7614C272.957 44.1449 273.121 43.6063 273.452 43.1456C273.787 42.6849 274.246 42.3253 274.829 42.0668C275.413 41.8082 276.076 41.679 276.818 41.679C277.574 41.679 278.233 41.8082 278.797 42.0668C279.363 42.3253 279.804 42.6849 280.119 43.1456C280.434 43.6063 280.596 44.1399 280.606 44.7464H278.543ZM284.331 52.1442C283.844 52.1442 283.41 52.0597 283.029 51.8906C282.648 51.7183 282.346 51.4647 282.124 51.13C281.905 50.7919 281.796 50.371 281.796 49.8672C281.796 49.4429 281.874 49.0866 282.029 48.7983C282.185 48.5099 282.397 48.2779 282.666 48.1023C282.934 47.9266 283.239 47.794 283.581 47.7045C283.925 47.6151 284.287 47.5521 284.664 47.5156C285.109 47.4692 285.467 47.4261 285.738 47.3864C286.01 47.3433 286.207 47.2803 286.33 47.1974C286.453 47.1146 286.514 46.992 286.514 46.8295V46.7997C286.514 46.4848 286.414 46.2412 286.216 46.0689C286.02 45.8965 285.742 45.8104 285.38 45.8104C284.999 45.8104 284.696 45.8949 284.471 46.0639C284.245 46.2296 284.096 46.4384 284.023 46.6903L282.064 46.5312C282.164 46.0672 282.359 45.6662 282.651 45.3281C282.943 44.9867 283.319 44.7249 283.779 44.5426C284.243 44.357 284.78 44.2642 285.39 44.2642C285.815 44.2642 286.221 44.3139 286.608 44.4134C286.999 44.5128 287.346 44.6669 287.647 44.8757C287.952 45.0845 288.193 45.353 288.368 45.6811C288.544 46.0059 288.632 46.3954 288.632 46.8494V52H286.623V50.9411H286.564C286.441 51.1797 286.277 51.3902 286.071 51.5724C285.866 51.7514 285.619 51.8923 285.331 51.995C285.042 52.0945 284.709 52.1442 284.331 52.1442ZM284.938 50.6825C285.249 50.6825 285.525 50.6212 285.763 50.4986C286.002 50.3726 286.189 50.2036 286.325 49.9915C286.461 49.7794 286.529 49.5391 286.529 49.2706V48.4602C286.462 48.5033 286.371 48.5431 286.255 48.5795C286.143 48.6127 286.015 48.6442 285.873 48.674C285.73 48.7005 285.587 48.7254 285.445 48.7486C285.302 48.7685 285.173 48.7867 285.057 48.8033C284.809 48.8397 284.592 48.8977 284.406 48.9773C284.22 49.0568 284.076 49.1645 283.973 49.3004C283.871 49.433 283.819 49.5987 283.819 49.7976C283.819 50.0859 283.924 50.3063 284.132 50.4588C284.345 50.608 284.613 50.6825 284.938 50.6825ZM286.25 43.2699H284.679L284.57 42.375C284.921 42.3584 285.172 42.312 285.321 42.2358C285.47 42.1562 285.543 42.0518 285.539 41.9226C285.543 41.7436 285.448 41.6226 285.256 41.5597C285.067 41.4967 284.83 41.4652 284.545 41.4652L284.6 40.5057C285.485 40.5057 286.158 40.625 286.618 40.8636C287.082 41.1023 287.313 41.4337 287.309 41.858C287.313 42.1596 287.203 42.3883 286.981 42.544C286.762 42.6965 286.519 42.7926 286.25 42.8324V43.2699ZM292.393 47.5852V52H290.275V44.3636H292.293V45.7109H292.383C292.552 45.2668 292.835 44.9155 293.233 44.657C293.631 44.3951 294.113 44.2642 294.68 44.2642C295.21 44.2642 295.672 44.3802 296.067 44.6122C296.461 44.8442 296.768 45.1757 296.987 45.6065C297.205 46.0341 297.315 46.5445 297.315 47.1378V52H295.197V47.5156C295.2 47.0483 295.081 46.6837 294.839 46.4219C294.597 46.1567 294.264 46.0241 293.839 46.0241C293.554 46.0241 293.303 46.0855 293.084 46.2081C292.868 46.3307 292.699 46.5097 292.577 46.745C292.457 46.977 292.396 47.2571 292.393 47.5852ZM302.224 54.8636V44.3636H304.312V45.6463H304.407C304.499 45.4408 304.634 45.232 304.809 45.0199C304.988 44.8045 305.22 44.6255 305.505 44.483C305.794 44.3371 306.152 44.2642 306.579 44.2642C307.136 44.2642 307.65 44.41 308.12 44.7017C308.591 44.9901 308.967 45.4259 309.249 46.0092C309.531 46.5893 309.672 47.3168 309.672 48.1918C309.672 49.0436 309.534 49.7628 309.259 50.3494C308.987 50.9328 308.616 51.3752 308.145 51.6768C307.678 51.9751 307.154 52.1243 306.574 52.1243C306.163 52.1243 305.814 52.0563 305.525 51.9205C305.24 51.7846 305.007 51.6139 304.824 51.4084C304.642 51.1996 304.503 50.9891 304.407 50.777H304.342V54.8636H302.224ZM304.297 48.1818C304.297 48.6359 304.36 49.032 304.486 49.37C304.612 49.7081 304.794 49.9716 305.033 50.1605C305.272 50.3461 305.562 50.4389 305.903 50.4389C306.248 50.4389 306.539 50.3445 306.778 50.1555C307.017 49.9633 307.197 49.6982 307.32 49.3601C307.446 49.0187 307.509 48.6259 307.509 48.1818C307.509 47.741 307.448 47.3532 307.325 47.0185C307.202 46.6837 307.022 46.4219 306.783 46.233C306.544 46.044 306.251 45.9496 305.903 45.9496C305.558 45.9496 305.267 46.0407 305.028 46.223C304.793 46.4053 304.612 46.6638 304.486 46.9986C304.36 47.3333 304.297 47.7277 304.297 48.1818ZM313.201 47.5852V52H311.083V41.8182H313.142V45.7109H313.231C313.404 45.2602 313.682 44.9072 314.066 44.652C314.451 44.3935 314.933 44.2642 315.513 44.2642C316.043 44.2642 316.506 44.3802 316.9 44.6122C317.298 44.8409 317.606 45.1707 317.825 45.6016C318.047 46.0291 318.156 46.5412 318.153 47.1378V52H316.035V47.5156C316.038 47.045 315.919 46.6787 315.677 46.4169C315.439 46.1551 315.104 46.0241 314.673 46.0241C314.385 46.0241 314.129 46.0855 313.907 46.2081C313.689 46.3307 313.516 46.5097 313.39 46.745C313.268 46.977 313.205 47.2571 313.201 47.5852ZM321.997 52.1442C321.51 52.1442 321.076 52.0597 320.695 51.8906C320.314 51.7183 320.012 51.4647 319.79 51.13C319.571 50.7919 319.462 50.371 319.462 49.8672C319.462 49.4429 319.54 49.0866 319.695 48.7983C319.851 48.5099 320.063 48.2779 320.332 48.1023C320.6 47.9266 320.905 47.794 321.247 47.7045C321.591 47.6151 321.953 47.5521 322.33 47.5156C322.775 47.4692 323.133 47.4261 323.404 47.3864C323.676 47.3433 323.873 47.2803 323.996 47.1974C324.119 47.1146 324.18 46.992 324.18 46.8295V46.7997C324.18 46.4848 324.08 46.2412 323.882 46.0689C323.686 45.8965 323.408 45.8104 323.046 45.8104C322.665 45.8104 322.362 45.8949 322.137 46.0639C321.911 46.2296 321.762 46.4384 321.689 46.6903L319.73 46.5312C319.83 46.0672 320.025 45.6662 320.317 45.3281C320.609 44.9867 320.985 44.7249 321.445 44.5426C321.91 44.357 322.446 44.2642 323.056 44.2642C323.481 44.2642 323.887 44.3139 324.274 44.4134C324.665 44.5128 325.012 44.6669 325.313 44.8757C325.618 45.0845 325.859 45.353 326.034 45.6811C326.21 46.0059 326.298 46.3954 326.298 46.8494V52H324.289V50.9411H324.23C324.107 51.1797 323.943 51.3902 323.737 51.5724C323.532 51.7514 323.285 51.8923 322.997 51.995C322.708 52.0945 322.375 52.1442 321.997 52.1442ZM322.604 50.6825C322.915 50.6825 323.191 50.6212 323.429 50.4986C323.668 50.3726 323.855 50.2036 323.991 49.9915C324.127 49.7794 324.195 49.5391 324.195 49.2706V48.4602C324.128 48.5033 324.037 48.5431 323.921 48.5795C323.809 48.6127 323.681 48.6442 323.539 48.674C323.396 48.7005 323.253 48.7254 323.111 48.7486C322.968 48.7685 322.839 48.7867 322.723 48.8033C322.475 48.8397 322.258 48.8977 322.072 48.9773C321.886 49.0568 321.742 49.1645 321.639 49.3004C321.537 49.433 321.485 49.5987 321.485 49.7976C321.485 50.0859 321.59 50.3063 321.798 50.4588C322.011 50.608 322.279 50.6825 322.604 50.6825ZM323.727 42.0369L325.686 43.5831H324.23L323.126 42.7131L322.007 43.5831H320.551L322.509 42.0369H323.727ZM326.139 42.7131H325.04L324.945 41.9673C325.231 41.9541 325.438 41.9176 325.567 41.858C325.696 41.7983 325.761 41.7105 325.761 41.5945C325.761 41.442 325.68 41.3393 325.517 41.2862C325.355 41.2332 325.153 41.2067 324.911 41.2067L324.96 40.4062C325.633 40.4062 326.147 40.5057 326.502 40.7045C326.856 40.9001 327.034 41.1768 327.034 41.5348C327.034 41.7834 326.939 41.974 326.75 42.1065C326.565 42.2358 326.361 42.3187 326.139 42.3551V42.7131ZM327.941 52V44.3636H329.959V45.7109H330.049C330.208 45.2635 330.473 44.9105 330.844 44.652C331.215 44.3935 331.66 44.2642 332.177 44.2642C332.7 44.2642 333.146 44.3951 333.514 44.657C333.882 44.9155 334.127 45.2668 334.25 45.7109H334.329C334.485 45.2734 334.767 44.9238 335.175 44.6619C335.586 44.3968 336.071 44.2642 336.631 44.2642C337.344 44.2642 337.922 44.4912 338.366 44.9453C338.814 45.3961 339.037 46.0357 339.037 46.8643V52H336.925V47.282C336.925 46.8577 336.812 46.5395 336.586 46.3274C336.361 46.1153 336.079 46.0092 335.741 46.0092C335.357 46.0092 335.057 46.1319 334.841 46.3771C334.626 46.6191 334.518 46.9389 334.518 47.3366V52H332.465V47.2372C332.465 46.8627 332.357 46.5644 332.142 46.3423C331.93 46.1203 331.65 46.0092 331.302 46.0092C331.066 46.0092 330.854 46.0689 330.665 46.1882C330.48 46.3042 330.332 46.4683 330.223 46.6804C330.113 46.8892 330.059 47.1345 330.059 47.4162V52H327.941Z" fill="url(#paint0_linear_15899_82981)"/>
<path d="M11.2784 8.86108H8.78977C8.74432 8.53911 8.65152 8.25313 8.51136 8.00313C8.37121 7.74934 8.19129 7.53343 7.97159 7.3554C7.75189 7.17737 7.49811 7.04101 7.21023 6.94631C6.92614 6.85161 6.61742 6.80427 6.28409 6.80427C5.68182 6.80427 5.1572 6.95389 4.71023 7.25313C4.26326 7.54858 3.91667 7.9804 3.67045 8.54858C3.42424 9.11298 3.30114 9.79858 3.30114 10.6054C3.30114 11.4349 3.42424 12.1319 3.67045 12.6963C3.92045 13.2607 4.26894 13.6868 4.71591 13.9747C5.16288 14.2626 5.67992 14.4065 6.26705 14.4065C6.59659 14.4065 6.90152 14.363 7.18182 14.2759C7.46591 14.1887 7.7178 14.0618 7.9375 13.8952C8.1572 13.7247 8.33902 13.5183 8.48295 13.2759C8.63068 13.0334 8.73295 12.7569 8.78977 12.4463L11.2784 12.4577C11.214 12.9918 11.053 13.5069 10.7955 14.0031C10.5417 14.4956 10.1989 14.9368 9.76705 15.327C9.33902 15.7134 8.82765 16.0202 8.23295 16.2474C7.64205 16.4709 6.97348 16.5827 6.22727 16.5827C5.18939 16.5827 4.26136 16.3478 3.44318 15.8781C2.62879 15.4084 1.98485 14.7285 1.51136 13.8384C1.04167 12.9482 0.806818 11.8706 0.806818 10.6054C0.806818 9.33646 1.04545 8.25692 1.52273 7.36677C2 6.47661 2.64773 5.79858 3.46591 5.33267C4.28409 4.86298 5.20455 4.62813 6.22727 4.62813C6.90152 4.62813 7.52652 4.72283 8.10227 4.91222C8.68182 5.10161 9.19508 5.37813 9.64205 5.74177C10.089 6.10161 10.4527 6.5429 10.733 7.06563C11.017 7.58836 11.1989 8.18684 11.2784 8.86108ZM15.2576 11.3781V16.4236H12.8372V4.78722H15.1894V9.23608H15.2917C15.4887 8.72093 15.8069 8.31752 16.2463 8.02586C16.6856 7.7304 17.2368 7.58267 17.8997 7.58267C18.5057 7.58267 19.0341 7.71525 19.4849 7.9804C19.9394 8.24177 20.2917 8.61866 20.5417 9.11108C20.7955 9.59972 20.9205 10.1849 20.9167 10.8668V16.4236H18.4963V11.2986C18.5 10.7607 18.3637 10.3421 18.0872 10.0429C17.8144 9.74366 17.4319 9.59404 16.9394 9.59404C16.6099 9.59404 16.3182 9.66411 16.0644 9.80427C15.8144 9.94442 15.6175 10.149 15.4735 10.4179C15.3334 10.6831 15.2614 11.0031 15.2576 11.3781ZM25.1502 16.5884C24.5934 16.5884 24.0971 16.4918 23.6615 16.2986C23.2259 16.1016 22.8812 15.8118 22.6274 15.4293C22.3774 15.0429 22.2524 14.5618 22.2524 13.9861C22.2524 13.5012 22.3415 13.094 22.5195 12.7645C22.6975 12.4349 22.9399 12.1698 23.2468 11.969C23.5536 11.7683 23.9021 11.6168 24.2922 11.5145C24.6862 11.4122 25.099 11.3403 25.5309 11.2986C26.0384 11.2456 26.4475 11.1963 26.7581 11.1509C27.0687 11.1016 27.2941 11.0296 27.4343 10.9349C27.5744 10.8403 27.6445 10.7001 27.6445 10.5145V10.4804C27.6445 10.1206 27.5309 9.84214 27.3036 9.64517C27.0801 9.4482 26.7619 9.34972 26.349 9.34972C25.9134 9.34972 25.5668 9.44631 25.3093 9.63949C25.0517 9.82889 24.8812 10.0675 24.7979 10.3554L22.5593 10.1736C22.6729 9.64328 22.8964 9.18495 23.2297 8.79858C23.563 8.40843 23.993 8.10919 24.5195 7.90086C25.0498 7.68874 25.6634 7.58267 26.3604 7.58267C26.8452 7.58267 27.3093 7.63949 27.7524 7.75313C28.1994 7.86677 28.5952 8.0429 28.9399 8.28154C29.2884 8.52017 29.563 8.82699 29.7638 9.20199C29.9646 9.5732 30.0649 10.0183 30.0649 10.5372V16.4236H27.7695V15.2134H27.7013C27.5612 15.4861 27.3737 15.7266 27.1388 15.9349C26.904 16.1395 26.6218 16.3005 26.2922 16.4179C25.9627 16.5315 25.582 16.5884 25.1502 16.5884ZM25.8434 14.9179C26.1994 14.9179 26.5138 14.8478 26.7865 14.7077C27.0593 14.5637 27.2733 14.3706 27.4286 14.1281C27.5839 13.8857 27.6615 13.6111 27.6615 13.3043V12.3781C27.5858 12.4274 27.4816 12.4728 27.349 12.5145C27.2202 12.5524 27.0744 12.5884 26.9115 12.6224C26.7487 12.6528 26.5858 12.6812 26.4229 12.7077C26.26 12.7304 26.1123 12.7512 25.9797 12.7702C25.6956 12.8118 25.4475 12.8781 25.2354 12.969C25.0233 13.0599 24.8585 13.1831 24.7411 13.3384C24.6237 13.4899 24.5649 13.6793 24.5649 13.9065C24.5649 14.2361 24.6843 14.488 24.9229 14.6622C25.1653 14.8327 25.4721 14.9179 25.8434 14.9179ZM26.3547 19.6906C25.9949 19.6906 25.6862 19.5713 25.4286 19.3327C25.171 19.094 25.0422 18.8062 25.0422 18.469C25.0422 18.1319 25.171 17.844 25.4286 17.6054C25.6862 17.3668 25.9949 17.2474 26.3547 17.2474C26.7146 17.2474 27.0214 17.3668 27.2752 17.6054C27.5327 17.844 27.6615 18.1319 27.6615 18.469C27.6615 18.8062 27.5327 19.094 27.2752 19.3327C27.0214 19.5713 26.7146 19.6906 26.3547 19.6906ZM31.7828 16.4236V7.69631H34.0896V9.23608H34.1919C34.3737 8.72472 34.6767 8.32131 35.101 8.02586C35.5252 7.7304 36.0328 7.58267 36.6237 7.58267C37.2222 7.58267 37.7316 7.7323 38.1521 8.03154C38.5726 8.32699 38.8529 8.72851 38.993 9.23608H39.0839C39.262 8.73608 39.5839 8.33646 40.0498 8.03722C40.5195 7.73419 41.0745 7.58267 41.7146 7.58267C42.529 7.58267 43.19 7.84214 43.6976 8.36108C44.2089 8.87624 44.4646 9.6073 44.4646 10.5543V16.4236H42.0498V11.0315C42.0498 10.5467 41.921 10.1831 41.6635 9.94063C41.4059 9.69821 41.0839 9.57699 40.6976 9.57699C40.2582 9.57699 39.9154 9.71714 39.6691 9.99745C39.4229 10.274 39.2998 10.6395 39.2998 11.094V16.4236H36.9532V10.9804C36.9532 10.5524 36.8301 10.2115 36.5839 9.95767C36.3415 9.70389 36.0214 9.57699 35.6237 9.57699C35.3548 9.57699 35.1123 9.64517 34.8964 9.78154C34.6843 9.91411 34.5157 10.1016 34.3907 10.344C34.2657 10.5827 34.2032 10.863 34.2032 11.1849V16.4236H31.7828ZM52.9756 16.5656C52.3127 16.5656 51.7123 16.3952 51.1744 16.0543C50.6403 15.7096 50.2161 15.2039 49.9017 14.5372C49.5911 13.8668 49.4358 13.0448 49.4358 12.0713C49.4358 11.0713 49.5968 10.2399 49.9188 9.57699C50.2407 8.91033 50.6688 8.41222 51.2028 8.08267C51.7407 7.74934 52.3297 7.58267 52.9699 7.58267C53.4585 7.58267 53.8657 7.66601 54.1915 7.83267C54.521 7.99555 54.7862 8.2001 54.9869 8.44631C55.1915 8.68874 55.3468 8.92737 55.4528 9.16222H55.5267V4.78722H57.9415V16.4236H55.5551V15.0259H55.4528C55.3392 15.2683 55.1782 15.5088 54.9699 15.7474C54.7653 15.9823 54.4983 16.1774 54.1688 16.3327C53.843 16.488 53.4453 16.5656 52.9756 16.5656ZM53.7426 14.6395C54.1328 14.6395 54.4623 14.5334 54.7313 14.3213C55.004 14.1054 55.2123 13.8043 55.3563 13.4179C55.504 13.0315 55.5778 12.5789 55.5778 12.0599C55.5778 11.541 55.5059 11.0903 55.3619 10.7077C55.218 10.3251 55.0097 10.0296 54.7369 9.82131C54.4642 9.61298 54.1328 9.50881 53.7426 9.50881C53.3449 9.50881 53.0097 9.61677 52.7369 9.83267C52.4642 10.0486 52.2578 10.3478 52.1176 10.7304C51.9775 11.113 51.9074 11.5562 51.9074 12.0599C51.9074 12.5675 51.9775 13.0164 52.1176 13.4065C52.2616 13.7929 52.468 14.0959 52.7369 14.3156C53.0097 14.5315 53.3449 14.6395 53.7426 14.6395ZM53.2653 7.09972V5.67358H58.9358V7.09972H53.2653ZM63.7488 16.594C62.8511 16.594 62.0784 16.4122 61.4306 16.0486C60.7867 15.6812 60.2905 15.1622 59.942 14.4918C59.5935 13.8175 59.4193 13.0202 59.4193 12.0997C59.4193 11.202 59.5935 10.4141 59.942 9.73608C60.2905 9.05805 60.781 8.52964 61.4136 8.15086C62.0499 7.77207 62.7962 7.58267 63.6522 7.58267C64.228 7.58267 64.764 7.67548 65.2602 7.86108C65.7602 8.0429 66.1958 8.31752 66.567 8.68495C66.942 9.05237 67.2337 9.51449 67.442 10.0713C67.6503 10.6243 67.7545 11.2721 67.7545 12.0145V12.6793H60.3852V11.1793H65.4761C65.4761 10.8308 65.4003 10.5221 65.2488 10.2531C65.0973 9.98419 64.8871 9.77396 64.6181 9.62245C64.353 9.46714 64.0443 9.38949 63.692 9.38949C63.3246 9.38949 62.9988 9.47472 62.7147 9.64517C62.4344 9.81184 62.2147 10.0372 62.0556 10.3213C61.8965 10.6016 61.8151 10.9141 61.8113 11.2588V12.6849C61.8113 13.1168 61.8909 13.4899 62.0499 13.8043C62.2128 14.1187 62.442 14.3611 62.7374 14.5315C63.0329 14.702 63.3833 14.7872 63.7886 14.7872C64.0575 14.7872 64.3037 14.7493 64.5272 14.6736C64.7507 14.5978 64.942 14.4842 65.1011 14.3327C65.2602 14.1812 65.3814 13.9956 65.4647 13.7759L67.7034 13.9236C67.5897 14.4615 67.3568 14.9312 67.0045 15.3327C66.656 15.7304 66.2052 16.041 65.6522 16.2645C65.103 16.4842 64.4685 16.594 63.7488 16.594ZM64.2715 5.03722L66.5102 6.80427H64.8454L63.584 5.80995L62.3056 6.80427H60.6409L62.8795 5.03722H64.2715ZM67.0272 5.80995H65.7715L65.6636 4.95767C65.9893 4.94252 66.2261 4.90086 66.3738 4.83267C66.5215 4.76449 66.5954 4.66411 66.5954 4.53154C66.5954 4.3573 66.5026 4.23987 66.317 4.17927C66.1314 4.11866 65.9003 4.08836 65.6238 4.08836L65.6806 3.17358C66.4496 3.17358 67.0367 3.28722 67.442 3.51449C67.8473 3.73798 68.0499 4.05427 68.0499 4.46336C68.0499 4.74745 67.942 4.96525 67.7261 5.11677C67.514 5.26449 67.281 5.35919 67.0272 5.40086V5.80995ZM72.7172 16.4236V7.69631H75.024V9.23608H75.1263C75.3081 8.72472 75.6111 8.32131 76.0353 8.02586C76.4596 7.7304 76.9672 7.58267 77.5581 7.58267C78.1566 7.58267 78.666 7.7323 79.0865 8.03154C79.5069 8.32699 79.7872 8.72851 79.9274 9.23608H80.0183C80.1963 8.73608 80.5183 8.33646 80.9842 8.03722C81.4539 7.73419 82.0088 7.58267 82.649 7.58267C83.4634 7.58267 84.1244 7.84214 84.6319 8.36108C85.1433 8.87624 85.399 9.6073 85.399 10.5543V16.4236H82.9842V11.0315C82.9842 10.5467 82.8554 10.1831 82.5978 9.94063C82.3403 9.69821 82.0183 9.57699 81.6319 9.57699C81.1925 9.57699 80.8497 9.71714 80.6035 9.99745C80.3573 10.274 80.2342 10.6395 80.2342 11.094V16.4236H77.8876V10.9804C77.8876 10.5524 77.7645 10.2115 77.5183 9.95767C77.2759 9.70389 76.9558 9.57699 76.5581 9.57699C76.2891 9.57699 76.0467 9.64517 75.8308 9.78154C75.6187 9.91411 75.4501 10.1016 75.3251 10.344C75.2001 10.5827 75.1376 10.863 75.1376 11.1849V16.4236H72.7172ZM94.8555 7.18495H96.2986C96.2986 8.14707 96.0695 8.89707 95.6111 9.43495C95.1528 9.96904 94.4161 10.2361 93.4009 10.2361V9.27017C93.8024 9.27017 94.1073 9.18684 94.3157 9.02017C94.524 8.84972 94.6661 8.60919 94.7418 8.29858C94.8176 7.98798 94.8555 7.61677 94.8555 7.18495ZM91.0941 16.594C90.2115 16.594 89.4483 16.4065 88.8043 16.0315C88.1642 15.6528 87.6698 15.1262 87.3214 14.452C86.9729 13.774 86.7986 12.988 86.7986 12.094C86.7986 11.1925 86.9729 10.4046 87.3214 9.7304C87.6698 9.05237 88.1642 8.52586 88.8043 8.15086C89.4483 7.77207 90.2115 7.58267 91.0941 7.58267C91.9767 7.58267 92.738 7.77207 93.3782 8.15086C94.0221 8.52586 94.5183 9.05237 94.8668 9.7304C95.2153 10.4046 95.3895 11.1925 95.3895 12.094C95.3895 12.988 95.2153 13.774 94.8668 14.452C94.5183 15.1262 94.0221 15.6528 93.3782 16.0315C92.738 16.4065 91.9767 16.594 91.0941 16.594ZM91.1055 14.719C91.507 14.719 91.8422 14.6054 92.1111 14.3781C92.3801 14.1471 92.5827 13.8327 92.7191 13.4349C92.8592 13.0372 92.9293 12.5846 92.9293 12.077C92.9293 11.5694 92.8592 11.1168 92.7191 10.719C92.5827 10.3213 92.3801 10.0069 92.1111 9.77586C91.8422 9.5448 91.507 9.42927 91.1055 9.42927C90.7001 9.42927 90.3592 9.5448 90.0827 9.77586C89.81 10.0069 89.6036 10.3213 89.4634 10.719C89.327 11.1168 89.2589 11.5694 89.2589 12.077C89.2589 12.5846 89.327 13.0372 89.4634 13.4349C89.6036 13.8327 89.81 14.1471 90.0827 14.3781C90.3592 14.6054 90.7001 14.719 91.1055 14.719ZM91.9861 6.44631H90.1907L90.0657 5.42358C90.4672 5.40464 90.7532 5.35161 90.9236 5.26449C91.0941 5.17358 91.1774 5.05427 91.1736 4.90654C91.1774 4.70199 91.0695 4.56374 90.8498 4.49177C90.6339 4.4198 90.363 4.38381 90.0373 4.38381L90.0998 3.28722C91.1111 3.28722 91.8801 3.42358 92.4066 3.69631C92.9369 3.96904 93.2001 4.34783 93.1964 4.83267C93.2001 5.17737 93.0751 5.43874 92.8214 5.61677C92.5714 5.79101 92.293 5.90086 91.9861 5.94631V6.44631ZM103.859 16.5656C103.196 16.5656 102.596 16.3952 102.058 16.0543C101.524 15.7096 101.1 15.2039 100.785 14.5372C100.475 13.8668 100.32 13.0448 100.32 12.0713C100.32 11.0713 100.481 10.2399 100.802 9.57699C101.124 8.91033 101.552 8.41222 102.087 8.08267C102.624 7.74934 103.213 7.58267 103.854 7.58267C104.342 7.58267 104.749 7.66601 105.075 7.83267C105.405 7.99555 105.67 8.2001 105.871 8.44631C106.075 8.68874 106.231 8.92737 106.337 9.16222H106.41V4.78722H108.825V16.4236H106.439V15.0259H106.337C106.223 15.2683 106.062 15.5088 105.854 15.7474C105.649 15.9823 105.382 16.1774 105.052 16.3327C104.727 16.488 104.329 16.5656 103.859 16.5656ZM104.626 14.6395C105.017 14.6395 105.346 14.5334 105.615 14.3213C105.888 14.1054 106.096 13.8043 106.24 13.4179C106.388 13.0315 106.462 12.5789 106.462 12.0599C106.462 11.541 106.39 11.0903 106.246 10.7077C106.102 10.3251 105.893 10.0296 105.621 9.82131C105.348 9.61298 105.017 9.50881 104.626 9.50881C104.229 9.50881 103.893 9.61677 103.621 9.83267C103.348 10.0486 103.142 10.3478 103.001 10.7304C102.861 11.113 102.791 11.5562 102.791 12.0599C102.791 12.5675 102.861 13.0164 103.001 13.4065C103.145 13.7929 103.352 14.0959 103.621 14.3156C103.893 14.5315 104.229 14.6395 104.626 14.6395ZM113.144 16.5884C112.587 16.5884 112.091 16.4918 111.655 16.2986C111.22 16.1016 110.875 15.8118 110.621 15.4293C110.371 15.0429 110.246 14.5618 110.246 13.9861C110.246 13.5012 110.335 13.094 110.513 12.7645C110.691 12.4349 110.934 12.1698 111.241 11.969C111.547 11.7683 111.896 11.6168 112.286 11.5145C112.68 11.4122 113.093 11.3403 113.525 11.2986C114.032 11.2456 114.441 11.1963 114.752 11.1509C115.062 11.1016 115.288 11.0296 115.428 10.9349C115.568 10.8403 115.638 10.7001 115.638 10.5145V10.4804C115.638 10.1206 115.525 9.84214 115.297 9.64517C115.074 9.4482 114.756 9.34972 114.343 9.34972C113.907 9.34972 113.561 9.44631 113.303 9.63949C113.045 9.82889 112.875 10.0675 112.792 10.3554L110.553 10.1736C110.667 9.64328 110.89 9.18495 111.223 8.79858C111.557 8.40843 111.987 8.10919 112.513 7.90086C113.044 7.68874 113.657 7.58267 114.354 7.58267C114.839 7.58267 115.303 7.63949 115.746 7.75313C116.193 7.86677 116.589 8.0429 116.934 8.28154C117.282 8.52017 117.557 8.82699 117.758 9.20199C117.958 9.5732 118.059 10.0183 118.059 10.5372V16.4236H115.763V15.2134H115.695C115.555 15.4861 115.367 15.7266 115.133 15.9349C114.898 16.1395 114.616 16.3005 114.286 16.4179C113.956 16.5315 113.576 16.5884 113.144 16.5884ZM113.837 14.9179C114.193 14.9179 114.508 14.8478 114.78 14.7077C115.053 14.5637 115.267 14.3706 115.422 14.1281C115.578 13.8857 115.655 13.6111 115.655 13.3043V12.3781C115.58 12.4274 115.475 12.4728 115.343 12.5145C115.214 12.5524 115.068 12.5884 114.905 12.6224C114.742 12.6528 114.58 12.6812 114.417 12.7077C114.254 12.7304 114.106 12.7512 113.973 12.7702C113.689 12.8118 113.441 12.8781 113.229 12.969C113.017 13.0599 112.852 13.1831 112.735 13.3384C112.617 13.4899 112.559 13.6793 112.559 13.9065C112.559 14.2361 112.678 14.488 112.917 14.6622C113.159 14.8327 113.466 14.9179 113.837 14.9179ZM122.197 11.3781V16.4236H119.777V7.69631H122.083V9.23608H122.186C122.379 8.72851 122.703 8.32699 123.157 8.03154C123.612 7.7323 124.163 7.58267 124.811 7.58267C125.417 7.58267 125.945 7.71525 126.396 7.9804C126.847 8.24555 127.197 8.62434 127.447 9.11677C127.697 9.6054 127.822 10.1887 127.822 10.8668V16.4236H125.402V11.2986C125.405 10.7645 125.269 10.3478 124.992 10.0486C124.716 9.74555 124.335 9.59404 123.85 9.59404C123.525 9.59404 123.237 9.66411 122.987 9.80427C122.741 9.94442 122.547 10.149 122.407 10.4179C122.271 10.6831 122.201 11.0031 122.197 11.3781ZM131.99 11.3781V16.4236H129.57V4.78722H131.922V9.23608H132.024C132.221 8.72093 132.539 8.31752 132.979 8.02586C133.418 7.7304 133.969 7.58267 134.632 7.58267C135.238 7.58267 135.767 7.71525 136.217 7.9804C136.672 8.24177 137.024 8.61866 137.274 9.11108C137.528 9.59972 137.653 10.1849 137.649 10.8668V16.4236H135.229V11.2986C135.233 10.7607 135.096 10.3421 134.82 10.0429C134.547 9.74366 134.164 9.59404 133.672 9.59404C133.342 9.59404 133.051 9.66411 132.797 9.80427C132.547 9.94442 132.35 10.149 132.206 10.4179C132.066 10.6831 131.994 11.0031 131.99 11.3781ZM150.199 10.1849L147.983 10.3213C147.945 10.1319 147.863 9.96146 147.738 9.80995C147.613 9.65464 147.449 9.53154 147.244 9.44063C147.043 9.34593 146.803 9.29858 146.522 9.29858C146.147 9.29858 145.831 9.37813 145.574 9.53722C145.316 9.69252 145.187 9.90086 145.187 10.1622C145.187 10.3706 145.27 10.5467 145.437 10.6906C145.604 10.8346 145.89 10.9501 146.295 11.0372L147.875 11.3554C148.723 11.5296 149.356 11.8099 149.772 12.1963C150.189 12.5827 150.397 13.0903 150.397 13.719C150.397 14.291 150.229 14.7929 149.892 15.2247C149.558 15.6565 149.1 15.9937 148.517 16.2361C147.937 16.4747 147.269 16.594 146.511 16.594C145.356 16.594 144.435 16.3535 143.75 15.8724C143.068 15.3876 142.668 14.7285 142.551 13.8952L144.931 13.7702C145.003 14.1224 145.178 14.3914 145.454 14.577C145.731 14.7588 146.085 14.8497 146.517 14.8497C146.941 14.8497 147.282 14.7683 147.539 14.6054C147.801 14.4387 147.933 14.2247 147.937 13.9634C147.933 13.7437 147.841 13.5637 147.659 13.4236C147.477 13.2796 147.197 13.1698 146.818 13.094L145.306 12.7929C144.454 12.6224 143.82 12.327 143.403 11.9065C142.99 11.4861 142.784 10.9501 142.784 10.2986C142.784 9.73798 142.935 9.25502 143.238 8.84972C143.545 8.44442 143.975 8.13192 144.528 7.91222C145.085 7.69252 145.736 7.58267 146.483 7.58267C147.585 7.58267 148.452 7.81563 149.085 8.28154C149.721 8.74745 150.092 9.38192 150.199 10.1849ZM154.25 16.5884C153.693 16.5884 153.197 16.4918 152.762 16.2986C152.326 16.1016 151.981 15.8118 151.727 15.4293C151.477 15.0429 151.352 14.5618 151.352 13.9861C151.352 13.5012 151.441 13.094 151.619 12.7645C151.798 12.4349 152.04 12.1698 152.347 11.969C152.654 11.7683 153.002 11.6168 153.392 11.5145C153.786 11.4122 154.199 11.3403 154.631 11.2986C155.138 11.2456 155.548 11.1963 155.858 11.1509C156.169 11.1016 156.394 11.0296 156.534 10.9349C156.674 10.8403 156.744 10.7001 156.744 10.5145V10.4804C156.744 10.1206 156.631 9.84214 156.404 9.64517C156.18 9.4482 155.862 9.34972 155.449 9.34972C155.013 9.34972 154.667 9.44631 154.409 9.63949C154.152 9.82889 153.981 10.0675 153.898 10.3554L151.659 10.1736C151.773 9.64328 151.996 9.18495 152.33 8.79858C152.663 8.40843 153.093 8.10919 153.619 7.90086C154.15 7.68874 154.763 7.58267 155.46 7.58267C155.945 7.58267 156.409 7.63949 156.852 7.75313C157.299 7.86677 157.695 8.0429 158.04 8.28154C158.388 8.52017 158.663 8.82699 158.864 9.20199C159.065 9.5732 159.165 10.0183 159.165 10.5372V16.4236H156.869V15.2134H156.801C156.661 15.4861 156.474 15.7266 156.239 15.9349C156.004 16.1395 155.722 16.3005 155.392 16.4179C155.063 16.5315 154.682 16.5884 154.25 16.5884ZM154.943 14.9179C155.299 14.9179 155.614 14.8478 155.887 14.7077C156.159 14.5637 156.373 14.3706 156.529 14.1281C156.684 13.8857 156.762 13.6111 156.762 13.3043V12.3781C156.686 12.4274 156.582 12.4728 156.449 12.5145C156.32 12.5524 156.174 12.5884 156.012 12.6224C155.849 12.6528 155.686 12.6812 155.523 12.7077C155.36 12.7304 155.212 12.7512 155.08 12.7702C154.796 12.8118 154.548 12.8781 154.335 12.969C154.123 13.0599 153.959 13.1831 153.841 13.3384C153.724 13.4899 153.665 13.6793 153.665 13.9065C153.665 14.2361 153.784 14.488 154.023 14.6622C154.265 14.8327 154.572 14.9179 154.943 14.9179ZM154.682 6.57131L155.887 3.98608H158.125L156.392 6.57131H154.682ZM164.826 16.594C163.932 16.594 163.163 16.4046 162.519 16.0259C161.879 15.6433 161.387 15.113 161.042 14.4349C160.701 13.7569 160.531 12.9766 160.531 12.094C160.531 11.2001 160.703 10.416 161.048 9.74177C161.396 9.06374 161.89 8.53533 162.531 8.15654C163.171 7.77396 163.932 7.58267 164.815 7.58267C165.576 7.58267 166.243 7.72093 166.815 7.99745C167.387 8.27396 167.839 8.66222 168.173 9.16222C168.506 9.66222 168.69 10.2493 168.724 10.9236H166.44C166.375 10.488 166.205 10.1376 165.928 9.87245C165.656 9.60351 165.298 9.46904 164.854 9.46904C164.479 9.46904 164.152 9.57131 163.871 9.77586C163.595 9.97661 163.379 10.2702 163.224 10.6565C163.068 11.0429 162.991 11.5107 162.991 12.0599C162.991 12.6168 163.066 13.0903 163.218 13.4804C163.373 13.8706 163.591 14.1679 163.871 14.3724C164.152 14.577 164.479 14.6793 164.854 14.6793C165.131 14.6793 165.379 14.6224 165.599 14.5088C165.822 14.3952 166.006 14.2304 166.15 14.0145C166.298 13.7948 166.394 13.5315 166.44 13.2247H168.724C168.686 13.8914 168.504 14.4785 168.178 14.9861C167.856 15.4899 167.411 15.8838 166.843 16.1679C166.275 16.452 165.602 16.594 164.826 16.594ZM172.534 11.3781V16.4236H170.113V4.78722H172.466V9.23608H172.568C172.765 8.72093 173.083 8.31752 173.523 8.02586C173.962 7.7304 174.513 7.58267 175.176 7.58267C175.782 7.58267 176.31 7.71525 176.761 7.9804C177.216 8.24177 177.568 8.61866 177.818 9.11108C178.072 9.59972 178.197 10.1849 178.193 10.8668V16.4236H175.773V11.2986C175.776 10.7607 175.64 10.3421 175.363 10.0429C175.091 9.74366 174.708 9.59404 174.216 9.59404C173.886 9.59404 173.594 9.66411 173.341 9.80427C173.091 9.94442 172.894 10.149 172.75 10.4179C172.61 10.6831 172.538 11.0031 172.534 11.3781ZM8.22727 34.1849L6.01136 34.3213C5.97348 34.1319 5.89205 33.9615 5.76705 33.8099C5.64205 33.6546 5.47727 33.5315 5.27273 33.4406C5.07197 33.3459 4.83144 33.2986 4.55114 33.2986C4.17614 33.2986 3.85985 33.3781 3.60227 33.5372C3.3447 33.6925 3.21591 33.9009 3.21591 34.1622C3.21591 34.3706 3.29924 34.5467 3.46591 34.6906C3.63258 34.8346 3.91856 34.9501 4.32386 35.0372L5.90341 35.3554C6.75189 35.5296 7.38447 35.8099 7.80114 36.1963C8.2178 36.5827 8.42614 37.0903 8.42614 37.719C8.42614 38.291 8.25758 38.7929 7.92045 39.2247C7.58712 39.6565 7.12879 39.9937 6.54545 40.2361C5.96591 40.4747 5.29735 40.594 4.53977 40.594C3.38447 40.594 2.46402 40.3535 1.77841 39.8724C1.09659 39.3876 0.69697 38.7285 0.579545 37.8952L2.96023 37.7702C3.0322 38.1224 3.20644 38.3914 3.48295 38.577C3.75947 38.7588 4.11364 38.8497 4.54545 38.8497C4.9697 38.8497 5.31061 38.7683 5.56818 38.6054C5.82955 38.4387 5.96212 38.2247 5.96591 37.9634C5.96212 37.7437 5.86932 37.5637 5.6875 37.4236C5.50568 37.2796 5.22538 37.1698 4.84659 37.094L3.33523 36.7929C2.48295 36.6224 1.84848 36.327 1.43182 35.9065C1.01894 35.4861 0.8125 34.9501 0.8125 34.2986C0.8125 33.738 0.964015 33.255 1.26705 32.8497C1.57386 32.4444 2.00379 32.1319 2.55682 31.9122C3.11364 31.6925 3.76515 31.5827 4.51136 31.5827C5.61364 31.5827 6.48106 31.8156 7.11364 32.2815C7.75 32.7474 8.12121 33.3819 8.22727 34.1849ZM12.2789 40.5884C11.7221 40.5884 11.2259 40.4918 10.7903 40.2986C10.3547 40.1016 10.01 39.8118 9.75619 39.4293C9.50619 39.0429 9.38119 38.5618 9.38119 37.9861C9.38119 37.5012 9.47021 37.094 9.64824 36.7645C9.82627 36.4349 10.0687 36.1698 10.3755 35.969C10.6823 35.7683 11.0308 35.6168 11.421 35.5145C11.8149 35.4122 12.2278 35.3403 12.6596 35.2986C13.1672 35.2456 13.5763 35.1963 13.8869 35.1509C14.1975 35.1016 14.4229 35.0296 14.563 34.9349C14.7032 34.8403 14.7732 34.7001 14.7732 34.5145V34.4804C14.7732 34.1206 14.6596 33.8421 14.4323 33.6452C14.2088 33.4482 13.8907 33.3497 13.4778 33.3497C13.0422 33.3497 12.6956 33.4463 12.438 33.6395C12.1804 33.8289 12.01 34.0675 11.9266 34.3554L9.68801 34.1736C9.80165 33.6433 10.0251 33.1849 10.3585 32.7986C10.6918 32.4084 11.1217 32.1092 11.6482 31.9009C12.1785 31.6887 12.7922 31.5827 13.4891 31.5827C13.974 31.5827 14.438 31.6395 14.8812 31.7531C15.3282 31.8668 15.724 32.0429 16.0687 32.2815C16.4172 32.5202 16.6918 32.827 16.8926 33.202C17.0933 33.5732 17.1937 34.0183 17.1937 34.5372V40.4236H14.8982V39.2134H14.8301C14.6899 39.4861 14.5024 39.7266 14.2676 39.9349C14.0327 40.1395 13.7505 40.3005 13.421 40.4179C13.0914 40.5315 12.7107 40.5884 12.2789 40.5884ZM12.9721 38.9179C13.3282 38.9179 13.6426 38.8478 13.9153 38.7077C14.188 38.5637 14.402 38.3706 14.5573 38.1281C14.7126 37.8857 14.7903 37.6111 14.7903 37.3043V36.3781C14.7145 36.4274 14.6104 36.4728 14.4778 36.5145C14.349 36.5524 14.2032 36.5884 14.0403 36.6224C13.8774 36.6528 13.7145 36.6812 13.5516 36.7077C13.3888 36.7304 13.241 36.7512 13.1085 36.7702C12.8244 36.8118 12.5763 36.8781 12.3641 36.969C12.152 37.0599 11.9873 37.1831 11.8698 37.3384C11.7524 37.4899 11.6937 37.6793 11.6937 37.9065C11.6937 38.2361 11.813 38.488 12.0516 38.6622C12.2941 38.8327 12.6009 38.9179 12.9721 38.9179ZM14.4721 30.4463H12.6766L12.5516 29.4236C12.9532 29.4046 13.2391 29.3516 13.4096 29.2645C13.5801 29.1736 13.6634 29.0543 13.6596 28.9065C13.6634 28.702 13.5554 28.5637 13.3357 28.4918C13.1198 28.4198 12.849 28.3838 12.5232 28.3838L12.5857 27.2872C13.5971 27.2872 14.366 27.4236 14.8926 27.6963C15.4229 27.969 15.6861 28.3478 15.6823 28.8327C15.6861 29.1774 15.5611 29.4387 15.3073 29.6168C15.0573 29.791 14.7789 29.9009 14.4721 29.9463V30.4463ZM21.332 35.3781V40.4236H18.9115V31.6963H21.2184V33.2361H21.3206C21.5138 32.7285 21.8377 32.327 22.2922 32.0315C22.7468 31.7323 23.2979 31.5827 23.9456 31.5827C24.5517 31.5827 25.0801 31.7153 25.5309 31.9804C25.9816 32.2456 26.332 32.6243 26.582 33.1168C26.832 33.6054 26.957 34.1887 26.957 34.8668V40.4236H24.5365V35.2986C24.5403 34.7645 24.404 34.3478 24.1274 34.0486C23.8509 33.7456 23.4702 33.594 22.9854 33.594C22.6596 33.594 22.3718 33.6641 22.1218 33.8043C21.8755 33.9444 21.6824 34.149 21.5422 34.4179C21.4059 34.6831 21.3358 35.0031 21.332 35.3781ZM32.2478 43.6963V31.6963H34.6341V33.1622H34.7421C34.8482 32.9274 35.0016 32.6887 35.2023 32.4463C35.4069 32.2001 35.672 31.9956 35.9978 31.8327C36.3273 31.666 36.7364 31.5827 37.2251 31.5827C37.8614 31.5827 38.4485 31.7493 38.9864 32.0827C39.5243 32.4122 39.9542 32.9103 40.2762 33.577C40.5982 34.2399 40.7591 35.0713 40.7591 36.0713C40.7591 37.0448 40.602 37.8668 40.2876 38.5372C39.977 39.2039 39.5527 39.7096 39.0148 40.0543C38.4807 40.3952 37.8823 40.5656 37.2194 40.5656C36.7497 40.5656 36.3501 40.488 36.0205 40.3327C35.6948 40.1774 35.4277 39.9823 35.2194 39.7474C35.011 39.5088 34.852 39.2683 34.7421 39.0259H34.6682V43.6963H32.2478ZM34.6171 36.0599C34.6171 36.5789 34.6891 37.0315 34.833 37.4179C34.977 37.8043 35.1853 38.1054 35.458 38.3213C35.7307 38.5334 36.0622 38.6395 36.4523 38.6395C36.8463 38.6395 37.1796 38.5315 37.4523 38.3156C37.7251 38.0959 37.9315 37.7929 38.0716 37.4065C38.2156 37.0164 38.2876 36.5675 38.2876 36.0599C38.2876 35.5562 38.2175 35.113 38.0773 34.7304C37.9372 34.3478 37.7307 34.0486 37.458 33.8327C37.1853 33.6168 36.8501 33.5088 36.4523 33.5088C36.0584 33.5088 35.7251 33.613 35.4523 33.8213C35.1834 34.0296 34.977 34.3251 34.833 34.7077C34.6891 35.0903 34.6171 35.541 34.6171 36.0599ZM44.6332 35.3781V40.4236H42.2128V28.7872H44.5651V33.2361H44.6673C44.8643 32.7209 45.1825 32.3175 45.6219 32.0259C46.0613 31.7304 46.6124 31.5827 47.2753 31.5827C47.8813 31.5827 48.4098 31.7153 48.8605 31.9804C49.3151 32.2418 49.6673 32.6187 49.9173 33.1111C50.1711 33.5997 50.2961 34.1849 50.2923 34.8668V40.4236H47.8719V35.2986C47.8757 34.7607 47.7393 34.3421 47.4628 34.0429C47.1901 33.7437 46.8075 33.594 46.3151 33.594C45.9855 33.594 45.6938 33.6641 45.4401 33.8043C45.1901 33.9444 44.9931 34.149 44.8491 34.4179C44.709 34.6831 44.637 35.0031 44.6332 35.3781ZM54.5258 40.5884C53.969 40.5884 53.4728 40.4918 53.0372 40.2986C52.6016 40.1016 52.2569 39.8118 52.0031 39.4293C51.7531 39.0429 51.6281 38.5618 51.6281 37.9861C51.6281 37.5012 51.7171 37.094 51.8951 36.7645C52.0731 36.4349 52.3156 36.1698 52.6224 35.969C52.9292 35.7683 53.2777 35.6168 53.6678 35.5145C54.0618 35.4122 54.4747 35.3403 54.9065 35.2986C55.4141 35.2456 55.8231 35.1963 56.1338 35.1509C56.4444 35.1016 56.6697 35.0296 56.8099 34.9349C56.95 34.8403 57.0201 34.7001 57.0201 34.5145V34.4804C57.0201 34.1206 56.9065 33.8421 56.6792 33.6452C56.4557 33.4482 56.1375 33.3497 55.7247 33.3497C55.2891 33.3497 54.9425 33.4463 54.6849 33.6395C54.4273 33.8289 54.2569 34.0675 54.1735 34.3554L51.9349 34.1736C52.0485 33.6433 52.272 33.1849 52.6053 32.7986C52.9387 32.4084 53.3686 32.1092 53.8951 31.9009C54.4254 31.6887 55.0391 31.5827 55.736 31.5827C56.2209 31.5827 56.6849 31.6395 57.1281 31.7531C57.575 31.8668 57.9709 32.0429 58.3156 32.2815C58.6641 32.5202 58.9387 32.827 59.1394 33.202C59.3402 33.5732 59.4406 34.0183 59.4406 34.5372V40.4236H57.1451V39.2134H57.0769C56.9368 39.4861 56.7493 39.7266 56.5144 39.9349C56.2796 40.1395 55.9974 40.3005 55.6678 40.4179C55.3383 40.5315 54.9576 40.5884 54.5258 40.5884ZM55.219 38.9179C55.575 38.9179 55.8894 38.8478 56.1622 38.7077C56.4349 38.5637 56.6489 38.3706 56.8042 38.1281C56.9595 37.8857 57.0372 37.6111 57.0372 37.3043V36.3781C56.9614 36.4274 56.8572 36.4728 56.7247 36.5145C56.5959 36.5524 56.45 36.5884 56.2872 36.6224C56.1243 36.6528 55.9614 36.6812 55.7985 36.7077C55.6356 36.7304 55.4879 36.7512 55.3553 36.7702C55.0713 36.8118 54.8231 36.8781 54.611 36.969C54.3989 37.0599 54.2341 37.1831 54.1167 37.3384C53.9993 37.4899 53.9406 37.6793 53.9406 37.9065C53.9406 38.2361 54.0599 38.488 54.2985 38.6622C54.5409 38.8327 54.8478 38.9179 55.219 38.9179ZM56.5031 29.0372L58.7417 30.8043H57.0769L55.8156 29.8099L54.5372 30.8043H52.8724L55.111 29.0372H56.5031ZM59.2588 29.8099H58.0031L57.8951 28.9577C58.2209 28.9425 58.4576 28.9009 58.6053 28.8327C58.7531 28.7645 58.8269 28.6641 58.8269 28.5315C58.8269 28.3573 58.7341 28.2399 58.5485 28.1793C58.3629 28.1187 58.1319 28.0884 57.8553 28.0884L57.9122 27.1736C58.6811 27.1736 59.2682 27.2872 59.6735 27.5145C60.0788 27.738 60.2815 28.0543 60.2815 28.4634C60.2815 28.7474 60.1735 28.9653 59.9576 29.1168C59.7455 29.2645 59.5125 29.3592 59.2588 29.4009V29.8099ZM61.1584 40.4236V31.6963H63.4652V33.2361H63.5675C63.7493 32.7247 64.0523 32.3213 64.4766 32.0259C64.9008 31.7304 65.4084 31.5827 65.9993 31.5827C66.5978 31.5827 67.1073 31.7323 67.5277 32.0315C67.9482 32.327 68.2285 32.7285 68.3686 33.2361H68.4595C68.6376 32.7361 68.9595 32.3365 69.4255 32.0372C69.8952 31.7342 70.4501 31.5827 71.0902 31.5827C71.9046 31.5827 72.5656 31.8421 73.0732 32.3611C73.5845 32.8762 73.8402 33.6073 73.8402 34.5543V40.4236H71.4255V35.0315C71.4255 34.5467 71.2967 34.1831 71.0391 33.9406C70.7815 33.6982 70.4595 33.577 70.0732 33.577C69.6338 33.577 69.291 33.7171 69.0448 33.9974C68.7986 34.274 68.6755 34.6395 68.6755 35.094V40.4236H66.3289V34.9804C66.3289 34.5524 66.2058 34.2115 65.9595 33.9577C65.7171 33.7039 65.397 33.577 64.9993 33.577C64.7304 33.577 64.488 33.6452 64.272 33.7815C64.0599 33.9141 63.8914 34.1016 63.7664 34.344C63.6414 34.5827 63.5789 34.863 63.5789 35.1849V40.4236H61.1584Z" fill="white"/>
<path d="M189.471 10.5696C189.056 10.908 188.976 11.5646 189.294 12.0362C189.611 12.5078 190.205 12.6159 190.62 12.2775L189.471 10.5696ZM256.999 22.6015L254.406 10.7317L246.51 18.8553L256.999 22.6015ZM190.62 12.2775C203.753 1.57805 230.623 -3.81317 250.487 16.3426L251.74 14.8101C231.013 -6.22132 203.106 -0.538403 189.471 10.5696L190.62 12.2775Z" fill="white"/>
</svg>
