<svg width="342" height="66" viewBox="0 0 342 66" fill="none" xmlns="http://www.w3.org/2000/svg">
<path d="M11.2784 8.86108H8.78977C8.74432 8.53911 8.65152 8.25313 8.51136 8.00313C8.37121 7.74934 8.19129 7.53343 7.97159 7.3554C7.75189 7.17737 7.49811 7.04101 7.21023 6.94631C6.92614 6.85161 6.61742 6.80427 6.28409 6.80427C5.68182 6.80427 5.1572 6.95389 4.71023 7.25313C4.26326 7.54858 3.91667 7.9804 3.67045 8.54858C3.42424 9.11298 3.30114 9.79858 3.30114 10.6054C3.30114 11.4349 3.42424 12.1319 3.67045 12.6963C3.92045 13.2607 4.26894 13.6868 4.71591 13.9747C5.16288 14.2626 5.67992 14.4065 6.26705 14.4065C6.59659 14.4065 6.90152 14.363 7.18182 14.2759C7.46591 14.1887 7.7178 14.0618 7.9375 13.8952C8.1572 13.7247 8.33902 13.5183 8.48295 13.2759C8.63068 13.0334 8.73295 12.7569 8.78977 12.4463L11.2784 12.4577C11.214 12.9918 11.053 13.5069 10.7955 14.0031C10.5417 14.4956 10.1989 14.9368 9.76705 15.327C9.33902 15.7134 8.82765 16.0202 8.23295 16.2474C7.64205 16.4709 6.97348 16.5827 6.22727 16.5827C5.18939 16.5827 4.26136 16.3478 3.44318 15.8781C2.62879 15.4084 1.98485 14.7285 1.51136 13.8384C1.04167 12.9482 0.806818 11.8706 0.806818 10.6054C0.806818 9.33646 1.04545 8.25692 1.52273 7.36677C2 6.47661 2.64773 5.79858 3.46591 5.33267C4.28409 4.86298 5.20455 4.62813 6.22727 4.62813C6.90152 4.62813 7.52652 4.72283 8.10227 4.91222C8.68182 5.10161 9.19508 5.37813 9.64205 5.74177C10.089 6.10161 10.4527 6.5429 10.733 7.06563C11.017 7.58836 11.1989 8.18684 11.2784 8.86108ZM15.2576 11.3781V16.4236H12.8372V4.78722H15.1894V9.23608H15.2917C15.4887 8.72093 15.8069 8.31752 16.2463 8.02586C16.6856 7.7304 17.2368 7.58267 17.8997 7.58267C18.5057 7.58267 19.0341 7.71525 19.4849 7.9804C19.9394 8.24177 20.2917 8.61866 20.5417 9.11108C20.7955 9.59972 20.9205 10.1849 20.9167 10.8668V16.4236H18.4963V11.2986C18.5 10.7607 18.3637 10.3421 18.0872 10.0429C17.8144 9.74366 17.4319 9.59404 16.9394 9.59404C16.6099 9.59404 16.3182 9.66411 16.0644 9.80427C15.8144 9.94442 15.6175 10.149 15.4735 10.4179C15.3334 10.6831 15.2614 11.0031 15.2576 11.3781ZM25.1502 16.5884C24.5934 16.5884 24.0971 16.4918 23.6615 16.2986C23.2259 16.1016 22.8812 15.8118 22.6274 15.4293C22.3774 15.0429 22.2524 14.5618 22.2524 13.9861C22.2524 13.5012 22.3415 13.094 22.5195 12.7645C22.6975 12.4349 22.9399 12.1698 23.2468 11.969C23.5536 11.7683 23.9021 11.6168 24.2922 11.5145C24.6862 11.4122 25.099 11.3403 25.5309 11.2986C26.0384 11.2456 26.4475 11.1963 26.7581 11.1509C27.0687 11.1016 27.2941 11.0296 27.4343 10.9349C27.5744 10.8403 27.6445 10.7001 27.6445 10.5145V10.4804C27.6445 10.1206 27.5309 9.84214 27.3036 9.64517C27.0801 9.4482 26.7619 9.34972 26.349 9.34972C25.9134 9.34972 25.5668 9.44631 25.3093 9.63949C25.0517 9.82889 24.8812 10.0675 24.7979 10.3554L22.5593 10.1736C22.6729 9.64328 22.8964 9.18495 23.2297 8.79858C23.563 8.40843 23.993 8.10919 24.5195 7.90086C25.0498 7.68874 25.6634 7.58267 26.3604 7.58267C26.8452 7.58267 27.3093 7.63949 27.7524 7.75313C28.1994 7.86677 28.5952 8.0429 28.9399 8.28154C29.2884 8.52017 29.563 8.82699 29.7638 9.20199C29.9646 9.5732 30.0649 10.0183 30.0649 10.5372V16.4236H27.7695V15.2134H27.7013C27.5612 15.4861 27.3737 15.7266 27.1388 15.9349C26.904 16.1395 26.6218 16.3005 26.2922 16.4179C25.9627 16.5315 25.582 16.5884 25.1502 16.5884ZM25.8434 14.9179C26.1994 14.9179 26.5138 14.8478 26.7865 14.7077C27.0593 14.5637 27.2733 14.3706 27.4286 14.1281C27.5839 13.8857 27.6615 13.6111 27.6615 13.3043V12.3781C27.5858 12.4274 27.4816 12.4728 27.349 12.5145C27.2202 12.5524 27.0744 12.5884 26.9115 12.6224C26.7487 12.6528 26.5858 12.6812 26.4229 12.7077C26.26 12.7304 26.1123 12.7512 25.9797 12.7702C25.6956 12.8118 25.4475 12.8781 25.2354 12.969C25.0233 13.0599 24.8585 13.1831 24.7411 13.3384C24.6237 13.4899 24.5649 13.6793 24.5649 13.9065C24.5649 14.2361 24.6843 14.488 24.9229 14.6622C25.1653 14.8327 25.4721 14.9179 25.8434 14.9179ZM26.3547 19.6906C25.9949 19.6906 25.6862 19.5713 25.4286 19.3327C25.171 19.094 25.0422 18.8062 25.0422 18.469C25.0422 18.1319 25.171 17.844 25.4286 17.6054C25.6862 17.3668 25.9949 17.2474 26.3547 17.2474C26.7146 17.2474 27.0214 17.3668 27.2752 17.6054C27.5327 17.844 27.6615 18.1319 27.6615 18.469C27.6615 18.8062 27.5327 19.094 27.2752 19.3327C27.0214 19.5713 26.7146 19.6906 26.3547 19.6906ZM31.7828 16.4236V7.69631H34.0896V9.23608H34.1919C34.3737 8.72472 34.6767 8.32131 35.101 8.02586C35.5252 7.7304 36.0328 7.58267 36.6237 7.58267C37.2222 7.58267 37.7316 7.7323 38.1521 8.03154C38.5726 8.32699 38.8529 8.72851 38.993 9.23608H39.0839C39.262 8.73608 39.5839 8.33646 40.0498 8.03722C40.5195 7.73419 41.0745 7.58267 41.7146 7.58267C42.529 7.58267 43.19 7.84214 43.6976 8.36108C44.2089 8.87624 44.4646 9.6073 44.4646 10.5543V16.4236H42.0498V11.0315C42.0498 10.5467 41.921 10.1831 41.6635 9.94063C41.4059 9.69821 41.0839 9.57699 40.6976 9.57699C40.2582 9.57699 39.9154 9.71714 39.6691 9.99745C39.4229 10.274 39.2998 10.6395 39.2998 11.094V16.4236H36.9532V10.9804C36.9532 10.5524 36.8301 10.2115 36.5839 9.95767C36.3415 9.70389 36.0214 9.57699 35.6237 9.57699C35.3548 9.57699 35.1123 9.64517 34.8964 9.78154C34.6843 9.91411 34.5157 10.1016 34.3907 10.344C34.2657 10.5827 34.2032 10.863 34.2032 11.1849V16.4236H31.7828ZM52.9756 16.5656C52.3127 16.5656 51.7123 16.3952 51.1744 16.0543C50.6403 15.7096 50.2161 15.2039 49.9017 14.5372C49.5911 13.8668 49.4358 13.0448 49.4358 12.0713C49.4358 11.0713 49.5968 10.2399 49.9188 9.57699C50.2407 8.91033 50.6688 8.41222 51.2028 8.08267C51.7407 7.74934 52.3297 7.58267 52.9699 7.58267C53.4585 7.58267 53.8657 7.66601 54.1915 7.83267C54.521 7.99555 54.7862 8.2001 54.9869 8.44631C55.1915 8.68874 55.3468 8.92737 55.4528 9.16222H55.5267V4.78722H57.9415V16.4236H55.5551V15.0259H55.4528C55.3392 15.2683 55.1782 15.5088 54.9699 15.7474C54.7653 15.9823 54.4983 16.1774 54.1688 16.3327C53.843 16.488 53.4453 16.5656 52.9756 16.5656ZM53.7426 14.6395C54.1328 14.6395 54.4623 14.5334 54.7313 14.3213C55.004 14.1054 55.2123 13.8043 55.3563 13.4179C55.504 13.0315 55.5778 12.5789 55.5778 12.0599C55.5778 11.541 55.5059 11.0903 55.3619 10.7077C55.218 10.3251 55.0097 10.0296 54.7369 9.82131C54.4642 9.61298 54.1328 9.50881 53.7426 9.50881C53.3449 9.50881 53.0097 9.61677 52.7369 9.83267C52.4642 10.0486 52.2578 10.3478 52.1176 10.7304C51.9775 11.113 51.9074 11.5562 51.9074 12.0599C51.9074 12.5675 51.9775 13.0164 52.1176 13.4065C52.2616 13.7929 52.468 14.0959 52.7369 14.3156C53.0097 14.5315 53.3449 14.6395 53.7426 14.6395ZM53.2653 7.09972V5.67358H58.9358V7.09972H53.2653ZM63.7488 16.594C62.8511 16.594 62.0784 16.4122 61.4306 16.0486C60.7867 15.6812 60.2905 15.1622 59.942 14.4918C59.5935 13.8175 59.4193 13.0202 59.4193 12.0997C59.4193 11.202 59.5935 10.4141 59.942 9.73608C60.2905 9.05805 60.781 8.52964 61.4136 8.15086C62.0499 7.77207 62.7962 7.58267 63.6522 7.58267C64.228 7.58267 64.764 7.67548 65.2602 7.86108C65.7602 8.0429 66.1958 8.31752 66.567 8.68495C66.942 9.05237 67.2337 9.51449 67.442 10.0713C67.6503 10.6243 67.7545 11.2721 67.7545 12.0145V12.6793H60.3852V11.1793H65.4761C65.4761 10.8308 65.4003 10.5221 65.2488 10.2531C65.0973 9.98419 64.8871 9.77396 64.6181 9.62245C64.353 9.46714 64.0443 9.38949 63.692 9.38949C63.3246 9.38949 62.9988 9.47472 62.7147 9.64517C62.4344 9.81184 62.2147 10.0372 62.0556 10.3213C61.8965 10.6016 61.8151 10.9141 61.8113 11.2588V12.6849C61.8113 13.1168 61.8909 13.4899 62.0499 13.8043C62.2128 14.1187 62.442 14.3611 62.7374 14.5315C63.0329 14.702 63.3833 14.7872 63.7886 14.7872C64.0575 14.7872 64.3037 14.7493 64.5272 14.6736C64.7507 14.5978 64.942 14.4842 65.1011 14.3327C65.2602 14.1812 65.3814 13.9956 65.4647 13.7759L67.7034 13.9236C67.5897 14.4615 67.3568 14.9312 67.0045 15.3327C66.656 15.7304 66.2052 16.041 65.6522 16.2645C65.103 16.4842 64.4685 16.594 63.7488 16.594ZM64.2715 5.03722L66.5102 6.80427H64.8454L63.584 5.80995L62.3056 6.80427H60.6409L62.8795 5.03722H64.2715ZM67.0272 5.80995H65.7715L65.6636 4.95767C65.9893 4.94252 66.2261 4.90086 66.3738 4.83267C66.5215 4.76449 66.5954 4.66411 66.5954 4.53154C66.5954 4.3573 66.5026 4.23987 66.317 4.17927C66.1314 4.11866 65.9003 4.08836 65.6238 4.08836L65.6806 3.17358C66.4496 3.17358 67.0367 3.28722 67.442 3.51449C67.8473 3.73798 68.0499 4.05427 68.0499 4.46336C68.0499 4.74745 67.942 4.96525 67.7261 5.11677C67.514 5.26449 67.281 5.35919 67.0272 5.40086V5.80995ZM72.7172 16.4236V7.69631H75.024V9.23608H75.1263C75.3081 8.72472 75.6111 8.32131 76.0353 8.02586C76.4596 7.7304 76.9672 7.58267 77.5581 7.58267C78.1566 7.58267 78.666 7.7323 79.0865 8.03154C79.5069 8.32699 79.7872 8.72851 79.9274 9.23608H80.0183C80.1963 8.73608 80.5183 8.33646 80.9842 8.03722C81.4539 7.73419 82.0088 7.58267 82.649 7.58267C83.4634 7.58267 84.1244 7.84214 84.6319 8.36108C85.1433 8.87624 85.399 9.6073 85.399 10.5543V16.4236H82.9842V11.0315C82.9842 10.5467 82.8554 10.1831 82.5978 9.94063C82.3403 9.69821 82.0183 9.57699 81.6319 9.57699C81.1925 9.57699 80.8497 9.71714 80.6035 9.99745C80.3573 10.274 80.2342 10.6395 80.2342 11.094V16.4236H77.8876V10.9804C77.8876 10.5524 77.7645 10.2115 77.5183 9.95767C77.2759 9.70389 76.9558 9.57699 76.5581 9.57699C76.2891 9.57699 76.0467 9.64517 75.8308 9.78154C75.6187 9.91411 75.4501 10.1016 75.3251 10.344C75.2001 10.5827 75.1376 10.863 75.1376 11.1849V16.4236H72.7172ZM94.8555 7.18495H96.2986C96.2986 8.14707 96.0695 8.89707 95.6111 9.43495C95.1528 9.96904 94.4161 10.2361 93.4009 10.2361V9.27017C93.8024 9.27017 94.1073 9.18684 94.3157 9.02017C94.524 8.84972 94.6661 8.60919 94.7418 8.29858C94.8176 7.98798 94.8555 7.61677 94.8555 7.18495ZM91.0941 16.594C90.2115 16.594 89.4483 16.4065 88.8043 16.0315C88.1642 15.6528 87.6698 15.1262 87.3214 14.452C86.9729 13.774 86.7986 12.988 86.7986 12.094C86.7986 11.1925 86.9729 10.4046 87.3214 9.7304C87.6698 9.05237 88.1642 8.52586 88.8043 8.15086C89.4483 7.77207 90.2115 7.58267 91.0941 7.58267C91.9767 7.58267 92.738 7.77207 93.3782 8.15086C94.0221 8.52586 94.5183 9.05237 94.8668 9.7304C95.2153 10.4046 95.3895 11.1925 95.3895 12.094C95.3895 12.988 95.2153 13.774 94.8668 14.452C94.5183 15.1262 94.0221 15.6528 93.3782 16.0315C92.738 16.4065 91.9767 16.594 91.0941 16.594ZM91.1055 14.719C91.507 14.719 91.8422 14.6054 92.1111 14.3781C92.3801 14.1471 92.5827 13.8327 92.7191 13.4349C92.8592 13.0372 92.9293 12.5846 92.9293 12.077C92.9293 11.5694 92.8592 11.1168 92.7191 10.719C92.5827 10.3213 92.3801 10.0069 92.1111 9.77586C91.8422 9.5448 91.507 9.42927 91.1055 9.42927C90.7001 9.42927 90.3592 9.5448 90.0827 9.77586C89.81 10.0069 89.6036 10.3213 89.4634 10.719C89.327 11.1168 89.2589 11.5694 89.2589 12.077C89.2589 12.5846 89.327 13.0372 89.4634 13.4349C89.6036 13.8327 89.81 14.1471 90.0827 14.3781C90.3592 14.6054 90.7001 14.719 91.1055 14.719ZM91.9861 6.44631H90.1907L90.0657 5.42358C90.4672 5.40464 90.7532 5.35161 90.9236 5.26449C91.0941 5.17358 91.1774 5.05427 91.1736 4.90654C91.1774 4.70199 91.0695 4.56374 90.8498 4.49177C90.6339 4.4198 90.363 4.38381 90.0373 4.38381L90.0998 3.28722C91.1111 3.28722 91.8801 3.42358 92.4066 3.69631C92.9369 3.96904 93.2001 4.34783 93.1964 4.83267C93.2001 5.17737 93.0751 5.43874 92.8214 5.61677C92.5714 5.79101 92.293 5.90086 91.9861 5.94631V6.44631ZM103.859 16.5656C103.196 16.5656 102.596 16.3952 102.058 16.0543C101.524 15.7096 101.1 15.2039 100.785 14.5372C100.475 13.8668 100.32 13.0448 100.32 12.0713C100.32 11.0713 100.481 10.2399 100.802 9.57699C101.124 8.91033 101.552 8.41222 102.087 8.08267C102.624 7.74934 103.213 7.58267 103.854 7.58267C104.342 7.58267 104.749 7.66601 105.075 7.83267C105.405 7.99555 105.67 8.2001 105.871 8.44631C106.075 8.68874 106.231 8.92737 106.337 9.16222H106.41V4.78722H108.825V16.4236H106.439V15.0259H106.337C106.223 15.2683 106.062 15.5088 105.854 15.7474C105.649 15.9823 105.382 16.1774 105.052 16.3327C104.727 16.488 104.329 16.5656 103.859 16.5656ZM104.626 14.6395C105.017 14.6395 105.346 14.5334 105.615 14.3213C105.888 14.1054 106.096 13.8043 106.24 13.4179C106.388 13.0315 106.462 12.5789 106.462 12.0599C106.462 11.541 106.39 11.0903 106.246 10.7077C106.102 10.3251 105.893 10.0296 105.621 9.82131C105.348 9.61298 105.017 9.50881 104.626 9.50881C104.229 9.50881 103.893 9.61677 103.621 9.83267C103.348 10.0486 103.142 10.3478 103.001 10.7304C102.861 11.113 102.791 11.5562 102.791 12.0599C102.791 12.5675 102.861 13.0164 103.001 13.4065C103.145 13.7929 103.352 14.0959 103.621 14.3156C103.893 14.5315 104.229 14.6395 104.626 14.6395ZM113.144 16.5884C112.587 16.5884 112.091 16.4918 111.655 16.2986C111.22 16.1016 110.875 15.8118 110.621 15.4293C110.371 15.0429 110.246 14.5618 110.246 13.9861C110.246 13.5012 110.335 13.094 110.513 12.7645C110.691 12.4349 110.934 12.1698 111.241 11.969C111.547 11.7683 111.896 11.6168 112.286 11.5145C112.68 11.4122 113.093 11.3403 113.525 11.2986C114.032 11.2456 114.441 11.1963 114.752 11.1509C115.062 11.1016 115.288 11.0296 115.428 10.9349C115.568 10.8403 115.638 10.7001 115.638 10.5145V10.4804C115.638 10.1206 115.525 9.84214 115.297 9.64517C115.074 9.4482 114.756 9.34972 114.343 9.34972C113.907 9.34972 113.561 9.44631 113.303 9.63949C113.045 9.82889 112.875 10.0675 112.792 10.3554L110.553 10.1736C110.667 9.64328 110.89 9.18495 111.223 8.79858C111.557 8.40843 111.987 8.10919 112.513 7.90086C113.044 7.68874 113.657 7.58267 114.354 7.58267C114.839 7.58267 115.303 7.63949 115.746 7.75313C116.193 7.86677 116.589 8.0429 116.934 8.28154C117.282 8.52017 117.557 8.82699 117.758 9.20199C117.958 9.5732 118.059 10.0183 118.059 10.5372V16.4236H115.763V15.2134H115.695C115.555 15.4861 115.367 15.7266 115.133 15.9349C114.898 16.1395 114.616 16.3005 114.286 16.4179C113.956 16.5315 113.576 16.5884 113.144 16.5884ZM113.837 14.9179C114.193 14.9179 114.508 14.8478 114.78 14.7077C115.053 14.5637 115.267 14.3706 115.422 14.1281C115.578 13.8857 115.655 13.6111 115.655 13.3043V12.3781C115.58 12.4274 115.475 12.4728 115.343 12.5145C115.214 12.5524 115.068 12.5884 114.905 12.6224C114.742 12.6528 114.58 12.6812 114.417 12.7077C114.254 12.7304 114.106 12.7512 113.973 12.7702C113.689 12.8118 113.441 12.8781 113.229 12.969C113.017 13.0599 112.852 13.1831 112.735 13.3384C112.617 13.4899 112.559 13.6793 112.559 13.9065C112.559 14.2361 112.678 14.488 112.917 14.6622C113.159 14.8327 113.466 14.9179 113.837 14.9179ZM122.197 11.3781V16.4236H119.777V7.69631H122.083V9.23608H122.186C122.379 8.72851 122.703 8.32699 123.157 8.03154C123.612 7.7323 124.163 7.58267 124.811 7.58267C125.417 7.58267 125.945 7.71525 126.396 7.9804C126.847 8.24555 127.197 8.62434 127.447 9.11677C127.697 9.6054 127.822 10.1887 127.822 10.8668V16.4236H125.402V11.2986C125.405 10.7645 125.269 10.3478 124.992 10.0486C124.716 9.74555 124.335 9.59404 123.85 9.59404C123.525 9.59404 123.237 9.66411 122.987 9.80427C122.741 9.94442 122.547 10.149 122.407 10.4179C122.271 10.6831 122.201 11.0031 122.197 11.3781ZM131.99 11.3781V16.4236H129.57V4.78722H131.922V9.23608H132.024C132.221 8.72093 132.539 8.31752 132.979 8.02586C133.418 7.7304 133.969 7.58267 134.632 7.58267C135.238 7.58267 135.767 7.71525 136.217 7.9804C136.672 8.24177 137.024 8.61866 137.274 9.11108C137.528 9.59972 137.653 10.1849 137.649 10.8668V16.4236H135.229V11.2986C135.233 10.7607 135.096 10.3421 134.82 10.0429C134.547 9.74366 134.164 9.59404 133.672 9.59404C133.342 9.59404 133.051 9.66411 132.797 9.80427C132.547 9.94442 132.35 10.149 132.206 10.4179C132.066 10.6831 131.994 11.0031 131.99 11.3781ZM150.199 10.1849L147.983 10.3213C147.945 10.1319 147.863 9.96146 147.738 9.80995C147.613 9.65464 147.449 9.53154 147.244 9.44063C147.043 9.34593 146.803 9.29858 146.522 9.29858C146.147 9.29858 145.831 9.37813 145.574 9.53722C145.316 9.69252 145.187 9.90086 145.187 10.1622C145.187 10.3706 145.27 10.5467 145.437 10.6906C145.604 10.8346 145.89 10.9501 146.295 11.0372L147.875 11.3554C148.723 11.5296 149.356 11.8099 149.772 12.1963C150.189 12.5827 150.397 13.0903 150.397 13.719C150.397 14.291 150.229 14.7929 149.892 15.2247C149.558 15.6565 149.1 15.9937 148.517 16.2361C147.937 16.4747 147.269 16.594 146.511 16.594C145.356 16.594 144.435 16.3535 143.75 15.8724C143.068 15.3876 142.668 14.7285 142.551 13.8952L144.931 13.7702C145.003 14.1224 145.178 14.3914 145.454 14.577C145.731 14.7588 146.085 14.8497 146.517 14.8497C146.941 14.8497 147.282 14.7683 147.539 14.6054C147.801 14.4387 147.933 14.2247 147.937 13.9634C147.933 13.7437 147.841 13.5637 147.659 13.4236C147.477 13.2796 147.197 13.1698 146.818 13.094L145.306 12.7929C144.454 12.6224 143.82 12.327 143.403 11.9065C142.99 11.4861 142.784 10.9501 142.784 10.2986C142.784 9.73798 142.935 9.25502 143.238 8.84972C143.545 8.44442 143.975 8.13192 144.528 7.91222C145.085 7.69252 145.736 7.58267 146.483 7.58267C147.585 7.58267 148.452 7.81563 149.085 8.28154C149.721 8.74745 150.092 9.38192 150.199 10.1849ZM154.25 16.5884C153.693 16.5884 153.197 16.4918 152.762 16.2986C152.326 16.1016 151.981 15.8118 151.727 15.4293C151.477 15.0429 151.352 14.5618 151.352 13.9861C151.352 13.5012 151.441 13.094 151.619 12.7645C151.798 12.4349 152.04 12.1698 152.347 11.969C152.654 11.7683 153.002 11.6168 153.392 11.5145C153.786 11.4122 154.199 11.3403 154.631 11.2986C155.138 11.2456 155.548 11.1963 155.858 11.1509C156.169 11.1016 156.394 11.0296 156.534 10.9349C156.674 10.8403 156.744 10.7001 156.744 10.5145V10.4804C156.744 10.1206 156.631 9.84214 156.404 9.64517C156.18 9.4482 155.862 9.34972 155.449 9.34972C155.013 9.34972 154.667 9.44631 154.409 9.63949C154.152 9.82889 153.981 10.0675 153.898 10.3554L151.659 10.1736C151.773 9.64328 151.996 9.18495 152.33 8.79858C152.663 8.40843 153.093 8.10919 153.619 7.90086C154.15 7.68874 154.763 7.58267 155.46 7.58267C155.945 7.58267 156.409 7.63949 156.852 7.75313C157.299 7.86677 157.695 8.0429 158.04 8.28154C158.388 8.52017 158.663 8.82699 158.864 9.20199C159.065 9.5732 159.165 10.0183 159.165 10.5372V16.4236H156.869V15.2134H156.801C156.661 15.4861 156.474 15.7266 156.239 15.9349C156.004 16.1395 155.722 16.3005 155.392 16.4179C155.063 16.5315 154.682 16.5884 154.25 16.5884ZM154.943 14.9179C155.299 14.9179 155.614 14.8478 155.887 14.7077C156.159 14.5637 156.373 14.3706 156.529 14.1281C156.684 13.8857 156.762 13.6111 156.762 13.3043V12.3781C156.686 12.4274 156.582 12.4728 156.449 12.5145C156.32 12.5524 156.174 12.5884 156.012 12.6224C155.849 12.6528 155.686 12.6812 155.523 12.7077C155.36 12.7304 155.212 12.7512 155.08 12.7702C154.796 12.8118 154.548 12.8781 154.335 12.969C154.123 13.0599 153.959 13.1831 153.841 13.3384C153.724 13.4899 153.665 13.6793 153.665 13.9065C153.665 14.2361 153.784 14.488 154.023 14.6622C154.265 14.8327 154.572 14.9179 154.943 14.9179ZM154.682 6.57131L155.887 3.98608H158.125L156.392 6.57131H154.682ZM164.826 16.594C163.932 16.594 163.163 16.4046 162.519 16.0259C161.879 15.6433 161.387 15.113 161.042 14.4349C160.701 13.7569 160.531 12.9766 160.531 12.094C160.531 11.2001 160.703 10.416 161.048 9.74177C161.396 9.06374 161.89 8.53533 162.531 8.15654C163.171 7.77396 163.932 7.58267 164.815 7.58267C165.576 7.58267 166.243 7.72093 166.815 7.99745C167.387 8.27396 167.839 8.66222 168.173 9.16222C168.506 9.66222 168.69 10.2493 168.724 10.9236H166.44C166.375 10.488 166.205 10.1376 165.928 9.87245C165.656 9.60351 165.298 9.46904 164.854 9.46904C164.479 9.46904 164.152 9.57131 163.871 9.77586C163.595 9.97661 163.379 10.2702 163.224 10.6565C163.068 11.0429 162.991 11.5107 162.991 12.0599C162.991 12.6168 163.066 13.0903 163.218 13.4804C163.373 13.8706 163.591 14.1679 163.871 14.3724C164.152 14.577 164.479 14.6793 164.854 14.6793C165.131 14.6793 165.379 14.6224 165.599 14.5088C165.822 14.3952 166.006 14.2304 166.15 14.0145C166.298 13.7948 166.394 13.5315 166.44 13.2247H168.724C168.686 13.8914 168.504 14.4785 168.178 14.9861C167.856 15.4899 167.411 15.8838 166.843 16.1679C166.275 16.452 165.602 16.594 164.826 16.594ZM172.534 11.3781V16.4236H170.113V4.78722H172.466V9.23608H172.568C172.765 8.72093 173.083 8.31752 173.523 8.02586C173.962 7.7304 174.513 7.58267 175.176 7.58267C175.782 7.58267 176.31 7.71525 176.761 7.9804C177.216 8.24177 177.568 8.61866 177.818 9.11108C178.072 9.59972 178.197 10.1849 178.193 10.8668V16.4236H175.773V11.2986C175.776 10.7607 175.64 10.3421 175.363 10.0429C175.091 9.74366 174.708 9.59404 174.216 9.59404C173.886 9.59404 173.594 9.66411 173.341 9.80427C173.091 9.94442 172.894 10.149 172.75 10.4179C172.61 10.6831 172.538 11.0031 172.534 11.3781ZM10.1932 31.2134H11.5966C11.5928 31.8724 11.4943 32.4255 11.3011 32.8724C11.108 33.3156 10.7803 33.649 10.3182 33.8724C9.85985 34.0959 9.23295 34.2077 8.4375 34.2077V33.1281C8.96402 33.1281 9.35038 33.0581 9.59659 32.9179C9.84659 32.7778 10.0076 32.5675 10.0795 32.2872C10.1553 32.0031 10.1932 31.6452 10.1932 31.2134ZM6.61932 36.7077V31.6963H9.03409V40.4236H6.71591V38.8384H6.625C6.42803 39.3497 6.10038 39.7607 5.64205 40.0713C5.1875 40.3819 4.63258 40.5372 3.97727 40.5372C3.39394 40.5372 2.88068 40.4046 2.4375 40.1395C1.99432 39.8743 1.64773 39.4974 1.39773 39.0088C1.15152 38.5202 1.02652 37.9349 1.02273 37.2531V31.6963H3.44318V36.8213C3.44318 37.3365 3.57955 37.7437 3.85227 38.0429C4.12879 38.3421 4.49621 38.4918 4.95455 38.4918C5.24621 38.4918 5.51705 38.4255 5.76705 38.2929C6.02083 38.1565 6.22538 37.9558 6.38068 37.6906C6.53977 37.4255 6.61932 37.0978 6.61932 36.7077ZM17.7463 36.7077V31.6963H20.1667V40.4236H17.8428V38.8384H17.7519C17.555 39.3497 17.2273 39.7607 16.769 40.0713C16.3144 40.3819 15.7595 40.5372 15.1042 40.5372C14.5209 40.5372 14.0076 40.4046 13.5644 40.1395C13.1213 39.8743 12.7747 39.4974 12.5247 39.0088C12.2784 38.5202 12.1534 37.9349 12.1497 37.2531V31.6963H14.5701V36.8213C14.5739 37.3365 14.7122 37.7437 14.9849 38.0429C15.2576 38.3421 15.6231 38.4918 16.0815 38.4918C16.3731 38.4918 16.6459 38.4255 16.8997 38.2929C17.1534 38.1565 17.358 37.9558 17.5133 37.6906C17.6724 37.4255 17.75 37.0978 17.7463 36.7077ZM28.7018 40.5656C28.0389 40.5656 27.4386 40.3952 26.9007 40.0543C26.3666 39.7096 25.9423 39.2039 25.628 38.5372C25.3173 37.8668 25.162 37.0448 25.162 36.0713C25.162 35.0713 25.323 34.2399 25.645 33.577C25.967 32.9103 26.395 32.4122 26.9291 32.0827C27.467 31.7493 28.056 31.5827 28.6961 31.5827C29.1848 31.5827 29.592 31.666 29.9177 31.8327C30.2473 31.9956 30.5124 32.2001 30.7132 32.4463C30.9177 32.6887 31.073 32.9274 31.1791 33.1622H31.253V28.7872H33.6677V40.4236H31.2814V39.0259H31.1791C31.0655 39.2683 30.9045 39.5088 30.6961 39.7474C30.4916 39.9823 30.2245 40.1774 29.895 40.3327C29.5692 40.488 29.1715 40.5656 28.7018 40.5656ZM29.4689 38.6395C29.859 38.6395 30.1886 38.5334 30.4575 38.3213C30.7302 38.1054 30.9386 37.8043 31.0825 37.4179C31.2302 37.0315 31.3041 36.5789 31.3041 36.0599C31.3041 35.541 31.2321 35.0903 31.0882 34.7077C30.9442 34.3251 30.7359 34.0296 30.4632 33.8213C30.1905 33.613 29.859 33.5088 29.4689 33.5088C29.0711 33.5088 28.7359 33.6168 28.4632 33.8327C28.1905 34.0486 27.984 34.3478 27.8439 34.7304C27.7037 35.113 27.6336 35.5562 27.6336 36.0599C27.6336 36.5675 27.7037 37.0164 27.8439 37.4065C27.9878 37.7929 28.1942 38.0959 28.4632 38.3156C28.7359 38.5315 29.0711 38.6395 29.4689 38.6395ZM28.9916 31.0997V29.6736H34.662V31.0997H28.9916ZM37.9864 40.5884C37.4296 40.5884 36.9334 40.4918 36.4978 40.2986C36.0622 40.1016 35.7175 39.8118 35.4637 39.4293C35.2137 39.0429 35.0887 38.5618 35.0887 37.9861C35.0887 37.5012 35.1777 37.094 35.3557 36.7645C35.5338 36.4349 35.7762 36.1698 36.083 35.969C36.3898 35.7683 36.7383 35.6168 37.1285 35.5145C37.5224 35.4122 37.9353 35.3403 38.3671 35.2986C38.8747 35.2456 39.2838 35.1963 39.5944 35.1509C39.905 35.1016 40.1304 35.0296 40.2705 34.9349C40.4107 34.8403 40.4807 34.7001 40.4807 34.5145V34.4804C40.4807 34.1206 40.3671 33.8421 40.1398 33.6452C39.9163 33.4482 39.5982 33.3497 39.1853 33.3497C38.7497 33.3497 38.4031 33.4463 38.1455 33.6395C37.8879 33.8289 37.7175 34.0675 37.6341 34.3554L35.3955 34.1736C35.5091 33.6433 35.7326 33.1849 36.066 32.7986C36.3993 32.4084 36.8292 32.1092 37.3557 31.9009C37.886 31.6887 38.4997 31.5827 39.1966 31.5827C39.6815 31.5827 40.1455 31.6395 40.5887 31.7531C41.0357 31.8668 41.4315 32.0429 41.7762 32.2815C42.1247 32.5202 42.3993 32.827 42.6001 33.202C42.8008 33.5732 42.9012 34.0183 42.9012 34.5372V40.4236H40.6057V39.2134H40.5376C40.3974 39.4861 40.2099 39.7266 39.9751 39.9349C39.7402 40.1395 39.458 40.3005 39.1285 40.4179C38.7989 40.5315 38.4182 40.5884 37.9864 40.5884ZM38.6796 38.9179C39.0357 38.9179 39.3501 38.8478 39.6228 38.7077C39.8955 38.5637 40.1095 38.3706 40.2648 38.1281C40.4201 37.8857 40.4978 37.6111 40.4978 37.3043V36.3781C40.422 36.4274 40.3179 36.4728 40.1853 36.5145C40.0565 36.5524 39.9107 36.5884 39.7478 36.6224C39.5849 36.6528 39.422 36.6812 39.2591 36.7077C39.0963 36.7304 38.9485 36.7512 38.816 36.7702C38.5319 36.8118 38.2838 36.8781 38.0716 36.969C37.8595 37.0599 37.6948 37.1831 37.5773 37.3384C37.4599 37.4899 37.4012 37.6793 37.4012 37.9065C37.4012 38.2361 37.5205 38.488 37.7591 38.6622C38.0016 38.8327 38.3084 38.9179 38.6796 38.9179ZM37.6626 30.6224L36.316 30.6054C36.316 29.8819 36.494 29.327 36.8501 28.9406C37.2099 28.5543 37.6474 28.3592 38.1626 28.3554C38.4277 28.3554 38.655 28.399 38.8444 28.4861C39.0376 28.5694 39.2099 28.6679 39.3614 28.7815C39.5167 28.8952 39.6645 28.9956 39.8046 29.0827C39.9448 29.166 40.0963 29.2077 40.2591 29.2077C40.4788 29.2039 40.6455 29.1224 40.7591 28.9634C40.8766 28.8005 40.9353 28.5884 40.9353 28.327L42.2591 28.3668C42.2516 29.0827 42.0698 29.6357 41.7137 30.0259C41.3576 30.4122 40.9239 30.6073 40.4126 30.6111C40.1285 30.6111 39.8898 30.5694 39.6966 30.4861C39.5073 30.399 39.3406 30.3005 39.1966 30.1906C39.0527 30.077 38.9126 29.9766 38.7762 29.8895C38.6398 29.8024 38.4864 29.7588 38.316 29.7588C38.119 29.7588 37.9599 29.8365 37.8387 29.9918C37.7213 30.1471 37.6626 30.3573 37.6626 30.6224ZM44.619 40.4236V31.6963H47.0395V40.4236H44.619ZM45.8349 30.5713C45.4751 30.5713 45.1664 30.452 44.9088 30.2134C44.655 29.9709 44.5281 29.6812 44.5281 29.344C44.5281 29.0107 44.655 28.7247 44.9088 28.4861C45.1664 28.2437 45.4751 28.1224 45.8349 28.1224C46.1948 28.1224 46.5016 28.2437 46.7554 28.4861C47.013 28.7247 47.1418 29.0107 47.1418 29.344C47.1418 29.6812 47.013 29.9709 46.7554 30.2134C46.5016 30.452 46.1948 30.5713 45.8349 30.5713Z" fill="white"/>
<rect x="231" y="32" width="111" height="34" rx="6" fill="white"/>
<path d="M248.777 47.1293H247.226C247.167 46.7978 247.056 46.5062 246.893 46.2543C246.731 46.0024 246.532 45.7886 246.297 45.6129C246.061 45.4373 245.798 45.3047 245.506 45.2152C245.218 45.1257 244.911 45.081 244.586 45.081C244 45.081 243.474 45.2285 243.01 45.5234C242.55 45.8184 242.185 46.2509 241.917 46.821C241.651 47.3911 241.519 48.0871 241.519 48.9091C241.519 49.7377 241.651 50.437 241.917 51.0071C242.185 51.5772 242.551 52.008 243.015 52.2997C243.479 52.5914 244.001 52.7372 244.581 52.7372C244.903 52.7372 245.208 52.6941 245.496 52.608C245.788 52.5185 246.051 52.3875 246.287 52.2152C246.522 52.0429 246.721 51.8324 246.883 51.5838C247.049 51.3319 247.163 51.0436 247.226 50.7188L248.777 50.7237C248.695 51.2242 248.534 51.6849 248.295 52.1058C248.06 52.5234 247.757 52.8847 247.385 53.1896C247.017 53.4912 246.597 53.7249 246.123 53.8906C245.649 54.0563 245.132 54.1392 244.571 54.1392C243.69 54.1392 242.904 53.9304 242.215 53.5128C241.526 53.0919 240.982 52.4903 240.584 51.7081C240.19 50.9259 239.993 49.9929 239.993 48.9091C239.993 47.822 240.191 46.889 240.589 46.1101C240.987 45.3279 241.531 44.728 242.22 44.3104C242.909 43.8894 243.693 43.679 244.571 43.679C245.112 43.679 245.616 43.7569 246.083 43.9126C246.553 44.0651 246.976 44.2905 247.351 44.5888C247.725 44.8838 248.035 45.245 248.28 45.6726C248.526 46.0968 248.691 46.5824 248.777 47.1293ZM251.983 49.4659V54H250.496V43.8182H251.963V47.6065H252.057C252.236 47.1955 252.51 46.8691 252.878 46.6271C253.246 46.3852 253.726 46.2642 254.32 46.2642C254.843 46.2642 255.301 46.3719 255.692 46.5874C256.086 46.8028 256.391 47.1243 256.606 47.5518C256.825 47.9761 256.935 48.5064 256.935 49.1428V54H255.448V49.3217C255.448 48.7616 255.304 48.3274 255.016 48.0192C254.727 47.7076 254.326 47.5518 253.812 47.5518C253.461 47.5518 253.146 47.6264 252.868 47.7756C252.593 47.9247 252.376 48.1435 252.217 48.4318C252.061 48.7169 251.983 49.0616 251.983 49.4659ZM262.135 54.1541C261.419 54.1541 260.794 53.9901 260.261 53.6619C259.727 53.3338 259.313 52.8748 259.018 52.2848C258.723 51.6948 258.575 51.0054 258.575 50.2166C258.575 49.4245 258.723 48.7318 259.018 48.1385C259.313 47.5452 259.727 47.0845 260.261 46.7564C260.794 46.4283 261.419 46.2642 262.135 46.2642C262.851 46.2642 263.476 46.4283 264.009 46.7564C264.543 47.0845 264.957 47.5452 265.252 48.1385C265.547 48.7318 265.695 49.4245 265.695 50.2166C265.695 51.0054 265.547 51.6948 265.252 52.2848C264.957 52.8748 264.543 53.3338 264.009 53.6619C263.476 53.9901 262.851 54.1541 262.135 54.1541ZM262.14 52.9062C262.604 52.9062 262.988 52.7836 263.293 52.5384C263.598 52.2931 263.824 51.9666 263.969 51.5589C264.119 51.1513 264.193 50.7022 264.193 50.2116C264.193 49.7244 264.119 49.277 263.969 48.8693C263.824 48.4583 263.598 48.1286 263.293 47.88C262.988 47.6314 262.604 47.5071 262.14 47.5071C261.672 47.5071 261.285 47.6314 260.976 47.88C260.672 48.1286 260.445 48.4583 260.295 48.8693C260.15 49.277 260.077 49.7244 260.077 50.2116C260.077 50.7022 260.15 51.1513 260.295 51.5589C260.445 51.9666 260.672 52.2931 260.976 52.5384C261.285 52.7836 261.672 52.9062 262.14 52.9062ZM262.135 56.6349C261.88 56.6349 261.659 56.5488 261.474 56.3764C261.288 56.2041 261.195 55.9953 261.195 55.75C261.195 55.5047 261.288 55.2959 261.474 55.1236C261.659 54.9512 261.88 54.8651 262.135 54.8651C262.393 54.8651 262.614 54.9512 262.796 55.1236C262.982 55.2959 263.074 55.5047 263.074 55.75C263.074 55.9953 262.982 56.2041 262.796 56.3764C262.614 56.5488 262.393 56.6349 262.135 56.6349ZM268.84 49.4659V54H267.354V46.3636H268.781V47.6065H268.875C269.051 47.2022 269.326 46.8774 269.7 46.6321C270.078 46.3868 270.554 46.2642 271.127 46.2642C271.648 46.2642 272.103 46.3736 272.494 46.5923C272.886 46.8078 273.189 47.1293 273.404 47.5568C273.62 47.9844 273.727 48.513 273.727 49.1428V54H272.241V49.3217C272.241 48.7682 272.097 48.3357 271.808 48.0241C271.52 47.7093 271.124 47.5518 270.62 47.5518C270.275 47.5518 269.969 47.6264 269.7 47.7756C269.435 47.9247 269.225 48.1435 269.069 48.4318C268.917 48.7169 268.84 49.0616 268.84 49.4659ZM286.704 45.9957H287.803C287.8 46.526 287.725 46.9702 287.579 47.3281C287.437 47.6828 287.188 47.9496 286.834 48.1286C286.479 48.3075 285.987 48.397 285.357 48.397V47.5369C285.785 47.5369 286.091 47.4839 286.277 47.3778C286.466 47.2685 286.583 47.1011 286.63 46.8757C286.68 46.647 286.704 46.3537 286.704 45.9957ZM284.283 50.8331V46.3636H285.77V54H284.308V52.6776H284.229C284.053 53.0852 283.773 53.425 283.388 53.6967C283.004 53.9652 282.523 54.0994 281.947 54.0994C281.459 54.0994 281.027 53.9917 280.649 53.7763C280.271 53.5575 279.975 53.2344 279.759 52.8068C279.547 52.3793 279.441 51.8506 279.441 51.2209V46.3636H280.927V51.0419C280.927 51.5623 281.072 51.9766 281.36 52.2848C281.652 52.593 282.026 52.7472 282.484 52.7472C282.762 52.7472 283.039 52.6776 283.314 52.5384C283.592 52.3991 283.823 52.1887 284.005 51.907C284.19 51.6252 284.283 51.2673 284.283 50.8331ZM293.383 50.8331V46.3636H294.874V54H293.412V52.6776H293.333C293.157 53.0852 292.875 53.425 292.488 53.6967C292.103 53.9652 291.624 54.0994 291.051 54.0994C290.56 54.0994 290.126 53.9917 289.748 53.7763C289.374 53.5575 289.079 53.2344 288.863 52.8068C288.651 52.3793 288.545 51.8506 288.545 51.2209V46.3636H290.032V51.0419C290.032 51.5623 290.176 51.9766 290.464 52.2848C290.753 52.593 291.127 52.7472 291.588 52.7472C291.866 52.7472 292.143 52.6776 292.418 52.5384C292.696 52.3991 292.927 52.1887 293.109 51.907C293.295 51.6252 293.386 51.2673 293.383 50.8331ZM303.435 54.1491C302.819 54.1491 302.268 53.9917 301.785 53.6768C301.304 53.3587 300.926 52.9062 300.651 52.3196C300.379 51.7296 300.243 51.022 300.243 50.1967C300.243 49.3714 300.381 48.6655 300.656 48.0788C300.934 47.4922 301.316 47.0431 301.799 46.7315C302.283 46.42 302.832 46.2642 303.445 46.2642C303.919 46.2642 304.3 46.3438 304.589 46.5028C304.88 46.6586 305.106 46.8409 305.265 47.0497C305.427 47.2585 305.553 47.4425 305.642 47.6016H305.732V43.8182H307.218V54H305.767V52.8118H305.642C305.553 52.9742 305.424 53.1598 305.255 53.3686C305.089 53.5774 304.86 53.7597 304.569 53.9155C304.277 54.0713 303.899 54.1491 303.435 54.1491ZM303.763 52.8814C304.191 52.8814 304.552 52.7687 304.847 52.5433C305.145 52.3146 305.371 51.9981 305.523 51.5938C305.679 51.1894 305.757 50.7187 305.757 50.1818C305.757 49.6515 305.681 49.1875 305.528 48.7898C305.376 48.392 305.152 48.0821 304.857 47.8601C304.562 47.638 304.197 47.527 303.763 47.527C303.316 47.527 302.943 47.643 302.645 47.875C302.346 48.107 302.121 48.4235 301.968 48.8246C301.819 49.2256 301.745 49.678 301.745 50.1818C301.745 50.6922 301.821 51.1513 301.973 51.5589C302.126 51.9666 302.351 52.2898 302.65 52.5284C302.951 52.7637 303.322 52.8814 303.763 52.8814ZM303.669 45.7521V44.723H308.238V45.7521H303.669ZM311.562 54.169C311.079 54.169 310.641 54.0795 310.25 53.9006C309.859 53.7183 309.549 53.4548 309.32 53.1101C309.095 52.7654 308.982 52.3428 308.982 51.8423C308.982 51.4115 309.065 51.0568 309.231 50.7784C309.396 50.5 309.62 50.2796 309.902 50.1172C310.184 49.9548 310.498 49.8321 310.847 49.7493C311.195 49.6664 311.549 49.6035 311.91 49.5604C312.368 49.5073 312.739 49.4643 313.024 49.4311C313.309 49.3946 313.516 49.3366 313.646 49.2571C313.775 49.1776 313.839 49.0483 313.839 48.8693V48.8345C313.839 48.4003 313.717 48.0639 313.472 47.8253C313.23 47.5866 312.868 47.4673 312.388 47.4673C311.887 47.4673 311.493 47.5784 311.204 47.8004C310.919 48.0192 310.722 48.2628 310.613 48.5312L309.216 48.2131C309.382 47.7491 309.623 47.3745 309.942 47.0895C310.263 46.8011 310.633 46.5923 311.05 46.4631C311.468 46.3305 311.907 46.2642 312.368 46.2642C312.673 46.2642 312.996 46.3007 313.337 46.3736C313.682 46.4432 314.003 46.5724 314.302 46.7614C314.603 46.9503 314.85 47.2204 315.043 47.5717C315.235 47.9197 315.331 48.3722 315.331 48.929V54H313.879V52.956H313.82C313.723 53.1482 313.579 53.3371 313.387 53.5227C313.195 53.7083 312.948 53.8625 312.646 53.9851C312.345 54.1077 311.983 54.169 311.562 54.169ZM311.886 52.9759C312.297 52.9759 312.648 52.8946 312.94 52.7322C313.235 52.5698 313.458 52.3577 313.611 52.0959C313.766 51.8307 313.844 51.5473 313.844 51.2457V50.2614C313.791 50.3144 313.689 50.3641 313.536 50.4105C313.387 50.4536 313.216 50.4917 313.024 50.5249C312.832 50.5547 312.645 50.5829 312.462 50.6094C312.28 50.6326 312.128 50.6525 312.005 50.669C311.717 50.7055 311.453 50.7668 311.214 50.853C310.979 50.9392 310.79 51.0634 310.648 51.2259C310.508 51.3849 310.439 51.5971 310.439 51.8622C310.439 52.2301 310.575 52.5085 310.847 52.6974C311.118 52.883 311.465 52.9759 311.886 52.9759ZM310.951 45.4389L309.952 45.4091C309.952 44.8589 310.099 44.4197 310.394 44.0916C310.692 43.7635 311.06 43.5994 311.498 43.5994C311.7 43.5994 311.877 43.6342 312.03 43.7038C312.182 43.7701 312.325 43.848 312.457 43.9375C312.593 44.0237 312.727 44.1016 312.86 44.1712C312.996 44.2375 313.147 44.2706 313.312 44.2706C313.505 44.2706 313.66 44.1977 313.78 44.0518C313.902 43.906 313.964 43.7254 313.964 43.5099L314.943 43.5746C314.943 44.1281 314.794 44.5639 314.496 44.8821C314.197 45.197 313.831 45.3561 313.397 45.3594C313.162 45.3594 312.966 45.3262 312.81 45.2599C312.658 45.1903 312.522 45.1125 312.403 45.0263C312.283 44.9368 312.161 44.8572 312.035 44.7876C311.909 44.718 311.758 44.6832 311.582 44.6832C311.397 44.6832 311.244 44.7562 311.125 44.902C311.009 45.0445 310.951 45.2235 310.951 45.4389ZM317.311 54V46.3636H318.797V54H317.311ZM318.062 45.1854C317.803 45.1854 317.581 45.0992 317.395 44.9268C317.213 44.7512 317.122 44.5424 317.122 44.3004C317.122 44.0552 317.213 43.8464 317.395 43.674C317.581 43.4983 317.803 43.4105 318.062 43.4105C318.32 43.4105 318.54 43.4983 318.723 43.674C318.908 43.8464 319.001 44.0552 319.001 44.3004C319.001 44.5424 318.908 44.7512 318.723 44.9268C318.54 45.0992 318.32 45.1854 318.062 45.1854Z" fill="#7E2EBC"/>
<path d="M328 53L332 49L328 45" stroke="#7E2EBC" stroke-width="1.67" stroke-linecap="round" stroke-linejoin="round"/>
<path d="M188.426 10.5696C188.01 10.908 187.931 11.5646 188.248 12.0362C188.565 12.5078 189.159 12.6159 189.574 12.2775L188.426 10.5696ZM255.953 22.6015L253.36 10.7317L245.464 18.8553L255.953 22.6015ZM189.574 12.2775C202.708 1.57805 229.577 -3.81317 249.441 16.3426L250.695 14.8101C229.968 -6.22132 202.061 -0.538403 188.426 10.5696L189.574 12.2775Z" fill="white"/>
</svg>
