<svg width="390" height="200" viewBox="0 0 390 200" fill="none" xmlns="http://www.w3.org/2000/svg">
<g clip-path="url(#clip0_14490_100100)">
<rect width="390" height="200" rx="8" fill="white"/>
<path d="M223.906 199.742L114.567 136.612C113.803 136.171 113.803 135.46 114.567 135.02L178.62 98.0195C179.048 97.8035 179.521 97.6909 180 97.6909C180.48 97.6909 180.952 97.8035 181.38 98.0195L290.719 161.181C291.484 161.617 291.484 162.333 290.719 162.774L226.645 199.768C226.218 199.978 225.748 200.085 225.272 200.08C224.796 200.076 224.329 199.96 223.906 199.742Z" fill="#E6E6E6"/>
<path d="M113.171 182.593C129.106 182.593 142.024 176.436 142.024 168.84C142.024 161.245 129.106 155.088 113.171 155.088C97.2359 155.088 84.3181 161.245 84.3181 168.84C84.3181 176.436 97.2359 182.593 113.171 182.593Z" fill="#E7E8E9"/>
<path d="M201.168 108.73C202.516 108.757 204.745 107.011 205.085 104.845C205.424 102.68 206.067 100.971 209.15 99.8029C212.234 98.6352 213.97 98.1044 214.957 95.4187C215.944 92.733 214.426 89.7076 213.996 87.42C213.566 85.1324 215.684 82.4679 218.773 79.952C221.862 77.4362 223.646 74.7823 220.896 73.19C218.147 71.5977 214.718 72.2665 211.719 74.1932C208.72 76.1199 206.369 78.6463 202.696 78.3119C199.023 77.9776 196.948 79.5486 196.226 82.4413C195.504 85.334 196.55 89.0017 193.811 89.9093V102.197L201.168 108.73Z" fill="#224B2B"/>
<path d="M195.605 103.189H195.547C195.479 103.174 195.419 103.133 195.382 103.074C195.344 103.015 195.331 102.944 195.345 102.876C198.153 90.7215 210.828 77.2664 217.675 74.4746C217.707 74.4572 217.743 74.4469 217.78 74.4443C217.817 74.4416 217.854 74.4468 217.889 74.4593C217.924 74.4718 217.955 74.4915 217.982 74.5171C218.009 74.5426 218.03 74.5735 218.044 74.6077C218.058 74.6419 218.065 74.6786 218.064 74.7156C218.063 74.7526 218.055 74.789 218.039 74.8224C218.023 74.8559 218 74.8857 217.972 74.9098C217.944 74.934 217.912 74.9521 217.876 74.9629C211.13 77.7176 198.636 90.9922 195.865 102.993C195.849 103.049 195.815 103.099 195.768 103.135C195.721 103.17 195.664 103.189 195.605 103.189Z" fill="white"/>
<path d="M202.664 88.6624C202.601 88.662 202.541 88.6393 202.493 88.5985C202.446 88.5577 202.414 88.5014 202.404 88.4395C202.034 86.3812 201.302 84.4046 200.244 82.601C200.208 82.5408 200.196 82.469 200.212 82.4007C200.228 82.3324 200.27 82.2729 200.329 82.2348C200.358 82.2162 200.391 82.2037 200.426 82.198C200.46 82.1922 200.495 82.1933 200.529 82.2012C200.564 82.2091 200.596 82.2236 200.624 82.2439C200.652 82.2643 200.677 82.29 200.695 82.3197C201.798 84.1869 202.554 86.2388 202.924 88.3758C202.931 88.4101 202.931 88.4454 202.923 88.4796C202.916 88.5137 202.902 88.546 202.881 88.5744C202.861 88.6027 202.835 88.6266 202.805 88.6445C202.775 88.6624 202.741 88.6739 202.707 88.6783L202.664 88.6624Z" fill="white"/>
<path d="M200.472 92.3561C200.413 92.356 200.356 92.3368 200.309 92.3014C200.262 92.266 200.228 92.2162 200.212 92.1597C200.203 92.1259 200.201 92.0907 200.206 92.0561C200.211 92.0215 200.223 91.9882 200.24 91.9582C200.258 91.9281 200.282 91.9018 200.31 91.8808C200.338 91.8598 200.369 91.8446 200.403 91.8359C204.575 90.7319 209.846 91.7882 210.069 91.8359C210.103 91.8429 210.137 91.8567 210.166 91.8764C210.196 91.8962 210.221 91.9216 210.241 91.9512C210.26 91.9808 210.274 92.0139 210.281 92.0488C210.288 92.0837 210.288 92.1195 210.281 92.1544C210.274 92.1892 210.26 92.2224 210.24 92.2519C210.221 92.2814 210.195 92.3068 210.166 92.3265C210.136 92.3462 210.103 92.3599 210.068 92.3668C210.033 92.3737 209.997 92.3737 209.962 92.3667C209.909 92.3667 204.586 91.3052 200.536 92.3667C200.514 92.3685 200.492 92.3648 200.472 92.3561Z" fill="white"/>
<path d="M247.382 37.3262L249.415 38.1065V33.6268C249.415 30.0706 252.249 29.216 255.327 30.9729C258.406 32.751 260.9 37.0715 260.9 40.6276V41.3017C261.334 41.1669 261.793 41.1327 262.241 41.2017C262.69 41.2707 263.117 41.441 263.491 41.6998C264.657 42.4616 265.628 43.4877 266.324 44.6948C267.021 45.9019 267.423 47.2561 267.498 48.6476V48.9448L270.338 50.5849C271.109 51.0848 271.751 51.7597 272.212 52.5548C272.673 53.3498 272.94 54.2425 272.991 55.1602C272.991 56.8427 271.813 57.5274 270.338 56.6835L247.382 43.4142C246.61 42.9143 245.968 42.2393 245.507 41.4443C245.046 40.6493 244.779 39.7566 244.728 38.8389C244.738 37.167 245.922 36.4823 247.382 37.3262Z" fill="#E7E8E9"/>
<path d="M270.444 38.8126L274.159 40.9357C274.159 40.7711 274.127 40.6119 274.127 40.4473V39.3911C274.127 37.491 275.465 36.7373 277.11 37.6714C277.804 38.1133 278.394 38.6999 278.84 39.3911C279.111 36.9973 280.963 36.1056 283.267 37.422C285.73 38.8444 287.731 42.305 287.731 45.15V46.7423C287.746 47.3802 287.617 48.0134 287.354 48.5947L290.416 50.3622C290.898 50.676 291.3 51.0991 291.587 51.5971C291.875 52.0952 292.041 52.654 292.072 53.2283C292.072 54.2899 291.329 54.7092 290.416 54.1837L270.444 42.6341C269.962 42.3203 269.56 41.8971 269.273 41.3991C268.985 40.9011 268.819 40.3423 268.788 39.768C268.766 38.7117 269.509 38.2871 270.444 38.8126Z" fill="#E7E8E9"/>
<path d="M195.143 40.4254L214.506 29.2473L218.816 31.7366L214.506 39.2046L195.143 50.3826V40.4254Z" fill="#263238"/>
<path d="M214.506 29.2473L212.346 28L192.946 39.2046L195.143 40.4254L214.506 29.2473Z" fill="#3C3C43" fill-opacity="0.6"/>
<path d="M197.951 45.4304C197.783 45.4995 197.602 45.5321 197.42 45.526C197.373 45.526 197.357 45.526 197.357 45.4888C197.352 45.4643 197.352 45.439 197.357 45.4145L197.521 45.0642C197.533 45.0341 197.551 45.007 197.574 44.9846H197.643C197.787 44.9818 197.93 44.9586 198.068 44.9156C198.241 44.8634 198.407 44.7903 198.562 44.698C198.76 44.5941 198.939 44.4577 199.092 44.2946C199.2 44.1644 199.26 44.0016 199.262 43.8328C199.267 43.7966 199.263 43.7599 199.252 43.7251C199.241 43.6903 199.223 43.6582 199.199 43.6311C199.142 43.595 199.074 43.58 199.007 43.5887C198.872 43.5993 198.737 43.6188 198.604 43.647H198.493C198.318 43.6807 198.14 43.7002 197.962 43.7054C197.836 43.7112 197.711 43.6717 197.612 43.594C197.561 43.5427 197.522 43.4809 197.499 43.413C197.475 43.3451 197.466 43.2728 197.474 43.2012C197.486 42.8722 197.607 42.5565 197.819 42.3042C198.067 41.9903 198.376 41.7287 198.726 41.5346C198.915 41.4232 199.114 41.3308 199.321 41.2586C199.46 41.2092 199.609 41.1911 199.756 41.2055C199.793 41.2055 199.814 41.2055 199.814 41.2586C199.82 41.2795 199.82 41.3014 199.814 41.3223L199.655 41.6726C199.643 41.6996 199.627 41.7247 199.607 41.7469C199.586 41.7525 199.564 41.7525 199.544 41.7469C199.261 41.7543 198.986 41.8427 198.753 42.0017C198.571 42.0983 198.411 42.23 198.28 42.3891C198.177 42.517 198.121 42.6762 198.121 42.8403C198.113 42.8761 198.115 42.9134 198.126 42.9484C198.137 42.9834 198.156 43.0151 198.183 43.0402C198.21 43.0653 198.243 43.0831 198.278 43.0918C198.314 43.1005 198.351 43.0998 198.386 43.0897C198.526 43.0764 198.664 43.0551 198.8 43.026H198.928C199.113 42.9868 199.301 42.9655 199.49 42.9624C199.549 42.9602 199.607 42.9699 199.662 42.9909C199.717 43.0119 199.767 43.0437 199.809 43.0844C199.894 43.1986 199.934 43.3406 199.92 43.4825C199.911 43.7971 199.797 44.0997 199.597 44.3424C199.35 44.658 199.041 44.9199 198.689 45.112C198.454 45.2423 198.207 45.349 197.951 45.4304Z" fill="white"/>
<path d="M200.706 43.456C200.409 43.318 200.265 42.9677 200.265 42.3944C200.261 41.8447 200.414 41.3051 200.706 40.8393C201.022 40.3468 201.459 39.9431 201.975 39.6662C202.505 39.3531 202.935 39.2629 203.227 39.4009C203.519 39.5389 203.673 39.8892 203.673 40.4624C203.676 41.0144 203.521 41.5558 203.227 42.0229C202.914 42.511 202.483 42.9126 201.975 43.1906C201.444 43.509 200.998 43.594 200.706 43.456ZM202.755 41.938C202.944 41.5936 203.039 41.2055 203.031 40.8127C203.031 40.3881 202.941 40.1227 202.755 40.0059C202.569 39.8892 202.309 39.9369 201.964 40.1386C201.631 40.3239 201.354 40.5952 201.162 40.9242C200.986 41.2703 200.9 41.6557 200.913 42.0441C200.913 42.4687 201.003 42.7341 201.184 42.8509C201.364 42.9676 201.635 42.9199 201.985 42.7182C202.308 42.533 202.574 42.2633 202.755 41.938Z" fill="white"/>
<path d="M204.841 41.3754C204.748 41.396 204.652 41.3952 204.56 41.3731C204.468 41.3511 204.383 41.3083 204.31 41.248C204.242 41.171 204.19 41.0809 204.158 40.9832C204.126 40.8856 204.115 40.7824 204.124 40.6801V38.6791C204.121 38.6212 204.136 38.5637 204.166 38.5145C204.2 38.4606 204.248 38.4167 204.304 38.3872L204.57 38.2385C204.589 38.2213 204.612 38.2086 204.637 38.2013C204.662 38.1939 204.688 38.1921 204.713 38.1961C204.713 38.1961 204.756 38.2492 204.756 38.3128V40.3245C204.756 40.5845 204.83 40.7385 204.984 40.7809C205.098 40.7957 205.214 40.7879 205.325 40.7578C205.436 40.7278 205.54 40.6761 205.631 40.6058C205.885 40.467 206.105 40.2729 206.274 40.0379C206.423 39.829 206.503 39.5782 206.502 39.3213V37.3044C206.501 37.2468 206.516 37.19 206.544 37.1398C206.582 37.087 206.631 37.0434 206.688 37.0125L206.948 36.8638C207.075 36.7895 207.139 36.8108 207.139 36.9328V38.9338C207.138 39.2064 207.074 39.4751 206.953 39.7194C206.816 39.995 206.637 40.2475 206.422 40.4678C206.19 40.7052 205.926 40.9088 205.637 41.0729C205.395 41.2273 205.124 41.3302 204.841 41.3754Z" fill="white"/>
<path d="M208.593 39.2472C208.561 39.2472 208.545 39.1994 208.545 39.1357V36.4288L207.675 36.9277C207.611 36.9648 207.569 36.9808 207.542 36.9648C207.516 36.9489 207.505 36.9171 207.505 36.8534V36.7366C207.502 36.6811 207.515 36.6259 207.542 36.5774C207.577 36.5278 207.622 36.4861 207.675 36.4553L210.053 35.0859C210.072 35.0706 210.094 35.0595 210.118 35.0531C210.142 35.0467 210.166 35.0452 210.191 35.0487C210.191 35.0487 210.228 35.1018 210.228 35.1602V35.2982C210.231 35.352 210.218 35.4056 210.191 35.4521C210.155 35.5031 210.108 35.5449 210.053 35.5742L209.182 36.0731V38.7854C209.182 38.8412 209.167 38.8961 209.14 38.9446C209.104 39.0012 209.052 39.0456 208.991 39.072L208.736 39.2259C208.667 39.2472 208.62 39.2578 208.593 39.2472Z" fill="white"/>
<path d="M210.658 38.0528C210.631 38.0528 210.621 37.9997 210.621 37.9413V34.9266C210.618 34.8694 210.631 34.8127 210.658 34.762C210.697 34.7122 210.746 34.6707 210.801 34.6399L211.066 34.486C211.13 34.4489 211.178 34.4329 211.21 34.4489C211.242 34.4648 211.252 34.4966 211.252 34.5603V35.813L212.882 34.8735V33.6209C212.881 33.5632 212.896 33.5065 212.924 33.4563C212.962 33.4022 213.013 33.3584 213.073 33.3289L213.328 33.1803C213.397 33.1379 213.444 33.1272 213.471 33.1379C213.497 33.1485 213.519 33.1909 213.519 33.2546V36.2694C213.519 36.3237 213.504 36.377 213.476 36.4233C213.438 36.479 213.387 36.5246 213.328 36.556L213.073 36.7046C213.004 36.7418 212.956 36.7577 212.924 36.7418C212.892 36.7259 212.882 36.694 212.882 36.6356V35.3512L211.252 36.296V37.5751C211.255 37.6313 211.24 37.6868 211.21 37.7343C211.174 37.7883 211.124 37.8321 211.066 37.8617L210.801 38.0157C210.781 38.0311 210.758 38.0423 210.733 38.0487C210.709 38.0551 210.683 38.0565 210.658 38.0528Z" fill="white"/>
<path d="M192.904 51.6141L173.541 40.436L169.226 42.9254L173.541 50.3933L192.904 61.5714V51.6141Z" fill="#263238"/>
<path d="M173.541 40.4359L175.696 39.1938L195.101 50.3931L192.904 51.6139L173.541 40.4359Z" fill="#3C3C43" fill-opacity="0.6"/>
<path d="M175.372 48.4134C175.341 48.375 175.319 48.3294 175.309 48.2807L174.406 44.6237C174.403 44.6079 174.403 44.5917 174.406 44.5759C174.406 44.5282 174.438 44.5229 174.512 44.5759L174.98 44.8466C175.023 44.8703 175.062 44.9008 175.096 44.9369C175.12 44.9684 175.136 45.0046 175.144 45.043L175.717 47.5589L176.407 46.0302C176.41 46.0175 176.416 46.0059 176.426 45.9973C176.435 45.9887 176.447 45.9834 176.46 45.9825C176.46 45.9825 176.513 45.9825 176.567 46.0196L176.832 46.1736C176.873 46.1933 176.91 46.2224 176.938 46.2585C176.962 46.2924 176.98 46.33 176.991 46.3699L177.686 48.6947L178.249 46.837C178.249 46.8052 178.276 46.7892 178.302 46.7892C178.344 46.7911 178.385 46.8059 178.419 46.8317L178.886 47.1024C178.96 47.1449 178.997 47.1926 178.997 47.2404C179.001 47.2544 179.001 47.2689 178.997 47.2829L178.09 49.8518C178.09 49.889 178.053 49.9102 178.026 49.9102C177.981 49.9077 177.937 49.893 177.899 49.8677L177.591 49.6873C177.545 49.6621 177.504 49.6299 177.469 49.5917C177.437 49.5504 177.414 49.5036 177.4 49.4537L176.71 47.0652L176.02 48.6576C176.02 48.6947 175.983 48.7159 175.956 48.7159C175.911 48.711 175.868 48.6965 175.829 48.6735L175.516 48.4877C175.463 48.4739 175.414 48.4485 175.372 48.4134Z" fill="white"/>
<path d="M179.608 50.8179C179.576 50.7689 179.56 50.7117 179.56 50.6533V47.6386C179.56 47.5749 179.576 47.5377 179.608 47.5271C179.64 47.5271 179.693 47.5271 179.772 47.5802L182.156 48.9549C182.218 48.9868 182.272 49.0321 182.315 49.0876C182.344 49.1356 182.358 49.1908 182.357 49.2468V49.3795C182.357 49.4432 182.357 49.4803 182.315 49.491C182.272 49.5016 182.235 49.491 182.156 49.4432L180.293 48.3816V49.3476L181.646 50.1279C181.708 50.1596 181.763 50.205 181.805 50.2606C181.838 50.307 181.855 50.3629 181.853 50.4198V50.5366C181.853 50.595 181.853 50.6321 181.805 50.6427C181.748 50.6464 181.692 50.6294 181.646 50.595L180.293 49.8147V50.7807L182.15 51.8423C182.216 51.874 182.272 51.9214 182.315 51.9803C182.344 52.0283 182.358 52.0835 182.357 52.1395V52.2722C182.357 52.3359 182.357 52.3677 182.315 52.3784C182.256 52.3767 182.199 52.3583 182.15 52.3253L179.772 50.9506C179.708 50.9204 179.651 50.8748 179.608 50.8179Z" fill="white"/>
<path d="M183.456 53.0789C183.227 52.9089 183.017 52.715 182.829 52.5004C182.776 52.442 182.755 52.4049 182.755 52.3783C182.751 52.3709 182.75 52.3627 182.75 52.3544C182.75 52.3461 182.751 52.338 182.755 52.3305L182.946 52.1819C182.955 52.1755 182.965 52.172 182.975 52.172C182.986 52.172 182.996 52.1755 183.005 52.1819C183.035 52.1996 183.062 52.223 183.084 52.2509C183.234 52.4162 183.398 52.5688 183.573 52.7074C183.752 52.8541 183.941 52.9872 184.141 53.1055C184.318 53.2232 184.519 53.3011 184.73 53.3337C184.862 53.3337 184.926 53.2541 184.926 53.0842C184.928 52.9854 184.902 52.8879 184.852 52.8029C184.792 52.7017 184.719 52.6089 184.634 52.5269C184.539 52.4279 184.385 52.2792 184.172 52.0811L184.04 51.9643C183.79 51.7308 183.583 51.5291 183.424 51.3592C183.268 51.1994 183.133 51.0212 183.021 50.8285C182.917 50.6589 182.86 50.4647 182.856 50.2658C182.856 49.9633 182.989 49.8041 183.254 49.7935C183.634 49.8165 184.001 49.9411 184.316 50.1544C184.554 50.2933 184.782 50.4476 185 50.6162C185.184 50.7597 185.352 50.9235 185.499 51.1045C185.535 51.1367 185.559 51.1795 185.568 51.2265C185.572 51.233 185.574 51.2403 185.574 51.2478C185.574 51.2552 185.572 51.2625 185.568 51.269L185.383 51.4229C185.374 51.4276 185.365 51.43 185.356 51.43C185.347 51.43 185.338 51.4276 185.329 51.4229C185.3 51.4017 185.273 51.3767 185.25 51.3486C184.988 51.0582 184.681 50.811 184.342 50.6162C184.184 50.5082 184.002 50.4407 183.811 50.4198C183.689 50.4198 183.631 50.51 183.631 50.6745C183.629 50.7768 183.655 50.8776 183.705 50.9665C183.769 51.0712 183.846 51.1675 183.934 51.2531C184.029 51.3539 184.194 51.5025 184.417 51.7042L184.555 51.8369C184.836 52.0917 185.053 52.3093 185.213 52.4792C185.356 52.6396 185.477 52.8181 185.574 53.0099C185.658 53.1742 185.704 53.3559 185.706 53.5407C185.706 53.8273 185.579 53.9812 185.335 54.0025C184.954 53.9849 184.586 53.8598 184.273 53.6415C183.989 53.472 183.716 53.2841 183.456 53.0789Z" fill="white"/>
<path d="M187.113 55.1543C187.077 55.1073 187.058 55.0491 187.06 54.9897V52.2775L186.051 51.699C185.991 51.6672 185.936 51.6239 185.892 51.5716C185.863 51.5236 185.849 51.4684 185.85 51.4123V51.2796C185.85 51.216 185.85 51.1788 185.892 51.1629C185.935 51.147 185.977 51.1629 186.051 51.2159L188.795 52.8083C188.857 52.8416 188.911 52.8867 188.955 52.941C188.985 52.9901 189 53.0476 188.997 53.1055V53.2382C188.997 53.3019 188.997 53.339 188.955 53.3443C188.912 53.3497 188.87 53.3443 188.795 53.2913L187.787 52.7127V55.425C187.787 55.4834 187.787 55.5205 187.739 55.5311C187.678 55.5354 187.617 55.5165 187.569 55.478L187.272 55.3082C187.208 55.2695 187.154 55.2169 187.113 55.1543Z" fill="white"/>
<path d="M195.138 30.0964C195.115 29.9077 195.044 29.728 194.931 29.5746C194.819 29.4212 194.669 29.2994 194.496 29.2207C194.014 28.9772 193.483 28.8503 192.943 28.8503C192.404 28.8503 191.872 28.9772 191.391 29.2207C191.218 29.2994 191.068 29.4212 190.955 29.5746C190.843 29.728 190.772 29.9077 190.749 30.0964V146.951H195.149V30.0964H195.138Z" fill="#263238"/>
<path d="M233.911 118.38L208.036 110.912L181.226 88.2904C180.86 88.0097 180.422 87.8387 179.962 87.7974C179.503 87.7561 179.041 87.846 178.631 88.0568L114.546 125.057C114.379 125.136 114.236 125.257 114.13 125.409C114.025 125.56 113.96 125.736 113.944 125.92C113.927 126.104 113.959 126.289 114.035 126.457C114.112 126.625 114.231 126.77 114.381 126.877L141.196 149.499L167.071 156.967L195.074 180.618L223.736 190.082C224.704 190.339 225.733 190.233 226.629 189.784L229.564 188.086L290.714 152.784C291.473 152.349 291.414 151.765 290.581 151.489L261.92 142.031L233.911 118.38Z" fill="#8A8A8E"/>
<path d="M208.036 110.912L141.196 149.499L167.071 156.967L233.911 118.38L208.036 110.912Z" fill="#8A8A8E"/>
<path d="M195.074 180.618L223.736 190.082C224.705 190.34 225.734 190.232 226.629 189.779L290.714 152.784C291.473 152.349 291.415 151.765 290.581 151.489L261.92 142.031L195.074 180.618Z" fill="#8A8A8E"/>
<path d="M203.721 113.401L179.199 92.7117L120.984 126.32L145.511 147.01L203.721 113.401Z" fill="#E0E0E0"/>
<path d="M229.596 120.869L171.386 154.478L145.511 147.01L203.72 113.401L229.596 120.869Z" fill="#E0E0E0"/>
<g style="mix-blend-mode:multiply" opacity="0.5">
<path d="M229.596 120.869L171.386 154.478L145.511 147.01L203.72 113.401L229.596 120.869Z" fill="#E0E0E0"/>
</g>
<path d="M257.62 144.52L199.41 178.129L171.386 154.478L229.595 120.869L257.62 144.52Z" fill="#E0E0E0"/>
<path d="M282.322 152.668L224.107 186.276L199.411 178.129L257.62 144.52L282.322 152.668Z" fill="#E0E0E0"/>
<g style="mix-blend-mode:multiply" opacity="0.5">
<path d="M282.322 152.668L224.107 186.276L199.411 178.129L257.62 144.52L282.322 152.668Z" fill="#E0E0E0"/>
</g>
<path d="M135.182 138.3L143.356 133.321L130.421 120.869L120.984 126.32L135.182 138.3Z" fill="#F0F0F0"/>
<path d="M145.511 132.074L132.576 119.627L151.981 108.38L164.916 120.869L145.511 132.074Z" fill="#F0F0F0"/>
<path d="M154.136 107.181L167.071 119.627L173.541 115.891L171.386 97.218L154.136 107.181Z" fill="#F0F0F0"/>
<path d="M175.696 114.648L173.541 95.9757L179.199 92.7114L200.218 110.444L175.696 114.648Z" fill="#F0F0F0"/>
<path d="M153.058 142.657L146.588 136.431L138.505 141.097L145.511 147.01L153.058 142.657Z" fill="#F0F0F0"/>
<path d="M148.743 135.184L155.213 141.41L174.597 130.221L168.143 123.985L148.743 135.184Z" fill="#F0F0F0"/>
<path d="M176.773 128.963L170.303 122.737L176.226 119.319L188.631 117.138V122.116L176.773 128.963Z" fill="#F0F0F0"/>
<path d="M190.786 120.869V116.756L201.035 114.956L190.786 120.869Z" fill="#F0F0F0"/>
<path d="M201.571 124.606C199.188 123.916 195.807 124.197 194.023 125.227C192.24 126.257 192.718 127.652 195.085 128.337C197.452 129.022 200.844 128.751 202.632 127.716C204.421 126.681 203.949 125.291 201.571 124.606Z" fill="#E6E6E6"/>
<path d="M194.543 123.252C194.079 123.403 193.631 123.6 193.206 123.841C191.327 124.903 191.279 126.336 191.348 126.893C191.389 127.221 191.491 127.538 191.651 127.827L186.454 130.821L176.752 128.958L188.609 122.111L194.543 123.252Z" fill="#E6E6E6"/>
<path d="M190.786 120.869L197.436 122.021L200.844 122.493L212.346 115.89L203.721 113.401L190.786 120.869Z" fill="#E6E6E6"/>
<path d="M229.574 120.869L213.386 130.216L203.742 128.894C205.307 127.833 205.334 126.57 205.281 126.044C205.239 125.719 205.139 125.404 204.984 125.115L218.078 117.552L229.574 120.869Z" fill="#E6E6E6"/>
<path d="M211.459 131.341L203.726 135.805L190.754 133.337L196.136 130.216L196.178 130.19C196.783 130.271 197.393 130.312 198.004 130.312C199.251 130.322 200.494 130.152 201.693 129.807L211.459 131.341Z" fill="#E6E6E6"/>
<path d="M174.597 130.221L155.213 141.41L164.916 143.278L184.305 132.079L174.597 130.221Z" fill="#E6E6E6"/>
<path d="M203.726 135.81L190.765 133.321L171.375 144.52L184.321 147.009L203.726 135.81Z" fill="#E6E6E6"/>
<path d="M153.058 142.657L145.511 147.01L154.136 149.499L162.761 144.52L153.058 142.657Z" fill="#E6E6E6"/>
<path d="M182.166 148.257L169.22 145.768L159.884 151.16L171.386 154.478L182.166 148.257Z" fill="#E6E6E6"/>
<path d="M216.661 135.81L223.863 149.074L242.53 138.3L225.286 130.826L216.661 135.81Z" fill="#F0F0F0"/>
<path d="M182.166 148.257L184.321 151.988L183.647 164.828L171.386 154.477L182.166 148.257Z" fill="#F0F0F0"/>
<path d="M184.321 147.01L186.476 150.746L213.513 135.136L211.459 131.341L184.321 147.01Z" fill="#F0F0F0"/>
<path d="M213.407 130.221L215.583 133.942L233.099 123.826L229.596 120.869L213.407 130.221Z" fill="#F0F0F0"/>
<path d="M214.506 137.052L187.553 152.614L186.858 167.54L188.901 169.259L221.724 150.311L214.506 137.052Z" fill="#F0F0F0"/>
<path d="M227.441 129.584L234.85 125.306L247.111 135.651L244.691 137.052L227.441 129.584Z" fill="#F0F0F0"/>
<path d="M192.404 172.216L201.565 166.929L205.881 174.397L199.41 178.129L192.404 172.216Z" fill="#F0F0F0"/>
<path d="M212.344 160.705L203.721 165.684L208.034 173.153L216.657 168.174L212.344 160.705Z" fill="#F0F0F0"/>
<path d="M214.506 159.462L223.789 154.095L227.918 161.67L218.815 166.93L214.506 159.462Z" fill="#F0F0F0"/>
<path d="M230.041 160.449L225.923 152.869L244.691 142.031L254.122 141.564L257.62 144.52L230.041 160.449Z" fill="#F0F0F0"/>
<path d="M248.863 137.132L244.691 139.542L251.416 139.281L248.863 137.132Z" fill="#F0F0F0"/>
<path d="M240.509 164.514C238.131 163.83 234.75 164.106 232.966 165.135C231.183 166.165 231.661 167.561 234.028 168.251C236.395 168.941 239.787 168.66 241.575 167.63C243.364 166.6 242.892 165.183 240.509 164.514Z" fill="#E6E6E6"/>
<path d="M205.881 174.397L214.506 176.887L207.643 180.846L199.411 178.129L205.881 174.397Z" fill="#E6E6E6"/>
<path d="M208.036 173.15L216.661 175.639L225.286 170.661L216.661 168.171L208.036 173.15Z" fill="#E6E6E6"/>
<path d="M218.816 166.93L227.451 169.43L230.323 167.768C230.323 167.768 228.959 164.722 232.977 163.448L227.908 161.686L218.816 166.93Z" fill="#E6E6E6"/>
<path d="M230.042 160.449L235.349 162.36C236.781 162.186 238.228 162.186 239.659 162.36L255.471 153.236L246.846 150.746L230.042 160.449Z" fill="#E6E6E6"/>
<path d="M249 149.499L257.626 151.988L265.858 147.238L257.62 144.52L249 149.499Z" fill="#E6E6E6"/>
<path d="M271.346 149.048L257.626 156.967L268.406 160.703L282.323 152.667L271.346 149.048Z" fill="#E6E6E6"/>
<path d="M255.471 158.214L244.133 164.759C244.133 164.759 245.524 166.919 243.746 168.628L251.177 170.661L266.272 161.951L255.752 158.363" fill="#E6E6E6"/>
<path d="M249 171.908L241.341 169.96C241.341 169.96 237.653 171.404 234.548 170.279L223.125 176.871L220.97 185.23L224.107 186.26L249 171.908Z" fill="#E6E6E6"/>
<path d="M220.971 178.129L219.166 184.647L213.131 182.656L220.971 178.129Z" fill="#E6E6E6"/>
<path d="M211.459 158.23C211.367 158.23 211.276 158.206 211.196 158.161C211.116 158.115 211.05 158.049 211.003 157.97C210.931 157.849 210.91 157.704 210.945 157.568C210.98 157.432 211.067 157.315 211.188 157.243L222.542 150.55L212.006 131.309L202.091 129.749C201.984 129.732 201.884 129.683 201.806 129.608C201.727 129.533 201.674 129.436 201.652 129.329C201.631 129.223 201.643 129.112 201.686 129.013C201.729 128.913 201.802 128.829 201.895 128.772C203.365 127.875 204.103 127.026 204.018 126.31C203.933 125.593 203.105 124.908 201.735 124.378C199.697 123.592 195.483 123.847 193.662 125.264C193.218 125.557 192.907 126.013 192.797 126.534C192.686 127.054 192.786 127.597 193.073 128.045C193.113 128.105 193.14 128.172 193.153 128.243C193.166 128.313 193.164 128.386 193.148 128.456C193.132 128.526 193.102 128.592 193.06 128.65C193.018 128.708 192.965 128.757 192.903 128.794L187.436 132.1C187.326 132.165 187.197 132.189 187.07 132.169L175.579 130.11C175.473 130.088 175.376 130.036 175.298 129.961L163.706 118.284C163.607 118.185 163.551 118.05 163.551 117.91C163.551 117.77 163.607 117.635 163.706 117.536C163.755 117.486 163.814 117.447 163.878 117.42C163.943 117.393 164.012 117.379 164.082 117.379C164.153 117.379 164.222 117.393 164.287 117.42C164.351 117.447 164.41 117.486 164.459 117.536L175.966 129.091L187.113 131.087L191.985 128.141C191.704 127.494 191.656 126.77 191.85 126.093C192.044 125.415 192.467 124.826 193.047 124.425C195.17 122.791 199.819 122.488 202.155 123.364C203.216 123.767 204.978 124.669 205.111 126.187C205.196 127.09 204.681 127.992 203.577 128.878L212.441 130.274C212.522 130.287 212.599 130.317 212.667 130.364C212.734 130.411 212.789 130.473 212.829 130.545L223.736 150.492C223.802 150.612 223.818 150.754 223.781 150.887C223.745 151.02 223.658 151.133 223.539 151.203L211.746 158.156C211.659 158.207 211.56 158.233 211.459 158.23Z" fill="#D42F55"/>
<path d="M167.591 101.724L165.776 100.663C164.905 100.084 163.706 100.132 162.373 100.875C159.72 102.398 157.596 106.273 157.596 109.521V110.264C157.596 113.513 161.965 117.047 161.965 117.047L163.753 118.061C163.753 118.061 162.692 116.835 162.803 116.586C163.971 114.181 167.161 107.393 167.161 104.739V104.001C167.167 103.463 167.097 102.927 166.954 102.409L167.161 102.526L167.591 101.724ZM162.373 109.181C161.052 109.94 159.98 109.325 159.98 107.801C160.691 107.69 162.48 104.617 162.373 103.656C163.695 102.897 164.762 103.513 164.762 105.036C164.716 105.866 164.476 106.673 164.061 107.393C163.646 108.113 163.068 108.726 162.373 109.181Z" fill="#D42F55"/>
<path d="M167.591 101.724L165.776 100.663C164.905 100.084 163.706 100.132 162.373 100.875C159.72 102.398 157.596 106.273 157.596 109.521V110.264C157.596 113.513 161.965 117.047 161.965 117.047L163.753 118.061C163.753 118.061 162.692 116.835 162.803 116.586C163.971 114.181 167.161 107.393 167.161 104.739V104.001C167.167 103.463 167.097 102.927 166.954 102.409L167.161 102.526L167.591 101.724ZM162.373 109.181C161.052 109.94 159.98 109.325 159.98 107.801C160.691 107.69 162.48 104.617 162.373 103.656C163.695 102.897 164.762 103.513 164.762 105.036C164.716 105.866 164.476 106.673 164.061 107.393C163.646 108.113 163.068 108.726 162.373 109.181Z" fill="#D42F55"/>
<g opacity="0.2">
<path d="M167.591 101.724L165.776 100.663C164.905 100.084 163.706 100.132 162.373 100.875C159.72 102.398 157.596 106.273 157.596 109.521V110.264C157.596 113.513 161.965 117.047 161.965 117.047L163.753 118.061C163.753 118.061 162.692 116.835 162.803 116.586C163.971 114.181 167.161 107.393 167.161 104.739V104.001C167.167 103.463 167.097 102.927 166.954 102.409L167.161 102.526L167.591 101.724ZM162.373 109.181C161.052 109.94 159.98 109.325 159.98 107.801C160.691 107.69 162.48 104.617 162.373 103.656C163.695 102.897 164.762 103.513 164.762 105.036C164.716 105.866 164.476 106.673 164.061 107.393C163.646 108.113 163.068 108.726 162.373 109.181Z" fill="black"/>
</g>
<path d="M169.066 105.126C169.066 101.878 166.943 100.477 164.289 102C161.636 103.523 159.512 107.398 159.512 110.652V111.389C159.512 113.895 162.347 116.798 163.652 118.003C163.727 118.071 163.816 118.121 163.912 118.149C164.009 118.176 164.111 118.181 164.21 118.162C164.309 118.144 164.402 118.103 164.482 118.042C164.562 117.981 164.627 117.902 164.672 117.812C165.797 115.508 169.077 108.56 169.077 105.869L169.066 105.126ZM164.289 110.286C162.968 111.05 161.901 110.429 161.901 108.905C161.947 108.076 162.187 107.268 162.602 106.548C163.016 105.828 163.595 105.216 164.289 104.76C165.611 104.001 166.683 104.617 166.683 106.145C166.636 106.975 166.395 107.781 165.979 108.5C165.563 109.219 164.985 109.831 164.289 110.286Z" fill="#D42F55"/>
<path d="M214.829 142.063L213.014 141.001C212.144 140.423 210.944 140.444 209.612 141.214C206.958 142.737 204.835 146.612 204.835 149.86V150.603C204.835 153.851 209.203 157.386 209.203 157.386L210.992 158.4C210.992 158.4 209.93 157.174 210.042 156.924C211.21 154.52 214.399 147.732 214.399 145.078V144.34C214.405 143.802 214.336 143.266 214.192 142.748L214.399 142.864L214.829 142.063ZM209.612 149.52C208.29 150.279 207.218 149.664 207.218 148.14C207.929 148.029 209.718 144.956 209.612 143.995C210.934 143.236 212 143.852 212 145.375C211.955 146.205 211.715 147.012 211.3 147.732C210.885 148.452 210.307 149.064 209.612 149.52Z" fill="#D42F55"/>
<path d="M214.829 142.063L213.014 141.001C212.144 140.423 210.944 140.444 209.612 141.214C206.958 142.737 204.835 146.612 204.835 149.86V150.603C204.835 153.851 209.203 157.386 209.203 157.386L210.992 158.4C210.992 158.4 209.93 157.174 210.042 156.924C211.21 154.52 214.399 147.732 214.399 145.078V144.34C214.405 143.802 214.336 143.266 214.192 142.748L214.399 142.864L214.829 142.063ZM209.612 149.52C208.29 150.279 207.218 149.664 207.218 148.14C207.929 148.029 209.718 144.956 209.612 143.995C210.934 143.236 212 143.852 212 145.375C211.955 146.205 211.715 147.012 211.3 147.732C210.885 148.452 210.307 149.064 209.612 149.52Z" fill="#D42F55"/>
<g opacity="0.2">
<path d="M214.829 142.063L213.014 141.001C212.144 140.423 210.944 140.444 209.612 141.214C206.958 142.737 204.835 146.612 204.835 149.86V150.603C204.835 153.851 209.203 157.386 209.203 157.386L210.992 158.4C210.992 158.4 209.93 157.174 210.042 156.924C211.21 154.52 214.399 147.732 214.399 145.078V144.34C214.405 143.802 214.336 143.266 214.192 142.748L214.399 142.864L214.829 142.063ZM209.612 149.52C208.29 150.279 207.218 149.664 207.218 148.14C207.929 148.029 209.718 144.956 209.612 143.995C210.934 143.236 212 143.852 212 145.375C211.955 146.205 211.715 147.012 211.3 147.732C210.885 148.452 210.307 149.064 209.612 149.52Z" fill="black"/>
</g>
<path d="M216.305 145.465C216.305 142.217 214.182 140.815 211.528 142.339C208.874 143.862 206.751 147.737 206.751 150.99V151.728C206.751 154.233 209.586 157.137 210.891 158.342C210.965 158.41 211.054 158.459 211.151 158.487C211.248 158.515 211.35 158.52 211.449 158.501C211.548 158.483 211.641 158.441 211.721 158.38C211.801 158.319 211.866 158.241 211.91 158.15C213.036 155.847 216.316 148.899 216.316 146.208L216.305 145.465ZM211.528 150.624C210.207 151.388 209.14 150.767 209.14 149.244C209.186 148.414 209.426 147.607 209.84 146.887C210.255 146.167 210.833 145.555 211.528 145.099C212.85 144.34 213.922 144.955 213.922 146.484C213.875 147.313 213.633 148.12 213.218 148.839C212.802 149.558 212.223 150.169 211.528 150.624Z" fill="#D42F55"/>
<path d="M251.495 79.9254L251.379 79.8564L247.738 77.7652C246.894 77.2083 245.903 76.918 244.893 76.9319C243.407 76.9839 241.961 77.425 240.699 78.211C235.233 81.3638 230.806 89.3572 230.806 96.098V97.6267C230.806 104.352 239.829 111.66 239.829 111.66L243.507 113.741C243.385 113.598 241.294 111.198 241.543 110.694C243.964 105.726 250.567 91.6873 250.567 86.1991V84.6705C250.578 83.5613 250.437 82.4558 250.147 81.385L250.572 81.6292L251.495 79.9254ZM244.654 97.6267C242.228 99.0279 240.216 98.184 239.792 95.769C237.494 96.6076 235.753 95.286 235.753 92.4888C237.223 92.2552 240.917 85.9444 240.699 83.9221C243.12 82.5209 245.131 83.3648 245.556 85.7798C247.86 84.9412 249.601 86.2628 249.601 89.06C249.601 92.2128 247.387 96.0503 244.654 97.6267Z" fill="#263238"/>
<path d="M251.495 79.9254L251.379 79.8564C249.611 78.8639 247.249 78.9966 244.654 80.4934C240.742 82.7545 237.356 87.5049 235.753 92.4888C235.119 94.3895 234.785 96.377 234.76 98.3804V99.8984C234.76 105.079 240.625 111.087 243.327 113.576C243.387 113.632 243.453 113.682 243.523 113.725C243.68 113.823 243.855 113.887 244.038 113.913C244.221 113.939 244.407 113.927 244.585 113.877C244.763 113.827 244.929 113.741 245.071 113.623C245.214 113.505 245.33 113.359 245.413 113.194C247.743 108.417 254.531 94.0546 254.531 88.4868V86.9529C254.547 83.5028 253.38 81.056 251.495 79.9254ZM239.792 95.769C239.733 95.4397 239.704 95.1057 239.707 94.7711C239.707 91.6183 241.92 87.7809 244.654 86.2045C244.942 86.038 245.244 85.8959 245.556 85.7798C247.86 84.9412 249.601 86.2629 249.601 89.06C249.601 92.2128 247.387 96.0503 244.654 97.6267C242.228 99.0279 240.217 98.184 239.792 95.769Z" fill="#455A64"/>
<path d="M246.273 84.5061C245.905 84.6532 245.55 84.8308 245.211 85.0369C241.904 86.9423 239.229 91.576 239.229 95.3869C239.225 95.7928 239.261 96.1981 239.335 96.5971C239.866 99.5163 242.281 100.535 245.211 98.8422C248.513 96.9368 251.193 92.2978 251.193 88.4869C251.166 85.0846 249.059 83.487 246.273 84.5061Z" fill="white"/>
<path d="M245.599 85.9974L246.596 88.1205C246.608 88.152 246.626 88.1807 246.649 88.2046C246.672 88.2286 246.701 88.2472 246.732 88.2593C246.763 88.2714 246.797 88.2766 246.83 88.2747C246.863 88.2727 246.896 88.2636 246.925 88.2479L249.171 87.3881C249.526 87.2554 249.664 87.7543 249.409 88.2373L247.785 91.2839C247.686 91.4615 247.643 91.6653 247.663 91.8678L248.045 94.6225C248.104 95.063 247.732 95.6362 247.414 95.5991L245.407 95.3496C245.326 95.3528 245.247 95.3757 245.177 95.4164C245.107 95.4571 245.047 95.5143 245.004 95.5832L242.998 98.1468C242.679 98.5555 242.308 98.4069 242.371 97.9026L242.754 94.718C242.771 94.6398 242.768 94.5584 242.746 94.4815C242.724 94.4045 242.683 94.3343 242.626 94.2775L241.034 93.1045C240.774 92.9187 240.917 92.2552 241.273 91.9792L243.513 90.2489C243.675 90.111 243.791 89.9253 243.842 89.7182L244.845 86.4327C244.967 85.9231 245.439 85.6577 245.599 85.9974Z" fill="url(#paint0_linear_14490_100100)"/>
<path d="M274.595 93.2318L274.478 93.1628L270.837 91.0716C269.993 90.5147 269.002 90.2244 267.992 90.2383C266.506 90.2903 265.06 90.7314 263.799 91.5174C258.332 94.6702 253.905 102.664 253.905 109.404V110.933C253.905 117.658 262.928 124.967 262.928 124.967L266.606 127.047C266.484 126.904 264.393 124.505 264.643 124.001C267.063 119.033 273.666 104.994 273.666 99.5055V97.9769C273.677 96.8677 273.536 95.7622 273.246 94.6914L273.671 94.9356L274.595 93.2318ZM267.753 110.933C265.327 112.334 263.316 111.49 262.891 109.075C260.593 109.914 258.852 108.592 258.852 105.795C260.322 105.562 264.016 99.2508 263.799 97.2285C266.219 95.8273 268.231 96.6712 268.655 99.0862C270.959 98.2476 272.7 99.5692 272.7 102.366C272.7 105.519 270.486 109.357 267.753 110.933Z" fill="#263238"/>
<path d="M274.595 93.2318L274.478 93.1628C272.71 92.1703 270.348 92.303 267.753 93.7998C263.841 96.0609 260.455 100.811 258.852 105.795C258.218 107.696 257.884 109.683 257.859 111.687V113.221C257.859 118.401 263.698 124.409 266.426 126.899C266.487 126.954 266.552 127.004 266.622 127.047C266.779 127.145 266.954 127.209 267.137 127.236C267.32 127.262 267.507 127.249 267.684 127.2C267.862 127.15 268.028 127.063 268.17 126.945C268.313 126.828 268.429 126.682 268.512 126.517C270.842 121.74 277.631 107.377 277.631 101.809V100.275C277.647 96.8092 276.479 94.3624 274.595 93.2318ZM262.891 109.075C262.832 108.746 262.803 108.412 262.806 108.078C262.806 104.925 265.019 101.087 267.753 99.5109C268.041 99.3444 268.343 99.2023 268.655 99.0863C270.959 98.2476 272.7 99.5693 272.7 102.366C272.7 105.519 270.486 109.357 267.753 110.933C265.327 112.334 263.316 111.49 262.891 109.075Z" fill="#455A64"/>
<path d="M269.382 97.807C269.005 97.9528 268.641 98.1304 268.294 98.3378C264.988 100.243 262.313 104.882 262.313 108.693C262.308 109.097 262.344 109.501 262.419 109.898C262.95 112.817 265.365 113.836 268.294 112.143C271.596 110.238 274.276 105.599 274.276 101.788C274.266 98.3909 272.158 96.7932 269.382 97.807Z" fill="white"/>
<path d="M273.257 101.698L268.539 100.44L263.815 107.154L265.062 106.432V110.376L267.806 108.794V106.591L269.266 105.747V107.95L272.01 106.368V102.419L273.257 101.698Z" fill="url(#paint1_linear_14490_100100)"/>
<path d="M297.694 106.443L297.577 106.374L293.936 104.283C293.093 103.726 292.101 103.435 291.091 103.449C289.605 103.501 288.159 103.942 286.898 104.728C281.431 107.881 277.004 115.875 277.004 122.615V124.144C277.004 130.869 286.027 138.178 286.027 138.178L289.706 140.258C289.583 140.115 287.492 137.716 287.742 137.212C290.162 132.244 296.765 118.205 296.765 112.716V111.188C296.776 110.079 296.635 108.973 296.345 107.902L296.77 108.147L297.694 106.443ZM290.852 124.144C288.426 125.545 286.415 124.675 285.99 122.286C283.692 123.125 281.951 121.803 281.951 119.006C283.421 118.773 287.115 112.462 286.898 110.439C289.318 109.038 291.33 109.882 291.754 112.297C294.058 111.459 295.799 112.78 295.799 115.577C295.799 118.73 293.585 122.568 290.852 124.144Z" fill="#263238"/>
<path d="M297.694 106.443L297.577 106.374C295.809 105.381 293.448 105.514 290.852 107.011C286.94 109.272 283.554 114.022 281.951 119.006C281.318 120.907 280.983 122.894 280.958 124.898V126.437C280.958 131.617 286.824 137.626 289.525 140.115C289.586 140.171 289.651 140.22 289.722 140.264C289.878 140.361 290.054 140.426 290.236 140.452C290.419 140.478 290.606 140.466 290.784 140.416C290.961 140.366 291.127 140.279 291.269 140.162C291.412 140.044 291.528 139.898 291.611 139.733C293.941 134.956 300.73 120.593 300.73 115.025V113.491C300.746 110.02 299.578 107.573 297.694 106.443ZM286.017 122.286C285.957 121.957 285.929 121.623 285.932 121.288C285.932 118.136 288.145 114.298 290.879 112.722C291.167 112.555 291.469 112.413 291.781 112.297C294.084 111.459 295.825 112.78 295.825 115.577C295.825 118.73 293.612 122.568 290.879 124.144C288.426 125.545 286.415 124.701 285.99 122.286H286.017Z" fill="#455A64"/>
<path d="M292.471 111.045C292.094 111.19 291.73 111.368 291.383 111.575C288.076 113.481 285.401 118.12 285.401 121.931C285.397 122.337 285.433 122.742 285.507 123.141C286.038 126.06 288.448 127.079 291.383 125.386C294.684 123.481 297.359 118.842 297.359 115.031C297.359 111.602 295.257 109.983 292.471 111.045Z" fill="white"/>
<path d="M291.335 114.028C292.466 113.375 293.384 113.906 293.384 115.211C293.345 115.922 293.139 116.613 292.783 117.229C292.427 117.845 291.931 118.368 291.335 118.757C290.205 119.41 289.286 118.879 289.286 117.573C289.325 116.863 289.531 116.172 289.887 115.556C290.243 114.94 290.739 114.416 291.335 114.028Z" fill="url(#paint2_linear_14490_100100)"/>
<path d="M287.429 125.906C288.49 126.368 289.86 126.219 291.372 125.375C292.986 124.374 294.338 123.002 295.316 121.373V121.028C295.316 118.905 293.809 118.014 291.951 119.086L290.788 119.755C289.808 120.394 288.993 121.257 288.409 122.271C287.825 123.286 287.489 124.424 287.429 125.593V125.906Z" fill="url(#paint3_linear_14490_100100)"/>
<path d="M110.448 75.0159C106.733 75.1963 104.158 76.0774 101.515 78.7313C99.5726 80.6845 95.3848 92.0271 97.2107 101.194C97.5206 102.819 98.206 104.349 99.2122 105.662C100.219 106.975 101.518 108.035 103.006 108.757C104.495 109.479 106.132 109.843 107.786 109.82C109.44 109.797 111.066 109.387 112.534 108.624C117.571 106.055 118.548 98.0991 118.404 93.4602C118.261 88.8212 110.448 75.0159 110.448 75.0159Z" fill="#263238"/>
<path d="M105.873 78.4234C105.873 78.4234 104.875 77.1177 102.561 77.8448C102.561 77.8448 100.119 80.7853 98.2351 86.3372C98.2351 86.3372 97.6353 86.3372 98.0175 84.7449C98.3996 83.1526 99.9283 79.4372 100.91 78.1155C101.892 76.7939 103.277 75.7111 109.933 73.2696C115.772 71.1465 113.903 76.4542 113.903 76.4542L105.873 78.4234Z" fill="#37474F"/>
<path d="M94.5302 153.931C93.75 153.527 93.2564 154.52 92.5504 155.311C92.0515 155.868 91.2819 156.749 91.1651 157.386C90.9953 158.326 91.8445 159.801 92.7574 160.613C93.6704 161.425 94.785 162.015 95.1247 163.798C95.4644 165.581 96.1862 166.648 98.0068 167.444C100.04 168.32 102.784 168.039 103.675 167.444C104.769 166.738 103.771 165.969 102.242 163.777C100.247 160.921 98.6915 158.878 98.6915 156.213L94.5302 153.931Z" fill="#263238"/>
<path d="M96.1226 151.59L94.4878 153.995C94.1412 154.489 94.0026 155.1 94.1019 155.696C94.2012 156.291 94.5303 156.824 95.0186 157.179L95.0716 157.211C95.5687 157.511 96.1553 157.626 96.7287 157.537C97.3022 157.447 97.826 157.159 98.2085 156.723L100.767 153.931L96.1226 151.59Z" fill="#FFCECD"/>
<path d="M126.658 105.429C126.764 108.492 126.244 120.206 124.004 126.066C122.766 129.393 121.209 132.592 119.354 135.619C118.686 136.755 99.5035 155.433 99.5035 155.433C99.5035 155.433 96.2499 155.194 95.7297 152.036C95.7297 152.036 103.59 138.677 105.284 135.933C106.977 133.189 113.012 128.99 113.012 128.99L112.481 103.301L126.658 105.429Z" fill="#37474F"/>
<path d="M122.004 169.954L126.062 169.031L124.719 163.126L120.662 164.049L122.004 169.954Z" fill="#FFCECD"/>
<path d="M118.839 115.328C120.23 114.053 121.476 112.629 122.555 111.082C125.655 106.798 125.177 102.998 125.177 102.998H123.908L105.236 105.456C104.713 108.5 104.789 111.617 105.459 114.633C107.099 122.907 113.755 137.047 113.755 137.047C113.659 138.188 113.176 142.992 114.285 147.248C116.005 153.968 120.692 165.337 120.692 165.337C120.692 165.337 123.632 165.756 125.087 164.058C125.087 164.058 122.491 140.975 121.796 135.062C121.01 128.634 118.839 115.328 118.839 115.328Z" fill="#37474F"/>
<path d="M125.612 167.025L125.48 166.447C125.904 166.526 127.725 169.546 129.529 170.863C131.509 172.301 133.245 173.15 134.11 173.798C135.294 174.668 133.579 176.452 130.671 176.6C129.306 176.698 127.938 176.468 126.679 175.931C125.411 175.326 124.641 174.196 123.675 173.224C122.969 172.513 121.902 171.993 121.366 171.133C121.122 170.74 121.085 169.78 121.111 168.952C121.138 168.124 121.164 167.359 121.424 167.359L121.525 167.805C122.289 168.186 123.136 168.368 123.988 168.336C124.673 168.32 125.947 168.161 125.612 167.025Z" fill="#263238"/>
<path d="M121.255 131.118C121.255 131.118 119.301 117.228 118.84 115.328C118.84 115.328 122.284 114.017 123.346 112.812C123.346 112.812 122.587 114.495 120.124 115.997L121.255 131.118Z" fill="#263238"/>
<path d="M113.749 137.021C112.916 135.874 110.841 130.71 110.841 130.71L112.964 137.392C112.433 139.393 112.476 142.7 112.476 142.7L113.537 141.75C113.542 140.954 113.749 137.021 113.749 137.021Z" fill="#263238"/>
<path d="M124.566 99.6331C121.87 90.5357 122.443 82.8395 121.913 80.4775L128.871 90.2756C129.174 93.5078 129.657 96.7205 130.32 99.8985C131.116 103.375 132.204 107.711 133.505 110.408C133.739 110.89 134.144 111.268 134.64 111.469C135.957 112 136.567 112.695 137.623 113.481C138.451 114.102 139.083 114.182 139.03 114.431C138.937 114.712 138.742 114.947 138.483 115.091C138.225 115.234 137.922 115.276 137.634 115.206C136.998 115.07 136.38 114.86 135.792 114.58C136.39 115.578 137.145 116.474 138.027 117.233C140.044 118.996 140.33 120.243 136.965 120.843C134.842 121.225 132.947 120.206 130.564 115.816C129.655 114.216 128.862 112.552 128.192 110.838C126.605 106.353 125.384 102.388 124.566 99.6331Z" fill="#FFCECD"/>
<path d="M119.567 76.417C122.842 76.4488 126.069 77.1866 127.178 80.6632C128.239 84.0707 129.662 93.9324 129.662 93.9324C129.662 93.9324 128.282 95.7583 123.685 95.4611L119.567 76.417Z" fill="url(#paint4_linear_14490_100100)"/>
<path d="M119.567 76.417C122.842 76.4488 126.069 77.1866 127.178 80.6632C128.239 84.0707 129.662 93.9324 129.662 93.9324C129.662 93.9324 128.282 95.7583 123.685 95.4611L119.567 76.417Z" fill="url(#paint5_linear_14490_100100)"/>
<g opacity="0.1">
<path d="M119.567 76.417C122.842 76.4488 126.069 77.1866 127.178 80.6632C128.239 84.0707 129.662 93.9324 129.662 93.9324C129.662 93.9324 128.282 95.7583 123.685 95.4611L119.567 76.417Z" fill="black"/>
</g>
<path d="M112.836 76.6135C110.533 77.1442 107.874 77.6219 105.644 78.7365C104.095 79.4955 106.319 92.3402 106.319 92.3402L105.257 105.45C108.314 108.778 120.012 110.328 126.684 105.45V84.2194C126.684 80.8225 124.8 76.7461 119.593 76.4436L112.836 76.6135Z" fill="url(#paint6_linear_14490_100100)"/>
<path d="M106.308 92.0641L108.325 86.4963L105.968 96.5067L106.308 92.0641Z" fill="url(#paint7_linear_14490_100100)"/>
<path opacity="0.2" d="M106.308 92.0641L108.325 86.4963L105.968 96.5067L106.308 92.0641Z" fill="black"/>
<path d="M109.206 64.8039L110.65 70.5044C110.799 71.0957 111.141 71.6205 111.622 71.9962C112.102 72.3719 112.694 72.5772 113.304 72.5797H114.991V64.6182L109.206 64.8039Z" fill="#263238"/>
<path d="M121.553 68.7757C124.901 68.3622 127.281 65.3124 126.867 61.9638C126.454 58.6152 123.404 56.2359 120.055 56.6494C116.707 57.063 114.327 60.1127 114.741 63.4613C115.154 66.8099 118.204 69.1892 121.553 68.7757Z" fill="#263238"/>
<path d="M111.372 59.2414C111.021 59.2001 110.665 59.2399 110.332 59.3577C109.999 59.4754 109.697 59.6681 109.45 59.9208C108.622 60.7594 108.797 62.3252 109.45 65.9132L112.003 66.2052L111.372 59.2414Z" fill="#263238"/>
<path d="M112.566 66.2104C112.189 66.4333 111.648 65.7062 111.181 65.2179C110.713 64.7296 109.19 64.0608 108.431 65.6637C107.672 67.2666 108.866 69.4534 110.023 69.9099C110.436 70.115 110.912 70.1516 111.351 70.0119C111.79 69.8722 112.157 69.5672 112.375 69.1615L112.831 76.5923C113.288 77.5927 113.986 78.4643 114.862 79.1293C115.739 79.7943 116.766 80.232 117.852 80.4032C121.52 80.8969 120.766 77.8768 119.561 76.3959V74.1242C120.481 74.2864 121.417 74.3346 122.348 74.2675C123.686 74.0181 124.344 72.7761 125.002 71.189C125.941 68.8165 126.52 65.462 125.708 61.2052C124.646 55.5684 118.388 55.4464 114.811 57.7021C111.234 59.9579 112.566 66.2104 112.566 66.2104Z" fill="#FFCECD"/>
<path d="M112.566 66.8473C112.375 66.8473 111.653 65.6477 111.181 65.2178C110.528 64.6234 111.372 59.2413 111.372 59.2413C111.701 54.8306 118.208 54.4962 120.007 54.3689C124.126 54.0716 126.907 56.3539 125.809 59.2254C125.066 60.5311 123.542 60.892 122.093 61.0619C119.668 61.3591 115.544 60.0587 115.023 60.0003C114.323 59.8995 114.174 60.5842 113.792 62.4419C113.484 64.066 113.208 66.8314 112.566 66.8473Z" fill="#263238"/>
<path d="M111.377 59.6607L109.089 58.4347C109.163 58.2803 109.266 58.1424 109.394 58.0293C109.523 57.9162 109.672 57.8302 109.834 57.7766C109.997 57.723 110.168 57.7029 110.338 57.7175C110.509 57.7321 110.674 57.781 110.825 57.8614C111.13 58.033 111.358 58.3156 111.461 58.6506C111.564 58.9856 111.534 59.3473 111.377 59.6607Z" fill="#263238"/>
<path d="M119.561 74.1454C119.561 74.1454 116.164 73.4607 114.981 72.8291C114.286 72.4736 113.714 71.9192 113.335 71.2368C113.516 71.9299 113.833 72.5797 114.27 73.1476C115.14 74.2569 119.577 75.0743 119.577 75.0743L119.561 74.1454Z" fill="#F5A7A7"/>
<path d="M119.668 66.0829C119.662 66.216 119.618 66.3446 119.54 66.4528C119.463 66.561 119.355 66.6439 119.23 66.6913C119.106 66.7387 118.97 66.7484 118.84 66.7193C118.71 66.6901 118.592 66.6234 118.499 66.5274C118.407 66.4315 118.345 66.3104 118.321 66.1794C118.296 66.0484 118.311 65.9132 118.363 65.7906C118.416 65.668 118.503 65.5634 118.614 65.4899C118.725 65.4163 118.855 65.3771 118.988 65.377C119.079 65.3783 119.169 65.3977 119.253 65.434C119.336 65.4703 119.412 65.5228 119.475 65.5884C119.538 65.654 119.588 65.7315 119.621 65.8164C119.654 65.9012 119.67 65.9918 119.668 66.0829Z" fill="#263238"/>
<path d="M118.946 63.514L117.491 64.3367C117.387 64.1365 117.365 63.9039 117.428 63.6873C117.491 63.4708 117.636 63.287 117.831 63.1743C117.926 63.1226 118.031 63.0903 118.139 63.0794C118.247 63.0684 118.356 63.0791 118.46 63.1107C118.563 63.1423 118.66 63.1943 118.743 63.2635C118.827 63.3327 118.896 63.4179 118.946 63.514Z" fill="#263238"/>
<path d="M119.254 70.6316L120.803 71.2154C120.772 71.3222 120.719 71.4212 120.647 71.5066C120.576 71.5919 120.488 71.6616 120.388 71.7113C120.288 71.7611 120.18 71.7899 120.069 71.7959C119.957 71.8019 119.846 71.785 119.742 71.7462C119.531 71.661 119.362 71.4967 119.271 71.2884C119.179 71.0801 119.173 70.8443 119.254 70.6316Z" fill="#F5A7A7"/>
<path d="M125.379 64.0819L124.052 63.0575C124.115 62.9683 124.195 62.8928 124.288 62.8354C124.381 62.7781 124.485 62.7401 124.593 62.7237C124.701 62.7074 124.811 62.713 124.917 62.7403C125.023 62.7675 125.122 62.8158 125.209 62.8823C125.385 63.0226 125.501 63.2252 125.533 63.4483C125.564 63.6714 125.509 63.8981 125.379 64.0819Z" fill="#263238"/>
<path d="M124.975 65.6903C124.97 65.8234 124.926 65.9521 124.848 66.0602C124.77 66.1684 124.662 66.2514 124.538 66.2987C124.413 66.3461 124.278 66.3558 124.148 66.3267C124.018 66.2976 123.899 66.2309 123.807 66.1349C123.714 66.0389 123.652 65.9179 123.628 65.7868C123.604 65.6558 123.619 65.5206 123.671 65.398C123.723 65.2754 123.81 65.1708 123.921 65.0973C124.032 65.0237 124.163 64.9845 124.296 64.9844C124.387 64.9858 124.477 65.0051 124.56 65.0414C124.644 65.0777 124.719 65.1302 124.783 65.1958C124.846 65.2615 124.895 65.3389 124.928 65.4238C124.961 65.5087 124.977 65.5992 124.975 65.6903Z" fill="#263238"/>
<path d="M122.12 65.8069L121.483 69.8567L123.723 69.5913L122.12 65.8069Z" fill="#F5A7A7"/>
<path d="M110.597 76.4756C110.597 76.4756 115.745 78.7632 116.297 86.6717C117.46 103.211 105.008 107.016 105.008 107.016C103.946 104.93 104.801 102.112 105.671 100.116C107.692 98.7978 109.329 96.9693 110.417 94.8155C111.504 92.6617 112.004 90.2589 111.865 87.85C111.579 81.8205 108.585 78.4448 107.088 77.9883C108.151 77.2651 109.341 76.7517 110.597 76.4756Z" fill="#37474F"/>
<path d="M100.921 107.488C103.15 106.708 103.707 106.427 106.515 104.16C109.323 101.894 111.701 98.8846 113.946 95.9017C114.217 95.5531 114.517 95.2281 114.843 94.9304C115.419 94.4234 115.929 93.8456 116.361 93.2107C117.343 91.7192 117.359 90.7479 117.454 88.9645C117.529 87.1653 117.279 85.3674 116.716 83.6568C116.67 83.4648 116.585 83.2842 116.467 83.126C116.405 83.0484 116.322 82.9899 116.228 82.9571C116.134 82.9242 116.033 82.9184 115.936 82.9402C115.779 83.0086 115.65 83.1284 115.57 83.2799C114.944 84.2353 114.508 85.3022 113.887 86.2735C113.606 86.714 113.41 86.8892 113.155 87.335C113.123 87.3881 112.624 87.8977 112.529 87.6747C112.433 87.4518 112.741 86.7565 112.629 85.6313C112.518 84.506 112.21 84.1026 111.865 84.0124C111.334 83.8744 111.334 84.4689 111.095 85.3659C110.825 86.4274 110.411 87.3085 110.459 88.8849C110.481 89.965 110.323 91.0414 109.991 92.0695C109.689 93.285 108.304 96.0238 104.875 98.1362C104.126 98.598 103.888 98.667 104.344 96.8783C105.095 93.5034 106.172 90.2095 107.561 87.0431C108.93 83.9275 109.875 81.5443 108.622 80.2758C106.43 78.0996 103.357 79.3416 101.642 83.0464C99.6627 87.3244 98.5799 90.5727 97.7837 98.4388C97.4122 101.857 97.0831 108.831 100.921 107.488Z" fill="#FFCECD"/>
<path d="M107.322 78.073C104.732 78.1898 103.007 79.2354 101.292 82.6164C99.5778 85.9974 98.2615 91.9367 98.2615 91.9367C98.2615 91.9367 100.698 94.5322 105.427 94.3995C105.427 94.3995 108.399 86.6078 108.967 84.5113C109.588 82.2236 109.047 78.8585 107.322 78.073Z" fill="url(#paint8_linear_14490_100100)"/>
</g>
<defs>
<linearGradient id="paint0_linear_14490_100100" x1="242.166" y1="96.5466" x2="249.408" y2="91.623" gradientUnits="userSpaceOnUse">
<stop stop-color="#7D2EBD"/>
<stop offset="1" stop-color="#C054EE"/>
</linearGradient>
<linearGradient id="paint1_linear_14490_100100" x1="265.198" y1="108.921" x2="271.357" y2="103.146" gradientUnits="userSpaceOnUse">
<stop stop-color="#7D2EBD"/>
<stop offset="1" stop-color="#C054EE"/>
</linearGradient>
<linearGradient id="paint2_linear_14490_100100" x1="289.886" y1="118.262" x2="293.056" y2="115.838" gradientUnits="userSpaceOnUse">
<stop stop-color="#7D2EBD"/>
<stop offset="1" stop-color="#C054EE"/>
</linearGradient>
<linearGradient id="paint3_linear_14490_100100" x1="288.584" y1="125.061" x2="293.261" y2="120.229" gradientUnits="userSpaceOnUse">
<stop stop-color="#7D2EBD"/>
<stop offset="1" stop-color="#C054EE"/>
</linearGradient>
<linearGradient id="paint4_linear_14490_100100" x1="121.045" y1="92.7001" x2="130.769" y2="87.6234" gradientUnits="userSpaceOnUse">
<stop stop-color="#7D2EBD"/>
<stop offset="1" stop-color="#C054EE"/>
</linearGradient>
<linearGradient id="paint5_linear_14490_100100" x1="121.045" y1="92.7001" x2="130.769" y2="87.6234" gradientUnits="userSpaceOnUse">
<stop stop-color="#7D2EBD"/>
<stop offset="1" stop-color="#C054EE"/>
</linearGradient>
<linearGradient id="paint6_linear_14490_100100" x1="108.257" y1="103.852" x2="126.634" y2="91.6624" gradientUnits="userSpaceOnUse">
<stop stop-color="#7D2EBD"/>
<stop offset="1" stop-color="#C054EE"/>
</linearGradient>
<linearGradient id="paint7_linear_14490_100100" x1="106.313" y1="95.0407" x2="109.054" y2="94.4041" gradientUnits="userSpaceOnUse">
<stop stop-color="#7D2EBD"/>
<stop offset="1" stop-color="#C054EE"/>
</linearGradient>
<linearGradient id="paint8_linear_14490_100100" x1="99.8657" y1="92.0128" x2="109.203" y2="85.8336" gradientUnits="userSpaceOnUse">
<stop stop-color="#7D2EBD"/>
<stop offset="1" stop-color="#C054EE"/>
</linearGradient>
<clipPath id="clip0_14490_100100">
<rect width="390" height="200" rx="8" fill="white"/>
</clipPath>
</defs>
</svg>
