<svg width="174" height="161" viewBox="0 0 174 161" fill="none" xmlns="http://www.w3.org/2000/svg">
<path d="M170.383 157.573C170.383 159.465 132.781 161 86.4044 161C40.0279 161 2.42578 159.465 2.42578 157.573C2.42578 155.681 40.0231 154.142 86.4044 154.142C132.786 154.142 170.383 155.676 170.383 157.573Z" fill="#F0F0F0"/>
<path d="M158.915 122.992C157.747 124.346 156.958 125.984 156.628 127.742L152.043 130.314V118.156L152.13 118.282L159.441 112.929C160.363 113.074 163.911 113.48 167.164 111.737C170.89 109.715 173.631 102.77 173.631 102.77C173.631 102.77 164.688 101.761 161.657 105.511C159.994 107.458 159.109 109.95 159.171 112.51L152.043 117.732V108.755C153.377 108.133 154.556 107.222 155.495 106.089C156.435 104.955 157.11 103.627 157.472 102.2C158.771 97.1472 151.845 87.1904 151.845 87.1904C151.845 87.1904 144.629 97.4368 146.053 102.635C147.274 107.036 150.561 108.426 151.541 108.755V128.229L146.41 123.948C146.526 122.925 146.618 119.715 143.761 116.496C140.295 112.601 131.062 112.891 131.062 112.891C131.062 112.891 134.957 120.681 138.302 123.282C141.198 125.55 145.204 124.624 146.164 124.353L151.579 128.866V134.783H143.514L146.796 155.295H156.642L159.924 134.783H152.043V130.869L157.081 128.046C158.307 128.383 161.734 129.088 164.977 127.466C169.017 125.454 172.333 121.11 172.333 121.11C172.333 121.11 162.665 118.663 158.915 122.992Z" fill="#7E2EBC"/>
<path opacity="0.5" d="M158.915 122.992C157.747 124.346 156.958 125.984 156.628 127.742L152.043 130.314V118.156L152.13 118.282L159.441 112.929C160.363 113.074 163.911 113.48 167.164 111.737C170.89 109.715 173.631 102.77 173.631 102.77C173.631 102.77 164.688 101.761 161.657 105.511C159.994 107.458 159.109 109.95 159.171 112.51L152.043 117.732V108.755C153.377 108.133 154.556 107.222 155.495 106.089C156.435 104.955 157.11 103.627 157.472 102.2C158.771 97.1472 151.845 87.1904 151.845 87.1904C151.845 87.1904 144.629 97.4368 146.053 102.635C147.274 107.036 150.561 108.426 151.541 108.755V128.229L146.41 123.948C146.526 122.925 146.618 119.715 143.761 116.496C140.295 112.601 131.062 112.891 131.062 112.891C131.062 112.891 134.957 120.681 138.302 123.282C141.198 125.55 145.204 124.624 146.164 124.353L151.579 128.866V134.783H143.514L146.796 155.295H156.642L159.924 134.783H152.043V130.869L157.081 128.046C158.307 128.383 161.734 129.088 164.977 127.466C169.017 125.454 172.333 121.11 172.333 121.11C172.333 121.11 162.665 118.663 158.915 122.992Z" fill="white"/>
<path d="M138.921 6.73145H28.4791C25.3711 6.73145 22.8516 9.25098 22.8516 12.359V81.96C22.8516 85.068 25.3711 87.5875 28.4791 87.5875H138.921C142.029 87.5875 144.548 85.068 144.548 81.96V12.359C144.548 9.25098 142.029 6.73145 138.921 6.73145Z" fill="#7E2EBC" stroke="#263238" stroke-width="0.66824" stroke-miterlimit="10" stroke-linecap="round"/>
<path opacity="0.7" d="M138.921 6.73145H28.4791C25.3711 6.73145 22.8516 9.25098 22.8516 12.359V81.96C22.8516 85.068 25.3711 87.5875 28.4791 87.5875H138.921C142.029 87.5875 144.548 85.068 144.548 81.96V12.359C144.548 9.25098 142.029 6.73145 138.921 6.73145Z" fill="#7E2EBC" stroke="#263238" stroke-width="0.66824" stroke-miterlimit="10" stroke-linecap="round"/>
<path d="M74.1801 51.9355H59.9424V59.9232H74.1801V51.9355Z" fill="white"/>
<path d="M74.1801 61.3652H59.9424V69.3529H74.1801V61.3652Z" fill="white"/>
<path d="M89.8647 51.9355H75.627V59.9232H89.8647V51.9355Z" fill="white"/>
<path d="M105.556 42.5H91.3184V50.4876H105.556V42.5Z" fill="white"/>
<path d="M105.556 33.0645H91.3184V41.0521H105.556V33.0645Z" fill="white"/>
<path d="M105.556 15.627H91.3184V22.1812H105.556V15.627Z" fill="#263238"/>
<path d="M89.8657 15.627H75.6279V22.1812H89.8657V15.627Z" fill="#263238"/>
<path d="M89.8647 61.3662H75.627V69.3538H89.8647V61.3662Z" fill="white"/>
<path d="M89.8647 23.6289H75.627V31.6165H89.8647V23.6289Z" fill="white"/>
<path d="M89.8647 33.0645H75.627V41.0521H89.8647V33.0645Z" fill="white"/>
<path d="M83.4232 35.4648V34.334H82.2339V35.4648L81.2471 36.0302L81.8417 37.0542L82.8286 36.4888L83.8155 37.0542L84.4101 36.0302L83.4232 35.4648Z" fill="#7E2EBC"/>
<path d="M85.0053 38.1845V37.0537H83.816V38.1845L82.8291 38.7499L83.4238 39.7739L84.4106 39.2085L85.3975 39.7739L85.9921 38.7499L85.0053 38.1845Z" fill="#7E2EBC"/>
<path d="M81.8422 37.0537H80.6529V38.1845L79.666 38.7499L80.2607 39.7739L81.2475 39.2085L82.2344 39.7739L82.8291 38.7499L81.8422 38.1845V37.0537Z" fill="#7E2EBC"/>
<path d="M89.8647 42.5H75.627V50.4876H89.8647V42.5Z" fill="white"/>
<path d="M105.556 61.3662H91.3184V69.3538H105.556V61.3662Z" fill="white"/>
<path d="M42.8039 23.6289H27.625V31.6165H42.8039V23.6289Z" fill="white"/>
<path d="M42.8039 42.5H27.625V50.4876H42.8039V42.5Z" fill="white"/>
<path d="M42.8039 51.9355H27.625V59.9232H42.8039V51.9355Z" fill="white"/>
<path d="M42.8039 33.0645H27.625V41.0521H42.8039V33.0645Z" fill="white"/>
<path d="M137.873 15.626H122.694V22.1802H137.873V15.626Z" fill="#263238"/>
<path d="M42.8039 61.3652H27.625V69.3529H42.8039V61.3652Z" fill="white"/>
<path d="M121.242 23.6289H107.004V31.6165H121.242V23.6289Z" fill="white"/>
<path d="M105.556 51.9355H91.3184V59.9232H105.556V51.9355Z" fill="white"/>
<path d="M121.242 51.9355H107.004V59.9232H121.242V51.9355Z" fill="white"/>
<path d="M121.242 33.0645H107.004V41.0521H121.242V33.0645Z" fill="white"/>
<path d="M121.242 42.5H107.004V50.4876H121.242V42.5Z" fill="white"/>
<path d="M121.242 61.3652H107.004V69.3529H121.242V61.3652Z" fill="white"/>
<path d="M105.556 23.6289H91.3184V31.6165H105.556V23.6289Z" fill="white"/>
<path d="M137.873 61.3652H122.694V69.3529H137.873V61.3652Z" fill="white"/>
<path d="M121.242 15.626H107.004V22.1802H121.242V15.626Z" fill="#263238"/>
<path d="M137.873 51.9355H122.694V59.9232H137.873V51.9355Z" fill="white"/>
<path d="M121.242 70.8008H107.004V79.2421H121.242V70.8008Z" fill="white"/>
<path d="M137.873 42.5H122.694V50.4876H137.873V42.5Z" fill="white"/>
<path d="M89.8647 70.8008H75.627V79.2421H89.8647V70.8008Z" fill="white"/>
<path d="M105.556 70.8008H91.3184V79.2421H105.556V70.8008Z" fill="white"/>
<path d="M137.873 33.0645H122.694V41.0521H137.873V33.0645Z" fill="white"/>
<path d="M137.873 70.8008H122.694V79.2421H137.873V70.8008Z" fill="white"/>
<path d="M42.8039 70.8008H27.625V79.2421H42.8039V70.8008Z" fill="white"/>
<path d="M137.873 23.6289H122.694V31.6165H137.873V23.6289Z" fill="white"/>
<path d="M42.8039 15.626H27.625V22.1802H42.8039V15.626Z" fill="#263238"/>
<path d="M58.4887 15.626H44.251V22.1802H58.4887V15.626Z" fill="#263238"/>
<path d="M58.4887 51.9355H44.251V59.9232H58.4887V51.9355Z" fill="white"/>
<path d="M74.1801 15.626H59.9424V22.1802H74.1801V15.626Z" fill="#263238"/>
<path d="M74.1801 33.0645H59.9424V41.0521H74.1801V33.0645Z" fill="white"/>
<path d="M58.4887 61.3652H44.251V69.3529H58.4887V61.3652Z" fill="white"/>
<path d="M74.1801 23.6289H59.9424V31.6165H74.1801V23.6289Z" fill="white"/>
<path d="M58.4887 23.6289H44.251V31.6165H58.4887V23.6289Z" fill="white"/>
<path d="M74.1801 42.5H59.9424V50.4876H74.1801V42.5Z" fill="white"/>
<path d="M58.4887 42.5H44.251V50.4876H58.4887V42.5Z" fill="white"/>
<path d="M58.4887 70.8008H44.251V79.2421H58.4887V70.8008Z" fill="white"/>
<path d="M58.4887 33.0645H44.251V41.0521H58.4887V33.0645Z" fill="white"/>
<path d="M74.1801 70.8008H59.9424V79.2421H74.1801V70.8008Z" fill="white"/>
<path d="M34.3227 11.2196C35.4555 11.2196 36.3739 10.3012 36.3739 9.16839C36.3739 8.03554 35.4555 7.11719 34.3227 7.11719C33.1898 7.11719 32.2715 8.03554 32.2715 9.16839C32.2715 10.3012 33.1898 11.2196 34.3227 11.2196Z" fill="white" stroke="#263238" stroke-width="0.66824" stroke-miterlimit="10" stroke-linecap="round"/>
<path d="M43.3201 9.16827C43.321 8.76122 43.2011 8.36304 42.9756 8.02419C42.75 7.68534 42.429 7.42106 42.0531 7.26485C41.6772 7.10864 41.2634 7.06752 40.8641 7.14669C40.4648 7.22587 40.098 7.42179 39.8102 7.70962C39.5224 7.99745 39.3265 8.36424 39.2473 8.76352C39.1681 9.1628 39.2092 9.5766 39.3654 9.95249C39.5216 10.3284 39.7859 10.6494 40.1248 10.875C40.4636 11.1005 40.8618 11.2204 41.2689 11.2195C41.8129 11.2195 42.3346 11.0034 42.7193 10.6187C43.1039 10.234 43.3201 9.71229 43.3201 9.16827Z" fill="white" stroke="#263238" stroke-width="0.66824" stroke-miterlimit="10" stroke-linecap="round"/>
<path d="M34.3614 10.5059C34.076 10.5059 33.8022 10.3925 33.6004 10.1906C33.3986 9.98878 33.2852 9.71502 33.2852 9.42957V2.15142C33.2845 2.00967 33.3119 1.8692 33.3657 1.73806C33.4195 1.60692 33.4987 1.48771 33.5987 1.38725C33.6987 1.2868 33.8176 1.20709 33.9485 1.1527C34.0793 1.09831 34.2197 1.07031 34.3614 1.07031C34.6482 1.07031 34.9232 1.18421 35.1259 1.38696C35.3286 1.58971 35.4425 1.86469 35.4425 2.15142V9.42957C35.4425 9.57132 35.4146 9.71167 35.3602 9.84257C35.3058 9.97346 35.2261 10.0923 35.1256 10.1923C35.0252 10.2923 34.9059 10.3715 34.7748 10.4253C34.6437 10.4791 34.5032 10.5065 34.3614 10.5059Z" fill="white" stroke="#263238" stroke-width="0.66824" stroke-miterlimit="10" stroke-linecap="round"/>
<path d="M41.3693 10.5059C41.0838 10.5059 40.8101 10.3925 40.6082 10.1906C40.4064 9.98878 40.293 9.71502 40.293 9.42957V2.15142C40.2923 2.00967 40.3197 1.8692 40.3735 1.73806C40.4273 1.60692 40.5065 1.48771 40.6065 1.38725C40.7065 1.2868 40.8254 1.20709 40.9563 1.1527C41.0872 1.09831 41.2275 1.07031 41.3693 1.07031C41.656 1.07031 41.931 1.18421 42.1337 1.38696C42.3365 1.58971 42.4504 1.86469 42.4504 2.15142V9.42957C42.4504 9.57132 42.4224 9.71167 42.368 9.84257C42.3136 9.97346 42.2339 10.0923 42.1334 10.1923C42.033 10.2923 41.9138 10.3715 41.7826 10.4253C41.6515 10.4791 41.511 10.5065 41.3693 10.5059Z" fill="white" stroke="#263238" stroke-width="0.66824" stroke-miterlimit="10" stroke-linecap="round"/>
<path d="M128.998 9.16827C128.999 8.76122 128.879 8.36304 128.653 8.02419C128.428 7.68534 128.107 7.42106 127.731 7.26485C127.355 7.10864 126.941 7.06752 126.542 7.14669C126.143 7.22587 125.776 7.42179 125.488 7.70962C125.2 7.99745 125.004 8.36424 124.925 8.76352C124.846 9.1628 124.887 9.5766 125.043 9.95249C125.199 10.3284 125.464 10.6494 125.803 10.875C126.141 11.1005 126.54 11.2204 126.947 11.2195C127.491 11.2195 128.012 11.0034 128.397 10.6187C128.782 10.234 128.998 9.71229 128.998 9.16827Z" fill="white" stroke="#263238" stroke-width="0.66824" stroke-miterlimit="10" stroke-linecap="round"/>
<path d="M133.887 11.2196C135.02 11.2196 135.938 10.3012 135.938 9.16839C135.938 8.03554 135.02 7.11719 133.887 7.11719C132.754 7.11719 131.836 8.03554 131.836 9.16839C131.836 10.3012 132.754 11.2196 133.887 11.2196Z" fill="white" stroke="#263238" stroke-width="0.66824" stroke-miterlimit="10" stroke-linecap="round"/>
<path d="M126.981 10.5059C126.695 10.5059 126.421 10.3925 126.22 10.1906C126.018 9.98878 125.904 9.71502 125.904 9.42957V2.15142C125.904 2.00967 125.931 1.8692 125.985 1.73806C126.039 1.60692 126.118 1.48771 126.218 1.38725C126.318 1.2868 126.437 1.20709 126.568 1.1527C126.698 1.09831 126.839 1.07031 126.981 1.07031C127.267 1.07031 127.542 1.18421 127.745 1.38696C127.948 1.58971 128.062 1.86469 128.062 2.15142V9.42957C128.062 9.57132 128.034 9.71167 127.979 9.84257C127.925 9.97346 127.845 10.0923 127.745 10.1923C127.644 10.2923 127.525 10.3715 127.394 10.4253C127.263 10.4791 127.122 10.5065 126.981 10.5059Z" fill="white" stroke="#263238" stroke-width="0.66824" stroke-miterlimit="10" stroke-linecap="round"/>
<path d="M133.993 10.5059C133.85 10.5084 133.708 10.4825 133.575 10.4295C133.442 10.3766 133.321 10.2977 133.219 10.1975C133.117 10.0973 133.036 9.97781 132.981 9.84596C132.926 9.7141 132.897 9.57255 132.897 9.42957V2.15142C132.897 1.86469 133.011 1.58971 133.214 1.38696C133.417 1.18422 133.692 1.07031 133.979 1.07031C134.12 1.07031 134.261 1.09831 134.392 1.1527C134.522 1.20709 134.641 1.2868 134.741 1.38725C134.841 1.48771 134.921 1.60692 134.974 1.73806C135.028 1.8692 135.055 2.00967 135.055 2.15142V9.42957C135.055 9.71253 134.943 9.98412 134.745 10.1855C134.546 10.387 134.276 10.502 133.993 10.5059Z" fill="white" stroke="#263238" stroke-width="0.66824" stroke-miterlimit="10" stroke-linecap="round"/>
<path d="M80.6371 11.2196C81.77 11.2196 82.6883 10.3012 82.6883 9.16839C82.6883 8.03554 81.77 7.11719 80.6371 7.11719C79.5043 7.11719 78.5859 8.03554 78.5859 9.16839C78.5859 10.3012 79.5043 11.2196 80.6371 11.2196Z" fill="white" stroke="#263238" stroke-width="0.66824" stroke-miterlimit="10" stroke-linecap="round"/>
<path d="M87.5776 11.2196C88.7104 11.2196 89.6288 10.3012 89.6288 9.16839C89.6288 8.03554 88.7104 7.11719 87.5776 7.11719C86.4447 7.11719 85.5264 8.03554 85.5264 9.16839C85.5264 10.3012 86.4447 11.2196 87.5776 11.2196Z" fill="white" stroke="#263238" stroke-width="0.66824" stroke-miterlimit="10" stroke-linecap="round"/>
<path d="M80.672 10.5059C80.3865 10.5059 80.1128 10.3925 79.9109 10.1906C79.7091 9.98878 79.5957 9.71502 79.5957 9.42957V2.15142C79.5951 2.00967 79.6224 1.8692 79.6763 1.73806C79.7301 1.60692 79.8092 1.48771 79.9092 1.38725C80.0092 1.2868 80.1281 1.20709 80.259 1.1527C80.3899 1.09831 80.5302 1.07031 80.672 1.07031C80.9587 1.07031 81.2337 1.18421 81.4364 1.38696C81.6392 1.58971 81.7531 1.86469 81.7531 2.15142V9.42957C81.7531 9.57132 81.7251 9.71167 81.6707 9.84257C81.6163 9.97346 81.5366 10.0923 81.4362 10.1923C81.3357 10.2923 81.2165 10.3715 81.0853 10.4253C80.9542 10.4791 80.8137 10.5065 80.672 10.5059Z" fill="white" stroke="#263238" stroke-width="0.66824" stroke-miterlimit="10" stroke-linecap="round"/>
<path d="M87.6798 10.5059C87.3944 10.5059 87.1206 10.3925 86.9188 10.1906C86.7169 9.98878 86.6035 9.71502 86.6035 9.42957V2.15142C86.6029 2.00967 86.6303 1.8692 86.6841 1.73806C86.7379 1.60692 86.817 1.48771 86.917 1.38725C87.017 1.2868 87.1359 1.20709 87.2668 1.1527C87.3977 1.09831 87.5381 1.07031 87.6798 1.07031C87.8218 1.07031 87.9624 1.09828 88.0935 1.15261C88.2247 1.20694 88.3439 1.28657 88.4443 1.38696C88.5446 1.48735 88.6243 1.60653 88.6786 1.7377C88.7329 1.86886 88.7609 2.00944 88.7609 2.15142V9.42957C88.7609 9.57132 88.7329 9.71167 88.6785 9.84257C88.6241 9.97346 88.5444 10.0923 88.444 10.1923C88.3435 10.2923 88.2243 10.3715 88.0932 10.4253C87.962 10.4791 87.8215 10.5065 87.6798 10.5059Z" fill="white" stroke="#263238" stroke-width="0.66824" stroke-miterlimit="10" stroke-linecap="round"/>
<path d="M37.4804 33.7588L30.2988 40.091" stroke="#263238" stroke-width="1.33648" stroke-linecap="round" stroke-linejoin="round"/>
<path d="M32.5088 33.7588L37.4799 39.6663" stroke="#263238" stroke-width="1.33648" stroke-linecap="round" stroke-linejoin="round"/>
<path d="M116.965 24.7529L109.783 31.0803" stroke="#263238" stroke-width="1.33648" stroke-linecap="round" stroke-linejoin="round"/>
<path d="M111.994 24.7529L116.965 30.6604" stroke="#263238" stroke-width="1.33648" stroke-linecap="round" stroke-linejoin="round"/>
<path d="M69.9042 24.7529L62.7178 31.0803" stroke="#263238" stroke-width="1.33648" stroke-linecap="round" stroke-linejoin="round"/>
<path d="M64.9277 24.7529L69.9037 30.6604" stroke="#263238" stroke-width="1.33648" stroke-linecap="round" stroke-linejoin="round"/>
<path d="M133.395 24.5742L126.209 30.9064" stroke="#263238" stroke-width="1.33648" stroke-linecap="round" stroke-linejoin="round"/>
<path d="M128.418 24.5742L133.394 30.4817" stroke="#263238" stroke-width="1.33648" stroke-linecap="round" stroke-linejoin="round"/>
<path d="M106.733 99.4805C106.733 99.4805 105.242 107.849 105.015 112.666C104.788 117.483 105.932 120.919 106.39 125.736C106.849 130.553 109.827 149.009 109.827 150.5C109.91 151.893 109.505 153.272 108.683 154.4C107.766 155.659 104.783 156.813 105.015 157.262C105.246 157.711 106.617 158.41 109.025 157.609C111.434 156.808 111.55 156.002 112.467 156.002C113.384 156.002 115.334 155.428 114.986 154.071C114.639 152.715 112.94 149.834 113.056 144.786C113.282 133.091 112.708 112.932 112.708 112.932L116.376 101.696L106.733 99.4805Z" fill="white" stroke="#263238" stroke-width="0.66824" stroke-linecap="round" stroke-linejoin="round"/>
<path d="M108.808 154.211L108.683 154.399C107.766 155.659 104.783 156.812 105.015 157.261C105.246 157.71 106.617 158.41 109.025 157.609C111.434 156.808 111.55 156.002 112.467 156.002C113.384 156.002 115.333 155.427 114.986 154.071C114.88 153.637 114.634 153.053 114.354 152.3C113.253 153.139 112.084 153.885 110.859 154.53C110.314 154.732 109.503 154.505 108.808 154.211Z" fill="#263238" stroke="#263238" stroke-width="0.66824" stroke-linecap="round" stroke-linejoin="round"/>
<path d="M116.903 50.0578C116.903 50.0578 116.362 48.2142 115.99 46.5732C115.619 44.9323 118.404 44.2228 121.459 43.9187C124.514 43.6147 128.833 45.8927 130.108 49.5125C131.382 53.1322 130.31 66.5302 130.441 69.455C130.571 72.3798 130.86 80.4832 127.892 80.99C124.924 81.4968 121.801 81.6947 119.205 76.6077C116.608 71.5207 119.456 58.142 119.765 55.4537C120.074 52.7654 117.057 50.4488 117.057 50.4488L116.903 50.0578Z" fill="#263238" stroke="#263238" stroke-width="0.66824" stroke-linecap="round" stroke-linejoin="round"/>
<path d="M123.428 46.2549C123.428 46.2549 123.226 49.3244 125.272 50.9606C127.318 52.5967 129.973 56.4819 129.973 59.5515" stroke="white" stroke-width="0.33412" stroke-linecap="round" stroke-linejoin="round"/>
<path d="M127.318 54.6426C127.318 54.6426 128.766 59.9516 127.521 64.4594" stroke="white" stroke-width="0.33412" stroke-linecap="round" stroke-linejoin="round"/>
<path d="M111.569 100.918C111.569 100.918 109.156 111.826 111.381 121.251C111.989 123.829 121.367 146.947 122.105 150.644C122.843 154.341 122.843 157.671 124.325 158.965C125.807 160.258 126.738 159.703 125.985 155.451C125.48 153.077 124.669 150.778 123.572 148.612C123.572 148.612 120.797 130.866 120.425 126.985C120.054 123.105 117.838 118.481 117.838 118.481L121.352 103.322L111.569 100.918Z" fill="white" stroke="#263238" stroke-width="0.66824" stroke-linecap="round" stroke-linejoin="round"/>
<path d="M125.508 153.448C125.329 154.414 124.943 155.248 124.137 155.089C123.76 155.017 123.412 154.835 123.137 154.567C122.863 154.298 122.673 153.954 122.593 153.579C122.955 156.021 123.249 158.033 124.325 158.97C125.802 160.263 126.739 159.708 125.986 155.456C125.865 154.778 125.705 154.108 125.508 153.448Z" fill="#263238" stroke="#263238" stroke-width="0.66824" stroke-linecap="round" stroke-linejoin="round"/>
<path d="M122.477 152.483H122.434C122.434 152.57 122.458 152.657 122.472 152.739C122.47 152.654 122.471 152.569 122.477 152.483Z" fill="#263238" stroke="#263238" stroke-width="0.66824" stroke-linecap="round" stroke-linejoin="round"/>
<path d="M114.914 63.5283C113.757 63.8057 112.747 64.5088 112.086 65.4975C111.12 67.095 102.129 73.8567 101.27 74.5903C100.411 75.3239 100.531 79.0161 102.718 79.0161C104.904 79.0161 112.308 73.3645 112.308 73.3645C112.308 73.3645 114.518 70.6569 115.257 68.2002C115.995 65.7436 116.511 63.7745 114.914 63.5283Z" fill="white" stroke="#263238" stroke-width="0.66824" stroke-linecap="round" stroke-linejoin="round"/>
<path d="M117.371 57.2636C116.512 57.2636 115.662 59.281 115.662 59.281L114.851 59.4017C115.58 58.5377 116.512 57.2636 116.512 57.2636C117.245 56.0329 116.994 54.1892 116.512 54.3147C116.029 54.4402 112.824 55.6661 112.332 56.279C111.84 56.892 110.363 61.81 109.875 62.3023C109.388 62.7946 101.27 73.1182 100.411 75.3335C99.5518 77.5488 101.883 80.2516 103.852 78.9002C105.821 77.5488 107.539 73.3643 108.283 70.4347C109.026 67.5051 112.095 61.95 112.095 61.95C112.095 61.95 112.81 61.3708 113.543 60.7241C114.345 60.5222 115.134 60.2756 115.908 59.9857C116.391 59.7395 117.752 58.0165 117.752 58.0165C117.752 58.0165 118.23 57.2636 117.371 57.2636Z" fill="white" stroke="#263238" stroke-width="0.66824" stroke-linecap="round" stroke-linejoin="round"/>
<path d="M115.305 53.2867L112.815 57.2346C112.682 57.4457 112.63 57.698 112.67 57.9442C112.71 58.1904 112.839 58.4135 113.032 58.5715L114.166 59.503C114.276 59.593 114.404 59.659 114.542 59.6968C114.679 59.7346 114.822 59.7433 114.963 59.7224C115.104 59.7015 115.239 59.6515 115.359 59.5755C115.48 59.4995 115.583 59.3992 115.662 59.281L118.302 55.3668C118.449 55.1483 118.506 54.8818 118.462 54.6223C118.418 54.3628 118.276 54.13 118.066 53.972L116.782 53.0067C116.669 52.9227 116.539 52.863 116.401 52.8315C116.264 52.8 116.121 52.7973 115.982 52.8236C115.844 52.8499 115.712 52.9046 115.595 52.9843C115.479 53.064 115.38 53.1669 115.305 53.2867Z" fill="#263238" stroke="#263238" stroke-width="0.66824" stroke-linecap="round" stroke-linejoin="round"/>
<path d="M123.833 55.082C123.833 55.082 123.114 59.6912 122.911 61.4528C122.708 63.2145 122.762 63.5957 124.243 63.7647C125.725 63.9336 128.172 64.6865 129.132 66.9549C130.093 69.2233 124.513 76.0912 122.858 77.5729C121.203 79.0546 120.464 81.0527 120.831 82.6164C121.198 84.1802 125.527 89.2382 125.339 94.3686C125.151 99.4991 118.949 114.456 118.949 114.456C118.949 114.456 110.681 111.106 104.711 112.226C104.711 112.226 107.53 92.4091 109.204 87.187C110.879 81.9649 112.583 79.1366 112.448 78.0169C112.312 76.8972 110.227 73.6297 110.734 70.8691C111.241 68.1084 113.022 65.6904 113.852 64.1894C114.682 62.6884 116.463 62.7077 117.11 62.7801C117.757 62.8525 118.674 63.0552 119.132 62.3554C119.591 61.6555 120.001 58.0454 120.001 58.0454L123.833 55.082Z" fill="#7E2EBC" stroke="#263238" stroke-width="0.66824" stroke-linecap="round" stroke-linejoin="round"/>
<path d="M114.229 75.0918L117.906 77.7511" stroke="#263238" stroke-width="0.66824" stroke-linecap="round" stroke-linejoin="round"/>
<path d="M117.632 86.5889C117.632 86.5889 113.944 93.6257 113.109 98.6548" stroke="#263238" stroke-width="0.66824" stroke-linecap="round" stroke-linejoin="round"/>
<path d="M113.278 93.7949C113.278 93.7949 112.27 98.1386 111.768 102" stroke="#263238" stroke-width="0.66824" stroke-linecap="round" stroke-linejoin="round"/>
<path d="M127.82 65.6074C127.82 65.6074 126.589 66.2252 125.238 68.315C123.886 70.4048 122.656 73.9667 122.902 74.8258C123.148 75.6849 125.484 74.2128 125.484 74.2128C125.484 74.2128 127.95 85.27 130.151 84.4158C134.577 82.6927 128.679 66.4713 128.679 66.4713C128.679 66.4713 128.679 65.8632 127.82 65.6074Z" fill="white" stroke="#263238" stroke-width="0.66824" stroke-linecap="round" stroke-linejoin="round"/>
<path d="M118.317 67.1192C115.817 66.5014 116.483 64.1172 117.106 62.7755H117.13C117.781 62.8527 118.694 63.0506 119.152 62.3508C119.611 61.6509 120.021 58.0408 120.021 58.0408L123.834 55.1016C123.834 55.1016 123.115 59.7107 122.912 61.4724C122.709 63.234 122.762 63.6153 124.244 63.7842C124.244 63.7649 121.879 68.0217 118.317 67.1192Z" fill="white" stroke="#263238" stroke-width="0.66824" stroke-linecap="round" stroke-linejoin="round"/>
<path d="M120.46 46.0566C120.225 47.3668 120.364 48.7166 120.86 49.9515C121.686 51.7373 125.204 53.8126 125.204 53.8126C125.204 53.8126 126.589 52.3647 126.792 53.9043C126.995 55.4439 126.343 56.9497 125.315 56.9256C124.287 56.9015 124.137 55.7576 124.137 55.7576C123.226 57.0835 121.887 58.0563 120.344 58.5135C117.612 59.416 116.222 59.2567 115.899 57.1573C115.575 55.0578 115.952 52.6543 116.907 50.0432C117.863 47.4322 120.078 46.1049 120.46 46.0566Z" fill="white" stroke="#263238" stroke-width="0.66824" stroke-linecap="round" stroke-linejoin="round"/>
<path d="M130.643 64.0205L130.768 62.0562C131.375 61.5174 131.949 60.942 132.486 60.3331C133.225 59.4741 133.717 58.2433 134.33 58.7356C134.943 59.2279 133.471 60.7048 133.471 60.7048L133.345 61.67L135.807 60.9364C135.807 60.9364 138.143 58.6005 138.263 59.2134C138.384 59.8264 137.033 61.9162 136.053 63.0263C135.073 64.1363 132.12 64.4742 132.12 64.4742C132.12 64.4742 131.994 74.3055 131.994 77.2592C131.994 80.2129 131.627 83.5335 130.768 84.1416C129.909 84.7497 127.201 84.2623 127.819 79.4697C128.437 74.6771 130.643 64.0205 130.643 64.0205Z" fill="white" stroke="#263238" stroke-width="0.66824" stroke-linecap="round" stroke-linejoin="round"/>
<path d="M125.484 74.2237L124.745 71.8877" stroke="#263238" stroke-width="0.66824" stroke-linecap="round" stroke-linejoin="round"/>
<path d="M58.2822 45.1094C58.2822 45.1094 60.4975 47.9183 60.7244 48.5361C60.8844 48.986 61.0166 49.4454 61.1201 49.9116L62.5681 50.9831C62.6136 51.0158 62.6519 51.0576 62.6807 51.1058C62.7095 51.1539 62.728 51.2075 62.7353 51.2632C62.7425 51.3188 62.7383 51.3753 62.7228 51.4293C62.7073 51.4832 62.6809 51.5334 62.6453 51.5767L61.5497 52.9233C61.5497 52.9233 62.5681 56.3017 62.515 56.7843C62.4619 57.267 58.9242 58.4688 58.9242 58.4688L58.596 61.0557L51.8873 60.9688L51.8632 56.1762L49.1846 49.902C49.1846 49.902 51.5833 45.3748 58.2822 45.1094Z" fill="white" stroke="#263238" stroke-width="0.66824" stroke-linecap="round" stroke-linejoin="round"/>
<path d="M57.123 54.5653L58.0256 54.4688C58.1177 54.8704 58.2911 55.2489 58.5352 55.5809C58.7792 55.913 59.0887 56.1915 59.4445 56.3993" fill="white"/>
<path d="M57.123 54.5653L58.0256 54.4688C58.1177 54.8704 58.2911 55.2489 58.5352 55.5809C58.7792 55.913 59.0887 56.1915 59.4445 56.3993" stroke="#263238" stroke-width="0.66824" stroke-linecap="round" stroke-linejoin="round"/>
<path d="M50.6083 45.2698C50.6083 45.2698 48.0744 45.3905 48.0889 48.8992C48.1034 52.408 51.6556 55.6561 51.8487 56.1726C52.0417 56.689 53.9433 56.4477 55.2802 55.9506C56.0279 55.7069 56.6721 55.2191 57.1094 54.5654C57.1094 54.5654 55.8304 52.7024 56.091 52.1522C56.3516 51.602 57.7223 52.1281 57.7223 52.1281C58.0258 51.9558 58.2996 51.7358 58.5332 51.4765C58.7648 51.1531 60.0052 49.7583 59.1461 49.0247C58.287 48.2911 56.9501 47.8471 57.5438 46.9204C58.1374 45.9938 60.261 45.0912 59.6384 43.0979C59.0158 41.1047 57.6258 41.1674 56.4675 41.819C55.3092 42.4705 54.9906 40.371 52.7367 41.5632C50.4828 42.7553 49.8505 44.4976 50.6083 45.2698Z" fill="#263238" stroke="#263238" stroke-width="0.66824" stroke-linecap="round" stroke-linejoin="round"/>
<path d="M53.5711 52.1426C53.5232 52.5143 53.5232 52.8906 53.5711 53.2623" stroke="white" stroke-width="0.33412" stroke-linecap="round" stroke-linejoin="round"/>
<path d="M57.48 46.5049C57.48 46.5049 56.9974 47.3978 55.0669 49.1304C54.3902 49.7374 53.9097 50.5321 53.6865 51.4133" stroke="white" stroke-width="0.33412" stroke-linecap="round" stroke-linejoin="round"/>
<path d="M57.9347 48.2764C57.9347 48.2764 55.9703 50.9405 54.9375 51.732" stroke="white" stroke-width="0.33412" stroke-linecap="round" stroke-linejoin="round"/>
<path d="M77.727 45.4047C79.7227 46.3643 81.8304 47.0712 84.0012 47.509C84.0012 47.509 80.9075 45.4143 77.9152 44.8931C77.6401 44.8545 77.4905 45.284 77.727 45.4047Z" fill="#263238" stroke="#263238" stroke-width="0.66824" stroke-linecap="round" stroke-linejoin="round"/>
<path d="M77.1529 61.264L80.8402 51.8236C80.8402 51.8236 79.3923 49.4442 79.3923 48.7251C79.3923 48.006 81.6993 45.4191 81.6993 45.4191C81.6993 45.4191 81.8875 44.0146 82.8914 44.6854C83.1813 44.8848 83.4145 45.1559 83.5684 45.4722C83.7224 45.7886 83.7918 46.1394 83.7698 46.4905C84.2331 47.1433 84.6539 47.8252 85.0295 48.5321C85.2612 49.0919 83.07 52.2049 83.07 52.2049C83.07 52.2049 82.7032 60.7814 81.7379 63.7303C80.7726 66.6792 80.5313 67.2921 79.8894 68.156C79.2475 69.02 76.1973 67.4997 76.1973 67.4997L77.1529 61.264Z" fill="white" stroke="#263238" stroke-width="0.66824" stroke-linecap="round" stroke-linejoin="round"/>
<path d="M60.2942 152.348L66.2934 154.529C66.434 154.577 66.563 154.654 66.6721 154.755C66.7813 154.856 66.8681 154.978 66.9272 155.114C66.9863 155.251 67.0162 155.398 67.0151 155.546C67.014 155.695 66.9819 155.842 66.9208 155.977C66.8382 156.142 66.6945 156.269 66.5202 156.329C65.7577 156.605 57.8328 159.322 55.521 158.342C55.2851 158.223 55.0862 158.042 54.9458 157.818C54.8054 157.595 54.7289 157.337 54.7246 157.073C54.8011 155.292 54.9962 153.518 55.3086 151.764C55.3086 151.764 58.2527 153.158 60.2942 152.348Z" fill="#263238" stroke="#263238" stroke-width="0.66824" stroke-linecap="round" stroke-linejoin="round"/>
<path d="M66.9307 155.982C66.9941 155.856 67.0291 155.717 67.0332 155.577C67.0374 155.436 67.0107 155.295 66.9549 155.166C65.2946 155.972 61.7665 157.483 58.5522 157.541C57.2755 157.619 55.9941 157.51 54.749 157.217C54.7797 157.454 54.8667 157.68 55.0027 157.877C55.1387 158.073 55.3198 158.234 55.5309 158.347C57.8572 159.312 65.7676 156.609 66.5302 156.334C66.7044 156.273 66.8481 156.147 66.9307 155.982Z" fill="white" stroke="#263238" stroke-width="0.66824" stroke-linecap="round" stroke-linejoin="round"/>
<path d="M43.6625 150.523C43.6625 150.523 43.1219 155.499 43.4115 155.991C43.7011 156.483 44.565 156.816 46.0515 156.72C46.5072 156.71 46.9482 156.556 47.312 156.282C47.6758 156.007 47.944 155.625 48.0786 155.19C48.2137 154.833 47.8662 151.58 47.8566 151.01C47.8469 150.441 43.6625 150.523 43.6625 150.523Z" fill="#263238" stroke="#263238" stroke-width="0.66824" stroke-linecap="round" stroke-linejoin="round"/>
<path d="M48.0931 154.258C47.6346 155.141 47.0506 155.706 45.5351 155.735C44.7557 155.766 43.9851 155.561 43.3246 155.146C43.3023 155.43 43.3317 155.717 43.4115 155.99C43.7059 156.473 44.565 156.816 46.0515 156.719C46.5072 156.709 46.9482 156.556 47.312 156.281C47.6758 156.007 47.944 155.625 48.0786 155.189C48.1207 154.881 48.1256 154.568 48.0931 154.258Z" fill="white" stroke="#263238" stroke-width="0.66824" stroke-linecap="round" stroke-linejoin="round"/>
<path d="M63.5042 93.2677C62.0956 93.9645 60.6102 94.4942 59.0785 94.8459L45.7722 91.7715C45.7722 91.7715 44.889 99.233 44.9131 100.517C44.9373 101.801 45.3958 124.904 45.3958 124.904L43.5811 150.87C43.7693 151.258 44.0662 151.582 44.4357 151.803C44.8051 152.024 45.231 152.133 45.6612 152.116C46.5443 152.111 47.4164 151.919 48.2192 151.551L53.9239 124.523L55.1933 153.216C55.1933 153.216 55.98 153.974 57.7754 153.935C58.3009 153.918 58.8126 153.762 59.2584 153.483C59.7042 153.204 60.0684 152.812 60.314 152.347C60.314 152.347 61.1972 141.247 62.5148 133.302C63.8324 125.358 63.9917 103.49 63.9917 103.49L63.5042 93.2677Z" fill="white" stroke="#263238" stroke-width="0.66824" stroke-linecap="round" stroke-linejoin="round"/>
<path d="M50.8486 97.1816C52.5938 97.56 54.3721 97.7653 56.1576 97.7946" stroke="#263238" stroke-width="0.66824" stroke-linecap="round" stroke-linejoin="round"/>
<path d="M45.917 95.748C45.917 95.748 46.5348 96.5685 48.1709 96.5685" stroke="#263238" stroke-width="0.66824" stroke-linecap="round" stroke-linejoin="round"/>
<path d="M59.416 145.446C59.416 145.446 60.6419 130.72 61.4624 120.088C61.9574 113.826 62.0252 107.537 61.6651 101.265C61.6651 101.265 63.7115 99.0161 62.278 95.1309" stroke="#263238" stroke-width="0.66824" stroke-linecap="round" stroke-linejoin="round"/>
<path d="M59.4157 147.082L58.8027 151.788" stroke="#263238" stroke-width="0.66824" stroke-linecap="round" stroke-linejoin="round"/>
<path d="M53.909 124.528L52.4514 105.252L49.0488 101.979" stroke="#263238" stroke-width="0.66824" stroke-linecap="round" stroke-linejoin="round"/>
<path d="M46.7806 82.6881C46.851 82.4686 46.8482 82.2322 46.7724 82.0146C46.6967 81.7969 46.5521 81.6098 46.3607 81.4815C44.8838 80.4824 41.3027 78.4264 40.1588 81.134C39.8245 82.1905 39.5918 83.2766 39.4638 84.3773C39.1453 86.5444 39.2611 101.216 39.2756 102.717C39.2758 102.799 39.2661 102.88 39.2466 102.959C39.1212 103.533 38.5951 106.043 38.9619 107.539C39.3721 109.243 40.1588 110.556 41.4957 110.917C42.8326 111.279 43.5614 109.735 43.3539 108.789C43.1463 107.843 43.6435 107.109 43.4359 106.164C43.267 105.401 42.543 103.408 42.2679 102.669C42.2015 102.487 42.1849 102.29 42.2197 102.1C42.5961 100.169 44.7053 89.3436 44.8645 88.8224C45.0238 88.3011 46.2593 84.3725 46.7806 82.6881Z" fill="white" stroke="#263238" stroke-width="0.66824" stroke-linecap="round" stroke-linejoin="round"/>
<path d="M41.0947 107.862C41.0947 107.862 42.7984 109.054 42.9963 110.155" stroke="#263238" stroke-width="0.66824" stroke-linecap="round" stroke-linejoin="round"/>
<path d="M41.6357 106.873C41.6357 106.873 42.9871 107.756 43.3491 108.451" stroke="#263238" stroke-width="0.66824" stroke-linecap="round" stroke-linejoin="round"/>
<path d="M41.8818 105.874L42.3645 106.54C42.3645 106.54 42.6058 109.194 43.3587 108.799C44.1116 108.403 43.6676 105.184 43.6676 105.184C43.6676 105.184 43.2863 104.397 42.1087 102.52" fill="white"/>
<path d="M41.8818 105.874L42.3645 106.54C42.3645 106.54 42.6058 109.194 43.3587 108.799C44.1116 108.403 43.6676 105.184 43.6676 105.184C43.6676 105.184 43.2863 104.397 42.1087 102.52" stroke="#263238" stroke-width="0.66824" stroke-linecap="round" stroke-linejoin="round"/>
<path d="M41.7948 103.099C42.055 104.05 42.0315 105.056 41.7272 105.994C41.2926 106.811 40.8091 107.601 40.2793 108.359C40.9869 109.036 41.6496 109.758 42.2629 110.522" stroke="#263238" stroke-width="0.66824" stroke-linecap="round" stroke-linejoin="round"/>
<path d="M42.6441 65.2751L38.2666 81.3614C38.2666 81.3614 41.9298 84.3296 46.4714 84.2572L49.401 68.9866C49.401 68.9866 46.1287 61.6361 42.6441 65.2751Z" fill="#263238" stroke="#263238" stroke-width="0.66824" stroke-linecap="round" stroke-linejoin="round"/>
<path d="M49.8827 59.9993C49.8827 59.9993 43.454 63.1943 42.8507 64.6422C42.3681 65.8488 43.845 74.3915 43.8739 75.8925C43.9029 77.3935 45.1867 90.2895 45.5342 92.7847C45.8817 95.28 54.2216 96.3418 57.3974 95.3813C60.5731 94.4209 63.522 94.0541 63.5027 93.2529C63.4834 92.4517 63.0587 85.6658 63.2324 84.3676C63.4062 83.0693 64.7527 73.3297 64.7527 73.3297L76.8717 70.82C76.8717 70.82 77.4316 70.4821 77.4461 68.2909C77.4479 66.2227 77.3416 64.1558 77.1275 62.0987C75.5577 62.4753 73.9345 62.5766 72.3301 62.398C69.4053 62.1373 65.94 61.3506 65.3223 61.5244C64.7045 61.6981 60.4959 60.8197 59.1107 60.646C57.185 60.3854 52.2959 58.7541 49.8827 59.9993Z" fill="#263238" stroke="#263238" stroke-width="0.66824" stroke-linecap="round" stroke-linejoin="round"/>
<path d="M44.4881 83.4803L42.8037 69.3535" stroke="white" stroke-width="0.33412" stroke-linecap="round" stroke-linejoin="round"/>
<path d="M43.2619 75.5019L42.4414 73.6631" stroke="white" stroke-width="0.33412" stroke-linecap="round" stroke-linejoin="round"/>
<path d="M64.7543 73.3057L60.0293 74.0682" stroke="white" stroke-width="0.33412" stroke-linecap="round" stroke-linejoin="round"/>
<path d="M63.7123 73.6631L60.2373 76.9354" stroke="white" stroke-width="0.33412" stroke-linecap="round" stroke-linejoin="round"/>
<path d="M74.344 62.8223C74.344 62.8223 71.0718 67.7307 63.0986 69.5792" stroke="white" stroke-width="0.33412" stroke-linecap="round" stroke-linejoin="round"/>
</svg>
