<svg width="326" height="240" viewBox="0 0 326 240" fill="none" xmlns="http://www.w3.org/2000/svg">
<g clip-path="url(#clip0_13299_37649)">
<rect width="326" height="240" rx="4" fill="white"/>
<path d="M224.18 202.002C224.374 148.724 224.374 89.4984 224.18 36.5781" stroke="#263238" stroke-width="0.615656" stroke-linecap="round" stroke-linejoin="round"/>
<path d="M235.346 20.106C235.506 79.0105 235.506 130.833 235.346 189.719" stroke="#263238" stroke-width="0.615656" stroke-linecap="round" stroke-linejoin="round"/>
<path d="M224.18 23.9436V2.35106C225.944 1.71094 227.841 1.41024 229.746 1.46885C233.684 1.46885 235.312 2.35106 235.312 2.35106V8.35997" stroke="#263238" stroke-width="0.615656" stroke-linecap="round" stroke-linejoin="round"/>
<path d="M294.247 1.46216L296.543 2.28885L281.815 13.3936L235.346 20.1058L233.148 19.5259" stroke="#263238" stroke-width="0.615656" stroke-linecap="round" stroke-linejoin="round"/>
<path d="M233.148 8.78509L278.099 0L294.247 1.46212L280.374 12.4743L233.148 19.5259V8.78509Z" stroke="#263238" stroke-width="0.615656" stroke-linecap="round" stroke-linejoin="round"/>
<path d="M187.918 16.9043L186.032 17.9037L197.456 29.9894L224.173 36.5782L227.025 35.9428" stroke="#263238" stroke-width="0.615656" stroke-linecap="round" stroke-linejoin="round"/>
<path d="M227.026 24.9118L199.294 15.4358L187.918 16.9041L199.662 29.3291L227.026 35.9426V24.9118Z" stroke="#263238" stroke-width="0.615656" stroke-linecap="round" stroke-linejoin="round"/>
<path d="M138 32L138 236" stroke="#263238" stroke-width="0.615656" stroke-linecap="round" stroke-linejoin="round"/>
<path d="M72.446 15.8181C94.2713 20.4019 115.839 27.1881 137.588 31.809" stroke="#263238" stroke-width="0.615656" stroke-linecap="round" stroke-linejoin="round"/>
<path d="M47.1074 27.6575C76.878 33.9748 107.49 40.7611 137.588 47.5473" stroke="#263238" stroke-width="0.615656" stroke-linecap="round" stroke-linejoin="round"/>
<path d="M27.6338 41.9514C63.6591 49.3978 100.533 56.184 137.588 63.2355" stroke="#263238" stroke-width="0.615656" stroke-linecap="round" stroke-linejoin="round"/>
<path d="M16.502 58.6519C56.7017 65.4381 97.0544 72.2017 137.56 78.9427" stroke="#263238" stroke-width="0.615656" stroke-linecap="round" stroke-linejoin="round"/>
<path d="M8 76.3025L137.588 94.6562" stroke="#263238" stroke-width="0.615656" stroke-linecap="round" stroke-linejoin="round"/>
<path d="M8 95.384L137.588 110.369" stroke="#263238" stroke-width="0.615656" stroke-linecap="round" stroke-linejoin="round"/>
<path d="M11.0195 114.731C53.223 117.877 94.9672 122.812 137.588 126.082" stroke="#263238" stroke-width="0.615656" stroke-linecap="round" stroke-linejoin="round"/>
<path d="M17.0029 134.108C49.7443 136.385 82.444 137.619 115.839 140.703C122.797 140.703 130.45 140.703 137.588 141.789" stroke="#263238" stroke-width="0.615656" stroke-linecap="round" stroke-linejoin="round"/>
<path d="M25.1086 153.258C62.9637 154.893 99.8378 156.744 137.589 157.503" stroke="#263238" stroke-width="0.615656" stroke-linecap="round" stroke-linejoin="round"/>
<path d="M35.238 172.007C69.2248 172.167 103.316 172.784 137.588 173.216" stroke="#263238" stroke-width="0.615656" stroke-linecap="round" stroke-linejoin="round"/>
<path d="M47.0518 190.212C76.878 190.058 107.49 189.441 137.588 188.929" stroke="#263238" stroke-width="0.615656" stroke-linecap="round" stroke-linejoin="round"/>
<path d="M57.3977 207.856C83.8357 206.715 110.969 205.481 137.609 204.636" stroke="#263238" stroke-width="0.615656" stroke-linecap="round" stroke-linejoin="round"/>
<path d="M129.399 39.6565V222.65" stroke="#263238" stroke-width="0.615656" stroke-linecap="round" stroke-linejoin="round"/>
<path d="M90.4517 23.8137V137.508" stroke="#263238" stroke-width="0.615656" stroke-linecap="round" stroke-linejoin="round"/>
<path d="M46.1333 39.157V164.801" stroke="#263238" stroke-width="0.615656" stroke-linecap="round" stroke-linejoin="round"/>
<path d="M313.165 43.6975L245.101 50.6688V192.149" stroke="#263238" stroke-width="0.615656" stroke-linecap="round" stroke-linejoin="round"/>
<path d="M318 61.866L254.145 66.5608V179.601" stroke="#263238" stroke-width="0.615656" stroke-linecap="round" stroke-linejoin="round"/>
<path d="M318 89.4368L255.989 93.3604" stroke="#263238" stroke-width="0.615656" stroke-linecap="round" stroke-linejoin="round"/>
<path d="M308.823 113.405L257.819 116.347" stroke="#263238" stroke-width="0.615656" stroke-linecap="round" stroke-linejoin="round"/>
<path d="M279.136 68.9607V155.738" stroke="#263238" stroke-width="0.615656" stroke-linecap="round" stroke-linejoin="round"/>
<path d="M61.7498 217.17C63.9799 221.42 66.9625 225.326 70.5845 228.74C89.1013 246.071 135.354 239.726 155.04 228.74C161.513 225.129 167.688 221.268 174.985 217.17" stroke="#263238" stroke-width="0.694301" stroke-linecap="round" stroke-linejoin="round"/>
<path d="M236.828 99.3809L230.441 124.316L241.573 189.138H241.49L241.218 189.194C236.48 190.23 185.441 201.334 182.943 201.126C180.327 200.91 139.32 194.6 139.32 194.6L103.024 198.844L73.9211 186.007L47.0308 190.752L39.3777 95.7908C39.3777 95.7908 45.0619 49.3573 42.4459 36.8549C42.4459 36.8549 87.2305 43.2835 91.3702 43.7288C95.5098 44.174 143.669 29 143.669 29L184.307 42.4625L218.349 38.1559L268.721 61.7414C268.721 61.7414 236.014 94.302 236.828 99.3809Z" fill="white" stroke="#263238" stroke-width="0.694301" stroke-linecap="round" stroke-linejoin="round"/>
<path d="M47.6571 40.9387L91.3703 47.0891L142.973 34.3849L184.265 45.9411L216.666 42.4624L261.555 61.6996C261.555 61.6996 236.007 93.3556 235.026 95.3802C234.045 97.4048 225.856 124.316 225.856 124.316L236.668 186.028L184.286 197.556L140.225 190.508L105.306 193.584L75.6188 180.845L50.9618 186.028L42.9609 97.2239C42.9609 97.2239 50.3079 61.1012 47.6571 40.9387Z" fill="#7E2EBC" stroke="#263238" stroke-width="0.694301" stroke-linecap="round" stroke-linejoin="round"/>
<path d="M199.905 74.0908L206.981 72.3793L241.351 87.0663C243.034 84.9165 244.934 82.5162 246.882 80.0672L209.625 64.3227L201.777 66.5212L206.696 43.5131L200.191 44.2089L194.221 68.6571L174.935 74.056L137.825 77.2912L122.999 84.6591L123.694 62.9451L141.825 54.4014L162.948 58.4785L166.545 41.0154L160.13 39.2204L158.099 51.9037L141.825 48.425L123.917 56.5026L124.494 38.9561L115.839 41.0572V88.1726L93.8471 99.0956V46.477L91.3425 47.0892L85.8601 46.317L86.7993 64.3227H71.9244L48.1093 45.6978C48.2624 48.3833 48.2832 51.2637 48.2137 54.1927L69.3711 71.8993H87.2098L87.9055 85.327L87.2515 90.8929L43.3922 102.053L43.6218 104.592L86.9245 93.6758L85.9227 102.338L44.3454 112.6L45.1107 121.13L67.1377 115.306L69.1832 141.55L48.8885 163.02L49.6817 171.8L56.8339 164.231L58.4202 184.442L60.4656 184.01L59.0741 161.865L73.8864 146.197L81.0525 144.367L109.418 135.218L108.792 139.337L93.0401 188.324L99.0999 190.926L107.379 164.203L119.596 161.942L144.142 172.559L155.531 173.289L153.597 192.652L156.631 193.132L157.952 173.435L186.526 175.265L207.169 172.294L209.799 191.942L215.114 190.773L212.547 171.501L233.565 168.475L232.515 162.463L187.779 168.398L169.69 166.812L172.264 142.461L187.98 133.876H192.851L228.083 137.445L226.844 130.313L193.846 127.19H186.227L190.096 103.931L199.905 74.0908ZM83.0214 136.081L71.0547 139.629L69.4685 114.673L87.9055 109.803L115.401 95.61L110.872 125.708L83.0214 136.081ZM121.83 155.096L109.425 157.559L114.573 141.014L122.358 92.0409L138.033 83.9494L144.121 108.634L141.846 129.186L135.014 160.383L121.83 155.096ZM178.665 132.484L167.867 137.598L163.894 166.304L145.805 164.718L139.578 162.22L146.535 131.239L149.235 109.789H161.696L182.491 106.31L178.665 132.484ZM183.5 101.308L162.628 105.601H145.847L140.796 83.5111L173.544 80.4847L192.037 75.9902L183.5 101.308Z" fill="white" stroke="#263238" stroke-width="0.694301" stroke-linecap="round" stroke-linejoin="round"/>
<path opacity="0.5" d="M192.037 121.185L193.922 106.289L217.995 111.577L216.033 124.295L192.037 121.185Z" fill="white"/>
<path opacity="0.5" d="M206.953 105.601L211.858 91.9227L229.989 98.7618L225.829 112.906L206.953 105.601Z" fill="white"/>
<path opacity="0.5" d="M203.015 76.0039H205.019L212.596 79.4339L205.019 102.414L197.915 100.285L195.64 99.7842L203.015 76.0039Z" fill="white"/>
<path opacity="0.5" d="M217.994 82.0988L235.68 89.2092L232.737 94.302L216.033 89.2092L217.994 82.0988Z" fill="white"/>
<path opacity="0.5" d="M206.953 61.7136L210.383 45.9412L216.033 45.0437L224.382 48.3972L218.468 64.6566L210.495 61.7136H206.953Z" fill="white"/>
<path opacity="0.5" d="M222.169 66.3611L225.856 57.2887L250.666 68.5875L245.754 76.004L222.169 66.3611Z" fill="white"/>
<path opacity="0.5" d="M169.3 45.0437L182.477 48.8563L178.477 69.8189H176.564H164.938L169.3 45.0437Z" fill="white"/>
<path opacity="0.5" d="M185.817 49.4337L195.64 47.7639L192.036 66.361L182.477 68.8378L185.817 49.4337Z" fill="white"/>
<path opacity="0.5" d="M162.238 61.7137L161.049 70.8L139.627 71.781L126.749 78.4184V66.3612L142.34 58.3046L162.238 61.7137Z" fill="white"/>
<path opacity="0.5" d="M127.681 40.9388L143.154 36.8688L141.957 45.9412L126.776 51.8758L127.681 40.9388Z" fill="white"/>
<path opacity="0.5" d="M145.123 45.9413L156.338 48.3973L158.126 40.0971L146.515 38.1282L145.123 45.9413Z" fill="white"/>
<path opacity="0.5" d="M96.6507 48.3972V61.7136L112.861 57.2887V45.0437L96.6507 48.3972Z" fill="white"/>
<path opacity="0.5" d="M97.7641 66.6462V92.9659L106.718 89.2089L105.306 73.0122L112.862 70.7997V61.7134L97.7641 66.6462Z" fill="white"/>
<path opacity="0.5" d="M70.6095 74.9745L71.841 91.9227L83.6268 89.2093L85.5192 83.9217V74.9745H70.6095Z" fill="white"/>
<path opacity="0.5" d="M51.4558 61.6995L67.0055 73.7357V82.0846L49.4868 83.4343C49.4868 83.4343 51.6993 68.8377 51.4558 61.6995Z" fill="white"/>
<path opacity="0.5" d="M49.4869 86.7671L65.5097 85.2921V93.3766L46.6691 98.5181L49.4869 86.7671Z" fill="white"/>
<path opacity="0.5" d="M70.6095 47.7639V59.2575L83.6268 60.2385L83.091 48.397L70.6095 47.7639Z" fill="white"/>
<path opacity="0.5" d="M125.086 94.3019L136.266 89.0908L139.627 108.147L122.852 111.097L125.086 94.3019Z" fill="white"/>
<path opacity="0.5" d="M127.681 113.998L126.776 127.05L138.409 125.826V111.097L127.681 113.998Z" fill="white"/>
<path opacity="0.5" d="M161.049 85.2922L159.532 102.414H165.856L179.924 100.091L188.029 79.4341L172.584 83.9216L161.049 85.2922Z" fill="white"/>
<path opacity="0.5" d="M145.123 86.2731V90.9206L156.832 90.5867V85.2921L145.123 86.2731Z" fill="white"/>
<path opacity="0.5" d="M162.238 116.016L161.048 129.757L176.487 127.05L178.477 111.097L162.238 116.016Z" fill="white"/>
<path opacity="0.5" d="M148.727 133.896L159.532 134.669L156.832 162.241L146.466 161.921L142.583 160.522L148.727 133.896Z" fill="white"/>
<path opacity="0.5" d="M152.254 113.998L159.532 115.049L158.126 124.295H150.974L152.254 113.998Z" fill="white"/>
<path opacity="0.5" d="M210.383 139.629L224.381 140.986L227.575 157.851L210.383 158.206V139.629Z" fill="white"/>
<path opacity="0.5" d="M178.477 145.23L192.037 144.138L193.922 163.897H176.236L178.477 145.23Z" fill="white"/>
<path opacity="0.5" d="M216.033 175.237L217.994 184.268L227.575 182.709L225.856 173.317L216.033 175.237Z" fill="white"/>
<path opacity="0.5" d="M185.079 178.793L204.115 176.476L205.019 186.988L184.286 192.13L172.556 190.752L176.647 177.818L185.079 178.793Z" fill="white"/>
<path opacity="0.5" d="M86.5767 148.069L102.057 145.23L101.013 155.917L96.651 166.339L85.5192 169.303L86.5767 148.069Z" fill="white"/>
<path opacity="0.5" d="M73.0725 117.609V126.069L84.9905 124.295L91.3704 121.839L91.0434 111.097L86.702 113.998L73.0725 117.609Z" fill="white"/>
<path opacity="0.5" d="M48.2555 124.295L63.9791 120.427L65.5098 136.672L50.4679 139.629L48.2555 124.295Z" fill="white"/>
<path opacity="0.5" d="M49.3547 153.175L58.3298 145.23L60.6605 147.387L51.3793 156.299L49.3547 153.175Z" fill="white"/>
<path opacity="0.5" d="M51.6993 175.237L56.0894 174.201L56.8825 183.057L52.5342 183.69L51.6993 175.237Z" fill="white"/>
<path opacity="0.5" d="M63.2415 180.608L62.3997 165.128L73.0723 163.897V179.196L63.2415 180.608Z" fill="white"/>
<path opacity="0.5" d="M130.478 145.23C133.794 145.23 136.482 142.542 136.482 139.226C136.482 135.91 133.794 133.221 130.478 133.221C127.162 133.221 124.473 135.91 124.473 139.226C124.473 142.542 127.162 145.23 130.478 145.23Z" fill="white"/>
<path opacity="0.1" d="M236.828 99.381L230.441 124.316L241.573 189.138H241.49L241.218 189.194L182.95 201.126L198.096 99.047L218.328 38.1282L268.7 61.7137C268.7 61.7137 236.014 94.3021 236.828 99.381Z" fill="black" fill-opacity="0.7"/>
<path opacity="0.1" d="M184.286 42.4346L168.869 97.0848L155.441 120.823L139.328 194.599L103.031 198.843L129.761 136.679L136.12 90.204L144.177 29.146L184.286 42.4346Z" fill="black" fill-opacity="0.7"/>
<path opacity="0.1" d="M91.0432 43.7079L89.937 94.4967L74.7003 186.376L73.928 186.035L47.0308 190.752L40.0039 103.249L82.103 86.9688L89.0603 43.4504L91.0432 43.7079Z" fill="black" fill-opacity="0.7"/>
<path d="M196.309 71.2178C196.195 71.0998 196.052 71.0144 195.894 70.9703C195.736 70.9263 195.569 70.9253 195.411 70.9674L174.282 76.415L138.333 79.1284C138.209 79.136 138.088 79.1692 137.978 79.2258L90.793 103.444L91.4887 88.1382V67.4539C91.4887 67.3315 91.4646 67.2102 91.4177 67.0971C91.3709 66.984 91.3022 66.8812 91.2157 66.7947C91.1291 66.7081 91.0263 66.6394 90.9132 66.5926C90.8001 66.5457 90.6789 66.5216 90.5564 66.5216H81.0526C80.8054 66.5216 80.5683 66.6198 80.3934 66.7947C80.2186 66.9695 80.1204 67.2066 80.1204 67.4539C80.1204 67.7012 80.2186 67.9383 80.3934 68.1131C80.5683 68.288 80.8054 68.3862 81.0526 68.3862H89.5824V88.0686L88.831 104.954C88.8216 105.117 88.856 105.28 88.9306 105.426C89.0052 105.571 89.1173 105.694 89.2554 105.782C89.3923 105.87 89.5495 105.92 89.7116 105.929C89.8738 105.937 90.0354 105.903 90.1807 105.831L138.653 80.9721L174.497 78.2657C174.55 78.2729 174.604 78.2729 174.657 78.2657L194.291 73.2007L185.838 103.117C185.835 103.15 185.835 103.182 185.838 103.215L184.446 111.48H183.653C183.61 111.48 183.568 111.49 183.53 111.508C183.491 111.527 183.457 111.554 183.43 111.587C183.404 111.621 183.385 111.66 183.375 111.701C183.366 111.743 183.365 111.786 183.375 111.828L184.551 115.091C184.565 115.151 184.596 115.206 184.64 115.25C184.684 115.293 184.739 115.323 184.8 115.336C184.86 115.349 184.923 115.345 184.981 115.324C185.039 115.303 185.09 115.265 185.128 115.216L187.327 112.037C187.466 111.842 187.327 111.605 187.027 111.592H186.332L187.647 103.618L196.545 72.1362C196.593 71.9761 196.596 71.806 196.555 71.6441C196.513 71.4823 196.428 71.3349 196.309 71.2178Z" fill="#7E2EBC"/>
<path d="M196.309 71.2178C196.195 71.0998 196.052 71.0144 195.894 70.9703C195.736 70.9263 195.569 70.9253 195.411 70.9674L174.282 76.415L138.333 79.1284C138.209 79.136 138.088 79.1692 137.978 79.2258L90.793 103.444L91.4887 88.1382V67.4539C91.4887 67.3315 91.4646 67.2102 91.4177 67.0971C91.3709 66.984 91.3022 66.8812 91.2157 66.7947C91.1291 66.7081 91.0263 66.6394 90.9132 66.5926C90.8001 66.5457 90.6789 66.5216 90.5564 66.5216H81.0526C80.8054 66.5216 80.5683 66.6198 80.3934 66.7947C80.2186 66.9695 80.1204 67.2066 80.1204 67.4539C80.1204 67.7012 80.2186 67.9383 80.3934 68.1131C80.5683 68.288 80.8054 68.3862 81.0526 68.3862H89.5824V88.0686L88.831 104.954C88.8216 105.117 88.856 105.28 88.9306 105.426C89.0052 105.571 89.1173 105.694 89.2554 105.782C89.3923 105.87 89.5495 105.92 89.7116 105.929C89.8738 105.937 90.0354 105.903 90.1807 105.831L138.653 80.9721L174.497 78.2657C174.55 78.2729 174.604 78.2729 174.657 78.2657L194.291 73.2007L185.838 103.117C185.835 103.15 185.835 103.182 185.838 103.215L184.446 111.48H183.653C183.61 111.48 183.568 111.49 183.53 111.508C183.491 111.527 183.457 111.554 183.43 111.587C183.404 111.621 183.385 111.66 183.375 111.701C183.366 111.743 183.365 111.786 183.375 111.828L184.551 115.091C184.565 115.151 184.596 115.206 184.64 115.25C184.684 115.293 184.739 115.323 184.8 115.336C184.86 115.349 184.923 115.345 184.981 115.324C185.039 115.303 185.09 115.265 185.128 115.216L187.327 112.037C187.466 111.842 187.327 111.605 187.027 111.592H186.332L187.647 103.618L196.545 72.1362C196.593 71.9761 196.596 71.806 196.555 71.6441C196.513 71.4823 196.428 71.3349 196.309 71.2178Z" fill="black"/>
<path d="M85.2268 33.9679C84.2828 33.0231 83.1619 32.2737 81.9281 31.7623C80.6944 31.251 79.3719 30.9878 78.0364 30.9878C76.7008 30.9878 75.3784 31.251 74.1446 31.7623C72.9108 32.2737 71.7899 33.0231 70.8459 33.9679C68.9413 35.8762 67.8716 38.4622 67.8716 41.1583C67.8716 43.8545 68.9413 46.4405 70.8459 48.3488L78.0398 55.5358L85.2268 48.3488C86.1716 47.4048 86.921 46.2839 87.4324 45.0501C87.9437 43.8163 88.2069 42.4939 88.2069 41.1583C88.2069 39.8228 87.9437 38.5003 87.4324 37.2666C86.921 36.0328 86.1716 34.9119 85.2268 33.9679ZM81.0524 44.1187C80.4676 44.7001 79.7238 45.0952 78.9147 45.2543C78.1056 45.4134 77.2675 45.3293 76.5061 45.0127C75.7448 44.696 75.0943 44.1609 74.6366 43.475C74.179 42.789 73.9348 41.9829 73.9348 41.1583C73.9348 40.3337 74.179 39.5276 74.6366 38.8417C75.0943 38.1557 75.7448 37.6207 76.5061 37.304C77.2675 36.9873 78.1056 36.9032 78.9147 37.0623C79.7238 37.2214 80.4676 37.6166 81.0524 38.198C81.4426 38.5859 81.7523 39.0472 81.9636 39.5552C82.1749 40.0633 82.2837 40.6081 82.2837 41.1583C82.2837 41.7086 82.1749 42.2534 81.9636 42.7614C81.7523 43.2695 81.4426 43.7307 81.0524 44.1187Z" fill="#D42F55"/>
<path d="M70.8531 45.6144C71.6534 47.2454 72.7946 48.6856 74.1996 49.8375" stroke="white" stroke-width="0.694301" stroke-linecap="round" stroke-linejoin="round"/>
<path d="M73.3229 33.8704C69.8442 35.9576 68.9397 39.9859 70.0807 43.6942" stroke="white" stroke-width="0.694301" stroke-linecap="round" stroke-linejoin="round"/>
<path d="M78.0681 32.5211C77.1888 32.5253 76.3147 32.6565 75.473 32.9107" stroke="white" stroke-width="0.694301" stroke-linecap="round" stroke-linejoin="round"/>
<path d="M176.953 98.574C176.009 97.6292 174.888 96.8797 173.654 96.3684C172.421 95.8571 171.098 95.5939 169.763 95.5939C168.427 95.5939 167.105 95.8571 165.871 96.3684C164.637 96.8797 163.516 97.6292 162.572 98.574C161.627 99.5179 160.878 100.639 160.367 101.873C159.855 103.106 159.592 104.429 159.592 105.764C159.592 107.1 159.855 108.422 160.367 109.656C160.878 110.89 161.627 112.011 162.572 112.955L169.759 120.142L176.953 112.955C177.898 112.011 178.647 110.89 179.159 109.656C179.67 108.422 179.933 107.1 179.933 105.764C179.933 104.429 179.67 103.106 179.159 101.873C178.647 100.639 177.898 99.5179 176.953 98.574ZM172.723 108.725C172.138 109.306 171.394 109.701 170.585 109.86C169.776 110.019 168.938 109.935 168.177 109.619C167.415 109.302 166.765 108.767 166.307 108.081C165.85 107.395 165.605 106.589 165.605 105.764C165.605 104.94 165.85 104.134 166.307 103.448C166.765 102.762 167.415 102.227 168.177 101.91C168.938 101.593 169.776 101.509 170.585 101.668C171.394 101.828 172.138 102.223 172.723 102.804C173.113 103.192 173.423 103.653 173.634 104.161C173.845 104.669 173.954 105.214 173.954 105.764C173.954 106.315 173.845 106.859 173.634 107.368C173.423 107.876 173.113 108.337 172.723 108.725Z" fill="#D42F55"/>
<path d="M162.551 110.221C163.351 111.854 164.492 113.297 165.898 114.451" stroke="white" stroke-width="0.694301" stroke-linecap="round" stroke-linejoin="round"/>
<path d="M165.021 98.4696C161.543 100.557 160.638 104.578 161.779 108.293" stroke="white" stroke-width="0.694301" stroke-linecap="round" stroke-linejoin="round"/>
<path d="M169.759 97.1268C168.882 97.1339 168.011 97.2651 167.171 97.5164" stroke="white" stroke-width="0.694301" stroke-linecap="round" stroke-linejoin="round"/>
<path d="M236.828 99.3739C236.007 99.7079 229.133 100.522 229.133 100.522C229.293 98.8869 232.737 95.937 232.737 94.302C232.764 94.1094 232.742 93.9132 232.674 93.7311C232.606 93.5489 232.494 93.3865 232.348 93.2583C232.202 93.13 232.026 93.0401 231.837 92.9964C231.647 92.9527 231.45 92.9567 231.262 93.0079C230.935 95.1369 225.529 99.0609 224.381 99.5548C223.234 100.049 220.124 110.527 218.44 112.169C205.221 125.346 192.698 132.964 188.029 142.085C185.038 147.728 180.637 152.5 175.255 155.937C175.255 155.937 172.556 190.683 182.867 175.244C193.178 159.806 196.872 160.71 202.027 153.836C207.183 146.962 217.257 131.274 225.119 118.055C229.133 114.645 232.243 116.225 234.699 113.769C235.221 113.247 234.866 111.146 235.68 109.768C236.494 108.391 237.809 105.907 237.649 104.432C237.489 102.957 238.797 102.143 238.957 101.322C239.117 100.501 237.649 99.0469 236.828 99.3739Z" fill="#F6F6F6" stroke="#263238" stroke-width="0.694301" stroke-miterlimit="10"/>
<path d="M78.2695 147.679C75.5979 137.779 64.9113 127.739 54.7118 112.113C53.4108 110.158 52.5272 99.2697 51.5184 98.574C50.5095 97.8783 46.022 92.8968 46.1403 90.7469C45.9665 90.6575 45.773 90.6128 45.5776 90.617C45.3821 90.6211 45.1908 90.6739 45.0208 90.7706C44.8509 90.8673 44.7078 91.0048 44.6044 91.1708C44.5011 91.3367 44.4407 91.5258 44.4288 91.721C44.0879 93.3212 46.843 96.9181 46.6691 98.5531C46.6691 98.5531 40.1083 96.3337 39.3708 95.8398C38.6333 95.3458 36.894 96.4868 36.887 97.3217C36.88 98.1566 37.9863 99.228 37.5201 100.64C37.054 102.053 37.8262 104.752 38.3411 106.269C38.8559 107.786 38.0767 109.748 38.4733 110.381C40.3726 113.296 43.74 112.391 46.9613 116.559C51.9289 131.058 58.5314 148.514 62.1562 156.313C65.781 164.113 69.5728 163.966 76.4745 181.228C83.3762 198.489 87.9194 163.911 87.9194 163.911C83.354 159.425 80.0292 153.833 78.2695 147.679Z" fill="#F6F6F6" stroke="#263238" stroke-width="0.694301" stroke-miterlimit="10"/>
<path d="M82.6109 152.389C82.6109 152.389 84.392 148.159 81.0663 146.823C77.7407 145.488 73.5593 147.902 73.5593 147.902C73.5593 147.902 67.416 149.439 67.1724 155.938C67.1724 155.938 65.781 177.742 70.9016 177.825C76.0222 177.909 82.6109 152.389 82.6109 152.389Z" fill="#999999" stroke="#263238" stroke-width="0.694301" stroke-linecap="round" stroke-linejoin="round"/>
<path d="M178.455 153.147C178.455 153.147 178.184 149.724 182.359 150.177C186.533 150.629 189.97 156.577 189.726 164.905C189.726 164.905 191.64 175.529 186.505 175.237C181.371 174.945 178.455 153.147 178.455 153.147Z" fill="#999999" stroke="#263238" stroke-width="0.694301" stroke-linecap="round" stroke-linejoin="round"/>
<path d="M97.8821 171.967C97.8821 171.967 83.6542 155.388 81.0522 149.655C81.0522 149.655 71.2562 149.335 69.9204 157.927C69.1615 163.672 69.1615 169.492 69.9204 175.237C69.9204 175.237 79.5772 201.592 83.5916 211.569L97.8821 171.967Z" fill="#CFD1D4"/>
<mask id="mask0_13299_37649" style="mask-type:luminance" maskUnits="userSpaceOnUse" x="69" y="149" width="29" height="63">
<path d="M97.8821 171.967C97.8821 171.967 83.6542 155.388 81.0522 149.655C81.0522 149.655 71.2562 149.335 69.9204 157.927C69.1615 163.672 69.1615 169.492 69.9204 175.237C69.9204 175.237 79.5772 201.592 83.5916 211.569L97.8821 171.967Z" fill="white"/>
</mask>
<g mask="url(#mask0_13299_37649)">
<g opacity="0.3">
<path d="M92.8795 165.963C90.5681 166.27 88.338 167.022 86.3118 168.176C85.776 168.468 85.2334 168.795 84.6907 169.163C84.1851 169.503 83.7185 169.897 83.2992 170.339C81.212 172.426 79.8205 175.578 78.9509 179.286C78.4995 181.203 78.165 183.146 77.949 185.103C77.569 188.528 77.4109 191.975 77.4759 195.421C76.2931 192.283 75.1243 189.159 74.0668 186.3C74.2545 184.164 74.5658 182.04 74.9991 179.94C75.3405 178.255 75.8056 176.597 76.3905 174.98C77.33 172.041 78.9788 169.379 81.1911 167.229C81.6421 166.811 82.1261 166.429 82.6383 166.088C83.1809 165.727 83.7236 165.393 84.2524 165.086C86.1291 164.004 88.151 163.196 90.2566 162.686L92.8795 165.963Z" fill="#3C3C43" fill-opacity="0.3"/>
</g>
<g opacity="0.3">
<path d="M87.4108 159.103C85.4898 159.654 83.6091 160.338 81.7823 161.148C81.1492 161.427 80.5021 161.733 79.8273 162.06C79.3415 162.295 78.8761 162.569 78.4358 162.881C76.119 164.551 74.5118 167.236 73.3917 170.304C72.8298 171.907 72.3857 173.549 72.0628 175.216C71.7915 176.608 71.5897 177.999 71.4297 179.349L69.9269 175.258C69.9269 175.258 69.6903 173.672 69.5164 171.195C69.5164 170.944 69.5164 170.687 69.4677 170.423C69.8797 169.103 70.3819 167.813 70.9705 166.561C72.1979 163.785 74.1402 161.384 76.599 159.604C77.0964 159.266 77.6172 158.964 78.1575 158.699C78.7558 158.4 79.3472 158.129 79.9177 157.872C81.5752 157.122 83.2731 156.464 85.0035 155.903C85.7758 156.939 86.5759 158.004 87.4108 159.103Z" fill="#3C3C43" fill-opacity="0.3"/>
</g>
<g opacity="0.3">
<path d="M82.3602 151.993C80.7718 152.407 79.2394 153.012 77.7961 153.795C76.6859 154.383 75.625 155.06 74.6236 155.819C72.8089 157.184 71.1417 158.735 69.649 160.446C69.7256 159.611 69.8299 158.769 69.9552 157.934C70.2245 155.828 71.2358 153.886 72.8077 152.459L72.8981 152.403C73.6426 151.868 74.4135 151.371 75.208 150.914C75.5002 150.74 75.7994 150.58 76.0985 150.42L76.1542 150.532C76.6997 150.333 77.2574 150.171 77.824 150.045C78.8802 149.8 79.9609 149.676 81.0452 149.676C81.4349 150.475 81.874 151.248 82.3602 151.993Z" fill="#3C3C43" fill-opacity="0.3"/>
</g>
<g opacity="0.3">
<path d="M90.9038 173.992L88.1209 176.483C86.3785 174.532 84.7523 172.481 83.2507 170.339C82.5202 169.317 81.8175 168.252 81.1287 167.215C80.2034 165.782 79.3059 164.328 78.4501 162.867C77.8193 161.782 77.207 160.696 76.6133 159.611C75.9176 158.338 75.2219 157.065 74.6096 155.819C73.9974 154.574 73.4408 153.495 72.9051 152.382C73.6068 151.786 74.3862 151.287 75.2219 150.9C75.5141 150.726 75.8132 150.566 76.1124 150.406L76.1681 150.518C76.6829 151.582 77.2186 152.681 77.7891 153.802C78.4849 155.137 79.1806 156.508 79.939 157.886C80.5327 158.971 81.1449 160.056 81.7757 161.142C82.5549 162.464 83.362 163.776 84.1969 165.079C84.8787 166.137 85.5745 167.171 86.2841 168.182C87.7116 170.206 89.254 172.145 90.9038 173.992Z" fill="#3C3C43" fill-opacity="0.3"/>
</g>
<g opacity="0.3">
<path d="M87.3136 197.014L83.7306 198.064C82.6661 194.439 80.5302 189.896 77.9142 185.103C76.9889 183.398 75.994 181.666 74.9643 179.933C74.032 178.347 73.0649 176.768 72.0909 175.209C71.2491 173.818 70.4003 172.496 69.5445 171.188C69.5445 170.937 69.5445 170.68 69.4958 170.416C69.3914 168.628 69.3358 166.478 69.4123 164.154L70.9986 166.554C71.7917 167.765 72.6057 169.024 73.4198 170.297C74.3938 171.828 75.3748 173.393 76.3419 174.973C77.2185 176.406 78.0812 177.853 78.9161 179.293C82.6452 185.715 85.8665 192.102 87.3136 197.014Z" fill="#3C3C43" fill-opacity="0.3"/>
</g>
<path opacity="0.2" d="M87.0213 202.141L83.6261 211.569C79.6117 201.592 69.9549 175.244 69.9549 175.244C69.1961 169.499 69.1961 163.679 69.9549 157.934C70.7689 152.591 74.8251 150.691 77.8446 150.024C78.0229 150.053 78.1994 150.092 78.3733 150.142C78.3733 150.142 70.6228 155.102 71.4716 174.2L79.0204 195.073C79.0204 195.073 79.8135 187.802 82.833 188.853C84.134 189.319 85.9847 195.351 87.0213 202.141Z" fill="black" fill-opacity="0.7"/>
</g>
<path d="M97.8821 171.967C97.8821 171.967 83.6542 155.388 81.0522 149.655C81.0522 149.655 71.2562 149.335 69.9204 157.927C69.1615 163.672 69.1615 169.492 69.9204 175.237C69.9204 175.237 79.5772 201.592 83.5916 211.569L97.8821 171.967Z" stroke="#263238" stroke-width="0.694301" stroke-linecap="round" stroke-linejoin="round"/>
<path d="M128.516 157.162C128.446 157.447 128.161 157.684 127.681 157.858C126.319 158.211 124.905 158.315 123.507 158.164C114.636 157.677 96.6372 152.41 92.3445 141.932C87.7595 130.752 99.5245 116.155 112.117 115.842C119.353 115.668 125.455 124.191 126.923 134.237C127.667 139.08 131.779 143.101 128.516 157.162Z" fill="#F6F6F6" stroke="#263238" stroke-width="0.694301" stroke-miterlimit="10"/>
<path d="M122.365 141.014C121.885 141.935 121.712 142.986 121.871 144.013" stroke="#263238" stroke-width="0.694301" stroke-linecap="round" stroke-linejoin="round"/>
<path d="M122.435 146.816C122.435 146.816 123.722 148.556 124.648 147.749" stroke="#263238" stroke-width="0.694301" stroke-linecap="round" stroke-linejoin="round"/>
<path d="M127.667 157.858C126.305 158.211 124.891 158.315 123.492 158.164C123.673 156.849 124.021 155.325 124.132 154.56C124.494 152.146 123.283 151.394 123.798 151.22C124.313 151.046 124.264 153.196 125.287 154.289C126.238 155.365 127.039 156.566 127.667 157.858Z" fill="#263238"/>
<path d="M124.188 156.021C124.188 156.021 122.609 162.074 122.797 165.142C123.009 167.495 123.435 169.824 124.07 172.1L104.965 173.206C104.965 173.206 107.825 159.451 106.294 154.637C104.763 149.822 118.511 151.575 118.511 151.575" fill="#F6F6F6"/>
<path d="M124.188 156.021C124.188 156.021 122.609 162.074 122.797 165.142C123.009 167.495 123.435 169.824 124.07 172.1L104.965 173.206C104.965 173.206 107.825 159.451 106.294 154.637C104.763 149.822 118.511 151.575 118.511 151.575" stroke="#263238" stroke-width="0.694301" stroke-miterlimit="10"/>
<path d="M122.004 127.628C122.804 125.026 124.23 125.29 124.23 125.29C124.23 125.29 123.305 112.802 117.968 111.473C114.364 110.568 113.376 115.995 109.619 112.085C107.532 109.894 103.72 109.302 101.166 111.153C99.6565 112.266 99.7052 113.817 98.6963 115.167C97.6875 116.517 95.6073 116.461 94.0766 116.774C91.7111 117.254 89.3108 119.015 88.8169 121.505C88.4133 123.537 90.9041 125.144 90.4171 126.814C89.8396 128.811 87.982 130.021 86.834 131.684C85.4425 133.674 85.3173 136.262 85.853 138.572C86.6531 142.009 88.4272 143.352 91.1893 145.105C92.5808 145.981 93.3948 147.575 94.2506 148.917C97.117 153.426 100.596 156.724 106.078 157.656C117.078 159.534 122.004 149.384 122.004 149.384C122.004 149.384 120.765 139.323 121.663 138.175C122.56 137.027 124.446 140.958 124.446 140.958C126.735 134.836 122.004 127.628 122.004 127.628Z" fill="#263238"/>
<path d="M124.557 142.51C124.223 141.286 124.46 136.249 122.936 136.708C121.6 137.118 122.24 142.315 123.632 145.787C125.023 149.259 126.728 149.266 126.776 148.257C126.825 147.248 125.67 146.615 125.385 145.161" fill="#BFBFBF"/>
<path d="M124.557 142.51C124.223 141.286 124.46 136.249 122.936 136.708C121.6 137.118 122.24 142.315 123.632 145.787C125.023 149.259 126.728 149.266 126.776 148.257C126.825 147.248 125.67 146.615 125.385 145.161" stroke="#263238" stroke-width="0.694301" stroke-miterlimit="10"/>
<path opacity="0.3" d="M121.217 121.381C121.217 121.381 121.823 115.641 117.947 115.815C114.072 115.989 114.274 121.381 114.274 121.381C114.274 121.381 111.018 120.274 109.905 122.153C108.791 124.031 109.939 127.83 109.939 127.83C109.939 127.83 106.461 128.936 107.316 131.267C108.172 133.598 105.925 133.946 105.925 133.946" stroke="white" stroke-width="0.694301" stroke-linecap="round" stroke-linejoin="round"/>
<path opacity="0.3" d="M120.334 126.069C120.334 126.069 119.721 131.148 116.097 131.267C116.097 131.267 112.367 142.732 99.698 142.489" stroke="white" stroke-width="0.694301" stroke-linecap="round" stroke-linejoin="round"/>
<path opacity="0.3" d="M110.628 115.049C110.628 115.049 107.706 112.315 104.193 113.992C100.679 115.668 103.017 120.427 103.017 120.427C103.017 120.427 99.6077 120.218 98.4876 122.793C97.3674 125.367 100.686 127.051 100.686 127.051C100.686 127.051 96.9013 129.061 98.4876 130.654C100.074 132.248 98.4876 135.448 98.4876 135.448" stroke="white" stroke-width="0.694301" stroke-linecap="round" stroke-linejoin="round"/>
<path opacity="0.3" d="M96.0176 120.427C96.0176 120.427 90.7161 122.097 91.8432 126.07C92.9703 130.042 93.8608 130.029 93.8608 130.029C93.8608 130.029 89.8882 131.42 89.6447 134.28C89.4012 137.139 92.8381 137.021 92.8381 137.021C92.8381 137.021 91.7319 139.901 94.5566 140.986" stroke="white" stroke-width="0.694301" stroke-linecap="round" stroke-linejoin="round"/>
<path d="M97.8821 170.235C97.8821 170.235 110.677 161.19 133.963 170.694L151.433 166.617C151.433 166.617 162.732 197.306 155.955 228.76C155.955 228.76 140.795 239.635 115.415 239.579C87.8843 239.51 81.0661 228.76 81.0661 228.76L85.0039 218.721C82.6315 207.255 79.5633 188.874 81.901 179.356C85.4562 164.885 97.8821 170.235 97.8821 170.235Z" fill="#CFD1D4"/>
<mask id="mask1_13299_37649" style="mask-type:luminance" maskUnits="userSpaceOnUse" x="81" y="166" width="78" height="74">
<path d="M97.8821 170.235C97.8821 170.235 110.677 161.19 133.963 170.694L151.433 166.617C151.433 166.617 162.732 197.306 155.955 228.76C155.955 228.76 140.795 239.635 115.415 239.579C87.8843 239.51 81.0661 228.76 81.0661 228.76L85.0039 218.721C82.6315 207.255 79.5633 188.874 81.901 179.356C85.4562 164.885 97.8821 170.235 97.8821 170.235Z" fill="white"/>
</mask>
<g mask="url(#mask1_13299_37649)">
<g opacity="0.3">
<path d="M150.167 232.01C149.109 232.524 147.899 233.067 146.563 233.624C146.452 232.295 146.34 230.98 146.243 229.679C146.145 228.378 146.041 227.035 145.951 225.734C145.658 221.796 145.415 218.025 145.206 214.442C145.127 213.079 145.055 211.74 144.991 210.428C144.712 205.057 144.51 200.117 144.385 195.609C144.343 194.147 144.306 192.735 144.274 191.371C144.177 186.585 144.142 182.355 144.17 178.681C144.17 177.234 144.17 175.898 144.211 174.59C144.253 172.169 144.309 170.054 144.378 168.245L148.128 167.369C148.073 168.941 148.01 170.785 147.968 172.9C147.968 174.201 147.92 175.592 147.906 177.074C147.906 180.553 147.906 184.637 147.968 189.263C147.968 190.655 147.998 192.109 148.059 193.626C148.175 198.199 148.369 203.252 148.643 208.786C148.713 210.108 148.775 211.464 148.852 212.842C149.061 216.432 149.293 220.207 149.548 224.169C149.645 225.472 149.745 226.794 149.847 228.134C149.965 229.421 150.062 230.702 150.167 232.01Z" fill="#3C3C43" fill-opacity="0.3"/>
</g>
<g opacity="0.3">
<path d="M139.112 169.477C138.833 171.529 138.541 173.985 138.249 176.81C138.11 178.09 137.971 179.454 137.846 180.887C137.477 184.978 137.15 189.653 136.885 194.802C136.823 196.151 136.76 197.536 136.718 198.976C136.551 203.575 136.468 208.501 136.524 213.698C136.524 215.006 136.524 216.328 136.579 217.664C136.653 221.374 136.802 225.224 137.025 229.213C137.101 230.493 137.178 231.787 137.275 233.095C137.349 234.292 137.44 235.495 137.546 236.706C136.371 237.026 135.146 237.332 133.873 237.61C133.782 236.504 133.692 235.405 133.622 234.313C133.525 233.018 133.441 231.731 133.365 230.458C133.121 226.451 132.968 222.548 132.885 218.763C132.843 217.448 132.822 216.154 132.808 214.867C132.746 209.725 132.808 204.841 132.948 200.256C132.989 198.865 133.04 197.517 133.101 196.214C133.323 190.975 133.65 186.195 134.012 181.972C134.137 180.581 134.255 179.252 134.381 177.986C134.673 175.112 134.965 172.566 135.236 170.395L139.112 169.477Z" fill="#3C3C43" fill-opacity="0.3"/>
</g>
<g opacity="0.3">
<path d="M126.644 168.148C126.268 171.112 125.823 175.105 125.378 179.85C125.257 181.079 125.144 182.359 125.037 183.691C124.675 188.109 124.341 193.076 124.063 198.447C124 199.714 123.938 200.994 123.889 202.302C123.701 206.935 123.59 211.833 123.569 216.912C123.569 218.164 123.569 219.431 123.569 220.711C123.569 224.746 123.68 228.893 123.854 233.102C123.903 234.361 123.959 235.621 124.028 236.894C124.028 237.631 124.105 238.362 124.153 239.099C122.943 239.218 121.704 239.322 120.438 239.385C120.403 238.807 120.369 238.23 120.341 237.659C120.271 236.4 120.209 235.147 120.16 233.895C119.972 229.561 119.875 225.296 119.847 221.135C119.847 219.876 119.847 218.631 119.847 217.385C119.847 212.299 119.972 207.401 120.153 202.775C120.202 201.488 120.25 200.228 120.313 198.983C120.57 193.605 120.904 188.61 121.273 184.15C121.377 182.842 121.489 181.576 121.6 180.365C122.094 174.952 122.602 170.499 122.992 167.292C124.188 167.543 125.385 167.828 126.644 168.148Z" fill="#3C3C43" fill-opacity="0.3"/>
</g>
<g opacity="0.3">
<path d="M113.453 239.531C112.152 239.531 110.892 239.454 109.682 239.37C109.682 239.162 109.633 238.946 109.612 238.723C109.487 237.513 109.383 236.267 109.299 234.98C109.007 230.639 108.916 225.936 108.826 220.878C108.826 220.669 108.826 220.474 108.826 220.266C108.826 219.229 108.791 218.178 108.77 217.093C108.687 212.564 108.562 207.735 108.276 202.636C108.207 201.397 108.13 200.131 108.04 198.858C107.915 197.056 107.769 195.233 107.595 193.375C107.282 190.077 107.121 187.114 107.087 184.372C107.087 183.05 107.087 181.805 107.128 180.629C107.195 175.879 107.897 171.16 109.216 166.596C110.549 166.444 111.889 166.361 113.23 166.346C112.235 169.073 111.094 173.686 110.872 180.831C110.837 182.007 110.823 183.245 110.872 184.56C110.899 187.107 111.057 189.927 111.345 193.02C111.544 195.122 111.713 197.186 111.853 199.212C111.936 200.479 112.013 201.724 112.075 202.956C112.346 208.111 112.465 212.981 112.548 217.566C112.548 218.471 112.548 219.354 112.597 220.231C112.597 220.593 112.597 220.926 112.597 221.309C112.687 226.179 112.778 230.778 113.07 234.953C113.154 236.233 113.258 237.471 113.397 238.668C113.376 238.946 113.418 239.238 113.453 239.531Z" fill="#3C3C43" fill-opacity="0.3"/>
</g>
<g opacity="0.3">
<path d="M101.006 183.544C100.861 185.963 100.845 188.388 100.957 190.808C101.075 193.125 101.124 195.323 101.124 197.445C101.124 198.76 101.124 200.033 101.075 201.3C100.964 205.613 100.686 209.704 100.38 213.92C100.38 214.296 100.331 214.679 100.303 215.061C100.213 216.328 100.129 217.608 100.053 218.909C99.8301 222.387 99.6562 226.012 99.6144 229.915C99.6144 230.959 99.6144 232.003 99.6144 232.949C99.6422 234.377 99.6956 235.729 99.7744 237.005C99.7744 237.388 99.8162 237.77 99.851 238.139C98.4966 237.875 97.2303 237.578 96.0522 237.248C96.0174 236.692 95.9896 236.121 95.9618 235.53C95.8992 234.18 95.8713 232.747 95.8644 231.279C95.8644 230.82 95.8644 230.347 95.8644 229.887C95.9061 225.525 96.1149 221.539 96.3584 217.705C96.4488 216.383 96.5323 215.089 96.6227 213.802C96.6227 213.76 96.6227 213.712 96.6227 213.663C96.9358 209.161 97.235 204.82 97.3185 200.193C97.3185 198.899 97.3185 197.584 97.3185 196.235C97.3185 194.551 97.2559 192.812 97.1654 191.003C97.0348 188.237 97.0604 185.466 97.2419 182.703C97.3115 181.429 97.4159 180.163 97.5272 178.904C97.8333 175.655 98.2716 172.496 98.7378 169.664C99.8543 169.069 101.018 168.567 102.216 168.162H102.251C102.432 168.092 102.62 168.029 102.815 167.974C102.196 171.452 101.569 175.564 101.187 179.801C101.159 181.033 101.069 182.292 101.006 183.544Z" fill="#3C3C43" fill-opacity="0.3"/>
</g>
<g opacity="0.3">
<path d="M96.3585 169.713C96.8873 169.845 97.3117 169.992 97.5691 170.082C95.0547 171.688 93.2214 174.165 92.4206 177.039C92.0659 178.274 91.8672 179.547 91.8293 180.831C91.7921 181.722 91.813 182.615 91.8919 183.503C92.2073 187.134 92.4067 190.641 92.4902 194.022C92.5389 195.414 92.5598 196.805 92.5598 198.197C92.5797 202.718 92.3638 207.237 91.9127 211.736C91.7875 213.058 91.6344 214.363 91.4536 215.653C91.3562 216.397 91.2518 217.142 91.1335 217.879C90.6952 220.662 90.2638 224.029 89.909 227.459C89.7629 228.914 89.6238 230.375 89.5055 231.822C89.4266 232.81 89.3571 233.784 89.2968 234.744C88.0524 234.174 86.8504 233.516 85.6998 232.775C85.7902 231.571 85.9016 230.368 86.0129 229.206C86.166 227.592 86.3329 226.047 86.4999 224.635C86.9869 220.426 87.4461 217.385 87.46 217.302C87.627 216.212 87.7801 215.105 87.9192 213.983C88.0862 212.661 88.2253 211.323 88.3367 209.969C88.7441 205.414 88.9043 200.841 88.8167 196.27C88.8167 194.808 88.7541 193.334 88.6915 191.824C88.5848 189.231 88.4132 186.559 88.1766 183.809C88.0293 182.272 88.0293 180.726 88.1766 179.189C88.3042 177.901 88.5677 176.63 88.9628 175.397C89.7048 173.064 90.9955 170.943 92.7268 169.212C93.9537 169.224 95.1741 169.393 96.3585 169.713Z" fill="#3C3C43" fill-opacity="0.3"/>
</g>
<g opacity="0.3">
<path d="M153.708 174.138C152.115 175.043 150.174 176.065 147.899 177.095C146.744 177.624 145.501 178.153 144.17 178.681C142.236 179.447 140.121 180.191 137.845 180.887C136.616 181.263 135.338 181.617 134.012 181.951C131.054 182.699 128.058 183.289 125.037 183.719C123.812 183.892 122.546 184.039 121.266 184.164C118.539 184.435 115.7 184.581 112.722 184.581C112.18 184.581 111.644 184.581 111.108 184.581H110.816C109.536 184.581 108.284 184.491 107.073 184.393C105.038 184.224 103.012 183.948 101.006 183.565C99.726 183.315 98.4945 183.032 97.3118 182.717C95.4391 182.218 93.5989 181.604 91.8015 180.88C90.5307 180.374 89.3224 179.832 88.1767 179.252C86.3716 178.343 84.6285 177.316 82.9587 176.177C83.4383 175.025 84.0726 173.943 84.8442 172.962C86.1687 173.872 87.5438 174.706 88.9629 175.46C90.0344 176.031 91.1823 176.58 92.3929 177.088C94.0874 177.807 95.8256 178.418 97.597 178.918C98.7659 179.259 99.9904 179.551 101.271 179.808C103.2 180.203 105.152 180.485 107.115 180.65C108.318 180.762 109.557 180.824 110.837 180.852H111.171C111.679 180.852 112.18 180.852 112.681 180.852C115.658 180.852 118.633 180.692 121.593 180.372C122.887 180.233 124.149 180.066 125.378 179.871C128.413 179.405 131.419 178.766 134.381 177.958C135.723 177.596 137.011 177.206 138.249 176.803C140.406 176.107 142.423 175.342 144.211 174.583C145.603 174.02 146.814 173.449 147.962 172.893C149.805 172.002 151.378 171.153 152.658 170.402C152.978 171.46 153.333 172.712 153.708 174.138Z" fill="#3C3C43" fill-opacity="0.3"/>
</g>
<g opacity="0.3">
<path d="M156.589 188.06C153.862 190.091 151.011 191.95 148.052 193.626C146.89 194.321 145.672 194.947 144.385 195.588C141.899 196.847 139.344 197.964 136.732 198.934C135.508 199.393 134.255 199.825 132.961 200.214C130 201.126 126.978 201.824 123.917 202.301C122.692 202.489 121.44 202.649 120.174 202.761C118.457 202.918 116.704 202.999 114.914 203.004C113.968 203.004 113.007 203.004 112.047 202.928C110.802 202.865 109.557 202.761 108.29 202.608C108.047 202.608 107.803 202.552 107.56 202.524C105.384 202.238 103.228 201.82 101.103 201.272C99.8233 200.938 98.5895 200.567 97.4021 200.159C95.7463 199.593 94.1207 198.943 92.5319 198.21C91.2239 197.605 89.9786 196.958 88.7888 196.283C86.0828 194.741 83.5214 192.957 81.1357 190.954C81.0662 189.18 81.0522 187.475 81.1357 185.861C83.4528 188.098 85.9861 190.1 88.6984 191.838C89.8997 192.612 91.166 193.34 92.4971 194.022C94.0951 194.844 95.7399 195.571 97.423 196.2C98.6196 196.652 99.872 197.056 101.159 197.417C103.418 198.049 105.72 198.514 108.047 198.809C109.313 198.976 110.565 199.094 111.818 199.164C114.655 199.316 117.5 199.244 120.327 198.948C121.6 198.816 122.859 198.642 124.084 198.426C127.152 197.896 130.176 197.133 133.128 196.144C134.422 195.713 135.689 195.247 136.913 194.753C139.437 193.744 141.904 192.597 144.302 191.316C145.605 190.62 146.834 189.924 147.989 189.229C150.734 187.578 153.378 185.766 155.907 183.802C156.129 185.193 156.366 186.599 156.589 188.06Z" fill="#3C3C43" fill-opacity="0.3"/>
</g>
<g opacity="0.3">
<path d="M158.119 207.408V208.25C155.448 209.704 152.31 211.297 148.845 212.863C147.669 213.399 146.452 213.927 145.206 214.442C142.472 215.583 139.571 216.676 136.579 217.643C135.369 218.032 134.13 218.401 132.885 218.742C129.825 219.606 126.713 220.276 123.569 220.746C122.33 220.926 121.092 221.066 119.847 221.17C118.372 221.295 116.89 221.365 115.422 221.365C114.462 221.365 113.508 221.365 112.555 221.281C111.421 221.212 110.294 221.093 109.167 220.933L108.826 220.878C105.864 220.44 102.937 219.791 100.067 218.937C98.8214 218.561 97.6039 218.157 96.4002 217.726C94.698 217.105 93.0398 216.437 91.4257 215.722C90.2151 215.189 89.037 214.632 87.8914 214.053C86.421 213.324 85.011 212.568 83.6613 211.784C83.376 210.205 83.0977 208.563 82.8264 206.914C84.5518 207.986 86.3793 209.034 88.3088 210.059C89.4637 210.664 90.6604 211.256 91.8849 211.826C93.4294 212.545 95.0227 213.218 96.6646 213.844C97.8543 214.296 99.0719 214.727 100.317 215.11C103.076 215.996 105.897 216.675 108.757 217.142C109.07 217.197 109.383 217.246 109.703 217.288C110.621 217.42 111.553 217.517 112.486 217.587C114.934 217.738 117.39 217.699 119.833 217.469C121.078 217.35 122.316 217.197 123.562 216.996C126.683 216.499 129.77 215.802 132.801 214.908C134.054 214.547 135.292 214.157 136.516 213.739C139.459 212.752 142.298 211.652 144.984 210.49C146.236 209.962 147.453 209.412 148.629 208.869C152.233 207.193 155.448 205.502 158.063 204.041C158.105 205.112 158.119 206.253 158.119 207.408Z" fill="#3C3C43" fill-opacity="0.3"/>
</g>
<g opacity="0.3">
<path d="M157.326 220.599C157.243 221.295 157.145 221.991 157.041 222.687C156.936 223.382 156.797 224.259 156.665 225.052C154.787 225.943 152.491 227 149.868 228.134C148.72 228.635 147.502 229.143 146.243 229.658C143.46 230.792 140.441 231.954 137.275 233.053C136.071 233.471 134.854 233.881 133.622 234.271C130.478 235.272 127.249 236.177 124.028 236.907C122.797 237.2 121.565 237.45 120.341 237.673C118.073 238.098 115.786 238.409 113.488 238.605H113.355C112.437 238.682 111.519 238.709 110.628 238.709C110.287 238.709 109.932 238.709 109.612 238.709C106.29 238.621 102.998 238.054 99.8372 237.026C98.5395 236.606 97.2666 236.114 96.0246 235.551C93.7483 234.522 91.5668 233.295 89.5055 231.884C88.2462 231.035 87.0774 230.145 86.0268 229.268C84.7107 228.189 83.4498 227.044 82.249 225.838L83.7657 221.991C84.538 222.812 85.4563 223.73 86.5139 224.697C87.5714 225.664 88.6707 226.569 89.923 227.522C91.8158 228.953 93.8294 230.217 95.9411 231.3C97.155 231.934 98.4074 232.492 99.6911 232.97C102.78 234.153 106.037 234.839 109.341 235.001C110.58 235.056 111.82 235.035 113.056 234.939H113.216C115.552 234.74 117.874 234.412 120.174 233.958C121.398 233.721 122.63 233.457 123.868 233.164C127.055 232.413 130.262 231.481 133.379 230.465C134.617 230.061 135.842 229.644 137.038 229.22C140.197 228.092 143.217 226.91 145.965 225.741C147.238 225.219 148.441 224.697 149.583 224.196C152.804 222.784 155.496 221.511 157.326 220.599Z" fill="#3C3C43" fill-opacity="0.3"/>
</g>
<path opacity="0.2" d="M134.095 170.639C128.968 173.561 116.639 179.892 107.469 179.189C100.108 178.626 97.0333 173.742 96.3375 169.713C96.8662 169.842 97.3848 170.009 97.889 170.214C97.889 170.214 110.684 161.17 133.97 170.673L134.095 170.639Z" fill="black" fill-opacity="0.7"/>
<path opacity="0.2" d="M117.551 239.531C116.855 239.531 116.159 239.531 115.415 239.531C87.8914 239.461 81.0662 228.705 81.0662 228.705L85.011 218.665C83.3288 210.846 82.1161 202.933 81.3792 194.969C83.5291 199.414 96.9081 225.191 116.716 225.08C130.756 225.025 124.035 233.547 117.551 239.531Z" fill="black" fill-opacity="0.7"/>
<path opacity="0.2" d="M158.119 207.408C158.135 212.53 157.774 217.645 157.041 222.714C149.77 213.955 152.059 198.071 152.059 198.071C153.02 204.256 156.234 206.566 158.119 207.408Z" fill="black" fill-opacity="0.7"/>
</g>
<path d="M97.8821 170.235C97.8821 170.235 110.677 161.19 133.963 170.694L151.433 166.617C151.433 166.617 162.732 197.306 155.955 228.76C155.955 228.76 140.795 239.635 115.415 239.579C87.8843 239.51 81.0661 228.76 81.0661 228.76L85.0039 218.721C82.6315 207.255 79.5633 188.874 81.901 179.356C85.4562 164.885 97.8821 170.235 97.8821 170.235Z" stroke="#263238" stroke-width="0.694301" stroke-linecap="round" stroke-linejoin="round"/>
<path d="M106.558 175.168C114.601 175.481 124.369 175.425 131.382 170.952" stroke="#263238" stroke-width="0.694301" stroke-linecap="round" stroke-linejoin="round"/>
<path d="M102.057 174.869C102.752 174.945 103.497 175.001 104.22 175.05" stroke="#263238" stroke-width="0.694301" stroke-linecap="round" stroke-linejoin="round"/>
<path d="M108.263 224.899C108.306 226.196 108.49 227.483 108.812 228.74" stroke="#263238" stroke-width="0.694301" stroke-linecap="round" stroke-linejoin="round"/>
<path d="M106.148 176.997C104.757 180.137 104.312 183.614 104.867 187.002C107.97 198.83 109.835 209.961 108.235 221.956" stroke="#263238" stroke-width="0.694301" stroke-linecap="round" stroke-linejoin="round"/>
<path d="M110.531 216.849C114.573 217.848 118.792 217.889 122.852 216.968" stroke="#263238" stroke-width="0.694301" stroke-linecap="round" stroke-linejoin="round"/>
<path d="M85.2826 191.851C89.6519 202.162 97.5415 210.956 107.637 215.91" stroke="#263238" stroke-width="0.694301" stroke-linecap="round" stroke-linejoin="round"/>
<path d="M83.2229 186.007C83.4595 186.842 83.7169 187.677 84.0021 188.505" stroke="#263238" stroke-width="0.694301" stroke-linecap="round" stroke-linejoin="round"/>
<path d="M151.433 166.596C150.137 176.537 150.28 186.613 151.858 196.513C154.46 213.211 158.537 213.051 158.537 213.051C158.537 213.051 181.809 184.289 188.029 172.663C188.029 172.663 186.554 155.965 180.007 152.417L151.433 166.596Z" fill="#CFD1D4"/>
<mask id="mask2_13299_37649" style="mask-type:luminance" maskUnits="userSpaceOnUse" x="150" y="152" width="39" height="62">
<path d="M151.433 166.596C150.137 176.537 150.28 186.613 151.858 196.513C154.46 213.211 158.537 213.051 158.537 213.051C158.537 213.051 181.809 184.289 188.029 172.663C188.029 172.663 186.554 155.965 180.007 152.417L151.433 166.596Z" fill="white"/>
</mask>
<g mask="url(#mask2_13299_37649)">
<g opacity="0.3">
<path d="M183.854 179.405C182.915 180.797 181.906 182.279 180.835 183.795C180.285 180.491 179.645 177.436 178.949 174.612C178.615 173.22 178.263 171.896 177.892 170.639C177.106 167.856 176.264 165.365 175.415 163.104C174.951 161.829 174.469 160.632 173.968 159.514C173.448 158.303 172.936 157.183 172.43 156.154L175.812 154.47C176.243 155.34 176.674 156.258 177.113 157.253C177.607 158.373 178.1 159.563 178.594 160.843C179.429 162.986 180.246 165.358 181.043 167.96C181.419 169.22 181.795 170.535 182.143 171.912C182.764 174.241 183.335 176.738 183.854 179.405Z" fill="#3C3C43" fill-opacity="0.3"/>
</g>
<g opacity="0.3">
<path d="M175.325 191.385C174.226 192.853 173.133 194.314 172.041 195.74C171.59 191.069 170.893 186.424 169.954 181.825C169.68 180.434 169.388 179.091 169.077 177.797C168.326 174.534 167.491 171.535 166.649 168.794C166.246 167.514 165.842 166.292 165.439 165.128C164.861 163.437 164.284 161.886 163.734 160.473L167.115 158.797C167.63 160.098 168.173 161.517 168.716 163.061C169.128 164.216 169.541 165.438 169.954 166.728C170.768 169.309 171.582 172.141 172.333 175.209C172.653 176.512 172.964 177.855 173.266 179.237C174.08 182.987 174.782 187.037 175.325 191.385Z" fill="#3C3C43" fill-opacity="0.3"/>
</g>
<g opacity="0.3">
<path d="M166.51 202.935C165.369 204.41 164.297 205.766 163.33 206.991C162.481 200.792 161.41 194.669 160.269 188.902C160.005 187.552 159.736 186.225 159.462 184.922C158.662 181.088 157.841 177.471 157.055 174.166C156.749 172.865 156.442 171.619 156.15 170.43C155.656 168.426 155.183 166.582 154.759 164.92L158.168 163.222C158.592 164.836 159.058 166.624 159.559 168.579C159.866 169.776 160.172 171.028 160.492 172.336C161.236 175.467 162.022 178.897 162.802 182.543C163.08 183.844 163.358 185.179 163.636 186.536C164.652 191.803 165.661 197.299 166.51 202.935Z" fill="#3C3C43" fill-opacity="0.3"/>
</g>
<g opacity="0.3">
<path d="M183.882 156.793C182.282 158.066 180.522 159.43 178.595 160.835C177.579 161.582 176.519 162.338 175.415 163.104C173.732 164.291 171.916 165.508 169.968 166.756C168.903 167.452 167.797 168.148 166.663 168.843C164.692 170.04 162.623 171.232 160.457 172.419C159.344 173.032 158.217 173.637 157.055 174.242C154.968 175.321 152.832 176.392 150.605 177.436C150.605 175.891 150.696 174.486 150.779 173.226C152.634 172.336 154.425 171.431 156.15 170.513C157.298 169.894 158.425 169.282 159.525 168.662C161.612 167.508 163.567 166.339 165.452 165.184C166.579 164.493 167.672 163.797 168.729 163.097C170.58 161.9 172.326 160.71 173.968 159.548C175.06 158.776 176.111 158.025 177.113 157.28C178.776 156.049 180.306 154.859 181.712 153.739C182.169 154.211 182.584 154.723 182.95 155.27C183.294 155.757 183.605 156.266 183.882 156.793Z" fill="#3C3C43" fill-opacity="0.3"/>
</g>
<g opacity="0.3">
<path d="M187.27 167.452C185.656 168.885 183.945 170.381 182.143 171.919C181.104 172.809 180.039 173.712 178.949 174.625C177.12 176.149 175.227 177.7 173.279 179.252C172.194 180.115 171.088 180.984 169.967 181.84C167.88 183.44 165.758 185.034 163.601 186.585C162.495 187.385 161.389 188.171 160.269 188.944C157.395 190.926 154.48 192.826 151.579 194.572C151.384 193.181 151.231 191.831 151.099 190.509C153.882 188.777 156.665 186.905 159.448 184.943C160.554 184.164 161.66 183.378 162.753 182.571C164.903 181.005 167.018 179.398 169.077 177.784C170.176 176.921 171.269 176.059 172.333 175.196C174.246 173.665 176.097 172.128 177.899 170.625C178.97 169.713 180.028 168.823 181.051 167.939C182.915 166.318 184.682 164.753 186.331 163.271C186.714 164.732 187.027 166.158 187.27 167.452Z" fill="#3C3C43" fill-opacity="0.3"/>
</g>
<path opacity="0.2" d="M188.029 172.636C181.802 184.261 158.53 213.023 158.53 213.023C158.53 213.023 155.051 213.169 152.484 200.069C154.383 207.13 159.532 207.854 159.532 207.854L183.242 176.497C180.717 171.126 182.888 155.667 182.95 155.256C187.02 161.191 188.029 172.636 188.029 172.636Z" fill="black" fill-opacity="0.7"/>
</g>
<path d="M151.433 166.596C150.137 176.537 150.28 186.613 151.858 196.513C154.46 213.211 158.537 213.051 158.537 213.051C158.537 213.051 181.809 184.289 188.029 172.663C188.029 172.663 186.554 155.965 180.007 152.417L151.433 166.596Z" stroke="#263238" stroke-width="0.694301" stroke-linecap="round" stroke-linejoin="round"/>
<path d="M133.963 170.674C133.963 170.674 124.327 163.605 111.554 162.116C98.7798 160.627 99.1416 168.148 99.1416 168.148C98.6194 168.367 98.2011 168.777 97.9731 169.295C97.7452 169.813 97.7252 170.399 97.9171 170.931C98.4458 173.067 115.742 175.106 133.963 170.674Z" fill="#CFD1D4"/>
<mask id="mask3_13299_37649" style="mask-type:luminance" maskUnits="userSpaceOnUse" x="97" y="161" width="37" height="13">
<path d="M133.963 170.674C133.963 170.674 124.327 163.605 111.554 162.116C98.7798 160.627 99.1416 168.148 99.1416 168.148C98.6194 168.367 98.2011 168.777 97.9731 169.295C97.7452 169.813 97.7252 170.399 97.9171 170.931C98.4458 173.067 115.742 175.106 133.963 170.674Z" fill="white"/>
</mask>
<g mask="url(#mask3_13299_37649)">
<g opacity="0.3">
<path d="M110.789 162.032C110.441 162.873 110.142 163.732 109.891 164.607C109.578 165.65 109.265 166.889 108.98 168.336C108.694 169.783 108.458 171.383 108.284 173.206C106.892 173.143 105.682 173.039 104.555 172.921C104.729 171.188 104.958 169.637 105.202 168.245C105.445 166.854 105.738 165.588 106.037 164.488C106.287 163.535 106.552 162.7 106.809 161.956C108.135 161.87 109.467 161.895 110.789 162.032Z" fill="#3C3C43" fill-opacity="0.3"/>
</g>
<g opacity="0.3">
<path d="M121.009 164.273C121.009 164.746 121.009 165.254 121.009 165.803C120.96 166.903 120.884 168.155 120.738 169.56C120.633 170.604 120.494 171.731 120.32 172.935C119.005 173.053 117.732 173.137 116.501 173.199C116.744 171.676 116.918 170.277 117.043 169.025C117.183 167.598 117.259 166.346 117.294 165.275C117.294 164.475 117.294 163.779 117.294 163.188C118.574 163.494 119.826 163.869 121.009 164.273Z" fill="#3C3C43" fill-opacity="0.3"/>
</g>
<g opacity="0.3">
<path d="M133.963 170.674C132.572 171.001 131.264 171.3 129.921 171.564C126.686 170.694 123.597 170.04 120.71 169.56C119.436 169.345 118.212 169.164 117.015 169.011C114.072 168.628 111.38 168.433 108.979 168.315C107.588 168.259 106.343 168.245 105.181 168.252C102.915 168.257 100.651 168.377 98.3973 168.614C98.598 168.413 98.8338 168.25 99.093 168.134C99.1165 166.855 99.5866 165.624 100.422 164.655C101.932 164.544 103.81 164.468 105.988 164.475C107.184 164.475 108.479 164.475 109.863 164.565C112.096 164.676 114.566 164.878 117.238 165.219C118.435 165.363 119.673 165.544 120.953 165.762C123.228 166.137 125.635 166.61 128.133 167.216C130.162 168.218 132.111 169.374 133.963 170.674Z" fill="#3C3C43" fill-opacity="0.3"/>
</g>
</g>
<path d="M133.963 170.674C133.963 170.674 124.327 163.605 111.554 162.116C98.7798 160.627 99.1416 168.148 99.1416 168.148C98.6194 168.367 98.2011 168.777 97.9731 169.295C97.7452 169.813 97.7252 170.399 97.9171 170.931C98.4458 173.067 115.742 175.106 133.963 170.674Z" stroke="#263238" stroke-width="0.694301" stroke-linecap="round" stroke-linejoin="round"/>
<path d="M113.056 167.341C114.293 167.518 115.514 167.791 116.709 168.155" stroke="#263238" stroke-width="0.694301" stroke-linecap="round" stroke-linejoin="round"/>
<path d="M99.1415 168.148C102.871 167.216 106.721 166.855 110.559 167.077" stroke="#263238" stroke-width="0.694301" stroke-linecap="round" stroke-linejoin="round"/>
<path d="M77.0168 167.285C77.0168 168.51 77.1212 169.734 77.2534 170.952" stroke="#263238" stroke-width="0.694301" stroke-linecap="round" stroke-linejoin="round"/>
<path d="M82.6109 152.39C78.7426 154.922 77.3719 160.411 77.045 164.697" stroke="#263238" stroke-width="0.694301" stroke-linecap="round" stroke-linejoin="round"/>
<path d="M174.407 184.741C173.424 185.799 172.242 186.653 170.928 187.253" stroke="#263238" stroke-width="0.694301" stroke-linecap="round" stroke-linejoin="round"/>
<path d="M185.413 160.377C183.082 167.752 180.598 175.829 176.153 182.64" stroke="#263238" stroke-width="0.694301" stroke-linecap="round" stroke-linejoin="round"/>
<path d="M158.537 213.023C158.537 213.023 154.947 214.769 150.188 204.924" stroke="#263238" stroke-width="0.694301" stroke-linecap="round" stroke-linejoin="round"/>
<path d="M152.574 222.457C149.096 228.503 144.17 234.125 137.546 236.685" stroke="#263238" stroke-width="0.694301" stroke-linecap="round" stroke-linejoin="round"/>
<path d="M155.253 216.849C154.891 217.83 154.467 218.784 154.014 219.723" stroke="#263238" stroke-width="0.694301" stroke-linecap="round" stroke-linejoin="round"/>
</g>
<defs>
<clipPath id="clip0_13299_37649">
<rect width="326" height="240" rx="4" fill="white"/>
</clipPath>
</defs>
</svg>
