<svg width="326" height="240" viewBox="0 0 326 240" fill="none" xmlns="http://www.w3.org/2000/svg">
<g clip-path="url(#clip0_13644_35366)">
<rect width="326" height="240" rx="4" fill="white"/>
<path d="M83.7651 49.2722C83.5848 47.7698 84.2684 46.8007 85.7333 46.628C87.1981 46.4552 88.0845 47.2139 88.2648 48.7463L88.8432 53.6366C89.016 55.139 88.3324 56.1081 86.8676 56.2808C85.4027 56.4536 84.5163 55.6949 84.336 54.1625L83.7651 49.2722ZM85.8309 54.0949C85.9136 54.7559 86.2215 54.9963 86.7098 54.9437C87.1981 54.8911 87.461 54.5756 87.3634 53.9146L86.7699 48.8139C86.6873 48.1529 86.3567 47.9125 85.891 47.9726C85.4253 48.0327 85.1398 48.3332 85.2375 48.9942L85.8309 54.0949ZM91.6151 46.0495L92.9973 45.8843L88.8733 61.4491L87.4911 61.6143L91.6151 46.0495ZM91.7729 53.8545C91.5926 52.3521 92.2837 51.3755 93.7485 51.2103C95.2134 51.045 96.0998 51.7962 96.2801 53.3211L96.851 58.2114C97.0313 59.7138 96.3477 60.6829 94.8753 60.8556C93.403 61.0284 92.5241 60.2697 92.3438 58.7373L91.7729 53.8545ZM93.8462 58.6696C93.9213 59.3307 94.2293 59.5786 94.7176 59.5185C95.2058 59.4584 95.4688 59.1504 95.3786 58.4894L94.7777 53.3887C94.7025 52.7352 94.372 52.4948 93.9063 52.5474C93.4405 52.6 93.1551 52.9155 93.2527 53.569L93.8462 58.6696Z" fill="#263238"/>
<path d="M100.336 64.236L82.9385 66.2717C82.5431 66.3183 82.1454 66.206 81.8327 65.9595C81.52 65.713 81.3179 65.3525 81.2709 64.9571L79.1826 47.0185C79.1457 46.6848 79.1839 46.3469 79.2944 46.0298C79.4049 45.7127 79.5848 45.4243 79.8211 45.1856L87.0776 38.0417C87.4271 37.6952 87.8827 37.4758 88.3716 37.4186C88.8604 37.3614 89.3544 37.4697 89.7744 37.7262L98.4808 42.9846C98.7676 43.1588 99.0108 43.3962 99.1917 43.6787C99.3727 43.9612 99.4867 44.2814 99.525 44.6147L101.628 62.5533C101.68 62.9477 101.572 63.3462 101.33 63.6617C101.088 63.9771 100.73 64.1836 100.336 64.236Z" stroke="#263238" stroke-width="0.767637" stroke-linecap="round" stroke-linejoin="round"/>
<path d="M89.8196 40.0324C89.8466 40.2527 89.8075 40.4762 89.7072 40.6742C89.6069 40.8723 89.4499 41.0361 89.2563 41.1447C89.0626 41.2533 88.8411 41.3019 88.6197 41.2843C88.3984 41.2666 88.1873 41.1836 88.0133 41.0457C87.8394 40.9077 87.7103 40.7212 87.6426 40.5097C87.575 40.2983 87.5717 40.0715 87.6332 39.8582C87.6948 39.6448 87.8184 39.4547 87.9884 39.3118C88.1583 39.1689 88.3669 39.0798 88.5876 39.0558C88.8805 39.022 89.1748 39.1059 89.4058 39.289C89.6369 39.4721 89.7857 39.7395 89.8196 40.0324Z" stroke="#263238" stroke-width="0.767637" stroke-linecap="round" stroke-linejoin="round"/>
<path d="M88.7153 27.4874C88.7153 27.4874 92.1107 40.5583 88.7153 40.1827" stroke="#263238" stroke-width="0.767637" stroke-linecap="round" stroke-linejoin="round"/>
<path d="M87.8516 37.5535C88.5126 33.9177 91.8404 27.788 91.8404 27.788" stroke="#263238" stroke-width="0.767637" stroke-linecap="round" stroke-linejoin="round"/>
<path d="M88.7154 40.1602C88.5169 40.1474 88.3271 40.0734 88.1724 39.9483C88.0177 39.8231 87.9056 39.6531 87.8516 39.4615" stroke="#263238" stroke-width="0.767637" stroke-linecap="round" stroke-linejoin="round"/>
<path d="M103.867 32.3176C106.912 34.7786 109.246 38.0069 110.628 41.67" stroke="#263238" stroke-width="0.767637" stroke-linecap="round" stroke-linejoin="round"/>
<path d="M68.7036 43.9161C69.5765 40.5579 71.2301 37.4534 73.5299 34.8553C75.8297 32.2572 78.7106 30.239 81.938 28.965C85.1654 27.691 88.6481 27.1973 92.1024 27.5241C95.5567 27.8508 98.8851 28.9888 101.816 30.8453" stroke="#263238" stroke-width="0.767637" stroke-linecap="round" stroke-linejoin="round"/>
<path d="M75.562 66.0614C71.5899 62.6129 68.9903 57.8511 68.2378 52.645" stroke="#263238" stroke-width="0.767637" stroke-linecap="round" stroke-linejoin="round"/>
<path d="M89.1659 71.47C85.1473 71.3093 81.2499 70.0491 77.8979 67.8267" stroke="#263238" stroke-width="0.767637" stroke-linecap="round" stroke-linejoin="round"/>
<path d="M111.822 46.2673C112.669 52.0478 111.185 57.928 107.697 62.6147C104.209 67.3015 99.0029 70.4111 93.2227 71.2597" stroke="#263238" stroke-width="0.767637" stroke-linecap="round" stroke-linejoin="round"/>
<path d="M34.2696 119.566L61.9276 124.928L58.7062 141.543C58.6434 141.868 58.4544 142.153 58.1808 142.338C57.9072 142.523 57.5714 142.591 57.2472 142.529L32.026 137.639C31.7019 137.576 31.416 137.387 31.2312 137.113C31.0465 136.84 30.978 136.504 31.0409 136.18L34.2622 119.564L34.2696 119.566Z" stroke="#263238" stroke-width="0.766292" stroke-linecap="round" stroke-linejoin="round"/>
<path d="M62.8896 125.307L33.7758 119.695L34.6289 115.27C34.6915 114.945 34.8805 114.658 35.1544 114.473C35.4283 114.288 35.7646 114.219 36.0893 114.281L62.7838 119.427C63.0981 119.495 63.3739 119.682 63.5534 119.949C63.7329 120.216 63.8022 120.542 63.747 120.859L62.8939 125.285L62.8896 125.307Z" stroke="#263238" stroke-width="0.767637" stroke-linecap="round" stroke-linejoin="round"/>
<path d="M51.44 117.216L47.479 116.453L42.9407 139.998L46.9017 140.761L51.44 117.216Z" stroke="#263238" stroke-width="0.767637" stroke-linecap="round" stroke-linejoin="round"/>
<path d="M49.458 116.835C49.458 116.835 56.3315 111.817 59.509 113.334C62.6866 114.852 61.1166 119.081 59.509 118.773" stroke="#263238" stroke-width="0.767637" stroke-linecap="round" stroke-linejoin="round"/>
<path d="M52.1772 117.353C52.1772 117.353 57.7661 114.574 58.5774 115.851C59.3887 117.128 56.9774 118.307 55.1219 117.947" stroke="#263238" stroke-width="0.767637" stroke-linecap="round" stroke-linejoin="round"/>
<path d="M49.646 116.489C49.646 116.489 52.5456 111.231 52.17 109.533H54.1006C54.1006 109.533 54.7316 111.531 52.478 114.949" stroke="#263238" stroke-width="0.767637" stroke-linecap="round" stroke-linejoin="round"/>
<path d="M49.4581 116.835C49.4581 116.835 44.9509 109.623 41.4278 109.856C37.9047 110.089 37.807 114.589 39.4071 114.897" stroke="#263238" stroke-width="0.767637" stroke-linecap="round" stroke-linejoin="round"/>
<path d="M46.7387 116.309C46.7387 116.309 42.5846 111.644 41.3601 112.515C40.1357 113.387 41.9386 115.385 43.794 115.738" stroke="#263238" stroke-width="0.767637" stroke-linecap="round" stroke-linejoin="round"/>
<path d="M49.4128 116.444C49.4128 116.444 48.6616 110.472 49.6607 109.052L47.8578 108.301C47.8578 108.301 46.5357 109.924 47.362 113.935" stroke="#263238" stroke-width="0.767637" stroke-linecap="round" stroke-linejoin="round"/>
<path d="M69.9131 108.391C73.01 112.304 75.009 116.971 75.7048 121.913" stroke="#263238" stroke-width="0.767637" stroke-linecap="round" stroke-linejoin="round"/>
<path d="M22.8433 112.898C24.879 108.963 27.8155 105.564 31.4137 102.978C35.0118 100.392 39.1699 98.6931 43.5492 98.0188C47.9285 97.3444 52.4051 97.714 56.6145 99.0975C60.8239 100.481 64.647 102.839 67.7723 105.98" stroke="#263238" stroke-width="0.767637" stroke-linecap="round" stroke-linejoin="round"/>
<path d="M25.0967 142.421C21.1274 137.001 19.2349 130.337 19.7632 123.641" stroke="#263238" stroke-width="0.767637" stroke-linecap="round" stroke-linejoin="round"/>
<path d="M40.5489 152.99C35.5775 151.662 31.0681 148.99 27.5156 145.268" stroke="#263238" stroke-width="0.767637" stroke-linecap="round" stroke-linejoin="round"/>
<path d="M75.8852 127.998C75.3079 135.436 71.7997 142.34 66.1324 147.191C60.4651 152.043 53.1027 154.445 45.6646 153.869" stroke="#263238" stroke-width="0.767637" stroke-linecap="round" stroke-linejoin="round"/>
<path d="M185.61 38.7535L183.841 37.852C184.103 37.0752 184.192 36.25 184.1 35.4351C184.663 35.7055 185.26 35.9985 185.79 36.2407C185.762 36.9675 185.717 37.8239 185.61 38.7535Z" stroke="#263238" stroke-width="0.575728" stroke-linecap="round" stroke-linejoin="round"/>
<path d="M188.184 37.4013C188.745 37.6871 189.345 37.8884 189.965 37.9985C190.614 41.4627 190.105 45.0441 188.517 48.1904C188.06 49.0806 183.266 46.6242 183.717 45.734C184.744 43.5332 185.384 41.1718 185.61 38.7535C185.717 37.8239 185.779 36.9675 185.807 36.2407C186.81 36.714 187.689 37.1478 188.184 37.4013Z" stroke="#263238" stroke-width="0.575728" stroke-linecap="round" stroke-linejoin="round"/>
<path d="M193.903 26.229C195.241 26.9133 196.289 28.0548 196.856 29.4461C197.424 30.8374 197.473 32.3861 196.996 33.8109C196.518 35.2357 195.546 36.4419 194.254 37.2103C192.963 37.9787 191.439 38.2584 189.959 37.9984C189.339 37.8883 188.739 37.687 188.179 37.4012C187.683 37.1477 186.804 36.7139 185.801 36.2406C185.238 35.9758 184.674 35.7054 184.111 35.4349C182.725 34.7983 181.384 34.2124 180.691 33.987L186.753 22.1556C188.015 23.0796 192.483 25.5022 193.903 26.229Z" stroke="#263238" stroke-width="0.575728" stroke-linecap="round" stroke-linejoin="round"/>
<path d="M180.866 16.5555C182.564 18.6744 184.541 20.5543 186.742 22.1444L180.68 33.9758C178.101 33.1308 175.419 32.6363 172.708 32.5053L170.359 32.3814L179.373 14.7301L180.866 16.5555Z" stroke="#263238" stroke-width="0.575728" stroke-linecap="round" stroke-linejoin="round"/>
<path d="M167.626 32.8715L178.195 12.223C178.277 12.0671 178.417 11.9496 178.585 11.8958C178.752 11.842 178.934 11.8564 179.091 11.9356L179.869 12.3356C180.026 12.4164 180.144 12.5557 180.199 12.7234C180.254 12.8911 180.241 13.0736 180.162 13.2315L179.39 14.7357L170.376 32.387L169.609 33.8913C169.569 33.969 169.515 34.0381 169.448 34.0946C169.381 34.1511 169.304 34.1939 169.221 34.2206C169.138 34.2473 169.05 34.2573 168.963 34.2501C168.876 34.2429 168.791 34.2186 168.714 34.1786L167.93 33.7786C167.849 33.7409 167.777 33.687 167.717 33.6203C167.657 33.5535 167.612 33.4753 167.583 33.3905C167.555 33.3056 167.544 33.2158 167.551 33.1266C167.559 33.0374 167.584 32.9506 167.626 32.8715Z" stroke="#263238" stroke-width="0.575728" stroke-linecap="round" stroke-linejoin="round"/>
<path d="M167.942 19.9979L163.868 17.9133" stroke="#263238" stroke-width="0.575728" stroke-linecap="round" stroke-linejoin="round"/>
<path d="M172.714 13.4625L170.145 8.96655" stroke="#263238" stroke-width="0.575728" stroke-linecap="round" stroke-linejoin="round"/>
<path d="M165.434 27.6882L160.291 28.2347" stroke="#263238" stroke-width="0.575728" stroke-linecap="round" stroke-linejoin="round"/>
<path d="M199.486 8.23977C195.93 4.94578 191.557 2.6639 186.821 1.6311" stroke="#263238" stroke-width="0.575728" stroke-linecap="round" stroke-linejoin="round"/>
<path d="M191.599 53.351C195.55 51.6787 199.05 49.0973 201.815 45.8169C204.581 42.5364 206.532 38.6495 207.512 34.4724C208.491 30.2953 208.471 25.9459 207.452 21.7782C206.434 17.6105 204.445 13.7421 201.65 10.4877" stroke="#263238" stroke-width="0.575728" stroke-linecap="round" stroke-linejoin="round"/>
<path d="M163.254 48.9509C168.189 53.1924 174.483 55.5198 180.99 55.5089" stroke="#263238" stroke-width="0.575728" stroke-linecap="round" stroke-linejoin="round"/>
<path d="M154.212 33.2603C155.122 38.1633 157.366 42.7208 160.696 46.4325" stroke="#263238" stroke-width="0.575728" stroke-linecap="round" stroke-linejoin="round"/>
<path d="M180.99 1C173.761 1 166.828 3.87173 161.716 8.98346C156.604 14.0952 153.733 21.0282 153.733 28.2572" stroke="#263238" stroke-width="0.575728" stroke-linecap="round" stroke-linejoin="round"/>
<path d="M112.411 92.2058C109.361 89.479 106.198 90.7034 104.583 91.6274C104.26 89.7795 103.081 86.5944 99.0545 86.0535C94.6525 85.4676 91.0467 89.7569 92.2261 95.7365C93.0825 100.041 95.8319 104 97.3042 105.84C97.477 106.065 97.6422 106.261 97.7775 106.418H98.5287C100.902 106.321 105.68 105.848 109.496 103.699C114.777 100.694 115.716 95.1655 112.411 92.2058Z" stroke="#263238" stroke-width="0.767637" stroke-linecap="round" stroke-linejoin="round"/>
<path d="M95.2835 109.22C95.2835 109.22 95.0807 109.589 94.8027 110.235" stroke="#263238" stroke-width="0.767637" stroke-linecap="round" stroke-linejoin="round"/>
<path d="M94.0365 112.33C92.8346 116.259 92.0083 122.99 98.4085 127.069C114.229 137.158 119.555 113.36 107.423 115.5C99.0921 117.003 107.904 139.02 120.944 134.581" stroke="#263238" stroke-width="0.767637" stroke-linecap="round" stroke-linejoin="round" stroke-dasharray="2.29 2.29"/>
<path d="M122.034 134.168C122.364 134.017 122.702 133.852 123.04 133.672" stroke="#263238" stroke-width="0.767637" stroke-linecap="round" stroke-linejoin="round"/>
<path d="M119.578 230.744C119.578 230.744 112.343 235.667 109.429 235.338C109.109 235.321 108.805 235.192 108.571 234.973C106.672 233.014 105.145 229.57 105.145 229.57C105.145 229.57 106.052 228.316 108.845 231.645L110.615 230.02L106.964 226.333C106.964 226.333 109.027 224.696 112.532 226.783C112.41 226.527 110.153 221.611 111.856 214.918L103.338 206.697L110.895 200.114L111.504 199.603C111.504 199.603 111.978 200.071 112.72 200.819C113.463 201.568 114.491 202.468 115.605 203.448C118.27 205.791 121.495 208.316 122.906 208.316C125.45 208.231 119.578 230.744 119.578 230.744Z" fill="white"/>
<mask id="mask0_13644_35366" style="mask-type:luminance" maskUnits="userSpaceOnUse" x="103" y="199" width="21" height="37">
<path d="M119.578 230.744C119.578 230.744 112.343 235.667 109.429 235.338C109.109 235.321 108.805 235.192 108.571 234.973C106.672 233.014 105.145 229.57 105.145 229.57C105.145 229.57 106.052 228.316 108.845 231.645L110.615 230.02L106.964 226.333C106.964 226.333 109.027 224.696 112.532 226.783C112.41 226.527 110.153 221.611 111.856 214.918L103.338 206.697L110.895 200.114L111.504 199.603C111.504 199.603 111.978 200.071 112.72 200.819C113.463 201.568 114.491 202.468 115.605 203.448C118.27 205.791 121.495 208.316 122.906 208.316C125.45 208.231 119.578 230.744 119.578 230.744Z" fill="white"/>
</mask>
<g mask="url(#mask0_13644_35366)">
<path opacity="0.4" d="M113.986 227.519C113.986 227.519 109.861 231.778 109.429 235.338C109.109 235.321 108.805 235.192 108.571 234.973C106.672 233.013 105.145 229.569 105.145 229.569C105.145 229.569 106.052 228.316 108.845 231.644L110.615 230.02L106.964 226.332C106.964 226.332 109.027 224.696 112.532 226.783C112.41 226.527 110.153 221.611 111.856 214.917L103.338 206.697L110.895 200.113L112.72 200.801C113.469 201.507 114.491 202.45 115.605 203.43C114.004 205.772 110.579 210.622 110.579 210.622L113.542 214.638C113.542 214.638 111.717 224.762 113.986 227.519Z" fill="#7E2EBC"/>
</g>
<path d="M119.578 230.744C119.578 230.744 112.343 235.667 109.429 235.338C109.109 235.321 108.805 235.192 108.571 234.973C106.672 233.014 105.145 229.57 105.145 229.57C105.145 229.57 106.052 228.316 108.845 231.645L110.615 230.02L106.964 226.333C106.964 226.333 109.027 224.696 112.532 226.783C112.41 226.527 110.153 221.611 111.856 214.918L103.338 206.697L110.895 200.114L111.504 199.603C111.504 199.603 111.978 200.071 112.72 200.819C113.463 201.568 114.491 202.468 115.605 203.448C118.27 205.791 121.495 208.316 122.906 208.316C125.45 208.231 119.578 230.744 119.578 230.744Z" stroke="#263238" stroke-width="0.621786" stroke-linecap="round" stroke-linejoin="round"/>
<path d="M110.64 230.02C111.041 228.821 111.69 227.72 112.544 226.789" stroke="#263238" stroke-width="0.621786" stroke-linecap="round" stroke-linejoin="round"/>
<path d="M245.592 173.438C244.45 175.103 243.071 176.592 241.497 177.856C228.196 188.869 197.529 194.285 197.529 194.285C197.529 194.285 196.5 195.824 194.918 198.015C192.083 201.951 187.44 207.999 183.656 211.03C182.055 212.314 180.613 213.056 179.512 212.855L185.268 234.109L187.842 243.333C187.842 243.333 161.398 254.894 116.17 241.678C116.17 241.678 115.653 235.776 116.036 234.517C116.036 234.456 116.073 234.395 116.097 234.328C116.558 233.489 117.159 232.736 117.874 232.101C117.874 232.101 117.618 228.304 117.491 224.44C117.345 221.977 117.375 219.506 117.582 217.047C117.904 215.1 119.328 210.391 120.046 208.079L120.466 206.734L118.215 185.656L117.57 179.572L117.533 179.255C117.533 179.213 117.533 179.164 117.533 179.103L117.18 175.848L105.546 179.401C105.546 179.401 106.155 180.764 106.995 182.675C108.522 186.174 110.767 191.498 111.254 193.627C111.29 193.801 111.339 193.972 111.4 194.139C112.477 197.211 116.578 200.004 116.578 200.004L105.559 212.879L102.303 210.604C101.887 210.912 101.447 211.189 100.989 211.431C98.8472 212.593 94.3567 214.303 89.4281 211.693C87.2923 210.492 85.4377 208.849 83.9883 206.874C75.3481 195.654 71.5877 186.472 72.8108 175.72C74.0338 164.969 122.419 131.789 132.021 132.136L146.302 135.287C146.612 135.032 147.446 134.375 148.091 134.405C150.689 134.539 150.756 137.557 150.756 137.557L182.761 142.753C182.761 142.753 186.077 141.092 186.655 141.117C187.073 141.145 187.478 141.277 187.832 141.501C188.185 141.725 188.478 142.034 188.682 142.4C188.682 142.4 196.969 137.435 199.634 138.591C208.408 142.376 252.072 163.593 245.592 173.438Z" fill="#7E2EBC"/>
<path opacity="0.2" d="M134.4 226.022C130.763 230.02 125.88 232.669 120.546 233.537C118.86 233.805 117.381 234.072 116.085 234.34C116.546 233.502 117.147 232.748 117.862 232.113C117.862 232.113 117.607 228.316 117.479 224.453C121.233 226.929 127.78 229.789 134.4 226.022Z" fill="black"/>
<path opacity="0.2" d="M120.034 208.109L120.454 206.764L118.203 185.687C121.567 190.512 133.566 206.947 141.836 208.724C150.482 210.573 127.366 213.853 120.034 208.109Z" fill="black"/>
<path opacity="0.2" d="M185.256 234.139C176.22 233.111 163.448 230.835 162.171 226.108C160.181 218.721 169.862 214.291 183.656 211.06C182.055 212.344 180.613 213.086 179.512 212.885L185.256 234.139Z" fill="black"/>
<path opacity="0.2" d="M241.491 177.862C228.19 188.875 197.523 194.291 197.523 194.291C197.523 194.291 196.494 195.83 194.912 198.021C190.401 187.248 189.711 175.256 192.959 164.037C192.959 164.037 195.32 176.815 205.129 179.858C205.129 179.858 197.62 174.266 200.261 160.807C200.261 160.807 202.823 176.627 219.489 181.02C227.575 183.192 235.491 180.831 241.491 177.862Z" fill="black"/>
<path opacity="0.2" d="M117.521 179.298L117.156 175.89L105.522 179.444C105.522 179.444 106.13 180.807 106.97 182.718C102.522 182.261 94.0828 186.368 92.6103 181.89C90.8336 176.462 101.737 178.33 101.737 178.33L112.045 172.337C110.098 164.001 115.057 157.734 115.057 157.734L116 163.551C116.45 152.495 120.776 146.447 120.776 146.447C117.199 155.19 117.296 176.736 117.521 179.298Z" fill="black"/>
<path opacity="0.2" d="M116.572 200.022L105.553 212.898L102.298 210.622C101.881 210.93 101.441 211.207 100.983 211.449C98.8415 212.612 94.351 214.321 89.4224 211.711C92.9941 206.77 100.375 199.499 109.143 196.694C106.99 199.897 105.051 203.239 103.338 206.697L105.602 208.924C105.602 208.924 111.248 202.487 116.572 200.022Z" fill="black"/>
<path opacity="0.2" d="M143.326 143.313C143.326 144.451 142.608 157.308 151.979 160.733C161.349 164.159 169.661 158.367 169.661 158.367C169.661 158.367 155.295 172.227 146.539 164.816C137.783 157.405 143.326 143.313 143.326 143.313Z" fill="black"/>
<path d="M116.152 241.703C116.152 241.703 115.647 235.8 116.024 234.547C116.341 233.488 117.85 232.113 117.85 232.113C117.85 232.113 117.053 220.151 117.564 217.066C118.002 214.419 120.448 206.722 120.448 206.722L117.15 175.848L105.516 179.407C105.516 179.407 110.469 190.36 111.236 193.609C112.002 196.858 116.566 199.98 116.566 199.98L105.547 212.849L102.291 210.579C102.291 210.579 92.6774 218.1 83.9946 206.855C75.3117 195.611 71.5818 186.453 72.7987 175.671C74.0157 164.889 122.419 131.746 132.021 132.087L146.302 135.245C146.606 134.989 147.446 134.332 148.085 134.362C150.683 134.496 150.75 137.514 150.75 137.514L182.755 142.711C182.755 142.711 186.077 141.049 186.656 141.074C187.072 141.103 187.476 141.236 187.828 141.46C188.181 141.684 188.472 141.993 188.676 142.358C188.676 142.358 196.963 137.399 199.628 138.549C208.39 142.333 252.048 163.551 245.574 173.396C236.38 187.391 197.505 194.272 197.505 194.272C197.505 194.272 184.575 213.743 179.482 212.843L187.812 243.321" stroke="#263238" stroke-width="0.621786" stroke-linecap="round" stroke-linejoin="round"/>
<path d="M211.767 175.574C226.456 185.273 238.296 183.484 247.563 170.998C247.563 170.998 255.279 161.05 254.731 150.31C254.184 139.571 251.622 104.584 218.186 113.528C212.68 115.001 199.835 132.202 198.758 136.93C198.259 139.09 193.105 150.085 188.098 161.47" fill="#7E2EBC"/>
<path d="M211.767 175.574C226.456 185.273 238.296 183.484 247.563 170.998C247.563 170.998 255.279 161.05 254.731 150.31C254.184 139.571 251.622 104.584 218.186 113.528C212.68 115.001 199.835 132.202 198.758 136.93C198.259 139.09 193.105 150.085 188.098 161.47" stroke="#263238" stroke-width="0.621786" stroke-linecap="round" stroke-linejoin="round"/>
<path d="M172.028 72.7853C172.028 72.7853 181.386 71.3675 187.885 77.1845C196.105 84.5409 205.336 104.377 192.193 137.247C192.193 137.247 172.776 124.359 139.639 132.987C139.639 132.987 142.493 125.278 137.485 101.006C135.222 90.0232 140.917 64.723 172.028 72.7853Z" fill="#263238"/>
<path d="M157.845 155.269C171.693 157.515 186.406 142.181 186.406 142.181C186.406 142.181 178.879 141.256 178.204 137.721C176.044 126.568 184.733 112.774 184.733 112.774C184.733 112.774 151.109 113.705 156.987 121.293C158.08 122.681 158.975 124.215 159.646 125.85C161.684 130.858 160.254 134.636 159.189 135.585C159.112 135.649 159.028 135.704 158.94 135.75C156.908 136.675 148.553 135.293 148.553 135.293C148.553 135.293 145.207 153.219 157.845 155.269Z" fill="white" stroke="#263238" stroke-width="0.621786" stroke-linecap="round" stroke-linejoin="round"/>
<path d="M181.642 146.428C181.642 146.428 175.253 148.984 165.901 148.223L161.69 150.286" stroke="#263238" stroke-width="0.621786" stroke-linecap="round" stroke-linejoin="round"/>
<path d="M157.492 149.964L157.187 147.201C157.187 147.201 150.287 145.041 148.152 140.94" stroke="#263238" stroke-width="0.621786" stroke-linecap="round" stroke-linejoin="round"/>
<path d="M159.189 135.604C169.485 138.293 174.322 125.089 174.322 125.089C174.322 125.089 166.083 122.656 159.646 125.893C161.684 130.9 160.272 134.679 159.189 135.604Z" fill="#263238"/>
<path d="M185.329 105.843C187.83 91.7817 185.049 74.9088 163.643 76.3083C148.352 77.3062 148.48 94.0695 149.49 99.0772C151.194 107.492 148.754 110.802 151.376 117.873C153.263 122.954 157.638 128.637 162.791 130.766C165.961 132.075 178.794 123.069 179.743 118.95" fill="white"/>
<path d="M185.329 105.843C187.83 91.7817 185.049 74.9088 163.643 76.3083C148.352 77.3062 148.48 94.0695 149.49 99.0772C151.194 107.492 148.754 110.802 151.376 117.873C153.263 122.954 157.638 128.637 162.791 130.766C165.961 132.075 178.794 123.069 179.743 118.95" stroke="#263238" stroke-width="0.621786" stroke-linecap="round" stroke-linejoin="round"/>
<path d="M158.435 101.7C158.307 103.282 158.118 107.176 154.784 110.072C152.618 111.94 157.583 113.851 157.583 113.851" stroke="#263238" stroke-width="0.621786" stroke-linecap="round" stroke-linejoin="round"/>
<path d="M154.881 96.1201C154.881 96.1201 150.16 93.8201 146.971 97.6169" stroke="#263238" stroke-width="0.621786" stroke-linecap="round" stroke-linejoin="round"/>
<path d="M162.803 95.8098C166.123 94.8471 169.665 94.988 172.898 96.2114" stroke="#263238" stroke-width="0.621786" stroke-linecap="round" stroke-linejoin="round"/>
<path d="M167.708 102.46C167.854 103.817 168.767 104.833 169.746 104.724C170.726 104.614 171.401 103.434 171.255 102.077C171.109 100.72 170.196 99.7101 169.217 99.8136C168.237 99.917 167.562 101.104 167.708 102.46Z" fill="#263238"/>
<path d="M157.814 118.323C161.568 117.805 165.167 116.49 168.371 114.465C168.371 114.465 168.815 120.368 163.874 121.591C160.084 122.534 158.617 118.208 158.617 118.208" stroke="#263238" stroke-width="0.621786" stroke-linecap="round" stroke-linejoin="round"/>
<path d="M171.699 81.6629C171.699 81.6629 170.348 98.3289 185.055 104.383L191.949 88.3622L181.52 76.8013L165.815 72.2621C142.347 73.7285 132.246 88.3074 145.273 127.158C145.273 127.176 141.629 80.9084 171.699 81.6629Z" fill="#263238"/>
<path d="M181.83 105.089C181.623 103.215 186.363 98.4444 187.964 101.505C190.696 106.726 188.706 111.241 185.883 113.066C184.617 113.863 183.011 115.36 181.885 113.948" fill="white"/>
<path d="M181.83 105.089C181.623 103.215 186.363 98.4444 187.964 101.505C190.696 106.726 188.706 111.241 185.883 113.066C184.617 113.863 183.011 115.36 181.885 113.948" stroke="#263238" stroke-width="0.621786" stroke-linecap="round" stroke-linejoin="round"/>
<path d="M153.385 103.111C153.537 104.468 154.449 105.485 155.429 105.375C156.409 105.265 157.084 104.085 156.938 102.728C156.792 101.371 155.873 100.355 154.894 100.465C153.914 100.574 153.232 101.724 153.385 103.111Z" fill="#263238"/>
<g opacity="0.2">
<path d="M143.192 100.349C143.016 101.475 142.894 102.619 142.827 103.756" stroke="white" stroke-width="0.621786" stroke-linecap="round" stroke-linejoin="round"/>
<path d="M169.265 78.6327C157.376 78.3224 146.326 85.8978 143.71 97.7934" stroke="white" stroke-width="0.621786" stroke-linecap="round" stroke-linejoin="round"/>
<path d="M167.142 75.2375C167.142 75.2375 149.995 71.2033 143.57 82.5756" stroke="white" stroke-width="0.621786" stroke-linecap="round" stroke-linejoin="round"/>
<path d="M181.052 95.0492C182.085 96.521 183.33 97.833 184.745 98.9434" stroke="white" stroke-width="0.621786" stroke-linecap="round" stroke-linejoin="round"/>
<path d="M174.249 77.4584C175.125 82.905 176.967 88.1513 179.688 92.95" stroke="white" stroke-width="0.621786" stroke-linecap="round" stroke-linejoin="round"/>
<path d="M191.474 129.032C191.17 130.395 190.811 131.746 190.41 133.085" stroke="white" stroke-width="0.621786" stroke-linecap="round" stroke-linejoin="round"/>
<path d="M190.483 106.373C193.263 112.549 193.075 120.234 191.931 126.732" stroke="white" stroke-width="0.621786" stroke-linecap="round" stroke-linejoin="round"/>
<path d="M188.444 117.106C188.58 119.445 188.219 121.787 187.385 123.976C186.552 126.166 185.264 128.155 183.607 129.811" stroke="white" stroke-width="0.621786" stroke-linecap="round" stroke-linejoin="round"/>
<path d="M180.54 79.4481C183.455 83.391 185.621 87.6199 188.998 91.222C192.558 95.0128 196.117 99.3572 196.786 104.7" stroke="white" stroke-width="0.621786" stroke-linecap="round" stroke-linejoin="round"/>
<path d="M176.427 75.3469C177.262 75.8943 178.03 76.5375 178.715 77.2636" stroke="white" stroke-width="0.621786" stroke-linecap="round" stroke-linejoin="round"/>
</g>
<path d="M235.077 166.849C234.737 166.922 234.396 166.982 234.043 167.031C224.843 168.345 214.523 160.715 211.043 151.558C208.293 144.323 210.696 136.115 212.01 132.604C212.424 131.503 212.722 130.864 212.722 130.864C218.272 122.954 250.533 138.439 250.91 146.982C251.287 155.525 244.503 164.78 235.077 166.849Z" fill="#263238" stroke="#263238" stroke-width="0.621786" stroke-linecap="round" stroke-linejoin="round"/>
<path d="M245.172 148.138C245.172 148.138 243.347 161.719 234.043 167.031C224.843 168.345 214.523 160.715 211.043 151.558C208.293 144.323 210.696 136.115 212.01 132.604C222.884 126.391 245.172 148.138 245.172 148.138Z" fill="white"/>
<mask id="mask1_13644_35366" style="mask-type:luminance" maskUnits="userSpaceOnUse" x="209" y="131" width="37" height="37">
<path d="M245.172 148.138C245.172 148.138 243.347 161.719 234.043 167.031C224.843 168.345 214.523 160.715 211.043 151.558C208.293 144.323 210.696 136.115 212.01 132.604C222.884 126.391 245.172 148.138 245.172 148.138Z" fill="white"/>
</mask>
<g mask="url(#mask1_13644_35366)">
<path opacity="0.4" d="M245.172 148.138C245.172 148.138 243.347 161.719 234.043 167.031C224.843 168.345 214.523 160.715 211.043 151.558C208.293 144.323 210.696 136.115 212.01 132.604C222.884 126.391 245.172 148.138 245.172 148.138Z" fill="#7E2EBC"/>
</g>
<path d="M245.172 148.138C245.172 148.138 243.347 161.719 234.043 167.031C224.843 168.345 214.523 160.715 211.043 151.558C208.293 144.323 210.696 136.115 212.01 132.604C222.884 126.391 245.172 148.138 245.172 148.138Z" stroke="#263238" stroke-width="0.621786" stroke-linecap="round" stroke-linejoin="round"/>
<path d="M207.125 155.288C207.125 155.288 217.602 170.329 229.839 171.582C242.075 172.836 249.918 162.528 250.399 154.758" stroke="#263238" stroke-width="0.621786" stroke-linecap="round" stroke-linejoin="round"/>
<path d="M201.234 87.4129C202.153 84.8391 208.761 85.7031 210.86 93.7349C212.96 101.767 221.204 121.292 221.204 121.292C221.204 121.292 254.062 72.9739 259.927 71.112C265.793 69.2501 263.487 77.6226 255.619 89.2383C255.619 89.2383 262.988 87.9423 264.923 89.2383C266.858 90.5343 265.915 98.3653 266.943 101.079C268.671 105.661 264.832 106.628 264.832 106.628C266.715 106.671 268.526 107.36 269.961 108.582C272.072 110.559 271.014 118.731 271.616 121.043C272.218 123.355 268.19 125.302 268.19 125.302C268.19 125.302 277.871 130.578 275.687 131.904C271.999 134.131 269.9 131.849 269.9 131.849C269.9 131.849 255.023 150.529 243.803 154.691C232.583 158.853 210.745 142.315 208.396 133.31C206.047 124.304 208.852 124.858 207.07 109.872C205.287 94.8849 201.234 87.4129 201.234 87.4129Z" fill="white" stroke="#263238" stroke-width="0.621786" stroke-linecap="round" stroke-linejoin="round"/>
<path d="M249.138 57.7245L205.873 69.0021C204.338 69.4022 203.419 70.9708 203.819 72.5057L224.27 150.963C224.67 152.497 226.238 153.417 227.773 153.017L271.038 141.74C272.573 141.34 273.493 139.771 273.093 138.236L252.642 59.7792C252.241 58.2443 250.673 57.3244 249.138 57.7245Z" fill="white" stroke="#263238" stroke-width="0.621786" stroke-linecap="round" stroke-linejoin="round"/>
<path d="M224.35 66.7432C224.373 66.8323 224.379 66.9251 224.366 67.0162C224.353 67.1074 224.323 67.1952 224.276 67.2746C224.23 67.354 224.168 67.4234 224.094 67.4789C224.021 67.5344 223.937 67.5749 223.848 67.5981C223.759 67.6212 223.666 67.6266 223.575 67.614C223.484 67.6013 223.396 67.5707 223.317 67.5241C223.237 67.4775 223.168 67.4157 223.112 67.3423C223.057 67.2688 223.016 67.1852 222.993 67.0961C222.969 67.007 222.962 66.9138 222.974 66.8221C222.986 66.7304 223.016 66.642 223.062 66.562C223.109 66.4821 223.171 66.4123 223.244 66.3567C223.318 66.301 223.403 66.2607 223.492 66.2381C223.673 66.1919 223.865 66.219 224.025 66.3136C224.186 66.4083 224.303 66.5627 224.35 66.7432Z" fill="#7E2EBC" stroke="#263238" stroke-width="0.621786" stroke-linecap="round" stroke-linejoin="round"/>
<path d="M233.264 64.4189C233.279 64.4749 233.282 64.5331 233.274 64.5904C233.266 64.6476 233.247 64.7027 233.218 64.7525C233.188 64.8023 233.149 64.8458 233.103 64.8804C233.057 64.915 233.004 64.9402 232.948 64.9544C232.864 64.9756 232.776 64.9715 232.694 64.9426C232.613 64.9138 232.542 64.8614 232.49 64.7921C232.438 64.7229 232.408 64.6398 232.403 64.5535C232.398 64.4671 232.419 64.3812 232.463 64.3068C232.507 64.2323 232.572 64.1725 232.65 64.135C232.728 64.0974 232.816 64.0838 232.901 64.0958C232.987 64.1078 233.067 64.1449 233.132 64.2024C233.196 64.2599 233.242 64.3352 233.264 64.4189Z" fill="#7E2EBC" stroke="#263238" stroke-width="0.621786" stroke-linecap="round" stroke-linejoin="round"/>
<path d="M231.134 65.5163L225.911 66.8626C225.806 66.8895 225.744 66.9958 225.771 67.1001L225.798 67.2064C225.825 67.3107 225.931 67.3734 226.036 67.3465L231.259 66.0003C231.363 65.9734 231.426 65.8671 231.399 65.7628L231.372 65.6565C231.345 65.5522 231.238 65.4895 231.134 65.5163Z" fill="#7E2EBC" stroke="#263238" stroke-width="0.622842" stroke-linecap="round" stroke-linejoin="round"/>
<path d="M251.342 60.5915L271.622 138.403C271.735 138.839 271.671 139.303 271.443 139.692C271.214 140.08 270.841 140.363 270.405 140.478L227.697 151.606C227.26 151.719 226.797 151.655 226.408 151.427C226.019 151.199 225.736 150.826 225.622 150.389L205.342 72.5784C205.229 72.1419 205.293 71.6784 205.521 71.2895C205.75 70.9006 206.123 70.6179 206.559 70.5035L215.327 68.2157C215.608 68.1418 215.905 68.1559 216.178 68.256C216.451 68.3561 216.687 68.5374 216.854 68.7755L217.493 69.6821C217.66 69.9202 217.896 70.1015 218.169 70.2015C218.442 70.3016 218.739 70.3157 219.02 70.2419L238.266 65.2281C238.544 65.1553 238.794 65.0003 238.983 64.7831C239.172 64.566 239.291 64.297 239.325 64.0111L239.44 62.9098C239.472 62.6234 239.591 62.3535 239.78 62.1361C239.969 61.9187 240.22 61.7641 240.499 61.6929L249.267 59.405C249.699 59.2909 250.159 59.3514 250.548 59.5734C250.936 59.7954 251.221 60.161 251.342 60.5915Z" fill="url(#paint0_linear_13644_35366)" stroke="#263238" stroke-width="0.621786" stroke-linecap="round" stroke-linejoin="round"/>
<path d="M252.829 104.255C256.798 95.1158 252.606 84.4899 243.466 80.5216C234.327 76.5533 223.701 80.7454 219.732 89.8849C215.764 99.0244 219.956 109.65 229.096 113.619C238.235 117.587 248.861 113.395 252.829 104.255Z" fill="white" stroke="#263238" stroke-width="0.621786" stroke-linecap="round" stroke-linejoin="round"/>
<path d="M228.828 107.432C228.983 107.794 229.266 108.087 229.623 108.253C229.98 108.42 230.387 108.448 230.763 108.332L236.696 106.622C236.709 106.75 236.734 106.876 236.769 107C236.859 107.31 237.009 107.599 237.211 107.851C237.412 108.103 237.662 108.313 237.944 108.468C238.227 108.624 238.538 108.723 238.859 108.758C239.18 108.794 239.504 108.766 239.814 108.676C240.124 108.586 240.414 108.436 240.666 108.234C240.918 108.033 241.128 107.783 241.283 107.5C241.439 107.218 241.537 106.907 241.573 106.586C241.609 106.265 241.581 105.941 241.491 105.631C241.453 105.508 241.406 105.388 241.351 105.272L247.277 103.562C247.664 103.458 247.998 103.213 248.214 102.875C248.429 102.537 248.509 102.131 248.439 101.736C248.402 101.522 248.32 101.318 248.198 101.137C248.076 100.957 247.917 100.804 247.732 100.689C247.547 100.574 247.34 100.5 247.124 100.47C246.909 100.441 246.689 100.458 246.48 100.519L245.981 100.215C244.9 99.5684 244.104 98.5355 243.754 97.3249L242.629 93.4246C242.165 91.8184 241.136 90.4343 239.731 89.5282C238.326 88.6222 236.64 88.2555 234.986 88.496C235.27 88.1964 235.448 87.8115 235.491 87.401C235.535 86.9904 235.442 86.5769 235.227 86.2243C235.012 85.8717 234.687 85.5996 234.303 85.4501C233.918 85.3005 233.494 85.2818 233.098 85.3968C232.701 85.5118 232.354 85.7541 232.109 86.0864C231.863 86.4186 231.735 86.8223 231.742 87.2351C231.749 87.6479 231.892 88.0469 232.148 88.3705C232.405 88.694 232.76 88.9242 233.161 89.0254C231.618 89.6992 230.373 90.9127 229.661 92.4383C228.949 93.964 228.817 95.697 229.291 97.3127L230.429 101.256C230.631 101.944 230.681 102.669 230.576 103.379C230.471 104.089 230.213 104.768 229.82 105.369C229.614 105.431 229.423 105.535 229.26 105.675C229.096 105.815 228.964 105.988 228.87 106.182C228.777 106.376 228.725 106.587 228.718 106.802C228.711 107.017 228.748 107.232 228.828 107.432ZM234.676 86.9505C234.736 87.1586 234.733 87.3798 234.667 87.5862C234.602 87.7926 234.476 87.9749 234.307 88.11C234.138 88.2451 233.932 88.3271 233.716 88.3454C233.501 88.3638 233.284 88.3178 233.095 88.2132C232.905 88.1086 232.751 87.9501 232.651 87.7578C232.551 87.5654 232.511 87.3479 232.535 87.1327C232.559 86.9174 232.646 86.7141 232.786 86.5485C232.925 86.3829 233.111 86.2623 233.319 86.2021C233.457 86.1612 233.602 86.1482 233.745 86.1638C233.889 86.1794 234.027 86.2232 234.154 86.2929C234.28 86.3625 234.391 86.4564 234.481 86.5693C234.57 86.6822 234.637 86.8118 234.676 86.9505Z" fill="url(#paint1_linear_13644_35366)" stroke="#263238" stroke-width="0.621786" stroke-linecap="round" stroke-linejoin="round"/>
<path d="M240.274 105.369L237.657 106.129" stroke="#263238" stroke-width="0.621786" stroke-linecap="round" stroke-linejoin="round"/>
<path d="M244.144 101.183L232.151 104.651" stroke="#263238" stroke-width="0.621786" stroke-linecap="round" stroke-linejoin="round"/>
<path d="M256.672 125.418L232.333 131.758C231.637 131.942 230.912 131.986 230.199 131.889C229.486 131.792 228.799 131.555 228.177 131.193C227.555 130.83 227.011 130.348 226.576 129.775C226.141 129.201 225.823 128.548 225.64 127.852C225.457 127.155 225.413 126.43 225.51 125.716C225.608 125.003 225.845 124.315 226.208 123.694C226.572 123.072 227.054 122.528 227.628 122.093C228.202 121.658 228.856 121.341 229.553 121.159L253.891 114.818C255.293 114.457 256.78 114.665 258.029 115.397C259.277 116.129 260.185 117.325 260.554 118.725C260.926 120.127 260.725 121.619 259.998 122.874C259.27 124.129 258.074 125.044 256.672 125.418Z" fill="#263238"/>
<path d="M197.523 194.315C197.523 194.315 190.136 177.126 193.872 156.28" stroke="#263238" stroke-width="0.621786" stroke-linecap="round" stroke-linejoin="round"/>
<path d="M179.5 212.885C179.5 212.885 164.568 217.449 163.071 220.887C161.574 224.325 169.764 221.428 169.764 221.428" stroke="#263238" stroke-width="0.621786" stroke-linecap="round" stroke-linejoin="round"/>
<path d="M188.682 142.4C188.682 142.4 174.93 156.03 165.73 159.663" stroke="#263238" stroke-width="0.621786" stroke-linecap="round" stroke-linejoin="round"/>
<path d="M143.625 138.737C143.625 138.737 141.118 157.137 150.47 160.612" stroke="#263238" stroke-width="0.621786" stroke-linecap="round" stroke-linejoin="round"/>
<path d="M117.156 175.89C117.156 175.89 117.083 151.771 121.872 144.311" stroke="#263238" stroke-width="0.621786" stroke-linecap="round" stroke-linejoin="round"/>
<path d="M115.367 151.314C115.367 151.314 114.023 166.295 117.047 171.181" stroke="#263238" stroke-width="0.621786" stroke-linecap="round" stroke-linejoin="round"/>
<path d="M105.522 179.45C105.522 179.45 95.0626 175.848 92.8964 180.314C90.7303 184.78 99.1332 180.819 99.1332 180.819" stroke="#263238" stroke-width="0.621786" stroke-linecap="round" stroke-linejoin="round"/>
<path d="M111.814 195.088C111.814 195.088 101.543 200.874 101.014 204.184" stroke="#263238" stroke-width="0.621786" stroke-linecap="round" stroke-linejoin="round"/>
<path d="M128.589 179.085C128.589 179.085 148.249 208.797 159.098 206.071" stroke="#263238" stroke-width="0.621786" stroke-linecap="round" stroke-linejoin="round"/>
<path d="M142.018 220.759C142.018 220.759 126.606 232.058 124.373 231.103" stroke="#263238" stroke-width="0.621786" stroke-linecap="round" stroke-linejoin="round"/>
<path opacity="0.2" d="M249.979 172.544C251.019 171.692 251.707 171.126 251.932 170.95C251.701 171.151 251.032 171.735 249.979 172.544Z" fill="black"/>
<path d="M230.464 123.554L232.898 127.503L232.95 127.49L233.248 122.86L234.571 122.53L234.032 128.66L232.494 129.044L229.138 123.884L230.464 123.554ZM236.444 122.063L237.852 127.708L236.658 128.006L235.251 122.36L236.444 122.063ZM243.318 123.347C243.471 123.963 243.485 124.516 243.359 125.006C243.235 125.495 243.002 125.904 242.658 126.232C242.315 126.557 241.895 126.782 241.397 126.906C240.895 127.031 240.417 127.029 239.961 126.901C239.506 126.773 239.108 126.521 238.769 126.147C238.43 125.773 238.184 125.279 238.031 124.665C237.877 124.05 237.862 123.497 237.986 123.007C238.11 122.518 238.343 122.11 238.686 121.785C239.028 121.458 239.449 121.231 239.951 121.106C240.449 120.982 240.926 120.984 241.382 121.113C241.838 121.239 242.237 121.489 242.576 121.863C242.917 122.237 243.164 122.731 243.318 123.347ZM242.108 123.649C242.008 123.25 241.865 122.929 241.677 122.685C241.491 122.44 241.273 122.274 241.023 122.186C240.772 122.098 240.503 122.09 240.214 122.162C239.926 122.234 239.692 122.368 239.512 122.563C239.332 122.758 239.217 123.007 239.166 123.311C239.116 123.614 239.141 123.965 239.241 124.364C239.34 124.762 239.483 125.084 239.669 125.328C239.856 125.572 240.075 125.738 240.326 125.826C240.576 125.914 240.845 125.922 241.134 125.85C241.422 125.778 241.657 125.645 241.836 125.45C242.016 125.255 242.131 125.005 242.18 124.702C242.231 124.399 242.207 124.048 242.108 123.649ZM245.295 119.856L246.767 119.489L249.267 122.894L249.333 122.878L249.942 118.697L251.414 118.33L252.822 123.976L251.664 124.264L250.748 120.59L250.701 120.602L250.149 124.613L249.361 124.809L246.987 121.513L246.94 121.524L247.86 125.213L246.702 125.501L245.295 119.856ZM253.805 123.73L252.397 118.085L256.201 117.137L256.447 118.121L253.836 118.772L254.172 120.117L256.586 119.515L256.832 120.499L254.417 121.101L254.753 122.449L257.375 121.795L257.62 122.779L253.805 123.73Z" fill="white"/>
</g>
<defs>
<linearGradient id="paint0_linear_13644_35366" x1="205.287" y1="151.661" x2="271.677" y2="151.661" gradientUnits="userSpaceOnUse">
<stop stop-color="#7E2EBC"/>
<stop offset="1" stop-color="#8240E1"/>
</linearGradient>
<linearGradient id="paint1_linear_13644_35366" x1="228.717" y1="108.773" x2="248.464" y2="108.773" gradientUnits="userSpaceOnUse">
<stop stop-color="#7E2EBC"/>
<stop offset="1" stop-color="#8240E1"/>
</linearGradient>
<clipPath id="clip0_13644_35366">
<rect width="326" height="240" rx="4" fill="white"/>
</clipPath>
</defs>
</svg>
