<svg width="312" height="278" viewBox="0 0 312 278" fill="none" xmlns="http://www.w3.org/2000/svg">
<g opacity="0.1">
<path d="M268.709 31.3925C263.479 28.5345 261.106 30.9148 259.204 28.5345C257.301 26.1542 264.434 19.977 250.144 13.7997C250.144 13.7997 249.197 0.489823 229.701 0.0121165C210.206 -0.46559 215.461 13.322 210.231 16.6495C205.001 19.977 203.576 14.7798 198.346 18.0744C193.116 21.3689 195.496 28.0568 191.221 29.004C186.947 29.9512 181.231 24.7293 176.001 28.0568C170.77 31.3843 170.77 34.234 168.398 34.234C166.026 34.234 161.266 32.3315 158.416 34.234C155.566 36.1366 152.23 38.5169 152.23 38.5169H272.481C272.481 38.5169 273.939 34.2423 268.709 31.3925Z" fill="#7E2EBC"/>
<path opacity="0.5" d="M268.709 31.3925C263.479 28.5345 261.106 30.9148 259.204 28.5345C257.301 26.1542 264.434 19.977 250.144 13.7997C250.144 13.7997 249.197 0.489823 229.701 0.0121165C210.206 -0.46559 215.461 13.322 210.231 16.6495C205.001 19.977 203.576 14.7798 198.346 18.0744C193.116 21.3689 195.496 28.0568 191.221 29.004C186.947 29.9512 181.231 24.7293 176.001 28.0568C170.77 31.3843 170.77 34.234 168.398 34.234C166.026 34.234 161.266 32.3315 158.416 34.234C155.566 36.1366 152.23 38.5169 152.23 38.5169H272.481C272.481 38.5169 273.939 34.2423 268.709 31.3925Z" fill="white"/>
<path d="M132.34 138.242C128.666 136.241 126.994 137.905 125.66 136.241C124.326 134.577 129.333 130.228 119.318 125.888C119.318 125.888 118.651 116.54 104.954 116.202C91.2568 115.864 94.9385 125.55 91.2651 127.889C87.5917 130.228 86.5951 126.555 82.9217 128.894C79.2483 131.233 80.912 135.903 77.914 136.57C74.9159 137.238 70.8966 133.564 67.2067 135.903C63.5169 138.242 63.5334 140.244 61.8696 140.244C60.2059 140.244 56.8537 138.91 54.8523 140.244C52.8508 141.578 50.5117 143.25 50.5117 143.25H135.008C135.008 143.25 136.013 140.244 132.34 138.242Z" fill="white"/>
<path opacity="0.5" d="M132.34 138.242C128.666 136.241 126.994 137.905 125.66 136.241C124.326 134.577 129.333 130.228 119.318 125.888C119.318 125.888 118.651 116.54 104.954 116.202C91.2568 115.864 94.9385 125.55 91.2651 127.889C87.5917 130.228 86.5951 126.555 82.9217 128.894C79.2483 131.233 80.912 135.903 77.914 136.57C74.9159 137.238 70.8966 133.564 67.2067 135.903C63.5169 138.242 63.5334 140.244 61.8696 140.244C60.2059 140.244 56.8537 138.91 54.8523 140.244C52.8508 141.578 50.5117 143.25 50.5117 143.25H135.008C135.008 143.25 136.013 140.244 132.34 138.242Z" fill="white"/>
<path d="M236.764 277.412H288.818C287.821 271.045 283.728 272.165 283.184 262.298C282.913 257.356 287.517 251.179 287.113 244.656C286.784 239.277 281.488 233.767 281.076 227.615C280.705 222.064 285.194 215.903 284.79 209.923C284.37 204.273 279.025 198.845 278.523 192.965C278.061 187.199 282.492 181.014 281.965 175.215C281.438 169.417 275.978 164.088 275.376 158.372C274.775 152.5 279.066 146.174 278.407 140.557C277.715 134.586 272.082 129.43 271.316 123.928C270.492 117.808 274.454 111.268 273.523 105.981C272.378 99.507 266.349 94.8205 265.081 90.0435C262.717 81.14 263.014 72.566 260.221 72.0059C257.248 71.4129 256.565 79.8222 254.308 89.2198C253.171 93.9392 247.282 98.7245 246.31 105.207C245.528 110.453 249.695 116.836 249.012 122.931C248.402 128.392 242.909 133.638 242.373 139.577C241.871 145.161 246.327 151.313 245.89 157.153C245.462 162.828 240.125 168.239 239.771 174.005C239.416 179.77 243.996 185.799 243.683 191.49C243.362 197.322 238.132 202.832 237.86 208.441C237.58 214.379 242.266 220.367 242.036 225.869C241.78 231.972 236.624 237.556 236.435 242.893C236.204 249.367 240.957 255.338 240.808 260.272C240.495 270.979 235.595 268.747 235.422 277.362L236.764 277.412Z" fill="#7E2EBC"/>
<path d="M259.109 89.1127V275.007" stroke="black" stroke-width="0.495902" stroke-miterlimit="10"/>
<path d="M267.24 108.6L258.765 115.922L251.83 106.673" stroke="black" stroke-width="0.495902" stroke-miterlimit="10"/>
<path d="M267.24 140.961L258.765 148.275L251.83 139.033" stroke="black" stroke-width="0.495902" stroke-miterlimit="10"/>
<path d="M267.24 171.385L258.765 178.708L251.83 169.458" stroke="black" stroke-width="0.495902" stroke-miterlimit="10"/>
<path d="M267.24 207.601L258.765 214.914L251.83 205.673" stroke="black" stroke-width="0.495902" stroke-miterlimit="10"/>
<path d="M267.24 244.195L258.765 251.509L251.83 242.267" stroke="black" stroke-width="0.495902" stroke-miterlimit="10"/>
<path d="M201.308 277.412H241.493C240.719 272.47 237.564 273.359 237.144 265.749C236.93 261.911 240.48 257.167 240.175 252.126C239.92 248.008 235.835 243.717 235.513 238.948C235.225 234.665 238.717 229.888 238.38 225.292C238.058 220.927 233.916 216.743 233.545 212.205C233.174 207.666 236.609 202.972 236.205 198.499C235.802 194.027 231.576 189.909 231.132 185.503C230.67 180.964 233.981 176.088 233.471 171.74C232.935 167.136 228.587 163.157 228.002 158.916C227.343 154.188 230.423 149.139 229.699 145.062C228.817 140.063 224.164 136.439 223.192 132.757C221.363 125.888 221.594 119.258 219.436 118.829C217.138 118.368 216.611 124.858 214.873 132.123C214 135.763 209.445 139.461 208.696 144.477C208.095 148.53 211.307 153.455 210.78 158.158C210.31 162.375 206.077 166.394 205.657 171.007C205.27 175.314 208.712 180.067 208.375 184.572C208.045 188.954 203.935 193.129 203.647 197.577C203.359 202.025 206.942 206.686 206.67 211.076C206.398 215.466 202.387 219.832 202.181 224.164C201.959 228.743 205.574 233.364 205.401 237.614C205.204 242.325 201.226 246.674 201.077 250.792C200.896 255.783 204.57 260.404 204.454 264.201C204.207 272.437 200.427 270.748 200.295 277.379L201.308 277.412Z" fill="#7E2EBC"/>
<path d="M218.564 132.065V275.558" stroke="black" stroke-width="0.495902" stroke-miterlimit="10"/>
<path d="M224.831 147.105L218.291 152.755L212.938 145.614" stroke="black" stroke-width="0.495902" stroke-miterlimit="10"/>
<path d="M224.831 172.078L218.291 177.728L212.938 170.595" stroke="black" stroke-width="0.495902" stroke-miterlimit="10"/>
<path d="M224.831 195.568L218.291 201.218L212.938 194.085" stroke="black" stroke-width="0.495902" stroke-miterlimit="10"/>
<path d="M224.831 223.522L218.291 229.172L212.938 222.031" stroke="black" stroke-width="0.495902" stroke-miterlimit="10"/>
<path d="M224.831 251.772L218.291 257.414L212.938 250.281" stroke="black" stroke-width="0.495902" stroke-miterlimit="10"/>
<path d="M165.492 277.025V110.503H174.28V277.025" fill="#2E353A"/>
<path d="M165.492 277.025V110.503H174.28V277.025" stroke="#2E353A" stroke-width="0.495902" stroke-linecap="round" stroke-linejoin="round"/>
<path d="M161.104 277.025V110.503H169.892V277.025" fill="#7E2EBC"/>
<path d="M161.104 277.025V110.503H169.892V277.025" stroke="#2E353A" stroke-width="0.495902" stroke-linecap="round" stroke-linejoin="round"/>
<g style="mix-blend-mode:multiply" opacity="0.3">
<path d="M169.892 110.503H161.104V130.27H169.892V110.503Z" fill="#2E353A"/>
</g>
<path d="M198.601 45.493H133.484L161.867 115.205H226.991V73.8754C226.991 70.1475 226.257 66.4561 224.83 63.0121C223.403 59.568 221.312 56.4388 218.675 53.8031C216.039 51.1675 212.909 49.077 209.465 47.6512C206.02 46.2253 202.329 45.492 198.601 45.493Z" fill="#7E2EBC" stroke="#2E353A" stroke-width="0.495902" stroke-linecap="round" stroke-linejoin="round"/>
<g style="mix-blend-mode:multiply" opacity="0.3">
<path d="M156.9 102.999L161.842 115.205H226.992V73.8755C226.992 73.2495 226.992 72.6236 226.926 72.0059H156.917L156.9 102.999Z" fill="black"/>
</g>
<path d="M198.124 72.006H191.271" stroke="#2E353A" stroke-width="0.495902" stroke-linecap="round" stroke-linejoin="round"/>
<path d="M226.927 72.0061H206.188" stroke="#2E353A" stroke-width="0.495902" stroke-linecap="round" stroke-linejoin="round"/>
<path d="M133.486 45.493C141.016 45.493 148.237 48.4842 153.562 53.8085C158.886 59.1327 161.877 66.354 161.877 73.8837V115.214H105.096V73.8754C105.098 66.3472 108.09 59.128 113.414 53.8056C118.738 48.4831 125.958 45.493 133.486 45.493Z" fill="#2E353A" stroke="#2E353A" stroke-width="0.495902" stroke-linecap="round" stroke-linejoin="round"/>
<path d="M161.869 110.503H112.945V115.205H161.869V110.503Z" fill="#7E2EBC" stroke="#2E353A" stroke-width="0.495902" stroke-linecap="round" stroke-linejoin="round"/>
<path d="M161.868 110.502H60.6191V115.205H161.868V110.502Z" fill="#7E2EBC" stroke="#2E353A" stroke-width="0.495902" stroke-linecap="round" stroke-linejoin="round"/>
<path opacity="0.3" d="M161.869 110.503H112.945V115.205H161.869V110.503Z" fill="black"/>
<path d="M202.835 28.691H182.516V42.9646H202.835V28.691Z" fill="#2E353A" stroke="#2E353A" stroke-width="0.495902" stroke-linecap="round" stroke-linejoin="round"/>
<path d="M184.167 28.691H179.777V73.1672H184.167V28.691Z" fill="white" stroke="#2E353A" stroke-width="0.495902" stroke-linecap="round" stroke-linejoin="round"/>
<path d="M181.965 79.2043C184.695 79.2043 186.907 76.9918 186.907 74.2625C186.907 71.5332 184.695 69.3207 181.965 69.3207C179.236 69.3207 177.023 71.5332 177.023 74.2625C177.023 76.9918 179.236 79.2043 181.965 79.2043Z" fill="#2E353A" stroke="#2E353A" stroke-width="0.495902" stroke-linecap="round" stroke-linejoin="round"/>
<path d="M109.49 56.9092C120.955 62.7323 140.887 72.064 159.271 76.7587" stroke="white" stroke-width="0.495902" stroke-linecap="round" stroke-linejoin="round" stroke-dasharray="0.99 1.98"/>
<path d="M99.8691 51.8439C99.8691 51.8439 103.543 53.9194 109.489 56.9422" stroke="#2E353A" stroke-width="0.495902" stroke-linecap="round" stroke-linejoin="round" stroke-dasharray="0.99 1.98"/>
<path d="M95.7421 51.5386L103.987 31.9526L44.1992 17.3661L95.7421 51.5386Z" fill="white" stroke="#2E353A" stroke-width="0.626274" stroke-linecap="round" stroke-linejoin="round"/>
<path d="M99.7615 34.3247L95.7421 51.5386L44.1992 17.3661L99.7615 34.3247Z" fill="#7E2EBC" stroke="#2E353A" stroke-width="0.626274" stroke-linecap="round" stroke-linejoin="round"/>
<path d="M99.7615 34.3247L90.3803 42.3633L44.1992 17.3661L99.7615 34.3247Z" fill="white" stroke="#2E353A" stroke-width="0.626274" stroke-linecap="round" stroke-linejoin="round"/>
<path d="M103.987 31.9526L112.338 28.5593L44.1992 17.3661L103.987 31.9526Z" fill="white" stroke="#2E353A" stroke-width="0.626274" stroke-linecap="round" stroke-linejoin="round"/>
<path d="M84.1309 48.4915L86.0664 49.6775" stroke="#2E353A" stroke-width="0.495902" stroke-linecap="round" stroke-linejoin="round"/>
<path d="M73.5723 42.0176L80.0543 45.9875" stroke="#2E353A" stroke-width="0.495902" stroke-linecap="round" stroke-linejoin="round"/>
<path d="M66.291 89.0307V67.7892L127.059 77.5575L66.291 89.0307Z" fill="white" stroke="#2E353A" stroke-width="0.626274" stroke-linecap="round" stroke-linejoin="round"/>
<path d="M69.2643 71.6108L66.291 89.0307L127.059 77.5575L69.2643 71.6108Z" fill="#7E2EBC" stroke="#2E353A" stroke-width="0.626274" stroke-linecap="round" stroke-linejoin="round"/>
<path d="M69.2637 71.6112L74.7903 82.6561L127.058 77.5578L69.2637 71.6112Z" fill="white" stroke="#2E353A" stroke-width="0.626274" stroke-linecap="round" stroke-linejoin="round"/>
<path d="M66.2909 67.7891L59.916 61.4142L127.059 77.5574L66.2909 67.7891Z" fill="white" stroke="#2E353A" stroke-width="0.626274" stroke-linecap="round" stroke-linejoin="round"/>
<path d="M88.0488 88.6353L93.3201 87.5646" stroke="#2E353A" stroke-width="0.495902" stroke-linecap="round" stroke-linejoin="round"/>
<path d="M69.5352 92.3992L82.7874 89.7059" stroke="#2E353A" stroke-width="0.495902" stroke-linecap="round" stroke-linejoin="round"/>
<path d="M58.9684 87.7211C58.9684 87.7211 11.1978 95.9574 2.1378 138.786C-6.92215 181.615 40.8485 184.086 49.0849 163.495C57.3212 142.904 21.0814 134.668 12.845 154.435C4.6087 174.202 29.3177 207.971 63.0866 209.619C91.1478 210.986 169.821 178.23 218.753 169.953C218.753 169.953 254.993 159.921 311 162.12" stroke="#2E353A" stroke-width="0.495902" stroke-linecap="round" stroke-linejoin="round" stroke-dasharray="0.99 1.98"/>
<path d="M294.801 221.973H308.531" stroke="#2E353A" stroke-width="0.495902" stroke-linecap="round" stroke-linejoin="round"/>
<path d="M294.801 242.284H308.531" stroke="#2E353A" stroke-width="0.495902" stroke-linecap="round" stroke-linejoin="round"/>
<path d="M5.70312 241.74H293.151V222.517H5.70312" fill="white"/>
<path d="M5.70312 241.74H293.151V222.517H5.70312" stroke="#2E353A" stroke-width="0.495902" stroke-linecap="round" stroke-linejoin="round"/>
<path d="M25.6855 277.157V180.446C25.6857 180.209 25.734 179.974 25.8274 179.756C25.9208 179.538 26.0575 179.341 26.2291 179.177L33.7407 172.102C34.0789 171.786 34.5285 171.616 34.9914 171.63C35.4543 171.644 35.8929 171.841 36.2116 172.176L42.8006 179.186C43.0996 179.512 43.2668 179.937 43.2701 180.38V277.157" fill="#2E353A"/>
<path d="M25.6855 277.157V180.446C25.6857 180.209 25.734 179.974 25.8274 179.756C25.9208 179.538 26.0575 179.341 26.2291 179.177L33.7407 172.102C34.0789 171.786 34.5285 171.616 34.9914 171.63C35.4543 171.644 35.8929 171.841 36.2116 172.176L42.8006 179.186C43.0996 179.512 43.2668 179.937 43.2701 180.38V277.157" stroke="#2E353A" stroke-width="0.495902" stroke-linecap="round" stroke-linejoin="round"/>
<path d="M23.5488 277.98V180.446C23.5486 180.208 23.5975 179.972 23.6924 179.754C23.7874 179.536 23.9264 179.339 24.1007 179.177L31.6122 172.102C31.7792 171.945 31.9756 171.822 32.1903 171.74C32.4049 171.658 32.6335 171.62 32.863 171.627C33.0925 171.634 33.3184 171.686 33.5278 171.78C33.7371 171.874 33.9258 172.009 34.0831 172.176L40.6722 179.186C40.9746 179.51 41.1424 179.937 41.1416 180.38V277.98" fill="white"/>
<path d="M23.5488 277.98V180.446C23.5486 180.208 23.5975 179.972 23.6924 179.754C23.7874 179.536 23.9264 179.339 24.1007 179.177L31.6122 172.102C31.7792 171.945 31.9756 171.822 32.1903 171.74C32.4049 171.658 32.6335 171.62 32.863 171.627C33.0925 171.634 33.3184 171.686 33.5278 171.78C33.7371 171.874 33.9258 172.009 34.0831 172.176L40.6722 179.186C40.9746 179.51 41.1424 179.937 41.1416 180.38V277.98" stroke="#2E353A" stroke-width="0.495902" stroke-linecap="round" stroke-linejoin="round"/>
<path d="M89.0234 277.157V180.446C89.0236 180.208 89.0718 179.974 89.1653 179.756C89.2587 179.538 89.3954 179.341 89.567 179.177L97.0868 172.102C97.2538 171.945 97.4502 171.822 97.6649 171.74C97.8795 171.658 98.1081 171.62 98.3376 171.627C98.5671 171.634 98.793 171.686 99.0024 171.78C99.2117 171.874 99.4005 172.009 99.5577 172.176L106.147 179.185C106.449 179.51 106.617 179.936 106.616 180.38V277.157" fill="#2E353A"/>
<path d="M89.0234 277.157V180.446C89.0236 180.208 89.0718 179.974 89.1653 179.756C89.2587 179.538 89.3954 179.341 89.567 179.177L97.0868 172.102C97.2538 171.945 97.4502 171.822 97.6649 171.74C97.8795 171.658 98.1081 171.62 98.3376 171.627C98.5671 171.634 98.793 171.686 99.0024 171.78C99.2117 171.874 99.4005 172.009 99.5577 172.176L106.147 179.185C106.449 179.51 106.617 179.936 106.616 180.38V277.157" stroke="#2E353A" stroke-width="0.495902" stroke-linecap="round" stroke-linejoin="round"/>
<path d="M87.2441 277.98V180.446C87.2439 180.208 87.2928 179.972 87.3877 179.754C87.4827 179.536 87.6217 179.339 87.796 179.177L95.3075 172.102C95.6458 171.786 96.0954 171.616 96.5582 171.63C97.0211 171.644 97.4597 171.841 97.7784 172.176L104.367 179.186C104.672 179.509 104.843 179.936 104.845 180.38V277.98" fill="white"/>
<path d="M87.2441 277.98V180.446C87.2439 180.208 87.2928 179.972 87.3877 179.754C87.4827 179.536 87.6217 179.339 87.796 179.177L95.3075 172.102C95.6458 171.786 96.0954 171.616 96.5582 171.63C97.0211 171.644 97.4597 171.841 97.7784 172.176L104.367 179.186C104.672 179.509 104.843 179.936 104.845 180.38V277.98" stroke="#2E353A" stroke-width="0.495902" stroke-linecap="round" stroke-linejoin="round"/>
<path d="M152.713 277.157V180.446C152.713 180.208 152.762 179.972 152.856 179.754C152.951 179.536 153.09 179.339 153.265 179.177L160.776 172.102C161.115 171.786 161.564 171.616 162.027 171.63C162.49 171.644 162.928 171.841 163.247 172.176L169.836 179.186C170.141 179.509 170.312 179.936 170.314 180.38V277.98" fill="#2E353A"/>
<path d="M152.713 277.157V180.446C152.713 180.208 152.762 179.972 152.856 179.754C152.951 179.536 153.09 179.339 153.265 179.177L160.776 172.102C161.115 171.786 161.564 171.616 162.027 171.63C162.49 171.644 162.928 171.841 163.247 172.176L169.836 179.186C170.141 179.509 170.312 179.936 170.314 180.38V277.98" stroke="#2E353A" stroke-width="0.495902" stroke-linecap="round" stroke-linejoin="round"/>
<path d="M150.941 277.98V180.446C150.942 180.209 150.99 179.974 151.083 179.756C151.177 179.538 151.313 179.341 151.485 179.177L159.005 172.102C159.172 171.945 159.368 171.822 159.583 171.74C159.797 171.658 160.026 171.62 160.256 171.627C160.485 171.634 160.711 171.686 160.92 171.78C161.13 171.874 161.318 172.009 161.476 172.176L168.065 179.186C168.367 179.51 168.535 179.937 168.534 180.38V277.98" fill="white"/>
<path d="M150.941 277.98V180.446C150.942 180.209 150.99 179.974 151.083 179.756C151.177 179.538 151.313 179.341 151.485 179.177L159.005 172.102C159.172 171.945 159.368 171.822 159.583 171.74C159.797 171.658 160.026 171.62 160.256 171.627C160.485 171.634 160.711 171.686 160.92 171.78C161.13 171.874 161.318 172.009 161.476 172.176L168.065 179.186C168.367 179.51 168.535 179.937 168.534 180.38V277.98" stroke="#2E353A" stroke-width="0.495902" stroke-linecap="round" stroke-linejoin="round"/>
<path d="M216.412 277.157V180.446C216.412 180.209 216.461 179.974 216.554 179.756C216.647 179.538 216.784 179.341 216.956 179.177L224.467 172.102C224.805 171.786 225.255 171.616 225.718 171.63C226.181 171.644 226.619 171.841 226.938 172.176L233.527 179.186C233.826 179.512 233.993 179.937 233.997 180.38V277.157" fill="#2E353A"/>
<path d="M216.412 277.157V180.446C216.412 180.209 216.461 179.974 216.554 179.756C216.647 179.538 216.784 179.341 216.956 179.177L224.467 172.102C224.805 171.786 225.255 171.616 225.718 171.63C226.181 171.644 226.619 171.841 226.938 172.176L233.527 179.186C233.826 179.512 233.993 179.937 233.997 180.38V277.157" stroke="#2E353A" stroke-width="0.495902" stroke-linecap="round" stroke-linejoin="round"/>
<path d="M214.635 277.98V180.446C214.635 180.208 214.683 179.972 214.778 179.754C214.873 179.536 215.012 179.339 215.187 179.177L222.698 172.102C222.865 171.945 223.062 171.822 223.276 171.74C223.491 171.658 223.719 171.62 223.949 171.627C224.178 171.634 224.404 171.686 224.614 171.78C224.823 171.874 225.012 172.009 225.169 172.176L231.758 179.185C232.06 179.51 232.228 179.936 232.228 180.38V277.98" fill="white"/>
<path d="M214.635 277.98V180.446C214.635 180.208 214.683 179.972 214.778 179.754C214.873 179.536 215.012 179.339 215.187 179.177L222.698 172.102C222.865 171.945 223.062 171.822 223.276 171.74C223.491 171.658 223.719 171.62 223.949 171.627C224.178 171.634 224.404 171.686 224.614 171.78C224.823 171.874 225.012 172.009 225.169 172.176L231.758 179.185C232.06 179.51 232.228 179.936 232.228 180.38V277.98" stroke="#2E353A" stroke-width="0.495902" stroke-linecap="round" stroke-linejoin="round"/>
<path d="M280.105 277.157V180.446C280.106 180.209 280.154 179.974 280.247 179.756C280.341 179.538 280.477 179.341 280.649 179.177L288.169 172.102C288.336 171.945 288.532 171.822 288.747 171.74C288.962 171.658 289.19 171.62 289.42 171.627C289.649 171.634 289.875 171.686 290.084 171.78C290.294 171.874 290.482 172.009 290.64 172.176L297.229 179.186C297.531 179.51 297.699 179.937 297.698 180.38V277.157" fill="#2E353A"/>
<path d="M280.105 277.157V180.446C280.106 180.209 280.154 179.974 280.247 179.756C280.341 179.538 280.477 179.341 280.649 179.177L288.169 172.102C288.336 171.945 288.532 171.822 288.747 171.74C288.962 171.658 289.19 171.62 289.42 171.627C289.649 171.634 289.875 171.686 290.084 171.78C290.294 171.874 290.482 172.009 290.64 172.176L297.229 179.186C297.531 179.51 297.699 179.937 297.698 180.38V277.157" stroke="#2E353A" stroke-width="0.495902" stroke-linecap="round" stroke-linejoin="round"/>
<path d="M278.326 277.98V180.446C278.326 180.208 278.375 179.972 278.47 179.754C278.565 179.536 278.704 179.339 278.878 179.177L286.39 172.102C286.728 171.786 287.177 171.616 287.64 171.63C288.103 171.644 288.542 171.841 288.86 172.176L295.45 179.186C295.754 179.509 295.925 179.936 295.927 180.38V277.98" fill="white"/>
<path d="M278.326 277.98V180.446C278.326 180.208 278.375 179.972 278.47 179.754C278.565 179.536 278.704 179.339 278.878 179.177L286.39 172.102C286.728 171.786 287.177 171.616 287.64 171.63C288.103 171.644 288.542 171.841 288.86 172.176L295.45 179.186C295.754 179.509 295.925 179.936 295.927 180.38V277.98" stroke="#2E353A" stroke-width="0.495902" stroke-linecap="round" stroke-linejoin="round"/>
<path d="M34.0762 172.176V179.227" stroke="#2E353A" stroke-width="0.495902" stroke-linecap="round" stroke-linejoin="round"/>
<path d="M36.9004 175.817V192.504" stroke="#2E353A" stroke-width="0.495902" stroke-linecap="round" stroke-linejoin="round"/>
<path d="M90.7109 177.184V198.294" stroke="#2E353A" stroke-width="0.495902" stroke-linecap="round" stroke-linejoin="round"/>
<path d="M93.4355 174.458V183.649" stroke="#2E353A" stroke-width="0.495902" stroke-linecap="round" stroke-linejoin="round"/>
<path d="M159.004 172.102V192.85" stroke="#2E353A" stroke-width="0.495902" stroke-linecap="round" stroke-linejoin="round"/>
<path d="M162.92 173.774V204.43" stroke="#2E353A" stroke-width="0.495902" stroke-linecap="round" stroke-linejoin="round"/>
<path d="M217.746 177.184V200.336" stroke="#2E353A" stroke-width="0.495902" stroke-linecap="round" stroke-linejoin="round"/>
<path d="M226.6 174.458V180.248" stroke="#2E353A" stroke-width="0.495902" stroke-linecap="round" stroke-linejoin="round"/>
<path d="M284.156 174.112V186.376" stroke="#2E353A" stroke-width="0.495902" stroke-linecap="round" stroke-linejoin="round"/>
<path d="M291.652 175.479V210.895" stroke="#2E353A" stroke-width="0.495902" stroke-linecap="round" stroke-linejoin="round"/>
<path d="M278.028 227.244H270.533" stroke="#2E353A" stroke-width="0.495902" stroke-linecap="round" stroke-linejoin="round"/>
<path d="M278.029 233.035H251.805" stroke="#2E353A" stroke-width="0.495902" stroke-linecap="round" stroke-linejoin="round"/>
<path d="M180.281 233.034H168.363" stroke="#2E353A" stroke-width="0.495902" stroke-linecap="round" stroke-linejoin="round"/>
<path d="M117.617 233.034H105.699" stroke="#2E353A" stroke-width="0.495902" stroke-linecap="round" stroke-linejoin="round"/>
<path d="M23.2793 229.971H11.3613" stroke="#2E353A" stroke-width="0.495902" stroke-linecap="round" stroke-linejoin="round"/>
<path d="M23.2786 235.415H18.5098" stroke="#2E353A" stroke-width="0.495902" stroke-linecap="round" stroke-linejoin="round"/>
<path d="M174.153 229.971H168.363" stroke="#2E353A" stroke-width="0.495902" stroke-linecap="round" stroke-linejoin="round"/>
<path d="M110.806 236.436H105.016" stroke="#2E353A" stroke-width="0.495902" stroke-linecap="round" stroke-linejoin="round"/>
<path d="M86.6261 236.436H80.8359" stroke="#2E353A" stroke-width="0.495902" stroke-linecap="round" stroke-linejoin="round"/>
<path d="M301.183 233.034H296.076" stroke="#2E353A" stroke-width="0.495902" stroke-linecap="round" stroke-linejoin="round"/>
<path d="M307.992 233.034H304.928" stroke="#2E353A" stroke-width="0.495902" stroke-linecap="round" stroke-linejoin="round"/>
<path d="M40.8476 197.627C40.8476 197.627 38.7885 215.326 36.3176 233.438C33.8467 251.55 38.3767 270.082 39.6122 271.729" stroke="#2E353A" stroke-width="0.495902" stroke-linecap="round" stroke-linejoin="round"/>
<path d="M32.7012 233.454C33.0965 229.921 33.426 227.689 33.426 227.689" stroke="#2E353A" stroke-width="0.495902" stroke-linecap="round" stroke-linejoin="round"/>
<path d="M38.7799 269.669C38.7799 269.669 31.3672 268.022 31.3672 254.844C31.3672 249.433 31.7131 243.89 32.1249 239.195" stroke="#2E353A" stroke-width="0.495902" stroke-linecap="round" stroke-linejoin="round"/>
<path d="M100.975 176.624C100.975 176.624 102.622 177.859 99.7394 191.861C96.8567 205.863 97.2685 226.454 100.975 237.985" stroke="#2E353A" stroke-width="0.495902" stroke-linecap="round" stroke-linejoin="round"/>
<path d="M105.092 202.568C105.092 202.568 100.973 214.923 103.856 232.219" stroke="#2E353A" stroke-width="0.495902" stroke-linecap="round" stroke-linejoin="round"/>
<path d="M152.037 210.385C152.037 210.385 154.096 222.327 156.155 234.674C158.214 247.02 156.567 264.324 154.92 268.846C153.272 273.368 151.625 277.082 151.625 277.082" stroke="#2E353A" stroke-width="0.495902" stroke-linecap="round" stroke-linejoin="round"/>
<path d="M159.796 271.029C157.959 276.662 155.678 270.082 155.678 270.082" stroke="#2E353A" stroke-width="0.495902" stroke-linecap="round" stroke-linejoin="round"/>
<path d="M159.721 228.925C159.721 228.925 163.6 248.947 161.409 264.02" stroke="#2E353A" stroke-width="0.495902" stroke-linecap="round" stroke-linejoin="round"/>
<path d="M151.213 235.514C151.213 235.514 155.331 244.162 151.625 252.398" stroke="#2E353A" stroke-width="0.495902" stroke-linecap="round" stroke-linejoin="round"/>
<path d="M228.059 236.733C228.61 239.25 229.334 241.727 230.225 244.145" stroke="#2E353A" stroke-width="0.495902" stroke-linecap="round" stroke-linejoin="round"/>
<path d="M231.462 193.92C228.849 202.215 227.191 210.782 226.52 219.453C226.274 223.84 226.52 228.241 227.253 232.573" stroke="#2E353A" stroke-width="0.495902" stroke-linecap="round" stroke-linejoin="round"/>
<path d="M223.635 231.791C223.635 231.791 227.341 245.793 229.4 250.735C231.459 255.676 230.636 267.611 228.165 273.376" stroke="#2E353A" stroke-width="0.495902" stroke-linecap="round" stroke-linejoin="round"/>
<path d="M279.215 200.097C279.215 200.097 287.451 214.923 279.627 239.212" stroke="#2E353A" stroke-width="0.495902" stroke-linecap="round" stroke-linejoin="round"/>
<path d="M286.784 225.416C286.833 230.045 286.422 235.909 284.568 240.851C280.862 250.734 279.215 254.029 279.215 254.029" stroke="#2E353A" stroke-width="0.495902" stroke-linecap="round" stroke-linejoin="round"/>
<path d="M286.215 217.394C286.215 217.394 286.487 219.164 286.651 221.891" stroke="#2E353A" stroke-width="0.495902" stroke-linecap="round" stroke-linejoin="round"/>
</g>
</svg>
