<svg width="300" height="180" viewBox="0 0 300 180" fill="none" xmlns="http://www.w3.org/2000/svg">
<defs>
<linearGradient id="paint0_linear_33664_398893" x1="89.2646" y1="39.3573" x2="97.301" y2="33.454" gradientUnits="userSpaceOnUse">
<stop stop-color="#7E2EBC"/>
<stop offset="1" stop-color="#C054EE"/>
</linearGradient>
<linearGradient id="paint1_linear_33664_398893" x1="90.4212" y1="39.4619" x2="94.1168" y2="38.3768" gradientUnits="userSpaceOnUse">
<stop stop-color="#7E2EBC"/>
<stop offset="1" stop-color="#C054EE"/>
</linearGradient>
<linearGradient id="paint2_linear_33664_398893" x1="94.813" y1="54.3694" x2="114.675" y2="37.6951" gradientUnits="userSpaceOnUse">
<stop stop-color="#7E2EBC"/>
<stop offset="1" stop-color="#C054EE"/>
</linearGradient>
<linearGradient id="paint3_linear_33664_398893" x1="92.8796" y1="151.889" x2="115.507" y2="147.984" gradientUnits="userSpaceOnUse">
<stop stop-color="#7E2EBC"/>
<stop offset="1" stop-color="#C054EE"/>
</linearGradient>
<linearGradient id="paint4_linear_33664_398893" x1="96.5712" y1="167.629" x2="97.6325" y2="164.35" gradientUnits="userSpaceOnUse">
<stop stop-color="#7E2EBC"/>
<stop offset="1" stop-color="#C054EE"/>
</linearGradient>
<linearGradient id="paint5_linear_33664_398893" x1="101.366" y1="99.4282" x2="109.662" y2="97.9451" gradientUnits="userSpaceOnUse">
<stop stop-color="#7E2EBC"/>
<stop offset="1" stop-color="#C054EE"/>
</linearGradient>
<linearGradient id="paint6_linear_33664_398893" x1="105.808" y1="136.901" x2="149.865" y2="115.836" gradientUnits="userSpaceOnUse">
<stop stop-color="#7E2EBC"/>
<stop offset="1" stop-color="#C054EE"/>
</linearGradient>
<linearGradient id="paint7_linear_33664_398893" x1="136.614" y1="149.857" x2="141.856" y2="144.29" gradientUnits="userSpaceOnUse">
<stop stop-color="#7E2EBC"/>
<stop offset="1" stop-color="#C054EE"/>
</linearGradient>
<linearGradient id="paint8_linear_33664_398893" x1="114.155" y1="39.5927" x2="122.33" y2="33.519" gradientUnits="userSpaceOnUse">
<stop stop-color="#7E2EBC"/>
<stop offset="1" stop-color="#C054EE"/>
</linearGradient>
<linearGradient id="paint9_linear_33664_398893" x1="141.447" y1="156.027" x2="142.598" y2="154.622" gradientUnits="userSpaceOnUse">
<stop stop-color="#7E2EBC"/>
<stop offset="1" stop-color="#C054EE"/>
</linearGradient>
<linearGradient id="paint10_linear_33664_398893" x1="141.302" y1="154.587" x2="141.925" y2="153.354" gradientUnits="userSpaceOnUse">
<stop stop-color="#7E2EBC"/>
<stop offset="1" stop-color="#C054EE"/>
</linearGradient>
<linearGradient id="paint11_linear_33664_398893" x1="94.5821" y1="174.883" x2="95.1609" y2="173.495" gradientUnits="userSpaceOnUse">
<stop stop-color="#7E2EBC"/>
<stop offset="1" stop-color="#C054EE"/>
</linearGradient>
<linearGradient id="paint12_linear_33664_398893" x1="95.6758" y1="174.54" x2="97.0837" y2="173.398" gradientUnits="userSpaceOnUse">
<stop stop-color="#7E2EBC"/>
<stop offset="1" stop-color="#C054EE"/>
</linearGradient>
<linearGradient id="paint13_linear_33664_398893" x1="96.457" y1="59.7244" x2="96.7563" y2="56.8752" gradientUnits="userSpaceOnUse">
<stop stop-color="#7E2EBC"/>
<stop offset="1" stop-color="#C054EE"/>
</linearGradient>
<linearGradient id="paint14_linear_33664_398893" x1="111.892" y1="59.8687" x2="113.154" y2="59.2903" gradientUnits="userSpaceOnUse">
<stop stop-color="#7E2EBC"/>
<stop offset="1" stop-color="#C054EE"/>
</linearGradient>
<linearGradient id="paint15_linear_33664_398893" x1="94.999" y1="59.8704" x2="96.2675" y2="59.2806" gradientUnits="userSpaceOnUse">
<stop stop-color="#7E2EBC"/>
<stop offset="1" stop-color="#C054EE"/>
</linearGradient>
<linearGradient id="paint16_linear_33664_398893" x1="103.438" y1="59.8704" x2="104.695" y2="59.2944" gradientUnits="userSpaceOnUse">
<stop stop-color="#7E2EBC"/>
<stop offset="1" stop-color="#C054EE"/>
</linearGradient>
<linearGradient id="paint17_linear_33664_398893" x1="76.315" y1="53.0214" x2="89.4447" y2="32.0155" gradientUnits="userSpaceOnUse">
<stop stop-color="#7E2EBC"/>
<stop offset="1" stop-color="#C054EE"/>
</linearGradient>
<linearGradient id="paint18_linear_33664_398893" x1="77.959" y1="44.9738" x2="84.0111" y2="29.8747" gradientUnits="userSpaceOnUse">
<stop stop-color="#7E2EBC"/>
<stop offset="1" stop-color="#C054EE"/>
</linearGradient>
<linearGradient id="paint19_linear_33664_398893" x1="135.239" y1="59.902" x2="146.547" y2="40.326" gradientUnits="userSpaceOnUse">
<stop stop-color="#7E2EBC"/>
<stop offset="1" stop-color="#C054EE"/>
</linearGradient>
<linearGradient id="paint20_linear_33664_398893" x1="135.613" y1="52.9299" x2="140.74" y2="38.8356" gradientUnits="userSpaceOnUse">
<stop stop-color="#7E2EBC"/>
<stop offset="1" stop-color="#C054EE"/>
</linearGradient>
<linearGradient id="paint21_linear_33664_398893" x1="109.642" y1="86.2685" x2="120.953" y2="66.6972" gradientUnits="userSpaceOnUse">
<stop stop-color="#7E2EBC"/>
<stop offset="1" stop-color="#C054EE"/>
</linearGradient>
<linearGradient id="paint22_linear_33664_398893" x1="110.011" y1="79.2955" x2="115.139" y2="65.2031" gradientUnits="userSpaceOnUse">
<stop stop-color="#7E2EBC"/>
<stop offset="1" stop-color="#C054EE"/>
</linearGradient>
<linearGradient id="paint23_linear_33664_398893" x1="172.141" y1="74.8334" x2="184.197" y2="66.7853" gradientUnits="userSpaceOnUse">
<stop stop-color="#7E2EBC"/>
<stop offset="1" stop-color="#C054EE"/>
</linearGradient>
<linearGradient id="paint24_linear_33664_398893" x1="172.627" y1="66.6572" x2="179.636" y2="58.4021" gradientUnits="userSpaceOnUse">
<stop stop-color="#7E2EBC"/>
<stop offset="1" stop-color="#C054EE"/>
</linearGradient>
</defs>
<path d="M299.347 159.74H0V159.89H299.347V159.74Z" fill="#EFE6F7"/>
<path d="M242.602 164.29H226.695V164.44H242.602V164.29Z" fill="#EFE6F7"/>
<path d="M266.766 167.284H253.056V167.433H266.766V167.284Z" fill="#EFE6F7"/>
<path d="M147.614 166.841H137.975V166.99H147.614V166.841Z" fill="#EFE6F7"/>
<path d="M134.526 166.841H98.5509V166.99H134.526V166.841Z" fill="#EFE6F7"/>
<path d="M83.6195 165.895H60.7314V166.045H83.6195V165.895Z" fill="#EFE6F7"/>
<path d="M216.637 163.428H164.772V163.578H216.637V163.428Z" fill="#EFE6F7"/>
<path d="M53.9483 165.823H38.8732V165.973H53.9483V165.823Z" fill="#EFE6F7"/>
<path d="M187.93 159.734H199.485V84.4128H187.93V159.734Z" fill="#EFE6F7"/>
<path d="M192.939 137.687L194.731 136.827L179.371 104.839L177.579 105.7L192.939 137.687Z" fill="#EFE6F7"/>
<path d="M189.139 109.342C189.139 109.342 191.259 119.772 202.544 116.7C207.477 115.353 208.531 111.647 208.303 108.103C212.865 111.354 219.726 114 219.08 99.7512C219.08 99.7512 233.778 110.953 238.705 94.8479C243.632 78.7431 230.437 77.2284 230.437 77.2284C230.437 77.2284 248.997 61.8959 242.662 49.3293C235.819 35.7928 223.911 42.7916 223.911 42.7916C223.911 42.7916 226.372 24.8308 213.099 25.615C211.425 25.7188 209.846 26.4323 208.663 27.6207C204.118 25.2259 198.383 32.5779 198.383 32.5779C198.383 32.5779 197.239 23.5496 188.205 26.8064C184.26 28.2313 183.23 31.5361 183.242 34.6314C179.823 32.0091 174.561 30.0394 174.369 42.4922C174.369 42.4922 163.377 33.41 158.696 47.7727C154.014 62.1353 164.311 62.7999 164.311 62.7999C164.311 62.7999 148.949 77.1685 153.301 87.8672C157.983 99.392 167.67 92.6567 167.67 92.6567C167.67 92.6567 165.305 105.942 172.939 107.151C172.682 108.484 172.839 109.863 173.388 111.104C173.937 112.345 174.852 113.389 176.01 114.096C182.105 117.664 189.139 109.342 189.139 109.342Z" fill="#EFE6F7"/>
<path d="M258.007 86.4063V159.74H43.8243V86.1429L136.065 73.6542L258.007 86.4063Z" fill="#FAF7FC"/>
<path d="M136.065 73.6542L43.8243 86.1429V159.74H136.065V73.6542Z" fill="#EFE6F7"/>
<path d="M145.752 159.74H189.744V103.326H145.752V159.74Z" fill="#EFE6F7"/>
<path d="M187.672 159.74V105.229H147.835V159.74H187.672Z" fill="#EFE6F7"/>
<path d="M167.922 159.74V105.229H167.586V159.74H167.922Z" fill="#EFE6F7"/>
<path d="M266.305 89.0766L136.089 75.4623L35.5804 89.0706L35.0955 85.5144L136.035 71.8462L136.251 71.8701L266.682 85.5084L266.305 89.0766Z" fill="#EFE6F7"/>
<path d="M38.9151 159.74H29.8089C29.8089 159.74 24.1992 154.753 22.3732 148.066C21.535 144.988 25.672 142.857 28.1745 145.072C34.0417 150.215 38.9151 159.74 38.9151 159.74Z" fill="#FAF7FC"/>
<path d="M42.7587 159.74H33.6466C33.6466 159.74 28.4319 149.036 30.4495 141.241C30.6026 140.625 30.921 140.063 31.3702 139.615C31.8194 139.166 32.3825 138.849 32.9986 138.698C33.6148 138.546 34.2606 138.566 34.8665 138.754C35.4723 138.943 36.0152 139.293 36.4365 139.768C43.3095 147.353 42.7587 159.74 42.7587 159.74Z" fill="#FAF7FC"/>
<path d="M42.7706 159.74H48.6558C48.6558 159.74 52.3437 153.232 55.8401 145.24C59.073 137.78 53.5651 134.667 50.1046 141.995C45.6743 151.317 42.7706 159.74 42.7706 159.74Z" fill="#FAF7FC"/>
<path d="M44.3811 159.74H53.4932C53.4932 159.74 62.6712 155.4 62.1563 147.168C62.0246 145.018 59.564 143.617 57.3668 144.456C47.6081 148.215 44.3811 159.74 44.3811 159.74Z" fill="#FAF7FC"/>
<path d="M39.2624 159.74H48.3805C48.3805 159.74 51.1344 144.533 47.8955 134.954C46.9196 132.093 43.4532 131.59 41.8547 134.08C35.8857 143.336 39.2624 159.74 39.2624 159.74Z" fill="#FAF7FC"/>
<path d="M113.913 94.0757H65.9761V143.234H113.913V94.0757Z" fill="#EFE6F7"/>
<path d="M111.662 140.708V96.6082H68.227V140.708H111.662Z" fill="#FAF7FC"/>
<path d="M112.979 116.958H66.9039V120.352H112.979V116.958Z" fill="#EFE6F7"/>
<path d="M91.642 142.348V94.9736H88.2474V142.348H91.642Z" fill="#EFE6F7"/>
<path d="M258.007 143.234H203.646V94.9677H258.007" fill="#EFE6F7"/>
<path d="M258.007 140.756V97.4583H205.855V140.756H258.007Z" fill="#FAF7FC"/>
<path d="M174.23 92.0293C175.079 88.4519 172.868 84.8635 169.29 84.0146C165.713 83.1656 162.124 85.3775 161.275 88.9549C160.426 92.5324 162.638 96.1207 166.216 96.9697C169.793 97.8187 173.382 95.6068 174.23 92.0293Z" fill="#FFF7D9"/>
<path d="M198.461 158.04H103.37V159.746H198.461V158.04Z" fill="#EFE6F7"/>
<path d="M94.9527 34.3739C94.851 36.0802 94.6534 37.6488 94.4319 39.2713C94.2103 40.8937 93.905 42.4802 93.5638 44.0608C92.8971 47.3004 91.9311 50.4711 90.6781 53.5321L90.1632 54.6816L90.0315 54.969L89.9656 55.1127C89.9656 55.1606 89.9297 55.1965 89.8818 55.2983C89.6986 55.662 89.4714 56.0018 89.2053 56.3101C88.5745 57.0343 87.698 57.4992 86.7446 57.6152C86.0344 57.6925 85.3159 57.6169 84.6372 57.3937C83.6854 57.0703 82.7874 56.6061 81.9731 56.0167C81.2676 55.5114 80.5919 54.9657 79.9495 54.3823C77.5608 52.1534 75.4137 49.6791 73.5435 47.0004L75.5311 45.3181C76.6387 46.3598 77.8002 47.4135 78.9556 48.4193C80.1111 49.4251 81.3025 50.383 82.4939 51.2391C83.0712 51.6548 83.6708 52.0385 84.29 52.3886C84.781 52.6831 85.3111 52.9068 85.8646 53.0532C86.0502 53.0891 86.1699 53.0532 86.0861 53.0532C85.9217 53.0701 85.7677 53.1418 85.649 53.2567C85.6071 53.2927 85.6011 53.2986 85.6071 53.2567L85.7867 52.7838L86.1759 51.754C87.1539 48.9133 87.9184 46.0036 88.4629 43.049C88.7622 41.5643 88.9718 40.0555 89.1993 38.5468C89.4268 37.0381 89.5825 35.4935 89.7142 34.0626L94.9527 34.3739Z" fill="#EEC1BB"/>
<path d="M91.3785 28.1236C89.2592 28.6624 87.7864 37.3734 87.7864 37.3734L93.6176 41.3427C93.6176 41.3427 99.2035 32.5779 97.587 30.225C95.9705 27.8721 94.4618 27.3393 91.3785 28.1236Z" fill="url(#paint0_linear_33664_398893)"/>
<path opacity="0.3" d="M91.3785 28.1236C89.2592 28.6624 87.7864 37.3734 87.7864 37.3734L93.6176 41.3427C93.6176 41.3427 99.2035 32.5779 97.587 30.225C95.9705 27.8721 94.4618 27.3393 91.3785 28.1236Z" fill="black"/>
<path d="M91.5641 30.0694L89.9417 38.8522L93.2165 41.0734L91.5641 30.0694Z" fill="url(#paint1_linear_33664_398893)"/>
<path opacity="0.5" d="M91.5641 30.0694L89.9417 38.8522L93.2165 41.0734L91.5641 30.0694Z" fill="black"/>
<path d="M75.591 44.9768L72.8131 40.5944L71.2445 45.5755C71.2445 45.5755 73.5195 47.9703 75.579 47.3716L75.591 44.9768Z" fill="#EEC1BB"/>
<path d="M68.748 39.1455L67.6523 43.3843L71.2385 45.5755L72.8131 40.5943L68.748 39.1455Z" fill="#EEC1BB"/>
<path d="M102.832 174.756H97.6948L97.3475 162.859H102.484L102.832 174.756Z" fill="#EEC1BB"/>
<path d="M148.153 150.898L144.237 154.22L135.281 146.222L139.196 142.899L148.153 150.898Z" fill="#EEC1BB"/>
<path d="M143.166 153.825L146.961 149.479C147.025 149.402 147.114 149.351 147.213 149.337C147.311 149.323 147.411 149.345 147.494 149.401L151.368 151.909C151.459 151.976 151.537 152.06 151.594 152.158C151.652 152.256 151.688 152.364 151.702 152.477C151.715 152.589 151.705 152.703 151.673 152.812C151.64 152.92 151.585 153.021 151.511 153.107C150.164 154.598 149.44 155.25 147.769 157.16C146.74 158.357 145.375 160.153 143.944 161.782C142.513 163.41 140.843 162.093 141.292 161.291C143.285 157.699 142.806 156.424 142.836 154.651C142.85 154.347 142.966 154.056 143.166 153.825Z" fill="#344147"/>
<path d="M97.5155 174.157H103.287C103.387 174.156 103.484 174.191 103.56 174.256C103.636 174.321 103.686 174.411 103.7 174.51L104.353 179.078C104.366 179.193 104.355 179.31 104.32 179.42C104.285 179.531 104.227 179.633 104.149 179.719C104.071 179.805 103.976 179.874 103.87 179.92C103.763 179.966 103.648 179.99 103.532 179.988C101.521 179.952 100.539 179.838 98.0125 179.838C96.4499 179.838 93.2229 180 91.0676 180C88.9123 180 88.7926 177.869 89.6906 177.671C93.7198 176.809 95.3004 175.611 96.6594 174.474C96.8994 174.272 97.202 174.16 97.5155 174.157Z" fill="#344147"/>
<path d="M97.3475 162.865L97.5271 168.996H102.664L102.49 162.865H97.3475Z" fill="#DB9792"/>
<path d="M139.196 142.899L135.281 146.228L139.903 150.347L143.818 147.018L139.196 142.899Z" fill="#DB9792"/>
<path d="M95.0605 4.93622C98.5269 -0.218525 106.837 -1.93079 112.01 2.69112C118.595 8.57628 114.602 20.1131 124.726 17.0598C134.85 14.0064 144.333 14.7368 144.387 19.9754C144.441 25.214 150.625 18.5625 157.905 23.9387C172.645 34.817 161.372 62.7939 148.41 52.1073C139.909 45.1025 136.933 42.0971 132.694 47.4375C128.456 52.7778 113.363 50.2573 112.01 43.522C110.656 36.7867 101.029 40.0616 95.7909 34.1764C90.5524 28.2912 87.6667 15.9222 95.0605 4.93622Z" fill="#344147"/>
<path d="M91.3789 28.1234C91.3789 28.1234 88.9302 28.9855 93.8335 59.1237H114.692C114.339 50.6342 114.333 45.4016 118.392 27.9916C115.47 27.392 112.509 27.0038 109.531 26.8302C106.378 26.6024 103.213 26.6024 100.06 26.8302C95.9888 27.1894 91.3789 28.1234 91.3789 28.1234Z" fill="url(#paint2_linear_33664_398893)"/>
<path opacity="0.3" d="M91.3789 28.1234C91.3789 28.1234 88.9302 28.9855 93.8335 59.1237H114.692C114.339 50.6342 114.333 45.4016 118.392 27.9916C115.47 27.392 112.509 27.0038 109.531 26.8302C106.378 26.6024 103.213 26.6024 100.06 26.8302C95.9888 27.1894 91.3789 28.1234 91.3789 28.1234Z" fill="black"/>
<path d="M108.591 16.1437C107.992 19.1911 107.394 24.7769 109.531 26.8124C109.531 26.8124 108.699 29.9017 103.035 29.9017C96.8087 29.9017 100.042 26.8124 100.042 26.8124C103.436 25.9982 103.352 23.4777 102.76 21.1069L108.591 16.1437Z" fill="#EEC1BB"/>
<path d="M106.22 18.1674L102.778 21.1069C102.928 21.6574 103.026 22.2206 103.071 22.7893C104.37 22.5977 106.154 21.1728 106.292 19.7958C106.366 19.2531 106.342 18.7015 106.22 18.1674Z" fill="#DB9792"/>
<path d="M111.806 10.552C110.609 15.5092 110.213 17.6345 107.226 19.7539C102.736 22.9509 96.9104 20.3945 96.5991 15.1859C96.3177 10.4921 98.3233 3.17608 103.58 2.05054C104.738 1.79652 105.942 1.84289 107.077 2.18524C108.212 2.5276 109.24 3.15456 110.064 4.00652C110.889 4.85849 111.482 5.90714 111.786 7.05279C112.091 8.19844 112.098 9.40301 111.806 10.552Z" fill="#EEC1BB"/>
<path d="M93.8332 59.1239C93.8332 59.1239 89.78 98.6915 90.1153 114.353C90.4685 130.65 96.4375 167.805 96.4375 167.805H103.382C103.382 167.805 102.281 131.602 102.897 115.599C103.568 98.1587 109.106 59.1239 109.106 59.1239H93.8332Z" fill="url(#paint3_linear_33664_398893)"/>
<path opacity="0.5" d="M93.8332 59.1239C93.8332 59.1239 89.78 98.6915 90.1153 114.353C90.4685 130.65 96.4375 167.805 96.4375 167.805H103.382C103.382 167.805 102.281 131.602 102.897 115.599C103.568 98.1587 109.106 59.1239 109.106 59.1239H93.8332Z" fill="black"/>
<path d="M103.981 168.056H95.8328L95.2341 165.458L104.364 165.141L103.981 168.056Z" fill="url(#paint4_linear_33664_398893)"/>
<path opacity="0.3" d="M103.981 168.056H95.8328L95.2341 165.458L104.364 165.141L103.981 168.056Z" fill="#FFF7D9"/>
<path d="M102.826 68.9724C97.7067 79.2759 101.802 98.0809 103.61 105.074C104.544 94.5726 106.106 81.7246 107.328 72.2952C106.567 66.9608 105.19 64.2188 102.826 68.9724Z" fill="url(#paint5_linear_33664_398893)"/>
<path opacity="0.6" d="M102.826 68.9724C97.7067 79.2759 101.802 98.0809 103.61 105.074C104.544 94.5726 106.106 81.7246 107.328 72.2952C106.567 66.9608 105.19 64.2188 102.826 68.9724Z" fill="black"/>
<path d="M99.3412 59.1239C99.3412 59.1239 104.065 100.26 107.633 113.467C111.872 129.147 138.166 150.245 138.166 150.245L143.501 145.713C143.501 145.713 124.426 122.789 121.188 114.533C114.273 96.9015 120.194 70.6308 114.668 59.1239H99.3412Z" fill="url(#paint6_linear_33664_398893)"/>
<path opacity="0.5" d="M99.3412 59.1239C99.3412 59.1239 104.065 100.26 107.633 113.467C111.872 129.147 138.166 150.245 138.166 150.245L143.501 145.713C143.501 145.713 124.426 122.789 121.188 114.533C114.273 96.9015 120.194 70.6308 114.668 59.1239H99.3412Z" fill="black"/>
<path d="M144.381 145.467L137.754 151.095L135.281 149.61L142.771 142.641L144.381 145.467Z" fill="url(#paint7_linear_33664_398893)"/>
<path opacity="0.3" d="M144.381 145.467L137.754 151.095L135.281 149.61L142.771 142.641L144.381 145.467Z" fill="#FFF7D9"/>
<path d="M103.951 10.5964C104.023 10.1895 103.865 9.82121 103.598 9.77394C103.331 9.72668 103.057 10.0183 102.985 10.4253C102.913 10.8322 103.071 11.2005 103.338 11.2478C103.605 11.295 103.879 11.0034 103.951 10.5964Z" fill="#344147"/>
<path d="M99.3472 9.79165C99.2753 10.1988 98.9999 10.4921 98.7485 10.4442C98.497 10.3963 98.3234 10.0251 98.3952 9.61802C98.4671 9.21091 98.7425 8.91755 98.9939 8.96545C99.2454 9.01335 99.419 9.38454 99.3472 9.79165Z" fill="#344147"/>
<path d="M99.1077 9.00732L98.1797 8.55231C98.1797 8.55231 98.5449 9.40844 99.1077 9.00732Z" fill="#344147"/>
<path d="M100.443 10.7076C99.914 11.5735 99.2695 12.3631 98.527 13.0545C98.7095 13.2387 98.9298 13.3812 99.1727 13.4721C99.4156 13.5631 99.6753 13.6003 99.9339 13.5814L100.443 10.7076Z" fill="#D4827D"/>
<path d="M101.778 15.5091C101.545 15.5097 101.312 15.4877 101.083 15.4433C101.053 15.4374 101.025 15.4197 101.007 15.394C100.989 15.3682 100.982 15.3365 100.988 15.3056C100.993 15.2743 101.011 15.2465 101.036 15.2276C101.062 15.2087 101.094 15.2002 101.125 15.2038C101.631 15.3041 102.154 15.2843 102.651 15.146C103.148 15.0077 103.605 14.7548 103.987 14.4075C104.009 14.3856 104.039 14.3733 104.071 14.3733C104.102 14.3733 104.132 14.3856 104.155 14.4075C104.166 14.4187 104.176 14.4322 104.182 14.4471C104.189 14.462 104.192 14.4781 104.192 14.4943C104.192 14.5106 104.189 14.5266 104.182 14.5416C104.176 14.5565 104.166 14.57 104.155 14.5811C103.514 15.1889 102.661 15.5219 101.778 15.5091Z" fill="#344147"/>
<path d="M103.783 1.63145C101.49 2.94858 107.148 15.4014 111.285 13.6532C115.422 11.905 114.081 4.9542 112.033 3.20602C109.986 1.45783 106.963 -0.188577 103.783 1.63145Z" fill="#344147"/>
<path d="M102.496 1.04469C102.496 1.04469 99.7363 1.44581 97.8923 4.8883C96.0483 8.33078 106.645 1.52364 105.148 1.04469C104.288 0.757565 103.357 0.757565 102.496 1.04469Z" fill="#344147"/>
<path d="M112.016 14.2877C111.829 14.7387 111.554 15.1483 111.208 15.4925C110.862 15.8368 110.45 16.109 109.998 16.2933C108.801 16.7842 108.041 15.7365 108.256 14.4972C108.454 13.4016 109.316 11.8271 110.591 11.857C110.872 11.8674 111.145 11.9484 111.386 12.0925C111.627 12.2366 111.828 12.4392 111.97 12.6815C112.112 12.9238 112.191 13.198 112.199 13.4787C112.207 13.7595 112.144 14.0377 112.016 14.2877Z" fill="#EEC1BB"/>
<path d="M105.22 7.92371C105.155 7.92309 105.093 7.89734 105.047 7.85186C104.844 7.62275 104.589 7.44558 104.304 7.33517C104.018 7.22476 103.711 7.18432 103.406 7.21724C103.343 7.22772 103.278 7.2129 103.225 7.17595C103.173 7.13901 103.137 7.0829 103.125 7.01967C103.119 6.9886 103.119 6.95664 103.125 6.92563C103.132 6.89462 103.144 6.86518 103.162 6.83901C103.18 6.81285 103.203 6.79047 103.229 6.77318C103.256 6.7559 103.285 6.74403 103.317 6.73829C103.701 6.68984 104.091 6.73535 104.454 6.87091C104.817 7.00646 105.142 7.22803 105.4 7.51659C105.444 7.56236 105.469 7.62355 105.469 7.68722C105.469 7.75089 105.444 7.81208 105.4 7.85785C105.377 7.88121 105.348 7.8992 105.317 7.91057C105.286 7.92194 105.253 7.92643 105.22 7.92371Z" fill="#344147"/>
<path d="M97.6708 7.30108C97.6395 7.30097 97.6085 7.29455 97.5797 7.2822C97.5509 7.26986 97.5249 7.25185 97.5032 7.22924C97.4589 7.18347 97.4342 7.12228 97.4342 7.05861C97.4342 6.99494 97.4589 6.93376 97.5032 6.88798C97.7622 6.6005 98.0871 6.38007 98.4499 6.24556C98.8128 6.11106 99.2028 6.06649 99.5867 6.11567C99.6438 6.13379 99.6923 6.17218 99.7231 6.22362C99.7539 6.27506 99.7648 6.33598 99.7537 6.39489C99.7427 6.45381 99.7105 6.50665 99.6631 6.54344C99.6158 6.58024 99.5567 6.59844 99.4969 6.59462C99.1932 6.56245 98.8863 6.60264 98.6011 6.71191C98.316 6.82117 98.0608 6.9964 97.8564 7.22325C97.8323 7.24803 97.8034 7.26769 97.7716 7.28106C97.7397 7.29443 97.7054 7.30124 97.6708 7.30108Z" fill="#344147"/>
<path d="M120.643 33.464C121.767 36.2026 122.74 39.0007 123.558 41.8457C124.419 44.7274 125.054 47.672 125.456 50.6525C125.534 51.4248 125.624 52.1851 125.648 52.9874V53.5861C125.675 53.9874 125.645 54.3907 125.558 54.7835C125.476 55.1127 125.345 55.4276 125.169 55.7174C124.964 56.0484 124.698 56.337 124.385 56.5676C123.908 56.91 123.347 57.1168 122.762 57.1663C122.407 57.2007 122.049 57.1906 121.696 57.1363C121.43 57.0999 121.166 57.0459 120.906 56.9747C120.47 56.8535 120.042 56.7055 119.625 56.5316C118.892 56.2198 118.178 55.864 117.488 55.466C114.918 53.9554 112.491 52.214 110.237 50.2633L111.71 48.114C114.231 49.3892 116.793 50.7183 119.302 51.7421C119.9 51.9995 120.553 52.2211 121.128 52.3947C121.385 52.4725 121.647 52.5345 121.912 52.5803C122.004 52.5878 122.096 52.5878 122.187 52.5803C122.247 52.5803 122.277 52.5803 122.187 52.5803C121.968 52.6031 121.761 52.6883 121.589 52.8257C121.296 53.0487 121.085 53.3624 120.99 53.7178C120.93 53.9153 120.954 54.083 120.93 53.8196L120.876 53.3346C120.822 52.694 120.703 52.0355 120.595 51.3769C120.355 50.0478 120.068 48.7127 119.703 47.3776C119.338 46.0425 118.972 44.7015 118.559 43.3664C117.703 40.7142 116.763 38.0081 115.781 35.4457L120.643 33.464Z" fill="#EEC1BB"/>
<path d="M118.392 27.9737C120.481 28.6143 122.99 35.8106 122.99 35.8106L114.884 41.6059C114.884 41.6059 111.926 35.619 112.8 32.8949C113.716 30.0811 116.003 27.2492 118.392 27.9737Z" fill="url(#paint8_linear_33664_398893)"/>
<path opacity="0.3" d="M118.392 27.9737C120.481 28.6143 122.99 35.8106 122.99 35.8106L114.884 41.6059C114.884 41.6059 111.926 35.619 112.8 32.8949C113.716 30.0811 116.003 27.2492 118.392 27.9737Z" fill="black"/>
<path d="M141.765 156.304C141.659 156.3 141.555 156.273 141.46 156.225C141.366 156.176 141.284 156.107 141.22 156.022C141.168 155.97 141.132 155.904 141.116 155.832C141.099 155.76 141.102 155.686 141.124 155.615C141.31 154.987 143.094 154.478 143.297 154.418C143.32 154.413 143.344 154.414 143.366 154.421C143.388 154.428 143.408 154.442 143.423 154.46C143.436 154.479 143.443 154.502 143.443 154.526C143.443 154.549 143.436 154.572 143.423 154.592C143.1 155.19 142.471 156.226 141.818 156.298L141.765 156.304ZM143.082 154.741C142.375 154.963 141.453 155.34 141.357 155.687C141.345 155.718 141.343 155.753 141.352 155.785C141.36 155.817 141.379 155.846 141.405 155.867C141.451 155.931 141.513 155.982 141.584 156.016C141.655 156.049 141.734 156.064 141.812 156.058C142.16 156.016 142.627 155.532 143.088 154.741H143.082Z" fill="url(#paint9_linear_33664_398893)"/>
<path d="M142.519 154.759C141.988 154.812 141.456 154.665 141.028 154.346C140.968 154.27 140.936 154.176 140.936 154.08C140.936 153.983 140.968 153.889 141.028 153.813C141.078 153.733 141.145 153.666 141.225 153.618C141.305 153.569 141.396 153.539 141.489 153.532C142.226 153.43 143.345 154.406 143.393 154.448C143.409 154.462 143.421 154.48 143.428 154.5C143.435 154.519 143.438 154.541 143.435 154.562C143.43 154.582 143.419 154.602 143.405 154.617C143.39 154.633 143.372 154.645 143.351 154.651C143.081 154.728 142.8 154.764 142.519 154.759ZM141.615 153.765H141.537C141.478 153.772 141.421 153.792 141.371 153.823C141.32 153.854 141.277 153.896 141.244 153.945C141.16 154.071 141.19 154.143 141.244 154.19C141.459 154.478 142.471 154.586 143.088 154.472C142.67 154.108 142.161 153.864 141.615 153.765Z" fill="url(#paint10_linear_33664_398893)"/>
<path d="M95.5874 175.067C95.1491 175.107 94.7103 174.997 94.3421 174.756C94.26 174.681 94.1971 174.587 94.1585 174.483C94.12 174.379 94.107 174.267 94.1206 174.157C94.1245 174.089 94.1458 174.024 94.1826 173.968C94.2193 173.911 94.2702 173.865 94.3302 173.834C94.9588 173.486 97.0063 174.534 97.2398 174.654C97.2623 174.665 97.2804 174.684 97.2912 174.706C97.3021 174.729 97.305 174.755 97.2997 174.78C97.2964 174.804 97.2854 174.828 97.2682 174.846C97.251 174.864 97.2285 174.877 97.2039 174.881C96.6718 174.992 96.1307 175.054 95.5874 175.067ZM94.6714 174.007C94.5934 174.004 94.5156 174.018 94.4439 174.049C94.4211 174.063 94.402 174.082 94.3884 174.105C94.3748 174.128 94.3672 174.154 94.3661 174.181C94.3541 174.252 94.3604 174.325 94.3845 174.393C94.4086 174.461 94.4497 174.522 94.5038 174.57C94.8151 174.851 95.6593 174.899 96.8028 174.714C96.1388 174.354 95.4178 174.111 94.6714 173.995V174.007Z" fill="url(#paint11_linear_33664_398893)"/>
<path d="M97.1803 174.875C97.1649 174.881 97.1478 174.881 97.1324 174.875C96.5337 174.6 95.3064 173.492 95.4021 172.911C95.4021 172.774 95.5219 172.6 95.8572 172.57C95.9783 172.555 96.1014 172.565 96.2181 172.602C96.3348 172.638 96.4424 172.698 96.5337 172.78C97.1803 173.312 97.3 174.695 97.3 174.755C97.3034 174.776 97.3006 174.797 97.2921 174.816C97.2836 174.835 97.2697 174.852 97.2521 174.863C97.2301 174.875 97.2049 174.879 97.1803 174.875ZM95.9829 172.792H95.911C95.6835 172.792 95.6716 172.905 95.6656 172.929C95.6117 173.282 96.4319 174.127 97.0545 174.534C97.0082 173.95 96.78 173.395 96.402 172.947C96.3424 172.893 96.2725 172.851 96.1963 172.824C96.1202 172.797 96.0395 172.786 95.9589 172.792H95.9829Z" fill="url(#paint12_linear_33664_398893)"/>
<path d="M115.003 57.9026L115.536 59.7706C115.608 59.9142 115.44 60.0639 115.195 60.0639H93.7255C93.5399 60.0639 93.3842 59.9681 93.3723 59.8544L93.1807 57.9865C93.1807 57.8547 93.3303 57.747 93.5399 57.747H114.662C114.727 57.7409 114.793 57.7521 114.853 57.7794C114.913 57.8067 114.965 57.8492 115.003 57.9026Z" fill="url(#paint13_linear_33664_398893)"/>
<path opacity="0.6" d="M115.003 57.9026L115.536 59.7706C115.608 59.9142 115.44 60.0639 115.195 60.0639H93.7255C93.5399 60.0639 93.3842 59.9681 93.3723 59.8544L93.1807 57.9865C93.1807 57.8547 93.3303 57.747 93.5399 57.747H114.662C114.727 57.7409 114.793 57.7521 114.853 57.7794C114.913 57.8067 114.965 57.8492 115.003 57.9026Z" fill="#FFF7D9"/>
<path d="M112.165 60.2615H112.764C112.872 60.2615 112.961 60.2076 112.955 60.1358L112.686 57.7111C112.686 57.6392 112.578 57.5793 112.47 57.5793H111.902C111.788 57.5793 111.704 57.6392 111.71 57.7111L111.956 60.1178C111.956 60.2076 112.051 60.2615 112.165 60.2615Z" fill="url(#paint14_linear_33664_398893)"/>
<path opacity="0.5" d="M112.165 60.2615H112.764C112.872 60.2615 112.961 60.2076 112.955 60.1358L112.686 57.7111C112.686 57.6392 112.578 57.5793 112.47 57.5793H111.902C111.788 57.5793 111.704 57.6392 111.71 57.7111L111.956 60.1178C111.956 60.2076 112.051 60.2615 112.165 60.2615Z" fill="black"/>
<path d="M95.3179 60.2615H95.8807C95.9944 60.2615 96.0842 60.2076 96.0723 60.1358L95.7909 57.723C95.7909 57.6512 95.6831 57.5913 95.5694 57.5913H95.0066C94.8928 57.5913 94.809 57.6512 94.815 57.723L95.0784 60.1477C95.1084 60.2076 95.1922 60.2615 95.3179 60.2615Z" fill="url(#paint15_linear_33664_398893)"/>
<path opacity="0.5" d="M95.3179 60.2615H95.8807C95.9944 60.2615 96.0842 60.2076 96.0723 60.1358L95.7909 57.723C95.7909 57.6512 95.6831 57.5913 95.5694 57.5913H95.0066C94.8928 57.5913 94.809 57.6512 94.815 57.723L95.0784 60.1477C95.1084 60.2076 95.1922 60.2615 95.3179 60.2615Z" fill="black"/>
<path d="M103.742 60.2615H104.31C104.418 60.2615 104.508 60.2076 104.496 60.1358L104.233 57.723C104.233 57.6512 104.125 57.5913 104.011 57.5913H103.448C103.334 57.5913 103.251 57.6512 103.257 57.723L103.52 60.1477C103.532 60.2076 103.628 60.2615 103.742 60.2615Z" fill="url(#paint16_linear_33664_398893)"/>
<path opacity="0.5" d="M103.742 60.2615H104.31C104.418 60.2615 104.508 60.2076 104.496 60.1358L104.233 57.723C104.233 57.6512 104.125 57.5913 104.011 57.5913H103.448C103.334 57.5913 103.251 57.6512 103.257 57.723L103.52 60.1477C103.532 60.2076 103.628 60.2615 103.742 60.2615Z" fill="black"/>
<path d="M112.417 48.6647L110.692 43.3903L107.938 47.8326C107.938 47.8326 109.561 50.7063 111.692 50.6644L112.417 48.6647Z" fill="#EEC1BB"/>
<path d="M108.86 37.3675L107.507 54.8732C107.471 55.3294 107.255 55.7524 106.907 56.0497C106.559 56.3471 106.108 56.4945 105.651 56.4598L72.3281 53.8914C71.8715 53.8547 71.448 53.639 71.1497 53.2914C70.8514 52.9437 70.7025 52.4923 70.7356 52.0354L72.0887 34.5296C72.1092 34.2965 72.1772 34.0701 72.2884 33.8642C72.3995 33.6583 72.5516 33.4773 72.7352 33.3323C73.0742 33.0631 73.5006 32.9288 73.9326 32.9551L107.256 35.5295C107.713 35.5646 108.138 35.7799 108.436 36.1279C108.735 36.4759 108.883 36.9282 108.848 37.3854L108.86 37.3675Z" fill="#EFE6F7"/>
<path opacity="0.8" d="M108.86 37.3675L107.507 54.8732C107.471 55.3294 107.255 55.7524 106.907 56.0497C106.559 56.3471 106.108 56.4945 105.651 56.4598L72.3281 53.8914C71.8715 53.8547 71.448 53.639 71.1497 53.2914C70.8514 52.9437 70.7025 52.4923 70.7356 52.0354L72.0887 34.5296C72.1092 34.2965 72.1772 34.0701 72.2884 33.8642C72.3995 33.6583 72.5516 33.4773 72.7352 33.3323C73.0742 33.0631 73.5006 32.9288 73.9326 32.9551L107.256 35.5295C107.713 35.5646 108.138 35.7799 108.436 36.1279C108.735 36.4759 108.883 36.9282 108.848 37.3854L108.86 37.3675Z" fill="url(#paint17_linear_33664_398893)"/>
<path d="M108.405 36.0383L94.1325 45.803C92.8116 46.7095 91.2212 47.1388 89.6235 47.0202C88.0258 46.9016 86.5163 46.2421 85.3437 45.1504L72.7352 33.3142C73.0742 33.0451 73.5006 32.9108 73.9326 32.9371L107.256 35.5115C107.691 35.5386 108.101 35.7264 108.405 36.0383Z" fill="#EFE6F7"/>
<path opacity="0.6" d="M108.405 36.0383L94.1325 45.803C92.8116 46.7095 91.2212 47.1388 89.6235 47.0202C88.0258 46.9016 86.5163 46.2421 85.3437 45.1504L72.7352 33.3142C73.0742 33.0451 73.5006 32.9108 73.9326 32.9371L107.256 35.5115C107.691 35.5386 108.101 35.7264 108.405 36.0383Z" fill="url(#paint18_linear_33664_398893)"/>
<path d="M107.106 40.9895L105.005 44.8271L108.405 48.533L110.692 43.3903L107.106 40.9895Z" fill="#EEC1BB"/>
<path d="M103.724 9.82756L102.79 9.37256C102.79 9.37256 103.161 10.2227 103.724 9.82756Z" fill="#344147"/>
<path d="M199.538 80.4733H192.198V180H199.538V80.4733Z" fill="#FFCC00"/>
<path opacity="0.6" d="M199.538 80.4733H192.198V180H199.538V80.4733Z" fill="#FFF7D9"/>
<path d="M192.198 80.4733H199.538V87.8133L192.198 85.1131V80.4733Z" fill="#FFCC00"/>
<path opacity="0.4" d="M192.198 80.4733H199.538V87.8133L192.198 85.1131V80.4733Z" fill="#FFF7D9"/>
<path d="M184.278 56.5975C184.321 54.2638 183.899 51.945 183.035 49.7764C182.172 47.6079 180.885 45.6331 179.25 43.9676C177.615 42.302 175.664 40.979 173.512 40.0758C171.36 39.1727 169.049 38.7075 166.715 38.7075C164.381 38.7075 162.071 39.1727 159.918 40.0758C157.766 40.979 155.815 42.302 154.18 43.9676C152.545 45.6331 151.258 47.6079 150.395 49.7764C149.532 51.945 149.109 54.2638 149.153 56.5975V80.4733H184.278V56.5975Z" fill="#FFCC00"/>
<path opacity="0.3" d="M184.278 56.5975C184.321 54.2638 183.899 51.945 183.035 49.7764C182.172 47.6079 180.885 45.6331 179.25 43.9676C177.615 42.302 175.664 40.979 173.512 40.0758C171.36 39.1727 169.049 38.7075 166.715 38.7075C164.381 38.7075 162.071 39.1727 159.918 40.0758C157.766 40.979 155.815 42.302 154.18 43.9676C152.545 45.6331 151.258 47.6079 150.395 49.7764C149.532 51.945 149.109 54.2638 149.153 56.5975V80.4733H184.278V56.5975Z" fill="black"/>
<path d="M145.824 90.717C143.477 100.416 149.416 108.277 159.139 108.277C168.861 108.277 178.602 100.416 180.949 90.717L183.392 80.617C183.425 80.4809 183.428 80.339 183.398 80.2019C183.369 80.0648 183.308 79.9363 183.222 79.826C183.135 79.7158 183.025 79.6267 182.899 79.5656C182.772 79.5046 182.634 79.4731 182.494 79.4735H149.272C149.064 79.4745 148.863 79.5453 148.7 79.6745C148.537 79.8037 148.422 79.9838 148.374 80.186L145.824 90.717Z" fill="#FFCC00"/>
<path opacity="0.4" d="M145.824 90.717C143.477 100.416 149.416 108.277 159.139 108.277C168.861 108.277 178.602 100.416 180.949 90.717L183.392 80.617C183.425 80.4809 183.428 80.339 183.398 80.2019C183.369 80.0648 183.308 79.9363 183.222 79.826C183.135 79.7158 183.025 79.6267 182.899 79.5656C182.772 79.5046 182.634 79.4731 182.494 79.4735H149.272C149.064 79.4745 148.863 79.5453 148.7 79.6745C148.537 79.8037 148.422 79.9838 148.374 80.186L145.824 90.717Z" fill="#FFF7D9"/>
<path d="M144.411 90.717C142.064 100.416 148.003 108.277 157.726 108.277C167.449 108.277 177.189 100.416 179.536 90.717L182.003 80.617C182.036 80.4809 182.039 80.339 182.009 80.2019C181.98 80.0648 181.919 79.9363 181.833 79.826C181.746 79.7158 181.636 79.6267 181.51 79.5656C181.383 79.5046 181.245 79.4731 181.105 79.4735H147.877C147.669 79.4745 147.468 79.5453 147.305 79.6745C147.142 79.8037 147.027 79.9838 146.979 80.186L144.411 90.717Z" fill="#FFCC00"/>
<path opacity="0.5" d="M144.411 90.717C142.064 100.416 148.003 108.277 157.726 108.277C167.449 108.277 177.189 100.416 179.536 90.717L182.003 80.617C182.036 80.4809 182.039 80.339 182.009 80.2019C181.98 80.0648 181.919 79.9363 181.833 79.826C181.746 79.7158 181.636 79.6267 181.51 79.5656C181.383 79.5046 181.245 79.4731 181.105 79.4735H147.877C147.669 79.4745 147.468 79.5453 147.305 79.6745C147.142 79.8037 147.027 79.9838 146.979 80.186L144.411 90.717Z" fill="#FFF7D9"/>
<path d="M225.612 56.5914V80.4733H184.302V56.5914C184.3 51.9348 182.45 47.4693 179.157 44.1766C175.864 40.8839 171.399 39.0333 166.742 39.0317H208.082C212.738 39.0333 217.204 40.8839 220.497 44.1766C223.789 47.4693 225.64 51.9348 225.642 56.5914H225.612Z" fill="#FFCC00"/>
<path opacity="0.5" d="M225.612 56.5914V80.4733H184.302V56.5914C184.3 51.9348 182.45 47.4693 179.157 44.1766C175.864 40.8839 171.399 39.0333 166.742 39.0317H208.082C212.738 39.0333 217.204 40.8839 220.497 44.1766C223.789 47.4693 225.64 51.9348 225.642 56.5914H225.612Z" fill="#FFF7D9"/>
<path d="M225.612 56.5911V62.9791H184.302V56.5911C184.31 52.686 183.007 48.8912 180.602 45.8146H221.942C224.336 48.8951 225.628 52.6895 225.612 56.5911Z" fill="#FFCC00"/>
<path opacity="0.7" d="M225.612 56.5911V62.9791H184.302V56.5911C184.31 52.686 183.007 48.8912 180.602 45.8146H221.942C224.336 48.8951 225.628 52.6895 225.612 56.5911Z" fill="#FFF7D9"/>
<path d="M190.031 66.0568V30.7339C190.031 30.419 190.098 30.1077 190.23 29.8217C190.362 29.5357 190.555 29.2818 190.795 29.0778C191.034 28.8738 191.316 28.7245 191.619 28.6404C191.923 28.5562 192.241 28.5392 192.552 28.5906L201.017 29.9915C201.321 30.0413 201.597 30.1977 201.795 30.4325C201.994 30.6673 202.102 30.9652 202.101 31.2727V33.4639C202.101 33.8085 201.964 34.1389 201.72 34.3826C201.477 34.6262 201.146 34.7631 200.802 34.7631H192.725V66.0448C192.725 66.4021 192.583 66.7447 192.331 66.9973C192.078 67.25 191.736 67.3919 191.378 67.3919C191.023 67.3919 190.682 67.2516 190.43 67.0016C190.178 66.7515 190.034 66.412 190.031 66.0568Z" fill="#FFCC00"/>
<path opacity="0.3" d="M190.031 66.0568V30.7339C190.031 30.419 190.098 30.1077 190.23 29.8217C190.362 29.5357 190.555 29.2818 190.795 29.0778C191.034 28.8738 191.316 28.7245 191.619 28.6404C191.923 28.5562 192.241 28.5392 192.552 28.5906L201.017 29.9915C201.321 30.0413 201.597 30.1977 201.795 30.4325C201.994 30.6673 202.102 30.9652 202.101 31.2727V33.4639C202.101 33.8085 201.964 34.1389 201.72 34.3826C201.477 34.6262 201.146 34.7631 200.802 34.7631H192.725V66.0448C192.725 66.4021 192.583 66.7447 192.331 66.9973C192.078 67.25 191.736 67.3919 191.378 67.3919C191.023 67.3919 190.682 67.2516 190.43 67.0016C190.178 66.7515 190.034 66.412 190.031 66.0568Z" fill="black"/>
<path d="M166.712 43.6956V61.2492C166.711 61.7066 166.529 62.1449 166.206 62.4689C165.883 62.7928 165.445 62.9763 164.988 62.9795H131.563C131.106 62.9763 130.668 62.7928 130.345 62.4689C130.022 62.1449 129.84 61.7066 129.839 61.2492V43.6956C129.84 43.2382 130.022 42.7999 130.345 42.476C130.668 42.152 131.106 41.9685 131.563 41.9653H164.988C165.445 41.9685 165.883 42.152 166.206 42.476C166.529 42.7999 166.711 43.2382 166.712 43.6956Z" fill="#EFE6F7"/>
<path opacity="0.8" d="M166.712 43.6956V61.2492C166.711 61.7066 166.529 62.1449 166.206 62.4689C165.883 62.7928 165.445 62.9763 164.988 62.9795H131.563C131.106 62.9763 130.668 62.7928 130.345 62.4689C130.022 62.1449 129.84 61.7066 129.839 61.2492V43.6956C129.84 43.2382 130.022 42.7999 130.345 42.476C130.668 42.152 131.106 41.9685 131.563 41.9653H164.988C165.445 41.9685 165.883 42.152 166.206 42.476C166.529 42.7999 166.711 43.2382 166.712 43.6956Z" fill="url(#paint19_linear_33664_398893)"/>
<path d="M166.161 42.4324L152.667 53.2627C151.416 54.265 149.86 54.8111 148.257 54.8111C146.654 54.8111 145.099 54.265 143.848 53.2627L130.371 42.4324C130.696 42.1288 131.125 41.9615 131.569 41.9654H164.994C165.428 41.9691 165.845 42.1358 166.161 42.4324Z" fill="#EFE6F7"/>
<path opacity="0.6" d="M166.161 42.4324L152.667 53.2627C151.416 54.265 149.86 54.8111 148.257 54.8111C146.654 54.8111 145.099 54.265 143.848 53.2627L130.371 42.4324C130.696 42.1288 131.125 41.9615 131.569 41.9654H164.994C165.428 41.9691 165.845 42.1358 166.161 42.4324Z" fill="url(#paint20_linear_33664_398893)"/>
<path d="M141.1 70.056V87.6157C141.1 88.0735 140.919 88.5127 140.595 88.837C140.272 89.1613 139.834 89.3443 139.376 89.3459H105.969C105.511 89.3428 105.074 89.1593 104.751 88.8353C104.428 88.5113 104.246 88.0731 104.245 87.6157V70.056C104.245 69.5987 104.426 69.1602 104.75 68.8368C105.073 68.5134 105.511 68.3318 105.969 68.3318H139.376C139.833 68.3318 140.272 68.5134 140.595 68.8368C140.918 69.1602 141.1 69.5987 141.1 70.056Z" fill="#EFE6F7"/>
<path opacity="0.8" d="M141.1 70.056V87.6157C141.1 88.0735 140.919 88.5127 140.595 88.837C140.272 89.1613 139.834 89.3443 139.376 89.3459H105.969C105.511 89.3428 105.074 89.1593 104.751 88.8353C104.428 88.5113 104.246 88.0731 104.245 87.6157V70.056C104.245 69.5987 104.426 69.1602 104.75 68.8368C105.073 68.5134 105.511 68.3318 105.969 68.3318H139.376C139.833 68.3318 140.272 68.5134 140.595 68.8368C140.918 69.1602 141.1 69.5987 141.1 70.056Z" fill="url(#paint21_linear_33664_398893)"/>
<path d="M140.549 68.7928L127.073 79.6232C125.823 80.6285 124.267 81.1766 122.663 81.1766C121.059 81.1766 119.504 80.6285 118.254 79.6232L104.771 68.7928C105.096 68.4908 105.525 68.3257 105.969 68.3318H139.376C139.811 68.3301 140.231 68.495 140.549 68.7928Z" fill="#EFE6F7"/>
<path opacity="0.6" d="M140.549 68.7928L127.073 79.6232C125.823 80.6285 124.267 81.1766 122.663 81.1766C121.059 81.1766 119.504 80.6285 118.254 79.6232L104.771 68.7928C105.096 68.4908 105.525 68.3257 105.969 68.3318H139.376C139.811 68.3301 140.231 68.495 140.549 68.7928Z" fill="url(#paint22_linear_33664_398893)"/>
<path d="M184.278 56.8967V77.9109H171.789C171.331 77.9093 170.892 77.7265 170.567 77.4023C170.243 77.0782 170.06 76.639 170.059 76.1806V58.627C170.062 58.169 170.245 57.7308 170.569 57.407C170.893 57.0832 171.331 56.8999 171.789 56.8967H184.278Z" fill="#EFE6F7"/>
<path opacity="0.8" d="M184.278 56.8967V77.9109H171.789C171.331 77.9093 170.892 77.7265 170.567 77.4023C170.243 77.0782 170.06 76.639 170.059 76.1806V58.627C170.062 58.169 170.245 57.7308 170.569 57.407C170.893 57.0832 171.331 56.8999 171.789 56.8967H184.278Z" fill="url(#paint23_linear_33664_398893)"/>
<path d="M184.278 56.8968V68.3318C184.213 68.2893 184.151 68.2434 184.092 68.1941L170.628 57.3638C170.951 57.058 171.38 56.8904 171.825 56.8968H184.278Z" fill="#EFE6F7"/>
<path opacity="0.6" d="M184.278 56.8968V68.3318C184.213 68.2893 184.151 68.2434 184.092 68.1941L170.628 57.3638C170.951 57.058 171.38 56.8904 171.825 56.8968H184.278Z" fill="url(#paint24_linear_33664_398893)"/>
<path opacity="0.5" d="M184.272 56.8967H181.536V77.9109H184.272V56.8967Z" fill="#EFE6F7"/>

</svg>
