<svg width="38" height="40" viewBox="0 0 38 40" fill="none" xmlns="http://www.w3.org/2000/svg">
<path d="M18.2239 39.6732C18.7202 39.8822 19.2798 39.8822 19.7761 39.6732L38 32H0L18.2239 39.6732Z" fill="#D42F55"/>
<rect width="38" height="32" fill="#D42F55"/>
<rect x="2" y="2" width="34" height="16" rx="1" fill="#FFE307"/>
<path d="M16.0033 27.2727C16.0033 28.3253 15.7987 29.2132 15.3893 29.9364C14.98 30.6566 14.4276 31.2029 13.732 31.5753C13.0365 31.9446 12.2609 32.1293 11.4053 32.1293C10.5436 32.1293 9.76493 31.9431 9.06938 31.5707C8.37691 31.1952 7.82601 30.6474 7.41668 29.9272C7.01043 29.204 6.80731 28.3191 6.80731 27.2727C6.80731 26.2202 7.01043 25.3338 7.41668 24.6136C7.82601 23.8904 8.37691 23.3441 9.06938 22.9748C9.76493 22.6024 10.5436 22.4162 11.4053 22.4162C12.2609 22.4162 13.0365 22.6024 13.732 22.9748C14.4276 23.3441 14.98 23.8904 15.3893 24.6136C15.7987 25.3338 16.0033 26.2202 16.0033 27.2727ZM13.3627 27.2727C13.3627 26.7064 13.2873 26.2294 13.1365 25.8416C12.9888 25.4508 12.7687 25.1553 12.4763 24.9553C12.187 24.7521 11.83 24.6506 11.4053 24.6506C10.9806 24.6506 10.6221 24.7521 10.3297 24.9553C10.0404 25.1553 9.82033 25.4508 9.66952 25.8416C9.5218 26.2294 9.44793 26.7064 9.44793 27.2727C9.44793 27.839 9.5218 28.3176 9.66952 28.7085C9.82033 29.0962 10.0404 29.3917 10.3297 29.5948C10.6221 29.7949 10.9806 29.8949 11.4053 29.8949C11.83 29.8949 12.187 29.7949 12.4763 29.5948C12.7687 29.3917 12.9888 29.0962 13.1365 28.7085C13.2873 28.3176 13.3627 27.839 13.3627 27.2727ZM17.1909 32V22.5455H23.8386V24.6136H19.7577V26.2386H23.4324V28.3068H19.7577V32H17.1909ZM24.7827 32V22.5455H31.4304V24.6136H27.3495V26.2386H31.0242V28.3068H27.3495V32H24.7827Z" fill="white"/>
<path d="M18.9072 19.9629C18.9668 19.9867 19.0332 19.9867 19.0928 19.9629L24 18H14L18.9072 19.9629Z" fill="#FFE307"/>
</svg>
