<svg width="50" height="40" viewBox="0 0 50 40" fill="none" xmlns="http://www.w3.org/2000/svg">
<g opacity="0.15">
<path d="M32.0002 17.5002V56.1668M32.0002 17.5002H23.4555C22.1965 17.5002 20.9891 16.9909 20.0989 16.0845C19.2086 15.1781 18.7085 13.9487 18.7085 12.6668C18.7085 11.3849 19.2086 10.1556 20.0989 9.24915C20.9891 8.34272 22.1965 7.8335 23.4555 7.8335C30.1014 7.8335 32.0002 17.5002 32.0002 17.5002ZM32.0002 17.5002H40.5448C41.8038 17.5002 43.0112 16.9909 43.9015 16.0845C44.7917 15.1781 45.2918 13.9487 45.2918 12.6668C45.2918 11.3849 44.7917 10.1556 43.9015 9.24915C43.0112 8.34272 41.8038 7.8335 40.5448 7.8335C33.899 7.8335 32.0002 17.5002 32.0002 17.5002ZM51.3335 29.5835V48.4335C51.3335 51.1404 51.3335 52.4939 50.8067 53.5278C50.3433 54.4372 49.6039 55.1766 48.6944 55.64C47.6605 56.1668 46.3071 56.1668 43.6002 56.1668L20.4002 56.1668C17.6932 56.1668 16.3398 56.1668 15.3059 55.64C14.3964 55.1766 13.657 54.4372 13.1936 53.5278C12.6668 52.4939 12.6668 51.1404 12.6668 48.4335V29.5835M7.8335 21.3668L7.8335 25.7168C7.8335 27.0703 7.8335 27.747 8.0969 28.264C8.32859 28.7187 8.69829 29.0884 9.15302 29.3201C9.66997 29.5835 10.3467 29.5835 11.7002 29.5835L52.3002 29.5835C53.6536 29.5835 54.3304 29.5835 54.8473 29.3201C55.302 29.0884 55.6717 28.7187 55.9034 28.264C56.1668 27.747 56.1668 27.0703 56.1668 25.7168V21.3668C56.1668 20.0134 56.1668 19.3366 55.9034 18.8197C55.6717 18.365 55.302 17.9953 54.8473 17.7636C54.3304 17.5002 53.6536 17.5002 52.3002 17.5002L11.7002 17.5002C10.3467 17.5002 9.66997 17.5002 9.15302 17.7636C8.69829 17.9953 8.32859 18.365 8.0969 18.8197C7.8335 19.3366 7.8335 20.0134 7.8335 21.3668Z" stroke="url(#paint0_linear_18873_2032)" stroke-width="4" stroke-linecap="round" stroke-linejoin="round"/>
</g>
<defs>
<linearGradient id="paint0_linear_18873_2032" x1="14.9118" y1="49.0886" x2="44.9338" y2="19.4693" gradientUnits="userSpaceOnUse">
<stop stop-color="#7D2EBD"/>
<stop offset="1" stop-color="#C054EE"/>
</linearGradient>
</defs>
</svg>
