<svg width="20" height="20" viewBox="0 0 20 20" fill="none" xmlns="http://www.w3.org/2000/svg">
<path d="M18.3333 12.9163V13.9997C18.3333 14.9331 18.3333 15.3998 18.1516 15.7563C17.9918 16.0699 17.7369 16.3249 17.4233 16.4847C17.0668 16.6663 16.6 16.6663 15.6666 16.6663H4.33329C3.39987 16.6663 2.93316 16.6663 2.57664 16.4847C2.26304 16.3249 2.00807 16.0699 1.84828 15.7563C1.66663 15.3998 1.66663 14.9331 1.66663 13.9997V13.9997C1.66663 13.7501 1.66663 13.6254 1.68007 13.5514C1.73613 13.2431 1.79639 13.155 2.06329 12.9907C2.12729 12.9514 2.3267 12.8736 2.72552 12.7182C3.81285 12.2943 4.58329 11.237 4.58329 9.99967C4.58329 8.76237 3.81284 7.70501 2.72552 7.28117C2.3267 7.12571 2.12729 7.04798 2.06329 7.0086C1.79639 6.8444 1.73613 6.75624 1.68007 6.44793C1.66663 6.37399 1.66663 6.24922 1.66663 5.99967V5.99967C1.66663 5.06625 1.66663 4.59954 1.84828 4.24302C2.00807 3.92942 2.26304 3.67445 2.57664 3.51466C2.93316 3.33301 3.39987 3.33301 4.33329 3.33301H8.20829M8.33329 6.66634V5.83301M8.33329 10.4163V9.58301M8.33329 14.1663V13.333M15 3.33301V6.66634M15 6.66634V9.99967M15 6.66634H11.6666M15 6.66634H18.3333" stroke="url(#paint0_linear_24755_35220)" stroke-width="1.66667" stroke-linecap="round" stroke-linejoin="round"/>
<defs>
<linearGradient id="paint0_linear_24755_35220" x1="4.1074" y1="14.7137" x2="12.2114" y2="4.71966" gradientUnits="userSpaceOnUse">
<stop stop-color="#7D2EBD"/>
<stop offset="1" stop-color="#C054EE"/>
</linearGradient>
</defs>
</svg>
