<svg width="20" height="20" viewBox="0 0 20 20" fill="none" xmlns="http://www.w3.org/2000/svg">
<path d="M16.6663 8.74984V5.6665C16.6663 4.26637 16.6663 3.56631 16.3939 3.03153C16.1542 2.56112 15.7717 2.17867 15.3013 1.93899C14.7665 1.6665 14.0665 1.6665 12.6663 1.6665H7.33301C5.93288 1.6665 5.23281 1.6665 4.69803 1.93899C4.22763 2.17867 3.84517 2.56112 3.60549 3.03153C3.33301 3.56631 3.33301 4.26637 3.33301 5.6665V14.3332C3.33301 15.7333 3.33301 16.4334 3.60549 16.9681C3.84517 17.4386 4.22763 17.821 4.69803 18.0607C5.23281 18.3332 5.93288 18.3332 7.33301 18.3332H9.58301M18.333 18.3332L17.083 17.0832M17.9163 14.9998C17.9163 16.6107 16.6105 17.9165 14.9997 17.9165C13.3888 17.9165 12.083 16.6107 12.083 14.9998C12.083 13.389 13.3888 12.0832 14.9997 12.0832C16.6105 12.0832 17.9163 13.389 17.9163 14.9998Z" stroke="#7E2EBC" stroke-width="1.66667" stroke-linecap="round" stroke-linejoin="round"/>
</svg>
