<svg width="24" height="24" viewBox="0 0 24 24" fill="none" xmlns="http://www.w3.org/2000/svg">
<path d="M10.8256 6.8285C11.871 6.58896 12.9638 6.66234 13.9678 7.03948C14.9719 7.41663 15.8427 8.08087 16.4719 8.94945L6.70026 11.1607C7.03679 9.09226 8.61519 7.32919 10.8256 6.8285ZM16.5261 14.9626C15.7534 16.0815 14.5866 16.8672 13.2593 17.1624C11.0349 17.6655 8.81382 16.7438 7.59001 15.007L17.392 12.7891L18.9885 12.428L22.041 11.7369C22.0224 11.0812 21.9372 10.4292 21.7866 9.79077C20.5439 4.5163 15.175 1.22736 9.79303 2.44461C4.41187 3.66267 1.05808 8.92646 2.29913 14.2009C3.54182 19.4754 8.91149 22.7635 14.2927 21.5463C17.4634 20.8289 19.9299 18.7063 21.1677 16.0059L16.5261 14.9626Z" fill="#F05537"/>
</svg>
