<svg width="24" height="24" viewBox="0 0 24 24" fill="none" xmlns="http://www.w3.org/2000/svg">
<path fill-rule="evenodd" clip-rule="evenodd" d="M12 2C6.47715 2 2 6.47715 2 12C2 17.5228 6.47715 22 12 22C17.5228 22 22 17.5228 22 12C22 6.47715 17.5228 2 12 2ZM9.80104 6.69856C10.3699 6.67267 10.5517 6.66634 12.0002 6.66634H11.9985C13.4474 6.66634 13.6285 6.67267 14.1974 6.69856C14.7652 6.72456 15.153 6.81445 15.493 6.94634C15.8441 7.08246 16.1408 7.26468 16.4374 7.56135C16.7341 7.8578 16.9163 8.15536 17.053 8.50614C17.1841 8.84525 17.2741 9.23281 17.3008 9.8006C17.3263 10.3695 17.333 10.5513 17.333 11.9997C17.333 13.4482 17.3263 13.6295 17.3008 14.1984C17.2741 14.766 17.1841 15.1537 17.053 15.4929C16.9163 15.8435 16.7341 16.1411 16.4374 16.4376C16.1411 16.7342 15.844 16.9169 15.4933 17.0531C15.154 17.185 14.766 17.2749 14.1982 17.3009C13.6293 17.3268 13.4481 17.3331 11.9995 17.3331C10.5512 17.3331 10.3695 17.3268 9.8006 17.3009C9.23292 17.2749 8.84525 17.185 8.50592 17.0531C8.15536 16.9169 7.8578 16.7342 7.56146 16.4376C7.2649 16.1411 7.08268 15.8435 6.94634 15.4928C6.81457 15.1537 6.72468 14.7661 6.69856 14.1983C6.67279 13.6294 6.66634 13.4482 6.66634 11.9997C6.66634 10.5513 6.67301 10.3694 6.69845 9.80049C6.72401 9.23292 6.81401 8.84525 6.94623 8.50603C7.0829 8.15536 7.26513 7.8578 7.5618 7.56135C7.85824 7.26479 8.1558 7.08257 8.50658 6.94634C8.8457 6.81445 9.23326 6.72456 9.80104 6.69856ZM11.5214 7.62764C11.6143 7.62749 11.7143 7.62753 11.8221 7.62758L11.9999 7.62764C13.4239 7.62764 13.5927 7.63275 14.155 7.6583C14.675 7.68208 14.9572 7.76897 15.1452 7.84197C15.3941 7.93864 15.5716 8.05419 15.7581 8.24086C15.9448 8.42753 16.0604 8.60531 16.1572 8.8542C16.2302 9.04198 16.3173 9.32421 16.3409 9.84421C16.3665 10.4064 16.372 10.5753 16.372 11.9987C16.372 13.422 16.3665 13.5909 16.3409 14.1531C16.3171 14.6732 16.2302 14.9554 16.1572 15.1432C16.0606 15.392 15.9448 15.5693 15.7581 15.7558C15.5715 15.9425 15.3942 16.0581 15.1452 16.1547C14.9575 16.2281 14.675 16.3147 14.155 16.3385C13.5928 16.3641 13.4239 16.3696 11.9999 16.3696C10.5757 16.3696 10.407 16.3641 9.84474 16.3385C9.32473 16.3145 9.04251 16.2276 8.85439 16.1546C8.6055 16.0579 8.42772 15.9424 8.24106 15.7557C8.05439 15.5691 7.93883 15.3917 7.84194 15.1427C7.76894 14.9549 7.68194 14.6727 7.65827 14.1527C7.63272 13.5905 7.6276 13.4216 7.6276 11.9973C7.6276 10.5731 7.63272 10.4051 7.65827 9.84288C7.68205 9.32288 7.76894 9.04065 7.84194 8.85265C7.93861 8.60376 8.05439 8.42598 8.24106 8.23931C8.42772 8.05264 8.6055 7.93708 8.85439 7.84019C9.0424 7.76686 9.32473 7.68019 9.84474 7.6563C10.3367 7.63408 10.5274 7.62741 11.5214 7.6263V7.62764ZM14.8464 8.51357C14.493 8.51357 14.2064 8.7999 14.2064 9.15335C14.2064 9.50669 14.493 9.79336 14.8464 9.79336C15.1997 9.79336 15.4864 9.50669 15.4864 9.15335C15.4864 8.80002 15.1997 8.51335 14.8464 8.51335V8.51357ZM9.26172 11.9993C9.26172 10.4868 10.488 9.26048 12.0005 9.26042C13.5131 9.26042 14.7391 10.4868 14.7391 11.9993C14.7391 13.5119 13.5132 14.7377 12.0006 14.7377C10.4881 14.7377 9.26172 13.5119 9.26172 11.9993ZM13.7782 12.0005C13.7782 11.0186 12.9822 10.2227 12.0005 10.2227C11.0186 10.2227 10.2227 11.0186 10.2227 12.0005C10.2227 12.9822 11.0186 13.7782 12.0005 13.7782C12.9822 13.7782 13.7782 12.9822 13.7782 12.0005Z" fill="#1A1A1A"/>
</svg>
