<svg width="24" height="24" viewBox="0 0 24 24" fill="none" xmlns="http://www.w3.org/2000/svg">
<path fill-rule="evenodd" clip-rule="evenodd" d="M12 2C6.47715 2 2 6.47715 2 12C2 17.5228 6.47715 22 12 22C17.5228 22 22 17.5228 22 12C22 6.47715 17.5228 2 12 2ZM12.1673 6.66634C15.5677 6.66634 18.334 8.89507 18.334 11.6346C18.334 12.731 17.9059 13.7184 17.0122 14.6913H17.0125C15.7187 16.1697 12.8255 17.9704 12.1673 18.2458C11.5276 18.5134 11.6015 18.0951 11.6308 17.9294L11.6332 17.9157C11.6488 17.8237 11.7211 17.3917 11.7211 17.3917C11.7419 17.2354 11.7634 16.9929 11.7013 16.8381C11.6321 16.6677 11.3588 16.5792 11.1579 16.5363C8.1945 16.1473 6.00065 14.0905 6.00065 11.6346C6.00065 8.89507 8.76725 6.66634 12.1673 6.66634ZM10.881 10.3333H10.4524C10.3867 10.3333 10.3333 10.3885 10.3333 10.4562V13.2105C10.3333 13.2783 10.3867 13.3333 10.4524 13.3333H10.881C10.9467 13.3333 11 13.2783 11 13.2105V10.4562C11 10.3885 10.9467 10.3333 10.881 10.3333ZM13.4229 10.3333H13.8741C13.9434 10.3333 13.9993 10.3885 13.9993 10.4562V13.2105C13.9993 13.2783 13.9434 13.3333 13.8741 13.3333H13.4229C13.4118 13.3333 13.4011 13.3318 13.3909 13.3291L13.3903 13.3289L13.389 13.3287C13.3862 13.3279 13.3835 13.327 13.3805 13.3259L13.3768 13.3246L13.3707 13.3221C13.3687 13.3212 13.3666 13.3202 13.3647 13.3192L13.3612 13.3173L13.3534 13.3127L13.3522 13.3118C13.3402 13.3038 13.3292 13.2937 13.3204 13.2814L12.0345 11.5746V13.2105C12.0345 13.2783 11.9784 13.3333 11.9091 13.3333H11.4581C11.3889 13.3333 11.3327 13.2783 11.3327 13.2105V10.4562C11.3327 10.3885 11.3889 10.3333 11.4581 10.3333H11.9091L11.9135 10.3336L11.9157 10.3337L11.9199 10.3339L11.9216 10.3341C11.9233 10.3343 11.9249 10.3344 11.9266 10.3348L11.9319 10.3354L11.9391 10.337L11.9434 10.3382C11.946 10.3388 11.9484 10.3396 11.9509 10.3405L11.955 10.3419C11.9574 10.3428 11.9598 10.3439 11.9621 10.345L11.9646 10.3461L11.9661 10.3468L11.9695 10.3486L11.9727 10.3505L11.9747 10.3516L11.9765 10.3527L11.9805 10.3554L11.9831 10.3571L11.984 10.3577L11.9863 10.3596L11.9903 10.3628L11.9929 10.3651L11.9953 10.3671C11.9979 10.3696 12.0003 10.372 12.0028 10.3748L12.0037 10.3755L12.0079 10.3806C12.009 10.382 12.0101 10.3834 12.0112 10.3848C12.0119 10.3859 12.0127 10.3869 12.0134 10.388L13.2977 12.0925V10.4562C13.2977 10.3885 13.3538 10.3333 13.4229 10.3333ZM9.87753 12.6436H8.68308V10.4564C8.68308 10.3885 8.62841 10.3333 8.56113 10.3333H8.12141C8.05401 10.3333 7.99935 10.3885 7.99935 10.4564V13.2101V13.2103C7.99935 13.2434 8.01244 13.2734 8.03347 13.2954C8.03395 13.296 8.03443 13.2966 8.03515 13.2972L8.03695 13.2989C8.05894 13.3202 8.08849 13.3333 8.12129 13.3333H9.87753C9.94492 13.3333 9.99935 13.2781 9.99935 13.2101V12.7668C9.99935 12.6988 9.94492 12.6436 9.87753 12.6436ZM16.334 10.8999C16.334 10.968 16.2796 11.023 16.2122 11.023H15.0178V11.4884H16.2122C16.2796 11.4884 16.334 11.5437 16.334 11.6117V12.055C16.334 12.123 16.2796 12.1781 16.2122 12.1781H15.0178V12.6436H16.2122C16.2796 12.6436 16.334 12.6989 16.334 12.7668V13.2102C16.334 13.2781 16.2796 13.3333 16.2122 13.3333H14.4558C14.4231 13.3333 14.3935 13.3201 14.3716 13.2989C14.371 13.2984 14.3703 13.2978 14.3698 13.2972C14.3692 13.2967 14.3686 13.296 14.3681 13.2954C14.3471 13.2734 14.334 13.2434 14.334 13.2103V13.2102V10.4566V10.4564C14.334 10.4235 14.347 10.3937 14.3679 10.3716L14.3698 10.3694C14.37 10.3692 14.3703 10.3689 14.3706 10.3687C14.3708 10.3685 14.371 10.3683 14.3712 10.3681C14.3932 10.3467 14.4229 10.3333 14.4558 10.3333H14.456H16.2122C16.2796 10.3333 16.334 10.3886 16.334 10.4566V10.8999Z" fill="#1A1A1A"/>
</svg>
