<svg width="24" height="24" viewBox="0 0 24 24" fill="none" xmlns="http://www.w3.org/2000/svg">
<path fill-rule="evenodd" clip-rule="evenodd" d="M12 2C6.47715 2 2 6.47715 2 12C2 17.5228 6.47715 22 12 22C17.5228 22 22 17.5228 22 12C22 6.47715 17.5228 2 12 2ZM6.80143 10.2821H9.06765V17.0911H6.80143V10.2821ZM9.21583 8.17612C9.20112 7.5085 8.7237 7 7.94844 7C7.17318 7 6.66634 7.5085 6.66634 8.17612C6.66634 8.82992 7.1582 9.35306 7.91902 9.35306H7.9335C8.7237 9.35306 9.21583 8.82992 9.21583 8.17612ZM14.6295 10.1226C16.1208 10.1226 17.2388 11.096 17.2388 13.1874L17.2387 17.0915H14.9725V13.4487C14.9725 12.5336 14.6446 11.9093 13.8242 11.9093C13.1981 11.9093 12.8252 12.3302 12.6614 12.7367C12.6015 12.8824 12.5868 13.0854 12.5868 13.2889V17.0917H10.3203C10.3203 17.0917 10.3502 10.9216 10.3203 10.2826H12.5868V11.2471C12.8876 10.7834 13.4263 10.1226 14.6295 10.1226Z" fill="#1A1A1A"/>
</svg>
