<svg width="24" height="24" viewBox="0 0 24 24" fill="none" xmlns="http://www.w3.org/2000/svg">
<path fill-rule="evenodd" clip-rule="evenodd" d="M2 12C2 17.5228 6.47715 22 12 22C17.5228 22 22 17.5228 22 12C22 6.47715 17.5228 2 12 2C6.47715 2 2 6.47715 2 12ZM17.1436 12.055C17.1436 12.4247 17.1035 12.7845 17.0263 13.132C17.2226 13.5215 17.333 13.9598 17.333 14.4241C17.333 16.0304 16.0122 17.333 14.3829 17.333C13.878 17.333 13.4039 17.2075 12.9881 16.9874C12.6858 17.0424 12.3747 17.0715 12.0561 17.0715C9.24646 17.0715 6.96863 14.826 6.96863 12.055C6.96863 11.71 7.00438 11.3725 7.07148 11.0473C6.81435 10.6145 6.66634 10.1125 6.66634 9.57583C6.66634 7.96838 7.98713 6.66634 9.61711 6.66634C10.1935 6.66634 10.7316 6.83018 11.1863 7.11272C11.4697 7.06449 11.7601 7.03915 12.0561 7.03915C14.8664 7.03915 17.1436 9.28525 17.1436 12.055Z" fill="#1A1A1A"/>
<path d="M15.1984 14.9439C14.9162 15.3386 14.4992 15.6502 13.9574 15.8713C13.4223 16.0909 12.7811 16.2029 12.0503 16.2029C11.1735 16.2029 10.4383 16.0508 9.86405 15.7503C9.45389 15.5322 9.11597 15.2369 8.85934 14.8704C8.5997 14.5025 8.46875 14.1367 8.46875 13.7828C8.46875 13.5632 8.55454 13.3718 8.72312 13.2153C8.8902 13.0595 9.10469 12.9816 9.36057 12.9816C9.56978 12.9816 9.75116 13.0431 9.89791 13.1656C10.0386 13.2835 10.1591 13.4579 10.2561 13.6812C10.3645 13.926 10.4819 14.1322 10.6061 14.2932C10.7265 14.4505 10.8989 14.5818 11.1186 14.685C11.3399 14.7873 11.6386 14.8408 12.0052 14.8408C12.5101 14.8408 12.9241 14.7339 13.2349 14.5247C13.5397 14.3207 13.6872 14.0744 13.6872 13.7732C13.6872 13.5365 13.6097 13.3495 13.4516 13.2026C13.2846 13.0498 13.0656 12.9311 12.7999 12.848C12.5222 12.7634 12.1459 12.6707 11.68 12.5743C11.0456 12.4407 10.5075 12.2827 10.08 12.1024C9.64203 11.9192 9.28907 11.6647 9.03093 11.3464C8.76903 11.0222 8.63582 10.6164 8.63582 10.1393C8.63582 9.6853 8.77505 9.27503 9.0505 8.92188C9.32294 8.57096 9.72181 8.29646 10.2358 8.11024C10.7423 7.92551 11.3444 7.83203 12.027 7.83203C12.5719 7.83203 13.0513 7.89435 13.4516 8.01751C13.8543 8.14066 14.1929 8.30685 14.4593 8.51235C14.728 8.72009 14.9282 8.94043 15.0531 9.17042C15.1796 9.40263 15.2443 9.63336 15.2443 9.85668C15.2443 10.0718 15.16 10.2677 14.9937 10.4376C14.8266 10.6097 14.6151 10.6965 14.3668 10.6965C14.141 10.6965 13.9634 10.6416 13.8415 10.5348C13.7271 10.4346 13.6082 10.2788 13.4765 10.0562C13.3244 9.77136 13.1401 9.54656 12.9286 9.3878C12.7231 9.23348 12.3807 9.15632 11.9088 9.15632C11.4723 9.15632 11.1156 9.24238 10.8514 9.41376C10.5971 9.57772 10.4729 9.76691 10.4729 9.99096C10.4729 10.1275 10.5128 10.2425 10.5956 10.3404C10.6814 10.4457 10.804 10.5363 10.9591 10.6134C11.1194 10.6928 11.2849 10.7566 11.4505 10.8011C11.6198 10.8479 11.9043 10.9169 12.2949 11.0059C12.7894 11.1097 13.2432 11.2277 13.6443 11.3546C14.0514 11.4822 14.4021 11.6395 14.6896 11.8242C14.9816 12.0119 15.2127 12.2523 15.3775 12.5401C15.5423 12.8302 15.6259 13.1863 15.6259 13.601C15.6259 14.0966 15.4814 14.5485 15.1984 14.9439V14.9439V14.9439Z" fill="#1A1A1A"/>
</svg>
