<svg width="24" height="24" viewBox="0 0 24 24" fill="none" xmlns="http://www.w3.org/2000/svg">
<path fill-rule="evenodd" clip-rule="evenodd" d="M12 22C17.5228 22 22 17.5228 22 12C22 6.47715 17.5228 2 12 2C6.47715 2 2 6.47715 2 12C2 17.5228 6.47715 22 12 22ZM14.8762 11.4903C14.9294 11.5132 14.9819 11.537 15.0336 11.5618C15.7642 11.9123 16.2985 12.4429 16.5787 13.0963C16.9694 14.0074 17.0051 15.4916 15.8199 16.6757C14.914 17.5808 13.8144 17.9892 12.2543 18H12.2473C10.4926 17.9879 9.14326 17.3974 8.23677 16.2451C7.43012 15.2196 7.01403 13.7927 7.00004 12.0042L7 12L7.00004 11.9958C7.01403 10.2072 7.43012 8.7804 8.23677 7.75496C9.14326 6.60261 10.4926 6.01215 12.2473 6H12.2543C14.0126 6.0122 15.3772 6.60042 16.3103 7.74837C16.7707 8.31473 17.109 8.99764 17.324 9.79014L16.3148 10.0594C16.1374 9.41555 15.8684 8.86335 15.5115 8.42425C14.7837 7.52884 13.6868 7.06946 12.2508 7.05878C10.8252 7.06938 9.74711 7.52656 9.04613 8.41767C8.38972 9.2521 8.05048 10.4574 8.03783 12C8.05048 13.5426 8.38972 14.7479 9.04613 15.5823C9.74711 16.4734 10.8253 16.9306 12.2508 16.9412C13.536 16.9318 14.3864 16.626 15.0938 15.9192C15.9013 15.1125 15.8862 14.1229 15.6279 13.5208C15.4761 13.1665 15.2011 12.8718 14.83 12.6479C14.7396 13.3214 14.5349 13.856 14.2113 14.2685C13.7852 14.8117 13.1744 15.1088 12.3958 15.1514C11.8062 15.1836 11.2389 15.0414 10.7984 14.7507C10.2775 14.4067 9.97259 13.8802 9.93997 13.2682C9.87569 12.0617 10.8328 11.1935 12.3216 11.1077C12.8501 11.0774 13.3444 11.1013 13.8016 11.179C13.7409 10.8078 13.6183 10.5137 13.4351 10.3009C13.1832 10.0085 12.7942 9.85863 12.2786 9.85534L12.2643 9.8553C11.8503 9.8553 11.2882 9.97114 10.9301 10.5146L10.0689 9.92379C10.5483 9.19631 11.3273 8.79652 12.2639 8.79652L12.2851 8.79656C13.851 8.80656 14.7836 9.78364 14.8762 11.4903ZM10.9762 13.2108C11.0097 13.8381 11.6875 14.1309 12.34 14.0942C12.9789 14.0591 13.704 13.8084 13.8276 12.2646C13.4962 12.1921 13.1316 12.1543 12.7419 12.1543C12.6235 12.1543 12.5029 12.1577 12.3801 12.1648C11.3072 12.2266 10.9515 12.7456 10.9762 13.2108Z" fill="#1A1A1A"/>
</svg>
