<svg width="24" height="24" viewBox="0 0 24 24" fill="none" xmlns="http://www.w3.org/2000/svg">
<path fill-rule="evenodd" clip-rule="evenodd" d="M12 22C17.5228 22 22 17.5228 22 12C22 6.47715 17.5228 2 12 2C6.47715 2 2 6.47715 2 12C2 17.5228 6.47715 22 12 22ZM12.5139 6H14.5363C14.5363 7.53043 15.7289 8.78261 17.25 8.83478V10.887C16.2647 10.8696 15.3314 10.5391 14.5708 9.9826V14.1739C14.5708 16.2783 12.8769 18 10.7854 18C8.69393 18 7 16.2957 7 14.1739C7 12.0696 8.65936 10.3826 10.7163 10.3478V12.4C9.78289 12.4348 9.02235 13.2174 9.02235 14.1739C9.02235 15.1478 9.80017 15.9478 10.7681 15.9478C11.7361 15.9478 12.5139 15.1478 12.5139 14.1739V6Z" fill="#1A1A1A"/>
</svg>
