<svg width="24" height="24" viewBox="0 0 24 24" fill="none" xmlns="http://www.w3.org/2000/svg">
<path fill-rule="evenodd" clip-rule="evenodd" d="M12 22C6.47715 22 2 17.5228 2 12C2 6.47715 6.47715 2 12 2C17.5228 2 22 6.47715 22 12C22 17.5228 17.5228 22 12 22ZM12.329 17.5639C15.6075 17.5625 18.2739 14.8954 18.2752 11.6176C18.2759 10.0288 17.6579 8.53483 16.5353 7.41091C15.4126 6.28694 13.9196 5.66768 12.3289 5.66699C9.05136 5.66699 6.38384 8.33436 6.38254 11.6129C6.38209 12.6609 6.6559 13.6839 7.17627 14.5857L6.33268 17.667L9.48491 16.8401C10.3534 17.3138 11.3313 17.5635 12.3265 17.5639H12.329ZM9.63247 15.7638L7.7619 16.2545L8.26118 14.4307L8.14367 14.2437C7.64893 13.4568 7.38764 12.5474 7.38802 11.6135C7.3891 8.8885 9.60625 6.67155 12.3324 6.67155C13.6525 6.67201 14.8934 7.18674 15.8266 8.12095C16.7597 9.05515 17.2733 10.2969 17.2728 11.6175C17.2717 14.3427 15.0545 16.5598 12.3305 16.5598H12.3285C11.4416 16.5595 10.5718 16.3212 9.81295 15.8709L9.63247 15.7638ZM15.3258 13.0319C15.2959 12.982 15.2259 12.9482 15.1223 12.8981C15.0972 12.886 15.07 12.8729 15.041 12.8584C14.8925 12.784 14.162 12.4246 14.0258 12.375C13.8896 12.3254 13.7905 12.3007 13.6915 12.4493C13.5924 12.5981 13.3077 12.9328 13.221 13.0319C13.1344 13.1311 13.0477 13.1435 12.8992 13.0691C12.8749 13.057 12.8418 13.0426 12.801 13.0249L12.801 13.0249C12.5918 12.9342 12.1791 12.7552 11.7043 12.3317C11.2626 11.9377 10.9644 11.4511 10.8778 11.3024C10.7911 11.1536 10.8685 11.0733 10.9429 10.9992C10.9874 10.9548 11.0385 10.8926 11.0896 10.8303C11.1153 10.7991 11.141 10.7678 11.1658 10.7389C11.2289 10.6651 11.2563 10.6093 11.2935 10.5333L11.3143 10.491C11.3639 10.3918 11.3391 10.3051 11.302 10.2307C11.2771 10.181 11.136 9.83728 11.0081 9.52611L11.008 9.52578C10.9448 9.37186 10.8848 9.22593 10.8439 9.1275C10.7374 8.87171 10.6294 8.87235 10.5429 8.87285C10.5314 8.87292 10.5203 8.87299 10.5096 8.87245C10.423 8.8681 10.3239 8.86719 10.2248 8.86719C10.1258 8.86719 9.96479 8.90438 9.82861 9.05313C9.81987 9.06266 9.81012 9.07307 9.79952 9.08438C9.64478 9.2495 9.30859 9.60822 9.30859 10.2926C9.30859 11.0201 9.83545 11.7231 9.91408 11.828L9.91528 11.8296C9.92013 11.8361 9.92884 11.8486 9.94128 11.8664L9.94132 11.8665C10.1192 12.1216 11.0605 13.4716 12.4534 14.0731C12.8079 14.2262 13.0846 14.3176 13.3004 14.3861C13.6564 14.4992 13.9803 14.4832 14.2362 14.4449C14.5217 14.4023 15.1153 14.0855 15.2392 13.7385C15.3629 13.3914 15.3629 13.0939 15.3258 13.0319Z" fill="#1A1A1A"/>
</svg>
