<svg width="24" height="24" viewBox="0 0 24 24" fill="none" xmlns="http://www.w3.org/2000/svg">
<path fill-rule="evenodd" clip-rule="evenodd" d="M2 12C2 6.47715 6.47715 2 12 2C17.5228 2 22 6.47715 22 12C22 17.5228 17.5228 22 12 22C6.47715 22 2 17.5228 2 12ZM17.1101 9.53018C16.9874 9.05893 16.626 8.68784 16.167 8.56189C15.3353 8.33301 11.9997 8.33301 11.9997 8.33301C11.9997 8.33301 8.6641 8.33301 7.83228 8.56189C7.37331 8.68784 7.01186 9.05893 6.88919 9.53018C6.66634 10.3843 6.66634 12.1663 6.66634 12.1663C6.66634 12.1663 6.66634 13.9483 6.88919 14.8025C7.01186 15.2738 7.37331 15.6448 7.83228 15.7708C8.6641 15.9997 11.9997 15.9997 11.9997 15.9997C11.9997 15.9997 15.3353 15.9997 16.167 15.7708C16.626 15.6448 16.9874 15.2738 17.1101 14.8025C17.333 13.9483 17.333 12.1663 17.333 12.1663C17.333 12.1663 17.333 10.3843 17.1101 9.53018ZM11.0007 10.667V14.0003L13.6673 12.3337L11.0007 10.667Z" fill="#1A1A1A"/>
</svg>
