<svg width="16" height="16" viewBox="0 0 16 16" fill="none" xmlns="http://www.w3.org/2000/svg">
<rect x="16" width="16" height="16" rx="4" transform="rotate(90 16 0)" fill="#F6F6F6"/>
<path d="M11.2829 5.78881C11.2532 5.74969 11.2172 5.75738 11.1983 5.76536C11.1825 5.7721 11.1462 5.79363 11.1512 5.84759C11.1572 5.91238 11.1606 5.97844 11.1613 6.04395C11.164 6.31574 11.0602 6.58201 10.8765 6.77449C10.6941 6.96572 10.4541 7.06875 10.1985 7.06577C9.84948 7.06109 9.55998 6.86983 9.3613 6.51267C9.19702 6.21734 9.26922 5.83644 9.34567 5.43314C9.3904 5.19709 9.40799 4.79475 9.34567 4.53288C9.00122 3.08552 7.99105 2.47397 7.30099 2.01287C7.28672 2.00335 7.27314 2 7.2611 2C7.24153 2 7.22603 2.00887 7.21839 2.01429C7.20358 2.02483 7.17988 2.04885 7.1875 2.09136C7.45126 3.56274 6.66454 4.44769 5.83162 5.38459C4.97309 6.35032 4 7.44491 4 9.41902C4 11.7128 5.77642 13.5789 7.95996 13.5789C9.75781 13.5789 11.3429 12.2622 11.8147 10.3769C12.1363 9.09138 12.0872 6.84796 11.2829 5.78881Z" fill="#FDBFC4"/>
<path d="M10.1334 9.17104C10.1334 10.3701 9.20809 11.3421 8.06669 11.3421C6.92529 11.3421 6 10.3701 6 9.17104C6 7.97201 6.92529 7 8.06669 7C9.20809 7 10.1334 7.97201 10.1334 9.17104Z" fill="#F6F6F6"/>
<path fill-rule="evenodd" clip-rule="evenodd" d="M8.34445 7C8.53468 7 8.6889 7.162 8.6889 7.36184V8.65932L9.2769 9.27702C9.41142 9.41833 9.41142 9.64744 9.2769 9.78874C9.14239 9.93005 8.9243 9.93005 8.78978 9.78874L8 8.95908V7.36184C8 7.162 8.15421 7 8.34445 7Z" fill="#FDBFC4"/>
</svg>
