<svg width="32" height="32" viewBox="0 0 32 32" fill="none" xmlns="http://www.w3.org/2000/svg">
<rect x="0.5" y="0.5" width="31" height="31" rx="15.5" fill="#34C759"/>
<path d="M24.4444 22.5556H23.7778V10.9392C23.7778 9.99268 23.0302 9.22219 22.1111 9.22219H18.2222V11.4444H21.5556V24.7778H24.4444C24.7514 24.7778 25 24.5292 25 24.2222V23.1111C25 22.8042 24.7514 22.5556 24.4444 22.5556ZM15.7306 7.03504L9.06389 8.76212C8.5691 8.89025 8.22222 9.35067 8.22222 9.87914V22.5556H7.55556C7.24861 22.5556 7 22.8042 7 23.1111V24.2222C7 24.5292 7.24861 24.7778 7.55556 24.7778H17.1111V8.15205C17.1111 7.40274 16.4319 6.85309 15.7306 7.03504ZM14.0556 17C13.5955 17 13.2222 16.5024 13.2222 15.8889C13.2222 15.2753 13.5955 14.7778 14.0556 14.7778C14.5156 14.7778 14.8889 15.2753 14.8889 15.8889C14.8889 16.5024 14.5156 17 14.0556 17Z" fill="white"/>
<rect x="0.5" y="0.5" width="31" height="31" rx="15.5" stroke="white"/>
</svg>
