<svg width="32" height="32" viewBox="0 0 32 32" fill="none" xmlns="http://www.w3.org/2000/svg">
<rect x="0.5" y="0.5" width="31" height="31" rx="15.5" fill="#D42F55"/>
<path fill-rule="evenodd" clip-rule="evenodd" d="M23.5 22.5H24.375C24.7203 22.5 25 22.7797 25 23.125V24.375C25 24.7203 24.7203 25 24.375 25H7.625C7.27969 25 7 24.7203 7 24.375V23.125C7 22.7797 7.27969 22.5 7.625 22.5H8.49961V8.98438C8.49961 7.88984 9.34063 7 10.3746 7H21.625C22.659 7 23.5 7.88984 23.5 8.98438V22.5ZM18.4996 15C18.4996 15.6902 19.0594 16.25 19.7496 16.25C20.4402 16.25 21 15.6902 20.9996 15C20.9996 14.3098 20.4398 13.75 19.7496 13.75C19.0594 13.75 18.4996 14.3098 18.4996 15ZM10.35 9.75C10.35 9.25294 10.7529 8.85 11.25 8.85H20.75C21.2471 8.85 21.65 9.25294 21.65 9.75V22V22.35H22.35V22V9.75C22.35 8.86634 21.6337 8.15 20.75 8.15H11.25C10.3663 8.15 9.65 8.86634 9.65 9.75V22V22.35H10.35V22V9.75Z" fill="white"/>
<rect x="0.5" y="0.5" width="31" height="31" rx="15.5" stroke="white"/>
</svg>
