<svg width="20" height="20" viewBox="0 0 20 20" fill="none" xmlns="http://www.w3.org/2000/svg">
<path d="M17.037 15.463H16.4815V5.78268C16.4815 4.9939 15.8585 4.35183 15.0926 4.35183H11.8519V6.20368H14.6296V17.3148H17.037C17.2928 17.3148 17.5 17.1076 17.5 16.8519V15.9259C17.5 15.6701 17.2928 15.463 17.037 15.463ZM9.77546 2.5292L4.21991 3.96844C3.80758 4.07521 3.51852 4.45889 3.51852 4.89928V15.463H2.96296C2.70718 15.463 2.5 15.6701 2.5 15.9259V16.8519C2.5 17.1076 2.70718 17.3148 2.96296 17.3148H10.9259V3.46004C10.9259 2.83562 10.36 2.37758 9.77546 2.5292ZM8.37963 10.8333C7.99624 10.8333 7.68519 10.4187 7.68519 9.90739C7.68519 9.39611 7.99624 8.98147 8.37963 8.98147C8.76302 8.98147 9.07407 9.39611 9.07407 9.90739C9.07407 10.4187 8.76302 10.8333 8.37963 10.8333Z" fill="#FFCC00"/>
</svg>
