<svg width="358" height="145" viewBox="0 0 358 145" fill="none" xmlns="http://www.w3.org/2000/svg">
<path d="M201.559 139V127.364H204.02V136.972H209.008V139H201.559ZM214.409 139.17C213.512 139.17 212.739 138.989 212.091 138.625C211.447 138.258 210.951 137.739 210.603 137.068C210.254 136.394 210.08 135.597 210.08 134.676C210.08 133.778 210.254 132.991 210.603 132.312C210.951 131.634 211.442 131.106 212.074 130.727C212.711 130.348 213.457 130.159 214.313 130.159C214.889 130.159 215.425 130.252 215.921 130.438C216.421 130.619 216.856 130.894 217.228 131.261C217.603 131.629 217.894 132.091 218.103 132.648C218.311 133.201 218.415 133.848 218.415 134.591V135.256H211.046V133.756H216.137C216.137 133.407 216.061 133.098 215.909 132.83C215.758 132.561 215.548 132.35 215.279 132.199C215.014 132.044 214.705 131.966 214.353 131.966C213.985 131.966 213.659 132.051 213.375 132.222C213.095 132.388 212.875 132.614 212.716 132.898C212.557 133.178 212.476 133.491 212.472 133.835V135.261C212.472 135.693 212.551 136.066 212.711 136.381C212.873 136.695 213.103 136.938 213.398 137.108C213.694 137.278 214.044 137.364 214.449 137.364C214.718 137.364 214.964 137.326 215.188 137.25C215.411 137.174 215.603 137.061 215.762 136.909C215.921 136.758 216.042 136.572 216.125 136.352L218.364 136.5C218.25 137.038 218.017 137.508 217.665 137.909C217.317 138.307 216.866 138.617 216.313 138.841C215.764 139.061 215.129 139.17 214.409 139.17ZM222.323 139.165C221.766 139.165 221.27 139.068 220.835 138.875C220.399 138.678 220.054 138.388 219.801 138.006C219.551 137.619 219.426 137.138 219.426 136.562C219.426 136.078 219.515 135.67 219.693 135.341C219.871 135.011 220.113 134.746 220.42 134.545C220.727 134.345 221.075 134.193 221.465 134.091C221.859 133.989 222.272 133.917 222.704 133.875C223.212 133.822 223.621 133.773 223.931 133.727C224.242 133.678 224.467 133.606 224.607 133.511C224.748 133.417 224.818 133.277 224.818 133.091V133.057C224.818 132.697 224.704 132.419 224.477 132.222C224.253 132.025 223.935 131.926 223.522 131.926C223.087 131.926 222.74 132.023 222.482 132.216C222.225 132.405 222.054 132.644 221.971 132.932L219.732 132.75C219.846 132.22 220.07 131.761 220.403 131.375C220.736 130.985 221.166 130.686 221.693 130.477C222.223 130.265 222.837 130.159 223.534 130.159C224.018 130.159 224.482 130.216 224.926 130.33C225.373 130.443 225.768 130.619 226.113 130.858C226.462 131.097 226.736 131.403 226.937 131.778C227.138 132.15 227.238 132.595 227.238 133.114V139H224.943V137.79H224.874C224.734 138.062 224.547 138.303 224.312 138.511C224.077 138.716 223.795 138.877 223.465 138.994C223.136 139.108 222.755 139.165 222.323 139.165ZM223.016 137.494C223.373 137.494 223.687 137.424 223.96 137.284C224.232 137.14 224.446 136.947 224.602 136.705C224.757 136.462 224.835 136.187 224.835 135.881V134.955C224.759 135.004 224.655 135.049 224.522 135.091C224.393 135.129 224.248 135.165 224.085 135.199C223.922 135.229 223.759 135.258 223.596 135.284C223.433 135.307 223.285 135.328 223.153 135.347C222.869 135.388 222.621 135.455 222.409 135.545C222.196 135.636 222.032 135.759 221.914 135.915C221.797 136.066 221.738 136.256 221.738 136.483C221.738 136.812 221.857 137.064 222.096 137.239C222.338 137.409 222.645 137.494 223.016 137.494ZM236.78 130.273L233.729 139H231.001L227.95 130.273H230.507L232.32 136.517H232.41L234.217 130.273H236.78ZM241.554 139.17C240.657 139.17 239.884 138.989 239.236 138.625C238.592 138.258 238.096 137.739 237.748 137.068C237.399 136.394 237.225 135.597 237.225 134.676C237.225 133.778 237.399 132.991 237.748 132.312C238.096 131.634 238.587 131.106 239.219 130.727C239.856 130.348 240.602 130.159 241.458 130.159C242.034 130.159 242.57 130.252 243.066 130.438C243.566 130.619 244.001 130.894 244.373 131.261C244.748 131.629 245.039 132.091 245.248 132.648C245.456 133.201 245.56 133.848 245.56 134.591V135.256H238.191V133.756H243.282C243.282 133.407 243.206 133.098 243.054 132.83C242.903 132.561 242.693 132.35 242.424 132.199C242.159 132.044 241.85 131.966 241.498 131.966C241.13 131.966 240.804 132.051 240.52 132.222C240.24 132.388 240.02 132.614 239.861 132.898C239.702 133.178 239.621 133.491 239.617 133.835V135.261C239.617 135.693 239.696 136.066 239.856 136.381C240.018 136.695 240.248 136.938 240.543 137.108C240.839 137.278 241.189 137.364 241.594 137.364C241.863 137.364 242.109 137.326 242.333 137.25C242.556 137.174 242.748 137.061 242.907 136.909C243.066 136.758 243.187 136.572 243.27 136.352L245.509 136.5C245.395 137.038 245.162 137.508 244.81 137.909C244.462 138.307 244.011 138.617 243.458 138.841C242.909 139.061 242.274 139.17 241.554 139.17ZM252.017 142.273C251.71 142.273 251.422 142.248 251.153 142.199C250.888 142.153 250.669 142.095 250.494 142.023L251.04 140.216C251.324 140.303 251.58 140.35 251.807 140.358C252.038 140.366 252.237 140.313 252.403 140.199C252.574 140.085 252.712 139.892 252.818 139.619L252.96 139.25L249.83 130.273H252.375L254.182 136.682H254.273L256.097 130.273H258.659L255.267 139.943C255.104 140.413 254.883 140.822 254.602 141.17C254.326 141.523 253.975 141.794 253.551 141.983C253.127 142.176 252.616 142.273 252.017 142.273ZM263.4 139.17C262.517 139.17 261.754 138.983 261.11 138.608C260.47 138.229 259.975 137.703 259.627 137.028C259.279 136.35 259.104 135.564 259.104 134.67C259.104 133.769 259.279 132.981 259.627 132.307C259.975 131.629 260.47 131.102 261.11 130.727C261.754 130.348 262.517 130.159 263.4 130.159C264.282 130.159 265.044 130.348 265.684 130.727C266.328 131.102 266.824 131.629 267.172 132.307C267.521 132.981 267.695 133.769 267.695 134.67C267.695 135.564 267.521 136.35 267.172 137.028C266.824 137.703 266.328 138.229 265.684 138.608C265.044 138.983 264.282 139.17 263.4 139.17ZM263.411 137.295C263.813 137.295 264.148 137.182 264.417 136.955C264.686 136.723 264.888 136.409 265.025 136.011C265.165 135.614 265.235 135.161 265.235 134.653C265.235 134.146 265.165 133.693 265.025 133.295C264.888 132.898 264.686 132.583 264.417 132.352C264.148 132.121 263.813 132.006 263.411 132.006C263.006 132.006 262.665 132.121 262.388 132.352C262.116 132.583 261.909 132.898 261.769 133.295C261.633 133.693 261.564 134.146 261.564 134.653C261.564 135.161 261.633 135.614 261.769 136.011C261.909 136.409 262.116 136.723 262.388 136.955C262.665 137.182 263.006 137.295 263.411 137.295ZM274.706 135.284V130.273H277.126V139H274.802V137.415H274.711C274.514 137.926 274.187 138.337 273.728 138.648C273.274 138.958 272.719 139.114 272.064 139.114C271.48 139.114 270.967 138.981 270.524 138.716C270.081 138.451 269.734 138.074 269.484 137.585C269.238 137.097 269.113 136.511 269.109 135.83V130.273H271.529V135.398C271.533 135.913 271.672 136.32 271.944 136.619C272.217 136.919 272.583 137.068 273.041 137.068C273.333 137.068 273.605 137.002 273.859 136.869C274.113 136.733 274.317 136.532 274.473 136.267C274.632 136.002 274.709 135.674 274.706 135.284ZM278.902 139V130.273H281.249V131.795H281.34C281.499 131.254 281.766 130.845 282.141 130.568C282.516 130.288 282.948 130.148 283.436 130.148C283.557 130.148 283.688 130.155 283.828 130.17C283.968 130.186 284.092 130.206 284.198 130.233V132.381C284.084 132.347 283.927 132.316 283.726 132.29C283.525 132.263 283.342 132.25 283.175 132.25C282.819 132.25 282.501 132.328 282.22 132.483C281.944 132.634 281.724 132.847 281.561 133.119C281.402 133.392 281.323 133.706 281.323 134.062V139H278.902ZM288.832 139V130.273H291.139V131.812H291.241C291.423 131.301 291.726 130.898 292.15 130.602C292.575 130.307 293.082 130.159 293.673 130.159C294.272 130.159 294.781 130.309 295.201 130.608C295.622 130.903 295.902 131.305 296.042 131.812H296.133C296.311 131.312 296.633 130.913 297.099 130.614C297.569 130.311 298.124 130.159 298.764 130.159C299.578 130.159 300.239 130.419 300.747 130.938C301.258 131.453 301.514 132.184 301.514 133.131V139H299.099V133.608C299.099 133.123 298.97 132.759 298.713 132.517C298.455 132.275 298.133 132.153 297.747 132.153C297.308 132.153 296.965 132.294 296.719 132.574C296.472 132.85 296.349 133.216 296.349 133.67V139H294.003V133.557C294.003 133.129 293.88 132.788 293.633 132.534C293.391 132.28 293.071 132.153 292.673 132.153C292.404 132.153 292.162 132.222 291.946 132.358C291.734 132.491 291.565 132.678 291.44 132.92C291.315 133.159 291.253 133.439 291.253 133.761V139H288.832ZM307.243 139.17C306.345 139.17 305.573 138.989 304.925 138.625C304.281 138.258 303.785 137.739 303.436 137.068C303.088 136.394 302.914 135.597 302.914 134.676C302.914 133.778 303.088 132.991 303.436 132.312C303.785 131.634 304.275 131.106 304.908 130.727C305.544 130.348 306.291 130.159 307.147 130.159C307.722 130.159 308.258 130.252 308.755 130.438C309.255 130.619 309.69 130.894 310.061 131.261C310.436 131.629 310.728 132.091 310.936 132.648C311.145 133.201 311.249 133.848 311.249 134.591V135.256H303.88V133.756H308.97C308.97 133.407 308.895 133.098 308.743 132.83C308.592 132.561 308.381 132.35 308.113 132.199C307.847 132.044 307.539 131.966 307.186 131.966C306.819 131.966 306.493 132.051 306.209 132.222C305.929 132.388 305.709 132.614 305.55 132.898C305.391 133.178 305.309 133.491 305.306 133.835V135.261C305.306 135.693 305.385 136.066 305.544 136.381C305.707 136.695 305.936 136.938 306.232 137.108C306.527 137.278 306.878 137.364 307.283 137.364C307.552 137.364 307.798 137.326 308.022 137.25C308.245 137.174 308.436 137.061 308.595 136.909C308.755 136.758 308.876 136.572 308.959 136.352L311.198 136.5C311.084 137.038 310.851 137.508 310.499 137.909C310.15 138.307 309.7 138.617 309.147 138.841C308.597 139.061 307.963 139.17 307.243 139.17ZM319.93 132.761L317.714 132.898C317.676 132.708 317.595 132.538 317.47 132.386C317.345 132.231 317.18 132.108 316.975 132.017C316.774 131.922 316.534 131.875 316.254 131.875C315.879 131.875 315.562 131.955 315.305 132.114C315.047 132.269 314.918 132.477 314.918 132.739C314.918 132.947 315.002 133.123 315.168 133.267C315.335 133.411 315.621 133.527 316.026 133.614L317.606 133.932C318.454 134.106 319.087 134.386 319.504 134.773C319.92 135.159 320.129 135.667 320.129 136.295C320.129 136.867 319.96 137.369 319.623 137.801C319.29 138.233 318.831 138.57 318.248 138.812C317.668 139.051 317 139.17 316.242 139.17C315.087 139.17 314.167 138.93 313.481 138.449C312.799 137.964 312.399 137.305 312.282 136.472L314.663 136.347C314.735 136.699 314.909 136.968 315.185 137.153C315.462 137.335 315.816 137.426 316.248 137.426C316.672 137.426 317.013 137.345 317.271 137.182C317.532 137.015 317.665 136.801 317.668 136.54C317.665 136.32 317.572 136.14 317.39 136C317.208 135.856 316.928 135.746 316.549 135.67L315.038 135.369C314.185 135.199 313.551 134.903 313.134 134.483C312.721 134.062 312.515 133.527 312.515 132.875C312.515 132.314 312.667 131.831 312.97 131.426C313.276 131.021 313.706 130.708 314.259 130.489C314.816 130.269 315.468 130.159 316.214 130.159C317.316 130.159 318.184 130.392 318.816 130.858C319.452 131.324 319.824 131.958 319.93 132.761ZM328.754 132.761L326.538 132.898C326.5 132.708 326.419 132.538 326.294 132.386C326.169 132.231 326.004 132.108 325.8 132.017C325.599 131.922 325.358 131.875 325.078 131.875C324.703 131.875 324.387 131.955 324.129 132.114C323.872 132.269 323.743 132.477 323.743 132.739C323.743 132.947 323.826 133.123 323.993 133.267C324.159 133.411 324.445 133.527 324.851 133.614L326.43 133.932C327.279 134.106 327.911 134.386 328.328 134.773C328.745 135.159 328.953 135.667 328.953 136.295C328.953 136.867 328.784 137.369 328.447 137.801C328.114 138.233 327.656 138.57 327.072 138.812C326.493 139.051 325.824 139.17 325.067 139.17C323.911 139.17 322.991 138.93 322.305 138.449C321.623 137.964 321.224 137.305 321.106 136.472L323.487 136.347C323.559 136.699 323.733 136.968 324.01 137.153C324.286 137.335 324.641 137.426 325.072 137.426C325.497 137.426 325.837 137.345 326.095 137.182C326.356 137.015 326.489 136.801 326.493 136.54C326.489 136.32 326.396 136.14 326.214 136C326.033 135.856 325.752 135.746 325.373 135.67L323.862 135.369C323.01 135.199 322.375 134.903 321.959 134.483C321.546 134.062 321.339 133.527 321.339 132.875C321.339 132.314 321.491 131.831 321.794 131.426C322.101 131.021 322.531 130.708 323.084 130.489C323.641 130.269 324.292 130.159 325.038 130.159C326.141 130.159 327.008 130.392 327.641 130.858C328.277 131.324 328.648 131.958 328.754 132.761ZM332.806 139.165C332.249 139.165 331.753 139.068 331.317 138.875C330.882 138.678 330.537 138.388 330.283 138.006C330.033 137.619 329.908 137.138 329.908 136.562C329.908 136.078 329.997 135.67 330.175 135.341C330.353 135.011 330.596 134.746 330.902 134.545C331.209 134.345 331.558 134.193 331.948 134.091C332.342 133.989 332.755 133.917 333.186 133.875C333.694 133.822 334.103 133.773 334.414 133.727C334.724 133.678 334.95 133.606 335.09 133.511C335.23 133.417 335.3 133.277 335.3 133.091V133.057C335.3 132.697 335.186 132.419 334.959 132.222C334.736 132.025 334.418 131.926 334.005 131.926C333.569 131.926 333.222 132.023 332.965 132.216C332.707 132.405 332.537 132.644 332.454 132.932L330.215 132.75C330.329 132.22 330.552 131.761 330.885 131.375C331.219 130.985 331.649 130.686 332.175 130.477C332.705 130.265 333.319 130.159 334.016 130.159C334.501 130.159 334.965 130.216 335.408 130.33C335.855 130.443 336.251 130.619 336.596 130.858C336.944 131.097 337.219 131.403 337.419 131.778C337.62 132.15 337.721 132.595 337.721 133.114V139H335.425V137.79H335.357C335.217 138.062 335.029 138.303 334.794 138.511C334.56 138.716 334.277 138.877 333.948 138.994C333.618 139.108 333.238 139.165 332.806 139.165ZM333.499 137.494C333.855 137.494 334.169 137.424 334.442 137.284C334.715 137.14 334.929 136.947 335.084 136.705C335.24 136.462 335.317 136.187 335.317 135.881V134.955C335.241 135.004 335.137 135.049 335.005 135.091C334.876 135.129 334.73 135.165 334.567 135.199C334.404 135.229 334.241 135.258 334.079 135.284C333.916 135.307 333.768 135.328 333.635 135.347C333.351 135.388 333.103 135.455 332.891 135.545C332.679 135.636 332.514 135.759 332.397 135.915C332.279 136.066 332.221 136.256 332.221 136.483C332.221 136.812 332.34 137.064 332.579 137.239C332.821 137.409 333.128 137.494 333.499 137.494ZM343.37 142.455C342.586 142.455 341.914 142.347 341.353 142.131C340.796 141.919 340.353 141.629 340.024 141.261C339.694 140.894 339.48 140.481 339.382 140.023L341.62 139.722C341.688 139.896 341.796 140.059 341.944 140.21C342.092 140.362 342.287 140.483 342.529 140.574C342.776 140.669 343.075 140.716 343.427 140.716C343.954 140.716 344.387 140.587 344.728 140.33C345.073 140.076 345.245 139.65 345.245 139.051V137.455H345.143C345.037 137.697 344.878 137.926 344.666 138.142C344.454 138.358 344.181 138.534 343.848 138.67C343.514 138.807 343.116 138.875 342.654 138.875C341.999 138.875 341.402 138.723 340.865 138.42C340.33 138.114 339.904 137.646 339.586 137.017C339.272 136.384 339.115 135.585 339.115 134.619C339.115 133.631 339.276 132.805 339.598 132.142C339.919 131.479 340.348 130.983 340.882 130.653C341.419 130.324 342.008 130.159 342.649 130.159C343.137 130.159 343.546 130.242 343.876 130.409C344.205 130.572 344.471 130.777 344.671 131.023C344.876 131.265 345.033 131.504 345.143 131.739H345.234V130.273H347.637V139.085C347.637 139.828 347.455 140.449 347.092 140.949C346.728 141.449 346.224 141.824 345.58 142.074C344.94 142.328 344.204 142.455 343.37 142.455ZM343.421 137.057C343.812 137.057 344.141 136.96 344.41 136.767C344.683 136.57 344.891 136.29 345.035 135.926C345.183 135.559 345.257 135.119 345.257 134.608C345.257 134.097 345.185 133.653 345.041 133.278C344.897 132.9 344.688 132.606 344.416 132.398C344.143 132.189 343.812 132.085 343.421 132.085C343.024 132.085 342.688 132.193 342.416 132.409C342.143 132.621 341.937 132.917 341.796 133.295C341.656 133.674 341.586 134.112 341.586 134.608C341.586 135.112 341.656 135.547 341.796 135.915C341.94 136.278 342.147 136.561 342.416 136.761C342.688 136.958 343.024 137.057 343.421 137.057ZM353.381 139.17C352.483 139.17 351.71 138.989 351.062 138.625C350.419 138.258 349.922 137.739 349.574 137.068C349.225 136.394 349.051 135.597 349.051 134.676C349.051 133.778 349.225 132.991 349.574 132.312C349.922 131.634 350.413 131.106 351.045 130.727C351.682 130.348 352.428 130.159 353.284 130.159C353.86 130.159 354.396 130.252 354.892 130.438C355.392 130.619 355.828 130.894 356.199 131.261C356.574 131.629 356.866 132.091 357.074 132.648C357.282 133.201 357.386 133.848 357.386 134.591V135.256H350.017V133.756H355.108C355.108 133.407 355.032 133.098 354.881 132.83C354.729 132.561 354.519 132.35 354.25 132.199C353.985 132.044 353.676 131.966 353.324 131.966C352.956 131.966 352.631 132.051 352.347 132.222C352.066 132.388 351.847 132.614 351.688 132.898C351.528 133.178 351.447 133.491 351.443 133.835V135.261C351.443 135.693 351.523 136.066 351.682 136.381C351.845 136.695 352.074 136.938 352.369 137.108C352.665 137.278 353.015 137.364 353.42 137.364C353.689 137.364 353.936 137.326 354.159 137.25C354.383 137.174 354.574 137.061 354.733 136.909C354.892 136.758 355.013 136.572 355.097 136.352L357.335 136.5C357.222 137.038 356.989 137.508 356.636 137.909C356.288 138.307 355.837 138.617 355.284 138.841C354.735 139.061 354.1 139.17 353.381 139.17Z" fill="white"/>
<path d="M260.439 116.682C260.338 117.225 259.817 117.584 259.274 117.483C258.731 117.383 258.372 116.861 258.473 116.318L260.439 116.682ZM238 71L249.5 72.0354L242.853 81.4774L238 71ZM258.473 116.318C260.451 105.65 260.656 98.6077 258.617 92.8726C256.586 87.1607 252.269 82.5774 244.76 76.9812L245.955 75.3776C253.55 81.0382 258.266 85.9174 260.501 92.2027C262.727 98.4648 262.429 105.955 260.439 116.682L258.473 116.318Z" fill="white"/>
<rect x="0.5" y="0.5" width="357" height="63" rx="3.5" stroke="white" stroke-linecap="round" stroke-linejoin="round" stroke-dasharray="4 4"/>
</svg>
