<svg width="358" height="67" viewBox="0 0 358 67" fill="none" xmlns="http://www.w3.org/2000/svg">
<rect x="228" y="27" width="130" height="40" rx="8" fill="white"/>
<path d="M247 42.3334V51.6666M242.333 47H251.667" stroke="#7E2EBC" stroke-width="1.67" stroke-linecap="round" stroke-linejoin="round"/>
<path d="M262.009 52H259.702L263.217 41.8182H265.991L269.501 52H267.194L264.644 44.1449H264.564L262.009 52ZM261.865 47.9979H267.314V49.6783H261.865V47.9979ZM273.145 52.1243C272.565 52.1243 272.04 51.9751 271.569 51.6768C271.102 51.3752 270.731 50.9328 270.456 50.3494C270.184 49.7628 270.048 49.0436 270.048 48.1918C270.048 47.3168 270.189 46.5893 270.471 46.0092C270.752 45.4259 271.127 44.9901 271.594 44.7017C272.065 44.41 272.58 44.2642 273.14 44.2642C273.568 44.2642 273.924 44.3371 274.209 44.483C274.498 44.6255 274.73 44.8045 274.905 45.0199C275.084 45.232 275.22 45.4408 275.313 45.6463H275.378V41.8182H277.491V52H275.403V50.777H275.313C275.214 50.9891 275.073 51.1996 274.89 51.4084C274.711 51.6139 274.478 51.7846 274.189 51.9205C273.904 52.0563 273.556 52.1243 273.145 52.1243ZM273.817 50.4389C274.158 50.4389 274.446 50.3461 274.682 50.1605C274.92 49.9716 275.103 49.7081 275.229 49.37C275.358 49.032 275.422 48.6359 275.422 48.1818C275.422 47.7277 275.359 47.3333 275.233 46.9986C275.108 46.6638 274.925 46.4053 274.687 46.223C274.448 46.0407 274.158 45.9496 273.817 45.9496C273.469 45.9496 273.175 46.044 272.937 46.233C272.698 46.4219 272.517 46.6837 272.395 47.0185C272.272 47.3532 272.211 47.741 272.211 48.1818C272.211 48.6259 272.272 49.0187 272.395 49.3601C272.521 49.6982 272.701 49.9633 272.937 50.1555C273.175 50.3445 273.469 50.4389 273.817 50.4389ZM282.046 52.1243C281.466 52.1243 280.94 51.9751 280.47 51.6768C280.002 51.3752 279.631 50.9328 279.356 50.3494C279.084 49.7628 278.949 49.0436 278.949 48.1918C278.949 47.3168 279.089 46.5893 279.371 46.0092C279.653 45.4259 280.027 44.9901 280.495 44.7017C280.965 44.41 281.481 44.2642 282.041 44.2642C282.468 44.2642 282.825 44.3371 283.11 44.483C283.398 44.6255 283.63 44.8045 283.806 45.0199C283.985 45.232 284.121 45.4408 284.213 45.6463H284.278V41.8182H286.391V52H284.303V50.777H284.213C284.114 50.9891 283.973 51.1996 283.791 51.4084C283.612 51.6139 283.378 51.7846 283.09 51.9205C282.805 52.0563 282.457 52.1243 282.046 52.1243ZM282.717 50.4389C283.058 50.4389 283.347 50.3461 283.582 50.1605C283.821 49.9716 284.003 49.7081 284.129 49.37C284.258 49.032 284.323 48.6359 284.323 48.1818C284.323 47.7277 284.26 47.3333 284.134 46.9986C284.008 46.6638 283.826 46.4053 283.587 46.223C283.348 46.0407 283.058 45.9496 282.717 45.9496C282.369 45.9496 282.076 46.044 281.837 46.233C281.598 46.4219 281.418 46.6837 281.295 47.0185C281.172 47.3532 281.111 47.741 281.111 48.1818C281.111 48.6259 281.172 49.0187 281.295 49.3601C281.421 49.6982 281.602 49.9633 281.837 50.1555C282.076 50.3445 282.369 50.4389 282.717 50.4389ZM296.936 44.7464C296.896 44.3454 296.725 44.0339 296.424 43.8118C296.122 43.5897 295.713 43.4787 295.196 43.4787C294.844 43.4787 294.548 43.5284 294.306 43.6278C294.064 43.724 293.878 43.8582 293.749 44.0305C293.623 44.2029 293.56 44.3984 293.56 44.6172C293.553 44.7995 293.592 44.9586 293.674 45.0945C293.761 45.2304 293.878 45.348 294.027 45.4474C294.176 45.5436 294.349 45.6281 294.544 45.701C294.74 45.7706 294.949 45.8303 295.171 45.88L296.086 46.0987C296.53 46.1982 296.937 46.3307 297.309 46.4964C297.68 46.6622 298.001 46.866 298.273 47.108C298.545 47.3499 298.755 47.6349 298.904 47.9631C299.057 48.2912 299.135 48.6674 299.138 49.0916C299.135 49.7147 298.976 50.255 298.661 50.7124C298.349 51.1664 297.899 51.5194 297.309 51.7713C296.722 52.0199 296.014 52.1442 295.186 52.1442C294.364 52.1442 293.648 52.0182 293.038 51.7663C292.431 51.5144 291.958 51.1416 291.616 50.6477C291.278 50.1506 291.101 49.5357 291.084 48.8033H293.167C293.19 49.1446 293.288 49.4297 293.461 49.6584C293.636 49.8838 293.87 50.0545 294.162 50.1705C294.457 50.2831 294.79 50.3395 295.161 50.3395C295.525 50.3395 295.842 50.2865 296.11 50.1804C296.382 50.0743 296.593 49.9268 296.742 49.7379C296.891 49.549 296.966 49.3319 296.966 49.0866C296.966 48.858 296.898 48.6657 296.762 48.5099C296.629 48.3542 296.434 48.2216 296.175 48.1122C295.92 48.0028 295.607 47.9034 295.235 47.8139L294.127 47.5355C293.268 47.3267 292.591 47.0002 292.093 46.5561C291.596 46.112 291.349 45.5137 291.353 44.7614C291.349 44.1449 291.513 43.6063 291.845 43.1456C292.18 42.6849 292.639 42.3253 293.222 42.0668C293.805 41.8082 294.468 41.679 295.211 41.679C295.966 41.679 296.626 41.8082 297.189 42.0668C297.756 42.3253 298.197 42.6849 298.512 43.1456C298.827 43.6063 298.989 44.1399 298.999 44.7464H296.936ZM304.026 52.1491C303.241 52.1491 302.565 51.9901 301.998 51.6719C301.435 51.3504 301 50.8963 300.695 50.3097C300.391 49.7197 300.238 49.022 300.238 48.2166C300.238 47.4311 300.391 46.7417 300.695 46.1484C301 45.5552 301.43 45.0928 301.983 44.7614C302.54 44.4299 303.193 44.2642 303.942 44.2642C304.446 44.2642 304.915 44.3454 305.349 44.5078C305.786 44.6669 306.168 44.9072 306.492 45.2287C306.82 45.5502 307.076 45.9545 307.258 46.4418C307.44 46.9257 307.531 47.4924 307.531 48.142V48.7237H301.083V47.4112H305.538C305.538 47.1063 305.472 46.8362 305.339 46.6009C305.206 46.3655 305.022 46.1816 304.787 46.049C304.555 45.9131 304.285 45.8452 303.977 45.8452C303.655 45.8452 303.37 45.9197 303.122 46.0689C302.876 46.2147 302.684 46.4119 302.545 46.6605C302.406 46.9058 302.334 47.1792 302.331 47.4808V48.7287C302.331 49.1065 302.401 49.433 302.54 49.7081C302.682 49.9832 302.883 50.1953 303.142 50.3445C303.4 50.4936 303.707 50.5682 304.061 50.5682C304.297 50.5682 304.512 50.535 304.708 50.4688C304.903 50.4025 305.07 50.303 305.21 50.1705C305.349 50.0379 305.455 49.8755 305.528 49.6832L307.487 49.8125C307.387 50.2831 307.183 50.6941 306.875 51.0455C306.57 51.3935 306.176 51.6652 305.692 51.8608C305.211 52.053 304.656 52.1491 304.026 52.1491ZM308.914 52V44.3636H310.967V45.696H311.046C311.186 45.2221 311.419 44.8641 311.747 44.6222C312.075 44.3769 312.453 44.2543 312.881 44.2543C312.987 44.2543 313.101 44.2609 313.224 44.2741C313.347 44.2874 313.454 44.3056 313.547 44.3288V46.2081C313.448 46.1783 313.31 46.1518 313.134 46.1286C312.959 46.1054 312.798 46.0938 312.652 46.0938C312.341 46.0938 312.062 46.1617 311.817 46.2976C311.575 46.4302 311.383 46.6158 311.24 46.8544C311.101 47.093 311.031 47.3681 311.031 47.6797V52H308.914ZM321.994 44.3636L319.324 52H316.938L314.268 44.3636H316.505L318.091 49.8274H318.171L319.752 44.3636H321.994ZM323.078 52V44.3636H325.195V52H323.078ZM324.142 43.3793C323.827 43.3793 323.557 43.2749 323.331 43.0661C323.109 42.8539 322.998 42.6004 322.998 42.3054C322.998 42.0137 323.109 41.7635 323.331 41.5547C323.557 41.3426 323.827 41.2365 324.142 41.2365C324.456 41.2365 324.725 41.3426 324.947 41.5547C325.172 41.7635 325.285 42.0137 325.285 42.3054C325.285 42.6004 325.172 42.8539 324.947 43.0661C324.725 43.2749 324.456 43.3793 324.142 43.3793ZM330.342 52.1491C329.56 52.1491 328.887 51.9834 328.324 51.652C327.764 51.3172 327.333 50.8532 327.031 50.2599C326.733 49.6667 326.584 48.9839 326.584 48.2116C326.584 47.4295 326.735 46.7434 327.036 46.1534C327.341 45.5601 327.774 45.0978 328.334 44.7663C328.894 44.4316 329.56 44.2642 330.332 44.2642C330.999 44.2642 331.582 44.3852 332.082 44.6271C332.583 44.8691 332.979 45.2088 333.271 45.6463C333.562 46.0838 333.723 46.5975 333.753 47.1875H331.754C331.698 46.8063 331.549 46.4998 331.307 46.2678C331.068 46.0324 330.755 45.9148 330.367 45.9148C330.039 45.9148 329.752 46.0043 329.507 46.1832C329.265 46.3589 329.076 46.6158 328.94 46.9538C328.804 47.2919 328.737 47.7012 328.737 48.1818C328.737 48.669 328.803 49.0833 328.935 49.4247C329.071 49.7661 329.262 50.0263 329.507 50.2053C329.752 50.3842 330.039 50.4737 330.367 50.4737C330.609 50.4737 330.826 50.424 331.018 50.3246C331.214 50.2251 331.375 50.081 331.501 49.892C331.63 49.6998 331.714 49.4695 331.754 49.201H333.753C333.72 49.7843 333.561 50.2981 333.276 50.7422C332.994 51.183 332.604 51.5277 332.107 51.7763C331.61 52.0249 331.022 52.1491 330.342 52.1491ZM338.589 52.1491C337.803 52.1491 337.127 51.9901 336.561 51.6719C335.997 51.3504 335.563 50.8963 335.258 50.3097C334.953 49.7197 334.801 49.022 334.801 48.2166C334.801 47.4311 334.953 46.7417 335.258 46.1484C335.563 45.5552 335.992 45.0928 336.546 44.7614C337.102 44.4299 337.755 44.2642 338.504 44.2642C339.008 44.2642 339.477 44.3454 339.911 44.5078C340.349 44.6669 340.73 44.9072 341.055 45.2287C341.383 45.5502 341.638 45.9545 341.82 46.4418C342.003 46.9257 342.094 47.4924 342.094 48.142V48.7237H335.646V47.4112H340.1C340.1 47.1063 340.034 46.8362 339.901 46.6009C339.769 46.3655 339.585 46.1816 339.35 46.049C339.118 45.9131 338.847 45.8452 338.539 45.8452C338.218 45.8452 337.933 45.9197 337.684 46.0689C337.439 46.2147 337.247 46.4119 337.107 46.6605C336.968 46.9058 336.897 47.1792 336.894 47.4808V48.7287C336.894 49.1065 336.963 49.433 337.102 49.7081C337.245 49.9832 337.445 50.1953 337.704 50.3445C337.963 50.4936 338.269 50.5682 338.624 50.5682C338.859 50.5682 339.075 50.535 339.27 50.4688C339.466 50.4025 339.633 50.303 339.772 50.1705C339.911 50.0379 340.017 49.8755 340.09 49.6832L342.049 49.8125C341.95 50.2831 341.746 50.6941 341.438 51.0455C341.133 51.3935 340.738 51.6652 340.254 51.8608C339.774 52.053 339.219 52.1491 338.589 52.1491Z" fill="#7E2EBC"/>
<path d="M0.568182 6.39205V4.36364H10.125V6.39205H6.5625V16H4.13068V6.39205H0.568182ZM12.7945 16.1648C12.2377 16.1648 11.7415 16.0682 11.3059 15.875C10.8703 15.678 10.5256 15.3883 10.2718 15.0057C10.0218 14.6193 9.89682 14.1383 9.89682 13.5625C9.89682 13.0777 9.98583 12.6705 10.1639 12.3409C10.3419 12.0114 10.5843 11.7462 10.8911 11.5455C11.198 11.3447 11.5464 11.1932 11.9366 11.0909C12.3305 10.9886 12.7434 10.9167 13.1752 10.875C13.6828 10.822 14.0919 10.7727 14.4025 10.7273C14.7131 10.678 14.9385 10.6061 15.0786 10.5114C15.2188 10.4167 15.2889 10.2765 15.2889 10.0909V10.0568C15.2889 9.69697 15.1752 9.41856 14.948 9.22159C14.7245 9.02462 14.4063 8.92614 13.9934 8.92614C13.5578 8.92614 13.2112 9.02273 12.9536 9.21591C12.6961 9.4053 12.5256 9.64394 12.4423 9.93182L10.2036 9.75C10.3173 9.2197 10.5408 8.76136 10.8741 8.375C11.2074 7.98485 11.6373 7.68561 12.1639 7.47727C12.6942 7.26515 13.3078 7.15909 14.0048 7.15909C14.4896 7.15909 14.9536 7.21591 15.3968 7.32955C15.8438 7.44318 16.2396 7.61932 16.5843 7.85795C16.9328 8.09659 17.2074 8.40341 17.4082 8.77841C17.6089 9.14962 17.7093 9.5947 17.7093 10.1136V16H15.4139V14.7898H15.3457C15.2055 15.0625 15.018 15.303 14.7832 15.5114C14.5483 15.7159 14.2661 15.8769 13.9366 15.9943C13.607 16.108 13.2264 16.1648 12.7945 16.1648ZM13.4877 14.4943C13.8438 14.4943 14.1582 14.4242 14.4309 14.2841C14.7036 14.1402 14.9177 13.947 15.073 13.7045C15.2283 13.4621 15.3059 13.1875 15.3059 12.8807V11.9545C15.2302 12.0038 15.126 12.0492 14.9934 12.0909C14.8646 12.1288 14.7188 12.1648 14.5559 12.1989C14.393 12.2292 14.2302 12.2576 14.0673 12.2841C13.9044 12.3068 13.7567 12.3277 13.6241 12.3466C13.34 12.3883 13.0919 12.4545 12.8798 12.5455C12.6677 12.6364 12.5029 12.7595 12.3855 12.9148C12.268 13.0663 12.2093 13.2557 12.2093 13.483C12.2093 13.8125 12.3286 14.0644 12.5673 14.2386C12.8097 14.4091 13.1165 14.4943 13.4877 14.4943ZM19.4272 19.2727V7.27273H21.8135V8.73864H21.9215C22.0275 8.50379 22.1809 8.26515 22.3817 8.02273C22.5863 7.77652 22.8514 7.57197 23.1772 7.40909C23.5067 7.24242 23.9158 7.15909 24.4044 7.15909C25.0408 7.15909 25.6279 7.32576 26.1658 7.65909C26.7037 7.98864 27.1336 8.48674 27.4556 9.15341C27.7775 9.81629 27.9385 10.6477 27.9385 11.6477C27.9385 12.6212 27.7813 13.4432 27.4669 14.1136C27.1563 14.7803 26.7321 15.286 26.1942 15.6307C25.6601 15.9716 25.0616 16.142 24.3988 16.142C23.9291 16.142 23.5294 16.0644 23.1999 15.9091C22.8741 15.7538 22.6071 15.5587 22.3988 15.3239C22.1904 15.0852 22.0313 14.8447 21.9215 14.6023H21.8476V19.2727H19.4272ZM21.7965 11.6364C21.7965 12.1553 21.8684 12.608 22.0124 12.9943C22.1563 13.3807 22.3647 13.6818 22.6374 13.8977C22.9101 14.1098 23.2416 14.2159 23.6317 14.2159C24.0256 14.2159 24.359 14.108 24.6317 13.892C24.9044 13.6723 25.1109 13.3693 25.251 12.983C25.395 12.5928 25.4669 12.1439 25.4669 11.6364C25.4669 11.1326 25.3969 10.6894 25.2567 10.3068C25.1166 9.92424 24.9101 9.625 24.6374 9.40909C24.3647 9.19318 24.0294 9.08523 23.6317 9.08523C23.2378 9.08523 22.9044 9.18939 22.6317 9.39773C22.3628 9.60606 22.1563 9.90151 22.0124 10.2841C21.8684 10.6667 21.7965 11.1174 21.7965 11.6364ZM37.5773 7.27273V9.09091H32.3216V7.27273H37.5773ZM33.5148 5.18182H35.9353V13.3182C35.9353 13.5417 35.9694 13.7159 36.0376 13.8409C36.1057 13.9621 36.2004 14.0473 36.3216 14.0966C36.4466 14.1458 36.5906 14.1705 36.7535 14.1705C36.8671 14.1705 36.9807 14.161 37.0944 14.142C37.208 14.1193 37.2951 14.1023 37.3557 14.0909L37.7364 15.892C37.6152 15.9299 37.4448 15.9735 37.2251 16.0227C37.0054 16.0758 36.7383 16.108 36.4239 16.1193C35.8406 16.142 35.3292 16.0644 34.8898 15.8864C34.4542 15.7083 34.1152 15.4318 33.8728 15.0568C33.6304 14.6818 33.511 14.2083 33.5148 13.6364V5.18182ZM42.8435 16.1705C41.9609 16.1705 41.1976 15.983 40.5537 15.608C39.9135 15.2292 39.4192 14.7027 39.0707 14.0284C38.7223 13.3504 38.548 12.5644 38.548 11.6705C38.548 10.7689 38.7223 9.98106 39.0707 9.30682C39.4192 8.62879 39.9135 8.10227 40.5537 7.72727C41.1976 7.34848 41.9609 7.15909 42.8435 7.15909C43.726 7.15909 44.4874 7.34848 45.1276 7.72727C45.7715 8.10227 46.2677 8.62879 46.6162 9.30682C46.9647 9.98106 47.1389 10.7689 47.1389 11.6705C47.1389 12.5644 46.9647 13.3504 46.6162 14.0284C46.2677 14.7027 45.7715 15.2292 45.1276 15.608C44.4874 15.983 43.726 16.1705 42.8435 16.1705ZM42.8548 14.2955C43.2563 14.2955 43.5916 14.1818 43.8605 13.9545C44.1295 13.7235 44.3321 13.4091 44.4685 13.0114C44.6086 12.6136 44.6787 12.161 44.6787 11.6534C44.6787 11.1458 44.6086 10.6932 44.4685 10.2955C44.3321 9.89773 44.1295 9.58333 43.8605 9.35227C43.5916 9.12121 43.2563 9.00568 42.8548 9.00568C42.4495 9.00568 42.1086 9.12121 41.8321 9.35227C41.5594 9.58333 41.3529 9.89773 41.2128 10.2955C41.0764 10.6932 41.0082 11.1458 41.0082 11.6534C41.0082 12.161 41.0764 12.6136 41.2128 13.0114C41.3529 13.4091 41.5594 13.7235 41.8321 13.9545C42.1086 14.1818 42.4495 14.2955 42.8548 14.2955ZM56.0391 16.1705C55.1565 16.1705 54.3933 15.983 53.7493 15.608C53.1092 15.2292 52.6148 14.7027 52.2664 14.0284C51.9179 13.3504 51.7436 12.5644 51.7436 11.6705C51.7436 10.7689 51.9179 9.98106 52.2664 9.30682C52.6148 8.62879 53.1092 8.10227 53.7493 7.72727C54.3933 7.34848 55.1565 7.15909 56.0391 7.15909C56.9217 7.15909 57.683 7.34848 58.3232 7.72727C58.9671 8.10227 59.4633 8.62879 59.8118 9.30682C60.1603 9.98106 60.3345 10.7689 60.3345 11.6705C60.3345 12.5644 60.1603 13.3504 59.8118 14.0284C59.4633 14.7027 58.9671 15.2292 58.3232 15.608C57.683 15.983 56.9217 16.1705 56.0391 16.1705ZM56.0505 14.2955C56.452 14.2955 56.7872 14.1818 57.0561 13.9545C57.3251 13.7235 57.5277 13.4091 57.6641 13.0114C57.8042 12.6136 57.8743 12.161 57.8743 11.6534C57.8743 11.1458 57.8042 10.6932 57.6641 10.2955C57.5277 9.89773 57.3251 9.58333 57.0561 9.35227C56.7872 9.12121 56.452 9.00568 56.0505 9.00568C55.6452 9.00568 55.3042 9.12121 55.0277 9.35227C54.755 9.58333 54.5486 9.89773 54.4084 10.2955C54.272 10.6932 54.2039 11.1458 54.2039 11.6534C54.2039 12.161 54.272 12.6136 54.4084 13.0114C54.5486 13.4091 54.755 13.7235 55.0277 13.9545C55.3042 14.1818 55.6452 14.2955 56.0505 14.2955ZM61.7484 19.2727V7.27273H64.1348V8.73864H64.2427C64.3488 8.50379 64.5022 8.26515 64.703 8.02273C64.9075 7.77652 65.1727 7.57197 65.4984 7.40909C65.828 7.24242 66.237 7.15909 66.7257 7.15909C67.362 7.15909 67.9492 7.32576 68.487 7.65909C69.0249 7.98864 69.4548 8.48674 69.7768 9.15341C70.0988 9.81629 70.2598 10.6477 70.2598 11.6477C70.2598 12.6212 70.1026 13.4432 69.7882 14.1136C69.4776 14.7803 69.0533 15.286 68.5155 15.6307C67.9814 15.9716 67.3829 16.142 66.72 16.142C66.2503 16.142 65.8507 16.0644 65.5211 15.9091C65.1954 15.7538 64.9283 15.5587 64.72 15.3239C64.5117 15.0852 64.3526 14.8447 64.2427 14.6023H64.1689V19.2727H61.7484ZM64.1177 11.6364C64.1177 12.1553 64.1897 12.608 64.3336 12.9943C64.4776 13.3807 64.6859 13.6818 64.9586 13.8977C65.2314 14.1098 65.5628 14.2159 65.953 14.2159C66.3469 14.2159 66.6802 14.108 66.953 13.892C67.2257 13.6723 67.4321 13.3693 67.5723 12.983C67.7162 12.5928 67.7882 12.1439 67.7882 11.6364C67.7882 11.1326 67.7181 10.6894 67.578 10.3068C67.4378 9.92424 67.2314 9.625 66.9586 9.40909C66.6859 9.19318 66.3507 9.08523 65.953 9.08523C65.559 9.08523 65.2257 9.18939 64.953 9.39773C64.684 9.60606 64.4776 9.90151 64.3336 10.2841C64.1897 10.6667 64.1177 11.1174 64.1177 11.6364ZM75.6907 16.1705C74.793 16.1705 74.0202 15.9886 73.3725 15.625C72.7286 15.2576 72.2323 14.7386 71.8839 14.0682C71.5354 13.3939 71.3611 12.5966 71.3611 11.6761C71.3611 10.7784 71.5354 9.99053 71.8839 9.3125C72.2323 8.63447 72.7229 8.10606 73.3555 7.72727C73.9918 7.34848 74.738 7.15909 75.5941 7.15909C76.1698 7.15909 76.7058 7.25189 77.202 7.4375C77.702 7.61932 78.1376 7.89394 78.5089 8.26136C78.8839 8.62879 79.1755 9.09091 79.3839 9.64773C79.5922 10.2008 79.6964 10.8485 79.6964 11.5909V12.2557H72.327V10.7557H77.418C77.418 10.4072 77.3422 10.0985 77.1907 9.82955C77.0392 9.56061 76.8289 9.35038 76.56 9.19886C76.2948 9.04356 75.9861 8.96591 75.6339 8.96591C75.2664 8.96591 74.9407 9.05114 74.6566 9.22159C74.3763 9.38826 74.1566 9.61364 73.9975 9.89773C73.8384 10.178 73.757 10.4905 73.7532 10.8352V12.2614C73.7532 12.6932 73.8327 13.0663 73.9918 13.3807C74.1547 13.6951 74.3839 13.9375 74.6793 14.108C74.9748 14.2784 75.3251 14.3636 75.7305 14.3636C75.9994 14.3636 76.2456 14.3258 76.4691 14.25C76.6926 14.1742 76.8839 14.0606 77.043 13.9091C77.202 13.7576 77.3233 13.572 77.4066 13.3523L79.6452 13.5C79.5316 14.0379 79.2986 14.5076 78.9464 14.9091C78.5979 15.3068 78.1471 15.6174 77.5941 15.8409C77.0448 16.0606 76.4104 16.1705 75.6907 16.1705ZM83.5364 10.9545V16H81.1159V7.27273H83.4227V8.8125H83.525C83.7182 8.30492 84.042 7.90341 84.4966 7.60795C84.9511 7.30871 85.5023 7.15909 86.15 7.15909C86.7561 7.15909 87.2845 7.29167 87.7352 7.55682C88.186 7.82197 88.5364 8.20076 88.7864 8.69318C89.0364 9.18182 89.1614 9.76515 89.1614 10.4432V16H86.7409V10.875C86.7447 10.3409 86.6083 9.92424 86.3318 9.625C86.0553 9.32197 85.6746 9.17045 85.1898 9.17045C84.864 9.17045 84.5761 9.24053 84.3261 9.38068C84.0799 9.52083 83.8867 9.72538 83.7466 9.99432C83.6102 10.2595 83.5402 10.5795 83.5364 10.9545ZM100.81 7.71023C100.765 7.25189 100.57 6.89583 100.225 6.64205C99.8802 6.38826 99.4124 6.26136 98.8215 6.26136C98.42 6.26136 98.0809 6.31818 97.8044 6.43182C97.5279 6.54167 97.3158 6.69508 97.1681 6.89205C97.0241 7.08902 96.9522 7.3125 96.9522 7.5625C96.9446 7.77083 96.9881 7.95265 97.0828 8.10795C97.1813 8.26326 97.3158 8.39773 97.4863 8.51136C97.6567 8.62121 97.8537 8.7178 98.0772 8.80114C98.3006 8.88068 98.5393 8.94886 98.7931 9.00568L99.8385 9.25568C100.346 9.36932 100.812 9.52083 101.236 9.71023C101.66 9.89962 102.028 10.1326 102.339 10.4091C102.649 10.6856 102.89 11.0114 103.06 11.3864C103.234 11.7614 103.323 12.1913 103.327 12.6761C103.323 13.3883 103.142 14.0057 102.782 14.5284C102.426 15.0473 101.91 15.4508 101.236 15.7386C100.566 16.0227 99.7571 16.1648 98.8101 16.1648C97.8707 16.1648 97.0525 16.0208 96.3556 15.733C95.6624 15.4451 95.1207 15.0189 94.7306 14.4545C94.3442 13.8864 94.1416 13.1837 94.1226 12.3466H96.5033C96.5298 12.7367 96.6416 13.0625 96.8385 13.3239C97.0393 13.5814 97.3063 13.7765 97.6397 13.9091C97.9768 14.0379 98.3575 14.1023 98.7817 14.1023C99.1984 14.1023 99.5601 14.0417 99.8669 13.9205C100.178 13.7992 100.418 13.6307 100.589 13.4148C100.759 13.1989 100.844 12.9508 100.844 12.6705C100.844 12.4091 100.767 12.1894 100.611 12.0114C100.46 11.8333 100.236 11.6818 99.9408 11.5568C99.6491 11.4318 99.2912 11.3182 98.8669 11.2159L97.5999 10.8977C96.6188 10.6591 95.8442 10.286 95.276 9.77841C94.7078 9.27083 94.4256 8.58712 94.4294 7.72727C94.4256 7.02273 94.6131 6.4072 94.9919 5.88068C95.3745 5.35417 95.8991 4.94318 96.5658 4.64773C97.2325 4.35227 97.99 4.20455 98.8385 4.20455C99.7022 4.20455 100.456 4.35227 101.1 4.64773C101.748 4.94318 102.251 5.35417 102.611 5.88068C102.971 6.4072 103.157 7.01705 103.168 7.71023H100.81ZM108.754 16.1705C107.856 16.1705 107.083 15.9886 106.436 15.625C105.792 15.2576 105.295 14.7386 104.947 14.0682C104.599 13.3939 104.424 12.5966 104.424 11.6761C104.424 10.7784 104.599 9.99053 104.947 9.3125C105.295 8.63447 105.786 8.10606 106.419 7.72727C107.055 7.34848 107.801 7.15909 108.657 7.15909C109.233 7.15909 109.769 7.25189 110.265 7.4375C110.765 7.61932 111.201 7.89394 111.572 8.26136C111.947 8.62879 112.239 9.09091 112.447 9.64773C112.655 10.2008 112.759 10.8485 112.759 11.5909V12.2557H105.39V10.7557H110.481C110.481 10.4072 110.405 10.0985 110.254 9.82955C110.102 9.56061 109.892 9.35038 109.623 9.19886C109.358 9.04356 109.049 8.96591 108.697 8.96591C108.33 8.96591 108.004 9.05114 107.72 9.22159C107.439 9.38826 107.22 9.61364 107.061 9.89773C106.902 10.178 106.82 10.4905 106.816 10.8352V12.2614C106.816 12.6932 106.896 13.0663 107.055 13.3807C107.218 13.6951 107.447 13.9375 107.742 14.108C108.038 14.2784 108.388 14.3636 108.794 14.3636C109.063 14.3636 109.309 14.3258 109.532 14.25C109.756 14.1742 109.947 14.0606 110.106 13.9091C110.265 13.7576 110.386 13.572 110.47 13.3523L112.708 13.5C112.595 14.0379 112.362 14.5076 112.009 14.9091C111.661 15.3068 111.21 15.6174 110.657 15.8409C110.108 16.0606 109.474 16.1705 108.754 16.1705ZM114.179 16V7.27273H116.526V8.79545H116.617C116.776 8.25379 117.043 7.8447 117.418 7.56818C117.793 7.28788 118.224 7.14773 118.713 7.14773C118.834 7.14773 118.965 7.1553 119.105 7.17045C119.245 7.18561 119.368 7.20644 119.474 7.23295V9.38068C119.361 9.34659 119.204 9.31629 119.003 9.28977C118.802 9.26326 118.618 9.25 118.452 9.25C118.096 9.25 117.778 9.32765 117.497 9.48295C117.221 9.63447 117.001 9.84659 116.838 10.1193C116.679 10.392 116.599 10.7064 116.599 11.0625V16H114.179ZM128.968 7.27273L125.917 16H123.189L120.138 7.27273H122.695L124.508 13.517H124.599L126.405 7.27273H128.968ZM130.047 16V7.27273H132.467V16H130.047ZM131.262 6.14773C130.903 6.14773 130.594 6.02841 130.336 5.78977C130.083 5.54735 129.956 5.25758 129.956 4.92045C129.956 4.58712 130.083 4.30114 130.336 4.0625C130.594 3.82008 130.903 3.69886 131.262 3.69886C131.622 3.69886 131.929 3.82008 132.183 4.0625C132.44 4.30114 132.569 4.58712 132.569 4.92045C132.569 5.25758 132.44 5.54735 132.183 5.78977C131.929 6.02841 131.622 6.14773 131.262 6.14773ZM138.189 16.1705C137.295 16.1705 136.526 15.9811 135.882 15.6023C135.242 15.2197 134.75 14.6894 134.405 14.0114C134.064 13.3333 133.894 12.553 133.894 11.6705C133.894 10.7765 134.066 9.99242 134.411 9.31818C134.759 8.64015 135.253 8.11174 135.894 7.73295C136.534 7.35038 137.295 7.15909 138.178 7.15909C138.939 7.15909 139.606 7.29735 140.178 7.57386C140.75 7.85038 141.202 8.23864 141.536 8.73864C141.869 9.23864 142.053 9.82576 142.087 10.5H139.803C139.738 10.0644 139.568 9.71401 139.291 9.44886C139.019 9.17992 138.661 9.04545 138.217 9.04545C137.842 9.04545 137.515 9.14773 137.235 9.35227C136.958 9.55303 136.742 9.84659 136.587 10.233C136.432 10.6193 136.354 11.0871 136.354 11.6364C136.354 12.1932 136.43 12.6667 136.581 13.0568C136.736 13.447 136.954 13.7443 137.235 13.9489C137.515 14.1534 137.842 14.2557 138.217 14.2557C138.494 14.2557 138.742 14.1989 138.962 14.0852C139.185 13.9716 139.369 13.8068 139.513 13.5909C139.661 13.3712 139.757 13.108 139.803 12.8011H142.087C142.049 13.4678 141.867 14.0549 141.541 14.5625C141.219 15.0663 140.774 15.4602 140.206 15.7443C139.638 16.0284 138.966 16.1705 138.189 16.1705ZM147.454 16.1705C146.556 16.1705 145.783 15.9886 145.136 15.625C144.492 15.2576 143.995 14.7386 143.647 14.0682C143.298 13.3939 143.124 12.5966 143.124 11.6761C143.124 10.7784 143.298 9.99053 143.647 9.3125C143.995 8.63447 144.486 8.10606 145.119 7.72727C145.755 7.34848 146.501 7.15909 147.357 7.15909C147.933 7.15909 148.469 7.25189 148.965 7.4375C149.465 7.61932 149.901 7.89394 150.272 8.26136C150.647 8.62879 150.939 9.09091 151.147 9.64773C151.355 10.2008 151.459 10.8485 151.459 11.5909V12.2557H144.09V10.7557H149.181C149.181 10.4072 149.105 10.0985 148.954 9.82955C148.802 9.56061 148.592 9.35038 148.323 9.19886C148.058 9.04356 147.749 8.96591 147.397 8.96591C147.03 8.96591 146.704 9.05114 146.42 9.22159C146.139 9.38826 145.92 9.61364 145.761 9.89773C145.602 10.178 145.52 10.4905 145.516 10.8352V12.2614C145.516 12.6932 145.596 13.0663 145.755 13.3807C145.918 13.6951 146.147 13.9375 146.442 14.108C146.738 14.2784 147.088 14.3636 147.494 14.3636C147.763 14.3636 148.009 14.3258 148.232 14.25C148.456 14.1742 148.647 14.0606 148.806 13.9091C148.965 13.7576 149.086 13.572 149.17 13.3523L151.408 13.5C151.295 14.0379 151.062 14.5076 150.709 14.9091C150.361 15.3068 149.91 15.6174 149.357 15.8409C148.808 16.0606 148.173 16.1705 147.454 16.1705ZM158.843 4.36364V16H156.422V4.36364H158.843ZM160.622 16V7.27273H163.042V16H160.622ZM161.837 6.14773C161.478 6.14773 161.169 6.02841 160.911 5.78977C160.658 5.54735 160.531 5.25758 160.531 4.92045C160.531 4.58712 160.658 4.30114 160.911 4.0625C161.169 3.82008 161.478 3.69886 161.837 3.69886C162.197 3.69886 162.504 3.82008 162.758 4.0625C163.015 4.30114 163.144 4.58712 163.144 4.92045C163.144 5.25758 163.015 5.54735 162.758 5.78977C162.504 6.02841 162.197 6.14773 161.837 6.14773ZM172.082 9.76136L169.866 9.89773C169.828 9.70833 169.747 9.53788 169.622 9.38636C169.497 9.23106 169.332 9.10795 169.128 9.01705C168.927 8.92235 168.686 8.875 168.406 8.875C168.031 8.875 167.715 8.95455 167.457 9.11364C167.2 9.26894 167.071 9.47727 167.071 9.73864C167.071 9.94697 167.154 10.1231 167.321 10.267C167.488 10.411 167.774 10.5265 168.179 10.6136L169.758 10.9318C170.607 11.1061 171.239 11.3864 171.656 11.7727C172.073 12.1591 172.281 12.6667 172.281 13.2955C172.281 13.8674 172.113 14.3693 171.775 14.8011C171.442 15.233 170.984 15.5701 170.4 15.8125C169.821 16.0511 169.152 16.1705 168.395 16.1705C167.239 16.1705 166.319 15.9299 165.633 15.4489C164.952 14.964 164.552 14.3049 164.435 13.4716L166.815 13.3466C166.887 13.6989 167.061 13.9678 167.338 14.1534C167.614 14.3352 167.969 14.4261 168.4 14.4261C168.825 14.4261 169.166 14.3447 169.423 14.1818C169.685 14.0152 169.817 13.8011 169.821 13.5398C169.817 13.3201 169.724 13.1402 169.542 13C169.361 12.8561 169.08 12.7462 168.702 12.6705L167.19 12.3693C166.338 12.1989 165.703 11.9034 165.287 11.483C164.874 11.0625 164.667 10.5265 164.667 9.875C164.667 9.31439 164.819 8.83144 165.122 8.42614C165.429 8.02083 165.859 7.70833 166.412 7.48864C166.969 7.26894 167.62 7.15909 168.366 7.15909C169.469 7.15909 170.336 7.39205 170.969 7.85795C171.605 8.32386 171.976 8.95833 172.082 9.76136ZM178.287 7.27273V9.09091H173.032V7.27273H178.287ZM174.225 5.18182H176.645V13.3182C176.645 13.5417 176.679 13.7159 176.748 13.8409C176.816 13.9621 176.91 14.0473 177.032 14.0966C177.157 14.1458 177.301 14.1705 177.463 14.1705C177.577 14.1705 177.691 14.161 177.804 14.142C177.918 14.1193 178.005 14.1023 178.066 14.0909L178.446 15.892C178.325 15.9299 178.155 15.9735 177.935 16.0227C177.715 16.0758 177.448 16.108 177.134 16.1193C176.551 16.142 176.039 16.0644 175.6 15.8864C175.164 15.7083 174.825 15.4318 174.583 15.0568C174.34 14.6818 174.221 14.2083 174.225 13.6364V5.18182Z" fill="white"/>
<path d="M189.471 10.146C189.056 10.4844 188.976 11.141 189.294 11.6126C189.611 12.0843 190.205 12.1923 190.62 11.8539L189.471 10.146ZM256.999 22.1779L254.406 10.3082L246.51 18.4317L256.999 22.1779ZM190.62 11.8539C203.753 1.15447 230.623 -4.23675 250.487 15.919L251.74 14.3865C231.013 -6.64491 203.106 -0.961987 189.471 10.146L190.62 11.8539Z" fill="white"/>
</svg>
