<svg width="358" height="67" viewBox="0 0 358 67" fill="none" xmlns="http://www.w3.org/2000/svg">
<rect x="228" y="27" width="130" height="40" rx="8" fill="white"/>
<path d="M246 42.3334V51.6665M241.333 46.9999H250.667" stroke="#7E2EBC" stroke-width="1.67" stroke-linecap="round" stroke-linejoin="round"/>
<path d="M260.915 52H258.608L262.123 41.8182H264.898L268.407 52H266.101L263.55 44.1449H263.471L260.915 52ZM260.771 47.9979H266.22V49.6783H260.771V47.9979ZM272.052 52.1243C271.472 52.1243 270.946 51.9751 270.476 51.6768C270.008 51.3752 269.637 50.9328 269.362 50.3494C269.09 49.7628 268.954 49.0436 268.954 48.1918C268.954 47.3168 269.095 46.5893 269.377 46.0092C269.659 45.4259 270.033 44.9901 270.501 44.7017C270.971 44.41 271.487 44.2642 272.047 44.2642C272.474 44.2642 272.831 44.3371 273.116 44.483C273.404 44.6255 273.636 44.8045 273.812 45.0199C273.991 45.232 274.126 45.4408 274.219 45.6463H274.284V41.8182H276.397V52H274.309V50.777H274.219C274.12 50.9891 273.979 51.1996 273.797 51.4084C273.618 51.6139 273.384 51.7846 273.096 51.9205C272.811 52.0563 272.463 52.1243 272.052 52.1243ZM272.723 50.4389C273.064 50.4389 273.353 50.3461 273.588 50.1605C273.827 49.9716 274.009 49.7081 274.135 49.37C274.264 49.032 274.329 48.6359 274.329 48.1818C274.329 47.7277 274.266 47.3333 274.14 46.9986C274.014 46.6638 273.831 46.4053 273.593 46.223C273.354 46.0407 273.064 45.9496 272.723 45.9496C272.375 45.9496 272.081 46.044 271.843 46.233C271.604 46.4219 271.424 46.6837 271.301 47.0185C271.178 47.3532 271.117 47.741 271.117 48.1818C271.117 48.6259 271.178 49.0187 271.301 49.3601C271.427 49.6982 271.608 49.9633 271.843 50.1555C272.081 50.3445 272.375 50.4389 272.723 50.4389ZM280.952 52.1243C280.372 52.1243 279.847 51.9751 279.376 51.6768C278.909 51.3752 278.538 50.9328 278.262 50.3494C277.991 49.7628 277.855 49.0436 277.855 48.1918C277.855 47.3168 277.996 46.5893 278.277 46.0092C278.559 45.4259 278.934 44.9901 279.401 44.7017C279.872 44.41 280.387 44.2642 280.947 44.2642C281.375 44.2642 281.731 44.3371 282.016 44.483C282.304 44.6255 282.536 44.8045 282.712 45.0199C282.891 45.232 283.027 45.4408 283.12 45.6463H283.184V41.8182H285.297V52H283.209V50.777H283.12C283.02 50.9891 282.879 51.1996 282.697 51.4084C282.518 51.6139 282.284 51.7846 281.996 51.9205C281.711 52.0563 281.363 52.1243 280.952 52.1243ZM281.623 50.4389C281.965 50.4389 282.253 50.3461 282.488 50.1605C282.727 49.9716 282.909 49.7081 283.035 49.37C283.164 49.032 283.229 48.6359 283.229 48.1818C283.229 47.7277 283.166 47.3333 283.04 46.9986C282.914 46.6638 282.732 46.4053 282.493 46.223C282.255 46.0407 281.965 45.9496 281.623 45.9496C281.275 45.9496 280.982 46.044 280.743 46.233C280.505 46.4219 280.324 46.6837 280.201 47.0185C280.079 47.3532 280.017 47.741 280.017 48.1818C280.017 48.6259 280.079 49.0187 280.201 49.3601C280.327 49.6982 280.508 49.9633 280.743 50.1555C280.982 50.3445 281.275 50.4389 281.623 50.4389ZM290.319 52V41.8182H294.336C295.108 41.8182 295.766 41.9657 296.309 42.2607C296.853 42.5523 297.267 42.9583 297.552 43.4787C297.841 43.9957 297.985 44.5923 297.985 45.2685C297.985 45.9446 297.839 46.5412 297.547 47.0582C297.256 47.5753 296.833 47.978 296.279 48.2663C295.729 48.5547 295.063 48.6989 294.281 48.6989H291.721V46.9737H293.933C294.347 46.9737 294.689 46.9025 294.957 46.7599C295.229 46.6141 295.431 46.4136 295.564 46.1584C295.699 45.8999 295.767 45.6032 295.767 45.2685C295.767 44.9304 295.699 44.6354 295.564 44.3835C295.431 44.1283 295.229 43.9311 294.957 43.7919C294.685 43.6494 294.341 43.5781 293.923 43.5781H292.471V52H290.319ZM299.343 52V44.3636H301.396V45.696H301.476C301.615 45.2221 301.849 44.8641 302.177 44.6222C302.505 44.3769 302.883 44.2543 303.311 44.2543C303.417 44.2543 303.531 44.2609 303.654 44.2741C303.776 44.2874 303.884 44.3056 303.977 44.3288V46.2081C303.877 46.1783 303.74 46.1518 303.564 46.1286C303.388 46.1054 303.228 46.0938 303.082 46.0938C302.77 46.0938 302.492 46.1617 302.247 46.2976C302.005 46.4302 301.812 46.6158 301.67 46.8544C301.531 47.093 301.461 47.3681 301.461 47.6797V52H299.343ZM308.167 52.1491C307.394 52.1491 306.726 51.9851 306.163 51.657C305.603 51.3255 305.17 50.8648 304.865 50.2749C304.56 49.6816 304.408 48.9938 304.408 48.2116C304.408 47.4228 304.56 46.7334 304.865 46.1435C305.17 45.5502 305.603 45.0895 306.163 44.7614C306.726 44.4299 307.394 44.2642 308.167 44.2642C308.939 44.2642 309.605 44.4299 310.165 44.7614C310.729 45.0895 311.163 45.5502 311.468 46.1435C311.773 46.7334 311.925 47.4228 311.925 48.2116C311.925 48.9938 311.773 49.6816 311.468 50.2749C311.163 50.8648 310.729 51.3255 310.165 51.657C309.605 51.9851 308.939 52.1491 308.167 52.1491ZM308.176 50.5085C308.528 50.5085 308.821 50.4091 309.056 50.2102C309.292 50.008 309.469 49.733 309.588 49.3849C309.711 49.0369 309.772 48.6409 309.772 48.1967C309.772 47.7526 309.711 47.3565 309.588 47.0085C309.469 46.6605 309.292 46.3854 309.056 46.1832C308.821 45.9811 308.528 45.88 308.176 45.88C307.822 45.88 307.524 45.9811 307.282 46.1832C307.043 46.3854 306.862 46.6605 306.74 47.0085C306.62 47.3565 306.561 47.7526 306.561 48.1967C306.561 48.6409 306.62 49.0369 306.74 49.3849C306.862 49.733 307.043 50.008 307.282 50.2102C307.524 50.4091 307.822 50.5085 308.176 50.5085ZM316.116 52.1243C315.536 52.1243 315.011 51.9751 314.54 51.6768C314.073 51.3752 313.702 50.9328 313.426 50.3494C313.155 49.7628 313.019 49.0436 313.019 48.1918C313.019 47.3168 313.16 46.5893 313.441 46.0092C313.723 45.4259 314.098 44.9901 314.565 44.7017C315.036 44.41 315.551 44.2642 316.111 44.2642C316.539 44.2642 316.895 44.3371 317.18 44.483C317.468 44.6255 317.7 44.8045 317.876 45.0199C318.055 45.232 318.191 45.4408 318.284 45.6463H318.348V41.8182H320.461V52H318.373V50.777H318.284C318.184 50.9891 318.043 51.1996 317.861 51.4084C317.682 51.6139 317.449 51.7846 317.16 51.9205C316.875 52.0563 316.527 52.1243 316.116 52.1243ZM316.787 50.4389C317.129 50.4389 317.417 50.3461 317.652 50.1605C317.891 49.9716 318.073 49.7081 318.199 49.37C318.328 49.032 318.393 48.6359 318.393 48.1818C318.393 47.7277 318.33 47.3333 318.204 46.9986C318.078 46.6638 317.896 46.4053 317.657 46.223C317.419 46.0407 317.129 45.9496 316.787 45.9496C316.439 45.9496 316.146 46.044 315.907 46.233C315.669 46.4219 315.488 46.6837 315.365 47.0185C315.243 47.3532 315.181 47.741 315.181 48.1818C315.181 48.6259 315.243 49.0187 315.365 49.3601C315.491 49.6982 315.672 49.9633 315.907 50.1555C316.146 50.3445 316.439 50.4389 316.787 50.4389ZM327.1 48.7486V44.3636H329.218V52H327.184V50.6129H327.105C326.932 51.0604 326.646 51.42 326.244 51.6918C325.847 51.9635 325.361 52.0994 324.788 52.0994C324.277 52.0994 323.828 51.9834 323.441 51.7514C323.053 51.5194 322.749 51.1896 322.531 50.7621C322.315 50.3345 322.206 49.8224 322.203 49.2259V44.3636H324.32V48.848C324.324 49.2988 324.445 49.6551 324.683 49.9169C324.922 50.1787 325.242 50.3097 325.643 50.3097C325.898 50.3097 326.137 50.2517 326.359 50.1357C326.581 50.0163 326.76 49.8407 326.896 49.6087C327.035 49.3767 327.103 49.09 327.1 48.7486ZM334.362 52.1491C333.58 52.1491 332.907 51.9834 332.343 51.652C331.783 51.3172 331.352 50.8532 331.051 50.2599C330.752 49.6667 330.603 48.9839 330.603 48.2116C330.603 47.4295 330.754 46.7434 331.056 46.1534C331.361 45.5601 331.793 45.0978 332.353 44.7663C332.913 44.4316 333.58 44.2642 334.352 44.2642C335.018 44.2642 335.601 44.3852 336.102 44.6271C336.602 44.8691 336.998 45.2088 337.29 45.6463C337.582 46.0838 337.743 46.5975 337.772 47.1875H335.774C335.717 46.8063 335.568 46.4998 335.326 46.2678C335.088 46.0324 334.775 45.9148 334.387 45.9148C334.059 45.9148 333.772 46.0043 333.527 46.1832C333.285 46.3589 333.096 46.6158 332.96 46.9538C332.824 47.2919 332.756 47.7012 332.756 48.1818C332.756 48.669 332.822 49.0833 332.955 49.4247C333.091 49.7661 333.281 50.0263 333.527 50.2053C333.772 50.3842 334.059 50.4737 334.387 50.4737C334.629 50.4737 334.846 50.424 335.038 50.3246C335.234 50.2251 335.394 50.081 335.52 49.892C335.65 49.6998 335.734 49.4695 335.774 49.201H337.772C337.739 49.7843 337.58 50.2981 337.295 50.7422C337.013 51.183 336.624 51.5277 336.127 51.7763C335.63 52.0249 335.041 52.1491 334.362 52.1491ZM343.19 44.3636V45.9545H338.591V44.3636H343.19ZM339.635 42.5341H341.753V49.6534C341.753 49.849 341.783 50.0014 341.843 50.1108C341.903 50.2169 341.985 50.2914 342.091 50.3345C342.201 50.3776 342.327 50.3991 342.469 50.3991C342.569 50.3991 342.668 50.3909 342.768 50.3743C342.867 50.3544 342.943 50.3395 342.996 50.3295L343.329 51.9055C343.223 51.9387 343.074 51.9768 342.882 52.0199C342.69 52.0663 342.456 52.0945 342.181 52.1044C341.671 52.1243 341.223 52.0563 340.839 51.9006C340.457 51.7448 340.161 51.5028 339.949 51.1747C339.737 50.8466 339.632 50.4323 339.635 49.9318V42.5341Z" fill="#7E2EBC"/>
<path d="M0.568182 6.81563V4.78722H10.125V6.81563H6.5625V16.4236H4.13068V6.81563H0.568182ZM12.7945 16.5884C12.2377 16.5884 11.7415 16.4918 11.3059 16.2986C10.8703 16.1016 10.5256 15.8118 10.2718 15.4293C10.0218 15.0429 9.89682 14.5618 9.89682 13.9861C9.89682 13.5012 9.98583 13.094 10.1639 12.7645C10.3419 12.4349 10.5843 12.1698 10.8911 11.969C11.198 11.7683 11.5464 11.6168 11.9366 11.5145C12.3305 11.4122 12.7434 11.3403 13.1752 11.2986C13.6828 11.2456 14.0919 11.1963 14.4025 11.1509C14.7131 11.1016 14.9385 11.0296 15.0786 10.9349C15.2188 10.8403 15.2889 10.7001 15.2889 10.5145V10.4804C15.2889 10.1206 15.1752 9.84214 14.948 9.64517C14.7245 9.4482 14.4063 9.34972 13.9934 9.34972C13.5578 9.34972 13.2112 9.44631 12.9536 9.63949C12.6961 9.82889 12.5256 10.0675 12.4423 10.3554L10.2036 10.1736C10.3173 9.64328 10.5408 9.18495 10.8741 8.79858C11.2074 8.40843 11.6373 8.10919 12.1639 7.90086C12.6942 7.68874 13.3078 7.58267 14.0048 7.58267C14.4896 7.58267 14.9536 7.63949 15.3968 7.75313C15.8438 7.86677 16.2396 8.0429 16.5843 8.28154C16.9328 8.52017 17.2074 8.82699 17.4082 9.20199C17.6089 9.5732 17.7093 10.0183 17.7093 10.5372V16.4236H15.4139V15.2134H15.3457C15.2055 15.4861 15.018 15.7266 14.7832 15.9349C14.5483 16.1395 14.2661 16.3005 13.9366 16.4179C13.607 16.5315 13.2264 16.5884 12.7945 16.5884ZM13.4877 14.9179C13.8438 14.9179 14.1582 14.8478 14.4309 14.7077C14.7036 14.5637 14.9177 14.3706 15.073 14.1281C15.2283 13.8857 15.3059 13.6111 15.3059 13.3043V12.3781C15.2302 12.4274 15.126 12.4728 14.9934 12.5145C14.8646 12.5524 14.7188 12.5884 14.5559 12.6224C14.393 12.6528 14.2302 12.6812 14.0673 12.7077C13.9044 12.7304 13.7567 12.7512 13.6241 12.7702C13.34 12.8118 13.0919 12.8781 12.8798 12.969C12.6677 13.0599 12.5029 13.1831 12.3855 13.3384C12.268 13.4899 12.2093 13.6793 12.2093 13.9065C12.2093 14.2361 12.3286 14.488 12.5673 14.6622C12.8097 14.8327 13.1165 14.9179 13.4877 14.9179ZM19.4272 19.6963V7.69631H21.8135V9.16222H21.9215C22.0275 8.92737 22.1809 8.68874 22.3817 8.44631C22.5863 8.2001 22.8514 7.99555 23.1772 7.83267C23.5067 7.66601 23.9158 7.58267 24.4044 7.58267C25.0408 7.58267 25.6279 7.74934 26.1658 8.08267C26.7037 8.41222 27.1336 8.91033 27.4556 9.57699C27.7775 10.2399 27.9385 11.0713 27.9385 12.0713C27.9385 13.0448 27.7813 13.8668 27.4669 14.5372C27.1563 15.2039 26.7321 15.7096 26.1942 16.0543C25.6601 16.3952 25.0616 16.5656 24.3988 16.5656C23.9291 16.5656 23.5294 16.488 23.1999 16.3327C22.8741 16.1774 22.6071 15.9823 22.3988 15.7474C22.1904 15.5088 22.0313 15.2683 21.9215 15.0259H21.8476V19.6963H19.4272ZM21.7965 12.0599C21.7965 12.5789 21.8684 13.0315 22.0124 13.4179C22.1563 13.8043 22.3647 14.1054 22.6374 14.3213C22.9101 14.5334 23.2416 14.6395 23.6317 14.6395C24.0256 14.6395 24.359 14.5315 24.6317 14.3156C24.9044 14.0959 25.1109 13.7929 25.251 13.4065C25.395 13.0164 25.4669 12.5675 25.4669 12.0599C25.4669 11.5562 25.3969 11.113 25.2567 10.7304C25.1166 10.3478 24.9101 10.0486 24.6374 9.83267C24.3647 9.61677 24.0294 9.50881 23.6317 9.50881C23.2378 9.50881 22.9044 9.61298 22.6317 9.82131C22.3628 10.0296 22.1563 10.3251 22.0124 10.7077C21.8684 11.0903 21.7965 11.541 21.7965 12.0599ZM37.5773 7.69631V9.51449H32.3216V7.69631H37.5773ZM33.5148 5.6054H35.9353V13.7418C35.9353 13.9653 35.9694 14.1395 36.0376 14.2645C36.1057 14.3857 36.2004 14.4709 36.3216 14.5202C36.4466 14.5694 36.5906 14.594 36.7535 14.594C36.8671 14.594 36.9807 14.5846 37.0944 14.5656C37.208 14.5429 37.2951 14.5259 37.3557 14.5145L37.7364 16.3156C37.6152 16.3535 37.4448 16.3971 37.2251 16.4463C37.0054 16.4993 36.7383 16.5315 36.4239 16.5429C35.8406 16.5656 35.3292 16.488 34.8898 16.3099C34.4542 16.1319 34.1152 15.8554 33.8728 15.4804C33.6304 15.1054 33.511 14.6319 33.5148 14.0599V5.6054ZM42.8435 16.594C41.9609 16.594 41.1976 16.4065 40.5537 16.0315C39.9135 15.6528 39.4192 15.1262 39.0707 14.452C38.7223 13.774 38.548 12.988 38.548 12.094C38.548 11.1925 38.7223 10.4046 39.0707 9.7304C39.4192 9.05237 39.9135 8.52586 40.5537 8.15086C41.1976 7.77207 41.9609 7.58267 42.8435 7.58267C43.726 7.58267 44.4874 7.77207 45.1276 8.15086C45.7715 8.52586 46.2677 9.05237 46.6162 9.7304C46.9647 10.4046 47.1389 11.1925 47.1389 12.094C47.1389 12.988 46.9647 13.774 46.6162 14.452C46.2677 15.1262 45.7715 15.6528 45.1276 16.0315C44.4874 16.4065 43.726 16.594 42.8435 16.594ZM42.8548 14.719C43.2563 14.719 43.5916 14.6054 43.8605 14.3781C44.1295 14.1471 44.3321 13.8327 44.4685 13.4349C44.6086 13.0372 44.6787 12.5846 44.6787 12.077C44.6787 11.5694 44.6086 11.1168 44.4685 10.719C44.3321 10.3213 44.1295 10.0069 43.8605 9.77586C43.5916 9.5448 43.2563 9.42927 42.8548 9.42927C42.4495 9.42927 42.1086 9.5448 41.8321 9.77586C41.5594 10.0069 41.3529 10.3213 41.2128 10.719C41.0764 11.1168 41.0082 11.5694 41.0082 12.077C41.0082 12.5846 41.0764 13.0372 41.2128 13.4349C41.3529 13.8327 41.5594 14.1471 41.8321 14.3781C42.1086 14.6054 42.4495 14.719 42.8548 14.719ZM56.0391 16.594C55.1565 16.594 54.3933 16.4065 53.7493 16.0315C53.1092 15.6528 52.6148 15.1262 52.2664 14.452C51.9179 13.774 51.7436 12.988 51.7436 12.094C51.7436 11.1925 51.9179 10.4046 52.2664 9.7304C52.6148 9.05237 53.1092 8.52586 53.7493 8.15086C54.3933 7.77207 55.1565 7.58267 56.0391 7.58267C56.9217 7.58267 57.683 7.77207 58.3232 8.15086C58.9671 8.52586 59.4633 9.05237 59.8118 9.7304C60.1603 10.4046 60.3345 11.1925 60.3345 12.094C60.3345 12.988 60.1603 13.774 59.8118 14.452C59.4633 15.1262 58.9671 15.6528 58.3232 16.0315C57.683 16.4065 56.9217 16.594 56.0391 16.594ZM56.0505 14.719C56.452 14.719 56.7872 14.6054 57.0561 14.3781C57.3251 14.1471 57.5277 13.8327 57.6641 13.4349C57.8042 13.0372 57.8743 12.5846 57.8743 12.077C57.8743 11.5694 57.8042 11.1168 57.6641 10.719C57.5277 10.3213 57.3251 10.0069 57.0561 9.77586C56.7872 9.5448 56.452 9.42927 56.0505 9.42927C55.6452 9.42927 55.3042 9.5448 55.0277 9.77586C54.755 10.0069 54.5486 10.3213 54.4084 10.719C54.272 11.1168 54.2039 11.5694 54.2039 12.077C54.2039 12.5846 54.272 13.0372 54.4084 13.4349C54.5486 13.8327 54.755 14.1471 55.0277 14.3781C55.3042 14.6054 55.6452 14.719 56.0505 14.719ZM61.7484 19.6963V7.69631H64.1348V9.16222H64.2427C64.3488 8.92737 64.5022 8.68874 64.703 8.44631C64.9075 8.2001 65.1727 7.99555 65.4984 7.83267C65.828 7.66601 66.237 7.58267 66.7257 7.58267C67.362 7.58267 67.9492 7.74934 68.487 8.08267C69.0249 8.41222 69.4548 8.91033 69.7768 9.57699C70.0988 10.2399 70.2598 11.0713 70.2598 12.0713C70.2598 13.0448 70.1026 13.8668 69.7882 14.5372C69.4776 15.2039 69.0533 15.7096 68.5155 16.0543C67.9814 16.3952 67.3829 16.5656 66.72 16.5656C66.2503 16.5656 65.8507 16.488 65.5211 16.3327C65.1954 16.1774 64.9283 15.9823 64.72 15.7474C64.5117 15.5088 64.3526 15.2683 64.2427 15.0259H64.1689V19.6963H61.7484ZM64.1177 12.0599C64.1177 12.5789 64.1897 13.0315 64.3336 13.4179C64.4776 13.8043 64.6859 14.1054 64.9586 14.3213C65.2314 14.5334 65.5628 14.6395 65.953 14.6395C66.3469 14.6395 66.6802 14.5315 66.953 14.3156C67.2257 14.0959 67.4321 13.7929 67.5723 13.4065C67.7162 13.0164 67.7882 12.5675 67.7882 12.0599C67.7882 11.5562 67.7181 11.113 67.578 10.7304C67.4378 10.3478 67.2314 10.0486 66.9586 9.83267C66.6859 9.61677 66.3507 9.50881 65.953 9.50881C65.559 9.50881 65.2257 9.61298 64.953 9.82131C64.684 10.0296 64.4776 10.3251 64.3336 10.7077C64.1897 11.0903 64.1177 11.541 64.1177 12.0599ZM75.6907 16.594C74.793 16.594 74.0202 16.4122 73.3725 16.0486C72.7286 15.6812 72.2323 15.1622 71.8839 14.4918C71.5354 13.8175 71.3611 13.0202 71.3611 12.0997C71.3611 11.202 71.5354 10.4141 71.8839 9.73608C72.2323 9.05805 72.7229 8.52964 73.3555 8.15086C73.9918 7.77207 74.738 7.58267 75.5941 7.58267C76.1698 7.58267 76.7058 7.67548 77.202 7.86108C77.702 8.0429 78.1376 8.31752 78.5089 8.68495C78.8839 9.05237 79.1755 9.51449 79.3839 10.0713C79.5922 10.6243 79.6964 11.2721 79.6964 12.0145V12.6793H72.327V11.1793H77.418C77.418 10.8308 77.3422 10.5221 77.1907 10.2531C77.0392 9.98419 76.8289 9.77396 76.56 9.62245C76.2948 9.46714 75.9861 9.38949 75.6339 9.38949C75.2664 9.38949 74.9407 9.47472 74.6566 9.64517C74.3763 9.81184 74.1566 10.0372 73.9975 10.3213C73.8384 10.6016 73.757 10.9141 73.7532 11.2588V12.6849C73.7532 13.1168 73.8327 13.4899 73.9918 13.8043C74.1547 14.1187 74.3839 14.3611 74.6793 14.5315C74.9748 14.702 75.3251 14.7872 75.7305 14.7872C75.9994 14.7872 76.2456 14.7493 76.4691 14.6736C76.6926 14.5978 76.8839 14.4842 77.043 14.3327C77.202 14.1812 77.3233 13.9956 77.4066 13.7759L79.6452 13.9236C79.5316 14.4615 79.2986 14.9312 78.9464 15.3327C78.5979 15.7304 78.1471 16.041 77.5941 16.2645C77.0448 16.4842 76.4104 16.594 75.6907 16.594ZM83.5364 11.3781V16.4236H81.1159V7.69631H83.4227V9.23608H83.525C83.7182 8.72851 84.042 8.32699 84.4966 8.03154C84.9511 7.7323 85.5023 7.58267 86.15 7.58267C86.7561 7.58267 87.2845 7.71525 87.7352 7.9804C88.186 8.24555 88.5364 8.62434 88.7864 9.11677C89.0364 9.6054 89.1614 10.1887 89.1614 10.8668V16.4236H86.7409V11.2986C86.7447 10.7645 86.6083 10.3478 86.3318 10.0486C86.0553 9.74555 85.6746 9.59404 85.1898 9.59404C84.864 9.59404 84.5761 9.66411 84.3261 9.80427C84.0799 9.94442 83.8867 10.149 83.7466 10.4179C83.6102 10.6831 83.5402 11.0031 83.5364 11.3781ZM94.4976 16.4236V4.78722H99.0885C99.9711 4.78722 100.723 4.95578 101.344 5.2929C101.965 5.62624 102.439 6.09025 102.765 6.68495C103.094 7.27586 103.259 7.95767 103.259 8.7304C103.259 9.50313 103.092 10.1849 102.759 10.7759C102.426 11.3668 101.943 11.827 101.31 12.1565C100.681 12.4861 99.92 12.6509 99.026 12.6509H96.0999V10.6793H98.6283C99.1018 10.6793 99.4919 10.5978 99.7988 10.4349C100.109 10.2683 100.34 10.0391 100.492 9.74745C100.647 9.45199 100.725 9.11298 100.725 8.7304C100.725 8.34404 100.647 8.00692 100.492 7.71904C100.34 7.42737 100.109 7.20199 99.7988 7.0429C99.4881 6.88002 99.0942 6.79858 98.6169 6.79858H96.9578V16.4236H94.4976ZM104.652 16.4236V7.69631H106.998V9.21904H107.089C107.248 8.67737 107.515 8.26828 107.89 7.99177C108.265 7.71146 108.697 7.57131 109.186 7.57131C109.307 7.57131 109.438 7.57889 109.578 7.59404C109.718 7.60919 109.841 7.63002 109.947 7.65654V9.80427C109.833 9.77017 109.676 9.73987 109.475 9.71336C109.275 9.68684 109.091 9.67358 108.924 9.67358C108.568 9.67358 108.25 9.75124 107.97 9.90654C107.693 10.0581 107.474 10.2702 107.311 10.5429C107.152 10.8156 107.072 11.13 107.072 11.4861V16.4236H104.652ZM114.575 16.594C113.693 16.594 112.93 16.4065 112.286 16.0315C111.645 15.6528 111.151 15.1262 110.803 14.452C110.454 13.774 110.28 12.988 110.28 12.094C110.28 11.1925 110.454 10.4046 110.803 9.7304C111.151 9.05237 111.645 8.52586 112.286 8.15086C112.93 7.77207 113.693 7.58267 114.575 7.58267C115.458 7.58267 116.219 7.77207 116.859 8.15086C117.503 8.52586 118 9.05237 118.348 9.7304C118.697 10.4046 118.871 11.1925 118.871 12.094C118.871 12.988 118.697 13.774 118.348 14.452C118 15.1262 117.503 15.6528 116.859 16.0315C116.219 16.4065 115.458 16.594 114.575 16.594ZM114.587 14.719C114.988 14.719 115.323 14.6054 115.592 14.3781C115.861 14.1471 116.064 13.8327 116.2 13.4349C116.34 13.0372 116.411 12.5846 116.411 12.077C116.411 11.5694 116.34 11.1168 116.2 10.719C116.064 10.3213 115.861 10.0069 115.592 9.77586C115.323 9.5448 114.988 9.42927 114.587 9.42927C114.181 9.42927 113.84 9.5448 113.564 9.77586C113.291 10.0069 113.085 10.3213 112.945 10.719C112.808 11.1168 112.74 11.5694 112.74 12.077C112.74 12.5846 112.808 13.0372 112.945 13.4349C113.085 13.8327 113.291 14.1471 113.564 14.3781C113.84 14.6054 114.181 14.719 114.587 14.719ZM123.501 16.5656C122.838 16.5656 122.237 16.3952 121.699 16.0543C121.165 15.7096 120.741 15.2039 120.427 14.5372C120.116 13.8668 119.961 13.0448 119.961 12.0713C119.961 11.0713 120.122 10.2399 120.444 9.57699C120.766 8.91033 121.194 8.41222 121.728 8.08267C122.266 7.74934 122.855 7.58267 123.495 7.58267C123.984 7.58267 124.391 7.66601 124.716 7.83267C125.046 7.99555 125.311 8.2001 125.512 8.44631C125.716 8.68874 125.872 8.92737 125.978 9.16222H126.052V4.78722H128.466V16.4236H126.08V15.0259H125.978C125.864 15.2683 125.703 15.5088 125.495 15.7474C125.29 15.9823 125.023 16.1774 124.694 16.3327C124.368 16.488 123.97 16.5656 123.501 16.5656ZM124.268 14.6395C124.658 14.6395 124.987 14.5334 125.256 14.3213C125.529 14.1054 125.737 13.8043 125.881 13.4179C126.029 13.0315 126.103 12.5789 126.103 12.0599C126.103 11.541 126.031 11.0903 125.887 10.7077C125.743 10.3251 125.535 10.0296 125.262 9.82131C124.989 9.61298 124.658 9.50881 124.268 9.50881C123.87 9.50881 123.535 9.61677 123.262 9.83267C122.989 10.0486 122.783 10.3478 122.643 10.7304C122.502 11.113 122.432 11.5562 122.432 12.0599C122.432 12.5675 122.502 13.0164 122.643 13.4065C122.787 13.7929 122.993 14.0959 123.262 14.3156C123.535 14.5315 123.87 14.6395 124.268 14.6395ZM135.893 12.7077V7.69631H138.314V16.4236H135.99V14.8384H135.899C135.702 15.3497 135.374 15.7607 134.916 16.0713C134.461 16.3819 133.906 16.5372 133.251 16.5372C132.668 16.5372 132.154 16.4046 131.711 16.1395C131.268 15.8743 130.922 15.4974 130.672 15.0088C130.425 14.5202 130.3 13.9349 130.297 13.2531V7.69631H132.717V12.8213C132.721 13.3365 132.859 13.7437 133.132 14.0429C133.404 14.3421 133.77 14.4918 134.228 14.4918C134.52 14.4918 134.793 14.4255 135.047 14.2929C135.3 14.1565 135.505 13.9558 135.66 13.6906C135.819 13.4255 135.897 13.0978 135.893 12.7077ZM144.033 16.594C143.139 16.594 142.37 16.4046 141.726 16.0259C141.086 15.6433 140.593 15.113 140.249 14.4349C139.908 13.7569 139.737 12.9766 139.737 12.094C139.737 11.2001 139.91 10.416 140.254 9.74177C140.603 9.06374 141.097 8.53533 141.737 8.15654C142.378 7.77396 143.139 7.58267 144.021 7.58267C144.783 7.58267 145.45 7.72093 146.021 7.99745C146.593 8.27396 147.046 8.66222 147.379 9.16222C147.713 9.66222 147.896 10.2493 147.931 10.9236H145.646C145.582 10.488 145.412 10.1376 145.135 9.87245C144.862 9.60351 144.504 9.46904 144.061 9.46904C143.686 9.46904 143.359 9.57131 143.078 9.77586C142.802 9.97661 142.586 10.2702 142.431 10.6565C142.275 11.0429 142.198 11.5107 142.198 12.0599C142.198 12.6168 142.273 13.0903 142.425 13.4804C142.58 13.8706 142.798 14.1679 143.078 14.3724C143.359 14.577 143.686 14.6793 144.061 14.6793C144.338 14.6793 144.586 14.6224 144.806 14.5088C145.029 14.3952 145.213 14.2304 145.357 14.0145C145.504 13.7948 145.601 13.5315 145.646 13.2247H147.931C147.893 13.8914 147.711 14.4785 147.385 14.9861C147.063 15.4899 146.618 15.8838 146.05 16.1679C145.482 16.452 144.809 16.594 144.033 16.594ZM153.962 7.69631V9.51449H148.707V7.69631H153.962ZM149.9 5.6054H152.32V13.7418C152.32 13.9653 152.354 14.1395 152.423 14.2645C152.491 14.3857 152.585 14.4709 152.707 14.5202C152.832 14.5694 152.976 14.594 153.138 14.594C153.252 14.594 153.366 14.5846 153.479 14.5656C153.593 14.5429 153.68 14.5259 153.741 14.5145L154.121 16.3156C154 16.3535 153.83 16.3971 153.61 16.4463C153.39 16.4993 153.123 16.5315 152.809 16.5429C152.226 16.5656 151.714 16.488 151.275 16.3099C150.839 16.1319 150.5 15.8554 150.258 15.4804C150.015 15.1054 149.896 14.6319 149.9 14.0599V5.6054ZM161.343 4.78722V16.4236H158.922V4.78722H161.343ZM163.122 16.4236V7.69631H165.542V16.4236H163.122ZM164.337 6.57131C163.978 6.57131 163.669 6.45199 163.411 6.21336C163.158 5.97093 163.031 5.68116 163.031 5.34404C163.031 5.0107 163.158 4.72472 163.411 4.48608C163.669 4.24366 163.978 4.12245 164.337 4.12245C164.697 4.12245 165.004 4.24366 165.258 4.48608C165.515 4.72472 165.644 5.0107 165.644 5.34404C165.644 5.68116 165.515 5.97093 165.258 6.21336C165.004 6.45199 164.697 6.57131 164.337 6.57131ZM174.582 10.1849L172.366 10.3213C172.328 10.1319 172.247 9.96146 172.122 9.80995C171.997 9.65464 171.832 9.53154 171.628 9.44063C171.427 9.34593 171.186 9.29858 170.906 9.29858C170.531 9.29858 170.215 9.37813 169.957 9.53722C169.7 9.69252 169.571 9.90086 169.571 10.1622C169.571 10.3706 169.654 10.5467 169.821 10.6906C169.988 10.8346 170.274 10.9501 170.679 11.0372L172.258 11.3554C173.107 11.5296 173.739 11.8099 174.156 12.1963C174.573 12.5827 174.781 13.0903 174.781 13.719C174.781 14.291 174.613 14.7929 174.275 15.2247C173.942 15.6565 173.484 15.9937 172.9 16.2361C172.321 16.4747 171.652 16.594 170.895 16.594C169.739 16.594 168.819 16.3535 168.133 15.8724C167.452 15.3876 167.052 14.7285 166.935 13.8952L169.315 13.7702C169.387 14.1224 169.561 14.3914 169.838 14.577C170.114 14.7588 170.469 14.8497 170.9 14.8497C171.325 14.8497 171.666 14.7683 171.923 14.6054C172.185 14.4387 172.317 14.2247 172.321 13.9634C172.317 13.7437 172.224 13.5637 172.042 13.4236C171.861 13.2796 171.58 13.1698 171.202 13.094L169.69 12.7929C168.838 12.6224 168.203 12.327 167.787 11.9065C167.374 11.4861 167.167 10.9501 167.167 10.2986C167.167 9.73798 167.319 9.25502 167.622 8.84972C167.929 8.44442 168.359 8.13192 168.912 7.91222C169.469 7.69252 170.12 7.58267 170.866 7.58267C171.969 7.58267 172.836 7.81563 173.469 8.28154C174.105 8.74745 174.476 9.38192 174.582 10.1849ZM180.787 7.69631V9.51449H175.532V7.69631H180.787ZM176.725 5.6054H179.145V13.7418C179.145 13.9653 179.179 14.1395 179.248 14.2645C179.316 14.3857 179.41 14.4709 179.532 14.5202C179.657 14.5694 179.801 14.594 179.963 14.594C180.077 14.594 180.191 14.5846 180.304 14.5656C180.418 14.5429 180.505 14.5259 180.566 14.5145L180.946 16.3156C180.825 16.3535 180.655 16.3971 180.435 16.4463C180.215 16.4993 179.948 16.5315 179.634 16.5429C179.051 16.5656 178.539 16.488 178.1 16.3099C177.664 16.1319 177.325 15.8554 177.083 15.4804C176.84 15.1054 176.721 14.6319 176.725 14.0599V5.6054Z" fill="white"/>
<path d="M189.471 10.5696C189.056 10.908 188.976 11.5646 189.294 12.0362C189.611 12.5078 190.205 12.6159 190.62 12.2775L189.471 10.5696ZM256.999 22.6015L254.406 10.7317L246.51 18.8553L256.999 22.6015ZM190.62 12.2775C203.753 1.57805 230.623 -3.81317 250.487 16.3426L251.74 14.8101C231.013 -6.22132 203.106 -0.538403 189.471 10.5696L190.62 12.2775Z" fill="white"/>
</svg>
