<svg width="362" height="67" viewBox="0 0 362 67" fill="none" xmlns="http://www.w3.org/2000/svg">
<path d="M0.568182 7.81563V5.78722H10.125V7.81563H6.5625V17.4236H4.13068V7.81563H0.568182ZM12.7945 17.5884C12.2377 17.5884 11.7415 17.4918 11.3059 17.2986C10.8703 17.1016 10.5256 16.8118 10.2718 16.4293C10.0218 16.0429 9.89682 15.5618 9.89682 14.9861C9.89682 14.5012 9.98583 14.094 10.1639 13.7645C10.3419 13.4349 10.5843 13.1698 10.8911 12.969C11.198 12.7683 11.5464 12.6168 11.9366 12.5145C12.3305 12.4122 12.7434 12.3403 13.1752 12.2986C13.6828 12.2456 14.0919 12.1963 14.4025 12.1509C14.7131 12.1016 14.9385 12.0296 15.0786 11.9349C15.2188 11.8403 15.2889 11.7001 15.2889 11.5145V11.4804C15.2889 11.1206 15.1752 10.8421 14.948 10.6452C14.7245 10.4482 14.4063 10.3497 13.9934 10.3497C13.5578 10.3497 13.2112 10.4463 12.9536 10.6395C12.6961 10.8289 12.5256 11.0675 12.4423 11.3554L10.2036 11.1736C10.3173 10.6433 10.5408 10.1849 10.8741 9.79858C11.2074 9.40843 11.6373 9.10919 12.1639 8.90086C12.6942 8.68874 13.3078 8.58267 14.0048 8.58267C14.4896 8.58267 14.9536 8.63949 15.3968 8.75313C15.8438 8.86677 16.2396 9.0429 16.5843 9.28154C16.9328 9.52017 17.2074 9.82699 17.4082 10.202C17.6089 10.5732 17.7093 11.0183 17.7093 11.5372V17.4236H15.4139V16.2134H15.3457C15.2055 16.4861 15.018 16.7266 14.7832 16.9349C14.5483 17.1395 14.2661 17.3005 13.9366 17.4179C13.607 17.5315 13.2264 17.5884 12.7945 17.5884ZM13.4877 15.9179C13.8438 15.9179 14.1582 15.8478 14.4309 15.7077C14.7036 15.5637 14.9177 15.3706 15.073 15.1281C15.2283 14.8857 15.3059 14.6111 15.3059 14.3043V13.3781C15.2302 13.4274 15.126 13.4728 14.9934 13.5145C14.8646 13.5524 14.7188 13.5884 14.5559 13.6224C14.393 13.6528 14.2302 13.6812 14.0673 13.7077C13.9044 13.7304 13.7567 13.7512 13.6241 13.7702C13.34 13.8118 13.0919 13.8781 12.8798 13.969C12.6677 14.0599 12.5029 14.1831 12.3855 14.3384C12.268 14.4899 12.2093 14.6793 12.2093 14.9065C12.2093 15.2361 12.3286 15.488 12.5673 15.6622C12.8097 15.8327 13.1165 15.9179 13.4877 15.9179ZM19.4272 20.6963V8.69631H21.8135V10.1622H21.9215C22.0275 9.92737 22.1809 9.68874 22.3817 9.44631C22.5863 9.2001 22.8514 8.99555 23.1772 8.83267C23.5067 8.66601 23.9158 8.58267 24.4044 8.58267C25.0408 8.58267 25.6279 8.74934 26.1658 9.08267C26.7037 9.41222 27.1336 9.91033 27.4556 10.577C27.7775 11.2399 27.9385 12.0713 27.9385 13.0713C27.9385 14.0448 27.7813 14.8668 27.4669 15.5372C27.1563 16.2039 26.7321 16.7096 26.1942 17.0543C25.6601 17.3952 25.0616 17.5656 24.3988 17.5656C23.9291 17.5656 23.5294 17.488 23.1999 17.3327C22.8741 17.1774 22.6071 16.9823 22.3988 16.7474C22.1904 16.5088 22.0313 16.2683 21.9215 16.0259H21.8476V20.6963H19.4272ZM21.7965 13.0599C21.7965 13.5789 21.8684 14.0315 22.0124 14.4179C22.1563 14.8043 22.3647 15.1054 22.6374 15.3213C22.9101 15.5334 23.2416 15.6395 23.6317 15.6395C24.0256 15.6395 24.359 15.5315 24.6317 15.3156C24.9044 15.0959 25.1109 14.7929 25.251 14.4065C25.395 14.0164 25.4669 13.5675 25.4669 13.0599C25.4669 12.5562 25.3969 12.113 25.2567 11.7304C25.1166 11.3478 24.9101 11.0486 24.6374 10.8327C24.3647 10.6168 24.0294 10.5088 23.6317 10.5088C23.2378 10.5088 22.9044 10.613 22.6317 10.8213C22.3628 11.0296 22.1563 11.3251 22.0124 11.7077C21.8684 12.0903 21.7965 12.541 21.7965 13.0599ZM37.5773 8.69631V10.5145H32.3216V8.69631H37.5773ZM33.5148 6.6054H35.9353V14.7418C35.9353 14.9653 35.9694 15.1395 36.0376 15.2645C36.1057 15.3857 36.2004 15.4709 36.3216 15.5202C36.4466 15.5694 36.5906 15.594 36.7535 15.594C36.8671 15.594 36.9807 15.5846 37.0944 15.5656C37.208 15.5429 37.2951 15.5259 37.3557 15.5145L37.7364 17.3156C37.6152 17.3535 37.4448 17.3971 37.2251 17.4463C37.0054 17.4993 36.7383 17.5315 36.4239 17.5429C35.8406 17.5656 35.3292 17.488 34.8898 17.3099C34.4542 17.1319 34.1152 16.8554 33.8728 16.4804C33.6304 16.1054 33.511 15.6319 33.5148 15.0599V6.6054ZM42.8435 17.594C41.9609 17.594 41.1976 17.4065 40.5537 17.0315C39.9135 16.6528 39.4192 16.1262 39.0707 15.452C38.7223 14.774 38.548 13.988 38.548 13.094C38.548 12.1925 38.7223 11.4046 39.0707 10.7304C39.4192 10.0524 39.9135 9.52586 40.5537 9.15086C41.1976 8.77207 41.9609 8.58267 42.8435 8.58267C43.726 8.58267 44.4874 8.77207 45.1276 9.15086C45.7715 9.52586 46.2677 10.0524 46.6162 10.7304C46.9647 11.4046 47.1389 12.1925 47.1389 13.094C47.1389 13.988 46.9647 14.774 46.6162 15.452C46.2677 16.1262 45.7715 16.6528 45.1276 17.0315C44.4874 17.4065 43.726 17.594 42.8435 17.594ZM42.8548 15.719C43.2563 15.719 43.5916 15.6054 43.8605 15.3781C44.1295 15.1471 44.3321 14.8327 44.4685 14.4349C44.6086 14.0372 44.6787 13.5846 44.6787 13.077C44.6787 12.5694 44.6086 12.1168 44.4685 11.719C44.3321 11.3213 44.1295 11.0069 43.8605 10.7759C43.5916 10.5448 43.2563 10.4293 42.8548 10.4293C42.4495 10.4293 42.1086 10.5448 41.8321 10.7759C41.5594 11.0069 41.3529 11.3213 41.2128 11.719C41.0764 12.1168 41.0082 12.5694 41.0082 13.077C41.0082 13.5846 41.0764 14.0372 41.2128 14.4349C41.3529 14.8327 41.5594 15.1471 41.8321 15.3781C42.1086 15.6054 42.4495 15.719 42.8548 15.719ZM56.0391 17.594C55.1565 17.594 54.3933 17.4065 53.7493 17.0315C53.1092 16.6528 52.6148 16.1262 52.2664 15.452C51.9179 14.774 51.7436 13.988 51.7436 13.094C51.7436 12.1925 51.9179 11.4046 52.2664 10.7304C52.6148 10.0524 53.1092 9.52586 53.7493 9.15086C54.3933 8.77207 55.1565 8.58267 56.0391 8.58267C56.9217 8.58267 57.683 8.77207 58.3232 9.15086C58.9671 9.52586 59.4633 10.0524 59.8118 10.7304C60.1603 11.4046 60.3345 12.1925 60.3345 13.094C60.3345 13.988 60.1603 14.774 59.8118 15.452C59.4633 16.1262 58.9671 16.6528 58.3232 17.0315C57.683 17.4065 56.9217 17.594 56.0391 17.594ZM56.0505 15.719C56.452 15.719 56.7872 15.6054 57.0561 15.3781C57.3251 15.1471 57.5277 14.8327 57.6641 14.4349C57.8042 14.0372 57.8743 13.5846 57.8743 13.077C57.8743 12.5694 57.8042 12.1168 57.6641 11.719C57.5277 11.3213 57.3251 11.0069 57.0561 10.7759C56.7872 10.5448 56.452 10.4293 56.0505 10.4293C55.6452 10.4293 55.3042 10.5448 55.0277 10.7759C54.755 11.0069 54.5486 11.3213 54.4084 11.719C54.272 12.1168 54.2039 12.5694 54.2039 13.077C54.2039 13.5846 54.272 14.0372 54.4084 14.4349C54.5486 14.8327 54.755 15.1471 55.0277 15.3781C55.3042 15.6054 55.6452 15.719 56.0505 15.719ZM61.7484 20.6963V8.69631H64.1348V10.1622H64.2427C64.3488 9.92737 64.5022 9.68874 64.703 9.44631C64.9075 9.2001 65.1727 8.99555 65.4984 8.83267C65.828 8.66601 66.237 8.58267 66.7257 8.58267C67.362 8.58267 67.9492 8.74934 68.487 9.08267C69.0249 9.41222 69.4548 9.91033 69.7768 10.577C70.0988 11.2399 70.2598 12.0713 70.2598 13.0713C70.2598 14.0448 70.1026 14.8668 69.7882 15.5372C69.4776 16.2039 69.0533 16.7096 68.5155 17.0543C67.9814 17.3952 67.3829 17.5656 66.72 17.5656C66.2503 17.5656 65.8507 17.488 65.5211 17.3327C65.1954 17.1774 64.9283 16.9823 64.72 16.7474C64.5117 16.5088 64.3526 16.2683 64.2427 16.0259H64.1689V20.6963H61.7484ZM64.1177 13.0599C64.1177 13.5789 64.1897 14.0315 64.3336 14.4179C64.4776 14.8043 64.6859 15.1054 64.9586 15.3213C65.2314 15.5334 65.5628 15.6395 65.953 15.6395C66.3469 15.6395 66.6802 15.5315 66.953 15.3156C67.2257 15.0959 67.4321 14.7929 67.5723 14.4065C67.7162 14.0164 67.7882 13.5675 67.7882 13.0599C67.7882 12.5562 67.7181 12.113 67.578 11.7304C67.4378 11.3478 67.2314 11.0486 66.9586 10.8327C66.6859 10.6168 66.3507 10.5088 65.953 10.5088C65.559 10.5088 65.2257 10.613 64.953 10.8213C64.684 11.0296 64.4776 11.3251 64.3336 11.7077C64.1897 12.0903 64.1177 12.541 64.1177 13.0599ZM75.6907 17.594C74.793 17.594 74.0202 17.4122 73.3725 17.0486C72.7286 16.6812 72.2323 16.1622 71.8839 15.4918C71.5354 14.8175 71.3611 14.0202 71.3611 13.0997C71.3611 12.202 71.5354 11.4141 71.8839 10.7361C72.2323 10.0581 72.7229 9.52964 73.3555 9.15086C73.9918 8.77207 74.738 8.58267 75.5941 8.58267C76.1698 8.58267 76.7058 8.67548 77.202 8.86108C77.702 9.0429 78.1376 9.31752 78.5089 9.68495C78.8839 10.0524 79.1755 10.5145 79.3839 11.0713C79.5922 11.6243 79.6964 12.2721 79.6964 13.0145V13.6793H72.327V12.1793H77.418C77.418 11.8308 77.3422 11.5221 77.1907 11.2531C77.0392 10.9842 76.8289 10.774 76.56 10.6224C76.2948 10.4671 75.9861 10.3895 75.6339 10.3895C75.2664 10.3895 74.9407 10.4747 74.6566 10.6452C74.3763 10.8118 74.1566 11.0372 73.9975 11.3213C73.8384 11.6016 73.757 11.9141 73.7532 12.2588V13.6849C73.7532 14.1168 73.8327 14.4899 73.9918 14.8043C74.1547 15.1187 74.3839 15.3611 74.6793 15.5315C74.9748 15.702 75.3251 15.7872 75.7305 15.7872C75.9994 15.7872 76.2456 15.7493 76.4691 15.6736C76.6926 15.5978 76.8839 15.4842 77.043 15.3327C77.202 15.1812 77.3233 14.9956 77.4066 14.7759L79.6452 14.9236C79.5316 15.4615 79.2986 15.9312 78.9464 16.3327C78.5979 16.7304 78.1471 17.041 77.5941 17.2645C77.0448 17.4842 76.4104 17.594 75.6907 17.594ZM83.5364 12.3781V17.4236H81.1159V8.69631H83.4227V10.2361H83.525C83.7182 9.72851 84.042 9.32699 84.4966 9.03154C84.9511 8.7323 85.5023 8.58267 86.15 8.58267C86.7561 8.58267 87.2845 8.71525 87.7352 8.9804C88.186 9.24555 88.5364 9.62434 88.7864 10.1168C89.0364 10.6054 89.1614 11.1887 89.1614 11.8668V17.4236H86.7409V12.2986C86.7447 11.7645 86.6083 11.3478 86.3318 11.0486C86.0553 10.7456 85.6746 10.594 85.1898 10.594C84.864 10.594 84.5761 10.6641 84.3261 10.8043C84.0799 10.9444 83.8867 11.149 83.7466 11.4179C83.6102 11.6831 83.5402 12.0031 83.5364 12.3781ZM94.4976 17.4236V5.78722H99.0885C99.9711 5.78722 100.723 5.95578 101.344 6.2929C101.965 6.62624 102.439 7.09025 102.765 7.68495C103.094 8.27586 103.259 8.95767 103.259 9.7304C103.259 10.5031 103.092 11.1849 102.759 11.7759C102.426 12.3668 101.943 12.827 101.31 13.1565C100.681 13.4861 99.92 13.6509 99.026 13.6509H96.0999V11.6793H98.6283C99.1018 11.6793 99.4919 11.5978 99.7988 11.4349C100.109 11.2683 100.34 11.0391 100.492 10.7474C100.647 10.452 100.725 10.113 100.725 9.7304C100.725 9.34404 100.647 9.00692 100.492 8.71904C100.34 8.42737 100.109 8.20199 99.7988 8.0429C99.4881 7.88002 99.0942 7.79858 98.6169 7.79858H96.9578V17.4236H94.4976ZM104.652 17.4236V8.69631H106.998V10.219H107.089C107.248 9.67737 107.515 9.26828 107.89 8.99177C108.265 8.71146 108.697 8.57131 109.186 8.57131C109.307 8.57131 109.438 8.57889 109.578 8.59404C109.718 8.60919 109.841 8.63002 109.947 8.65654V10.8043C109.833 10.7702 109.676 10.7399 109.475 10.7134C109.275 10.6868 109.091 10.6736 108.924 10.6736C108.568 10.6736 108.25 10.7512 107.97 10.9065C107.693 11.0581 107.474 11.2702 107.311 11.5429C107.152 11.8156 107.072 12.13 107.072 12.4861V17.4236H104.652ZM114.575 17.594C113.693 17.594 112.93 17.4065 112.286 17.0315C111.645 16.6528 111.151 16.1262 110.803 15.452C110.454 14.774 110.28 13.988 110.28 13.094C110.28 12.1925 110.454 11.4046 110.803 10.7304C111.151 10.0524 111.645 9.52586 112.286 9.15086C112.93 8.77207 113.693 8.58267 114.575 8.58267C115.458 8.58267 116.219 8.77207 116.859 9.15086C117.503 9.52586 118 10.0524 118.348 10.7304C118.697 11.4046 118.871 12.1925 118.871 13.094C118.871 13.988 118.697 14.774 118.348 15.452C118 16.1262 117.503 16.6528 116.859 17.0315C116.219 17.4065 115.458 17.594 114.575 17.594ZM114.587 15.719C114.988 15.719 115.323 15.6054 115.592 15.3781C115.861 15.1471 116.064 14.8327 116.2 14.4349C116.34 14.0372 116.411 13.5846 116.411 13.077C116.411 12.5694 116.34 12.1168 116.2 11.719C116.064 11.3213 115.861 11.0069 115.592 10.7759C115.323 10.5448 114.988 10.4293 114.587 10.4293C114.181 10.4293 113.84 10.5448 113.564 10.7759C113.291 11.0069 113.085 11.3213 112.945 11.719C112.808 12.1168 112.74 12.5694 112.74 13.077C112.74 13.5846 112.808 14.0372 112.945 14.4349C113.085 14.8327 113.291 15.1471 113.564 15.3781C113.84 15.6054 114.181 15.719 114.587 15.719ZM120.285 17.4236V8.69631H122.591V10.2361H122.694C122.876 9.72472 123.179 9.32131 123.603 9.02586C124.027 8.7304 124.535 8.58267 125.126 8.58267C125.724 8.58267 126.234 8.7323 126.654 9.03154C127.074 9.32699 127.355 9.72851 127.495 10.2361H127.586C127.764 9.73608 128.086 9.33646 128.552 9.03722C129.021 8.73419 129.576 8.58267 130.216 8.58267C131.031 8.58267 131.692 8.84214 132.199 9.36108C132.711 9.87624 132.966 10.6073 132.966 11.5543V17.4236H130.552V12.0315C130.552 11.5467 130.423 11.1831 130.165 10.9406C129.908 10.6982 129.586 10.577 129.199 10.577C128.76 10.577 128.417 10.7171 128.171 10.9974C127.925 11.274 127.802 11.6395 127.802 12.094V17.4236H125.455V11.9804C125.455 11.5524 125.332 11.2115 125.086 10.9577C124.843 10.7039 124.523 10.577 124.126 10.577C123.857 10.577 123.614 10.6452 123.398 10.7815C123.186 10.9141 123.018 11.1016 122.893 11.344C122.768 11.5827 122.705 11.863 122.705 12.1849V17.4236H120.285ZM138.662 17.594C137.779 17.594 137.016 17.4065 136.372 17.0315C135.732 16.6528 135.237 16.1262 134.889 15.452C134.54 14.774 134.366 13.988 134.366 13.094C134.366 12.1925 134.54 11.4046 134.889 10.7304C135.237 10.0524 135.732 9.52586 136.372 9.15086C137.016 8.77207 137.779 8.58267 138.662 8.58267C139.544 8.58267 140.306 8.77207 140.946 9.15086C141.59 9.52586 142.086 10.0524 142.434 10.7304C142.783 11.4046 142.957 12.1925 142.957 13.094C142.957 13.988 142.783 14.774 142.434 15.452C142.086 16.1262 141.59 16.6528 140.946 17.0315C140.306 17.4065 139.544 17.594 138.662 17.594ZM138.673 15.719C139.074 15.719 139.41 15.6054 139.679 15.3781C139.948 15.1471 140.15 14.8327 140.287 14.4349C140.427 14.0372 140.497 13.5846 140.497 13.077C140.497 12.5694 140.427 12.1168 140.287 11.719C140.15 11.3213 139.948 11.0069 139.679 10.7759C139.41 10.5448 139.074 10.4293 138.673 10.4293C138.268 10.4293 137.927 10.5448 137.65 10.7759C137.378 11.0069 137.171 11.3213 137.031 11.719C136.895 12.1168 136.826 12.5694 136.826 13.077C136.826 13.5846 136.895 14.0372 137.031 14.4349C137.171 14.8327 137.378 15.1471 137.65 15.3781C137.927 15.6054 138.268 15.719 138.673 15.719ZM149.013 8.69631V10.5145H143.757V8.69631H149.013ZM144.95 6.6054H147.371V14.7418C147.371 14.9653 147.405 15.1395 147.473 15.2645C147.541 15.3857 147.636 15.4709 147.757 15.5202C147.882 15.5694 148.026 15.594 148.189 15.594C148.303 15.594 148.416 15.5846 148.53 15.5656C148.644 15.5429 148.731 15.5259 148.791 15.5145L149.172 17.3156C149.051 17.3535 148.88 17.3971 148.661 17.4463C148.441 17.4993 148.174 17.5315 147.86 17.5429C147.276 17.5656 146.765 17.488 146.325 17.3099C145.89 17.1319 145.551 16.8554 145.308 16.4804C145.066 16.1054 144.947 15.6319 144.95 15.0599V6.6054ZM150.43 17.4236V8.69631H152.85V17.4236H150.43ZM151.646 7.57131C151.286 7.57131 150.977 7.45199 150.719 7.21336C150.466 6.97093 150.339 6.68116 150.339 6.34404C150.339 6.0107 150.466 5.72472 150.719 5.48608C150.977 5.24366 151.286 5.12245 151.646 5.12245C152.005 5.12245 152.312 5.24366 152.566 5.48608C152.824 5.72472 152.952 6.0107 152.952 6.34404C152.952 6.68116 152.824 6.97093 152.566 7.21336C152.312 7.45199 152.005 7.57131 151.646 7.57131ZM158.572 17.594C157.69 17.594 156.926 17.4065 156.282 17.0315C155.642 16.6528 155.148 16.1262 154.799 15.452C154.451 14.774 154.277 13.988 154.277 13.094C154.277 12.1925 154.451 11.4046 154.799 10.7304C155.148 10.0524 155.642 9.52586 156.282 9.15086C156.926 8.77207 157.69 8.58267 158.572 8.58267C159.455 8.58267 160.216 8.77207 160.856 9.15086C161.5 9.52586 161.996 10.0524 162.345 10.7304C162.693 11.4046 162.868 12.1925 162.868 13.094C162.868 13.988 162.693 14.774 162.345 15.452C161.996 16.1262 161.5 16.6528 160.856 17.0315C160.216 17.4065 159.455 17.594 158.572 17.594ZM158.584 15.719C158.985 15.719 159.32 15.6054 159.589 15.3781C159.858 15.1471 160.061 14.8327 160.197 14.4349C160.337 14.0372 160.407 13.5846 160.407 13.077C160.407 12.5694 160.337 12.1168 160.197 11.719C160.061 11.3213 159.858 11.0069 159.589 10.7759C159.32 10.5448 158.985 10.4293 158.584 10.4293C158.178 10.4293 157.837 10.5448 157.561 10.7759C157.288 11.0069 157.082 11.3213 156.942 11.719C156.805 12.1168 156.737 12.5694 156.737 13.077C156.737 13.5846 156.805 14.0372 156.942 14.4349C157.082 14.8327 157.288 15.1471 157.561 15.3781C157.837 15.6054 158.178 15.719 158.584 15.719ZM166.702 12.3781V17.4236H164.282V8.69631H166.588V10.2361H166.691C166.884 9.72851 167.208 9.32699 167.662 9.03154C168.117 8.7323 168.668 8.58267 169.316 8.58267C169.922 8.58267 170.45 8.71525 170.901 8.9804C171.352 9.24555 171.702 9.62434 171.952 10.1168C172.202 10.6054 172.327 11.1887 172.327 11.8668V17.4236H169.907V12.2986C169.91 11.7645 169.774 11.3478 169.497 11.0486C169.221 10.7456 168.84 10.594 168.355 10.594C168.03 10.594 167.742 10.6641 167.492 10.8043C167.246 10.9444 167.052 11.149 166.912 11.4179C166.776 11.6831 166.706 12.0031 166.702 12.3781ZM180.038 5.78722V17.4236H177.618V5.78722H180.038ZM181.817 17.4236V8.69631H184.238V17.4236H181.817ZM183.033 7.57131C182.673 7.57131 182.365 7.45199 182.107 7.21336C181.853 6.97093 181.726 6.68116 181.726 6.34404C181.726 6.0107 181.853 5.72472 182.107 5.48608C182.365 5.24366 182.673 5.12245 183.033 5.12245C183.393 5.12245 183.7 5.24366 183.954 5.48608C184.211 5.72472 184.34 6.0107 184.34 6.34404C184.34 6.68116 184.211 6.97093 183.954 7.21336C183.7 7.45199 183.393 7.57131 183.033 7.57131ZM193.278 11.1849L191.062 11.3213C191.024 11.1319 190.943 10.9615 190.818 10.8099C190.693 10.6546 190.528 10.5315 190.323 10.4406C190.123 10.3459 189.882 10.2986 189.602 10.2986C189.227 10.2986 188.91 10.3781 188.653 10.5372C188.395 10.6925 188.267 10.9009 188.267 11.1622C188.267 11.3706 188.35 11.5467 188.517 11.6906C188.683 11.8346 188.969 11.9501 189.374 12.0372L190.954 12.3554C191.803 12.5296 192.435 12.8099 192.852 13.1963C193.268 13.5827 193.477 14.0903 193.477 14.719C193.477 15.291 193.308 15.7929 192.971 16.2247C192.638 16.6565 192.179 16.9937 191.596 17.2361C191.017 17.4747 190.348 17.594 189.59 17.594C188.435 17.594 187.515 17.3535 186.829 16.8724C186.147 16.3876 185.748 15.7285 185.63 14.8952L188.011 14.7702C188.083 15.1224 188.257 15.3914 188.534 15.577C188.81 15.7588 189.164 15.8497 189.596 15.8497C190.02 15.8497 190.361 15.7683 190.619 15.6054C190.88 15.4387 191.013 15.2247 191.017 14.9634C191.013 14.7437 190.92 14.5637 190.738 14.4236C190.556 14.2796 190.276 14.1698 189.897 14.094L188.386 13.7929C187.534 13.6224 186.899 13.327 186.482 12.9065C186.07 12.4861 185.863 11.9501 185.863 11.2986C185.863 10.738 186.015 10.255 186.318 9.84972C186.624 9.44442 187.054 9.13192 187.607 8.91222C188.164 8.69252 188.816 8.58267 189.562 8.58267C190.664 8.58267 191.532 8.81563 192.164 9.28154C192.801 9.74745 193.172 10.3819 193.278 11.1849ZM199.483 8.69631V10.5145H194.227V8.69631H199.483ZM195.42 6.6054H197.841V14.7418C197.841 14.9653 197.875 15.1395 197.943 15.2645C198.011 15.3857 198.106 15.4709 198.227 15.5202C198.352 15.5694 198.496 15.594 198.659 15.594C198.773 15.594 198.886 15.5846 199 15.5656C199.114 15.5429 199.201 15.5259 199.261 15.5145L199.642 17.3156C199.521 17.3535 199.35 17.3971 199.131 17.4463C198.911 17.4993 198.644 17.5315 198.33 17.5429C197.746 17.5656 197.235 17.488 196.795 17.3099C196.36 17.1319 196.021 16.8554 195.778 16.4804C195.536 16.1054 195.417 15.6319 195.42 15.0599V6.6054Z" fill="white"/>
<rect x="217" y="33" width="145" height="34" rx="6" fill="white"/>
<path d="M231.88 47.4929C231.827 47.0223 231.608 46.6577 231.224 46.3991C230.839 46.1373 230.355 46.0064 229.772 46.0064C229.354 46.0064 228.993 46.0727 228.688 46.2053C228.383 46.3345 228.146 46.5135 227.977 46.7422C227.811 46.9676 227.729 47.2244 227.729 47.5128C227.729 47.7547 227.785 47.9635 227.898 48.1392C228.014 48.3149 228.164 48.4624 228.35 48.5817C228.539 48.6977 228.741 48.7955 228.957 48.875C229.172 48.9512 229.379 49.0142 229.578 49.0639L230.572 49.3224C230.897 49.402 231.23 49.5097 231.572 49.6456C231.913 49.7815 232.23 49.9605 232.521 50.1825C232.813 50.4046 233.048 50.6797 233.227 51.0078C233.409 51.3359 233.501 51.7287 233.501 52.1861C233.501 52.7628 233.351 53.2749 233.053 53.7223C232.758 54.1697 232.329 54.5227 231.766 54.7812C231.205 55.0398 230.528 55.169 229.732 55.169C228.97 55.169 228.31 55.0481 227.753 54.8061C227.197 54.5642 226.761 54.2211 226.446 53.777C226.131 53.3295 225.957 52.7992 225.924 52.1861H227.465C227.495 52.554 227.614 52.8606 227.823 53.1058C228.035 53.3478 228.305 53.5284 228.633 53.6477C228.965 53.7637 229.328 53.8217 229.722 53.8217C230.156 53.8217 230.543 53.7538 230.881 53.6179C231.222 53.4787 231.49 53.2865 231.686 53.0412C231.882 52.7926 231.979 52.5026 231.979 52.1712C231.979 51.8696 231.893 51.6226 231.721 51.4304C231.552 51.2382 231.321 51.0791 231.03 50.9531C230.741 50.8272 230.415 50.7161 230.05 50.62L228.847 50.2919C228.032 50.0698 227.386 49.7434 226.908 49.3125C226.434 48.8816 226.197 48.3116 226.197 47.6023C226.197 47.0156 226.356 46.5036 226.675 46.0661C226.993 45.6286 227.424 45.2888 227.967 45.0469C228.511 44.8016 229.124 44.679 229.807 44.679C230.496 44.679 231.104 44.8 231.631 45.0419C232.162 45.2839 232.579 45.617 232.884 46.0412C233.189 46.4621 233.348 46.946 233.361 47.4929H231.88ZM238.508 55.1541C237.756 55.1541 237.108 54.9934 236.564 54.6719C236.024 54.3471 235.607 53.8913 235.312 53.3047C235.02 52.7147 234.874 52.0237 234.874 51.2315C234.874 50.4493 235.02 49.7599 235.312 49.1634C235.607 48.5668 236.017 48.1011 236.544 47.7663C237.075 47.4316 237.695 47.2642 238.404 47.2642C238.835 47.2642 239.252 47.3355 239.657 47.478C240.061 47.6205 240.424 47.8442 240.745 48.1491C241.067 48.4541 241.321 48.8501 241.506 49.3374C241.692 49.8213 241.785 50.4096 241.785 51.1023V51.6293H235.714V50.5156H240.328C240.328 50.1245 240.248 49.7782 240.089 49.4766C239.93 49.1716 239.706 48.9313 239.418 48.7557C239.133 48.58 238.798 48.4922 238.414 48.4922C237.996 48.4922 237.632 48.5949 237.32 48.8004C237.012 49.0026 236.773 49.2678 236.604 49.5959C236.438 49.9207 236.356 50.2737 236.356 50.6548V51.5249C236.356 52.0353 236.445 52.4695 236.624 52.8274C236.806 53.1854 237.06 53.4588 237.385 53.6477C237.709 53.8333 238.089 53.9261 238.523 53.9261C238.805 53.9261 239.062 53.8864 239.294 53.8068C239.526 53.724 239.726 53.6013 239.895 53.4389C240.064 53.2765 240.194 53.076 240.283 52.8374L241.69 53.0909C241.577 53.5052 241.375 53.8681 241.084 54.1797C240.795 54.4879 240.432 54.7282 239.995 54.9006C239.561 55.0696 239.065 55.1541 238.508 55.1541ZM244.92 44.8182V55H243.434V44.8182H244.92ZM250.211 55.1541C249.459 55.1541 248.811 54.9934 248.267 54.6719C247.727 54.3471 247.31 53.8913 247.015 53.3047C246.723 52.7147 246.577 52.0237 246.577 51.2315C246.577 50.4493 246.723 49.7599 247.015 49.1634C247.31 48.5668 247.721 48.1011 248.248 47.7663C248.778 47.4316 249.398 47.2642 250.107 47.2642C250.538 47.2642 250.955 47.3355 251.36 47.478C251.764 47.6205 252.127 47.8442 252.449 48.1491C252.77 48.4541 253.024 48.8501 253.209 49.3374C253.395 49.8213 253.488 50.4096 253.488 51.1023V51.6293H247.417V50.5156H252.031C252.031 50.1245 251.951 49.7782 251.792 49.4766C251.633 49.1716 251.41 48.9313 251.121 48.7557C250.836 48.58 250.501 48.4922 250.117 48.4922C249.699 48.4922 249.335 48.5949 249.023 48.8004C248.715 49.0026 248.476 49.2678 248.307 49.5959C248.142 49.9207 248.059 50.2737 248.059 50.6548V51.5249C248.059 52.0353 248.148 52.4695 248.327 52.8274C248.509 53.1854 248.763 53.4588 249.088 53.6477C249.413 53.8333 249.792 53.9261 250.226 53.9261C250.508 53.9261 250.765 53.8864 250.997 53.8068C251.229 53.724 251.429 53.6013 251.598 53.4389C251.767 53.2765 251.897 53.076 251.986 52.8374L253.393 53.0909C253.281 53.5052 253.078 53.8681 252.787 54.1797C252.498 54.4879 252.135 54.7282 251.698 54.9006C251.264 55.0696 250.768 55.1541 250.211 55.1541ZM258.354 55.1541C257.614 55.1541 256.978 54.9867 256.445 54.652C255.914 54.3139 255.507 53.8482 255.222 53.255C254.936 52.6617 254.794 51.9822 254.794 51.2166C254.794 50.4411 254.94 49.7566 255.231 49.1634C255.523 48.5668 255.934 48.1011 256.464 47.7663C256.995 47.4316 257.619 47.2642 258.339 47.2642C258.919 47.2642 259.436 47.3719 259.89 47.5874C260.344 47.7995 260.71 48.0978 260.989 48.4822C261.27 48.8667 261.438 49.3158 261.491 49.8295H260.044C259.964 49.4716 259.782 49.1634 259.497 48.9048C259.215 48.6463 258.838 48.517 258.364 48.517C257.949 48.517 257.586 48.6264 257.275 48.8452C256.967 49.0606 256.726 49.3688 256.554 49.7699C256.382 50.1676 256.295 50.6383 256.295 51.1818C256.295 51.7386 256.38 52.2192 256.549 52.6236C256.718 53.0279 256.957 53.3411 257.265 53.5632C257.576 53.7853 257.943 53.8963 258.364 53.8963C258.645 53.8963 258.9 53.8449 259.129 53.7422C259.361 53.6361 259.555 53.4853 259.711 53.2898C259.87 53.0942 259.981 52.8589 260.044 52.5838H261.491C261.438 53.0777 261.277 53.5185 261.008 53.9062C260.74 54.294 260.38 54.599 259.93 54.821C259.482 55.0431 258.957 55.1541 258.354 55.1541ZM266.645 47.3636V48.5568H262.474V47.3636H266.645ZM263.592 45.5341H265.079V52.7578C265.079 53.0462 265.122 53.2633 265.208 53.4091C265.294 53.5516 265.405 53.6494 265.541 53.7024C265.68 53.7521 265.831 53.777 265.994 53.777C266.113 53.777 266.217 53.7687 266.307 53.7521C266.396 53.7356 266.466 53.7223 266.516 53.7124L266.784 54.9403C266.698 54.9735 266.575 55.0066 266.416 55.0398C266.257 55.0762 266.058 55.0961 265.82 55.0994C265.429 55.1061 265.064 55.0365 264.726 54.8906C264.388 54.7448 264.114 54.5194 263.906 54.2145C263.697 53.9096 263.592 53.5268 263.592 53.0661V45.5341ZM272.114 55V44.8182H275.743C276.535 44.8182 277.191 44.9624 277.712 45.2507C278.232 45.5391 278.622 45.9335 278.88 46.4339C279.139 46.9311 279.268 47.4912 279.268 48.1143C279.268 48.7408 279.137 49.3042 278.875 49.8047C278.617 50.3018 278.225 50.6963 277.702 50.9879C277.181 51.2763 276.527 51.4205 275.738 51.4205H273.242V50.1179H275.599C276.099 50.1179 276.505 50.0317 276.817 49.8594C277.128 49.6837 277.357 49.4451 277.503 49.1435C277.649 48.8419 277.722 48.4988 277.722 48.1143C277.722 47.7299 277.649 47.3885 277.503 47.0902C277.357 46.7919 277.127 46.5582 276.812 46.3892C276.5 46.2202 276.089 46.1357 275.579 46.1357H273.65V55H272.114ZM280.949 55V47.3636H282.386V48.5767H282.466C282.605 48.1657 282.85 47.8426 283.202 47.6072C283.556 47.3686 283.957 47.2493 284.405 47.2493C284.498 47.2493 284.607 47.2526 284.733 47.2592C284.862 47.2659 284.963 47.2741 285.036 47.2841V48.706C284.976 48.6894 284.87 48.6712 284.718 48.6513C284.565 48.6281 284.413 48.6165 284.261 48.6165C283.909 48.6165 283.596 48.6911 283.321 48.8402C283.049 48.986 282.834 49.1899 282.675 49.4517C282.516 49.7102 282.436 50.0052 282.436 50.3366V55H280.949ZM289.266 55.1541C288.55 55.1541 287.925 54.9901 287.391 54.6619C286.858 54.3338 286.444 53.8748 286.149 53.2848C285.854 52.6948 285.706 52.0054 285.706 51.2166C285.706 50.4245 285.854 49.7318 286.149 49.1385C286.444 48.5452 286.858 48.0845 287.391 47.7564C287.925 47.4283 288.55 47.2642 289.266 47.2642C289.982 47.2642 290.606 47.4283 291.14 47.7564C291.674 48.0845 292.088 48.5452 292.383 49.1385C292.678 49.7318 292.825 50.4245 292.825 51.2166C292.825 52.0054 292.678 52.6948 292.383 53.2848C292.088 53.8748 291.674 54.3338 291.14 54.6619C290.606 54.9901 289.982 55.1541 289.266 55.1541ZM289.271 53.9062C289.735 53.9062 290.119 53.7836 290.424 53.5384C290.729 53.2931 290.954 52.9666 291.1 52.5589C291.249 52.1513 291.324 51.7022 291.324 51.2116C291.324 50.7244 291.249 50.277 291.1 49.8693C290.954 49.4583 290.729 49.1286 290.424 48.88C290.119 48.6314 289.735 48.5071 289.271 48.5071C288.803 48.5071 288.416 48.6314 288.107 48.88C287.802 49.1286 287.575 49.4583 287.426 49.8693C287.28 50.277 287.207 50.7244 287.207 51.2116C287.207 51.7022 287.28 52.1513 287.426 52.5589C287.575 52.9666 287.802 53.2931 288.107 53.5384C288.416 53.7836 288.803 53.9062 289.271 53.9062ZM294.485 55V47.3636H295.911V48.6065H296.006C296.165 48.1856 296.425 47.8575 296.786 47.6222C297.148 47.3835 297.58 47.2642 298.084 47.2642C298.594 47.2642 299.022 47.3835 299.367 47.6222C299.715 47.8608 299.972 48.1889 300.137 48.6065H300.217C300.399 48.1989 300.689 47.8741 301.087 47.6321C301.485 47.3868 301.959 47.2642 302.509 47.2642C303.201 47.2642 303.767 47.4813 304.204 47.9155C304.645 48.3497 304.865 49.0043 304.865 49.8793V55H303.379V50.0185C303.379 49.5014 303.238 49.1269 302.956 48.8949C302.675 48.6629 302.338 48.5469 301.947 48.5469C301.463 48.5469 301.087 48.696 300.818 48.9943C300.55 49.2893 300.416 49.6688 300.416 50.1328V55H298.934V49.924C298.934 49.5097 298.805 49.1766 298.546 48.9247C298.288 48.6728 297.951 48.5469 297.537 48.5469C297.255 48.5469 296.995 48.6214 296.757 48.7706C296.521 48.9164 296.331 49.1203 296.185 49.3821C296.042 49.6439 295.971 49.9472 295.971 50.2919V55H294.485ZM310.074 55.1541C309.358 55.1541 308.734 54.9901 308.2 54.6619C307.666 54.3338 307.252 53.8748 306.957 53.2848C306.662 52.6948 306.515 52.0054 306.515 51.2166C306.515 50.4245 306.662 49.7318 306.957 49.1385C307.252 48.5452 307.666 48.0845 308.2 47.7564C308.734 47.4283 309.358 47.2642 310.074 47.2642C310.79 47.2642 311.415 47.4283 311.949 47.7564C312.482 48.0845 312.897 48.5452 313.191 49.1385C313.486 49.7318 313.634 50.4245 313.634 51.2166C313.634 52.0054 313.486 52.6948 313.191 53.2848C312.897 53.8748 312.482 54.3338 311.949 54.6619C311.415 54.9901 310.79 55.1541 310.074 55.1541ZM310.079 53.9062C310.543 53.9062 310.928 53.7836 311.233 53.5384C311.538 53.2931 311.763 52.9666 311.909 52.5589C312.058 52.1513 312.133 51.7022 312.133 51.2116C312.133 50.7244 312.058 50.277 311.909 49.8693C311.763 49.4583 311.538 49.1286 311.233 48.88C310.928 48.6314 310.543 48.5071 310.079 48.5071C309.612 48.5071 309.224 48.6314 308.916 48.88C308.611 49.1286 308.384 49.4583 308.235 49.8693C308.089 50.277 308.016 50.7244 308.016 51.2116C308.016 51.7022 308.089 52.1513 308.235 52.5589C308.384 52.9666 308.611 53.2931 308.916 53.5384C309.224 53.7836 309.612 53.9062 310.079 53.9062ZM318.858 47.3636V48.5568H314.687V47.3636H318.858ZM315.805 45.5341H317.292V52.7578C317.292 53.0462 317.335 53.2633 317.421 53.4091C317.507 53.5516 317.618 53.6494 317.754 53.7024C317.893 53.7521 318.044 53.777 318.207 53.777C318.326 53.777 318.43 53.7687 318.52 53.7521C318.609 53.7356 318.679 53.7223 318.729 53.7124L318.997 54.9403C318.911 54.9735 318.788 55.0066 318.629 55.0398C318.47 55.0762 318.271 55.0961 318.033 55.0994C317.641 55.1061 317.277 55.0365 316.939 54.8906C316.601 54.7448 316.327 54.5194 316.119 54.2145C315.91 53.9096 315.805 53.5268 315.805 53.0661V45.5341ZM320.502 55V47.3636H321.989V55H320.502ZM321.253 46.1854C320.994 46.1854 320.772 46.0992 320.587 45.9268C320.404 45.7512 320.313 45.5424 320.313 45.3004C320.313 45.0552 320.404 44.8464 320.587 44.674C320.772 44.4983 320.994 44.4105 321.253 44.4105C321.511 44.4105 321.732 44.4983 321.914 44.674C322.1 44.8464 322.193 45.0552 322.193 45.3004C322.193 45.5424 322.1 45.7512 321.914 45.9268C321.732 46.0992 321.511 46.1854 321.253 46.1854ZM327.205 55.1541C326.489 55.1541 325.864 54.9901 325.331 54.6619C324.797 54.3338 324.383 53.8748 324.088 53.2848C323.793 52.6948 323.646 52.0054 323.646 51.2166C323.646 50.4245 323.793 49.7318 324.088 49.1385C324.383 48.5452 324.797 48.0845 325.331 47.7564C325.864 47.4283 326.489 47.2642 327.205 47.2642C327.921 47.2642 328.546 47.4283 329.079 47.7564C329.613 48.0845 330.027 48.5452 330.322 49.1385C330.617 49.7318 330.765 50.4245 330.765 51.2166C330.765 52.0054 330.617 52.6948 330.322 53.2848C330.027 53.8748 329.613 54.3338 329.079 54.6619C328.546 54.9901 327.921 55.1541 327.205 55.1541ZM327.21 53.9062C327.674 53.9062 328.059 53.7836 328.364 53.5384C328.668 53.2931 328.894 52.9666 329.04 52.5589C329.189 52.1513 329.263 51.7022 329.263 51.2116C329.263 50.7244 329.189 50.277 329.04 49.8693C328.894 49.4583 328.668 49.1286 328.364 48.88C328.059 48.6314 327.674 48.5071 327.21 48.5071C326.743 48.5071 326.355 48.6314 326.047 48.88C325.742 49.1286 325.515 49.4583 325.366 49.8693C325.22 50.277 325.147 50.7244 325.147 51.2116C325.147 51.7022 325.22 52.1513 325.366 52.5589C325.515 52.9666 325.742 53.2931 326.047 53.5384C326.355 53.7836 326.743 53.9062 327.21 53.9062ZM333.911 50.4659V55H332.424V47.3636H333.851V48.6065H333.945C334.121 48.2022 334.396 47.8774 334.771 47.6321C335.149 47.3868 335.624 47.2642 336.198 47.2642C336.718 47.2642 337.174 47.3736 337.565 47.5923C337.956 47.8078 338.259 48.1293 338.475 48.5568C338.69 48.9844 338.798 49.513 338.798 50.1428V55H337.311V50.3217C337.311 49.7682 337.167 49.3357 336.879 49.0241C336.59 48.7093 336.194 48.5518 335.69 48.5518C335.346 48.5518 335.039 48.6264 334.771 48.7756C334.506 48.9247 334.295 49.1435 334.139 49.4318C333.987 49.7169 333.911 50.0616 333.911 50.4659Z" fill="#7E2EBC"/>
<path d="M348 54L352 50L348 46" stroke="#7E2EBC" stroke-width="1.67" stroke-linecap="round" stroke-linejoin="round"/>
<path d="M208.426 11.5696C208.01 11.908 207.931 12.5646 208.248 13.0362C208.565 13.5078 209.159 13.6159 209.574 13.2775L208.426 11.5696ZM275.953 23.6015L273.36 11.7317L265.464 19.8553L275.953 23.6015ZM209.574 13.2775C222.708 2.57805 249.577 -2.81317 269.441 17.3426L270.695 15.8101C249.968 -5.22132 222.061 0.461597 208.426 11.5696L209.574 13.2775Z" fill="white"/>
</svg>
