<svg width="334" height="231" viewBox="0 0 334 231" fill="none" xmlns="http://www.w3.org/2000/svg">
<path d="M139.865 59.4669C140.354 59.7338 140.532 60.3364 140.262 60.813C139.992 61.2895 139.377 61.4596 138.888 61.1927L139.865 59.4669ZM61.9998 60.3297L67.6291 50.3605L73.6704 60.1685L61.9998 60.3297ZM138.888 61.1927C126.559 54.4626 115.226 50.3068 104.084 49.3341C92.9611 48.3632 81.9568 50.5577 70.2657 56.6437L69.3072 54.8963C81.3077 48.6493 92.7003 46.3557 104.251 47.364C115.781 48.3705 127.398 52.6612 139.865 59.4669L138.888 61.1927Z" fill="white"/>
<path d="M158.655 58.7672H156.167C156.121 58.4452 156.028 58.1593 155.888 57.9093C155.748 57.6555 155.568 57.4396 155.349 57.2615C155.129 57.0835 154.875 56.9471 154.587 56.8524C154.303 56.7577 153.994 56.7104 153.661 56.7104C153.059 56.7104 152.534 56.86 152.087 57.1593C151.64 57.4547 151.294 57.8865 151.047 58.4547C150.801 59.0191 150.678 59.7047 150.678 60.5115C150.678 61.3411 150.801 62.038 151.047 62.6024C151.297 63.1668 151.646 63.593 152.093 63.8808C152.54 64.1687 153.057 64.3127 153.644 64.3127C153.974 64.3127 154.278 64.2691 154.559 64.182C154.843 64.0949 155.095 63.968 155.314 63.8013C155.534 63.6308 155.716 63.4244 155.86 63.182C156.008 62.9396 156.11 62.663 156.167 62.3524L158.655 62.3638C158.591 62.8979 158.43 63.413 158.172 63.9093C157.919 64.4017 157.576 64.843 157.144 65.2331C156.716 65.6195 156.205 65.9263 155.61 66.1536C155.019 66.3771 154.35 66.4888 153.604 66.4888C152.566 66.4888 151.638 66.254 150.82 65.7843C150.006 65.3146 149.362 64.6346 148.888 63.7445C148.419 62.8543 148.184 61.7767 148.184 60.5115C148.184 59.2426 148.422 58.163 148.9 57.2729C149.377 56.3827 150.025 55.7047 150.843 55.2388C151.661 54.7691 152.581 54.5343 153.604 54.5343C154.278 54.5343 154.903 54.629 155.479 54.8183C156.059 55.0077 156.572 55.2843 157.019 55.6479C157.466 56.0077 157.83 56.449 158.11 56.9718C158.394 57.4945 158.576 58.093 158.655 58.7672ZM162.635 54.6933V66.3297H160.214V54.6933H162.635ZM168.357 66.5002C167.474 66.5002 166.711 66.3127 166.067 65.9377C165.427 65.5589 164.932 65.0324 164.584 64.3581C164.235 63.6801 164.061 62.8941 164.061 62.0002C164.061 61.0987 164.235 60.3108 164.584 59.6365C164.932 58.9585 165.427 58.432 166.067 58.057C166.711 57.6782 167.474 57.4888 168.357 57.4888C169.239 57.4888 170.001 57.6782 170.641 58.057C171.285 58.432 171.781 58.9585 172.129 59.6365C172.478 60.3108 172.652 61.0987 172.652 62.0002C172.652 62.8941 172.478 63.6801 172.129 64.3581C171.781 65.0324 171.285 65.5589 170.641 65.9377C170.001 66.3127 169.239 66.5002 168.357 66.5002ZM168.368 64.6252C168.77 64.6252 169.105 64.5115 169.374 64.2843C169.643 64.0532 169.845 63.7388 169.982 63.3411C170.122 62.9433 170.192 62.4907 170.192 61.9831C170.192 61.4755 170.122 61.0229 169.982 60.6252C169.845 60.2274 169.643 59.913 169.374 59.682C169.105 59.4509 168.77 59.3354 168.368 59.3354C167.963 59.3354 167.622 59.4509 167.345 59.682C167.073 59.913 166.866 60.2274 166.726 60.6252C166.59 61.0229 166.521 61.4755 166.521 61.9831C166.521 62.4907 166.59 62.9433 166.726 63.3411C166.866 63.7388 167.073 64.0532 167.345 64.2843C167.622 64.5115 167.963 64.6252 168.368 64.6252ZM181.327 60.0911L179.111 60.2274C179.074 60.038 178.992 59.8676 178.867 59.7161C178.742 59.5608 178.577 59.4377 178.373 59.3468C178.172 59.2521 177.932 59.2047 177.651 59.2047C177.276 59.2047 176.96 59.2843 176.702 59.4433C176.445 59.5987 176.316 59.807 176.316 60.0683C176.316 60.2767 176.399 60.4528 176.566 60.5968C176.733 60.7407 177.019 60.8562 177.424 60.9433L179.003 61.2615C179.852 61.4358 180.485 61.7161 180.901 62.1024C181.318 62.4888 181.526 62.9964 181.526 63.6252C181.526 64.1971 181.358 64.699 181.021 65.1308C180.687 65.5627 180.229 65.8998 179.646 66.1422C179.066 66.3808 178.397 66.5002 177.64 66.5002C176.485 66.5002 175.564 66.2596 174.878 65.7786C174.197 65.2937 173.797 64.6346 173.68 63.8013L176.06 63.6763C176.132 64.0286 176.307 64.2975 176.583 64.4831C176.86 64.6649 177.214 64.7558 177.646 64.7558C178.07 64.7558 178.411 64.6744 178.668 64.5115C178.93 64.3449 179.062 64.1308 179.066 63.8695C179.062 63.6498 178.969 63.4699 178.788 63.3297C178.606 63.1858 178.325 63.0759 177.947 63.0002L176.435 62.699C175.583 62.5286 174.949 62.2331 174.532 61.8127C174.119 61.3922 173.913 60.8562 173.913 60.2047C173.913 59.6441 174.064 59.1612 174.367 58.7558C174.674 58.3505 175.104 58.038 175.657 57.8183C176.214 57.5987 176.865 57.4888 177.611 57.4888C178.714 57.4888 179.581 57.7218 180.214 58.1877C180.85 58.6536 181.221 59.288 181.327 60.0911ZM186.868 66.5002C185.97 66.5002 185.197 66.3183 184.549 65.9547C183.906 65.5873 183.409 65.0683 183.061 64.3979C182.712 63.7237 182.538 62.9263 182.538 62.0058C182.538 61.1081 182.712 60.3202 183.061 59.6422C183.409 58.9642 183.9 58.4358 184.532 58.057C185.169 57.6782 185.915 57.4888 186.771 57.4888C187.347 57.4888 187.883 57.5816 188.379 57.7672C188.879 57.949 189.315 58.2237 189.686 58.5911C190.061 58.9585 190.352 59.4206 190.561 59.9774C190.769 60.5305 190.873 61.1782 190.873 61.9206V62.5854H183.504V61.0854H188.595C188.595 60.7369 188.519 60.4282 188.368 60.1593C188.216 59.8903 188.006 59.6801 187.737 59.5286C187.472 59.3733 187.163 59.2956 186.811 59.2956C186.443 59.2956 186.118 59.3808 185.834 59.5513C185.553 59.718 185.334 59.9433 185.174 60.2274C185.015 60.5077 184.934 60.8202 184.93 61.1649V62.5911C184.93 63.0229 185.01 63.396 185.169 63.7104C185.332 64.0248 185.561 64.2672 185.856 64.4377C186.152 64.6081 186.502 64.6933 186.907 64.6933C187.176 64.6933 187.423 64.6555 187.646 64.5797C187.87 64.504 188.061 64.3903 188.22 64.2388C188.379 64.0873 188.5 63.9017 188.584 63.682L190.822 63.8297C190.709 64.3676 190.476 64.8373 190.123 65.2388C189.775 65.6365 189.324 65.9471 188.771 66.1706C188.222 66.3903 187.587 66.5002 186.868 66.5002ZM195.509 66.4718C194.846 66.4718 194.246 66.3013 193.708 65.9604C193.174 65.6157 192.749 65.11 192.435 64.4433C192.124 63.7729 191.969 62.9509 191.969 61.9774C191.969 60.9774 192.13 60.146 192.452 59.4831C192.774 58.8165 193.202 58.3183 193.736 57.9888C194.274 57.6555 194.863 57.4888 195.503 57.4888C195.992 57.4888 196.399 57.5721 196.725 57.7388C197.054 57.9017 197.319 58.1062 197.52 58.3524C197.725 58.5949 197.88 58.8335 197.986 59.0683H198.06V54.6933H200.475V66.3297H198.088V64.932H197.986C197.872 65.1744 197.711 65.4149 197.503 65.6536C197.299 65.8884 197.031 66.0835 196.702 66.2388C196.376 66.3941 195.978 66.4718 195.509 66.4718ZM196.276 64.5456C196.666 64.5456 196.996 64.4396 197.264 64.2274C197.537 64.0115 197.746 63.7104 197.889 63.324C198.037 62.9377 198.111 62.485 198.111 61.9661C198.111 61.4471 198.039 60.9964 197.895 60.6138C197.751 60.2312 197.543 59.9358 197.27 59.7274C196.997 59.5191 196.666 59.4149 196.276 59.4149C195.878 59.4149 195.543 59.5229 195.27 59.7388C194.997 59.9547 194.791 60.254 194.651 60.6365C194.511 61.0191 194.441 61.4623 194.441 61.9661C194.441 62.4737 194.511 62.9225 194.651 63.3127C194.795 63.699 195.001 64.0021 195.27 64.2218C195.543 64.4377 195.878 64.5456 196.276 64.5456ZM205.848 69.6024V57.6024H208.234V59.0683H208.342C208.448 58.8335 208.602 58.5949 208.802 58.3524C209.007 58.1062 209.272 57.9017 209.598 57.7388C209.927 57.5721 210.336 57.4888 210.825 57.4888C211.461 57.4888 212.049 57.6555 212.586 57.9888C213.124 58.3183 213.554 58.8165 213.876 59.4831C214.198 60.146 214.359 60.9774 214.359 61.9774C214.359 62.9509 214.202 63.7729 213.888 64.4433C213.577 65.11 213.153 65.6157 212.615 65.9604C212.081 66.3013 211.482 66.4718 210.819 66.4718C210.35 66.4718 209.95 66.3941 209.621 66.2388C209.295 66.0835 209.028 65.8884 208.819 65.6536C208.611 65.4149 208.452 65.1744 208.342 64.932H208.268V69.6024H205.848ZM208.217 61.9661C208.217 62.485 208.289 62.9377 208.433 63.324C208.577 63.7104 208.785 64.0115 209.058 64.2274C209.331 64.4396 209.662 64.5456 210.052 64.5456C210.446 64.5456 210.78 64.4377 211.052 64.2218C211.325 64.0021 211.532 63.699 211.672 63.3127C211.816 62.9225 211.888 62.4737 211.888 61.9661C211.888 61.4623 211.818 61.0191 211.677 60.6365C211.537 60.254 211.331 59.9547 211.058 59.7388C210.785 59.5229 210.45 59.4149 210.052 59.4149C209.658 59.4149 209.325 59.5191 209.052 59.7274C208.783 59.9358 208.577 60.2312 208.433 60.6138C208.289 60.9964 208.217 61.4471 208.217 61.9661ZM219.79 66.5002C218.892 66.5002 218.12 66.3183 217.472 65.9547C216.828 65.5873 216.332 65.0683 215.983 64.3979C215.635 63.7237 215.461 62.9263 215.461 62.0058C215.461 61.1081 215.635 60.3202 215.983 59.6422C216.332 58.9642 216.822 58.4358 217.455 58.057C218.091 57.6782 218.837 57.4888 219.694 57.4888C220.269 57.4888 220.805 57.5816 221.301 57.7672C221.801 57.949 222.237 58.2237 222.608 58.5911C222.983 58.9585 223.275 59.4206 223.483 59.9774C223.692 60.5305 223.796 61.1782 223.796 61.9206V62.5854H216.426V61.0854H221.517C221.517 60.7369 221.442 60.4282 221.29 60.1593C221.139 59.8903 220.928 59.6801 220.659 59.5286C220.394 59.3733 220.086 59.2956 219.733 59.2956C219.366 59.2956 219.04 59.3808 218.756 59.5513C218.476 59.718 218.256 59.9433 218.097 60.2274C217.938 60.5077 217.856 60.8202 217.853 61.1649V62.5911C217.853 63.0229 217.932 63.396 218.091 63.7104C218.254 64.0248 218.483 64.2672 218.779 64.4377C219.074 64.6081 219.425 64.6933 219.83 64.6933C220.099 64.6933 220.345 64.6555 220.569 64.5797C220.792 64.504 220.983 64.3903 221.142 64.2388C221.301 64.0873 221.423 63.9017 221.506 63.682L223.745 63.8297C223.631 64.3676 223.398 64.8373 223.046 65.2388C222.697 65.6365 222.247 65.9471 221.694 66.1706C221.144 66.3903 220.51 66.5002 219.79 66.5002ZM225.215 66.3297V57.6024H227.562V59.1252H227.653C227.812 58.5835 228.079 58.1744 228.454 57.8979C228.829 57.6176 229.261 57.4774 229.749 57.4774C229.871 57.4774 230.001 57.485 230.141 57.5002C230.282 57.5153 230.405 57.5362 230.511 57.5627V59.7104C230.397 59.6763 230.24 59.646 230.039 59.6195C229.838 59.593 229.655 59.5797 229.488 59.5797C229.132 59.5797 228.814 59.6574 228.534 59.8127C228.257 59.9642 228.037 60.1763 227.874 60.449C227.715 60.7218 227.636 61.0362 227.636 61.3922V66.3297H225.215ZM231.602 66.3297V57.6024H234.023V66.3297H231.602ZM232.818 56.4774C232.458 56.4774 232.15 56.3581 231.892 56.1195C231.638 55.8771 231.511 55.5873 231.511 55.2502C231.511 54.9168 231.638 54.6308 231.892 54.3922C232.15 54.1498 232.458 54.0286 232.818 54.0286C233.178 54.0286 233.485 54.1498 233.739 54.3922C233.996 54.6308 234.125 54.9168 234.125 55.2502C234.125 55.5873 233.996 55.8771 233.739 56.1195C233.485 56.3581 233.178 56.4774 232.818 56.4774ZM239.745 66.5002C238.862 66.5002 238.099 66.3127 237.455 65.9377C236.815 65.5589 236.321 65.0324 235.972 64.3581C235.624 63.6801 235.449 62.8941 235.449 62.0002C235.449 61.0987 235.624 60.3108 235.972 59.6365C236.321 58.9585 236.815 58.432 237.455 58.057C238.099 57.6782 238.862 57.4888 239.745 57.4888C240.627 57.4888 241.389 57.6782 242.029 58.057C242.673 58.432 243.169 58.9585 243.518 59.6365C243.866 60.3108 244.04 61.0987 244.04 62.0002C244.04 62.8941 243.866 63.6801 243.518 64.3581C243.169 65.0324 242.673 65.5589 242.029 65.9377C241.389 66.3127 240.627 66.5002 239.745 66.5002ZM239.756 64.6252C240.158 64.6252 240.493 64.5115 240.762 64.2843C241.031 64.0532 241.233 63.7388 241.37 63.3411C241.51 62.9433 241.58 62.4907 241.58 61.9831C241.58 61.4755 241.51 61.0229 241.37 60.6252C241.233 60.2274 241.031 59.913 240.762 59.682C240.493 59.4509 240.158 59.3354 239.756 59.3354C239.351 59.3354 239.01 59.4509 238.733 59.682C238.461 59.913 238.254 60.2274 238.114 60.6252C237.978 61.0229 237.91 61.4755 237.91 61.9831C237.91 62.4907 237.978 62.9433 238.114 63.3411C238.254 63.7388 238.461 64.0532 238.733 64.2843C239.01 64.5115 239.351 64.6252 239.756 64.6252ZM248.67 66.4718C248.007 66.4718 247.407 66.3013 246.869 65.9604C246.335 65.6157 245.911 65.11 245.596 64.4433C245.286 63.7729 245.13 62.9509 245.13 61.9774C245.13 60.9774 245.291 60.146 245.613 59.4831C245.935 58.8165 246.363 58.3183 246.897 57.9888C247.435 57.6555 248.024 57.4888 248.664 57.4888C249.153 57.4888 249.56 57.5721 249.886 57.7388C250.215 57.9017 250.481 58.1062 250.681 58.3524C250.886 58.5949 251.041 58.8335 251.147 59.0683H251.221V54.6933H253.636V66.3297H251.25V64.932H251.147C251.034 65.1744 250.873 65.4149 250.664 65.6536C250.46 65.8884 250.193 66.0835 249.863 66.2388C249.537 66.3941 249.14 66.4718 248.67 66.4718ZM249.437 64.5456C249.827 64.5456 250.157 64.4396 250.426 64.2274C250.698 64.0115 250.907 63.7104 251.051 63.324C251.198 62.9377 251.272 62.485 251.272 61.9661C251.272 61.4471 251.2 60.9964 251.056 60.6138C250.912 60.2312 250.704 59.9358 250.431 59.7274C250.159 59.5191 249.827 59.4149 249.437 59.4149C249.039 59.4149 248.704 59.5229 248.431 59.7388C248.159 59.9547 247.952 60.254 247.812 60.6365C247.672 61.0191 247.602 61.4623 247.602 61.9661C247.602 62.4737 247.672 62.9225 247.812 63.3127C247.956 63.699 248.162 64.0021 248.431 64.2218C248.704 64.4377 249.039 64.5456 249.437 64.5456Z" fill="white"/>
<path d="M139.865 115.467C140.354 115.734 140.532 116.336 140.262 116.813C139.992 117.29 139.377 117.46 138.888 117.193L139.865 115.467ZM61.9998 116.33L67.6291 106.36L73.6704 116.169L61.9998 116.33ZM138.888 117.193C126.559 110.463 115.226 106.307 104.084 105.334C92.9611 104.363 81.9568 106.558 70.2657 112.644L69.3072 110.896C81.3077 104.649 92.7003 102.356 104.251 103.364C115.781 104.371 127.398 108.661 139.865 115.467L138.888 117.193Z" fill="white"/>
<path d="M148.388 122.33V110.693H156.093V112.722H150.849V115.495H155.581V117.523H150.849V122.33H148.388ZM160.879 122.5C159.981 122.5 159.208 122.318 158.561 121.955C157.917 121.587 157.421 121.068 157.072 120.398C156.724 119.724 156.549 118.926 156.549 118.006C156.549 117.108 156.724 116.32 157.072 115.642C157.421 114.964 157.911 114.436 158.544 114.057C159.18 113.678 159.926 113.489 160.782 113.489C161.358 113.489 161.894 113.582 162.39 113.767C162.89 113.949 163.326 114.224 163.697 114.591C164.072 114.959 164.364 115.421 164.572 115.978C164.78 116.531 164.885 117.178 164.885 117.921V118.586H157.515V117.086H162.606C162.606 116.737 162.53 116.428 162.379 116.159C162.227 115.89 162.017 115.68 161.748 115.529C161.483 115.373 161.174 115.296 160.822 115.296C160.455 115.296 160.129 115.381 159.845 115.551C159.564 115.718 159.345 115.943 159.186 116.228C159.027 116.508 158.945 116.82 158.941 117.165V118.591C158.941 119.023 159.021 119.396 159.18 119.711C159.343 120.025 159.572 120.267 159.868 120.438C160.163 120.608 160.513 120.693 160.919 120.693C161.188 120.693 161.434 120.656 161.657 120.58C161.881 120.504 162.072 120.39 162.231 120.239C162.39 120.087 162.511 119.902 162.595 119.682L164.833 119.83C164.72 120.368 164.487 120.837 164.135 121.239C163.786 121.637 163.335 121.947 162.782 122.171C162.233 122.39 161.599 122.5 160.879 122.5ZM167.963 122.33L165.588 113.603H168.037L169.389 119.466H169.469L170.878 113.603H173.281L174.713 119.432H174.787L176.117 113.603H178.56L176.19 122.33H173.628L172.128 116.841H172.02L170.52 122.33H167.963ZM190.495 116.091L188.28 116.228C188.242 116.038 188.16 115.868 188.035 115.716C187.91 115.561 187.745 115.438 187.541 115.347C187.34 115.252 187.1 115.205 186.819 115.205C186.444 115.205 186.128 115.284 185.87 115.443C185.613 115.599 185.484 115.807 185.484 116.068C185.484 116.277 185.567 116.453 185.734 116.597C185.901 116.741 186.187 116.856 186.592 116.943L188.172 117.262C189.02 117.436 189.653 117.716 190.069 118.103C190.486 118.489 190.694 118.997 190.694 119.625C190.694 120.197 190.526 120.699 190.189 121.131C189.855 121.563 189.397 121.9 188.814 122.142C188.234 122.381 187.566 122.5 186.808 122.5C185.653 122.5 184.732 122.26 184.047 121.779C183.365 121.294 182.965 120.635 182.848 119.801L185.228 119.676C185.3 120.029 185.475 120.298 185.751 120.483C186.028 120.665 186.382 120.756 186.814 120.756C187.238 120.756 187.579 120.675 187.836 120.512C188.098 120.345 188.23 120.131 188.234 119.87C188.23 119.65 188.138 119.47 187.956 119.33C187.774 119.186 187.494 119.076 187.115 119L185.603 118.699C184.751 118.529 184.117 118.233 183.7 117.813C183.287 117.392 183.081 116.856 183.081 116.205C183.081 115.644 183.232 115.161 183.535 114.756C183.842 114.351 184.272 114.038 184.825 113.818C185.382 113.599 186.033 113.489 186.78 113.489C187.882 113.489 188.749 113.722 189.382 114.188C190.018 114.654 190.389 115.288 190.495 116.091ZM194.479 110.693V122.33H192.058V110.693H194.479ZM200.201 122.5C199.318 122.5 198.555 122.313 197.911 121.938C197.271 121.559 196.777 121.032 196.428 120.358C196.08 119.68 195.906 118.894 195.906 118C195.906 117.099 196.08 116.311 196.428 115.637C196.777 114.959 197.271 114.432 197.911 114.057C198.555 113.678 199.318 113.489 200.201 113.489C201.084 113.489 201.845 113.678 202.485 114.057C203.129 114.432 203.625 114.959 203.974 115.637C204.322 116.311 204.497 117.099 204.497 118C204.497 118.894 204.322 119.68 203.974 120.358C203.625 121.032 203.129 121.559 202.485 121.938C201.845 122.313 201.084 122.5 200.201 122.5ZM200.212 120.625C200.614 120.625 200.949 120.512 201.218 120.284C201.487 120.053 201.69 119.739 201.826 119.341C201.966 118.943 202.036 118.491 202.036 117.983C202.036 117.476 201.966 117.023 201.826 116.625C201.69 116.228 201.487 115.913 201.218 115.682C200.949 115.451 200.614 115.336 200.212 115.336C199.807 115.336 199.466 115.451 199.19 115.682C198.917 115.913 198.711 116.228 198.57 116.625C198.434 117.023 198.366 117.476 198.366 117.983C198.366 118.491 198.434 118.943 198.57 119.341C198.711 119.739 198.917 120.053 199.19 120.284C199.466 120.512 199.807 120.625 200.212 120.625ZM210.552 113.603V115.421H205.297V113.603H210.552ZM206.49 111.512H208.91V119.648C208.91 119.872 208.944 120.046 209.013 120.171C209.081 120.292 209.176 120.377 209.297 120.426C209.422 120.476 209.566 120.5 209.729 120.5C209.842 120.5 209.956 120.491 210.069 120.472C210.183 120.449 210.27 120.432 210.331 120.421L210.711 122.222C210.59 122.26 210.42 122.303 210.2 122.353C209.98 122.406 209.713 122.438 209.399 122.449C208.816 122.472 208.304 122.394 207.865 122.216C207.429 122.038 207.09 121.762 206.848 121.387C206.605 121.012 206.486 120.538 206.49 119.966V111.512ZM219.121 116.091L216.905 116.228C216.867 116.038 216.786 115.868 216.661 115.716C216.536 115.561 216.371 115.438 216.167 115.347C215.966 115.252 215.725 115.205 215.445 115.205C215.07 115.205 214.754 115.284 214.496 115.443C214.239 115.599 214.11 115.807 214.11 116.068C214.11 116.277 214.193 116.453 214.36 116.597C214.526 116.741 214.812 116.856 215.218 116.943L216.797 117.262C217.646 117.436 218.278 117.716 218.695 118.103C219.112 118.489 219.32 118.997 219.32 119.625C219.32 120.197 219.151 120.699 218.814 121.131C218.481 121.563 218.023 121.9 217.439 122.142C216.86 122.381 216.191 122.5 215.434 122.5C214.278 122.5 213.358 122.26 212.672 121.779C211.99 121.294 211.591 120.635 211.473 119.801L213.854 119.676C213.926 120.029 214.1 120.298 214.377 120.483C214.653 120.665 215.007 120.756 215.439 120.756C215.864 120.756 216.204 120.675 216.462 120.512C216.723 120.345 216.856 120.131 216.86 119.87C216.856 119.65 216.763 119.47 216.581 119.33C216.4 119.186 216.119 119.076 215.74 119L214.229 118.699C213.377 118.529 212.742 118.233 212.326 117.813C211.913 117.392 211.706 116.856 211.706 116.205C211.706 115.644 211.858 115.161 212.161 114.756C212.468 114.351 212.898 114.038 213.451 113.818C214.007 113.599 214.659 113.489 215.405 113.489C216.507 113.489 217.375 113.722 218.007 114.188C218.644 114.654 219.015 115.288 219.121 116.091ZM226.648 110.693V122.33H224.227V110.693H226.648ZM232.404 122.5C231.506 122.5 230.733 122.318 230.086 121.955C229.442 121.587 228.946 121.068 228.597 120.398C228.249 119.724 228.074 118.926 228.074 118.006C228.074 117.108 228.249 116.32 228.597 115.642C228.946 114.964 229.436 114.436 230.069 114.057C230.705 113.678 231.451 113.489 232.307 113.489C232.883 113.489 233.419 113.582 233.915 113.767C234.415 113.949 234.851 114.224 235.222 114.591C235.597 114.959 235.889 115.421 236.097 115.978C236.305 116.531 236.41 117.178 236.41 117.921V118.586H229.04V117.086H234.131C234.131 116.737 234.055 116.428 233.904 116.159C233.752 115.89 233.542 115.68 233.273 115.529C233.008 115.373 232.699 115.296 232.347 115.296C231.98 115.296 231.654 115.381 231.37 115.551C231.089 115.718 230.87 115.943 230.711 116.228C230.552 116.508 230.47 116.82 230.466 117.165V118.591C230.466 119.023 230.546 119.396 230.705 119.711C230.868 120.025 231.097 120.267 231.393 120.438C231.688 120.608 232.038 120.693 232.444 120.693C232.713 120.693 232.959 120.656 233.182 120.58C233.406 120.504 233.597 120.39 233.756 120.239C233.915 120.087 234.036 119.902 234.12 119.682L236.358 119.83C236.245 120.368 236.012 120.837 235.66 121.239C235.311 121.637 234.86 121.947 234.307 122.171C233.758 122.39 233.124 122.5 232.404 122.5ZM242.522 113.603V115.421H237.136V113.603H242.522ZM238.369 122.33V112.972C238.369 112.339 238.492 111.815 238.738 111.398C238.988 110.981 239.329 110.669 239.761 110.461C240.193 110.252 240.683 110.148 241.233 110.148C241.604 110.148 241.943 110.176 242.25 110.233C242.56 110.29 242.791 110.341 242.943 110.387L242.511 112.205C242.416 112.175 242.299 112.146 242.159 112.12C242.022 112.093 241.882 112.08 241.738 112.08C241.382 112.08 241.134 112.163 240.994 112.33C240.854 112.493 240.784 112.722 240.784 113.017V122.33H238.369ZM248.483 113.603V115.421H243.227V113.603H248.483ZM244.421 111.512H246.841V119.648C246.841 119.872 246.875 120.046 246.943 120.171C247.011 120.292 247.106 120.377 247.227 120.426C247.352 120.476 247.496 120.5 247.659 120.5C247.773 120.5 247.886 120.491 248 120.472C248.114 120.449 248.201 120.432 248.261 120.421L248.642 122.222C248.521 122.26 248.35 122.303 248.131 122.353C247.911 122.406 247.644 122.438 247.33 122.449C246.746 122.472 246.235 122.394 245.796 122.216C245.36 122.038 245.021 121.762 244.778 121.387C244.536 121.012 244.417 120.538 244.421 119.966V111.512Z" fill="white"/>
<path d="M139.865 171.467C140.354 171.734 140.532 172.336 140.262 172.813C139.992 173.29 139.377 173.46 138.888 173.193L139.865 171.467ZM61.9998 172.33L67.6291 162.36L73.6704 172.169L61.9998 172.33ZM138.888 173.193C126.559 166.463 115.226 162.307 104.084 161.334C92.9611 160.363 81.9568 162.558 70.2657 168.644L69.3072 166.896C81.3077 160.649 92.7003 158.356 104.251 159.364C115.781 160.371 127.398 164.661 139.865 171.467L138.888 173.193Z" fill="white"/>
<path d="M157.744 166.693V178.33H155.619L150.557 171.006H150.472V178.33H148.011V166.693H150.17L155.193 174.012H155.295V166.693H157.744ZM163.515 178.5C162.632 178.5 161.869 178.313 161.225 177.938C160.585 177.559 160.09 177.032 159.742 176.358C159.394 175.68 159.219 174.894 159.219 174C159.219 173.099 159.394 172.311 159.742 171.637C160.09 170.959 160.585 170.432 161.225 170.057C161.869 169.678 162.632 169.489 163.515 169.489C164.397 169.489 165.159 169.678 165.799 170.057C166.443 170.432 166.939 170.959 167.287 171.637C167.636 172.311 167.81 173.099 167.81 174C167.81 174.894 167.636 175.68 167.287 176.358C166.939 177.032 166.443 177.559 165.799 177.938C165.159 178.313 164.397 178.5 163.515 178.5ZM163.526 176.625C163.928 176.625 164.263 176.512 164.532 176.284C164.801 176.053 165.003 175.739 165.14 175.341C165.28 174.943 165.35 174.491 165.35 173.983C165.35 173.476 165.28 173.023 165.14 172.625C165.003 172.228 164.801 171.913 164.532 171.682C164.263 171.451 163.928 171.336 163.526 171.336C163.121 171.336 162.78 171.451 162.503 171.682C162.231 171.913 162.024 172.228 161.884 172.625C161.748 173.023 161.679 173.476 161.679 173.983C161.679 174.491 161.748 174.943 161.884 175.341C162.024 175.739 162.231 176.053 162.503 176.284C162.78 176.512 163.121 176.625 163.526 176.625ZM180.029 172.091L177.813 172.228C177.775 172.038 177.693 171.868 177.568 171.716C177.443 171.561 177.279 171.438 177.074 171.347C176.873 171.252 176.633 171.205 176.352 171.205C175.977 171.205 175.661 171.284 175.404 171.443C175.146 171.599 175.017 171.807 175.017 172.068C175.017 172.277 175.1 172.453 175.267 172.597C175.434 172.741 175.72 172.856 176.125 172.943L177.705 173.262C178.553 173.436 179.186 173.716 179.602 174.103C180.019 174.489 180.227 174.997 180.227 175.625C180.227 176.197 180.059 176.699 179.722 177.131C179.388 177.563 178.93 177.9 178.347 178.142C177.767 178.381 177.099 178.5 176.341 178.5C175.186 178.5 174.265 178.26 173.58 177.779C172.898 177.294 172.498 176.635 172.381 175.801L174.761 175.676C174.833 176.029 175.008 176.298 175.284 176.483C175.561 176.665 175.915 176.756 176.347 176.756C176.771 176.756 177.112 176.675 177.369 176.512C177.631 176.345 177.763 176.131 177.767 175.87C177.763 175.65 177.671 175.47 177.489 175.33C177.307 175.186 177.027 175.076 176.648 175L175.136 174.699C174.284 174.529 173.65 174.233 173.233 173.813C172.82 173.392 172.614 172.856 172.614 172.205C172.614 171.644 172.765 171.161 173.068 170.756C173.375 170.351 173.805 170.038 174.358 169.818C174.915 169.599 175.566 169.489 176.313 169.489C177.415 169.489 178.282 169.722 178.915 170.188C179.551 170.654 179.922 171.288 180.029 172.091ZM184.012 166.693V178.33H181.592V166.693H184.012ZM189.734 178.5C188.852 178.5 188.088 178.313 187.444 177.938C186.804 177.559 186.31 177.032 185.961 176.358C185.613 175.68 185.439 174.894 185.439 174C185.439 173.099 185.613 172.311 185.961 171.637C186.31 170.959 186.804 170.432 187.444 170.057C188.088 169.678 188.852 169.489 189.734 169.489C190.617 169.489 191.378 169.678 192.018 170.057C192.662 170.432 193.158 170.959 193.507 171.637C193.855 172.311 194.03 173.099 194.03 174C194.03 174.894 193.855 175.68 193.507 176.358C193.158 177.032 192.662 177.559 192.018 177.938C191.378 178.313 190.617 178.5 189.734 178.5ZM189.745 176.625C190.147 176.625 190.482 176.512 190.751 176.284C191.02 176.053 191.223 175.739 191.359 175.341C191.499 174.943 191.569 174.491 191.569 173.983C191.569 173.476 191.499 173.023 191.359 172.625C191.223 172.228 191.02 171.913 190.751 171.682C190.482 171.451 190.147 171.336 189.745 171.336C189.34 171.336 188.999 171.451 188.723 171.682C188.45 171.913 188.244 172.228 188.103 172.625C187.967 173.023 187.899 173.476 187.899 173.983C187.899 174.491 187.967 174.943 188.103 175.341C188.244 175.739 188.45 176.053 188.723 176.284C188.999 176.512 189.34 176.625 189.745 176.625ZM200.085 169.603V171.421H194.83V169.603H200.085ZM196.023 167.512H198.443V175.648C198.443 175.872 198.478 176.046 198.546 176.171C198.614 176.292 198.709 176.377 198.83 176.426C198.955 176.476 199.099 176.5 199.262 176.5C199.375 176.5 199.489 176.491 199.603 176.472C199.716 176.449 199.803 176.432 199.864 176.421L200.245 178.222C200.123 178.26 199.953 178.303 199.733 178.353C199.513 178.406 199.246 178.438 198.932 178.449C198.349 178.472 197.837 178.394 197.398 178.216C196.962 178.038 196.623 177.762 196.381 177.387C196.138 177.012 196.019 176.538 196.023 175.966V167.512ZM207.534 178.495C206.977 178.495 206.481 178.398 206.045 178.205C205.61 178.008 205.265 177.718 205.011 177.336C204.761 176.949 204.636 176.468 204.636 175.892C204.636 175.407 204.725 175 204.903 174.671C205.081 174.341 205.324 174.076 205.631 173.875C205.937 173.675 206.286 173.523 206.676 173.421C207.07 173.318 207.483 173.247 207.915 173.205C208.422 173.152 208.831 173.103 209.142 173.057C209.452 173.008 209.678 172.936 209.818 172.841C209.958 172.747 210.028 172.606 210.028 172.421V172.387C210.028 172.027 209.915 171.748 209.687 171.551C209.464 171.354 209.146 171.256 208.733 171.256C208.297 171.256 207.951 171.353 207.693 171.546C207.435 171.735 207.265 171.974 207.182 172.262L204.943 172.08C205.057 171.55 205.28 171.091 205.613 170.705C205.947 170.315 206.377 170.015 206.903 169.807C207.434 169.595 208.047 169.489 208.744 169.489C209.229 169.489 209.693 169.546 210.136 169.659C210.583 169.773 210.979 169.949 211.324 170.188C211.672 170.426 211.947 170.733 212.148 171.108C212.348 171.479 212.449 171.925 212.449 172.443V178.33H210.153V177.12H210.085C209.945 177.392 209.757 177.633 209.523 177.841C209.288 178.046 209.006 178.207 208.676 178.324C208.346 178.438 207.966 178.495 207.534 178.495ZM208.227 176.824C208.583 176.824 208.898 176.754 209.17 176.614C209.443 176.47 209.657 176.277 209.812 176.034C209.968 175.792 210.045 175.517 210.045 175.211V174.284C209.97 174.334 209.865 174.379 209.733 174.421C209.604 174.459 209.458 174.495 209.295 174.529C209.132 174.559 208.97 174.587 208.807 174.614C208.644 174.637 208.496 174.657 208.363 174.676C208.079 174.718 207.831 174.784 207.619 174.875C207.407 174.966 207.242 175.089 207.125 175.245C207.007 175.396 206.949 175.586 206.949 175.813C206.949 176.142 207.068 176.394 207.307 176.568C207.549 176.739 207.856 176.824 208.227 176.824ZM221.99 169.603L218.939 178.33H216.212L213.161 169.603H215.718L217.53 175.847H217.621L219.428 169.603H221.99ZM225.323 178.495C224.766 178.495 224.27 178.398 223.835 178.205C223.399 178.008 223.054 177.718 222.801 177.336C222.551 176.949 222.426 176.468 222.426 175.892C222.426 175.407 222.515 175 222.693 174.671C222.871 174.341 223.113 174.076 223.42 173.875C223.727 173.675 224.075 173.523 224.465 173.421C224.859 173.318 225.272 173.247 225.704 173.205C226.212 173.152 226.621 173.103 226.931 173.057C227.242 173.008 227.467 172.936 227.607 172.841C227.748 172.747 227.818 172.606 227.818 172.421V172.387C227.818 172.027 227.704 171.748 227.477 171.551C227.253 171.354 226.935 171.256 226.522 171.256C226.087 171.256 225.74 171.353 225.482 171.546C225.225 171.735 225.054 171.974 224.971 172.262L222.732 172.08C222.846 171.55 223.07 171.091 223.403 170.705C223.736 170.315 224.166 170.015 224.693 169.807C225.223 169.595 225.837 169.489 226.534 169.489C227.018 169.489 227.482 169.546 227.926 169.659C228.373 169.773 228.768 169.949 229.113 170.188C229.462 170.426 229.736 170.733 229.937 171.108C230.138 171.479 230.238 171.925 230.238 172.443V178.33H227.943V177.12H227.874C227.734 177.392 227.547 177.633 227.312 177.841C227.077 178.046 226.795 178.207 226.465 178.324C226.136 178.438 225.755 178.495 225.323 178.495ZM226.016 176.824C226.373 176.824 226.687 176.754 226.96 176.614C227.232 176.47 227.446 176.277 227.602 176.034C227.757 175.792 227.835 175.517 227.835 175.211V174.284C227.759 174.334 227.655 174.379 227.522 174.421C227.393 174.459 227.248 174.495 227.085 174.529C226.922 174.559 226.759 174.587 226.596 174.614C226.433 174.637 226.285 174.657 226.153 174.676C225.869 174.718 225.621 174.784 225.409 174.875C225.196 174.966 225.032 175.089 224.914 175.245C224.797 175.396 224.738 175.586 224.738 175.813C224.738 176.142 224.857 176.394 225.096 176.568C225.338 176.739 225.645 176.824 226.016 176.824ZM231.956 178.33V169.603H234.376V178.33H231.956ZM233.172 168.478C232.812 168.478 232.503 168.358 232.246 168.12C231.992 167.877 231.865 167.587 231.865 167.25C231.865 166.917 231.992 166.631 232.246 166.392C232.503 166.15 232.812 166.029 233.172 166.029C233.532 166.029 233.838 166.15 234.092 166.392C234.35 166.631 234.479 166.917 234.479 167.25C234.479 167.587 234.35 167.877 234.092 168.12C233.838 168.358 233.532 168.478 233.172 168.478ZM238.576 166.693V178.33H236.155V166.693H238.576ZM242.843 178.495C242.286 178.495 241.79 178.398 241.355 178.205C240.919 178.008 240.574 177.718 240.321 177.336C240.071 176.949 239.946 176.468 239.946 175.892C239.946 175.407 240.035 175 240.213 174.671C240.391 174.341 240.633 174.076 240.94 173.875C241.247 173.675 241.595 173.523 241.985 173.421C242.379 173.318 242.792 173.247 243.224 173.205C243.732 173.152 244.141 173.103 244.451 173.057C244.762 173.008 244.987 172.936 245.127 172.841C245.268 172.747 245.338 172.606 245.338 172.421V172.387C245.338 172.027 245.224 171.748 244.997 171.551C244.773 171.354 244.455 171.256 244.042 171.256C243.607 171.256 243.26 171.353 243.002 171.546C242.745 171.735 242.574 171.974 242.491 172.262L240.252 172.08C240.366 171.55 240.59 171.091 240.923 170.705C241.256 170.315 241.686 170.015 242.213 169.807C242.743 169.595 243.357 169.489 244.054 169.489C244.538 169.489 245.002 169.546 245.446 169.659C245.893 169.773 246.288 169.949 246.633 170.188C246.982 170.426 247.256 170.733 247.457 171.108C247.658 171.479 247.758 171.925 247.758 172.443V178.33H245.463V177.12H245.394C245.254 177.392 245.067 177.633 244.832 177.841C244.597 178.046 244.315 178.207 243.985 178.324C243.656 178.438 243.275 178.495 242.843 178.495ZM243.536 176.824C243.893 176.824 244.207 176.754 244.48 176.614C244.752 176.47 244.966 176.277 245.122 176.034C245.277 175.792 245.355 175.517 245.355 175.211V174.284C245.279 174.334 245.175 174.379 245.042 174.421C244.913 174.459 244.768 174.495 244.605 174.529C244.442 174.559 244.279 174.587 244.116 174.614C243.953 174.637 243.805 174.657 243.673 174.676C243.389 174.718 243.141 174.784 242.929 174.875C242.716 174.966 242.552 175.089 242.434 175.245C242.317 175.396 242.258 175.586 242.258 175.813C242.258 176.142 242.377 176.394 242.616 176.568C242.858 176.739 243.165 176.824 243.536 176.824ZM249.521 178.33V166.693H251.942V171.068H252.016C252.122 170.834 252.275 170.595 252.476 170.353C252.68 170.106 252.946 169.902 253.271 169.739C253.601 169.572 254.01 169.489 254.499 169.489C255.135 169.489 255.722 169.656 256.26 169.989C256.798 170.318 257.228 170.817 257.55 171.483C257.872 172.146 258.033 172.978 258.033 173.978C258.033 174.951 257.876 175.773 257.561 176.443C257.251 177.11 256.826 177.616 256.288 177.961C255.754 178.301 255.156 178.472 254.493 178.472C254.023 178.472 253.624 178.394 253.294 178.239C252.968 178.084 252.701 177.889 252.493 177.654C252.285 177.415 252.126 177.175 252.016 176.932H251.908V178.33H249.521ZM251.891 173.966C251.891 174.485 251.963 174.938 252.107 175.324C252.251 175.711 252.459 176.012 252.732 176.228C253.004 176.44 253.336 176.546 253.726 176.546C254.12 176.546 254.453 176.438 254.726 176.222C254.999 176.002 255.205 175.699 255.345 175.313C255.489 174.923 255.561 174.474 255.561 173.966C255.561 173.462 255.491 173.019 255.351 172.637C255.211 172.254 255.004 171.955 254.732 171.739C254.459 171.523 254.124 171.415 253.726 171.415C253.332 171.415 252.999 171.519 252.726 171.728C252.457 171.936 252.251 172.231 252.107 172.614C251.963 172.997 251.891 173.447 251.891 173.966ZM261.908 166.693V178.33H259.488V166.693H261.908ZM267.664 178.5C266.767 178.5 265.994 178.318 265.346 177.955C264.702 177.587 264.206 177.068 263.858 176.398C263.509 175.724 263.335 174.926 263.335 174.006C263.335 173.108 263.509 172.32 263.858 171.642C264.206 170.964 264.697 170.436 265.329 170.057C265.966 169.678 266.712 169.489 267.568 169.489C268.144 169.489 268.68 169.582 269.176 169.767C269.676 169.949 270.111 170.224 270.483 170.591C270.858 170.959 271.149 171.421 271.358 171.978C271.566 172.531 271.67 173.178 271.67 173.921V174.586H264.301V173.086H269.392C269.392 172.737 269.316 172.428 269.164 172.159C269.013 171.89 268.803 171.68 268.534 171.529C268.269 171.373 267.96 171.296 267.608 171.296C267.24 171.296 266.914 171.381 266.63 171.551C266.35 171.718 266.13 171.943 265.971 172.228C265.812 172.508 265.731 172.82 265.727 173.165V174.591C265.727 175.023 265.806 175.396 265.966 175.711C266.128 176.025 266.358 176.267 266.653 176.438C266.949 176.608 267.299 176.693 267.704 176.693C267.973 176.693 268.219 176.656 268.443 176.58C268.666 176.504 268.858 176.39 269.017 176.239C269.176 176.087 269.297 175.902 269.38 175.682L271.619 175.83C271.505 176.368 271.272 176.837 270.92 177.239C270.572 177.637 270.121 177.947 269.568 178.171C269.019 178.39 268.384 178.5 267.664 178.5Z" fill="white"/>
<path d="M148.432 197.239C148.432 195.993 148.596 194.846 148.924 193.799C149.252 192.751 149.731 191.785 150.361 190.9H151.723C151.478 191.228 151.249 191.631 151.037 192.108C150.825 192.586 150.639 193.109 150.48 193.679C150.321 194.246 150.197 194.834 150.107 195.444C150.018 196.051 149.973 196.649 149.973 197.239C149.973 198.028 150.051 198.827 150.207 199.635C150.362 200.444 150.573 201.195 150.838 201.887C151.103 202.58 151.398 203.145 151.723 203.583H150.361C149.731 202.698 149.252 201.732 148.924 200.684C148.596 199.637 148.432 198.488 148.432 197.239ZM154.946 192.148V202.33H153.41V192.148H154.946ZM160.698 194.693V195.887H156.383V194.693H160.698ZM157.566 202.33V193.809C157.566 193.331 157.67 192.935 157.879 192.62C158.088 192.302 158.365 192.065 158.709 191.909C159.054 191.75 159.429 191.671 159.833 191.671C160.131 191.671 160.386 191.696 160.599 191.745C160.811 191.792 160.968 191.835 161.071 191.875L160.723 193.078C160.653 193.058 160.564 193.035 160.454 193.008C160.345 192.978 160.212 192.963 160.057 192.963C159.695 192.963 159.437 193.053 159.281 193.232C159.129 193.411 159.052 193.669 159.052 194.007V202.33H157.566ZM166.876 205.193C166.654 205.193 166.452 205.175 166.27 205.139C166.088 205.106 165.952 205.069 165.862 205.029L166.22 203.811C166.492 203.884 166.734 203.916 166.946 203.906C167.158 203.896 167.345 203.816 167.508 203.667C167.674 203.518 167.819 203.274 167.945 202.936L168.129 202.429L165.335 194.693H166.926L168.86 200.62H168.94L170.874 194.693H172.469L169.322 203.349C169.177 203.747 168.991 204.083 168.766 204.358C168.54 204.637 168.272 204.845 167.96 204.985C167.649 205.124 167.287 205.193 166.876 205.193ZM176.823 202.484C176.107 202.484 175.483 202.32 174.949 201.992C174.415 201.664 174.001 201.205 173.706 200.615C173.411 200.025 173.264 199.335 173.264 198.546C173.264 197.754 173.411 197.062 173.706 196.468C174.001 195.875 174.415 195.414 174.949 195.086C175.483 194.758 176.107 194.594 176.823 194.594C177.539 194.594 178.164 194.758 178.698 195.086C179.231 195.414 179.646 195.875 179.941 196.468C180.235 197.062 180.383 197.754 180.383 198.546C180.383 199.335 180.235 200.025 179.941 200.615C179.646 201.205 179.231 201.664 178.698 201.992C178.164 202.32 177.539 202.484 176.823 202.484ZM176.828 201.236C177.292 201.236 177.677 201.113 177.982 200.868C178.287 200.623 178.512 200.296 178.658 199.889C178.807 199.481 178.882 199.032 178.882 198.541C178.882 198.054 178.807 197.607 178.658 197.199C178.512 196.788 178.287 196.458 177.982 196.21C177.677 195.961 177.292 195.837 176.828 195.837C176.361 195.837 175.973 195.961 175.665 196.21C175.36 196.458 175.133 196.788 174.984 197.199C174.838 197.607 174.765 198.054 174.765 198.541C174.765 199.032 174.838 199.481 174.984 199.889C175.133 200.296 175.36 200.623 175.665 200.868C175.973 201.113 176.361 201.236 176.828 201.236ZM186.88 199.163V194.693H188.371V202.33H186.909V201.007H186.83C186.654 201.415 186.373 201.755 185.985 202.027C185.6 202.295 185.121 202.429 184.548 202.429C184.057 202.429 183.623 202.322 183.245 202.106C182.871 201.887 182.576 201.564 182.36 201.137C182.148 200.709 182.042 200.18 182.042 199.551V194.693H183.529V199.372C183.529 199.892 183.673 200.306 183.961 200.615C184.25 200.923 184.624 201.077 185.085 201.077C185.363 201.077 185.64 201.007 185.915 200.868C186.194 200.729 186.424 200.519 186.606 200.237C186.792 199.955 186.883 199.597 186.88 199.163ZM194.193 202.33V192.148H195.679V195.931H195.769C195.855 195.772 195.979 195.588 196.142 195.38C196.304 195.171 196.529 194.988 196.818 194.833C197.106 194.674 197.487 194.594 197.961 194.594C198.578 194.594 199.128 194.75 199.612 195.061C200.096 195.373 200.475 195.822 200.75 196.409C201.029 196.995 201.168 197.701 201.168 198.527C201.168 199.352 201.03 200.059 200.755 200.649C200.48 201.236 200.102 201.688 199.622 202.007C199.141 202.322 198.593 202.479 197.976 202.479C197.512 202.479 197.133 202.401 196.838 202.245C196.546 202.09 196.317 201.907 196.152 201.698C195.986 201.49 195.858 201.304 195.769 201.142H195.645V202.33H194.193ZM195.65 198.512C195.65 199.049 195.727 199.519 195.883 199.924C196.039 200.328 196.264 200.644 196.559 200.873C196.854 201.099 197.216 201.211 197.643 201.211C198.087 201.211 198.458 201.094 198.757 200.858C199.055 200.62 199.28 200.296 199.433 199.889C199.589 199.481 199.667 199.022 199.667 198.512C199.667 198.008 199.59 197.555 199.438 197.154C199.289 196.753 199.063 196.437 198.762 196.205C198.463 195.973 198.091 195.857 197.643 195.857C197.212 195.857 196.848 195.968 196.549 196.19C196.254 196.412 196.031 196.722 195.878 197.12C195.726 197.517 195.65 197.981 195.65 198.512ZM206.054 202.484C205.338 202.484 204.713 202.32 204.18 201.992C203.646 201.664 203.232 201.205 202.937 200.615C202.642 200.025 202.494 199.335 202.494 198.546C202.494 197.754 202.642 197.062 202.937 196.468C203.232 195.875 203.646 195.414 204.18 195.086C204.713 194.758 205.338 194.594 206.054 194.594C206.77 194.594 207.394 194.758 207.928 195.086C208.462 195.414 208.876 195.875 209.171 196.468C209.466 197.062 209.613 197.754 209.613 198.546C209.613 199.335 209.466 200.025 209.171 200.615C208.876 201.205 208.462 201.664 207.928 201.992C207.394 202.32 206.77 202.484 206.054 202.484ZM206.059 201.236C206.523 201.236 206.907 201.113 207.212 200.868C207.517 200.623 207.742 200.296 207.888 199.889C208.037 199.481 208.112 199.032 208.112 198.541C208.112 198.054 208.037 197.607 207.888 197.199C207.742 196.788 207.517 196.458 207.212 196.21C206.907 195.961 206.523 195.837 206.059 195.837C205.591 195.837 205.204 195.961 204.895 196.21C204.59 196.458 204.363 196.788 204.214 197.199C204.068 197.607 203.996 198.054 203.996 198.541C203.996 199.032 204.068 199.481 204.214 199.889C204.363 200.296 204.59 200.623 204.895 200.868C205.204 201.113 205.591 201.236 206.059 201.236ZM214.489 202.484C213.773 202.484 213.149 202.32 212.615 201.992C212.081 201.664 211.667 201.205 211.372 200.615C211.077 200.025 210.93 199.335 210.93 198.546C210.93 197.754 211.077 197.062 211.372 196.468C211.667 195.875 212.081 195.414 212.615 195.086C213.149 194.758 213.773 194.594 214.489 194.594C215.205 194.594 215.83 194.758 216.364 195.086C216.897 195.414 217.312 195.875 217.607 196.468C217.902 197.062 218.049 197.754 218.049 198.546C218.049 199.335 217.902 200.025 217.607 200.615C217.312 201.205 216.897 201.664 216.364 201.992C215.83 202.32 215.205 202.484 214.489 202.484ZM214.494 201.236C214.958 201.236 215.343 201.113 215.648 200.868C215.953 200.623 216.178 200.296 216.324 199.889C216.473 199.481 216.548 199.032 216.548 198.541C216.548 198.054 216.473 197.607 216.324 197.199C216.178 196.788 215.953 196.458 215.648 196.21C215.343 195.961 214.958 195.837 214.494 195.837C214.027 195.837 213.639 195.961 213.331 196.21C213.026 196.458 212.799 196.788 212.65 197.199C212.504 197.607 212.431 198.054 212.431 198.541C212.431 199.032 212.504 199.481 212.65 199.889C212.799 200.296 213.026 200.623 213.331 200.868C213.639 201.113 214.027 201.236 214.494 201.236ZM221.075 199.74L221.066 197.925H221.324L224.367 194.693H226.146L222.676 198.372H222.443L221.075 199.74ZM219.708 202.33V192.148H221.195V202.33H219.708ZM224.531 202.33L221.796 198.701L222.82 197.662L226.355 202.33H224.531ZM234.771 194.693V195.887H230.6V194.693H234.771ZM231.718 192.864H233.205V200.088C233.205 200.376 233.248 200.593 233.334 200.739C233.42 200.881 233.531 200.979 233.667 201.032C233.806 201.082 233.957 201.107 234.12 201.107C234.239 201.107 234.343 201.099 234.433 201.082C234.522 201.065 234.592 201.052 234.642 201.042L234.91 202.27C234.824 202.303 234.701 202.336 234.542 202.37C234.383 202.406 234.184 202.426 233.946 202.429C233.555 202.436 233.19 202.366 232.852 202.22C232.514 202.075 232.24 201.849 232.032 201.544C231.823 201.239 231.718 200.857 231.718 200.396V192.864ZM238.066 197.796V202.33H236.579V192.148H238.046V195.936H238.14C238.319 195.525 238.593 195.199 238.961 194.957C239.329 194.715 239.809 194.594 240.403 194.594C240.926 194.594 241.384 194.702 241.775 194.917C242.169 195.133 242.474 195.454 242.689 195.882C242.908 196.306 243.018 196.836 243.018 197.473V202.33H241.531V197.652C241.531 197.091 241.387 196.657 241.099 196.349C240.81 196.037 240.409 195.882 239.895 195.882C239.544 195.882 239.229 195.956 238.951 196.105C238.676 196.255 238.459 196.473 238.3 196.762C238.144 197.047 238.066 197.391 238.066 197.796ZM245.001 202.33V194.693H246.488V202.33H245.001ZM245.752 193.515C245.493 193.515 245.271 193.429 245.086 193.257C244.903 193.081 244.812 192.872 244.812 192.63C244.812 192.385 244.903 192.176 245.086 192.004C245.271 191.828 245.493 191.74 245.752 191.74C246.01 191.74 246.231 191.828 246.413 192.004C246.599 192.176 246.692 192.385 246.692 192.63C246.692 192.872 246.599 193.081 246.413 193.257C246.231 193.429 246.01 193.515 245.752 193.515ZM254.21 196.558L252.863 196.796C252.806 196.624 252.717 196.46 252.594 196.304C252.475 196.148 252.312 196.021 252.107 195.921C251.901 195.822 251.645 195.772 251.336 195.772C250.915 195.772 250.564 195.867 250.282 196.056C250.001 196.241 249.86 196.482 249.86 196.777C249.86 197.032 249.954 197.237 250.143 197.393C250.332 197.549 250.637 197.676 251.058 197.776L252.271 198.054C252.974 198.217 253.497 198.467 253.842 198.805C254.187 199.143 254.359 199.582 254.359 200.122C254.359 200.58 254.226 200.988 253.961 201.345C253.699 201.7 253.333 201.979 252.863 202.181C252.395 202.383 251.853 202.484 251.237 202.484C250.382 202.484 249.684 202.302 249.144 201.937C248.604 201.569 248.272 201.047 248.15 200.371L249.586 200.152C249.676 200.527 249.86 200.81 250.138 201.002C250.417 201.191 250.779 201.286 251.227 201.286C251.714 201.286 252.104 201.185 252.395 200.983C252.687 200.777 252.833 200.527 252.833 200.232C252.833 199.993 252.743 199.793 252.564 199.63C252.389 199.468 252.118 199.345 251.754 199.262L250.461 198.979C249.749 198.817 249.222 198.558 248.88 198.203C248.542 197.849 248.373 197.4 248.373 196.856C248.373 196.405 248.499 196.011 248.751 195.673C249.003 195.335 249.351 195.071 249.795 194.882C250.239 194.69 250.748 194.594 251.321 194.594C252.147 194.594 252.796 194.773 253.27 195.131C253.744 195.486 254.057 195.961 254.21 196.558ZM257.927 200.938L257.853 201.48C257.803 201.877 257.719 202.292 257.599 202.723C257.483 203.157 257.362 203.559 257.236 203.931C257.114 204.302 257.013 204.597 256.933 204.816H255.879C255.922 204.61 255.982 204.332 256.058 203.98C256.134 203.632 256.209 203.243 256.282 202.812C256.355 202.381 256.409 201.942 256.446 201.495L256.496 200.938H257.927ZM264.507 205.193C264.285 205.193 264.083 205.175 263.901 205.139C263.718 205.106 263.583 205.069 263.493 205.029L263.851 203.811C264.123 203.884 264.365 203.916 264.577 203.906C264.789 203.896 264.976 203.816 265.139 203.667C265.304 203.518 265.45 203.274 265.576 202.936L265.76 202.429L262.966 194.693H264.557L266.491 200.62H266.57L268.504 194.693H270.1L266.953 203.349C266.807 203.747 266.622 204.083 266.396 204.358C266.171 204.637 265.903 204.845 265.591 204.985C265.28 205.124 264.918 205.193 264.507 205.193ZM274.454 202.484C273.738 202.484 273.114 202.32 272.58 201.992C272.046 201.664 271.632 201.205 271.337 200.615C271.042 200.025 270.895 199.335 270.895 198.546C270.895 197.754 271.042 197.062 271.337 196.468C271.632 195.875 272.046 195.414 272.58 195.086C273.114 194.758 273.738 194.594 274.454 194.594C275.17 194.594 275.795 194.758 276.328 195.086C276.862 195.414 277.276 195.875 277.571 196.468C277.866 197.062 278.014 197.754 278.014 198.546C278.014 199.335 277.866 200.025 277.571 200.615C277.276 201.205 276.862 201.664 276.328 201.992C275.795 202.32 275.17 202.484 274.454 202.484ZM274.459 201.236C274.923 201.236 275.308 201.113 275.613 200.868C275.917 200.623 276.143 200.296 276.289 199.889C276.438 199.481 276.512 199.032 276.512 198.541C276.512 198.054 276.438 197.607 276.289 197.199C276.143 196.788 275.917 196.458 275.613 196.21C275.308 195.961 274.923 195.837 274.459 195.837C273.992 195.837 273.604 195.961 273.296 196.21C272.991 196.458 272.764 196.788 272.615 197.199C272.469 197.607 272.396 198.054 272.396 198.541C272.396 199.032 272.469 199.481 272.615 199.889C272.764 200.296 272.991 200.623 273.296 200.868C273.604 201.113 273.992 201.236 274.459 201.236ZM284.51 199.163V194.693H286.002V202.33H284.54V201.007H284.461C284.285 201.415 284.003 201.755 283.616 202.027C283.231 202.295 282.752 202.429 282.179 202.429C281.688 202.429 281.254 202.322 280.876 202.106C280.502 201.887 280.207 201.564 279.991 201.137C279.779 200.709 279.673 200.18 279.673 199.551V194.693H281.16V199.372C281.16 199.892 281.304 200.306 281.592 200.615C281.881 200.923 282.255 201.077 282.716 201.077C282.994 201.077 283.271 201.007 283.546 200.868C283.824 200.729 284.055 200.519 284.237 200.237C284.423 199.955 284.514 199.597 284.51 199.163ZM293.36 202.33L291.113 194.693H292.649L294.145 200.301H294.22L295.721 194.693H297.258L298.749 200.277H298.824L300.31 194.693H301.846L299.604 202.33H298.088L296.537 196.816H296.422L294.871 202.33H293.36ZM303.257 202.33V194.693H304.744V202.33H303.257ZM304.008 193.515C303.749 193.515 303.527 193.429 303.342 193.257C303.159 193.081 303.068 192.872 303.068 192.63C303.068 192.385 303.159 192.176 303.342 192.004C303.527 191.828 303.749 191.74 304.008 191.74C304.266 191.74 304.487 191.828 304.669 192.004C304.855 192.176 304.947 192.385 304.947 192.63C304.947 192.872 304.855 193.081 304.669 193.257C304.487 193.429 304.266 193.515 304.008 193.515ZM308.23 192.148V202.33H306.743V192.148H308.23ZM311.716 192.148V202.33H310.23V192.148H311.716ZM317.54 202.33V192.148H319.027V195.931H319.116C319.203 195.772 319.327 195.588 319.489 195.38C319.652 195.171 319.877 194.988 320.165 194.833C320.454 194.674 320.835 194.594 321.309 194.594C321.925 194.594 322.476 194.75 322.96 195.061C323.443 195.373 323.823 195.822 324.098 196.409C324.376 196.995 324.516 197.701 324.516 198.527C324.516 199.352 324.378 200.059 324.103 200.649C323.828 201.236 323.45 201.688 322.969 202.007C322.489 202.322 321.94 202.479 321.324 202.479C320.86 202.479 320.48 202.401 320.185 202.245C319.894 202.09 319.665 201.907 319.499 201.698C319.334 201.49 319.206 201.304 319.116 201.142H318.992V202.33H317.54ZM318.997 198.512C318.997 199.049 319.075 199.519 319.231 199.924C319.387 200.328 319.612 200.644 319.907 200.873C320.202 201.099 320.563 201.211 320.991 201.211C321.435 201.211 321.806 201.094 322.104 200.858C322.403 200.62 322.628 200.296 322.781 199.889C322.936 199.481 323.014 199.022 323.014 198.512C323.014 198.008 322.938 197.555 322.786 197.154C322.636 196.753 322.411 196.437 322.109 196.205C321.811 195.973 321.438 195.857 320.991 195.857C320.56 195.857 320.195 195.968 319.897 196.19C319.602 196.412 319.378 196.722 319.226 197.12C319.073 197.517 318.997 197.981 318.997 198.512ZM329.476 202.484C328.724 202.484 328.076 202.323 327.532 202.002C326.992 201.677 326.574 201.221 326.279 200.635C325.988 200.045 325.842 199.354 325.842 198.561C325.842 197.779 325.988 197.09 326.279 196.493C326.574 195.897 326.985 195.431 327.512 195.096C328.043 194.761 328.662 194.594 329.372 194.594C329.802 194.594 330.22 194.665 330.624 194.808C331.029 194.95 331.392 195.174 331.713 195.479C332.035 195.784 332.288 196.18 332.474 196.667C332.66 197.151 332.752 197.739 332.752 198.432V198.959H326.682V197.845H331.296C331.296 197.454 331.216 197.108 331.057 196.806C330.898 196.501 330.674 196.261 330.386 196.086C330.101 195.91 329.766 195.822 329.382 195.822C328.964 195.822 328.599 195.925 328.288 196.13C327.98 196.332 327.741 196.598 327.572 196.926C327.406 197.251 327.323 197.604 327.323 197.985V198.855C327.323 199.365 327.413 199.799 327.592 200.157C327.774 200.515 328.028 200.789 328.352 200.978C328.677 201.163 329.057 201.256 329.491 201.256C329.773 201.256 330.03 201.216 330.262 201.137C330.494 201.054 330.694 200.931 330.863 200.769C331.032 200.606 331.161 200.406 331.251 200.167L332.658 200.421C332.545 200.835 332.343 201.198 332.051 201.51C331.763 201.818 331.4 202.058 330.963 202.23C330.528 202.399 330.033 202.484 329.476 202.484ZM147.999 227.193V216.693H149.451V217.931H149.575C149.661 217.772 149.786 217.588 149.948 217.38C150.111 217.171 150.336 216.988 150.624 216.833C150.913 216.674 151.294 216.594 151.768 216.594C152.384 216.594 152.934 216.75 153.418 217.061C153.902 217.373 154.282 217.822 154.557 218.409C154.835 218.995 154.974 219.701 154.974 220.527C154.974 221.352 154.837 222.059 154.562 222.649C154.287 223.236 153.909 223.688 153.428 224.007C152.948 224.322 152.399 224.479 151.783 224.479C151.319 224.479 150.939 224.401 150.644 224.245C150.353 224.09 150.124 223.907 149.958 223.698C149.792 223.49 149.665 223.304 149.575 223.142H149.486V227.193H147.999ZM149.456 220.512C149.456 221.049 149.534 221.519 149.69 221.924C149.845 222.328 150.071 222.644 150.366 222.873C150.661 223.099 151.022 223.211 151.45 223.211C151.894 223.211 152.265 223.094 152.563 222.858C152.862 222.62 153.087 222.296 153.239 221.889C153.395 221.481 153.473 221.022 153.473 220.512C153.473 220.008 153.397 219.555 153.244 219.154C153.095 218.753 152.87 218.437 152.568 218.205C152.27 217.973 151.897 217.857 151.45 217.857C151.019 217.857 150.654 217.968 150.356 218.19C150.061 218.412 149.837 218.722 149.685 219.12C149.532 219.517 149.456 219.981 149.456 220.512ZM158.126 214.148V224.33H156.64V214.148H158.126ZM162.349 224.499C161.865 224.499 161.427 224.409 161.036 224.23C160.645 224.048 160.335 223.785 160.106 223.44C159.881 223.095 159.768 222.673 159.768 222.172C159.768 221.741 159.851 221.387 160.017 221.108C160.183 220.83 160.406 220.609 160.688 220.447C160.97 220.285 161.285 220.162 161.633 220.079C161.981 219.996 162.335 219.933 162.697 219.89C163.154 219.837 163.525 219.794 163.81 219.761C164.095 219.724 164.302 219.666 164.432 219.587C164.561 219.507 164.626 219.378 164.626 219.199V219.164C164.626 218.73 164.503 218.394 164.258 218.155C164.016 217.916 163.654 217.797 163.174 217.797C162.673 217.797 162.279 217.908 161.991 218.13C161.706 218.349 161.508 218.593 161.399 218.861L160.002 218.543C160.168 218.079 160.41 217.704 160.728 217.419C161.049 217.131 161.419 216.922 161.836 216.793C162.254 216.66 162.693 216.594 163.154 216.594C163.459 216.594 163.782 216.63 164.123 216.703C164.468 216.773 164.79 216.902 165.088 217.091C165.39 217.28 165.636 217.55 165.829 217.902C166.021 218.25 166.117 218.702 166.117 219.259V224.33H164.665V223.286H164.606C164.51 223.478 164.365 223.667 164.173 223.853C163.981 224.038 163.734 224.192 163.432 224.315C163.131 224.438 162.769 224.499 162.349 224.499ZM162.672 223.306C163.083 223.306 163.434 223.224 163.726 223.062C164.021 222.9 164.244 222.688 164.397 222.426C164.553 222.161 164.631 221.877 164.631 221.576V220.591C164.577 220.644 164.475 220.694 164.322 220.74C164.173 220.783 164.002 220.822 163.81 220.855C163.618 220.885 163.431 220.913 163.248 220.939C163.066 220.962 162.914 220.982 162.791 220.999C162.503 221.035 162.239 221.097 162.001 221.183C161.765 221.269 161.576 221.393 161.434 221.556C161.295 221.715 161.225 221.927 161.225 222.192C161.225 222.56 161.361 222.838 161.633 223.027C161.904 223.213 162.251 223.306 162.672 223.306ZM171.314 224.484C170.574 224.484 169.938 224.317 169.404 223.982C168.874 223.644 168.467 223.178 168.181 222.585C167.896 221.992 167.754 221.312 167.754 220.546C167.754 219.771 167.9 219.086 168.191 218.493C168.483 217.897 168.894 217.431 169.424 217.096C169.955 216.761 170.579 216.594 171.299 216.594C171.879 216.594 172.396 216.702 172.85 216.917C173.304 217.129 173.67 217.428 173.949 217.812C174.23 218.197 174.398 218.646 174.451 219.159H173.004C172.924 218.801 172.742 218.493 172.457 218.235C172.175 217.976 171.797 217.847 171.324 217.847C170.909 217.847 170.546 217.956 170.235 218.175C169.926 218.39 169.686 218.699 169.514 219.1C169.342 219.497 169.255 219.968 169.255 220.512C169.255 221.068 169.34 221.549 169.509 221.953C169.678 222.358 169.917 222.671 170.225 222.893C170.536 223.115 170.903 223.226 171.324 223.226C171.605 223.226 171.86 223.175 172.089 223.072C172.321 222.966 172.515 222.815 172.671 222.62C172.83 222.424 172.941 222.189 173.004 221.914H174.451C174.398 222.407 174.237 222.848 173.968 223.236C173.7 223.624 173.34 223.929 172.89 224.151C172.442 224.373 171.917 224.484 171.314 224.484ZM179.331 224.484C178.579 224.484 177.931 224.323 177.388 224.002C176.847 223.677 176.43 223.221 176.135 222.635C175.843 222.045 175.697 221.354 175.697 220.561C175.697 219.779 175.843 219.09 176.135 218.493C176.43 217.897 176.841 217.431 177.368 217.096C177.898 216.761 178.518 216.594 179.227 216.594C179.658 216.594 180.076 216.665 180.48 216.808C180.884 216.95 181.247 217.174 181.569 217.479C181.89 217.784 182.144 218.18 182.329 218.667C182.515 219.151 182.608 219.739 182.608 220.432V220.959H176.537V219.845H181.151C181.151 219.454 181.072 219.108 180.912 218.806C180.753 218.501 180.53 218.261 180.241 218.086C179.956 217.91 179.622 217.822 179.237 217.822C178.819 217.822 178.455 217.925 178.143 218.13C177.835 218.332 177.596 218.598 177.427 218.926C177.262 219.251 177.179 219.604 177.179 219.985V220.855C177.179 221.365 177.268 221.799 177.447 222.157C177.63 222.515 177.883 222.789 178.208 222.978C178.533 223.163 178.912 223.256 179.346 223.256C179.628 223.256 179.885 223.216 180.117 223.137C180.349 223.054 180.55 222.931 180.719 222.769C180.888 222.606 181.017 222.406 181.106 222.167L182.513 222.421C182.401 222.835 182.198 223.198 181.907 223.51C181.618 223.818 181.256 224.058 180.818 224.23C180.384 224.399 179.888 224.484 179.331 224.484ZM187.116 224.479C186.499 224.479 185.949 224.322 185.465 224.007C184.985 223.688 184.607 223.236 184.332 222.649C184.06 222.059 183.924 221.352 183.924 220.527C183.924 219.701 184.062 218.995 184.337 218.409C184.615 217.822 184.996 217.373 185.48 217.061C185.964 216.75 186.513 216.594 187.126 216.594C187.6 216.594 187.981 216.674 188.269 216.833C188.561 216.988 188.786 217.171 188.945 217.38C189.108 217.588 189.234 217.772 189.323 217.931H189.413V214.148H190.899V224.33H189.447V223.142H189.323C189.234 223.304 189.104 223.49 188.935 223.698C188.77 223.907 188.541 224.09 188.249 224.245C187.958 224.401 187.58 224.479 187.116 224.479ZM187.444 223.211C187.871 223.211 188.233 223.099 188.528 222.873C188.826 222.644 189.051 222.328 189.204 221.924C189.36 221.519 189.438 221.049 189.438 220.512C189.438 219.981 189.361 219.517 189.209 219.12C189.056 218.722 188.833 218.412 188.538 218.19C188.243 217.968 187.878 217.857 187.444 217.857C186.996 217.857 186.624 217.973 186.325 218.205C186.027 218.437 185.802 218.753 185.649 219.154C185.5 219.555 185.425 220.008 185.425 220.512C185.425 221.022 185.502 221.481 185.654 221.889C185.807 222.296 186.032 222.62 186.33 222.858C186.632 223.094 187.003 223.211 187.444 223.211ZM199.942 224.484C199.227 224.484 198.602 224.32 198.068 223.992C197.535 223.664 197.12 223.205 196.825 222.615C196.53 222.025 196.383 221.335 196.383 220.546C196.383 219.754 196.53 219.062 196.825 218.468C197.12 217.875 197.535 217.414 198.068 217.086C198.602 216.758 199.227 216.594 199.942 216.594C200.658 216.594 201.283 216.758 201.817 217.086C202.35 217.414 202.765 217.875 203.06 218.468C203.355 219.062 203.502 219.754 203.502 220.546C203.502 221.335 203.355 222.025 203.06 222.615C202.765 223.205 202.35 223.664 201.817 223.992C201.283 224.32 200.658 224.484 199.942 224.484ZM199.947 223.236C200.411 223.236 200.796 223.113 201.101 222.868C201.406 222.623 201.631 222.296 201.777 221.889C201.926 221.481 202.001 221.032 202.001 220.541C202.001 220.054 201.926 219.607 201.777 219.199C201.631 218.788 201.406 218.458 201.101 218.21C200.796 217.961 200.411 217.837 199.947 217.837C199.48 217.837 199.092 217.961 198.784 218.21C198.479 218.458 198.252 218.788 198.103 219.199C197.957 219.607 197.884 220.054 197.884 220.541C197.884 221.032 197.957 221.481 198.103 221.889C198.252 222.296 198.479 222.623 198.784 222.868C199.092 223.113 199.48 223.236 199.947 223.236ZM206.648 219.796V224.33H205.161V216.693H206.588V217.936H206.683C206.858 217.532 207.133 217.207 207.508 216.962C207.886 216.717 208.361 216.594 208.935 216.594C209.455 216.594 209.911 216.703 210.302 216.922C210.693 217.138 210.996 217.459 211.212 217.887C211.427 218.314 211.535 218.843 211.535 219.473V224.33H210.048V219.652C210.048 219.098 209.904 218.666 209.616 218.354C209.328 218.039 208.932 217.882 208.428 217.882C208.083 217.882 207.776 217.956 207.508 218.105C207.243 218.255 207.032 218.473 206.877 218.762C206.724 219.047 206.648 219.391 206.648 219.796ZM220.798 216.693V217.887H216.627V216.693H220.798ZM217.746 214.864H219.232V222.088C219.232 222.376 219.275 222.593 219.362 222.739C219.448 222.881 219.559 222.979 219.695 223.032C219.834 223.082 219.985 223.107 220.147 223.107C220.266 223.107 220.371 223.099 220.46 223.082C220.55 223.065 220.619 223.052 220.669 223.042L220.938 224.27C220.851 224.303 220.729 224.336 220.57 224.37C220.411 224.406 220.212 224.426 219.973 224.429C219.582 224.436 219.217 224.366 218.879 224.22C218.541 224.075 218.268 223.849 218.059 223.544C217.85 223.239 217.746 222.857 217.746 222.396V214.864ZM224.093 219.796V224.33H222.607V214.148H224.073V217.936H224.168C224.347 217.525 224.62 217.199 224.988 216.957C225.356 216.715 225.837 216.594 226.43 216.594C226.954 216.594 227.411 216.702 227.802 216.917C228.196 217.133 228.501 217.454 228.717 217.882C228.936 218.306 229.045 218.836 229.045 219.473V224.33H227.558V219.652C227.558 219.091 227.414 218.657 227.126 218.349C226.838 218.037 226.436 217.882 225.923 217.882C225.571 217.882 225.257 217.956 224.978 218.105C224.703 218.255 224.486 218.473 224.327 218.762C224.171 219.047 224.093 219.391 224.093 219.796ZM234.32 224.484C233.567 224.484 232.919 224.323 232.376 224.002C231.836 223.677 231.418 223.221 231.123 222.635C230.831 222.045 230.686 221.354 230.686 220.561C230.686 219.779 230.831 219.09 231.123 218.493C231.418 217.897 231.829 217.431 232.356 217.096C232.886 216.761 233.506 216.594 234.215 216.594C234.646 216.594 235.064 216.665 235.468 216.808C235.873 216.95 236.235 217.174 236.557 217.479C236.878 217.784 237.132 218.18 237.318 218.667C237.503 219.151 237.596 219.739 237.596 220.432V220.959H231.526V219.845H236.139C236.139 219.454 236.06 219.108 235.901 218.806C235.742 218.501 235.518 218.261 235.23 218.086C234.945 217.91 234.61 217.822 234.225 217.822C233.808 217.822 233.443 217.925 233.132 218.13C232.823 218.332 232.585 218.598 232.416 218.926C232.25 219.251 232.167 219.604 232.167 219.985V220.855C232.167 221.365 232.257 221.799 232.436 222.157C232.618 222.515 232.871 222.789 233.196 222.978C233.521 223.163 233.901 223.256 234.335 223.256C234.616 223.256 234.873 223.216 235.105 223.137C235.337 223.054 235.538 222.931 235.707 222.769C235.876 222.606 236.005 222.406 236.095 222.167L237.502 222.421C237.389 222.835 237.187 223.198 236.895 223.51C236.607 223.818 236.244 224.058 235.806 224.23C235.372 224.399 234.877 224.484 234.32 224.484ZM244.606 224.33L242.359 216.693H243.895L245.392 222.301H245.466L246.968 216.693H248.504L249.995 222.277H250.07L251.556 216.693H253.093L250.85 224.33H249.334L247.783 218.816H247.669L246.117 224.33H244.606ZM256.725 224.499C256.242 224.499 255.804 224.409 255.413 224.23C255.022 224.048 254.712 223.785 254.483 223.44C254.258 223.095 254.145 222.673 254.145 222.172C254.145 221.741 254.228 221.387 254.394 221.108C254.56 220.83 254.783 220.609 255.065 220.447C255.347 220.285 255.662 220.162 256.01 220.079C256.358 219.996 256.712 219.933 257.074 219.89C257.531 219.837 257.902 219.794 258.187 219.761C258.472 219.724 258.679 219.666 258.809 219.587C258.938 219.507 259.002 219.378 259.002 219.199V219.164C259.002 218.73 258.88 218.394 258.635 218.155C258.393 217.916 258.031 217.797 257.551 217.797C257.05 217.797 256.656 217.908 256.368 218.13C256.083 218.349 255.885 218.593 255.776 218.861L254.379 218.543C254.545 218.079 254.787 217.704 255.105 217.419C255.426 217.131 255.796 216.922 256.213 216.793C256.631 216.66 257.07 216.594 257.531 216.594C257.836 216.594 258.159 216.63 258.5 216.703C258.845 216.773 259.167 216.902 259.465 217.091C259.766 217.28 260.013 217.55 260.206 217.902C260.398 218.25 260.494 218.702 260.494 219.259V224.33H259.042V223.286H258.983C258.886 223.478 258.742 223.667 258.55 223.853C258.358 224.038 258.111 224.192 257.809 224.315C257.508 224.438 257.146 224.499 256.725 224.499ZM257.049 223.306C257.46 223.306 257.811 223.224 258.103 223.062C258.398 222.9 258.621 222.688 258.774 222.426C258.93 222.161 259.007 221.877 259.007 221.576V220.591C258.954 220.644 258.852 220.694 258.699 220.74C258.55 220.783 258.379 220.822 258.187 220.855C257.995 220.885 257.808 220.913 257.625 220.939C257.443 220.962 257.291 220.982 257.168 220.999C256.88 221.035 256.616 221.097 256.377 221.183C256.142 221.269 255.953 221.393 255.811 221.556C255.672 221.715 255.602 221.927 255.602 222.192C255.602 222.56 255.738 222.838 256.01 223.027C256.281 223.213 256.628 223.306 257.049 223.306ZM262.474 224.33V216.693H263.96V224.33H262.474ZM263.225 215.515C262.966 215.515 262.744 215.429 262.558 215.257C262.376 215.081 262.285 214.872 262.285 214.63C262.285 214.385 262.376 214.176 262.558 214.004C262.744 213.828 262.966 213.74 263.225 213.74C263.483 213.74 263.704 213.828 263.886 214.004C264.071 214.176 264.164 214.385 264.164 214.63C264.164 214.872 264.071 215.081 263.886 215.257C263.704 215.429 263.483 215.515 263.225 215.515ZM269.525 216.693V217.887H265.354V216.693H269.525ZM266.472 214.864H267.959V222.088C267.959 222.376 268.002 222.593 268.088 222.739C268.174 222.881 268.285 222.979 268.421 223.032C268.56 223.082 268.711 223.107 268.874 223.107C268.993 223.107 269.097 223.099 269.187 223.082C269.276 223.065 269.346 223.052 269.396 223.042L269.664 224.27C269.578 224.303 269.455 224.336 269.296 224.37C269.137 224.406 268.938 224.426 268.7 224.429C268.308 224.436 267.944 224.366 267.606 224.22C267.268 224.075 266.994 223.849 266.786 223.544C266.577 223.239 266.472 222.857 266.472 222.396V214.864ZM272.82 214.148V224.33H271.333V214.148H272.82ZM274.82 224.33V216.693H276.306V224.33H274.82ZM275.57 215.515C275.312 215.515 275.09 215.429 274.904 215.257C274.722 215.081 274.631 214.872 274.631 214.63C274.631 214.385 274.722 214.176 274.904 214.004C275.09 213.828 275.312 213.74 275.57 213.74C275.829 213.74 276.049 213.828 276.232 214.004C276.417 214.176 276.51 214.385 276.51 214.63C276.51 214.872 276.417 215.081 276.232 215.257C276.049 215.429 275.829 215.515 275.57 215.515ZM284.028 218.558L282.681 218.796C282.625 218.624 282.535 218.46 282.412 218.304C282.293 218.148 282.131 218.021 281.925 217.921C281.72 217.822 281.463 217.772 281.155 217.772C280.734 217.772 280.382 217.867 280.101 218.056C279.819 218.241 279.678 218.482 279.678 218.777C279.678 219.032 279.773 219.237 279.961 219.393C280.15 219.549 280.455 219.676 280.876 219.776L282.089 220.054C282.792 220.217 283.316 220.467 283.66 220.805C284.005 221.143 284.177 221.582 284.177 222.122C284.177 222.58 284.045 222.988 283.78 223.345C283.518 223.7 283.152 223.979 282.681 224.181C282.214 224.383 281.672 224.484 281.055 224.484C280.2 224.484 279.502 224.302 278.962 223.937C278.422 223.569 278.09 223.047 277.968 222.371L279.405 222.152C279.494 222.527 279.678 222.81 279.956 223.002C280.235 223.191 280.598 223.286 281.045 223.286C281.532 223.286 281.922 223.185 282.214 222.983C282.505 222.777 282.651 222.527 282.651 222.232C282.651 221.993 282.562 221.793 282.383 221.63C282.207 221.468 281.937 221.345 281.572 221.262L280.28 220.979C279.567 220.817 279.04 220.558 278.699 220.203C278.361 219.849 278.192 219.4 278.192 218.856C278.192 218.405 278.318 218.011 278.569 217.673C278.821 217.335 279.169 217.071 279.613 216.882C280.058 216.69 280.566 216.594 281.14 216.594C281.965 216.594 282.615 216.773 283.089 217.131C283.563 217.486 283.876 217.961 284.028 218.558ZM289.376 216.693V217.887H285.205V216.693H289.376ZM286.324 214.864H287.81V222.088C287.81 222.376 287.853 222.593 287.94 222.739C288.026 222.881 288.137 222.979 288.273 223.032C288.412 223.082 288.563 223.107 288.725 223.107C288.844 223.107 288.949 223.099 289.038 223.082C289.128 223.065 289.197 223.052 289.247 223.042L289.516 224.27C289.429 224.303 289.307 224.336 289.148 224.37C288.989 224.406 288.79 224.426 288.551 224.429C288.16 224.436 287.795 224.366 287.457 224.22C287.119 224.075 286.846 223.849 286.637 223.544C286.428 223.239 286.324 222.857 286.324 222.396V214.864ZM293.879 220.104C293.879 221.354 293.715 222.502 293.387 223.549C293.059 224.597 292.58 225.563 291.95 226.448H290.588C290.834 226.12 291.062 225.717 291.274 225.24C291.486 224.762 291.672 224.24 291.831 223.674C291.99 223.104 292.115 222.514 292.204 221.904C292.294 221.294 292.338 220.694 292.338 220.104C292.338 219.318 292.26 218.521 292.105 217.713C291.949 216.904 291.738 216.153 291.473 215.461C291.208 214.768 290.913 214.203 290.588 213.765H291.95C292.58 214.65 293.059 215.616 293.387 216.664C293.715 217.711 293.879 218.858 293.879 220.104Z" fill="white"/>
<g filter="url(#filter0_d_15855_50155)">
<rect x="4" y="34" width="48" height="176" rx="8" fill="white" shape-rendering="crispEdges"/>
<rect x="40" y="46" width="24" height="24" rx="6" transform="rotate(90 40 46)" fill="#CFD1D4"/>
<mask id="mask0_15855_50155" style="mask-type:alpha" maskUnits="userSpaceOnUse" x="16" y="46" width="24" height="24">
<rect x="40" y="46" width="24" height="24" rx="6" transform="rotate(90 40 46)" fill="#CFD1D4"/>
</mask>
<g mask="url(#mask0_15855_50155)">
<g opacity="0.7">
<rect width="51.7746" height="50.0488" transform="matrix(0.707106 -0.707107 0.707106 0.707107 -8 59)" fill="#CFD1D4"/>
<line y1="-0.375" x2="79.3791" y2="-0.375" transform="matrix(0.707106 -0.707107 0.707106 0.707107 -30.8237 55.6953)" stroke="white" stroke-width="0.75"/>
<line y1="-0.375" x2="79.3791" y2="-0.375" transform="matrix(0.707106 -0.707107 0.707106 0.707107 -28.7026 57.8167)" stroke="white" stroke-width="0.75"/>
<line y1="-0.375" x2="79.3791" y2="-0.375" transform="matrix(0.707106 -0.707107 0.707106 0.707107 -26.5811 59.938)" stroke="white" stroke-width="0.75"/>
<line y1="-0.375" x2="79.3791" y2="-0.375" transform="matrix(0.707106 -0.707107 0.707106 0.707107 -24.46 62.0593)" stroke="white" stroke-width="0.75"/>
<line y1="-0.375" x2="79.3791" y2="-0.375" transform="matrix(0.707106 -0.707107 0.707106 0.707107 -22.3389 64.1807)" stroke="white" stroke-width="0.75"/>
<line y1="-0.375" x2="79.3791" y2="-0.375" transform="matrix(0.707106 -0.707107 0.707106 0.707107 -20.2173 66.302)" stroke="white" stroke-width="0.75"/>
<line y1="-0.375" x2="79.3791" y2="-0.375" transform="matrix(0.707106 -0.707107 0.707106 0.707107 -18.0962 68.4233)" stroke="white" stroke-width="0.75"/>
<line y1="-0.375" x2="79.3791" y2="-0.375" transform="matrix(0.707106 -0.707107 0.707106 0.707107 -15.9746 70.5447)" stroke="white" stroke-width="0.75"/>
<line y1="-0.375" x2="79.3791" y2="-0.375" transform="matrix(0.707106 -0.707107 0.707106 0.707107 -13.8535 72.666)" stroke="white" stroke-width="0.75"/>
<line y1="-0.375" x2="79.3791" y2="-0.375" transform="matrix(0.707106 -0.707107 0.707106 0.707107 -11.7319 74.7874)" stroke="white" stroke-width="0.75"/>
<path d="M44.2672 23.0306L-7.35929 74.6573" stroke="white" stroke-width="0.75"/>
<line y1="-0.375" x2="79.3791" y2="-0.375" transform="matrix(0.707106 -0.707107 0.707106 0.707107 -7.48926 79.03)" stroke="white" stroke-width="0.75"/>
<line y1="-0.375" x2="79.3791" y2="-0.375" transform="matrix(0.707106 -0.707107 0.707106 0.707107 -5.36816 81.1514)" stroke="white" stroke-width="0.75"/>
<line y1="-0.375" x2="79.3791" y2="-0.375" transform="matrix(0.707106 -0.707107 0.707106 0.707107 -3.24658 83.2727)" stroke="white" stroke-width="0.75"/>
<line y1="-0.375" x2="79.3791" y2="-0.375" transform="matrix(0.707106 -0.707107 0.707106 0.707107 -1.12549 85.394)" stroke="white" stroke-width="0.75"/>
<line y1="-0.375" x2="79.3791" y2="-0.375" transform="matrix(0.707106 -0.707107 0.707106 0.707107 0.996094 87.5154)" stroke="white" stroke-width="0.75"/>
<line y1="-0.375" x2="79.3791" y2="-0.375" transform="matrix(0.707106 -0.707107 0.707106 0.707107 3.11719 89.6367)" stroke="white" stroke-width="0.75"/>
<line y1="-0.375" x2="79.3791" y2="-0.375" transform="matrix(0.707106 -0.707107 0.707106 0.707107 5.23877 91.7581)" stroke="white" stroke-width="0.75"/>
<line y1="-0.375" x2="79.3791" y2="-0.375" transform="matrix(0.707106 -0.707107 0.707106 0.707107 7.35986 93.8794)" stroke="white" stroke-width="0.75"/>
<line y1="-0.375" x2="79.3791" y2="-0.375" transform="matrix(0.707106 -0.707107 0.707106 0.707107 9.48145 96.0005)" stroke="white" stroke-width="0.75"/>
<line y1="-0.375" x2="79.3791" y2="-0.375" transform="matrix(0.707106 -0.707107 0.707106 0.707107 11.6025 98.1218)" stroke="white" stroke-width="0.75"/>
<line y1="-0.375" x2="79.3791" y2="-0.375" transform="matrix(0.707106 -0.707107 0.707106 0.707107 13.7241 100.243)" stroke="white" stroke-width="0.75"/>
<line y1="-0.375" x2="79.3791" y2="-0.375" transform="matrix(0.707106 -0.707107 0.707106 0.707107 15.8452 102.365)" stroke="white" stroke-width="0.75"/>
<line y1="-0.375" x2="79.3791" y2="-0.375" transform="matrix(0.707106 -0.707107 0.707106 0.707107 17.9663 104.486)" stroke="white" stroke-width="0.75"/>
<line y1="-0.375" x2="79.3791" y2="-0.375" transform="matrix(0.707106 -0.707107 0.707106 0.707107 20.0879 106.607)" stroke="white" stroke-width="0.75"/>
<line y1="-0.375" x2="79.3791" y2="-0.375" transform="matrix(0.707106 -0.707107 0.707106 0.707107 22.209 108.729)" stroke="white" stroke-width="0.75"/>
<line y1="-0.375" x2="79.3791" y2="-0.375" transform="matrix(0.707106 -0.707107 0.707106 0.707107 24.3306 110.85)" stroke="white" stroke-width="0.75"/>
<line y1="-0.375" x2="79.3791" y2="-0.375" transform="matrix(0.707106 -0.707107 0.707106 0.707107 26.4517 112.971)" stroke="white" stroke-width="0.75"/>
<line y1="-0.375" x2="79.3791" y2="-0.375" transform="matrix(0.707106 -0.707107 0.707106 0.707107 28.5732 115.093)" stroke="white" stroke-width="0.75"/>
<line y1="-0.375" x2="79.3791" y2="-0.375" transform="matrix(0.707106 -0.707107 0.707106 0.707107 30.6943 117.214)" stroke="white" stroke-width="0.75"/>
</g>
</g>
<path d="M19.9087 79.2188H18.6644C18.6417 79.0578 18.5953 78.9148 18.5252 78.7898C18.4551 78.6629 18.3652 78.5549 18.2553 78.4659C18.1455 78.3769 18.0186 78.3087 17.8746 78.2614C17.7326 78.214 17.5782 78.1903 17.4116 78.1903C17.1104 78.1903 16.8481 78.2652 16.6246 78.4148C16.4012 78.5625 16.2279 78.7784 16.1048 79.0625C15.9817 79.3447 15.9201 79.6875 15.9201 80.0909C15.9201 80.5057 15.9817 80.8542 16.1048 81.1364C16.2298 81.4186 16.404 81.6316 16.6275 81.7756C16.851 81.9195 17.1095 81.9915 17.4031 81.9915C17.5678 81.9915 17.7203 81.9697 17.8604 81.9261C18.0025 81.8826 18.1284 81.8191 18.2383 81.7358C18.3481 81.6506 18.439 81.5473 18.511 81.4261C18.5849 81.3049 18.636 81.1667 18.6644 81.0114L19.9087 81.017C19.8765 81.2841 19.796 81.5417 19.6673 81.7898C19.5404 82.036 19.369 82.2566 19.1531 82.4517C18.939 82.6449 18.6834 82.7983 18.386 82.9119C18.0906 83.0237 17.7563 83.0795 17.3832 83.0795C16.8642 83.0795 16.4002 82.9621 15.9911 82.7273C15.5839 82.4924 15.262 82.1525 15.0252 81.7074C14.7904 81.2623 14.6729 80.7235 14.6729 80.0909C14.6729 79.4564 14.7923 78.9167 15.0309 78.4716C15.2695 78.0265 15.5934 77.6875 16.0025 77.4545C16.4116 77.2197 16.8718 77.1023 17.3832 77.1023C17.7203 77.1023 18.0328 77.1496 18.3207 77.2443C18.6104 77.339 18.8671 77.4773 19.0906 77.6591C19.314 77.839 19.4959 78.0597 19.636 78.321C19.7781 78.5824 19.869 78.8816 19.9087 79.2188ZM21.9783 77.1818V83H20.7681V77.1818H21.9783ZM24.9194 83.0852C24.4781 83.0852 24.0965 82.9915 23.7745 82.804C23.4544 82.6146 23.2073 82.3513 23.033 82.0142C22.8588 81.6752 22.7717 81.2822 22.7717 80.8352C22.7717 80.3845 22.8588 79.9905 23.033 79.6534C23.2073 79.3144 23.4544 79.0511 23.7745 78.8636C24.0965 78.6742 24.4781 78.5795 24.9194 78.5795C25.3607 78.5795 25.7414 78.6742 26.0614 78.8636C26.3834 79.0511 26.6315 79.3144 26.8058 79.6534C26.98 79.9905 27.0671 80.3845 27.0671 80.8352C27.0671 81.2822 26.98 81.6752 26.8058 82.0142C26.6315 82.3513 26.3834 82.6146 26.0614 82.804C25.7414 82.9915 25.3607 83.0852 24.9194 83.0852ZM24.9251 82.1477C25.1258 82.1477 25.2934 82.0909 25.4279 81.9773C25.5624 81.8617 25.6637 81.7045 25.7319 81.5057C25.802 81.3068 25.837 81.0805 25.837 80.8267C25.837 80.5729 25.802 80.3466 25.7319 80.1477C25.6637 79.9489 25.5624 79.7917 25.4279 79.6761C25.2934 79.5606 25.1258 79.5028 24.9251 79.5028C24.7224 79.5028 24.552 79.5606 24.4137 79.6761C24.2773 79.7917 24.1741 79.9489 24.104 80.1477C24.0359 80.3466 24.0018 80.5729 24.0018 80.8267C24.0018 81.0805 24.0359 81.3068 24.104 81.5057C24.1741 81.7045 24.2773 81.8617 24.4137 81.9773C24.552 82.0909 24.7224 82.1477 24.9251 82.1477ZM31.4847 79.8807L30.3768 79.9489C30.3578 79.8542 30.3171 79.7689 30.2546 79.6932C30.1921 79.6155 30.1097 79.554 30.0075 79.5085C29.9071 79.4612 29.7868 79.4375 29.6467 79.4375C29.4592 79.4375 29.301 79.4773 29.1722 79.5568C29.0434 79.6345 28.979 79.7386 28.979 79.8693C28.979 79.9735 29.0207 80.0616 29.104 80.1335C29.1874 80.2055 29.3304 80.2633 29.533 80.3068L30.3228 80.4659C30.747 80.553 31.0633 80.6932 31.2717 80.8864C31.48 81.0795 31.5842 81.3333 31.5842 81.6477C31.5842 81.9337 31.4999 82.1847 31.3313 82.4006C31.1647 82.6165 30.9355 82.785 30.6438 82.9062C30.354 83.0256 30.0198 83.0852 29.641 83.0852C29.0633 83.0852 28.6031 82.965 28.2603 82.7244C27.9194 82.482 27.7196 82.1525 27.6609 81.7358L28.8512 81.6733C28.8872 81.8494 28.9743 81.9839 29.1126 82.0767C29.2508 82.1676 29.4279 82.2131 29.6438 82.2131C29.8559 82.2131 30.0264 82.1723 30.1552 82.0909C30.2859 82.0076 30.3522 81.9006 30.354 81.7699C30.3522 81.66 30.3058 81.5701 30.2148 81.5C30.1239 81.428 29.9838 81.3731 29.7944 81.3352L29.0387 81.1847C28.6126 81.0994 28.2953 80.9517 28.087 80.7415C27.8806 80.5312 27.7773 80.2633 27.7773 79.9375C27.7773 79.6572 27.8531 79.4157 28.0046 79.2131C28.158 79.0104 28.373 78.8542 28.6495 78.7443C28.9279 78.6345 29.2537 78.5795 29.6268 78.5795C30.1779 78.5795 30.6116 78.696 30.9279 78.929C31.2461 79.1619 31.4317 79.4792 31.4847 79.8807ZM34.3349 83.0852C33.886 83.0852 33.4996 82.9943 33.1758 82.8125C32.8538 82.6288 32.6057 82.3693 32.4315 82.0341C32.2572 81.697 32.1701 81.2983 32.1701 80.8381C32.1701 80.3892 32.2572 79.9953 32.4315 79.6562C32.6057 79.3172 32.851 79.053 33.1673 78.8636C33.4854 78.6742 33.8585 78.5795 34.2866 78.5795C34.5745 78.5795 34.8424 78.6259 35.0906 78.7188C35.3406 78.8097 35.5584 78.947 35.744 79.1307C35.9315 79.3144 36.0773 79.5455 36.1815 79.8239C36.2856 80.1004 36.3377 80.4242 36.3377 80.7955V81.1278H32.6531V80.3778H35.1985C35.1985 80.2036 35.1606 80.0492 35.0849 79.9148C35.0091 79.7803 34.904 79.6752 34.7695 79.5994C34.637 79.5218 34.4826 79.483 34.3065 79.483C34.1228 79.483 33.9599 79.5256 33.8178 79.6108C33.6777 79.6941 33.5678 79.8068 33.4883 79.9489C33.4087 80.089 33.368 80.2453 33.3661 80.4176V81.1307C33.3661 81.3466 33.4059 81.5331 33.4854 81.6903C33.5669 81.8475 33.6815 81.9688 33.8292 82.054C33.9769 82.1392 34.1521 82.1818 34.3548 82.1818C34.4892 82.1818 34.6123 82.1629 34.7241 82.125C34.8358 82.0871 34.9315 82.0303 35.011 81.9545C35.0906 81.8788 35.1512 81.786 35.1928 81.6761L36.3121 81.75C36.2553 82.0189 36.1388 82.2538 35.9627 82.4545C35.7885 82.6534 35.5631 82.8087 35.2866 82.9205C35.012 83.0303 34.6947 83.0852 34.3349 83.0852ZM38.7354 83.071C38.404 83.071 38.1038 82.9858 37.8349 82.8153C37.5678 82.643 37.3557 82.3902 37.1985 82.0568C37.0432 81.7216 36.9656 81.3106 36.9656 80.8239C36.9656 80.3239 37.046 79.9081 37.207 79.5767C37.368 79.2434 37.582 78.9943 37.8491 78.8295C38.118 78.6629 38.4125 78.5795 38.7326 78.5795C38.9769 78.5795 39.1805 78.6212 39.3434 78.7045C39.5082 78.786 39.6407 78.8883 39.7411 79.0114C39.8434 79.1326 39.921 79.2519 39.9741 79.3693H40.011V77.1818H41.2184V83H40.0252V82.3011H39.9741C39.9173 82.4223 39.8368 82.5426 39.7326 82.6619C39.6303 82.7794 39.4968 82.8769 39.332 82.9545C39.1692 83.0322 38.9703 83.071 38.7354 83.071ZM39.119 82.108C39.314 82.108 39.4788 82.0549 39.6133 81.9489C39.7496 81.8409 39.8538 81.6903 39.9258 81.4972C39.9996 81.304 40.0366 81.0777 40.0366 80.8182C40.0366 80.5587 40.0006 80.3333 39.9286 80.142C39.8567 79.9508 39.7525 79.803 39.6161 79.6989C39.4798 79.5947 39.314 79.5426 39.119 79.5426C38.9201 79.5426 38.7525 79.5966 38.6161 79.7045C38.4798 79.8125 38.3765 79.9621 38.3065 80.1534C38.2364 80.3447 38.2013 80.5663 38.2013 80.8182C38.2013 81.072 38.2364 81.2964 38.3065 81.4915C38.3784 81.6847 38.4817 81.8362 38.6161 81.946C38.7525 82.054 38.9201 82.108 39.119 82.108Z" fill="black"/>
<rect x="16.35" y="102.35" width="23.3" height="23.3" rx="3.65" fill="#F6F6F6"/>
<path fill-rule="evenodd" clip-rule="evenodd" d="M31.8058 111.581C31.7698 111.534 31.7263 111.543 31.7034 111.553C31.6843 111.561 31.6405 111.587 31.6465 111.652C31.6538 111.73 31.6579 111.81 31.6587 111.89C31.6619 112.218 31.5365 112.54 31.3144 112.773C31.0938 113.004 30.8036 113.129 30.4947 113.125C30.0726 113.119 29.7226 112.888 29.4823 112.456C29.2837 112.099 29.371 111.639 29.4634 111.151L29.4634 111.151C29.5175 110.866 29.5388 110.379 29.4634 110.062C29.0663 108.394 27.9371 107.644 27.1096 107.094L26.9912 107.016C26.974 107.004 26.9575 107 26.943 107C26.9193 107 26.9006 107.011 26.8914 107.017C26.8734 107.03 26.8448 107.059 26.854 107.11C27.1729 108.89 26.2217 109.959 25.2146 111.092C24.1766 112.26 23 113.583 23 115.97C23 118.744 25.1479 121 27.788 121C29.9618 121 31.8783 119.408 32.4487 117.128C32.8376 115.574 32.7782 112.862 31.8058 111.581ZM30.6896 116.673C30.6896 118.342 29.4013 119.695 27.8121 119.695C26.223 119.695 24.9347 118.342 24.9347 116.673C24.9347 115.003 26.223 113.65 27.8121 113.65C29.4013 113.65 30.6896 115.003 30.6896 116.673ZM27.982 114.85C27.982 114.572 27.7673 114.346 27.5025 114.346C27.2376 114.346 27.0229 114.572 27.0229 114.85V117.074L28.1225 118.229C28.3098 118.425 28.6134 118.425 28.8007 118.229C28.988 118.032 28.988 117.713 28.8007 117.516L27.982 116.656V114.85Z" fill="#FDBFC4"/>
<rect x="16.35" y="102.35" width="23.3" height="23.3" rx="3.65" stroke="#E7E8E9" stroke-width="0.7"/>
<path d="M13.9432 139V133.182H15.1733V137.986H17.6676V139H13.9432ZM18.4595 139V134.636H19.6697V139H18.4595ZM19.0675 134.074C18.8875 134.074 18.7332 134.014 18.6044 133.895C18.4775 133.774 18.4141 133.629 18.4141 133.46C18.4141 133.294 18.4775 133.151 18.6044 133.031C18.7332 132.91 18.8875 132.849 19.0675 132.849C19.2474 132.849 19.4008 132.91 19.5277 133.031C19.6565 133.151 19.7209 133.294 19.7209 133.46C19.7209 133.629 19.6565 133.774 19.5277 133.895C19.4008 134.014 19.2474 134.074 19.0675 134.074ZM20.6392 139V134.636H21.7926V135.406H21.8438C21.9347 135.151 22.0862 134.949 22.2983 134.801C22.5104 134.653 22.7642 134.58 23.0597 134.58C23.3589 134.58 23.6136 134.654 23.8239 134.804C24.0341 134.952 24.1742 135.152 24.2443 135.406H24.2898C24.3788 135.156 24.5398 134.956 24.7727 134.807C25.0076 134.655 25.285 134.58 25.6051 134.58C26.0123 134.58 26.3428 134.709 26.5966 134.969C26.8523 135.226 26.9801 135.592 26.9801 136.065V139H25.7727V136.304C25.7727 136.062 25.7083 135.88 25.5795 135.759C25.4508 135.637 25.2898 135.577 25.0966 135.577C24.8769 135.577 24.7055 135.647 24.5824 135.787C24.4593 135.925 24.3977 136.108 24.3977 136.335V139H23.2244V136.278C23.2244 136.064 23.1629 135.894 23.0398 135.767C22.9186 135.64 22.7585 135.577 22.5597 135.577C22.4252 135.577 22.304 135.611 22.196 135.679C22.09 135.745 22.0057 135.839 21.9432 135.96C21.8807 136.08 21.8494 136.22 21.8494 136.381V139H20.6392ZM27.9361 139V134.636H29.1463V139H27.9361ZM28.544 134.074C28.3641 134.074 28.2098 134.014 28.081 133.895C27.9541 133.774 27.8906 133.629 27.8906 133.46C27.8906 133.294 27.9541 133.151 28.081 133.031C28.2098 132.91 28.3641 132.849 28.544 132.849C28.724 132.849 28.8774 132.91 29.0043 133.031C29.133 133.151 29.1974 133.294 29.1974 133.46C29.1974 133.629 29.133 133.774 29.0043 133.895C28.8774 134.014 28.724 134.074 28.544 134.074ZM32.4368 134.636V135.545H29.8089V134.636H32.4368ZM30.4055 133.591H31.6158V137.659C31.6158 137.771 31.6328 137.858 31.6669 137.92C31.701 137.981 31.7483 138.024 31.8089 138.048C31.8714 138.073 31.9434 138.085 32.0249 138.085C32.0817 138.085 32.1385 138.08 32.1953 138.071C32.2521 138.06 32.2957 138.051 32.326 138.045L32.5163 138.946C32.4557 138.965 32.3705 138.987 32.2607 139.011C32.1508 139.038 32.0173 139.054 31.8601 139.06C31.5684 139.071 31.3127 139.032 31.093 138.943C30.8752 138.854 30.7057 138.716 30.5845 138.528C30.4633 138.341 30.4036 138.104 30.4055 137.818V133.591ZM35.1669 139.085C34.718 139.085 34.3317 138.994 34.0078 138.812C33.6858 138.629 33.4377 138.369 33.2635 138.034C33.0893 137.697 33.0021 137.298 33.0021 136.838C33.0021 136.389 33.0893 135.995 33.2635 135.656C33.4377 135.317 33.683 135.053 33.9993 134.864C34.3175 134.674 34.6906 134.58 35.1186 134.58C35.4065 134.58 35.6745 134.626 35.9226 134.719C36.1726 134.81 36.3904 134.947 36.576 135.131C36.7635 135.314 36.9093 135.545 37.0135 135.824C37.1177 136.1 37.1697 136.424 37.1697 136.795V137.128H33.4851V136.378H36.0305C36.0305 136.204 35.9927 136.049 35.9169 135.915C35.8411 135.78 35.736 135.675 35.6016 135.599C35.469 135.522 35.3146 135.483 35.1385 135.483C34.9548 135.483 34.7919 135.526 34.6499 135.611C34.5097 135.694 34.3999 135.807 34.3203 135.949C34.2408 136.089 34.2 136.245 34.1982 136.418V137.131C34.1982 137.347 34.2379 137.533 34.3175 137.69C34.3989 137.848 34.5135 137.969 34.6612 138.054C34.8089 138.139 34.9841 138.182 35.1868 138.182C35.3213 138.182 35.4444 138.163 35.5561 138.125C35.6679 138.087 35.7635 138.03 35.843 137.955C35.9226 137.879 35.9832 137.786 36.0249 137.676L37.1442 137.75C37.0874 138.019 36.9709 138.254 36.7947 138.455C36.6205 138.653 36.3951 138.809 36.1186 138.92C35.844 139.03 35.5268 139.085 35.1669 139.085ZM39.5675 139.071C39.236 139.071 38.9358 138.986 38.6669 138.815C38.3999 138.643 38.1877 138.39 38.0305 138.057C37.8752 137.722 37.7976 137.311 37.7976 136.824C37.7976 136.324 37.8781 135.908 38.0391 135.577C38.2 135.243 38.4141 134.994 38.6811 134.83C38.95 134.663 39.2446 134.58 39.5646 134.58C39.8089 134.58 40.0125 134.621 40.1754 134.705C40.3402 134.786 40.4728 134.888 40.5732 135.011C40.6754 135.133 40.7531 135.252 40.8061 135.369H40.843V133.182H42.0504V139H40.8572V138.301H40.8061C40.7493 138.422 40.6688 138.543 40.5646 138.662C40.4624 138.779 40.3288 138.877 40.1641 138.955C40.0012 139.032 39.8023 139.071 39.5675 139.071ZM39.951 138.108C40.1461 138.108 40.3108 138.055 40.4453 137.949C40.5817 137.841 40.6858 137.69 40.7578 137.497C40.8317 137.304 40.8686 137.078 40.8686 136.818C40.8686 136.559 40.8326 136.333 40.7607 136.142C40.6887 135.951 40.5845 135.803 40.4482 135.699C40.3118 135.595 40.1461 135.543 39.951 135.543C39.7521 135.543 39.5845 135.597 39.4482 135.705C39.3118 135.812 39.2086 135.962 39.1385 136.153C39.0684 136.345 39.0334 136.566 39.0334 136.818C39.0334 137.072 39.0684 137.296 39.1385 137.491C39.2105 137.685 39.3137 137.836 39.4482 137.946C39.5845 138.054 39.7521 138.108 39.951 138.108Z" fill="black"/>
<rect x="40" y="158" width="24" height="24" rx="6" transform="rotate(90 40 158)" fill="#FDBFC4"/>
<mask id="mask1_15855_50155" style="mask-type:alpha" maskUnits="userSpaceOnUse" x="16" y="158" width="24" height="24">
<rect x="40" y="158" width="24" height="24" rx="6" transform="rotate(90 40 158)" fill="#FDBFC4"/>
</mask>
<g mask="url(#mask1_15855_50155)">
<g opacity="0.7">
<line y1="-0.375" x2="79.3791" y2="-0.375" transform="matrix(0.707106 -0.707107 0.707106 0.707107 -30.8237 167.695)" stroke="white" stroke-width="0.75"/>
<line y1="-0.375" x2="79.3791" y2="-0.375" transform="matrix(0.707106 -0.707107 0.707106 0.707107 -28.7026 169.817)" stroke="white" stroke-width="0.75"/>
<line y1="-0.375" x2="79.3791" y2="-0.375" transform="matrix(0.707106 -0.707107 0.707106 0.707107 -26.5811 171.938)" stroke="white" stroke-width="0.75"/>
<line y1="-0.375" x2="79.3791" y2="-0.375" transform="matrix(0.707106 -0.707107 0.707106 0.707107 -24.46 174.059)" stroke="white" stroke-width="0.75"/>
<line y1="-0.375" x2="79.3791" y2="-0.375" transform="matrix(0.707106 -0.707107 0.707106 0.707107 -22.3389 176.181)" stroke="white" stroke-width="0.75"/>
<line y1="-0.375" x2="79.3791" y2="-0.375" transform="matrix(0.707106 -0.707107 0.707106 0.707107 -20.2173 178.302)" stroke="white" stroke-width="0.75"/>
<line y1="-0.375" x2="79.3791" y2="-0.375" transform="matrix(0.707106 -0.707107 0.707106 0.707107 -18.0962 180.423)" stroke="white" stroke-width="0.75"/>
<line y1="-0.375" x2="79.3791" y2="-0.375" transform="matrix(0.707106 -0.707107 0.707106 0.707107 -15.9746 182.545)" stroke="white" stroke-width="0.75"/>
<line y1="-0.375" x2="79.3791" y2="-0.375" transform="matrix(0.707106 -0.707107 0.707106 0.707107 -13.8535 184.666)" stroke="white" stroke-width="0.75"/>
<line y1="-0.375" x2="79.3791" y2="-0.375" transform="matrix(0.707106 -0.707107 0.707106 0.707107 -11.7319 186.787)" stroke="white" stroke-width="0.75"/>
<path d="M44.2672 135.031L-7.35929 186.657" stroke="white" stroke-width="0.75"/>
<line y1="-0.375" x2="79.3791" y2="-0.375" transform="matrix(0.707106 -0.707107 0.707106 0.707107 -7.48926 191.03)" stroke="white" stroke-width="0.75"/>
<line y1="-0.375" x2="79.3791" y2="-0.375" transform="matrix(0.707106 -0.707107 0.707106 0.707107 -5.36816 193.151)" stroke="white" stroke-width="0.75"/>
<line y1="-0.375" x2="79.3791" y2="-0.375" transform="matrix(0.707106 -0.707107 0.707106 0.707107 -3.24658 195.273)" stroke="white" stroke-width="0.75"/>
<line y1="-0.375" x2="79.3791" y2="-0.375" transform="matrix(0.707106 -0.707107 0.707106 0.707107 -1.12549 197.394)" stroke="white" stroke-width="0.75"/>
<line y1="-0.375" x2="79.3791" y2="-0.375" transform="matrix(0.707106 -0.707107 0.707106 0.707107 0.996094 199.515)" stroke="white" stroke-width="0.75"/>
<line y1="-0.375" x2="79.3791" y2="-0.375" transform="matrix(0.707106 -0.707107 0.707106 0.707107 3.11719 201.637)" stroke="white" stroke-width="0.75"/>
<line y1="-0.375" x2="79.3791" y2="-0.375" transform="matrix(0.707106 -0.707107 0.707106 0.707107 5.23877 203.758)" stroke="white" stroke-width="0.75"/>
<line y1="-0.375" x2="79.3791" y2="-0.375" transform="matrix(0.707106 -0.707107 0.707106 0.707107 7.35986 205.879)" stroke="white" stroke-width="0.75"/>
<line y1="-0.375" x2="79.3791" y2="-0.375" transform="matrix(0.707106 -0.707107 0.707106 0.707107 9.48145 208)" stroke="white" stroke-width="0.75"/>
<line y1="-0.375" x2="79.3791" y2="-0.375" transform="matrix(0.707106 -0.707107 0.707106 0.707107 11.6025 210.122)" stroke="white" stroke-width="0.75"/>
<line y1="-0.375" x2="79.3791" y2="-0.375" transform="matrix(0.707106 -0.707107 0.707106 0.707107 13.7241 212.243)" stroke="white" stroke-width="0.75"/>
<line y1="-0.375" x2="79.3791" y2="-0.375" transform="matrix(0.707106 -0.707107 0.707106 0.707107 15.8452 214.365)" stroke="white" stroke-width="0.75"/>
<line y1="-0.375" x2="79.3791" y2="-0.375" transform="matrix(0.707106 -0.707107 0.707106 0.707107 17.9663 216.486)" stroke="white" stroke-width="0.75"/>
<line y1="-0.375" x2="79.3791" y2="-0.375" transform="matrix(0.707106 -0.707107 0.707106 0.707107 20.0879 218.607)" stroke="white" stroke-width="0.75"/>
<line y1="-0.375" x2="79.3791" y2="-0.375" transform="matrix(0.707106 -0.707107 0.707106 0.707107 22.209 220.729)" stroke="white" stroke-width="0.75"/>
<line y1="-0.375" x2="79.3791" y2="-0.375" transform="matrix(0.707106 -0.707107 0.707106 0.707107 24.3306 222.85)" stroke="white" stroke-width="0.75"/>
<line y1="-0.375" x2="79.3791" y2="-0.375" transform="matrix(0.707106 -0.707107 0.707106 0.707107 26.4517 224.971)" stroke="white" stroke-width="0.75"/>
<line y1="-0.375" x2="79.3791" y2="-0.375" transform="matrix(0.707106 -0.707107 0.707106 0.707107 28.5732 227.093)" stroke="white" stroke-width="0.75"/>
<line y1="-0.375" x2="79.3791" y2="-0.375" transform="matrix(0.707106 -0.707107 0.707106 0.707107 30.6943 229.214)" stroke="white" stroke-width="0.75"/>
</g>
</g>
<path d="M18.783 195V189.182H21.1126C21.5406 189.182 21.8976 189.245 22.1836 189.372C22.4696 189.499 22.6845 189.675 22.8285 189.901C22.9724 190.124 23.0444 190.382 23.0444 190.673C23.0444 190.901 22.9989 191.1 22.908 191.273C22.8171 191.443 22.6921 191.583 22.533 191.693C22.3758 191.801 22.1959 191.878 21.9933 191.923V191.98C22.2148 191.99 22.4222 192.052 22.6154 192.168C22.8105 192.283 22.9686 192.445 23.0898 192.653C23.2111 192.86 23.2717 193.106 23.2717 193.392C23.2717 193.701 23.195 193.976 23.0415 194.219C22.89 194.459 22.6656 194.65 22.3683 194.79C22.0709 194.93 21.7044 195 21.2688 195H18.783ZM20.0131 193.994H21.016C21.3588 193.994 21.6088 193.929 21.766 193.798C21.9232 193.666 22.0018 193.49 22.0018 193.27C22.0018 193.109 21.9629 192.967 21.8853 192.844C21.8076 192.721 21.6969 192.624 21.5529 192.554C21.4109 192.484 21.2414 192.449 21.0444 192.449H20.0131V193.994ZM20.0131 191.616H20.9251C21.0936 191.616 21.2433 191.587 21.3739 191.528C21.5065 191.468 21.6107 191.383 21.6864 191.273C21.7641 191.163 21.8029 191.031 21.8029 190.878C21.8029 190.668 21.7281 190.498 21.5785 190.369C21.4308 190.241 21.2205 190.176 20.9478 190.176H20.0131V191.616ZM26.8477 193.142V190.636H28.0579V195H26.896V194.207H26.8505C26.752 194.463 26.5882 194.669 26.359 194.824C26.1317 194.979 25.8543 195.057 25.5266 195.057C25.235 195.057 24.9783 194.991 24.7567 194.858C24.5352 194.725 24.3619 194.537 24.2369 194.293C24.1138 194.048 24.0513 193.756 24.0494 193.415V190.636H25.2596V193.199C25.2615 193.456 25.3306 193.66 25.467 193.81C25.6033 193.959 25.7861 194.034 26.0153 194.034C26.1611 194.034 26.2975 194.001 26.4244 193.935C26.5513 193.866 26.6535 193.766 26.7312 193.634C26.8107 193.501 26.8496 193.337 26.8477 193.142ZM32.6566 191.881L31.5487 191.949C31.5297 191.854 31.489 191.769 31.4265 191.693C31.364 191.616 31.2816 191.554 31.1793 191.509C31.079 191.461 30.9587 191.438 30.8185 191.438C30.631 191.438 30.4729 191.477 30.3441 191.557C30.2153 191.634 30.1509 191.739 30.1509 191.869C30.1509 191.973 30.1926 192.062 30.2759 192.134C30.3593 192.205 30.5022 192.263 30.7049 192.307L31.4947 192.466C31.9189 192.553 32.2352 192.693 32.4435 192.886C32.6519 193.08 32.756 193.333 32.756 193.648C32.756 193.934 32.6718 194.185 32.5032 194.401C32.3365 194.616 32.1074 194.785 31.8157 194.906C31.5259 195.026 31.1916 195.085 30.8129 195.085C30.2352 195.085 29.775 194.965 29.4322 194.724C29.0913 194.482 28.8915 194.152 28.8327 193.736L30.0231 193.673C30.0591 193.849 30.1462 193.984 30.2844 194.077C30.4227 194.168 30.5998 194.213 30.8157 194.213C31.0278 194.213 31.1983 194.172 31.3271 194.091C31.4577 194.008 31.524 193.901 31.5259 193.77C31.524 193.66 31.4776 193.57 31.3867 193.5C31.2958 193.428 31.1557 193.373 30.9663 193.335L30.2106 193.185C29.7844 193.099 29.4672 192.952 29.2589 192.741C29.0524 192.531 28.9492 192.263 28.9492 191.938C28.9492 191.657 29.025 191.416 29.1765 191.213C29.3299 191.01 29.5449 190.854 29.8214 190.744C30.0998 190.634 30.4255 190.58 30.7987 190.58C31.3498 190.58 31.7835 190.696 32.0998 190.929C32.418 191.162 32.6036 191.479 32.6566 191.881ZM34.2653 196.636C34.1119 196.636 33.9679 196.624 33.8335 196.599C33.7009 196.577 33.591 196.547 33.5039 196.511L33.7766 195.608C33.9187 195.652 34.0465 195.675 34.1602 195.679C34.2757 195.683 34.3751 195.656 34.4585 195.599C34.5437 195.543 34.6128 195.446 34.6658 195.31L34.7369 195.125L33.1715 190.636H34.4442L35.3477 193.841H35.3931L36.305 190.636H37.5863L35.8903 195.472C35.8088 195.706 35.698 195.911 35.5579 196.085C35.4196 196.261 35.2444 196.397 35.0323 196.491C34.8202 196.588 34.5645 196.636 34.2653 196.636Z" fill="black"/>
<path fill-rule="evenodd" clip-rule="evenodd" d="M12 34C13.6198 34 16.0927 31.3919 17.8493 29.2517C18.6472 28.2795 19.0462 27.7934 19.4275 27.6523C19.7939 27.5168 20.0974 27.5164 20.4642 27.6509C20.8458 27.7908 21.2469 28.2766 22.049 29.2483C23.8163 31.3891 26.3166 34 28 34H12Z" fill="white"/>
</g>
<path d="M20 16V12M20 8H20.01M30 12C30 17.5228 25.5228 22 20 22C14.4772 22 10 17.5228 10 12C10 6.47715 14.4772 2 20 2C25.5228 2 30 6.47715 30 12Z" stroke="white" stroke-width="2" stroke-linecap="round" stroke-linejoin="round"/>
<defs>
<filter id="filter0_d_15855_50155" x="0" y="22" width="56" height="192" filterUnits="userSpaceOnUse" color-interpolation-filters="sRGB">
<feFlood flood-opacity="0" result="BackgroundImageFix"/>
<feColorMatrix in="SourceAlpha" type="matrix" values="0 0 0 0 0 0 0 0 0 0 0 0 0 0 0 0 0 0 127 0" result="hardAlpha"/>
<feOffset/>
<feGaussianBlur stdDeviation="2"/>
<feComposite in2="hardAlpha" operator="out"/>
<feColorMatrix type="matrix" values="0 0 0 0 0 0 0 0 0 0 0 0 0 0 0 0 0 0 0.12 0"/>
<feBlend mode="normal" in2="BackgroundImageFix" result="effect1_dropShadow_15855_50155"/>
<feBlend mode="normal" in="SourceGraphic" in2="effect1_dropShadow_15855_50155" result="shape"/>
</filter>
</defs>
</svg>
