<svg width="366" height="174" viewBox="0 0 366 174" fill="none" xmlns="http://www.w3.org/2000/svg">
<path d="M262.919 8.39205V6.36364H272.476V8.39205H268.913V18H266.481V8.39205H262.919ZM275.145 18.1648C274.588 18.1648 274.092 18.0682 273.657 17.875C273.221 17.678 272.876 17.3883 272.622 17.0057C272.372 16.6193 272.247 16.1383 272.247 15.5625C272.247 15.0777 272.336 14.6705 272.514 14.3409C272.693 14.0114 272.935 13.7462 273.242 13.5455C273.549 13.3447 273.897 13.1932 274.287 13.0909C274.681 12.9886 275.094 12.9167 275.526 12.875C276.033 12.822 276.443 12.7727 276.753 12.7273C277.064 12.678 277.289 12.6061 277.429 12.5114C277.569 12.4167 277.639 12.2765 277.639 12.0909V12.0568C277.639 11.697 277.526 11.4186 277.299 11.2216C277.075 11.0246 276.757 10.9261 276.344 10.9261C275.908 10.9261 275.562 11.0227 275.304 11.2159C275.047 11.4053 274.876 11.6439 274.793 11.9318L272.554 11.75C272.668 11.2197 272.891 10.7614 273.225 10.375C273.558 9.98485 273.988 9.68561 274.514 9.47727C275.045 9.26515 275.658 9.15909 276.355 9.15909C276.84 9.15909 277.304 9.21591 277.747 9.32955C278.194 9.44318 278.59 9.61932 278.935 9.85795C279.283 10.0966 279.558 10.4034 279.759 10.7784C279.96 11.1496 280.06 11.5947 280.06 12.1136V18H277.764V16.7898H277.696C277.556 17.0625 277.369 17.303 277.134 17.5114C276.899 17.7159 276.617 17.8769 276.287 17.9943C275.958 18.108 275.577 18.1648 275.145 18.1648ZM275.838 16.4943C276.194 16.4943 276.509 16.4242 276.782 16.2841C277.054 16.1402 277.268 15.947 277.424 15.7045C277.579 15.4621 277.657 15.1875 277.657 14.8807V13.9545C277.581 14.0038 277.477 14.0492 277.344 14.0909C277.215 14.1288 277.069 14.1648 276.907 14.1989C276.744 14.2292 276.581 14.2576 276.418 14.2841C276.255 14.3068 276.107 14.3277 275.975 14.3466C275.691 14.3883 275.443 14.4545 275.23 14.5455C275.018 14.6364 274.854 14.7595 274.736 14.9148C274.619 15.0663 274.56 15.2557 274.56 15.483C274.56 15.8125 274.679 16.0644 274.918 16.2386C275.16 16.4091 275.467 16.4943 275.838 16.4943ZM281.778 21.2727V9.27273H284.164V10.7386H284.272C284.378 10.5038 284.532 10.2652 284.732 10.0227C284.937 9.77652 285.202 9.57197 285.528 9.40909C285.857 9.24242 286.266 9.15909 286.755 9.15909C287.391 9.15909 287.979 9.32576 288.516 9.65909C289.054 9.98864 289.484 10.4867 289.806 11.1534C290.128 11.8163 290.289 12.6477 290.289 13.6477C290.289 14.6212 290.132 15.4432 289.818 16.1136C289.507 16.7803 289.083 17.286 288.545 17.6307C288.011 17.9716 287.412 18.142 286.749 18.142C286.28 18.142 285.88 18.0644 285.551 17.9091C285.225 17.7538 284.958 17.5587 284.749 17.3239C284.541 17.0852 284.382 16.8447 284.272 16.6023H284.198V21.2727H281.778ZM284.147 13.6364C284.147 14.1553 284.219 14.608 284.363 14.9943C284.507 15.3807 284.715 15.6818 284.988 15.8977C285.261 16.1098 285.592 16.2159 285.982 16.2159C286.376 16.2159 286.71 16.108 286.982 15.892C287.255 15.6723 287.461 15.3693 287.602 14.983C287.746 14.5928 287.818 14.1439 287.818 13.6364C287.818 13.1326 287.747 12.6894 287.607 12.3068C287.467 11.9242 287.261 11.625 286.988 11.4091C286.715 11.1932 286.38 11.0852 285.982 11.0852C285.588 11.0852 285.255 11.1894 284.982 11.3977C284.713 11.6061 284.507 11.9015 284.363 12.2841C284.219 12.6667 284.147 13.1174 284.147 13.6364ZM299.928 9.27273V11.0909H294.672V9.27273H299.928ZM295.865 7.18182H298.286V15.3182C298.286 15.5417 298.32 15.7159 298.388 15.8409C298.456 15.9621 298.551 16.0473 298.672 16.0966C298.797 16.1458 298.941 16.1705 299.104 16.1705C299.218 16.1705 299.331 16.161 299.445 16.142C299.559 16.1193 299.646 16.1023 299.706 16.0909L300.087 17.892C299.966 17.9299 299.795 17.9735 299.576 18.0227C299.356 18.0758 299.089 18.108 298.775 18.1193C298.191 18.142 297.68 18.0644 297.24 17.8864C296.805 17.7083 296.466 17.4318 296.223 17.0568C295.981 16.6818 295.862 16.2083 295.865 15.6364V7.18182ZM305.194 18.1705C304.312 18.1705 303.548 17.983 302.904 17.608C302.264 17.2292 301.77 16.7027 301.421 16.0284C301.073 15.3504 300.899 14.5644 300.899 13.6705C300.899 12.7689 301.073 11.9811 301.421 11.3068C301.77 10.6288 302.264 10.1023 302.904 9.72727C303.548 9.34848 304.312 9.15909 305.194 9.15909C306.077 9.15909 306.838 9.34848 307.478 9.72727C308.122 10.1023 308.618 10.6288 308.967 11.3068C309.315 11.9811 309.49 12.7689 309.49 13.6705C309.49 14.5644 309.315 15.3504 308.967 16.0284C308.618 16.7027 308.122 17.2292 307.478 17.608C306.838 17.983 306.077 18.1705 305.194 18.1705ZM305.205 16.2955C305.607 16.2955 305.942 16.1818 306.211 15.9545C306.48 15.7235 306.683 15.4091 306.819 15.0114C306.959 14.6136 307.029 14.161 307.029 13.6534C307.029 13.1458 306.959 12.6932 306.819 12.2955C306.683 11.8977 306.48 11.5833 306.211 11.3523C305.942 11.1212 305.607 11.0057 305.205 11.0057C304.8 11.0057 304.459 11.1212 304.183 11.3523C303.91 11.5833 303.704 11.8977 303.563 12.2955C303.427 12.6932 303.359 13.1458 303.359 13.6534C303.359 14.161 303.427 14.6136 303.563 15.0114C303.704 15.4091 303.91 15.7235 304.183 15.9545C304.459 16.1818 304.8 16.2955 305.205 16.2955ZM316.935 18.1648C316.378 18.1648 315.882 18.0682 315.447 17.875C315.011 17.678 314.666 17.3883 314.412 17.0057C314.162 16.6193 314.037 16.1383 314.037 15.5625C314.037 15.0777 314.126 14.6705 314.304 14.3409C314.483 14.0114 314.725 13.7462 315.032 13.5455C315.339 13.3447 315.687 13.1932 316.077 13.0909C316.471 12.9886 316.884 12.9167 317.316 12.875C317.823 12.822 318.233 12.7727 318.543 12.7273C318.854 12.678 319.079 12.6061 319.219 12.5114C319.359 12.4167 319.429 12.2765 319.429 12.0909V12.0568C319.429 11.697 319.316 11.4186 319.089 11.2216C318.865 11.0246 318.547 10.9261 318.134 10.9261C317.698 10.9261 317.352 11.0227 317.094 11.2159C316.837 11.4053 316.666 11.6439 316.583 11.9318L314.344 11.75C314.458 11.2197 314.681 10.7614 315.015 10.375C315.348 9.98485 315.778 9.68561 316.304 9.47727C316.835 9.26515 317.448 9.15909 318.145 9.15909C318.63 9.15909 319.094 9.21591 319.537 9.32955C319.984 9.44318 320.38 9.61932 320.725 9.85795C321.073 10.0966 321.348 10.4034 321.549 10.7784C321.75 11.1496 321.85 11.5947 321.85 12.1136V18H319.554V16.7898H319.486C319.346 17.0625 319.159 17.303 318.924 17.5114C318.689 17.7159 318.407 17.8769 318.077 17.9943C317.748 18.108 317.367 18.1648 316.935 18.1648ZM317.628 16.4943C317.984 16.4943 318.299 16.4242 318.572 16.2841C318.844 16.1402 319.058 15.947 319.214 15.7045C319.369 15.4621 319.447 15.1875 319.447 14.8807V13.9545C319.371 14.0038 319.267 14.0492 319.134 14.0909C319.005 14.1288 318.859 14.1648 318.697 14.1989C318.534 14.2292 318.371 14.2576 318.208 14.2841C318.045 14.3068 317.897 14.3277 317.765 14.3466C317.481 14.3883 317.233 14.4545 317.02 14.5455C316.808 14.6364 316.644 14.7595 316.526 14.9148C316.409 15.0663 316.35 15.2557 316.35 15.483C316.35 15.8125 316.469 16.0644 316.708 16.2386C316.95 16.4091 317.257 16.4943 317.628 16.4943ZM326.784 18.142C326.121 18.142 325.52 17.9716 324.983 17.6307C324.448 17.286 324.024 16.7803 323.71 16.1136C323.399 15.4432 323.244 14.6212 323.244 13.6477C323.244 12.6477 323.405 11.8163 323.727 11.1534C324.049 10.4867 324.477 9.98864 325.011 9.65909C325.549 9.32576 326.138 9.15909 326.778 9.15909C327.267 9.15909 327.674 9.24242 328 9.40909C328.329 9.57197 328.594 9.77652 328.795 10.0227C329 10.2652 329.155 10.5038 329.261 10.7386H329.335V6.36364H331.75V18H329.363V16.6023H329.261C329.147 16.8447 328.986 17.0852 328.778 17.3239C328.573 17.5587 328.306 17.7538 327.977 17.9091C327.651 18.0644 327.253 18.142 326.784 18.142ZM327.551 16.2159C327.941 16.2159 328.27 16.1098 328.539 15.8977C328.812 15.6818 329.02 15.3807 329.164 14.9943C329.312 14.608 329.386 14.1553 329.386 13.6364C329.386 13.1174 329.314 12.6667 329.17 12.2841C329.026 11.9015 328.818 11.6061 328.545 11.3977C328.272 11.1894 327.941 11.0852 327.551 11.0852C327.153 11.0852 326.818 11.1932 326.545 11.4091C326.272 11.625 326.066 11.9242 325.926 12.3068C325.786 12.6894 325.716 13.1326 325.716 13.6364C325.716 14.1439 325.786 14.5928 325.926 14.983C326.07 15.3693 326.276 15.6723 326.545 15.892C326.818 16.108 327.153 16.2159 327.551 16.2159ZM333.58 9.27273H336V18.4318C336 19.1061 335.868 19.6515 335.602 20.0682C335.337 20.4848 334.957 20.7898 334.46 20.983C333.968 21.1761 333.379 21.2727 332.693 21.2727C332.61 21.2727 332.53 21.2708 332.455 21.267C332.375 21.267 332.292 21.2652 332.205 21.2614V19.3693C332.269 19.3731 332.326 19.375 332.375 19.375C332.421 19.3788 332.47 19.3807 332.523 19.3807C332.913 19.3807 333.186 19.2973 333.341 19.1307C333.5 18.9678 333.58 18.7216 333.58 18.392V9.27273ZM334.784 8.14773C334.428 8.14773 334.121 8.02841 333.864 7.78977C333.606 7.54735 333.477 7.25758 333.477 6.92045C333.477 6.58712 333.606 6.30114 333.864 6.0625C334.121 5.82008 334.428 5.69886 334.784 5.69886C335.148 5.69886 335.457 5.82008 335.71 6.0625C335.968 6.30114 336.097 6.58712 336.097 6.92045C336.097 7.25758 335.968 7.54735 335.71 7.78977C335.457 8.02841 335.148 8.14773 334.784 8.14773ZM343.376 14.2841V9.27273H345.796V18H343.472V16.4148H343.381C343.184 16.9261 342.857 17.3371 342.398 17.6477C341.944 17.9583 341.389 18.1136 340.734 18.1136C340.15 18.1136 339.637 17.9811 339.194 17.7159C338.751 17.4508 338.404 17.0739 338.154 16.5852C337.908 16.0966 337.783 15.5114 337.779 14.8295V9.27273H340.199V14.3977C340.203 14.9129 340.342 15.3201 340.614 15.6193C340.887 15.9186 341.253 16.0682 341.711 16.0682C342.003 16.0682 342.275 16.0019 342.529 15.8693C342.783 15.733 342.987 15.5322 343.143 15.267C343.302 15.0019 343.379 14.6742 343.376 14.2841ZM354.834 11.7614L352.618 11.8977C352.58 11.7083 352.498 11.5379 352.373 11.3864C352.248 11.2311 352.084 11.108 351.879 11.017C351.678 10.9223 351.438 10.875 351.157 10.875C350.782 10.875 350.466 10.9545 350.209 11.1136C349.951 11.2689 349.822 11.4773 349.822 11.7386C349.822 11.947 349.905 12.1231 350.072 12.267C350.239 12.411 350.525 12.5265 350.93 12.6136L352.51 12.9318C353.358 13.1061 353.991 13.3864 354.407 13.7727C354.824 14.1591 355.032 14.6667 355.032 15.2955C355.032 15.8674 354.864 16.3693 354.527 16.8011C354.193 17.233 353.735 17.5701 353.152 17.8125C352.572 18.0511 351.904 18.1705 351.146 18.1705C349.991 18.1705 349.07 17.9299 348.385 17.4489C347.703 16.964 347.303 16.3049 347.186 15.4716L349.566 15.3466C349.638 15.6989 349.813 15.9678 350.089 16.1534C350.366 16.3352 350.72 16.4261 351.152 16.4261C351.576 16.4261 351.917 16.3447 352.174 16.1818C352.436 16.0152 352.568 15.8011 352.572 15.5398C352.568 15.3201 352.476 15.1402 352.294 15C352.112 14.8561 351.832 14.7462 351.453 14.6705L349.941 14.3693C349.089 14.1989 348.455 13.9034 348.038 13.483C347.625 13.0625 347.419 12.5265 347.419 11.875C347.419 11.3144 347.57 10.8314 347.873 10.4261C348.18 10.0208 348.61 9.70833 349.163 9.48864C349.72 9.26894 350.371 9.15909 351.118 9.15909C352.22 9.15909 353.087 9.39205 353.72 9.85795C354.356 10.3239 354.727 10.9583 354.834 11.7614ZM361.039 9.27273V11.0909H355.783V9.27273H361.039ZM356.976 7.18182H359.397V15.3182C359.397 15.5417 359.431 15.7159 359.499 15.8409C359.567 15.9621 359.662 16.0473 359.783 16.0966C359.908 16.1458 360.052 16.1705 360.215 16.1705C360.328 16.1705 360.442 16.161 360.556 16.142C360.669 16.1193 360.756 16.1023 360.817 16.0909L361.198 17.892C361.076 17.9299 360.906 17.9735 360.686 18.0227C360.467 18.0758 360.2 18.108 359.885 18.1193C359.302 18.142 358.79 18.0644 358.351 17.8864C357.915 17.7083 357.576 17.4318 357.334 17.0568C357.092 16.6818 356.972 16.2083 356.976 15.6364V7.18182ZM283.939 42H279.814V30.3636H283.973C285.143 30.3636 286.151 30.5966 286.995 31.0625C287.84 31.5246 288.49 32.1894 288.944 33.0568C289.403 33.9242 289.632 34.9621 289.632 36.1705C289.632 37.3826 289.403 38.4242 288.944 39.2955C288.49 40.1667 287.836 40.8352 286.984 41.3011C286.136 41.767 285.12 42 283.939 42ZM282.274 39.892H283.836C284.564 39.892 285.175 39.7633 285.672 39.5057C286.172 39.2443 286.547 38.8409 286.797 38.2955C287.05 37.7462 287.177 37.0379 287.177 36.1705C287.177 35.3106 287.05 34.608 286.797 34.0625C286.547 33.517 286.173 33.1155 285.677 32.858C285.181 32.6004 284.569 32.4716 283.842 32.4716H282.274V39.892ZM296.845 38.2841V33.2727H299.266V42H296.942V40.4148H296.851C296.654 40.9261 296.326 41.3371 295.868 41.6477C295.413 41.9583 294.859 42.1136 294.203 42.1136C293.62 42.1136 293.107 41.9811 292.663 41.7159C292.22 41.4508 291.874 41.0739 291.624 40.5852C291.378 40.0966 291.253 39.5114 291.249 38.8295V33.2727H293.669V38.3977C293.673 38.9129 293.811 39.3201 294.084 39.6193C294.357 39.9186 294.722 40.0682 295.181 40.0682C295.472 40.0682 295.745 40.0019 295.999 39.8693C296.253 39.733 296.457 39.5322 296.612 39.267C296.771 39.0019 296.849 38.6742 296.845 38.2841ZM301.042 42V33.2727H303.388V34.7955H303.479C303.638 34.2538 303.905 33.8447 304.28 33.5682C304.655 33.2879 305.087 33.1477 305.576 33.1477C305.697 33.1477 305.828 33.1553 305.968 33.1705C306.108 33.1856 306.231 33.2064 306.337 33.233V35.3807C306.224 35.3466 306.066 35.3163 305.866 35.2898C305.665 35.2633 305.481 35.25 305.315 35.25C304.959 35.25 304.64 35.3277 304.36 35.483C304.084 35.6345 303.864 35.8466 303.701 36.1193C303.542 36.392 303.462 36.7064 303.462 37.0625V42H301.042ZM309.667 42.1648C309.111 42.1648 308.614 42.0682 308.179 41.875C307.743 41.678 307.398 41.3883 307.145 41.0057C306.895 40.6193 306.77 40.1383 306.77 39.5625C306.77 39.0777 306.859 38.6705 307.037 38.3409C307.215 38.0114 307.457 37.7462 307.764 37.5455C308.071 37.3447 308.419 37.1932 308.809 37.0909C309.203 36.9886 309.616 36.9167 310.048 36.875C310.556 36.822 310.965 36.7727 311.275 36.7273C311.586 36.678 311.811 36.6061 311.951 36.5114C312.092 36.4167 312.162 36.2765 312.162 36.0909V36.0568C312.162 35.697 312.048 35.4186 311.821 35.2216C311.597 35.0246 311.279 34.9261 310.866 34.9261C310.431 34.9261 310.084 35.0227 309.826 35.2159C309.569 35.4053 309.398 35.6439 309.315 35.9318L307.076 35.75C307.19 35.2197 307.414 34.7614 307.747 34.375C308.08 33.9848 308.51 33.6856 309.037 33.4773C309.567 33.2652 310.181 33.1591 310.878 33.1591C311.362 33.1591 311.826 33.2159 312.27 33.3295C312.717 33.4432 313.112 33.6193 313.457 33.858C313.806 34.0966 314.08 34.4034 314.281 34.7784C314.482 35.1496 314.582 35.5947 314.582 36.1136V42H312.287V40.7898H312.218C312.078 41.0625 311.891 41.303 311.656 41.5114C311.421 41.7159 311.139 41.8769 310.809 41.9943C310.48 42.108 310.099 42.1648 309.667 42.1648ZM310.361 40.4943C310.717 40.4943 311.031 40.4242 311.304 40.2841C311.576 40.1402 311.79 39.947 311.946 39.7045C312.101 39.4621 312.179 39.1875 312.179 38.8807V37.9545C312.103 38.0038 311.999 38.0492 311.866 38.0909C311.737 38.1288 311.592 38.1648 311.429 38.1989C311.266 38.2292 311.103 38.2576 310.94 38.2841C310.777 38.3068 310.629 38.3277 310.497 38.3466C310.213 38.3883 309.965 38.4545 309.753 38.5455C309.54 38.6364 309.376 38.7595 309.258 38.9148C309.141 39.0663 309.082 39.2557 309.082 39.483C309.082 39.8125 309.201 40.0644 309.44 40.2386C309.683 40.4091 309.989 40.4943 310.361 40.4943ZM320.942 33.2727V35.0909H315.686V33.2727H320.942ZM316.88 31.1818H319.3V39.3182C319.3 39.5417 319.334 39.7159 319.402 39.8409C319.47 39.9621 319.565 40.0473 319.686 40.0966C319.811 40.1458 319.955 40.1705 320.118 40.1705C320.232 40.1705 320.345 40.161 320.459 40.142C320.573 40.1193 320.66 40.1023 320.72 40.0909L321.101 41.892C320.98 41.9299 320.809 41.9735 320.59 42.0227C320.37 42.0758 320.103 42.108 319.789 42.1193C319.205 42.142 318.694 42.0644 318.255 41.8864C317.819 41.7083 317.48 41.4318 317.237 41.0568C316.995 40.6818 316.876 40.2083 316.88 39.6364V31.1818ZM322.359 42V33.2727H324.779V42H322.359ZM323.575 32.1477C323.215 32.1477 322.906 32.0284 322.648 31.7898C322.395 31.5473 322.268 31.2576 322.268 30.9205C322.268 30.5871 322.395 30.3011 322.648 30.0625C322.906 29.8201 323.215 29.6989 323.575 29.6989C323.934 29.6989 324.241 29.8201 324.495 30.0625C324.753 30.3011 324.881 30.5871 324.881 30.9205C324.881 31.2576 324.753 31.5473 324.495 31.7898C324.241 32.0284 323.934 32.1477 323.575 32.1477ZM330.501 42.1705C329.619 42.1705 328.855 41.983 328.212 41.608C327.571 41.2292 327.077 40.7027 326.729 40.0284C326.38 39.3504 326.206 38.5644 326.206 37.6705C326.206 36.7689 326.38 35.9811 326.729 35.3068C327.077 34.6288 327.571 34.1023 328.212 33.7273C328.855 33.3485 329.619 33.1591 330.501 33.1591C331.384 33.1591 332.145 33.3485 332.785 33.7273C333.429 34.1023 333.926 34.6288 334.274 35.3068C334.622 35.9811 334.797 36.7689 334.797 37.6705C334.797 38.5644 334.622 39.3504 334.274 40.0284C333.926 40.7027 333.429 41.2292 332.785 41.608C332.145 41.983 331.384 42.1705 330.501 42.1705ZM330.513 40.2955C330.914 40.2955 331.249 40.1818 331.518 39.9545C331.787 39.7235 331.99 39.4091 332.126 39.0114C332.266 38.6136 332.337 38.161 332.337 37.6534C332.337 37.1458 332.266 36.6932 332.126 36.2955C331.99 35.8977 331.787 35.5833 331.518 35.3523C331.249 35.1212 330.914 35.0057 330.513 35.0057C330.107 35.0057 329.766 35.1212 329.49 35.3523C329.217 35.5833 329.011 35.8977 328.871 36.2955C328.734 36.6932 328.666 37.1458 328.666 37.6534C328.666 38.161 328.734 38.6136 328.871 39.0114C329.011 39.4091 329.217 39.7235 329.49 39.9545C329.766 40.1818 330.107 40.2955 330.513 40.2955ZM338.631 36.9545V42H336.211V33.2727H338.517V34.8125H338.62C338.813 34.3049 339.137 33.9034 339.591 33.608C340.046 33.3087 340.597 33.1591 341.245 33.1591C341.851 33.1591 342.379 33.2917 342.83 33.5568C343.281 33.822 343.631 34.2008 343.881 34.6932C344.131 35.1818 344.256 35.7652 344.256 36.4432V42H341.836V36.875C341.839 36.3409 341.703 35.9242 341.427 35.625C341.15 35.322 340.769 35.1705 340.284 35.1705C339.959 35.1705 339.671 35.2405 339.421 35.3807C339.175 35.5208 338.981 35.7254 338.841 35.9943C338.705 36.2595 338.635 36.5795 338.631 36.9545Z" fill="white"/>
<path d="M324.066 52.019C324.546 51.7984 325.158 52.0289 325.434 52.5339C325.709 53.0388 325.543 53.6269 325.063 53.8475L324.066 52.019ZM299.436 92.3883L295.397 81.2196L306.809 84.3582L299.436 92.3883ZM325.063 53.8475C317.918 57.1287 312.994 60.6877 309.431 65.3808C305.863 70.0788 303.606 75.9824 301.919 84.0529L299.954 83.4471C301.67 75.2393 304.001 69.053 307.784 64.0715C311.57 59.0851 316.758 55.3749 324.066 52.019L325.063 53.8475Z" fill="white"/>
<path d="M152.919 8.39205V6.36364H162.476V8.39205H158.913V18H156.481V8.39205H152.919ZM165.145 18.1648C164.588 18.1648 164.092 18.0682 163.657 17.875C163.221 17.678 162.876 17.3883 162.622 17.0057C162.372 16.6193 162.247 16.1383 162.247 15.5625C162.247 15.0777 162.336 14.6705 162.514 14.3409C162.693 14.0114 162.935 13.7462 163.242 13.5455C163.549 13.3447 163.897 13.1932 164.287 13.0909C164.681 12.9886 165.094 12.9167 165.526 12.875C166.033 12.822 166.443 12.7727 166.753 12.7273C167.064 12.678 167.289 12.6061 167.429 12.5114C167.569 12.4167 167.639 12.2765 167.639 12.0909V12.0568C167.639 11.697 167.526 11.4186 167.299 11.2216C167.075 11.0246 166.757 10.9261 166.344 10.9261C165.908 10.9261 165.562 11.0227 165.304 11.2159C165.047 11.4053 164.876 11.6439 164.793 11.9318L162.554 11.75C162.668 11.2197 162.891 10.7614 163.225 10.375C163.558 9.98485 163.988 9.68561 164.514 9.47727C165.045 9.26515 165.658 9.15909 166.355 9.15909C166.84 9.15909 167.304 9.21591 167.747 9.32955C168.194 9.44318 168.59 9.61932 168.935 9.85795C169.283 10.0966 169.558 10.4034 169.759 10.7784C169.96 11.1496 170.06 11.5947 170.06 12.1136V18H167.764V16.7898H167.696C167.556 17.0625 167.369 17.303 167.134 17.5114C166.899 17.7159 166.617 17.8769 166.287 17.9943C165.958 18.108 165.577 18.1648 165.145 18.1648ZM165.838 16.4943C166.194 16.4943 166.509 16.4242 166.782 16.2841C167.054 16.1402 167.268 15.947 167.424 15.7045C167.579 15.4621 167.657 15.1875 167.657 14.8807V13.9545C167.581 14.0038 167.477 14.0492 167.344 14.0909C167.215 14.1288 167.069 14.1648 166.907 14.1989C166.744 14.2292 166.581 14.2576 166.418 14.2841C166.255 14.3068 166.107 14.3277 165.975 14.3466C165.691 14.3883 165.443 14.4545 165.23 14.5455C165.018 14.6364 164.854 14.7595 164.736 14.9148C164.619 15.0663 164.56 15.2557 164.56 15.483C164.56 15.8125 164.679 16.0644 164.918 16.2386C165.16 16.4091 165.467 16.4943 165.838 16.4943ZM171.778 21.2727V9.27273H174.164V10.7386H174.272C174.378 10.5038 174.532 10.2652 174.732 10.0227C174.937 9.77652 175.202 9.57197 175.528 9.40909C175.857 9.24242 176.266 9.15909 176.755 9.15909C177.391 9.15909 177.979 9.32576 178.516 9.65909C179.054 9.98864 179.484 10.4867 179.806 11.1534C180.128 11.8163 180.289 12.6477 180.289 13.6477C180.289 14.6212 180.132 15.4432 179.818 16.1136C179.507 16.7803 179.083 17.286 178.545 17.6307C178.011 17.9716 177.412 18.142 176.749 18.142C176.28 18.142 175.88 18.0644 175.551 17.9091C175.225 17.7538 174.958 17.5587 174.749 17.3239C174.541 17.0852 174.382 16.8447 174.272 16.6023H174.198V21.2727H171.778ZM174.147 13.6364C174.147 14.1553 174.219 14.608 174.363 14.9943C174.507 15.3807 174.715 15.6818 174.988 15.8977C175.261 16.1098 175.592 16.2159 175.982 16.2159C176.376 16.2159 176.71 16.108 176.982 15.892C177.255 15.6723 177.461 15.3693 177.602 14.983C177.746 14.5928 177.818 14.1439 177.818 13.6364C177.818 13.1326 177.747 12.6894 177.607 12.3068C177.467 11.9242 177.261 11.625 176.988 11.4091C176.715 11.1932 176.38 11.0852 175.982 11.0852C175.588 11.0852 175.255 11.1894 174.982 11.3977C174.713 11.6061 174.507 11.9015 174.363 12.2841C174.219 12.6667 174.147 13.1174 174.147 13.6364ZM189.928 9.27273V11.0909H184.672V9.27273H189.928ZM185.865 7.18182H188.286V15.3182C188.286 15.5417 188.32 15.7159 188.388 15.8409C188.456 15.9621 188.551 16.0473 188.672 16.0966C188.797 16.1458 188.941 16.1705 189.104 16.1705C189.218 16.1705 189.331 16.161 189.445 16.142C189.559 16.1193 189.646 16.1023 189.706 16.0909L190.087 17.892C189.966 17.9299 189.795 17.9735 189.576 18.0227C189.356 18.0758 189.089 18.108 188.775 18.1193C188.191 18.142 187.68 18.0644 187.24 17.8864C186.805 17.7083 186.466 17.4318 186.223 17.0568C185.981 16.6818 185.862 16.2083 185.865 15.6364V7.18182ZM195.194 18.1705C194.312 18.1705 193.548 17.983 192.904 17.608C192.264 17.2292 191.77 16.7027 191.421 16.0284C191.073 15.3504 190.899 14.5644 190.899 13.6705C190.899 12.7689 191.073 11.9811 191.421 11.3068C191.77 10.6288 192.264 10.1023 192.904 9.72727C193.548 9.34848 194.312 9.15909 195.194 9.15909C196.077 9.15909 196.838 9.34848 197.478 9.72727C198.122 10.1023 198.618 10.6288 198.967 11.3068C199.315 11.9811 199.49 12.7689 199.49 13.6705C199.49 14.5644 199.315 15.3504 198.967 16.0284C198.618 16.7027 198.122 17.2292 197.478 17.608C196.838 17.983 196.077 18.1705 195.194 18.1705ZM195.205 16.2955C195.607 16.2955 195.942 16.1818 196.211 15.9545C196.48 15.7235 196.683 15.4091 196.819 15.0114C196.959 14.6136 197.029 14.161 197.029 13.6534C197.029 13.1458 196.959 12.6932 196.819 12.2955C196.683 11.8977 196.48 11.5833 196.211 11.3523C195.942 11.1212 195.607 11.0057 195.205 11.0057C194.8 11.0057 194.459 11.1212 194.183 11.3523C193.91 11.5833 193.704 11.8977 193.563 12.2955C193.427 12.6932 193.359 13.1458 193.359 13.6534C193.359 14.161 193.427 14.6136 193.563 15.0114C193.704 15.4091 193.91 15.7235 194.183 15.9545C194.459 16.1818 194.8 16.2955 195.205 16.2955ZM206.935 18.1648C206.378 18.1648 205.882 18.0682 205.447 17.875C205.011 17.678 204.666 17.3883 204.412 17.0057C204.162 16.6193 204.037 16.1383 204.037 15.5625C204.037 15.0777 204.126 14.6705 204.304 14.3409C204.483 14.0114 204.725 13.7462 205.032 13.5455C205.339 13.3447 205.687 13.1932 206.077 13.0909C206.471 12.9886 206.884 12.9167 207.316 12.875C207.823 12.822 208.233 12.7727 208.543 12.7273C208.854 12.678 209.079 12.6061 209.219 12.5114C209.359 12.4167 209.429 12.2765 209.429 12.0909V12.0568C209.429 11.697 209.316 11.4186 209.089 11.2216C208.865 11.0246 208.547 10.9261 208.134 10.9261C207.698 10.9261 207.352 11.0227 207.094 11.2159C206.837 11.4053 206.666 11.6439 206.583 11.9318L204.344 11.75C204.458 11.2197 204.681 10.7614 205.015 10.375C205.348 9.98485 205.778 9.68561 206.304 9.47727C206.835 9.26515 207.448 9.15909 208.145 9.15909C208.63 9.15909 209.094 9.21591 209.537 9.32955C209.984 9.44318 210.38 9.61932 210.725 9.85795C211.073 10.0966 211.348 10.4034 211.549 10.7784C211.75 11.1496 211.85 11.5947 211.85 12.1136V18H209.554V16.7898H209.486C209.346 17.0625 209.159 17.303 208.924 17.5114C208.689 17.7159 208.407 17.8769 208.077 17.9943C207.748 18.108 207.367 18.1648 206.935 18.1648ZM207.628 16.4943C207.984 16.4943 208.299 16.4242 208.572 16.2841C208.844 16.1402 209.058 15.947 209.214 15.7045C209.369 15.4621 209.447 15.1875 209.447 14.8807V13.9545C209.371 14.0038 209.267 14.0492 209.134 14.0909C209.005 14.1288 208.859 14.1648 208.697 14.1989C208.534 14.2292 208.371 14.2576 208.208 14.2841C208.045 14.3068 207.897 14.3277 207.765 14.3466C207.481 14.3883 207.233 14.4545 207.02 14.5455C206.808 14.6364 206.644 14.7595 206.526 14.9148C206.409 15.0663 206.35 15.2557 206.35 15.483C206.35 15.8125 206.469 16.0644 206.708 16.2386C206.95 16.4091 207.257 16.4943 207.628 16.4943ZM216.784 18.142C216.121 18.142 215.52 17.9716 214.983 17.6307C214.448 17.286 214.024 16.7803 213.71 16.1136C213.399 15.4432 213.244 14.6212 213.244 13.6477C213.244 12.6477 213.405 11.8163 213.727 11.1534C214.049 10.4867 214.477 9.98864 215.011 9.65909C215.549 9.32576 216.138 9.15909 216.778 9.15909C217.267 9.15909 217.674 9.24242 218 9.40909C218.329 9.57197 218.594 9.77652 218.795 10.0227C219 10.2652 219.155 10.5038 219.261 10.7386H219.335V6.36364H221.75V18H219.363V16.6023H219.261C219.147 16.8447 218.986 17.0852 218.778 17.3239C218.573 17.5587 218.306 17.7538 217.977 17.9091C217.651 18.0644 217.253 18.142 216.784 18.142ZM217.551 16.2159C217.941 16.2159 218.27 16.1098 218.539 15.8977C218.812 15.6818 219.02 15.3807 219.164 14.9943C219.312 14.608 219.386 14.1553 219.386 13.6364C219.386 13.1174 219.314 12.6667 219.17 12.2841C219.026 11.9015 218.818 11.6061 218.545 11.3977C218.272 11.1894 217.941 11.0852 217.551 11.0852C217.153 11.0852 216.818 11.1932 216.545 11.4091C216.272 11.625 216.066 11.9242 215.926 12.3068C215.786 12.6894 215.716 13.1326 215.716 13.6364C215.716 14.1439 215.786 14.5928 215.926 14.983C216.07 15.3693 216.276 15.6723 216.545 15.892C216.818 16.108 217.153 16.2159 217.551 16.2159ZM223.58 9.27273H226V18.4318C226 19.1061 225.868 19.6515 225.602 20.0682C225.337 20.4848 224.957 20.7898 224.46 20.983C223.968 21.1761 223.379 21.2727 222.693 21.2727C222.61 21.2727 222.53 21.2708 222.455 21.267C222.375 21.267 222.292 21.2652 222.205 21.2614V19.3693C222.269 19.3731 222.326 19.375 222.375 19.375C222.421 19.3788 222.47 19.3807 222.523 19.3807C222.913 19.3807 223.186 19.2973 223.341 19.1307C223.5 18.9678 223.58 18.7216 223.58 18.392V9.27273ZM224.784 8.14773C224.428 8.14773 224.121 8.02841 223.864 7.78977C223.606 7.54735 223.477 7.25758 223.477 6.92045C223.477 6.58712 223.606 6.30114 223.864 6.0625C224.121 5.82008 224.428 5.69886 224.784 5.69886C225.148 5.69886 225.457 5.82008 225.71 6.0625C225.968 6.30114 226.097 6.58712 226.097 6.92045C226.097 7.25758 225.968 7.54735 225.71 7.78977C225.457 8.02841 225.148 8.14773 224.784 8.14773ZM233.376 14.2841V9.27273H235.796V18H233.472V16.4148H233.381C233.184 16.9261 232.857 17.3371 232.398 17.6477C231.944 17.9583 231.389 18.1136 230.734 18.1136C230.15 18.1136 229.637 17.9811 229.194 17.7159C228.751 17.4508 228.404 17.0739 228.154 16.5852C227.908 16.0966 227.783 15.5114 227.779 14.8295V9.27273H230.199V14.3977C230.203 14.9129 230.342 15.3201 230.614 15.6193C230.887 15.9186 231.253 16.0682 231.711 16.0682C232.003 16.0682 232.275 16.0019 232.529 15.8693C232.783 15.733 232.987 15.5322 233.143 15.267C233.302 15.0019 233.379 14.6742 233.376 14.2841ZM244.834 11.7614L242.618 11.8977C242.58 11.7083 242.498 11.5379 242.373 11.3864C242.248 11.2311 242.084 11.108 241.879 11.017C241.678 10.9223 241.438 10.875 241.157 10.875C240.782 10.875 240.466 10.9545 240.209 11.1136C239.951 11.2689 239.822 11.4773 239.822 11.7386C239.822 11.947 239.905 12.1231 240.072 12.267C240.239 12.411 240.525 12.5265 240.93 12.6136L242.51 12.9318C243.358 13.1061 243.991 13.3864 244.407 13.7727C244.824 14.1591 245.032 14.6667 245.032 15.2955C245.032 15.8674 244.864 16.3693 244.527 16.8011C244.193 17.233 243.735 17.5701 243.152 17.8125C242.572 18.0511 241.904 18.1705 241.146 18.1705C239.991 18.1705 239.07 17.9299 238.385 17.4489C237.703 16.964 237.303 16.3049 237.186 15.4716L239.566 15.3466C239.638 15.6989 239.813 15.9678 240.089 16.1534C240.366 16.3352 240.72 16.4261 241.152 16.4261C241.576 16.4261 241.917 16.3447 242.174 16.1818C242.436 16.0152 242.568 15.8011 242.572 15.5398C242.568 15.3201 242.476 15.1402 242.294 15C242.112 14.8561 241.832 14.7462 241.453 14.6705L239.941 14.3693C239.089 14.1989 238.455 13.9034 238.038 13.483C237.625 13.0625 237.419 12.5265 237.419 11.875C237.419 11.3144 237.57 10.8314 237.873 10.4261C238.18 10.0208 238.61 9.70833 239.163 9.48864C239.72 9.26894 240.371 9.15909 241.118 9.15909C242.22 9.15909 243.087 9.39205 243.72 9.85795C244.356 10.3239 244.727 10.9583 244.834 11.7614ZM251.039 9.27273V11.0909H245.783V9.27273H251.039ZM246.976 7.18182H249.397V15.3182C249.397 15.5417 249.431 15.7159 249.499 15.8409C249.567 15.9621 249.662 16.0473 249.783 16.0966C249.908 16.1458 250.052 16.1705 250.215 16.1705C250.328 16.1705 250.442 16.161 250.556 16.142C250.669 16.1193 250.756 16.1023 250.817 16.0909L251.198 17.892C251.076 17.9299 250.906 17.9735 250.686 18.0227C250.467 18.0758 250.2 18.108 249.885 18.1193C249.302 18.142 248.79 18.0644 248.351 17.8864C247.915 17.7083 247.576 17.4318 247.334 17.0568C247.092 16.6818 246.972 16.2083 246.976 15.6364V7.18182ZM174.026 37.9545H176.117L177.168 39.3068L178.202 40.5114L180.151 42.9545H177.855L176.515 41.3068L175.827 40.3295L174.026 37.9545ZM180.327 36.1818C180.327 37.4508 180.087 38.5303 179.605 39.4205C179.128 40.3106 178.477 40.9905 177.651 41.4602C176.829 41.9261 175.905 42.1591 174.878 42.1591C173.844 42.1591 172.916 41.9242 172.094 41.4545C171.272 40.9848 170.623 40.3049 170.145 39.4148C169.668 38.5246 169.429 37.447 169.429 36.1818C169.429 34.9129 169.668 33.8333 170.145 32.9432C170.623 32.053 171.272 31.375 172.094 30.9091C172.916 30.4394 173.844 30.2045 174.878 30.2045C175.905 30.2045 176.829 30.4394 177.651 30.9091C178.477 31.375 179.128 32.053 179.605 32.9432C180.087 33.8333 180.327 34.9129 180.327 36.1818ZM177.833 36.1818C177.833 35.3598 177.71 34.6667 177.463 34.1023C177.221 33.5379 176.878 33.1098 176.435 32.8182C175.992 32.5265 175.473 32.3807 174.878 32.3807C174.283 32.3807 173.765 32.5265 173.321 32.8182C172.878 33.1098 172.533 33.5379 172.287 34.1023C172.045 34.6667 171.924 35.3598 171.924 36.1818C171.924 37.0038 172.045 37.697 172.287 38.2614C172.533 38.8258 172.878 39.2538 173.321 39.5455C173.765 39.8371 174.283 39.983 174.878 39.983C175.473 39.983 175.992 39.8371 176.435 39.5455C176.878 39.2538 177.221 38.8258 177.463 38.2614C177.71 37.697 177.833 37.0038 177.833 36.1818ZM187.541 38.2841V33.2727H189.961V42H187.637V40.4148H187.546C187.349 40.9261 187.022 41.3371 186.563 41.6477C186.109 41.9583 185.554 42.1136 184.899 42.1136C184.315 42.1136 183.802 41.9811 183.359 41.7159C182.916 41.4508 182.569 41.0739 182.319 40.5852C182.073 40.0966 181.948 39.5114 181.944 38.8295V33.2727H184.364V38.3977C184.368 38.9129 184.507 39.3201 184.779 39.6193C185.052 39.9186 185.418 40.0682 185.876 40.0682C186.168 40.0682 186.44 40.0019 186.694 39.8693C186.948 39.733 187.152 39.5322 187.308 39.267C187.467 39.0019 187.544 38.6742 187.541 38.2841ZM194.226 42.1648C193.669 42.1648 193.173 42.0682 192.737 41.875C192.302 41.678 191.957 41.3883 191.703 41.0057C191.453 40.6193 191.328 40.1383 191.328 39.5625C191.328 39.0777 191.417 38.6705 191.595 38.3409C191.773 38.0114 192.016 37.7462 192.322 37.5455C192.629 37.3447 192.978 37.1932 193.368 37.0909C193.762 36.9886 194.175 36.9167 194.606 36.875C195.114 36.822 195.523 36.7727 195.834 36.7273C196.144 36.678 196.37 36.6061 196.51 36.5114C196.65 36.4167 196.72 36.2765 196.72 36.0909V36.0568C196.72 35.697 196.606 35.4186 196.379 35.2216C196.156 35.0246 195.838 34.9261 195.425 34.9261C194.989 34.9261 194.642 35.0227 194.385 35.2159C194.127 35.4053 193.957 35.6439 193.874 35.9318L191.635 35.75C191.749 35.2197 191.972 34.7614 192.305 34.375C192.639 33.9848 193.069 33.6856 193.595 33.4773C194.125 33.2652 194.739 33.1591 195.436 33.1591C195.921 33.1591 196.385 33.2159 196.828 33.3295C197.275 33.4432 197.671 33.6193 198.016 33.858C198.364 34.0966 198.639 34.4034 198.839 34.7784C199.04 35.1496 199.141 35.5947 199.141 36.1136V42H196.845V40.7898H196.777C196.637 41.0625 196.449 41.303 196.214 41.5114C195.98 41.7159 195.697 41.8769 195.368 41.9943C195.038 42.108 194.658 42.1648 194.226 42.1648ZM194.919 40.4943C195.275 40.4943 195.589 40.4242 195.862 40.2841C196.135 40.1402 196.349 39.947 196.504 39.7045C196.66 39.4621 196.737 39.1875 196.737 38.8807V37.9545C196.661 38.0038 196.557 38.0492 196.425 38.0909C196.296 38.1288 196.15 38.1648 195.987 38.1989C195.824 38.2292 195.661 38.2576 195.499 38.2841C195.336 38.3068 195.188 38.3277 195.055 38.3466C194.771 38.3883 194.523 38.4545 194.311 38.5455C194.099 38.6364 193.934 38.7595 193.817 38.9148C193.699 39.0663 193.641 39.2557 193.641 39.483C193.641 39.8125 193.76 40.0644 193.999 40.2386C194.241 40.4091 194.548 40.4943 194.919 40.4943ZM203.279 36.9545V42H200.858V33.2727H203.165V34.8125H203.268C203.461 34.3049 203.785 33.9034 204.239 33.608C204.694 33.3087 205.245 33.1591 205.893 33.1591C206.499 33.1591 207.027 33.2917 207.478 33.5568C207.928 33.822 208.279 34.2008 208.529 34.6932C208.779 35.1818 208.904 35.7652 208.904 36.4432V42H206.483V36.875C206.487 36.3409 206.351 35.9242 206.074 35.625C205.798 35.322 205.417 35.1705 204.932 35.1705C204.607 35.1705 204.319 35.2405 204.069 35.3807C203.822 35.5208 203.629 35.7254 203.489 35.9943C203.353 36.2595 203.283 36.5795 203.279 36.9545ZM215.294 33.2727V35.0909H210.038V33.2727H215.294ZM211.231 31.1818H213.652V39.3182C213.652 39.5417 213.686 39.7159 213.754 39.8409C213.822 39.9621 213.917 40.0473 214.038 40.0966C214.163 40.1458 214.307 40.1705 214.47 40.1705C214.583 40.1705 214.697 40.161 214.811 40.142C214.924 40.1193 215.011 40.1023 215.072 40.0909L215.453 41.892C215.331 41.9299 215.161 41.9735 214.941 42.0227C214.722 42.0758 214.455 42.108 214.14 42.1193C213.557 42.142 213.045 42.0644 212.606 41.8864C212.17 41.7083 211.831 41.4318 211.589 41.0568C211.347 40.6818 211.227 40.2083 211.231 39.6364V31.1818ZM216.71 42V33.2727H219.131V42H216.71ZM217.926 32.1477C217.566 32.1477 217.258 32.0284 217 31.7898C216.746 31.5473 216.619 31.2576 216.619 30.9205C216.619 30.5871 216.746 30.3011 217 30.0625C217.258 29.8201 217.566 29.6989 217.926 29.6989C218.286 29.6989 218.593 29.8201 218.847 30.0625C219.104 30.3011 219.233 30.5871 219.233 30.9205C219.233 31.2576 219.104 31.5473 218.847 31.7898C218.593 32.0284 218.286 32.1477 217.926 32.1477ZM225.552 33.2727V35.0909H220.296V33.2727H225.552ZM221.489 31.1818H223.91V39.3182C223.91 39.5417 223.944 39.7159 224.012 39.8409C224.08 39.9621 224.175 40.0473 224.296 40.0966C224.421 40.1458 224.565 40.1705 224.728 40.1705C224.841 40.1705 224.955 40.161 225.069 40.142C225.182 40.1193 225.27 40.1023 225.33 40.0909L225.711 41.892C225.59 41.9299 225.419 41.9735 225.199 42.0227C224.98 42.0758 224.713 42.108 224.398 42.1193C223.815 42.142 223.304 42.0644 222.864 41.8864C222.429 41.7083 222.09 41.4318 221.847 41.0568C221.605 40.6818 221.485 40.2083 221.489 39.6364V31.1818ZM228.463 45.2727C228.156 45.2727 227.868 45.2481 227.599 45.1989C227.334 45.1534 227.114 45.0947 226.94 45.0227L227.485 43.2159C227.77 43.303 228.025 43.3504 228.253 43.358C228.484 43.3655 228.682 43.3125 228.849 43.1989C229.02 43.0852 229.158 42.892 229.264 42.6193L229.406 42.25L226.275 33.2727H228.821L230.628 39.6818H230.718L232.542 33.2727H235.105L231.713 42.9432C231.55 43.4129 231.328 43.822 231.048 44.1705C230.771 44.5227 230.421 44.7936 229.997 44.983C229.573 45.1761 229.061 45.2727 228.463 45.2727Z" fill="white"/>
<path d="M214.066 52.019C214.546 51.7984 215.158 52.0289 215.434 52.5339C215.709 53.0388 215.543 53.6269 215.063 53.8475L214.066 52.019ZM189.436 92.3883L185.397 81.2196L196.809 84.3582L189.436 92.3883ZM215.063 53.8475C207.918 57.1287 202.994 60.6877 199.431 65.3808C195.863 70.0788 193.606 75.9824 191.919 84.0529L189.954 83.4471C191.67 75.2393 194.001 69.053 197.784 64.0715C201.57 59.0851 206.758 55.3749 214.066 52.019L215.063 53.8475Z" fill="white"/>
<path d="M20.4751 41.7102C20.4297 41.2519 20.2346 40.8958 19.8899 40.642C19.5452 40.3883 19.0774 40.2614 18.4865 40.2614C18.085 40.2614 17.7459 40.3182 17.4694 40.4318C17.1929 40.5417 16.9808 40.6951 16.8331 40.892C16.6891 41.089 16.6172 41.3125 16.6172 41.5625C16.6096 41.7708 16.6531 41.9527 16.7478 42.108C16.8463 42.2633 16.9808 42.3977 17.1512 42.5114C17.3217 42.6212 17.5187 42.7178 17.7422 42.8011C17.9656 42.8807 18.2043 42.9489 18.4581 43.0057L19.5035 43.2557C20.0111 43.3693 20.477 43.5208 20.9012 43.7102C21.3255 43.8996 21.6929 44.1326 22.0035 44.4091C22.3141 44.6856 22.5547 45.0114 22.7251 45.3864C22.8994 45.7614 22.9884 46.1913 22.9922 46.6761C22.9884 47.3883 22.8066 48.0057 22.4467 48.5284C22.0906 49.0473 21.5755 49.4508 20.9012 49.7386C20.2308 50.0227 19.4221 50.1648 18.4751 50.1648C17.5357 50.1648 16.7175 50.0208 16.0206 49.733C15.3274 49.4451 14.7857 49.0189 14.3956 48.4545C14.0092 47.8864 13.8066 47.1837 13.7876 46.3466H16.1683C16.1948 46.7367 16.3066 47.0625 16.5035 47.3239C16.7043 47.5814 16.9713 47.7765 17.3047 47.9091C17.6418 48.0379 18.0225 48.1023 18.4467 48.1023C18.8634 48.1023 19.2251 48.0417 19.5319 47.9205C19.8425 47.7992 20.0831 47.6307 20.2535 47.4148C20.424 47.1989 20.5092 46.9508 20.5092 46.6705C20.5092 46.4091 20.4316 46.1894 20.2762 46.0114C20.1247 45.8333 19.9012 45.6818 19.6058 45.5568C19.3141 45.4318 18.9562 45.3182 18.5319 45.2159L17.2649 44.8977C16.2838 44.6591 15.5092 44.286 14.941 43.7784C14.3728 43.2708 14.0906 42.5871 14.0944 41.7273C14.0906 41.0227 14.2781 40.4072 14.6569 39.8807C15.0395 39.3542 15.5641 38.9432 16.2308 38.6477C16.8975 38.3523 17.655 38.2045 18.5035 38.2045C19.3672 38.2045 20.1209 38.3523 20.7649 38.6477C21.4126 38.9432 21.9164 39.3542 22.2762 39.8807C22.6361 40.4072 22.8217 41.017 22.8331 41.7102H20.4751ZM26.1631 50L23.7881 41.2727H26.237L27.5893 47.1364H27.6688L29.0779 41.2727H31.4813L32.9131 47.1023H32.987L34.3165 41.2727H36.7597L34.3904 50H31.8279L30.3279 44.5114H30.2199L28.7199 50H26.1631ZM37.8909 50V41.2727H40.3114V50H37.8909ZM39.1068 40.1477C38.747 40.1477 38.4383 40.0284 38.1807 39.7898C37.9269 39.5473 37.8 39.2576 37.8 38.9205C37.8 38.5871 37.9269 38.3011 38.1807 38.0625C38.4383 37.8201 38.747 37.6989 39.1068 37.6989C39.4667 37.6989 39.7735 37.8201 40.0273 38.0625C40.2848 38.3011 40.4136 38.5871 40.4136 38.9205C40.4136 39.2576 40.2848 39.5473 40.0273 39.7898C39.7735 40.0284 39.4667 40.1477 39.1068 40.1477ZM42.0903 53.2727V41.2727H44.4766V42.7386H44.5846C44.6907 42.5038 44.8441 42.2652 45.0448 42.0227C45.2494 41.7765 45.5145 41.572 45.8403 41.4091C46.1698 41.2424 46.5789 41.1591 47.0676 41.1591C47.7039 41.1591 48.291 41.3258 48.8289 41.6591C49.3668 41.9886 49.7967 42.4867 50.1187 43.1534C50.4407 43.8163 50.6016 44.6477 50.6016 45.6477C50.6016 46.6212 50.4445 47.4432 50.1301 48.1136C49.8195 48.7803 49.3952 49.286 48.8573 49.6307C48.3232 49.9716 47.7248 50.142 47.0619 50.142C46.5922 50.142 46.1926 50.0644 45.863 49.9091C45.5373 49.7538 45.2702 49.5587 45.0619 49.3239C44.8535 49.0852 44.6945 48.8447 44.5846 48.6023H44.5107V53.2727H42.0903ZM44.4596 45.6364C44.4596 46.1553 44.5316 46.608 44.6755 46.9943C44.8195 47.3807 45.0278 47.6818 45.3005 47.8977C45.5732 48.1098 45.9047 48.2159 46.2948 48.2159C46.6888 48.2159 47.0221 48.108 47.2948 47.892C47.5676 47.6723 47.774 47.3693 47.9141 46.983C48.0581 46.5928 48.1301 46.1439 48.1301 45.6364C48.1301 45.1326 48.06 44.6894 47.9198 44.3068C47.7797 43.9242 47.5732 43.625 47.3005 43.4091C47.0278 43.1932 46.6926 43.0852 46.2948 43.0852C45.9009 43.0852 45.5676 43.1894 45.2948 43.3977C45.0259 43.6061 44.8195 43.9015 44.6755 44.2841C44.5316 44.6667 44.4596 45.1174 44.4596 45.6364ZM56.0326 50.1705C55.1348 50.1705 54.3621 49.9886 53.7144 49.625C53.0704 49.2576 52.5742 48.7386 52.2257 48.0682C51.8773 47.3939 51.703 46.5966 51.703 45.6761C51.703 44.7784 51.8773 43.9905 52.2257 43.3125C52.5742 42.6345 53.0648 42.1061 53.6973 41.7273C54.3337 41.3485 55.0799 41.1591 55.936 41.1591C56.5117 41.1591 57.0477 41.2519 57.5439 41.4375C58.0439 41.6193 58.4795 41.8939 58.8507 42.2614C59.2257 42.6288 59.5174 43.0909 59.7257 43.6477C59.9341 44.2008 60.0382 44.8485 60.0382 45.5909V46.2557H52.6689V44.7557H57.7598C57.7598 44.4072 57.6841 44.0985 57.5326 43.8295C57.381 43.5606 57.1708 43.3504 56.9019 43.1989C56.6367 43.0436 56.328 42.9659 55.9757 42.9659C55.6083 42.9659 55.2826 43.0511 54.9985 43.2216C54.7182 43.3883 54.4985 43.6136 54.3394 43.8977C54.1803 44.178 54.0988 44.4905 54.0951 44.8352V46.2614C54.0951 46.6932 54.1746 47.0663 54.3337 47.3807C54.4966 47.6951 54.7257 47.9375 55.0212 48.108C55.3166 48.2784 55.667 48.3636 56.0723 48.3636C56.3413 48.3636 56.5875 48.3258 56.811 48.25C57.0345 48.1742 57.2257 48.0606 57.3848 47.9091C57.5439 47.7576 57.6651 47.572 57.7485 47.3523L59.9871 47.5C59.8735 48.0379 59.6405 48.5076 59.2882 48.9091C58.9398 49.3068 58.489 49.6174 57.936 49.8409C57.3867 50.0606 56.7523 50.1705 56.0326 50.1705ZM69.643 41.2727V43.0909H64.3873V41.2727H69.643ZM65.5805 39.1818H68.0009V47.3182C68.0009 47.5417 68.035 47.7159 68.1032 47.8409C68.1714 47.9621 68.2661 48.0473 68.3873 48.0966C68.5123 48.1458 68.6562 48.1705 68.8191 48.1705C68.9327 48.1705 69.0464 48.161 69.16 48.142C69.2736 48.1193 69.3608 48.1023 69.4214 48.0909L69.802 49.892C69.6808 49.9299 69.5104 49.9735 69.2907 50.0227C69.071 50.0758 68.8039 50.108 68.4895 50.1193C67.9062 50.142 67.3948 50.0644 66.9555 49.8864C66.5198 49.7083 66.1808 49.4318 65.9384 49.0568C65.696 48.6818 65.5767 48.2083 65.5805 47.6364V39.1818ZM74.9091 50.1705C74.0265 50.1705 73.2633 49.983 72.6193 49.608C71.9792 49.2292 71.4848 48.7027 71.1364 48.0284C70.7879 47.3504 70.6136 46.5644 70.6136 45.6705C70.6136 44.7689 70.7879 43.9811 71.1364 43.3068C71.4848 42.6288 71.9792 42.1023 72.6193 41.7273C73.2633 41.3485 74.0265 41.1591 74.9091 41.1591C75.7917 41.1591 76.553 41.3485 77.1932 41.7273C77.8371 42.1023 78.3333 42.6288 78.6818 43.3068C79.0303 43.9811 79.2045 44.7689 79.2045 45.6705C79.2045 46.5644 79.0303 47.3504 78.6818 48.0284C78.3333 48.7027 77.8371 49.2292 77.1932 49.608C76.553 49.983 75.7917 50.1705 74.9091 50.1705ZM74.9205 48.2955C75.322 48.2955 75.6572 48.1818 75.9261 47.9545C76.1951 47.7235 76.3977 47.4091 76.5341 47.0114C76.6742 46.6136 76.7443 46.161 76.7443 45.6534C76.7443 45.1458 76.6742 44.6932 76.5341 44.2955C76.3977 43.8977 76.1951 43.5833 75.9261 43.3523C75.6572 43.1212 75.322 43.0057 74.9205 43.0057C74.5152 43.0057 74.1742 43.1212 73.8977 43.3523C73.625 43.5833 73.4186 43.8977 73.2784 44.2955C73.142 44.6932 73.0739 45.1458 73.0739 45.6534C73.0739 46.161 73.142 46.6136 73.2784 47.0114C73.4186 47.4091 73.625 47.7235 73.8977 47.9545C74.1742 48.1818 74.5152 48.2955 74.9205 48.2955ZM91.4229 43.7614L89.207 43.8977C89.1691 43.7083 89.0877 43.5379 88.9627 43.3864C88.8377 43.2311 88.6729 43.108 88.4683 43.017C88.2676 42.9223 88.0271 42.875 87.7468 42.875C87.3718 42.875 87.0555 42.9545 86.7979 43.1136C86.5403 43.2689 86.4115 43.4773 86.4115 43.7386C86.4115 43.947 86.4949 44.1231 86.6615 44.267C86.8282 44.411 87.1142 44.5265 87.5195 44.6136L89.099 44.9318C89.9475 45.1061 90.5801 45.3864 90.9968 45.7727C91.4134 46.1591 91.6218 46.6667 91.6218 47.2955C91.6218 47.8674 91.4532 48.3693 91.1161 48.8011C90.7827 49.233 90.3244 49.5701 89.7411 49.8125C89.1615 50.0511 88.493 50.1705 87.7354 50.1705C86.5801 50.1705 85.6596 49.9299 84.974 49.4489C84.2922 48.964 83.8926 48.3049 83.7752 47.4716L86.1558 47.3466C86.2278 47.6989 86.4021 47.9678 86.6786 48.1534C86.9551 48.3352 87.3093 48.4261 87.7411 48.4261C88.1653 48.4261 88.5062 48.3447 88.7638 48.1818C89.0252 48.0152 89.1577 47.8011 89.1615 47.5398C89.1577 47.3201 89.0649 47.1402 88.8831 47C88.7013 46.8561 88.421 46.7462 88.0422 46.6705L86.5308 46.3693C85.6786 46.1989 85.0441 45.9034 84.6274 45.483C84.2146 45.0625 84.0081 44.5265 84.0081 43.875C84.0081 43.3144 84.1596 42.8314 84.4627 42.4261C84.7695 42.0208 85.1994 41.7083 85.7524 41.4886C86.3093 41.2689 86.9608 41.1591 87.707 41.1591C88.8093 41.1591 89.6767 41.392 90.3093 41.858C90.9456 42.3239 91.3168 42.9583 91.4229 43.7614ZM94.7075 50L92.3325 41.2727H94.7814L96.1336 47.1364H96.2132L97.6223 41.2727H100.026L101.458 47.1023H101.531L102.861 41.2727H105.304L102.935 50H100.372L98.8723 44.5114H98.7643L97.2643 50H94.7075ZM106.435 50V41.2727H108.856V50H106.435ZM107.651 40.1477C107.291 40.1477 106.983 40.0284 106.725 39.7898C106.471 39.5473 106.344 39.2576 106.344 38.9205C106.344 38.5871 106.471 38.3011 106.725 38.0625C106.983 37.8201 107.291 37.6989 107.651 37.6989C108.011 37.6989 108.318 37.8201 108.572 38.0625C108.829 38.3011 108.958 38.5871 108.958 38.9205C108.958 39.2576 108.829 39.5473 108.572 39.7898C108.318 40.0284 108.011 40.1477 107.651 40.1477ZM115.277 41.2727V43.0909H110.021V41.2727H115.277ZM111.214 39.1818H113.635V47.3182C113.635 47.5417 113.669 47.7159 113.737 47.8409C113.805 47.9621 113.9 48.0473 114.021 48.0966C114.146 48.1458 114.29 48.1705 114.453 48.1705C114.566 48.1705 114.68 48.161 114.794 48.142C114.907 48.1193 114.995 48.1023 115.055 48.0909L115.436 49.892C115.315 49.9299 115.144 49.9735 114.924 50.0227C114.705 50.0758 114.438 50.108 114.123 50.1193C113.54 50.142 113.029 50.0644 112.589 49.8864C112.154 49.7083 111.815 49.4318 111.572 49.0568C111.33 48.6818 111.21 48.2083 111.214 47.6364V39.1818ZM120.543 50.1705C119.649 50.1705 118.88 49.9811 118.236 49.6023C117.596 49.2197 117.103 48.6894 116.759 48.0114C116.418 47.3333 116.247 46.553 116.247 45.6705C116.247 44.7765 116.42 43.9924 116.764 43.3182C117.113 42.6402 117.607 42.1117 118.247 41.733C118.888 41.3504 119.649 41.1591 120.531 41.1591C121.293 41.1591 121.96 41.2973 122.531 41.5739C123.103 41.8504 123.556 42.2386 123.889 42.7386C124.223 43.2386 124.406 43.8258 124.441 44.5H122.156C122.092 44.0644 121.922 43.714 121.645 43.4489C121.372 43.1799 121.014 43.0455 120.571 43.0455C120.196 43.0455 119.869 43.1477 119.588 43.3523C119.312 43.553 119.096 43.8466 118.941 44.233C118.785 44.6193 118.708 45.0871 118.708 45.6364C118.708 46.1932 118.783 46.6667 118.935 47.0568C119.09 47.447 119.308 47.7443 119.588 47.9489C119.869 48.1534 120.196 48.2557 120.571 48.2557C120.848 48.2557 121.096 48.1989 121.316 48.0852C121.539 47.9716 121.723 47.8068 121.867 47.5909C122.014 47.3712 122.111 47.108 122.156 46.8011H124.441C124.403 47.4678 124.221 48.0549 123.895 48.5625C123.573 49.0663 123.128 49.4602 122.56 49.7443C121.992 50.0284 121.319 50.1705 120.543 50.1705ZM128.251 44.9545V50H125.83V38.3636H128.183V42.8125H128.285C128.482 42.2973 128.8 41.8939 129.239 41.6023C129.679 41.3068 130.23 41.1591 130.893 41.1591C131.499 41.1591 132.027 41.2917 132.478 41.5568C132.933 41.8182 133.285 42.1951 133.535 42.6875C133.789 43.1761 133.914 43.7614 133.91 44.4432V50H131.489V44.875C131.493 44.3371 131.357 43.9186 131.08 43.6193C130.808 43.3201 130.425 43.1705 129.933 43.1705C129.603 43.1705 129.311 43.2405 129.058 43.3807C128.808 43.5208 128.611 43.7254 128.467 43.9943C128.327 44.2595 128.255 44.5795 128.251 44.9545ZM6.63324 74V62.3636H9.05369V66.7386H9.12755C9.23361 66.5038 9.38702 66.2652 9.58778 66.0227C9.79233 65.7765 10.0575 65.572 10.3832 65.4091C10.7128 65.2424 11.1219 65.1591 11.6105 65.1591C12.2469 65.1591 12.834 65.3258 13.3719 65.6591C13.9098 65.9886 14.3397 66.4867 14.6616 67.1534C14.9836 67.8163 15.1446 68.6477 15.1446 69.6477C15.1446 70.6212 14.9874 71.4432 14.673 72.1136C14.3624 72.7803 13.9382 73.286 13.4003 73.6307C12.8662 73.9716 12.2677 74.142 11.6048 74.142C11.1351 74.142 10.7355 74.0644 10.406 73.9091C10.0802 73.7538 9.81316 73.5587 9.60483 73.3239C9.39649 73.0852 9.2374 72.8447 9.12755 72.6023H9.0196V74H6.63324ZM9.00255 69.6364C9.00255 70.1553 9.07452 70.608 9.21846 70.9943C9.3624 71.3807 9.57074 71.6818 9.84346 71.8977C10.1162 72.1098 10.4476 72.2159 10.8378 72.2159C11.2317 72.2159 11.5651 72.108 11.8378 71.892C12.1105 71.6723 12.3169 71.3693 12.4571 70.983C12.601 70.5928 12.673 70.1439 12.673 69.6364C12.673 69.1326 12.6029 68.6894 12.4628 68.3068C12.3226 67.9242 12.1162 67.625 11.8435 67.4091C11.5707 67.1932 11.2355 67.0852 10.8378 67.0852C10.4438 67.0852 10.1105 67.1894 9.83778 67.3977C9.56884 67.6061 9.3624 67.9015 9.21846 68.2841C9.07452 68.6667 9.00255 69.1174 9.00255 69.6364ZM20.5769 74.1705C19.6792 74.1705 18.9065 73.9886 18.2587 73.625C17.6148 73.2576 17.1186 72.7386 16.7701 72.0682C16.4216 71.3939 16.2474 70.5966 16.2474 69.6761C16.2474 68.7784 16.4216 67.9905 16.7701 67.3125C17.1186 66.6345 17.6091 66.1061 18.2417 65.7273C18.8781 65.3485 19.6243 65.1591 20.4803 65.1591C21.0561 65.1591 21.5921 65.2519 22.0883 65.4375C22.5883 65.6193 23.0239 65.8939 23.3951 66.2614C23.7701 66.6288 24.0618 67.0909 24.2701 67.6477C24.4784 68.2008 24.5826 68.8485 24.5826 69.5909V70.2557H17.2133V68.7557H22.3042C22.3042 68.4072 22.2284 68.0985 22.0769 67.8295C21.9254 67.5606 21.7152 67.3504 21.4462 67.1989C21.1811 67.0436 20.8724 66.9659 20.5201 66.9659C20.1527 66.9659 19.8269 67.0511 19.5428 67.2216C19.2625 67.3883 19.0428 67.6136 18.8837 67.8977C18.7247 68.178 18.6432 68.4905 18.6394 68.8352V70.2614C18.6394 70.6932 18.719 71.0663 18.8781 71.3807C19.0409 71.6951 19.2701 71.9375 19.5656 72.108C19.861 72.2784 20.2114 72.3636 20.6167 72.3636C20.8856 72.3636 21.1319 72.3258 21.3553 72.25C21.5788 72.1742 21.7701 72.0606 21.9292 71.9091C22.0883 71.7576 22.2095 71.572 22.2928 71.3523L24.5315 71.5C24.4178 72.0379 24.1849 72.5076 23.8326 72.9091C23.4841 73.3068 23.0334 73.6174 22.4803 73.8409C21.9311 74.0606 21.2966 74.1705 20.5769 74.1705ZM30.6442 65.2727V67.0909H25.3885V65.2727H30.6442ZM26.5817 63.1818H29.0022V71.3182C29.0022 71.5417 29.0362 71.7159 29.1044 71.8409C29.1726 71.9621 29.2673 72.0473 29.3885 72.0966C29.5135 72.1458 29.6575 72.1705 29.8203 72.1705C29.934 72.1705 30.0476 72.161 30.1612 72.142C30.2749 72.1193 30.362 72.1023 30.4226 72.0909L30.8033 73.892C30.6821 73.9299 30.5116 73.9735 30.2919 74.0227C30.0722 74.0758 29.8052 74.108 29.4908 74.1193C28.9075 74.142 28.3961 74.0644 27.9567 73.8864C27.5211 73.7083 27.1821 73.4318 26.9397 73.0568C26.6972 72.6818 26.5779 72.2083 26.5817 71.6364V63.1818ZM33.7825 74L31.4075 65.2727H33.8564L35.2086 71.1364H35.2882L36.6973 65.2727H39.1007L40.5325 71.1023H40.6064L41.9359 65.2727H44.3791L42.0098 74H39.4473L37.9473 68.5114H37.8393L36.3393 74H33.7825ZM49.2688 74.1705C48.3711 74.1705 47.5983 73.9886 46.9506 73.625C46.3067 73.2576 45.8105 72.7386 45.462 72.0682C45.1135 71.3939 44.9393 70.5966 44.9393 69.6761C44.9393 68.7784 45.1135 67.9905 45.462 67.3125C45.8105 66.6345 46.301 66.1061 46.9336 65.7273C47.5699 65.3485 48.3162 65.1591 49.1722 65.1591C49.748 65.1591 50.284 65.2519 50.7802 65.4375C51.2802 65.6193 51.7158 65.8939 52.087 66.2614C52.462 66.6288 52.7537 67.0909 52.962 67.6477C53.1703 68.2008 53.2745 68.8485 53.2745 69.5909V70.2557H45.9052V68.7557H50.9961C50.9961 68.4072 50.9203 68.0985 50.7688 67.8295C50.6173 67.5606 50.4071 67.3504 50.1381 67.1989C49.873 67.0436 49.5643 66.9659 49.212 66.9659C48.8446 66.9659 48.5188 67.0511 48.2347 67.2216C47.9544 67.3883 47.7347 67.6136 47.5756 67.8977C47.4165 68.178 47.3351 68.4905 47.3313 68.8352V70.2614C47.3313 70.6932 47.4108 71.0663 47.5699 71.3807C47.7328 71.6951 47.962 71.9375 48.2574 72.108C48.5529 72.2784 48.9033 72.3636 49.3086 72.3636C49.5775 72.3636 49.8237 72.3258 50.0472 72.25C50.2707 72.1742 50.462 72.0606 50.6211 71.9091C50.7802 71.7576 50.9014 71.572 50.9847 71.3523L53.2234 71.5C53.1097 72.0379 52.8768 72.5076 52.5245 72.9091C52.176 73.3068 51.7252 73.6174 51.1722 73.8409C50.623 74.0606 49.9885 74.1705 49.2688 74.1705ZM58.6713 74.1705C57.7736 74.1705 57.0009 73.9886 56.3531 73.625C55.7092 73.2576 55.213 72.7386 54.8645 72.0682C54.516 71.3939 54.3418 70.5966 54.3418 69.6761C54.3418 68.7784 54.516 67.9905 54.8645 67.3125C55.213 66.6345 55.7035 66.1061 56.3361 65.7273C56.9724 65.3485 57.7187 65.1591 58.5747 65.1591C59.1505 65.1591 59.6865 65.2519 60.1827 65.4375C60.6827 65.6193 61.1183 65.8939 61.4895 66.2614C61.8645 66.6288 62.1562 67.0909 62.3645 67.6477C62.5728 68.2008 62.677 68.8485 62.677 69.5909V70.2557H55.3077V68.7557H60.3986C60.3986 68.4072 60.3228 68.0985 60.1713 67.8295C60.0198 67.5606 59.8096 67.3504 59.5406 67.1989C59.2755 67.0436 58.9668 66.9659 58.6145 66.9659C58.2471 66.9659 57.9213 67.0511 57.6372 67.2216C57.3569 67.3883 57.1372 67.6136 56.9781 67.8977C56.819 68.178 56.7376 68.4905 56.7338 68.8352V70.2614C56.7338 70.6932 56.8134 71.0663 56.9724 71.3807C57.1353 71.6951 57.3645 71.9375 57.6599 72.108C57.9554 72.2784 58.3058 72.3636 58.7111 72.3636C58.98 72.3636 59.2262 72.3258 59.4497 72.25C59.6732 72.1742 59.8645 72.0606 60.0236 71.9091C60.1827 71.7576 60.3039 71.572 60.3872 71.3523L62.6259 71.5C62.5122 72.0379 62.2793 72.5076 61.927 72.9091C61.5785 73.3068 61.1277 73.6174 60.5747 73.8409C60.0255 74.0606 59.391 74.1705 58.6713 74.1705ZM66.517 68.9545V74H64.0965V65.2727H66.4034V66.8125H66.5056C66.6988 66.3049 67.0227 65.9034 67.4772 65.608C67.9318 65.3087 68.4829 65.1591 69.1306 65.1591C69.7367 65.1591 70.2651 65.2917 70.7159 65.5568C71.1666 65.822 71.517 66.2008 71.767 66.6932C72.017 67.1818 72.142 67.7652 72.142 68.4432V74H69.7215V68.875C69.7253 68.3409 69.589 67.9242 69.3124 67.625C69.0359 67.322 68.6552 67.1705 68.1704 67.1705C67.8446 67.1705 67.5568 67.2405 67.3068 67.3807C67.0605 67.5208 66.8674 67.7254 66.7272 67.9943C66.5909 68.2595 66.5208 68.5795 66.517 68.9545ZM84.6941 67.7614L82.4782 67.8977C82.4404 67.7083 82.3589 67.5379 82.2339 67.3864C82.1089 67.2311 81.9441 67.108 81.7396 67.017C81.5388 66.9223 81.2983 66.875 81.018 66.875C80.643 66.875 80.3267 66.9545 80.0691 67.1136C79.8116 67.2689 79.6828 67.4773 79.6828 67.7386C79.6828 67.947 79.7661 68.1231 79.9328 68.267C80.0994 68.411 80.3854 68.5265 80.7907 68.6136L82.3703 68.9318C83.2188 69.1061 83.8513 69.3864 84.268 69.7727C84.6847 70.1591 84.893 70.6667 84.893 71.2955C84.893 71.8674 84.7244 72.3693 84.3873 72.8011C84.054 73.233 83.5957 73.5701 83.0123 73.8125C82.4328 74.0511 81.7642 74.1705 81.0066 74.1705C79.8513 74.1705 78.9309 73.9299 78.2453 73.4489C77.5635 72.964 77.1638 72.3049 77.0464 71.4716L79.4271 71.3466C79.4991 71.6989 79.6733 71.9678 79.9498 72.1534C80.2263 72.3352 80.5805 72.4261 81.0123 72.4261C81.4366 72.4261 81.7775 72.3447 82.0351 72.1818C82.2964 72.0152 82.429 71.8011 82.4328 71.5398C82.429 71.3201 82.3362 71.1402 82.1544 71C81.9726 70.8561 81.6923 70.7462 81.3135 70.6705L79.8021 70.3693C78.9498 70.1989 78.3154 69.9034 77.8987 69.483C77.4858 69.0625 77.2794 68.5265 77.2794 67.875C77.2794 67.3144 77.4309 66.8314 77.7339 66.4261C78.0407 66.0208 78.4707 65.7083 79.0237 65.4886C79.5805 65.2689 80.232 65.1591 80.9782 65.1591C82.0805 65.1591 82.9479 65.392 83.5805 65.858C84.2169 66.3239 84.5881 66.9583 84.6941 67.7614ZM90.2344 74.1705C89.3367 74.1705 88.564 73.9886 87.9162 73.625C87.2723 73.2576 86.7761 72.7386 86.4276 72.0682C86.0791 71.3939 85.9049 70.5966 85.9049 69.6761C85.9049 68.7784 86.0791 67.9905 86.4276 67.3125C86.7761 66.6345 87.2666 66.1061 87.8992 65.7273C88.5356 65.3485 89.2818 65.1591 90.1378 65.1591C90.7136 65.1591 91.2496 65.2519 91.7458 65.4375C92.2458 65.6193 92.6814 65.8939 93.0526 66.2614C93.4276 66.6288 93.7193 67.0909 93.9276 67.6477C94.1359 68.2008 94.2401 68.8485 94.2401 69.5909V70.2557H86.8708V68.7557H91.9617C91.9617 68.4072 91.8859 68.0985 91.7344 67.8295C91.5829 67.5606 91.3727 67.3504 91.1037 67.1989C90.8386 67.0436 90.5299 66.9659 90.1776 66.9659C89.8102 66.9659 89.4844 67.0511 89.2003 67.2216C88.92 67.3883 88.7003 67.6136 88.5412 67.8977C88.3822 68.178 88.3007 68.4905 88.2969 68.8352V70.2614C88.2969 70.6932 88.3765 71.0663 88.5356 71.3807C88.6984 71.6951 88.9276 71.9375 89.2231 72.108C89.5185 72.2784 89.8689 72.3636 90.2742 72.3636C90.5431 72.3636 90.7894 72.3258 91.0128 72.25C91.2363 72.1742 91.4276 72.0606 91.5867 71.9091C91.7458 71.7576 91.867 71.572 91.9503 71.3523L94.189 71.5C94.0753 72.0379 93.8424 72.5076 93.4901 72.9091C93.1416 73.3068 92.6909 73.6174 92.1378 73.8409C91.5886 74.0606 90.9541 74.1705 90.2344 74.1705ZM95.6597 74V65.2727H98.0062V66.7955H98.0972C98.2562 66.2538 98.5233 65.8447 98.8983 65.5682C99.2733 65.2879 99.7051 65.1477 100.194 65.1477C100.315 65.1477 100.446 65.1553 100.586 65.1705C100.726 65.1856 100.849 65.2064 100.955 65.233V67.3807C100.841 67.3466 100.684 67.3163 100.484 67.2898C100.283 67.2633 100.099 67.25 99.9324 67.25C99.5763 67.25 99.2581 67.3277 98.9778 67.483C98.7013 67.6345 98.4816 67.8466 98.3187 68.1193C98.1597 68.392 98.0801 68.7064 98.0801 69.0625V74H95.6597ZM110.449 65.2727L107.397 74H104.67L101.619 65.2727H104.176L105.988 71.517H106.079L107.886 65.2727H110.449ZM111.527 74V65.2727H113.948V74H111.527ZM112.743 64.1477C112.383 64.1477 112.075 64.0284 111.817 63.7898C111.563 63.5473 111.436 63.2576 111.436 62.9205C111.436 62.5871 111.563 62.3011 111.817 62.0625C112.075 61.8201 112.383 61.6989 112.743 61.6989C113.103 61.6989 113.41 61.8201 113.664 62.0625C113.921 62.3011 114.05 62.5871 114.05 62.9205C114.05 63.2576 113.921 63.5473 113.664 63.7898C113.41 64.0284 113.103 64.1477 112.743 64.1477ZM119.67 74.1705C118.776 74.1705 118.007 73.9811 117.363 73.6023C116.723 73.2197 116.23 72.6894 115.886 72.0114C115.545 71.3333 115.374 70.553 115.374 69.6705C115.374 68.7765 115.547 67.9924 115.891 67.3182C116.24 66.6402 116.734 66.1117 117.374 65.733C118.014 65.3504 118.776 65.1591 119.658 65.1591C120.42 65.1591 121.086 65.2973 121.658 65.5739C122.23 65.8504 122.683 66.2386 123.016 66.7386C123.35 67.2386 123.533 67.8258 123.567 68.5H121.283C121.219 68.0644 121.048 67.714 120.772 67.4489C120.499 67.1799 120.141 67.0455 119.698 67.0455C119.323 67.0455 118.995 67.1477 118.715 67.3523C118.439 67.553 118.223 67.8466 118.067 68.233C117.912 68.6193 117.834 69.0871 117.834 69.6364C117.834 70.1932 117.91 70.6667 118.062 71.0568C118.217 71.447 118.435 71.7443 118.715 71.9489C118.995 72.1534 119.323 72.2557 119.698 72.2557C119.975 72.2557 120.223 72.1989 120.442 72.0852C120.666 71.9716 120.85 71.8068 120.994 71.5909C121.141 71.3712 121.238 71.108 121.283 70.8011H123.567C123.53 71.4678 123.348 72.0549 123.022 72.5625C122.7 73.0663 122.255 73.4602 121.687 73.7443C121.119 74.0284 120.446 74.1705 119.67 74.1705ZM128.934 74.1705C128.037 74.1705 127.264 73.9886 126.616 73.625C125.972 73.2576 125.476 72.7386 125.128 72.0682C124.779 71.3939 124.605 70.5966 124.605 69.6761C124.605 68.7784 124.779 67.9905 125.128 67.3125C125.476 66.6345 125.967 66.1061 126.599 65.7273C127.236 65.3485 127.982 65.1591 128.838 65.1591C129.414 65.1591 129.95 65.2519 130.446 65.4375C130.946 65.6193 131.381 65.8939 131.753 66.2614C132.128 66.6288 132.419 67.0909 132.628 67.6477C132.836 68.2008 132.94 68.8485 132.94 69.5909V70.2557H125.571V68.7557H130.662C130.662 68.4072 130.586 68.0985 130.434 67.8295C130.283 67.5606 130.073 67.3504 129.804 67.1989C129.539 67.0436 129.23 66.9659 128.878 66.9659C128.51 66.9659 128.184 67.0511 127.9 67.2216C127.62 67.3883 127.4 67.6136 127.241 67.8977C127.082 68.178 127.001 68.4905 126.997 68.8352V70.2614C126.997 70.6932 127.076 71.0663 127.236 71.3807C127.398 71.6951 127.628 71.9375 127.923 72.108C128.219 72.2784 128.569 72.3636 128.974 72.3636C129.243 72.3636 129.489 72.3258 129.713 72.25C129.936 72.1742 130.128 72.0606 130.287 71.9091C130.446 71.7576 130.567 71.572 130.65 71.3523L132.889 71.5C132.775 72.0379 132.542 72.5076 132.19 72.9091C131.842 73.3068 131.391 73.6174 130.838 73.8409C130.289 74.0606 129.654 74.1705 128.934 74.1705ZM141.621 67.7614L139.405 67.8977C139.367 67.7083 139.286 67.5379 139.161 67.3864C139.036 67.2311 138.871 67.108 138.666 67.017C138.466 66.9223 138.225 66.875 137.945 66.875C137.57 66.875 137.254 66.9545 136.996 67.1136C136.738 67.2689 136.61 67.4773 136.61 67.7386C136.61 67.947 136.693 68.1231 136.86 68.267C137.026 68.411 137.312 68.5265 137.718 68.6136L139.297 68.9318C140.146 69.1061 140.778 69.3864 141.195 69.7727C141.612 70.1591 141.82 70.6667 141.82 71.2955C141.82 71.8674 141.651 72.3693 141.314 72.8011C140.981 73.233 140.523 73.5701 139.939 73.8125C139.36 74.0511 138.691 74.1705 137.934 74.1705C136.778 74.1705 135.858 73.9299 135.172 73.4489C134.49 72.964 134.091 72.3049 133.973 71.4716L136.354 71.3466C136.426 71.6989 136.6 71.9678 136.877 72.1534C137.153 72.3352 137.507 72.4261 137.939 72.4261C138.363 72.4261 138.704 72.3447 138.962 72.1818C139.223 72.0152 139.356 71.8011 139.36 71.5398C139.356 71.3201 139.263 71.1402 139.081 71C138.899 70.8561 138.619 70.7462 138.24 70.6705L136.729 70.3693C135.877 70.1989 135.242 69.9034 134.826 69.483C134.413 69.0625 134.206 68.5265 134.206 67.875C134.206 67.3144 134.358 66.8314 134.661 66.4261C134.968 66.0208 135.398 65.7083 135.951 65.4886C136.507 65.2689 137.159 65.1591 137.905 65.1591C139.007 65.1591 139.875 65.392 140.507 65.858C141.144 66.3239 141.515 66.9583 141.621 67.7614Z" fill="white"/>
<path d="M4 88L14 93.7735V82.2265L4 88ZM144 88L134 82.2265V93.7735L144 88ZM13 89L135 89V87L13 87V89Z" fill="white"/>
<g filter="url(#filter0_d_15855_50158)">
<rect x="4" y="98" width="358" height="72" rx="8" fill="white" shape-rendering="crispEdges"/>
<path d="M16.8849 128V117.818H23.6264V119.593H19.0376V122.019H23.179V123.794H19.0376V128H16.8849ZM27.7844 128.149C27.0121 128.149 26.3443 127.985 25.7808 127.657C25.2207 127.326 24.7881 126.865 24.4832 126.275C24.1783 125.682 24.0258 124.994 24.0258 124.212C24.0258 123.423 24.1783 122.733 24.4832 122.143C24.7881 121.55 25.2207 121.089 25.7808 120.761C26.3443 120.43 27.0121 120.264 27.7844 120.264C28.5566 120.264 29.2228 120.43 29.7829 120.761C30.3464 121.089 30.7806 121.55 31.0855 122.143C31.3904 122.733 31.5429 123.423 31.5429 124.212C31.5429 124.994 31.3904 125.682 31.0855 126.275C30.7806 126.865 30.3464 127.326 29.7829 127.657C29.2228 127.985 28.5566 128.149 27.7844 128.149ZM27.7943 126.509C28.1456 126.509 28.439 126.409 28.6743 126.21C28.9096 126.008 29.0869 125.733 29.2062 125.385C29.3289 125.037 29.3902 124.641 29.3902 124.197C29.3902 123.753 29.3289 123.357 29.2062 123.009C29.0869 122.661 28.9096 122.385 28.6743 122.183C28.439 121.981 28.1456 121.88 27.7943 121.88C27.4397 121.88 27.1414 121.981 26.8994 122.183C26.6608 122.385 26.4801 122.661 26.3575 123.009C26.2382 123.357 26.1785 123.753 26.1785 124.197C26.1785 124.641 26.2382 125.037 26.3575 125.385C26.4801 125.733 26.6608 126.008 26.8994 126.21C27.1414 126.409 27.4397 126.509 27.7943 126.509ZM36.2303 128.149C35.458 128.149 34.7902 127.985 34.2267 127.657C33.6666 127.326 33.2341 126.865 32.9292 126.275C32.6242 125.682 32.4718 124.994 32.4718 124.212C32.4718 123.423 32.6242 122.733 32.9292 122.143C33.2341 121.55 33.6666 121.089 34.2267 120.761C34.7902 120.43 35.458 120.264 36.2303 120.264C37.0026 120.264 37.6687 120.43 38.2289 120.761C38.7923 121.089 39.2265 121.55 39.5314 122.143C39.8364 122.733 39.9888 123.423 39.9888 124.212C39.9888 124.994 39.8364 125.682 39.5314 126.275C39.2265 126.865 38.7923 127.326 38.2289 127.657C37.6687 127.985 37.0026 128.149 36.2303 128.149ZM36.2402 126.509C36.5916 126.509 36.8849 126.409 37.1202 126.21C37.3555 126.008 37.5329 125.733 37.6522 125.385C37.7748 125.037 37.8361 124.641 37.8361 124.197C37.8361 123.753 37.7748 123.357 37.6522 123.009C37.5329 122.661 37.3555 122.385 37.1202 122.183C36.8849 121.981 36.5916 121.88 36.2402 121.88C35.8856 121.88 35.5873 121.981 35.3454 122.183C35.1067 122.385 34.9261 122.661 34.8035 123.009C34.6841 123.357 34.6245 123.753 34.6245 124.197C34.6245 124.641 34.6841 125.037 34.8035 125.385C34.9261 125.733 35.1067 126.008 35.3454 126.21C35.5873 126.409 35.8856 126.509 36.2402 126.509ZM45.2877 120.364V121.955H40.689V120.364H45.2877ZM41.7331 118.534H43.851V125.653C43.851 125.849 43.8808 126.001 43.9404 126.111C44.0001 126.217 44.083 126.291 44.189 126.335C44.2984 126.378 44.4243 126.399 44.5669 126.399C44.6663 126.399 44.7657 126.391 44.8652 126.374C44.9646 126.354 45.0408 126.339 45.0938 126.33L45.4269 127.906C45.3209 127.939 45.1717 127.977 44.9795 128.02C44.7873 128.066 44.5536 128.094 44.2785 128.104C43.7681 128.124 43.3206 128.056 42.9362 127.901C42.555 127.745 42.2584 127.503 42.0463 127.175C41.8341 126.847 41.7297 126.432 41.7331 125.932V118.534ZM46.7312 128V117.818H48.8491V121.646H48.9137C49.0065 121.441 49.1408 121.232 49.3164 121.02C49.4954 120.804 49.7274 120.625 50.0124 120.483C50.3008 120.337 50.6588 120.264 51.0863 120.264C51.6431 120.264 52.1569 120.41 52.6275 120.702C53.0981 120.99 53.4743 121.426 53.7561 122.009C54.0378 122.589 54.1786 123.317 54.1786 124.192C54.1786 125.044 54.0411 125.763 53.766 126.349C53.4942 126.933 53.123 127.375 52.6524 127.677C52.185 127.975 51.6614 128.124 51.0813 128.124C50.6704 128.124 50.3207 128.056 50.0323 127.92C49.7473 127.785 49.5136 127.614 49.3313 127.408C49.149 127.2 49.0098 126.989 48.9137 126.777H48.8193V128H46.7312ZM48.8043 124.182C48.8043 124.636 48.8673 125.032 48.9933 125.37C49.1192 125.708 49.3015 125.972 49.5401 126.161C49.7788 126.346 50.0688 126.439 50.4102 126.439C50.7549 126.439 51.0465 126.344 51.2852 126.156C51.5238 125.963 51.7044 125.698 51.8271 125.36C51.953 125.019 52.016 124.626 52.016 124.182C52.016 123.741 51.9547 123.353 51.832 123.018C51.7094 122.684 51.5288 122.422 51.2901 122.233C51.0515 122.044 50.7582 121.95 50.4102 121.95C50.0655 121.95 49.7738 122.041 49.5352 122.223C49.2998 122.405 49.1192 122.664 48.9933 122.999C48.8673 123.333 48.8043 123.728 48.8043 124.182ZM57.6294 128.144C57.1422 128.144 56.708 128.06 56.3268 127.891C55.9457 127.718 55.644 127.465 55.422 127.13C55.2032 126.792 55.0939 126.371 55.0939 125.867C55.0939 125.443 55.1717 125.087 55.3275 124.798C55.4833 124.51 55.6954 124.278 55.9639 124.102C56.2324 123.927 56.5373 123.794 56.8787 123.705C57.2234 123.615 57.5846 123.552 57.9625 123.516C58.4066 123.469 58.7645 123.426 59.0363 123.386C59.3081 123.343 59.5053 123.28 59.6279 123.197C59.7506 123.115 59.8119 122.992 59.8119 122.83V122.8C59.8119 122.485 59.7125 122.241 59.5136 122.069C59.3181 121.897 59.0396 121.81 58.6784 121.81C58.2972 121.81 57.994 121.895 57.7686 122.064C57.5432 122.23 57.394 122.438 57.3211 122.69L55.3623 122.531C55.4618 122.067 55.6573 121.666 55.949 121.328C56.2406 120.987 56.6168 120.725 57.0775 120.543C57.5415 120.357 58.0785 120.264 58.6883 120.264C59.1126 120.264 59.5186 120.314 59.9064 120.413C60.2975 120.513 60.6438 120.667 60.9454 120.876C61.2503 121.085 61.4906 121.353 61.6663 121.681C61.842 122.006 61.9298 122.395 61.9298 122.849V128H59.9213V126.941H59.8616C59.739 127.18 59.5749 127.39 59.3694 127.572C59.1639 127.751 58.917 127.892 58.6287 127.995C58.3403 128.094 58.0072 128.144 57.6294 128.144ZM58.2359 126.683C58.5475 126.683 58.8225 126.621 59.0612 126.499C59.2998 126.373 59.4871 126.204 59.623 125.991C59.7589 125.779 59.8268 125.539 59.8268 125.271V124.46C59.7605 124.503 59.6694 124.543 59.5534 124.58C59.4407 124.613 59.3131 124.644 59.1706 124.674C59.028 124.701 58.8855 124.725 58.743 124.749C58.6005 124.768 58.4712 124.787 58.3552 124.803C58.1066 124.84 57.8895 124.898 57.7039 124.977C57.5183 125.057 57.3742 125.165 57.2714 125.3C57.1687 125.433 57.1173 125.599 57.1173 125.798C57.1173 126.086 57.2217 126.306 57.4305 126.459C57.6426 126.608 57.9111 126.683 58.2359 126.683ZM65.5508 117.818V128H63.4329V117.818H65.5508ZM69.2253 117.818V128H67.1074V117.818H69.2253ZM73.9218 128V117.818H77.9389C78.7111 117.818 79.369 117.966 79.9126 118.261C80.4561 118.552 80.8704 118.958 81.1555 119.479C81.4438 119.996 81.588 120.592 81.588 121.268C81.588 121.945 81.4422 122.541 81.1505 123.058C80.8588 123.575 80.4363 123.978 79.8828 124.266C79.3326 124.555 78.6664 124.699 77.8842 124.699H75.3238V122.974H77.5362C77.9505 122.974 78.2918 122.902 78.5603 122.76C78.8321 122.614 79.0343 122.414 79.1668 122.158C79.3027 121.9 79.3707 121.603 79.3707 121.268C79.3707 120.93 79.3027 120.635 79.1668 120.384C79.0343 120.128 78.8321 119.931 78.5603 119.792C78.2885 119.649 77.9438 119.578 77.5262 119.578H76.0745V128H73.9218ZM82.8065 128V120.364H84.9244V128H82.8065ZM83.8704 119.379C83.5556 119.379 83.2854 119.275 83.06 119.066C82.838 118.854 82.727 118.6 82.727 118.305C82.727 118.014 82.838 117.763 83.06 117.555C83.2854 117.343 83.5556 117.237 83.8704 117.237C84.1853 117.237 84.4538 117.343 84.6758 117.555C84.9012 117.763 85.0139 118.014 85.0139 118.305C85.0139 118.6 84.9012 118.854 84.6758 119.066C84.4538 119.275 84.1853 119.379 83.8704 119.379ZM90.5427 120.364V121.955H85.944V120.364H90.5427ZM86.9881 118.534H89.106V125.653C89.106 125.849 89.1358 126.001 89.1954 126.111C89.2551 126.217 89.338 126.291 89.444 126.335C89.5534 126.378 89.6793 126.399 89.8219 126.399C89.9213 126.399 90.0207 126.391 90.1202 126.374C90.2196 126.354 90.2958 126.339 90.3488 126.33L90.6819 127.906C90.5759 127.939 90.4267 127.977 90.2345 128.02C90.0423 128.066 89.8086 128.094 89.5335 128.104C89.0231 128.124 88.5756 128.056 88.1912 127.901C87.81 127.745 87.5134 127.503 87.3013 127.175C87.0891 126.847 86.9847 126.432 86.9881 125.932V118.534ZM95.1506 128.149C94.3684 128.149 93.6956 127.983 93.1321 127.652C92.572 127.317 92.1411 126.853 91.8395 126.26C91.5412 125.667 91.3921 124.984 91.3921 124.212C91.3921 123.429 91.5429 122.743 91.8445 122.153C92.1494 121.56 92.582 121.098 93.1421 120.766C93.7022 120.432 94.3684 120.264 95.1407 120.264C95.8069 120.264 96.3902 120.385 96.8907 120.627C97.3911 120.869 97.7872 121.209 98.0789 121.646C98.3705 122.084 98.5313 122.598 98.5611 123.188H96.5625C96.5062 122.806 96.3571 122.5 96.1151 122.268C95.8765 122.032 95.5633 121.915 95.1755 121.915C94.8473 121.915 94.5606 122.004 94.3154 122.183C94.0734 122.359 93.8845 122.616 93.7486 122.954C93.6127 123.292 93.5448 123.701 93.5448 124.182C93.5448 124.669 93.6111 125.083 93.7437 125.425C93.8795 125.766 94.0701 126.026 94.3154 126.205C94.5606 126.384 94.8473 126.474 95.1755 126.474C95.4174 126.474 95.6345 126.424 95.8267 126.325C96.0223 126.225 96.183 126.081 96.309 125.892C96.4383 125.7 96.5228 125.469 96.5625 125.201H98.5611C98.528 125.784 98.3689 126.298 98.0838 126.742C97.8021 127.183 97.4127 127.528 96.9155 127.776C96.4184 128.025 95.8301 128.149 95.1506 128.149ZM101.895 123.585V128H99.7771V117.818H101.835V121.711H101.925C102.097 121.26 102.376 120.907 102.76 120.652C103.145 120.393 103.627 120.264 104.207 120.264C104.737 120.264 105.199 120.38 105.594 120.612C105.992 120.841 106.3 121.171 106.519 121.602C106.741 122.029 106.85 122.541 106.847 123.138V128H104.729V123.516C104.732 123.045 104.613 122.679 104.371 122.417C104.132 122.155 103.797 122.024 103.367 122.024C103.078 122.024 102.823 122.085 102.601 122.208C102.382 122.331 102.21 122.51 102.084 122.745C101.961 122.977 101.898 123.257 101.895 123.585ZM111.854 128.149C111.068 128.149 110.392 127.99 109.825 127.672C109.262 127.35 108.828 126.896 108.523 126.31C108.218 125.72 108.065 125.022 108.065 124.217C108.065 123.431 108.218 122.742 108.523 122.148C108.828 121.555 109.257 121.093 109.81 120.761C110.367 120.43 111.02 120.264 111.769 120.264C112.273 120.264 112.742 120.345 113.176 120.508C113.614 120.667 113.995 120.907 114.319 121.229C114.648 121.55 114.903 121.955 115.085 122.442C115.267 122.926 115.359 123.492 115.359 124.142V124.724H108.91V123.411H113.365C113.365 123.106 113.299 122.836 113.166 122.601C113.033 122.366 112.85 122.182 112.614 122.049C112.382 121.913 112.112 121.845 111.804 121.845C111.482 121.845 111.197 121.92 110.949 122.069C110.703 122.215 110.511 122.412 110.372 122.661C110.233 122.906 110.162 123.179 110.158 123.481V124.729C110.158 125.107 110.228 125.433 110.367 125.708C110.51 125.983 110.71 126.195 110.969 126.344C111.227 126.494 111.534 126.568 111.888 126.568C112.124 126.568 112.339 126.535 112.535 126.469C112.73 126.402 112.898 126.303 113.037 126.17C113.176 126.038 113.282 125.875 113.355 125.683L115.314 125.812C115.214 126.283 115.011 126.694 114.702 127.045C114.397 127.393 114.003 127.665 113.519 127.861C113.038 128.053 112.483 128.149 111.854 128.149ZM122.954 122.541L121.015 122.661C120.982 122.495 120.911 122.346 120.802 122.213C120.692 122.077 120.548 121.969 120.369 121.89C120.193 121.807 119.983 121.766 119.738 121.766C119.41 121.766 119.133 121.835 118.907 121.974C118.682 122.11 118.569 122.293 118.569 122.521C118.569 122.704 118.642 122.858 118.788 122.984C118.934 123.11 119.184 123.211 119.539 123.287L120.921 123.565C121.663 123.718 122.217 123.963 122.581 124.301C122.946 124.639 123.128 125.083 123.128 125.634C123.128 126.134 122.981 126.573 122.686 126.951C122.394 127.329 121.993 127.624 121.483 127.836C120.976 128.045 120.391 128.149 119.728 128.149C118.717 128.149 117.911 127.939 117.312 127.518C116.715 127.094 116.365 126.517 116.263 125.788L118.346 125.678C118.409 125.987 118.561 126.222 118.803 126.384C119.045 126.543 119.355 126.623 119.733 126.623C120.104 126.623 120.402 126.552 120.628 126.409C120.856 126.263 120.972 126.076 120.976 125.847C120.972 125.655 120.891 125.498 120.732 125.375C120.573 125.249 120.328 125.153 119.996 125.087L118.674 124.823C117.928 124.674 117.373 124.415 117.008 124.048C116.647 123.68 116.466 123.211 116.466 122.641C116.466 122.15 116.599 121.728 116.864 121.373C117.133 121.018 117.509 120.745 117.993 120.553C118.48 120.36 119.05 120.264 119.703 120.264C120.667 120.264 121.426 120.468 121.98 120.876C122.537 121.283 122.862 121.839 122.954 122.541Z" fill="#7E2EBC"/>
<path d="M19.8544 151H17.0291V142.273H19.9439C20.799 142.273 21.5334 142.447 22.147 142.797C22.7607 143.143 23.2308 143.642 23.5575 144.293C23.8871 144.94 24.0518 145.717 24.0518 146.624C24.0518 147.533 23.8857 148.314 23.5533 148.967C23.2237 149.621 22.7464 150.124 22.1214 150.476C21.4964 150.825 20.7408 151 19.8544 151ZM18.3459 149.849H19.782C20.4467 149.849 20.9993 149.724 21.4396 149.474C21.88 149.222 22.2095 148.857 22.4283 148.379C22.647 147.899 22.7564 147.314 22.7564 146.624C22.7564 145.939 22.647 145.358 22.4283 144.881C22.2124 144.403 21.8899 144.041 21.4609 143.794C21.032 143.547 20.4993 143.423 19.8629 143.423H18.3459V149.849ZM27.4918 151.145C27.0771 151.145 26.7021 151.068 26.3668 150.915C26.0316 150.759 25.766 150.533 25.57 150.237C25.3768 149.942 25.2802 149.58 25.2802 149.151C25.2802 148.781 25.3512 148.477 25.4933 148.239C25.6353 148 25.8271 147.811 26.0685 147.672C26.31 147.533 26.5799 147.428 26.8782 147.357C27.1765 147.286 27.4805 147.232 27.7901 147.195C28.1822 147.149 28.5004 147.112 28.7447 147.084C28.989 147.053 29.1665 147.003 29.2773 146.935C29.3881 146.866 29.4435 146.756 29.4435 146.602V146.572C29.4435 146.2 29.3384 145.912 29.1282 145.707C28.9208 145.503 28.6112 145.401 28.1992 145.401C27.7702 145.401 27.4322 145.496 27.185 145.686C26.9407 145.874 26.7717 146.082 26.6779 146.312L25.4805 146.04C25.6225 145.642 25.8299 145.321 26.1026 145.077C26.3782 144.83 26.695 144.651 27.0529 144.54C27.4109 144.426 27.7873 144.369 28.1822 144.369C28.4435 144.369 28.7205 144.401 29.0131 144.463C29.3086 144.523 29.5842 144.634 29.8398 144.795C30.0984 144.957 30.31 145.189 30.4748 145.49C30.6396 145.788 30.7219 146.176 30.7219 146.653V151H29.4776V150.105H29.4265C29.3441 150.27 29.2205 150.432 29.0558 150.591C28.891 150.75 28.6793 150.882 28.4208 150.987C28.1623 151.092 27.8526 151.145 27.4918 151.145ZM27.7688 150.122C28.1211 150.122 28.4222 150.053 28.6722 149.913C28.9251 149.774 29.1168 149.592 29.2475 149.368C29.381 149.141 29.4478 148.898 29.4478 148.639V147.795C29.4023 147.841 29.3143 147.884 29.1836 147.923C29.0558 147.96 28.9094 147.993 28.7447 148.021C28.5799 148.047 28.4194 148.071 28.2631 148.094C28.1069 148.114 27.9762 148.131 27.8711 148.145C27.6239 148.176 27.3981 148.229 27.1935 148.303C26.9918 148.376 26.8299 148.483 26.7077 148.622C26.5884 148.759 26.5288 148.94 26.5288 149.168C26.5288 149.483 26.6452 149.722 26.8782 149.884C27.1112 150.043 27.408 150.122 27.7688 150.122ZM35.4744 144.455V145.477H31.8991V144.455H35.4744ZM32.858 142.886H34.1321V149.078C34.1321 149.325 34.169 149.511 34.2429 149.636C34.3168 149.759 34.4119 149.842 34.5284 149.888C34.6477 149.93 34.777 149.952 34.9162 149.952C35.0185 149.952 35.108 149.945 35.1847 149.93C35.2614 149.916 35.321 149.905 35.3636 149.896L35.5938 150.949C35.5199 150.977 35.4148 151.006 35.2784 151.034C35.142 151.065 34.9716 151.082 34.767 151.085C34.4318 151.091 34.1193 151.031 33.8295 150.906C33.5398 150.781 33.3054 150.588 33.1264 150.327C32.9474 150.065 32.858 149.737 32.858 149.342V142.886ZM39.6346 151.132C38.9897 151.132 38.4343 150.994 37.9684 150.719C37.5053 150.44 37.1474 150.05 36.8945 149.547C36.6445 149.041 36.5195 148.449 36.5195 147.77C36.5195 147.099 36.6445 146.509 36.8945 145.997C37.1474 145.486 37.4996 145.087 37.9513 144.8C38.4059 144.513 38.9371 144.369 39.5451 144.369C39.9144 144.369 40.2724 144.43 40.619 144.553C40.9656 144.675 41.2766 144.866 41.5522 145.128C41.8278 145.389 42.0451 145.729 42.2042 146.146C42.3633 146.561 42.4428 147.065 42.4428 147.659V148.111H37.2397V147.156H41.1942C41.1942 146.821 41.1261 146.524 40.9897 146.266C40.8533 146.004 40.6616 145.798 40.4144 145.648C40.1701 145.497 39.8832 145.422 39.5536 145.422C39.1957 145.422 38.8832 145.51 38.6161 145.686C38.3519 145.859 38.1474 146.087 38.0025 146.368C37.8604 146.646 37.7894 146.949 37.7894 147.276V148.021C37.7894 148.459 37.8661 148.831 38.0195 149.138C38.1758 149.445 38.3931 149.679 38.6715 149.841C38.9499 150 39.2752 150.08 39.6474 150.08C39.8888 150.08 40.109 150.045 40.3079 149.977C40.5067 149.906 40.6786 149.801 40.8235 149.662C40.9684 149.523 41.0792 149.351 41.1559 149.146L42.3619 149.364C42.2653 149.719 42.092 150.03 41.842 150.297C41.5948 150.561 41.2837 150.767 40.9087 150.915C40.5366 151.06 40.1119 151.132 39.6346 151.132Z" fill="#3C3C43" fill-opacity="0.6"/>
<circle cx="48" cy="147" r="1" fill="#CFD1D4"/>
<path d="M54.0753 143.406V142.273H60.8295V143.406H58.1065V151H56.794V143.406H54.0753ZM62.2198 151V144.455H63.494V151H62.2198ZM62.8633 143.445C62.6417 143.445 62.4513 143.371 62.2923 143.223C62.136 143.072 62.0579 142.893 62.0579 142.686C62.0579 142.476 62.136 142.297 62.2923 142.149C62.4513 141.999 62.6417 141.923 62.8633 141.923C63.0849 141.923 63.2738 141.999 63.43 142.149C63.5891 142.297 63.6687 142.476 63.6687 142.686C63.6687 142.893 63.5891 143.072 63.43 143.223C63.2738 143.371 63.0849 143.445 62.8633 143.445ZM65.2081 151V144.455H66.4311V145.52H66.5121C66.6484 145.159 66.8714 144.878 67.1811 144.676C67.4908 144.472 67.8615 144.369 68.2933 144.369C68.7308 144.369 69.0973 144.472 69.3928 144.676C69.6911 144.881 69.9112 145.162 70.0533 145.52H70.1214C70.2777 145.17 70.5263 144.892 70.8672 144.685C71.2081 144.474 71.6143 144.369 72.0859 144.369C72.6797 144.369 73.1641 144.555 73.5391 144.928C73.9169 145.3 74.1058 145.861 74.1058 146.611V151H72.8317V146.73C72.8317 146.287 72.7109 145.966 72.4695 145.767C72.228 145.568 71.9396 145.469 71.6044 145.469C71.1896 145.469 70.8672 145.597 70.6371 145.852C70.407 146.105 70.2919 146.43 70.2919 146.828V151H69.022V146.649C69.022 146.294 68.9112 146.009 68.6896 145.793C68.468 145.577 68.1797 145.469 67.8246 145.469C67.5831 145.469 67.3601 145.533 67.1555 145.661C66.9538 145.786 66.7905 145.96 66.6655 146.185C66.5433 146.409 66.4822 146.669 66.4822 146.964V151H65.2081ZM78.6346 151.132C77.9897 151.132 77.4343 150.994 76.9684 150.719C76.5053 150.44 76.1474 150.05 75.8945 149.547C75.6445 149.041 75.5195 148.449 75.5195 147.77C75.5195 147.099 75.6445 146.509 75.8945 145.997C76.1474 145.486 76.4996 145.087 76.9513 144.8C77.4059 144.513 77.9371 144.369 78.5451 144.369C78.9144 144.369 79.2724 144.43 79.619 144.553C79.9656 144.675 80.2766 144.866 80.5522 145.128C80.8278 145.389 81.0451 145.729 81.2042 146.146C81.3633 146.561 81.4428 147.065 81.4428 147.659V148.111H76.2397V147.156H80.1942C80.1942 146.821 80.1261 146.524 79.9897 146.266C79.8533 146.004 79.6616 145.798 79.4144 145.648C79.1701 145.497 78.8832 145.422 78.5536 145.422C78.1957 145.422 77.8832 145.51 77.6161 145.686C77.3519 145.859 77.1474 146.087 77.0025 146.368C76.8604 146.646 76.7894 146.949 76.7894 147.276V148.021C76.7894 148.459 76.8661 148.831 77.0195 149.138C77.1758 149.445 77.3931 149.679 77.6715 149.841C77.9499 150 78.2752 150.08 78.6474 150.08C78.8888 150.08 79.109 150.045 79.3079 149.977C79.5067 149.906 79.6786 149.801 79.8235 149.662C79.9684 149.523 80.0792 149.351 80.1559 149.146L81.3619 149.364C81.2653 149.719 81.092 150.03 80.842 150.297C80.5948 150.561 80.2837 150.767 79.9087 150.915C79.5366 151.06 79.1119 151.132 78.6346 151.132Z" fill="#3C3C43" fill-opacity="0.6"/>
<rect x="334" y="102" width="24" height="24" rx="4" fill="#F6F6F6"/>
<path d="M350 110L342 118M342 110L350 118" stroke="#D42F55" stroke-width="1.33333" stroke-linecap="round" stroke-linejoin="round"/>
<path d="M181.883 115.111H180.554C180.502 114.827 180.407 114.577 180.268 114.361C180.129 114.145 179.958 113.962 179.757 113.811C179.555 113.661 179.329 113.547 179.079 113.47C178.832 113.393 178.569 113.355 178.291 113.355C177.788 113.355 177.338 113.482 176.94 113.734C176.545 113.987 176.233 114.358 176.002 114.847C175.775 115.335 175.662 115.932 175.662 116.636C175.662 117.347 175.775 117.946 176.002 118.435C176.233 118.923 176.547 119.293 176.944 119.543C177.342 119.793 177.789 119.918 178.287 119.918C178.562 119.918 178.824 119.881 179.071 119.807C179.321 119.73 179.547 119.618 179.748 119.47C179.95 119.322 180.12 119.142 180.26 118.929C180.402 118.713 180.5 118.466 180.554 118.188L181.883 118.192C181.812 118.621 181.674 119.016 181.47 119.376C181.268 119.734 181.008 120.044 180.69 120.305C180.375 120.564 180.014 120.764 179.608 120.906C179.201 121.048 178.758 121.119 178.278 121.119C177.522 121.119 176.849 120.94 176.258 120.582C175.667 120.222 175.201 119.706 174.86 119.036C174.522 118.365 174.353 117.565 174.353 116.636C174.353 115.705 174.524 114.905 174.865 114.237C175.206 113.567 175.672 113.053 176.262 112.695C176.853 112.334 177.525 112.153 178.278 112.153C178.741 112.153 179.173 112.22 179.574 112.354C179.977 112.484 180.339 112.678 180.66 112.933C180.981 113.186 181.247 113.496 181.457 113.862C181.667 114.226 181.809 114.642 181.883 115.111ZM186.114 121.132C185.5 121.132 184.964 120.991 184.507 120.71C184.05 120.429 183.695 120.036 183.442 119.53C183.189 119.024 183.062 118.433 183.062 117.757C183.062 117.078 183.189 116.484 183.442 115.976C183.695 115.467 184.05 115.072 184.507 114.791C184.964 114.51 185.5 114.369 186.114 114.369C186.727 114.369 187.263 114.51 187.72 114.791C188.178 115.072 188.533 115.467 188.786 115.976C189.038 116.484 189.165 117.078 189.165 117.757C189.165 118.433 189.038 119.024 188.786 119.53C188.533 120.036 188.178 120.429 187.72 120.71C187.263 120.991 186.727 121.132 186.114 121.132ZM186.118 120.062C186.516 120.062 186.845 119.957 187.107 119.747C187.368 119.537 187.561 119.257 187.686 118.908C187.814 118.558 187.878 118.173 187.878 117.753C187.878 117.335 187.814 116.952 187.686 116.602C187.561 116.25 187.368 115.967 187.107 115.754C186.845 115.541 186.516 115.435 186.118 115.435C185.717 115.435 185.385 115.541 185.121 115.754C184.859 115.967 184.665 116.25 184.537 116.602C184.412 116.952 184.349 117.335 184.349 117.753C184.349 118.173 184.412 118.558 184.537 118.908C184.665 119.257 184.859 119.537 185.121 119.747C185.385 119.957 185.717 120.062 186.118 120.062ZM194.733 118.286V114.455H196.012V121H194.759V119.866H194.691C194.54 120.216 194.299 120.507 193.966 120.74C193.637 120.97 193.226 121.085 192.735 121.085C192.314 121.085 191.942 120.993 191.618 120.808C191.297 120.621 191.044 120.344 190.86 119.977C190.678 119.611 190.587 119.158 190.587 118.618V114.455H191.861V118.464C191.861 118.911 191.985 119.266 192.232 119.53C192.479 119.794 192.8 119.926 193.195 119.926C193.434 119.926 193.671 119.866 193.907 119.747C194.145 119.628 194.343 119.447 194.499 119.206C194.658 118.964 194.736 118.658 194.733 118.286ZM197.724 121V114.455H198.955V115.494H199.023C199.143 115.142 199.353 114.865 199.654 114.663C199.958 114.459 200.302 114.357 200.685 114.357C200.765 114.357 200.859 114.359 200.967 114.365C201.077 114.371 201.164 114.378 201.227 114.386V115.605C201.175 115.591 201.085 115.575 200.954 115.558C200.823 115.538 200.692 115.528 200.562 115.528C200.261 115.528 199.992 115.592 199.756 115.72C199.523 115.845 199.339 116.02 199.202 116.244C199.066 116.466 198.998 116.719 198.998 117.003V121H197.724ZM205.771 114.455V115.477H202.196V114.455H205.771ZM203.155 112.886H204.429V119.078C204.429 119.325 204.466 119.511 204.54 119.636C204.614 119.759 204.709 119.842 204.825 119.888C204.945 119.93 205.074 119.952 205.213 119.952C205.315 119.952 205.405 119.945 205.482 119.93C205.558 119.916 205.618 119.905 205.661 119.896L205.891 120.949C205.817 120.977 205.712 121.006 205.575 121.034C205.439 121.065 205.268 121.082 205.064 121.085C204.729 121.091 204.416 121.031 204.126 120.906C203.837 120.781 203.602 120.588 203.423 120.327C203.244 120.065 203.155 119.737 203.155 119.342V112.886Z" fill="black"/>
<path d="M156.167 144H167.833" stroke="#E7E8E9" stroke-width="1.66667" stroke-linecap="round" stroke-linejoin="round"/>
<path d="M191.534 138.818V149H189.993V140.359H189.933L187.497 141.95V140.479L190.037 138.818H191.534Z" fill="#7E2EBC"/>
<path d="M218 138.167V149.833M212.167 144H223.833" stroke="black" stroke-width="1.66667" stroke-linecap="round" stroke-linejoin="round"/>
<rect x="146.5" y="128.5" width="87" height="31" rx="7.5" stroke="#E7E8E9"/>
<g clip-path="url(#clip0_15855_50158)">
<path d="M272.633 116.667L271.3 118L269.967 116.667M271.463 117.667C271.488 117.448 271.5 117.225 271.5 117C271.5 113.686 268.814 111 265.5 111C262.186 111 259.5 113.686 259.5 117C259.5 120.314 262.186 123 265.5 123C267.385 123 269.067 122.131 270.167 120.772M265.5 113.667V117L267.5 118.333" stroke="black" stroke-width="1.33333" stroke-linecap="round" stroke-linejoin="round"/>
</g>
<path d="M279.093 117.378C279.093 116.31 279.233 115.327 279.514 114.429C279.796 113.531 280.206 112.703 280.746 111.945H281.914C281.703 112.226 281.507 112.571 281.325 112.98C281.144 113.389 280.985 113.838 280.848 114.327C280.712 114.812 280.605 115.317 280.529 115.839C280.452 116.359 280.414 116.872 280.414 117.378C280.414 118.054 280.48 118.739 280.614 119.432C280.747 120.125 280.928 120.768 281.155 121.362C281.382 121.956 281.635 122.44 281.914 122.815H280.746C280.206 122.057 279.796 121.229 279.514 120.331C279.233 119.433 279.093 118.449 279.093 117.378ZM283.257 121V114.455H284.48V115.52H284.561C284.697 115.159 284.92 114.878 285.23 114.676C285.54 114.472 285.91 114.369 286.342 114.369C286.78 114.369 287.146 114.472 287.442 114.676C287.74 114.881 287.96 115.162 288.102 115.52H288.17C288.327 115.17 288.575 114.892 288.916 114.685C289.257 114.474 289.663 114.369 290.135 114.369C290.729 114.369 291.213 114.555 291.588 114.928C291.966 115.3 292.155 115.861 292.155 116.611V121H290.881V116.73C290.881 116.287 290.76 115.966 290.518 115.767C290.277 115.568 289.988 115.469 289.653 115.469C289.238 115.469 288.916 115.597 288.686 115.852C288.456 116.105 288.341 116.43 288.341 116.828V121H287.071V116.649C287.071 116.294 286.96 116.009 286.738 115.793C286.517 115.577 286.229 115.469 285.873 115.469C285.632 115.469 285.409 115.533 285.204 115.661C285.003 115.786 284.839 115.96 284.714 116.185C284.592 116.409 284.531 116.669 284.531 116.964V121H283.257ZM293.862 121V114.455H295.137V121H293.862ZM294.506 113.445C294.284 113.445 294.094 113.371 293.935 113.223C293.779 113.072 293.7 112.893 293.7 112.686C293.7 112.476 293.779 112.297 293.935 112.149C294.094 111.999 294.284 111.923 294.506 111.923C294.727 111.923 294.916 111.999 295.073 112.149C295.232 112.297 295.311 112.476 295.311 112.686C295.311 112.893 295.232 113.072 295.073 113.223C294.916 113.371 294.727 113.445 294.506 113.445ZM298.125 117.114V121H296.851V114.455H298.074V115.52H298.155C298.305 115.173 298.541 114.895 298.862 114.685C299.186 114.474 299.594 114.369 300.085 114.369C300.531 114.369 300.922 114.463 301.257 114.651C301.592 114.835 301.852 115.111 302.037 115.477C302.221 115.844 302.314 116.297 302.314 116.837V121H301.04V116.99C301.04 116.516 300.916 116.145 300.669 115.878C300.422 115.608 300.082 115.473 299.65 115.473C299.355 115.473 299.092 115.537 298.862 115.665C298.635 115.793 298.454 115.98 298.321 116.227C298.19 116.472 298.125 116.767 298.125 117.114ZM308.927 116.053L307.773 116.257C307.724 116.109 307.648 115.969 307.542 115.835C307.44 115.702 307.301 115.592 307.125 115.507C306.949 115.422 306.729 115.379 306.464 115.379C306.104 115.379 305.802 115.46 305.561 115.622C305.319 115.781 305.199 115.987 305.199 116.24C305.199 116.459 305.28 116.635 305.442 116.768C305.604 116.902 305.865 117.011 306.226 117.097L307.265 117.335C307.868 117.474 308.317 117.689 308.612 117.979C308.907 118.268 309.055 118.645 309.055 119.108C309.055 119.5 308.942 119.849 308.714 120.156C308.49 120.46 308.176 120.699 307.773 120.872C307.372 121.045 306.907 121.132 306.379 121.132C305.646 121.132 305.048 120.976 304.585 120.663C304.122 120.348 303.838 119.901 303.733 119.321L304.964 119.134C305.041 119.455 305.199 119.697 305.437 119.862C305.676 120.024 305.987 120.105 306.371 120.105C306.788 120.105 307.122 120.018 307.372 119.845C307.622 119.669 307.747 119.455 307.747 119.202C307.747 118.997 307.67 118.825 307.517 118.686C307.366 118.547 307.135 118.442 306.822 118.371L305.714 118.128C305.104 117.989 304.652 117.767 304.359 117.463C304.069 117.159 303.925 116.774 303.925 116.308C303.925 115.922 304.032 115.584 304.248 115.294C304.464 115.004 304.763 114.778 305.143 114.616C305.524 114.452 305.96 114.369 306.452 114.369C307.159 114.369 307.716 114.523 308.122 114.83C308.528 115.134 308.797 115.541 308.927 116.053ZM312.906 117.378C312.906 118.449 312.766 119.433 312.485 120.331C312.203 121.229 311.793 122.057 311.253 122.815H310.085C310.296 122.534 310.492 122.189 310.673 121.78C310.855 121.371 311.014 120.923 311.151 120.438C311.287 119.949 311.394 119.443 311.47 118.92C311.547 118.398 311.585 117.884 311.585 117.378C311.585 116.705 311.519 116.021 311.385 115.328C311.252 114.635 311.071 113.991 310.844 113.398C310.617 112.804 310.364 112.32 310.085 111.945H311.253C311.793 112.703 312.203 113.531 312.485 114.429C312.766 115.327 312.906 116.31 312.906 117.378Z" fill="#3C3C43" fill-opacity="0.6"/>
<path d="M252.167 144H263.833" stroke="#E7E8E9" stroke-width="1.66667" stroke-linecap="round" stroke-linejoin="round"/>
<path d="M281.494 149.139C280.811 149.139 280.201 149.022 279.664 148.786C279.131 148.551 278.708 148.224 278.397 147.807C278.088 147.386 277.923 146.899 277.899 146.345H279.46C279.48 146.647 279.581 146.909 279.764 147.131C279.949 147.349 280.191 147.518 280.49 147.638C280.788 147.757 281.119 147.817 281.484 147.817C281.885 147.817 282.24 147.747 282.548 147.608C282.859 147.469 283.103 147.275 283.279 147.026C283.454 146.774 283.542 146.484 283.542 146.156C283.542 145.815 283.454 145.515 283.279 145.256C283.106 144.995 282.853 144.789 282.518 144.64C282.187 144.491 281.786 144.416 281.315 144.416H280.455V143.163H281.315C281.693 143.163 282.024 143.095 282.309 142.96C282.598 142.824 282.823 142.635 282.985 142.393C283.148 142.147 283.229 141.861 283.229 141.533C283.229 141.218 283.158 140.944 283.015 140.712C282.876 140.477 282.677 140.293 282.419 140.161C282.163 140.028 281.862 139.962 281.514 139.962C281.182 139.962 280.872 140.023 280.584 140.146C280.299 140.265 280.067 140.437 279.888 140.663C279.709 140.885 279.613 141.152 279.6 141.463H278.113C278.13 140.913 278.292 140.429 278.6 140.011C278.912 139.594 279.323 139.267 279.833 139.032C280.344 138.797 280.911 138.679 281.534 138.679C282.187 138.679 282.75 138.807 283.224 139.062C283.701 139.314 284.069 139.65 284.328 140.071C284.59 140.492 284.719 140.953 284.715 141.453C284.719 142.023 284.56 142.507 284.238 142.905C283.92 143.303 283.496 143.569 282.965 143.705V143.785C283.642 143.888 284.165 144.156 284.536 144.59C284.911 145.024 285.097 145.563 285.093 146.206C285.097 146.766 284.941 147.268 284.626 147.712C284.314 148.156 283.889 148.506 283.348 148.761C282.808 149.013 282.19 149.139 281.494 149.139ZM290.517 149.169C289.732 149.166 289.061 148.959 288.504 148.548C287.947 148.137 287.521 147.538 287.226 146.753C286.931 145.967 286.784 145.021 286.784 143.914C286.784 142.81 286.931 141.867 287.226 141.085C287.524 140.303 287.952 139.706 288.509 139.295C289.069 138.884 289.738 138.679 290.517 138.679C291.296 138.679 291.964 138.886 292.521 139.3C293.078 139.711 293.504 140.308 293.799 141.09C294.097 141.869 294.246 142.81 294.246 143.914C294.246 145.024 294.099 145.972 293.804 146.758C293.509 147.54 293.083 148.138 292.526 148.553C291.969 148.964 291.3 149.169 290.517 149.169ZM290.517 147.842C291.207 147.842 291.745 147.505 292.133 146.832C292.524 146.16 292.72 145.187 292.72 143.914C292.72 143.069 292.63 142.355 292.451 141.771C292.276 141.185 292.022 140.741 291.691 140.439C291.362 140.134 290.971 139.982 290.517 139.982C289.831 139.982 289.293 140.32 288.902 140.996C288.51 141.672 288.313 142.645 288.31 143.914C288.31 144.763 288.398 145.48 288.573 146.067C288.752 146.65 289.006 147.093 289.334 147.394C289.662 147.692 290.057 147.842 290.517 147.842Z" fill="#7E2EBC"/>
<path d="M314 138.167V149.833M308.167 144H319.833" stroke="black" stroke-width="1.66667" stroke-linecap="round" stroke-linejoin="round"/>
<rect x="242.5" y="128.5" width="87" height="31" rx="7.5" stroke="#E7E8E9"/>
</g>
<defs>
<filter id="filter0_d_15855_50158" x="0" y="94" width="366" height="80" filterUnits="userSpaceOnUse" color-interpolation-filters="sRGB">
<feFlood flood-opacity="0" result="BackgroundImageFix"/>
<feColorMatrix in="SourceAlpha" type="matrix" values="0 0 0 0 0 0 0 0 0 0 0 0 0 0 0 0 0 0 127 0" result="hardAlpha"/>
<feOffset/>
<feGaussianBlur stdDeviation="2"/>
<feComposite in2="hardAlpha" operator="out"/>
<feColorMatrix type="matrix" values="0 0 0 0 0 0 0 0 0 0 0 0 0 0 0 0 0 0 0.12 0"/>
<feBlend mode="normal" in2="BackgroundImageFix" result="effect1_dropShadow_15855_50158"/>
<feBlend mode="normal" in="SourceGraphic" in2="effect1_dropShadow_15855_50158" result="shape"/>
</filter>
<clipPath id="clip0_15855_50158">
<rect width="16" height="16" fill="white" transform="translate(257.5 109)"/>
</clipPath>
</defs>
</svg>
