<svg width="366" height="142" viewBox="0 0 366 142" fill="none" xmlns="http://www.w3.org/2000/svg">
<path d="M20.4751 9.71023C20.4297 9.25189 20.2346 8.89583 19.8899 8.64205C19.5452 8.38826 19.0774 8.26136 18.4865 8.26136C18.085 8.26136 17.7459 8.31818 17.4694 8.43182C17.1929 8.54167 16.9808 8.69508 16.8331 8.89205C16.6891 9.08902 16.6172 9.3125 16.6172 9.5625C16.6096 9.77083 16.6531 9.95265 16.7478 10.108C16.8463 10.2633 16.9808 10.3977 17.1512 10.5114C17.3217 10.6212 17.5187 10.7178 17.7422 10.8011C17.9656 10.8807 18.2043 10.9489 18.4581 11.0057L19.5035 11.2557C20.0111 11.3693 20.477 11.5208 20.9012 11.7102C21.3255 11.8996 21.6929 12.1326 22.0035 12.4091C22.3141 12.6856 22.5547 13.0114 22.7251 13.3864C22.8994 13.7614 22.9884 14.1913 22.9922 14.6761C22.9884 15.3883 22.8066 16.0057 22.4467 16.5284C22.0906 17.0473 21.5755 17.4508 20.9012 17.7386C20.2308 18.0227 19.4221 18.1648 18.4751 18.1648C17.5357 18.1648 16.7175 18.0208 16.0206 17.733C15.3274 17.4451 14.7857 17.0189 14.3956 16.4545C14.0092 15.8864 13.8066 15.1837 13.7876 14.3466H16.1683C16.1948 14.7367 16.3066 15.0625 16.5035 15.3239C16.7043 15.5814 16.9713 15.7765 17.3047 15.9091C17.6418 16.0379 18.0225 16.1023 18.4467 16.1023C18.8634 16.1023 19.2251 16.0417 19.5319 15.9205C19.8425 15.7992 20.0831 15.6307 20.2535 15.4148C20.424 15.1989 20.5092 14.9508 20.5092 14.6705C20.5092 14.4091 20.4316 14.1894 20.2762 14.0114C20.1247 13.8333 19.9012 13.6818 19.6058 13.5568C19.3141 13.4318 18.9562 13.3182 18.5319 13.2159L17.2649 12.8977C16.2838 12.6591 15.5092 12.286 14.941 11.7784C14.3728 11.2708 14.0906 10.5871 14.0944 9.72727C14.0906 9.02273 14.2781 8.4072 14.6569 7.88068C15.0395 7.35417 15.5641 6.94318 16.2308 6.64773C16.8975 6.35227 17.655 6.20455 18.5035 6.20455C19.3672 6.20455 20.1209 6.35227 20.7649 6.64773C21.4126 6.94318 21.9164 7.35417 22.2762 7.88068C22.6361 8.4072 22.8217 9.01705 22.8331 9.71023H20.4751ZM26.1631 18L23.7881 9.27273H26.237L27.5893 15.1364H27.6688L29.0779 9.27273H31.4813L32.9131 15.1023H32.987L34.3165 9.27273H36.7597L34.3904 18H31.8279L30.3279 12.5114H30.2199L28.7199 18H26.1631ZM37.8909 18V9.27273H40.3114V18H37.8909ZM39.1068 8.14773C38.747 8.14773 38.4383 8.02841 38.1807 7.78977C37.9269 7.54735 37.8 7.25758 37.8 6.92045C37.8 6.58712 37.9269 6.30114 38.1807 6.0625C38.4383 5.82008 38.747 5.69886 39.1068 5.69886C39.4667 5.69886 39.7735 5.82008 40.0273 6.0625C40.2848 6.30114 40.4136 6.58712 40.4136 6.92045C40.4136 7.25758 40.2848 7.54735 40.0273 7.78977C39.7735 8.02841 39.4667 8.14773 39.1068 8.14773ZM42.0903 21.2727V9.27273H44.4766V10.7386H44.5846C44.6907 10.5038 44.8441 10.2652 45.0448 10.0227C45.2494 9.77652 45.5145 9.57197 45.8403 9.40909C46.1698 9.24242 46.5789 9.15909 47.0676 9.15909C47.7039 9.15909 48.291 9.32576 48.8289 9.65909C49.3668 9.98864 49.7967 10.4867 50.1187 11.1534C50.4407 11.8163 50.6016 12.6477 50.6016 13.6477C50.6016 14.6212 50.4445 15.4432 50.1301 16.1136C49.8195 16.7803 49.3952 17.286 48.8573 17.6307C48.3232 17.9716 47.7248 18.142 47.0619 18.142C46.5922 18.142 46.1926 18.0644 45.863 17.9091C45.5373 17.7538 45.2702 17.5587 45.0619 17.3239C44.8535 17.0852 44.6945 16.8447 44.5846 16.6023H44.5107V21.2727H42.0903ZM44.4596 13.6364C44.4596 14.1553 44.5316 14.608 44.6755 14.9943C44.8195 15.3807 45.0278 15.6818 45.3005 15.8977C45.5732 16.1098 45.9047 16.2159 46.2948 16.2159C46.6888 16.2159 47.0221 16.108 47.2948 15.892C47.5676 15.6723 47.774 15.3693 47.9141 14.983C48.0581 14.5928 48.1301 14.1439 48.1301 13.6364C48.1301 13.1326 48.06 12.6894 47.9198 12.3068C47.7797 11.9242 47.5732 11.625 47.3005 11.4091C47.0278 11.1932 46.6926 11.0852 46.2948 11.0852C45.9009 11.0852 45.5676 11.1894 45.2948 11.3977C45.0259 11.6061 44.8195 11.9015 44.6755 12.2841C44.5316 12.6667 44.4596 13.1174 44.4596 13.6364ZM56.0326 18.1705C55.1348 18.1705 54.3621 17.9886 53.7144 17.625C53.0704 17.2576 52.5742 16.7386 52.2257 16.0682C51.8773 15.3939 51.703 14.5966 51.703 13.6761C51.703 12.7784 51.8773 11.9905 52.2257 11.3125C52.5742 10.6345 53.0648 10.1061 53.6973 9.72727C54.3337 9.34848 55.0799 9.15909 55.936 9.15909C56.5117 9.15909 57.0477 9.25189 57.5439 9.4375C58.0439 9.61932 58.4795 9.89394 58.8507 10.2614C59.2257 10.6288 59.5174 11.0909 59.7257 11.6477C59.9341 12.2008 60.0382 12.8485 60.0382 13.5909V14.2557H52.6689V12.7557H57.7598C57.7598 12.4072 57.6841 12.0985 57.5326 11.8295C57.381 11.5606 57.1708 11.3504 56.9019 11.1989C56.6367 11.0436 56.328 10.9659 55.9757 10.9659C55.6083 10.9659 55.2826 11.0511 54.9985 11.2216C54.7182 11.3883 54.4985 11.6136 54.3394 11.8977C54.1803 12.178 54.0988 12.4905 54.0951 12.8352V14.2614C54.0951 14.6932 54.1746 15.0663 54.3337 15.3807C54.4966 15.6951 54.7257 15.9375 55.0212 16.108C55.3166 16.2784 55.667 16.3636 56.0723 16.3636C56.3413 16.3636 56.5875 16.3258 56.811 16.25C57.0345 16.1742 57.2257 16.0606 57.3848 15.9091C57.5439 15.7576 57.6651 15.572 57.7485 15.3523L59.9871 15.5C59.8735 16.0379 59.6405 16.5076 59.2882 16.9091C58.9398 17.3068 58.489 17.6174 57.936 17.8409C57.3867 18.0606 56.7523 18.1705 56.0326 18.1705ZM69.643 9.27273V11.0909H64.3873V9.27273H69.643ZM65.5805 7.18182H68.0009V15.3182C68.0009 15.5417 68.035 15.7159 68.1032 15.8409C68.1714 15.9621 68.2661 16.0473 68.3873 16.0966C68.5123 16.1458 68.6562 16.1705 68.8191 16.1705C68.9327 16.1705 69.0464 16.161 69.16 16.142C69.2736 16.1193 69.3608 16.1023 69.4214 16.0909L69.802 17.892C69.6808 17.9299 69.5104 17.9735 69.2907 18.0227C69.071 18.0758 68.8039 18.108 68.4895 18.1193C67.9062 18.142 67.3948 18.0644 66.9555 17.8864C66.5198 17.7083 66.1808 17.4318 65.9384 17.0568C65.696 16.6818 65.5767 16.2083 65.5805 15.6364V7.18182ZM74.9091 18.1705C74.0265 18.1705 73.2633 17.983 72.6193 17.608C71.9792 17.2292 71.4848 16.7027 71.1364 16.0284C70.7879 15.3504 70.6136 14.5644 70.6136 13.6705C70.6136 12.7689 70.7879 11.9811 71.1364 11.3068C71.4848 10.6288 71.9792 10.1023 72.6193 9.72727C73.2633 9.34848 74.0265 9.15909 74.9091 9.15909C75.7917 9.15909 76.553 9.34848 77.1932 9.72727C77.8371 10.1023 78.3333 10.6288 78.6818 11.3068C79.0303 11.9811 79.2045 12.7689 79.2045 13.6705C79.2045 14.5644 79.0303 15.3504 78.6818 16.0284C78.3333 16.7027 77.8371 17.2292 77.1932 17.608C76.553 17.983 75.7917 18.1705 74.9091 18.1705ZM74.9205 16.2955C75.322 16.2955 75.6572 16.1818 75.9261 15.9545C76.1951 15.7235 76.3977 15.4091 76.5341 15.0114C76.6742 14.6136 76.7443 14.161 76.7443 13.6534C76.7443 13.1458 76.6742 12.6932 76.5341 12.2955C76.3977 11.8977 76.1951 11.5833 75.9261 11.3523C75.6572 11.1212 75.322 11.0057 74.9205 11.0057C74.5152 11.0057 74.1742 11.1212 73.8977 11.3523C73.625 11.5833 73.4186 11.8977 73.2784 12.2955C73.142 12.6932 73.0739 13.1458 73.0739 13.6534C73.0739 14.161 73.142 14.6136 73.2784 15.0114C73.4186 15.4091 73.625 15.7235 73.8977 15.9545C74.1742 16.1818 74.5152 16.2955 74.9205 16.2955ZM91.4229 11.7614L89.207 11.8977C89.1691 11.7083 89.0877 11.5379 88.9627 11.3864C88.8377 11.2311 88.6729 11.108 88.4683 11.017C88.2676 10.9223 88.0271 10.875 87.7468 10.875C87.3718 10.875 87.0555 10.9545 86.7979 11.1136C86.5403 11.2689 86.4115 11.4773 86.4115 11.7386C86.4115 11.947 86.4949 12.1231 86.6615 12.267C86.8282 12.411 87.1142 12.5265 87.5195 12.6136L89.099 12.9318C89.9475 13.1061 90.5801 13.3864 90.9968 13.7727C91.4134 14.1591 91.6218 14.6667 91.6218 15.2955C91.6218 15.8674 91.4532 16.3693 91.1161 16.8011C90.7827 17.233 90.3244 17.5701 89.7411 17.8125C89.1615 18.0511 88.493 18.1705 87.7354 18.1705C86.5801 18.1705 85.6596 17.9299 84.974 17.4489C84.2922 16.964 83.8926 16.3049 83.7752 15.4716L86.1558 15.3466C86.2278 15.6989 86.4021 15.9678 86.6786 16.1534C86.9551 16.3352 87.3093 16.4261 87.7411 16.4261C88.1653 16.4261 88.5062 16.3447 88.7638 16.1818C89.0252 16.0152 89.1577 15.8011 89.1615 15.5398C89.1577 15.3201 89.0649 15.1402 88.8831 15C88.7013 14.8561 88.421 14.7462 88.0422 14.6705L86.5308 14.3693C85.6786 14.1989 85.0441 13.9034 84.6274 13.483C84.2146 13.0625 84.0081 12.5265 84.0081 11.875C84.0081 11.3144 84.1596 10.8314 84.4627 10.4261C84.7695 10.0208 85.1994 9.70833 85.7524 9.48864C86.3093 9.26894 86.9608 9.15909 87.707 9.15909C88.8093 9.15909 89.6767 9.39205 90.3093 9.85795C90.9456 10.3239 91.3168 10.9583 91.4229 11.7614ZM94.7075 18L92.3325 9.27273H94.7814L96.1336 15.1364H96.2132L97.6223 9.27273H100.026L101.458 15.1023H101.531L102.861 9.27273H105.304L102.935 18H100.372L98.8723 12.5114H98.7643L97.2643 18H94.7075ZM106.435 18V9.27273H108.856V18H106.435ZM107.651 8.14773C107.291 8.14773 106.983 8.02841 106.725 7.78977C106.471 7.54735 106.344 7.25758 106.344 6.92045C106.344 6.58712 106.471 6.30114 106.725 6.0625C106.983 5.82008 107.291 5.69886 107.651 5.69886C108.011 5.69886 108.318 5.82008 108.572 6.0625C108.829 6.30114 108.958 6.58712 108.958 6.92045C108.958 7.25758 108.829 7.54735 108.572 7.78977C108.318 8.02841 108.011 8.14773 107.651 8.14773ZM115.277 9.27273V11.0909H110.021V9.27273H115.277ZM111.214 7.18182H113.635V15.3182C113.635 15.5417 113.669 15.7159 113.737 15.8409C113.805 15.9621 113.9 16.0473 114.021 16.0966C114.146 16.1458 114.29 16.1705 114.453 16.1705C114.566 16.1705 114.68 16.161 114.794 16.142C114.907 16.1193 114.995 16.1023 115.055 16.0909L115.436 17.892C115.315 17.9299 115.144 17.9735 114.924 18.0227C114.705 18.0758 114.438 18.108 114.123 18.1193C113.54 18.142 113.029 18.0644 112.589 17.8864C112.154 17.7083 111.815 17.4318 111.572 17.0568C111.33 16.6818 111.21 16.2083 111.214 15.6364V7.18182ZM120.543 18.1705C119.649 18.1705 118.88 17.9811 118.236 17.6023C117.596 17.2197 117.103 16.6894 116.759 16.0114C116.418 15.3333 116.247 14.553 116.247 13.6705C116.247 12.7765 116.42 11.9924 116.764 11.3182C117.113 10.6402 117.607 10.1117 118.247 9.73295C118.888 9.35038 119.649 9.15909 120.531 9.15909C121.293 9.15909 121.96 9.29735 122.531 9.57386C123.103 9.85038 123.556 10.2386 123.889 10.7386C124.223 11.2386 124.406 11.8258 124.441 12.5H122.156C122.092 12.0644 121.922 11.714 121.645 11.4489C121.372 11.1799 121.014 11.0455 120.571 11.0455C120.196 11.0455 119.869 11.1477 119.588 11.3523C119.312 11.553 119.096 11.8466 118.941 12.233C118.785 12.6193 118.708 13.0871 118.708 13.6364C118.708 14.1932 118.783 14.6667 118.935 15.0568C119.09 15.447 119.308 15.7443 119.588 15.9489C119.869 16.1534 120.196 16.2557 120.571 16.2557C120.848 16.2557 121.096 16.1989 121.316 16.0852C121.539 15.9716 121.723 15.8068 121.867 15.5909C122.014 15.3712 122.111 15.108 122.156 14.8011H124.441C124.403 15.4678 124.221 16.0549 123.895 16.5625C123.573 17.0663 123.128 17.4602 122.56 17.7443C121.992 18.0284 121.319 18.1705 120.543 18.1705ZM128.251 12.9545V18H125.83V6.36364H128.183V10.8125H128.285C128.482 10.2973 128.8 9.89394 129.239 9.60227C129.679 9.30682 130.23 9.15909 130.893 9.15909C131.499 9.15909 132.027 9.29167 132.478 9.55682C132.933 9.81818 133.285 10.1951 133.535 10.6875C133.789 11.1761 133.914 11.7614 133.91 12.4432V18H131.489V12.875C131.493 12.3371 131.357 11.9186 131.08 11.6193C130.808 11.3201 130.425 11.1705 129.933 11.1705C129.603 11.1705 129.311 11.2405 129.058 11.3807C128.808 11.5208 128.611 11.7254 128.467 11.9943C128.327 12.2595 128.255 12.5795 128.251 12.9545ZM6.63324 42V30.3636H9.05369V34.7386H9.12755C9.23361 34.5038 9.38702 34.2652 9.58778 34.0227C9.79233 33.7765 10.0575 33.572 10.3832 33.4091C10.7128 33.2424 11.1219 33.1591 11.6105 33.1591C12.2469 33.1591 12.834 33.3258 13.3719 33.6591C13.9098 33.9886 14.3397 34.4867 14.6616 35.1534C14.9836 35.8163 15.1446 36.6477 15.1446 37.6477C15.1446 38.6212 14.9874 39.4432 14.673 40.1136C14.3624 40.7803 13.9382 41.286 13.4003 41.6307C12.8662 41.9716 12.2677 42.142 11.6048 42.142C11.1351 42.142 10.7355 42.0644 10.406 41.9091C10.0802 41.7538 9.81316 41.5587 9.60483 41.3239C9.39649 41.0852 9.2374 40.8447 9.12755 40.6023H9.0196V42H6.63324ZM9.00255 37.6364C9.00255 38.1553 9.07452 38.608 9.21846 38.9943C9.3624 39.3807 9.57074 39.6818 9.84346 39.8977C10.1162 40.1098 10.4476 40.2159 10.8378 40.2159C11.2317 40.2159 11.5651 40.108 11.8378 39.892C12.1105 39.6723 12.3169 39.3693 12.4571 38.983C12.601 38.5928 12.673 38.1439 12.673 37.6364C12.673 37.1326 12.6029 36.6894 12.4628 36.3068C12.3226 35.9242 12.1162 35.625 11.8435 35.4091C11.5707 35.1932 11.2355 35.0852 10.8378 35.0852C10.4438 35.0852 10.1105 35.1894 9.83778 35.3977C9.56884 35.6061 9.3624 35.9015 9.21846 36.2841C9.07452 36.6667 9.00255 37.1174 9.00255 37.6364ZM20.5769 42.1705C19.6792 42.1705 18.9065 41.9886 18.2587 41.625C17.6148 41.2576 17.1186 40.7386 16.7701 40.0682C16.4216 39.3939 16.2474 38.5966 16.2474 37.6761C16.2474 36.7784 16.4216 35.9905 16.7701 35.3125C17.1186 34.6345 17.6091 34.1061 18.2417 33.7273C18.8781 33.3485 19.6243 33.1591 20.4803 33.1591C21.0561 33.1591 21.5921 33.2519 22.0883 33.4375C22.5883 33.6193 23.0239 33.8939 23.3951 34.2614C23.7701 34.6288 24.0618 35.0909 24.2701 35.6477C24.4784 36.2008 24.5826 36.8485 24.5826 37.5909V38.2557H17.2133V36.7557H22.3042C22.3042 36.4072 22.2284 36.0985 22.0769 35.8295C21.9254 35.5606 21.7152 35.3504 21.4462 35.1989C21.1811 35.0436 20.8724 34.9659 20.5201 34.9659C20.1527 34.9659 19.8269 35.0511 19.5428 35.2216C19.2625 35.3883 19.0428 35.6136 18.8837 35.8977C18.7247 36.178 18.6432 36.4905 18.6394 36.8352V38.2614C18.6394 38.6932 18.719 39.0663 18.8781 39.3807C19.0409 39.6951 19.2701 39.9375 19.5656 40.108C19.861 40.2784 20.2114 40.3636 20.6167 40.3636C20.8856 40.3636 21.1319 40.3258 21.3553 40.25C21.5788 40.1742 21.7701 40.0606 21.9292 39.9091C22.0883 39.7576 22.2095 39.572 22.2928 39.3523L24.5315 39.5C24.4178 40.0379 24.1849 40.5076 23.8326 40.9091C23.4841 41.3068 23.0334 41.6174 22.4803 41.8409C21.9311 42.0606 21.2966 42.1705 20.5769 42.1705ZM30.6442 33.2727V35.0909H25.3885V33.2727H30.6442ZM26.5817 31.1818H29.0022V39.3182C29.0022 39.5417 29.0362 39.7159 29.1044 39.8409C29.1726 39.9621 29.2673 40.0473 29.3885 40.0966C29.5135 40.1458 29.6575 40.1705 29.8203 40.1705C29.934 40.1705 30.0476 40.161 30.1612 40.142C30.2749 40.1193 30.362 40.1023 30.4226 40.0909L30.8033 41.892C30.6821 41.9299 30.5116 41.9735 30.2919 42.0227C30.0722 42.0758 29.8052 42.108 29.4908 42.1193C28.9075 42.142 28.3961 42.0644 27.9567 41.8864C27.5211 41.7083 27.1821 41.4318 26.9397 41.0568C26.6972 40.6818 26.5779 40.2083 26.5817 39.6364V31.1818ZM33.7825 42L31.4075 33.2727H33.8564L35.2086 39.1364H35.2882L36.6973 33.2727H39.1007L40.5325 39.1023H40.6064L41.9359 33.2727H44.3791L42.0098 42H39.4473L37.9473 36.5114H37.8393L36.3393 42H33.7825ZM49.2688 42.1705C48.3711 42.1705 47.5983 41.9886 46.9506 41.625C46.3067 41.2576 45.8105 40.7386 45.462 40.0682C45.1135 39.3939 44.9393 38.5966 44.9393 37.6761C44.9393 36.7784 45.1135 35.9905 45.462 35.3125C45.8105 34.6345 46.301 34.1061 46.9336 33.7273C47.5699 33.3485 48.3162 33.1591 49.1722 33.1591C49.748 33.1591 50.284 33.2519 50.7802 33.4375C51.2802 33.6193 51.7158 33.8939 52.087 34.2614C52.462 34.6288 52.7537 35.0909 52.962 35.6477C53.1703 36.2008 53.2745 36.8485 53.2745 37.5909V38.2557H45.9052V36.7557H50.9961C50.9961 36.4072 50.9203 36.0985 50.7688 35.8295C50.6173 35.5606 50.4071 35.3504 50.1381 35.1989C49.873 35.0436 49.5643 34.9659 49.212 34.9659C48.8446 34.9659 48.5188 35.0511 48.2347 35.2216C47.9544 35.3883 47.7347 35.6136 47.5756 35.8977C47.4165 36.178 47.3351 36.4905 47.3313 36.8352V38.2614C47.3313 38.6932 47.4108 39.0663 47.5699 39.3807C47.7328 39.6951 47.962 39.9375 48.2574 40.108C48.5529 40.2784 48.9033 40.3636 49.3086 40.3636C49.5775 40.3636 49.8237 40.3258 50.0472 40.25C50.2707 40.1742 50.462 40.0606 50.6211 39.9091C50.7802 39.7576 50.9014 39.572 50.9847 39.3523L53.2234 39.5C53.1097 40.0379 52.8768 40.5076 52.5245 40.9091C52.176 41.3068 51.7252 41.6174 51.1722 41.8409C50.623 42.0606 49.9885 42.1705 49.2688 42.1705ZM58.6713 42.1705C57.7736 42.1705 57.0009 41.9886 56.3531 41.625C55.7092 41.2576 55.213 40.7386 54.8645 40.0682C54.516 39.3939 54.3418 38.5966 54.3418 37.6761C54.3418 36.7784 54.516 35.9905 54.8645 35.3125C55.213 34.6345 55.7035 34.1061 56.3361 33.7273C56.9724 33.3485 57.7187 33.1591 58.5747 33.1591C59.1505 33.1591 59.6865 33.2519 60.1827 33.4375C60.6827 33.6193 61.1183 33.8939 61.4895 34.2614C61.8645 34.6288 62.1562 35.0909 62.3645 35.6477C62.5728 36.2008 62.677 36.8485 62.677 37.5909V38.2557H55.3077V36.7557H60.3986C60.3986 36.4072 60.3228 36.0985 60.1713 35.8295C60.0198 35.5606 59.8096 35.3504 59.5406 35.1989C59.2755 35.0436 58.9668 34.9659 58.6145 34.9659C58.2471 34.9659 57.9213 35.0511 57.6372 35.2216C57.3569 35.3883 57.1372 35.6136 56.9781 35.8977C56.819 36.178 56.7376 36.4905 56.7338 36.8352V38.2614C56.7338 38.6932 56.8134 39.0663 56.9724 39.3807C57.1353 39.6951 57.3645 39.9375 57.6599 40.108C57.9554 40.2784 58.3058 40.3636 58.7111 40.3636C58.98 40.3636 59.2262 40.3258 59.4497 40.25C59.6732 40.1742 59.8645 40.0606 60.0236 39.9091C60.1827 39.7576 60.3039 39.572 60.3872 39.3523L62.6259 39.5C62.5122 40.0379 62.2793 40.5076 61.927 40.9091C61.5785 41.3068 61.1277 41.6174 60.5747 41.8409C60.0255 42.0606 59.391 42.1705 58.6713 42.1705ZM66.517 36.9545V42H64.0965V33.2727H66.4034V34.8125H66.5056C66.6988 34.3049 67.0227 33.9034 67.4772 33.608C67.9318 33.3087 68.4829 33.1591 69.1306 33.1591C69.7367 33.1591 70.2651 33.2917 70.7159 33.5568C71.1666 33.822 71.517 34.2008 71.767 34.6932C72.017 35.1818 72.142 35.7652 72.142 36.4432V42H69.7215V36.875C69.7253 36.3409 69.589 35.9242 69.3124 35.625C69.0359 35.322 68.6552 35.1705 68.1704 35.1705C67.8446 35.1705 67.5568 35.2405 67.3068 35.3807C67.0605 35.5208 66.8674 35.7254 66.7272 35.9943C66.5909 36.2595 66.5208 36.5795 66.517 36.9545ZM84.6941 35.7614L82.4782 35.8977C82.4404 35.7083 82.3589 35.5379 82.2339 35.3864C82.1089 35.2311 81.9441 35.108 81.7396 35.017C81.5388 34.9223 81.2983 34.875 81.018 34.875C80.643 34.875 80.3267 34.9545 80.0691 35.1136C79.8116 35.2689 79.6828 35.4773 79.6828 35.7386C79.6828 35.947 79.7661 36.1231 79.9328 36.267C80.0994 36.411 80.3854 36.5265 80.7907 36.6136L82.3703 36.9318C83.2188 37.1061 83.8513 37.3864 84.268 37.7727C84.6847 38.1591 84.893 38.6667 84.893 39.2955C84.893 39.8674 84.7244 40.3693 84.3873 40.8011C84.054 41.233 83.5957 41.5701 83.0123 41.8125C82.4328 42.0511 81.7642 42.1705 81.0066 42.1705C79.8513 42.1705 78.9309 41.9299 78.2453 41.4489C77.5635 40.964 77.1638 40.3049 77.0464 39.4716L79.4271 39.3466C79.4991 39.6989 79.6733 39.9678 79.9498 40.1534C80.2263 40.3352 80.5805 40.4261 81.0123 40.4261C81.4366 40.4261 81.7775 40.3447 82.0351 40.1818C82.2964 40.0152 82.429 39.8011 82.4328 39.5398C82.429 39.3201 82.3362 39.1402 82.1544 39C81.9726 38.8561 81.6923 38.7462 81.3135 38.6705L79.8021 38.3693C78.9498 38.1989 78.3154 37.9034 77.8987 37.483C77.4858 37.0625 77.2794 36.5265 77.2794 35.875C77.2794 35.3144 77.4309 34.8314 77.7339 34.4261C78.0407 34.0208 78.4707 33.7083 79.0237 33.4886C79.5805 33.2689 80.232 33.1591 80.9782 33.1591C82.0805 33.1591 82.9479 33.392 83.5805 33.858C84.2169 34.3239 84.5881 34.9583 84.6941 35.7614ZM90.2344 42.1705C89.3367 42.1705 88.564 41.9886 87.9162 41.625C87.2723 41.2576 86.7761 40.7386 86.4276 40.0682C86.0791 39.3939 85.9049 38.5966 85.9049 37.6761C85.9049 36.7784 86.0791 35.9905 86.4276 35.3125C86.7761 34.6345 87.2666 34.1061 87.8992 33.7273C88.5356 33.3485 89.2818 33.1591 90.1378 33.1591C90.7136 33.1591 91.2496 33.2519 91.7458 33.4375C92.2458 33.6193 92.6814 33.8939 93.0526 34.2614C93.4276 34.6288 93.7193 35.0909 93.9276 35.6477C94.1359 36.2008 94.2401 36.8485 94.2401 37.5909V38.2557H86.8708V36.7557H91.9617C91.9617 36.4072 91.8859 36.0985 91.7344 35.8295C91.5829 35.5606 91.3727 35.3504 91.1037 35.1989C90.8386 35.0436 90.5299 34.9659 90.1776 34.9659C89.8102 34.9659 89.4844 35.0511 89.2003 35.2216C88.92 35.3883 88.7003 35.6136 88.5412 35.8977C88.3822 36.178 88.3007 36.4905 88.2969 36.8352V38.2614C88.2969 38.6932 88.3765 39.0663 88.5356 39.3807C88.6984 39.6951 88.9276 39.9375 89.2231 40.108C89.5185 40.2784 89.8689 40.3636 90.2742 40.3636C90.5431 40.3636 90.7894 40.3258 91.0128 40.25C91.2363 40.1742 91.4276 40.0606 91.5867 39.9091C91.7458 39.7576 91.867 39.572 91.9503 39.3523L94.189 39.5C94.0753 40.0379 93.8424 40.5076 93.4901 40.9091C93.1416 41.3068 92.6909 41.6174 92.1378 41.8409C91.5886 42.0606 90.9541 42.1705 90.2344 42.1705ZM95.6597 42V33.2727H98.0062V34.7955H98.0972C98.2562 34.2538 98.5233 33.8447 98.8983 33.5682C99.2733 33.2879 99.7051 33.1477 100.194 33.1477C100.315 33.1477 100.446 33.1553 100.586 33.1705C100.726 33.1856 100.849 33.2064 100.955 33.233V35.3807C100.841 35.3466 100.684 35.3163 100.484 35.2898C100.283 35.2633 100.099 35.25 99.9324 35.25C99.5763 35.25 99.2581 35.3277 98.9778 35.483C98.7013 35.6345 98.4816 35.8466 98.3187 36.1193C98.1597 36.392 98.0801 36.7064 98.0801 37.0625V42H95.6597ZM110.449 33.2727L107.397 42H104.67L101.619 33.2727H104.176L105.988 39.517H106.079L107.886 33.2727H110.449ZM111.527 42V33.2727H113.948V42H111.527ZM112.743 32.1477C112.383 32.1477 112.075 32.0284 111.817 31.7898C111.563 31.5473 111.436 31.2576 111.436 30.9205C111.436 30.5871 111.563 30.3011 111.817 30.0625C112.075 29.8201 112.383 29.6989 112.743 29.6989C113.103 29.6989 113.41 29.8201 113.664 30.0625C113.921 30.3011 114.05 30.5871 114.05 30.9205C114.05 31.2576 113.921 31.5473 113.664 31.7898C113.41 32.0284 113.103 32.1477 112.743 32.1477ZM119.67 42.1705C118.776 42.1705 118.007 41.9811 117.363 41.6023C116.723 41.2197 116.23 40.6894 115.886 40.0114C115.545 39.3333 115.374 38.553 115.374 37.6705C115.374 36.7765 115.547 35.9924 115.891 35.3182C116.24 34.6402 116.734 34.1117 117.374 33.733C118.014 33.3504 118.776 33.1591 119.658 33.1591C120.42 33.1591 121.086 33.2973 121.658 33.5739C122.23 33.8504 122.683 34.2386 123.016 34.7386C123.35 35.2386 123.533 35.8258 123.567 36.5H121.283C121.219 36.0644 121.048 35.714 120.772 35.4489C120.499 35.1799 120.141 35.0455 119.698 35.0455C119.323 35.0455 118.995 35.1477 118.715 35.3523C118.439 35.553 118.223 35.8466 118.067 36.233C117.912 36.6193 117.834 37.0871 117.834 37.6364C117.834 38.1932 117.91 38.6667 118.062 39.0568C118.217 39.447 118.435 39.7443 118.715 39.9489C118.995 40.1534 119.323 40.2557 119.698 40.2557C119.975 40.2557 120.223 40.1989 120.442 40.0852C120.666 39.9716 120.85 39.8068 120.994 39.5909C121.141 39.3712 121.238 39.108 121.283 38.8011H123.567C123.53 39.4678 123.348 40.0549 123.022 40.5625C122.7 41.0663 122.255 41.4602 121.687 41.7443C121.119 42.0284 120.446 42.1705 119.67 42.1705ZM128.934 42.1705C128.037 42.1705 127.264 41.9886 126.616 41.625C125.972 41.2576 125.476 40.7386 125.128 40.0682C124.779 39.3939 124.605 38.5966 124.605 37.6761C124.605 36.7784 124.779 35.9905 125.128 35.3125C125.476 34.6345 125.967 34.1061 126.599 33.7273C127.236 33.3485 127.982 33.1591 128.838 33.1591C129.414 33.1591 129.95 33.2519 130.446 33.4375C130.946 33.6193 131.381 33.8939 131.753 34.2614C132.128 34.6288 132.419 35.0909 132.628 35.6477C132.836 36.2008 132.94 36.8485 132.94 37.5909V38.2557H125.571V36.7557H130.662C130.662 36.4072 130.586 36.0985 130.434 35.8295C130.283 35.5606 130.073 35.3504 129.804 35.1989C129.539 35.0436 129.23 34.9659 128.878 34.9659C128.51 34.9659 128.184 35.0511 127.9 35.2216C127.62 35.3883 127.4 35.6136 127.241 35.8977C127.082 36.178 127.001 36.4905 126.997 36.8352V38.2614C126.997 38.6932 127.076 39.0663 127.236 39.3807C127.398 39.6951 127.628 39.9375 127.923 40.108C128.219 40.2784 128.569 40.3636 128.974 40.3636C129.243 40.3636 129.489 40.3258 129.713 40.25C129.936 40.1742 130.128 40.0606 130.287 39.9091C130.446 39.7576 130.567 39.572 130.65 39.3523L132.889 39.5C132.775 40.0379 132.542 40.5076 132.19 40.9091C131.842 41.3068 131.391 41.6174 130.838 41.8409C130.289 42.0606 129.654 42.1705 128.934 42.1705ZM141.621 35.7614L139.405 35.8977C139.367 35.7083 139.286 35.5379 139.161 35.3864C139.036 35.2311 138.871 35.108 138.666 35.017C138.466 34.9223 138.225 34.875 137.945 34.875C137.57 34.875 137.254 34.9545 136.996 35.1136C136.738 35.2689 136.61 35.4773 136.61 35.7386C136.61 35.947 136.693 36.1231 136.86 36.267C137.026 36.411 137.312 36.5265 137.718 36.6136L139.297 36.9318C140.146 37.1061 140.778 37.3864 141.195 37.7727C141.612 38.1591 141.82 38.6667 141.82 39.2955C141.82 39.8674 141.651 40.3693 141.314 40.8011C140.981 41.233 140.523 41.5701 139.939 41.8125C139.36 42.0511 138.691 42.1705 137.934 42.1705C136.778 42.1705 135.858 41.9299 135.172 41.4489C134.49 40.964 134.091 40.3049 133.973 39.4716L136.354 39.3466C136.426 39.6989 136.6 39.9678 136.877 40.1534C137.153 40.3352 137.507 40.4261 137.939 40.4261C138.363 40.4261 138.704 40.3447 138.962 40.1818C139.223 40.0152 139.356 39.8011 139.36 39.5398C139.356 39.3201 139.263 39.1402 139.081 39C138.899 38.8561 138.619 38.7462 138.24 38.6705L136.729 38.3693C135.877 38.1989 135.242 37.9034 134.826 37.483C134.413 37.0625 134.206 36.5265 134.206 35.875C134.206 35.3144 134.358 34.8314 134.661 34.4261C134.968 34.0208 135.398 33.7083 135.951 33.4886C136.507 33.2689 137.159 33.1591 137.905 33.1591C139.007 33.1591 139.875 33.392 140.507 33.858C141.144 34.3239 141.515 34.9583 141.621 35.7614Z" fill="white"/>
<path d="M4 56L14 61.7735V50.2265L4 56ZM144 56L134 50.2265V61.7735L144 56ZM13 57L135 57V55L13 55V57Z" fill="white"/>
<g filter="url(#filter0_d_15855_50157)">
<rect x="4" y="66" width="358" height="72" rx="8" fill="white" shape-rendering="crispEdges"/>
<path d="M16.8849 96V85.8182H23.6264V87.593H19.0376V90.0192H23.179V91.794H19.0376V96H16.8849ZM29.3131 92.7486V88.3636H31.431V96H29.3976V94.6129H29.3181C29.1457 95.0604 28.8591 95.42 28.458 95.6918C28.0603 95.9635 27.5747 96.0994 27.0013 96.0994C26.4909 96.0994 26.0418 95.9834 25.654 95.7514C25.2663 95.5194 24.963 95.1896 24.7442 94.7621C24.5288 94.3345 24.4194 93.8224 24.4161 93.2259V88.3636H26.534V92.848C26.5373 93.2988 26.6583 93.6551 26.8969 93.9169C27.1356 94.1787 27.4554 94.3097 27.8564 94.3097C28.1117 94.3097 28.3503 94.2517 28.5724 94.1357C28.7944 94.0163 28.9734 93.8407 29.1093 93.6087C29.2485 93.3767 29.3164 93.09 29.3131 92.7486ZM35.103 85.8182V96H32.9851V85.8182H35.103ZM38.7774 85.8182V96H36.6595V85.8182H38.7774ZM43.474 96V85.8182H47.5507C48.2998 85.8182 48.9245 85.9292 49.425 86.1513C49.9255 86.3733 50.3017 86.6816 50.5536 87.076C50.8054 87.4671 50.9314 87.9179 50.9314 88.4283C50.9314 88.826 50.8518 89.1757 50.6928 89.4773C50.5337 89.7756 50.3149 90.0208 50.0365 90.2131C49.7614 90.402 49.4465 90.5362 49.0919 90.6158V90.7152C49.4797 90.7318 49.8426 90.8411 50.1807 91.0433C50.5221 91.2455 50.7988 91.5289 51.0109 91.8935C51.2231 92.2547 51.3291 92.6856 51.3291 93.1861C51.3291 93.7263 51.1949 94.2086 50.9264 94.6328C50.6613 95.0537 50.2685 95.3868 49.7482 95.6321C49.2278 95.8774 48.5865 96 47.8241 96H43.474ZM45.6267 94.2401H47.3817C47.9816 94.2401 48.4191 94.1257 48.6942 93.897C48.9693 93.665 49.1068 93.3568 49.1068 92.9723C49.1068 92.6906 49.0389 92.442 48.903 92.2266C48.7671 92.0111 48.5732 91.8421 48.3213 91.7195C48.0727 91.5968 47.7761 91.5355 47.4314 91.5355H45.6267V94.2401ZM45.6267 90.0788H47.2226C47.5176 90.0788 47.7794 90.0275 48.0081 89.9247C48.2401 89.8187 48.4224 89.6695 48.555 89.4773C48.6909 89.285 48.7588 89.0547 48.7588 88.7862C48.7588 88.4183 48.6279 88.1217 48.3661 87.8963C48.1075 87.6709 47.7396 87.5582 47.2624 87.5582H45.6267V90.0788ZM56.0004 96.1491C55.2281 96.1491 54.5603 95.9851 53.9968 95.657C53.4367 95.3255 53.0042 94.8648 52.6992 94.2749C52.3943 93.6816 52.2419 92.9938 52.2419 92.2116C52.2419 91.4228 52.3943 90.7334 52.6992 90.1435C53.0042 89.5502 53.4367 89.0895 53.9968 88.7614C54.5603 88.4299 55.2281 88.2642 56.0004 88.2642C56.7726 88.2642 57.4388 88.4299 57.999 88.7614C58.5624 89.0895 58.9966 89.5502 59.3015 90.1435C59.6064 90.7334 59.7589 91.4228 59.7589 92.2116C59.7589 92.9938 59.6064 93.6816 59.3015 94.2749C58.9966 94.8648 58.5624 95.3255 57.999 95.657C57.4388 95.9851 56.7726 96.1491 56.0004 96.1491ZM56.0103 94.5085C56.3616 94.5085 56.655 94.4091 56.8903 94.2102C57.1256 94.008 57.3029 93.733 57.4223 93.3849C57.5449 93.0369 57.6062 92.6409 57.6062 92.1967C57.6062 91.7526 57.5449 91.3565 57.4223 91.0085C57.3029 90.6605 57.1256 90.3854 56.8903 90.1832C56.655 89.9811 56.3616 89.88 56.0103 89.88C55.6557 89.88 55.3574 89.9811 55.1154 90.1832C54.8768 90.3854 54.6962 90.6605 54.5735 91.0085C54.4542 91.3565 54.3946 91.7526 54.3946 92.1967C54.3946 92.6409 54.4542 93.0369 54.5735 93.3849C54.6962 93.733 54.8768 94.008 55.1154 94.2102C55.3574 94.4091 55.6557 94.5085 56.0103 94.5085ZM63.81 96.1243C63.2299 96.1243 62.7046 95.9751 62.234 95.6768C61.7666 95.3752 61.3954 94.9328 61.1203 94.3494C60.8485 93.7628 60.7126 93.0436 60.7126 92.1918C60.7126 91.3168 60.8535 90.5893 61.1352 90.0092C61.417 89.4259 61.7915 88.9901 62.2588 88.7017C62.7295 88.41 63.2448 88.2642 63.805 88.2642C64.2325 88.2642 64.5888 88.3371 64.8739 88.483C65.1622 88.6255 65.3942 88.8045 65.5699 89.0199C65.7489 89.232 65.8848 89.4408 65.9776 89.6463H66.0422V85.8182H68.1551V96H66.0671V94.777H65.9776C65.8781 94.9891 65.7373 95.1996 65.555 95.4084C65.376 95.6139 65.1423 95.7846 64.854 95.9205C64.5689 96.0563 64.2209 96.1243 63.81 96.1243ZM64.4811 94.4389C64.8225 94.4389 65.1109 94.3461 65.3462 94.1605C65.5848 93.9716 65.7671 93.7081 65.893 93.37C66.0223 93.032 66.0869 92.6359 66.0869 92.1818C66.0869 91.7277 66.024 91.3333 65.898 90.9986C65.7721 90.6638 65.5898 90.4053 65.3511 90.223C65.1125 90.0407 64.8225 89.9496 64.4811 89.9496C64.1331 89.9496 63.8398 90.044 63.6011 90.233C63.3625 90.4219 63.1819 90.6837 63.0592 91.0185C62.9366 91.3532 62.8753 91.741 62.8753 92.1818C62.8753 92.6259 62.9366 93.0187 63.0592 93.3601C63.1852 93.6982 63.3658 93.9633 63.6011 94.1555C63.8398 94.3445 64.1331 94.4389 64.4811 94.4389ZM71.0639 98.8636C70.7955 98.8636 70.5436 98.8421 70.3083 98.799C70.0763 98.7592 69.884 98.7079 69.7316 98.6449L70.2088 97.0639C70.4574 97.1402 70.6811 97.1816 70.88 97.1882C71.0822 97.1948 71.2562 97.1484 71.402 97.049C71.5512 96.9496 71.6721 96.7805 71.7649 96.5419L71.8892 96.2188L69.1499 88.3636H71.3772L72.9581 93.9716H73.0377L74.6336 88.3636H76.8757L73.9077 96.8253C73.7652 97.2363 73.5713 97.5942 73.326 97.8991C73.0841 98.2074 72.7775 98.4444 72.4063 98.6101C72.0351 98.7791 71.5876 98.8636 71.0639 98.8636ZM80.9596 85.8182H83.6144L86.4184 92.6591H86.5377L89.3417 85.8182H91.9965V96H89.9084V89.3729H89.8239L87.189 95.9503H85.7671L83.1321 89.348H83.0476V96H80.9596V85.8182ZM95.7679 96.1442C95.2807 96.1442 94.8465 96.0597 94.4653 95.8906C94.0842 95.7183 93.7826 95.4647 93.5605 95.13C93.3417 94.7919 93.2324 94.371 93.2324 93.8672C93.2324 93.4429 93.3103 93.0866 93.466 92.7983C93.6218 92.5099 93.8339 92.2779 94.1024 92.1023C94.3709 91.9266 94.6758 91.794 95.0172 91.7045C95.3619 91.6151 95.7231 91.5521 96.101 91.5156C96.5451 91.4692 96.9031 91.4261 97.1748 91.3864C97.4466 91.3433 97.6438 91.2803 97.7665 91.1974C97.8891 91.1146 97.9504 90.992 97.9504 90.8295V90.7997C97.9504 90.4848 97.851 90.2412 97.6521 90.0689C97.4566 89.8965 97.1782 89.8104 96.8169 89.8104C96.4357 89.8104 96.1325 89.8949 95.9071 90.0639C95.6817 90.2296 95.5326 90.4384 95.4596 90.6903L93.5008 90.5312C93.6003 90.0672 93.7958 89.6662 94.0875 89.3281C94.3792 88.9867 94.7553 88.7249 95.216 88.5426C95.6801 88.357 96.217 88.2642 96.8268 88.2642C97.2511 88.2642 97.6571 88.3139 98.0449 88.4134C98.436 88.5128 98.7823 88.6669 99.0839 88.8757C99.3889 89.0845 99.6292 89.353 99.8048 89.6811C99.9805 90.0059 100.068 90.3954 100.068 90.8494V96H98.0598V94.9411H98.0001C97.8775 95.1797 97.7134 95.3902 97.5079 95.5724C97.3024 95.7514 97.0555 95.8923 96.7672 95.995C96.4788 96.0945 96.1457 96.1442 95.7679 96.1442ZM96.3744 94.6825C96.686 94.6825 96.9611 94.6212 97.1997 94.4986C97.4383 94.3726 97.6256 94.2036 97.7615 93.9915C97.8974 93.7794 97.9653 93.5391 97.9653 93.2706V92.4602C97.899 92.5033 97.8079 92.5431 97.6919 92.5795C97.5792 92.6127 97.4516 92.6442 97.3091 92.674C97.1666 92.7005 97.024 92.7254 96.8815 92.7486C96.739 92.7685 96.6097 92.7867 96.4937 92.8033C96.2452 92.8397 96.0281 92.8977 95.8425 92.9773C95.6569 93.0568 95.5127 93.1645 95.4099 93.3004C95.3072 93.433 95.2558 93.5987 95.2558 93.7976C95.2558 94.0859 95.3602 94.3063 95.569 94.4588C95.7811 94.608 96.0496 94.6825 96.3744 94.6825ZM107.925 90.5412L105.986 90.6605C105.953 90.4948 105.882 90.3456 105.772 90.2131C105.663 90.0772 105.519 89.9695 105.34 89.8899C105.164 89.8071 104.954 89.7656 104.708 89.7656C104.38 89.7656 104.104 89.8352 103.878 89.9744C103.653 90.1103 103.54 90.2926 103.54 90.5213C103.54 90.7036 103.613 90.8577 103.759 90.9837C103.905 91.1096 104.155 91.2107 104.51 91.2869L105.892 91.5653C106.634 91.7178 107.188 91.9631 107.552 92.3011C107.917 92.6392 108.099 93.0833 108.099 93.6335C108.099 94.134 107.952 94.5732 107.657 94.951C107.365 95.3288 106.964 95.6238 106.454 95.8359C105.946 96.0447 105.361 96.1491 104.699 96.1491C103.688 96.1491 102.882 95.9387 102.282 95.5178C101.686 95.0935 101.336 94.5168 101.233 93.7876L103.316 93.6783C103.379 93.9865 103.532 94.2218 103.774 94.3842C104.016 94.5433 104.326 94.6229 104.704 94.6229C105.075 94.6229 105.373 94.5516 105.598 94.4091C105.827 94.2633 105.943 94.076 105.946 93.8473C105.943 93.6551 105.862 93.4976 105.703 93.375C105.544 93.2491 105.298 93.1529 104.967 93.0866L103.645 92.8232C102.899 92.674 102.344 92.4155 101.979 92.0476C101.618 91.6797 101.437 91.2107 101.437 90.6406C101.437 90.1501 101.57 89.7275 101.835 89.3729C102.103 89.0182 102.48 88.7448 102.963 88.5526C103.451 88.3603 104.021 88.2642 104.674 88.2642C105.638 88.2642 106.397 88.468 106.951 88.8757C107.507 89.2834 107.832 89.8385 107.925 90.5412ZM115.646 90.5412L113.708 90.6605C113.674 90.4948 113.603 90.3456 113.494 90.2131C113.384 90.0772 113.24 89.9695 113.061 89.8899C112.886 89.8071 112.675 89.7656 112.43 89.7656C112.102 89.7656 111.825 89.8352 111.6 89.9744C111.374 90.1103 111.261 90.2926 111.261 90.5213C111.261 90.7036 111.334 90.8577 111.48 90.9837C111.626 91.1096 111.876 91.2107 112.231 91.2869L113.613 91.5653C114.355 91.7178 114.909 91.9631 115.274 92.3011C115.638 92.6392 115.82 93.0833 115.82 93.6335C115.82 94.134 115.673 94.5732 115.378 94.951C115.086 95.3288 114.685 95.6238 114.175 95.8359C113.668 96.0447 113.083 96.1491 112.42 96.1491C111.409 96.1491 110.604 95.9387 110.004 95.5178C109.407 95.0935 109.057 94.5168 108.955 93.7876L111.038 93.6783C111.101 93.9865 111.253 94.2218 111.495 94.3842C111.737 94.5433 112.047 94.6229 112.425 94.6229C112.796 94.6229 113.094 94.5516 113.32 94.4091C113.548 94.2633 113.664 94.076 113.668 93.8473C113.664 93.6551 113.583 93.4976 113.424 93.375C113.265 93.2491 113.02 93.1529 112.688 93.0866L111.366 92.8232C110.62 92.674 110.065 92.4155 109.7 92.0476C109.339 91.6797 109.159 91.2107 109.159 90.6406C109.159 90.1501 109.291 89.7275 109.556 89.3729C109.825 89.0182 110.201 88.7448 110.685 88.5526C111.172 88.3603 111.742 88.2642 112.395 88.2642C113.36 88.2642 114.119 88.468 114.672 88.8757C115.229 89.2834 115.554 89.8385 115.646 90.5412ZM119.192 96.1442C118.704 96.1442 118.27 96.0597 117.889 95.8906C117.508 95.7183 117.206 95.4647 116.984 95.13C116.765 94.7919 116.656 94.371 116.656 93.8672C116.656 93.4429 116.734 93.0866 116.89 92.7983C117.046 92.5099 117.258 92.2779 117.526 92.1023C117.795 91.9266 118.1 91.794 118.441 91.7045C118.786 91.6151 119.147 91.5521 119.525 91.5156C119.969 91.4692 120.327 91.4261 120.599 91.3864C120.87 91.3433 121.068 91.2803 121.19 91.1974C121.313 91.1146 121.374 90.992 121.374 90.8295V90.7997C121.374 90.4848 121.275 90.2412 121.076 90.0689C120.88 89.8965 120.602 89.8104 120.241 89.8104C119.859 89.8104 119.556 89.8949 119.331 90.0639C119.105 90.2296 118.956 90.4384 118.883 90.6903L116.925 90.5312C117.024 90.0672 117.22 89.6662 117.511 89.3281C117.803 88.9867 118.179 88.7249 118.64 88.5426C119.104 88.357 119.641 88.2642 120.251 88.2642C120.675 88.2642 121.081 88.3139 121.469 88.4134C121.86 88.5128 122.206 88.6669 122.508 88.8757C122.813 89.0845 123.053 89.353 123.229 89.6811C123.404 90.0059 123.492 90.3954 123.492 90.8494V96H121.484V94.9411H121.424C121.301 95.1797 121.137 95.3902 120.932 95.5724C120.726 95.7514 120.479 95.8923 120.191 95.995C119.903 96.0945 119.569 96.1442 119.192 96.1442ZM119.798 94.6825C120.11 94.6825 120.385 94.6212 120.623 94.4986C120.862 94.3726 121.049 94.2036 121.185 93.9915C121.321 93.7794 121.389 93.5391 121.389 93.2706V92.4602C121.323 92.5033 121.232 92.5431 121.116 92.5795C121.003 92.6127 120.875 92.6442 120.733 92.674C120.59 92.7005 120.448 92.7254 120.305 92.7486C120.163 92.7685 120.033 92.7867 119.917 92.8033C119.669 92.8397 119.452 92.8977 119.266 92.9773C119.081 93.0568 118.936 93.1645 118.834 93.3004C118.731 93.433 118.68 93.5987 118.68 93.7976C118.68 94.0859 118.784 94.3063 118.993 94.4588C119.205 94.608 119.473 94.6825 119.798 94.6825ZM128.436 99.0227C127.749 99.0227 127.161 98.9283 126.671 98.7393C126.183 98.5537 125.796 98.3002 125.507 97.9787C125.219 97.6572 125.032 97.2959 124.945 96.8949L126.904 96.6314C126.964 96.7839 127.058 96.9264 127.188 97.0589C127.317 97.1915 127.488 97.2976 127.7 97.3771C127.915 97.46 128.177 97.5014 128.485 97.5014C128.946 97.5014 129.325 97.3887 129.624 97.1634C129.925 96.9413 130.076 96.5684 130.076 96.0447V94.6477H129.987C129.894 94.8598 129.755 95.0604 129.569 95.2493C129.383 95.4382 129.145 95.5923 128.853 95.7116C128.561 95.831 128.213 95.8906 127.809 95.8906C127.236 95.8906 126.714 95.758 126.243 95.4929C125.776 95.2244 125.403 94.8151 125.124 94.2649C124.849 93.7114 124.712 93.0121 124.712 92.1669C124.712 91.3018 124.853 90.5793 125.134 89.9993C125.416 89.4193 125.791 88.9851 126.258 88.6967C126.729 88.4084 127.244 88.2642 127.804 88.2642C128.232 88.2642 128.59 88.3371 128.878 88.483C129.166 88.6255 129.398 88.8045 129.574 89.0199C129.753 89.232 129.891 89.4408 129.987 89.6463H130.066V88.3636H132.169V96.0746C132.169 96.7242 132.01 97.2678 131.692 97.7053C131.374 98.1428 130.933 98.4709 130.369 98.6896C129.809 98.9117 129.165 99.0227 128.436 99.0227ZM128.48 94.2997C128.822 94.2997 129.11 94.2152 129.345 94.0462C129.584 93.8738 129.766 93.6286 129.892 93.3104C130.021 92.9889 130.086 92.6044 130.086 92.157C130.086 91.7095 130.023 91.3217 129.897 90.9936C129.771 90.6622 129.589 90.4053 129.35 90.223C129.112 90.0407 128.822 89.9496 128.48 89.9496C128.132 89.9496 127.839 90.044 127.6 90.233C127.362 90.4186 127.181 90.6771 127.058 91.0085C126.936 91.34 126.874 91.7228 126.874 92.157C126.874 92.5978 126.936 92.9789 127.058 93.3004C127.184 93.6186 127.365 93.8655 127.6 94.0412C127.839 94.2135 128.132 94.2997 128.48 94.2997ZM137.195 96.1491C136.409 96.1491 135.733 95.9901 135.166 95.6719C134.603 95.3504 134.169 94.8963 133.864 94.3097C133.559 93.7197 133.406 93.022 133.406 92.2166C133.406 91.4311 133.559 90.7417 133.864 90.1484C134.169 89.5552 134.598 89.0928 135.151 88.7614C135.708 88.4299 136.361 88.2642 137.11 88.2642C137.614 88.2642 138.083 88.3454 138.517 88.5078C138.955 88.6669 139.336 88.9072 139.661 89.2287C139.989 89.5502 140.244 89.9545 140.426 90.4418C140.608 90.9257 140.7 91.4924 140.7 92.142V92.7237H134.251V91.4112H138.706C138.706 91.1063 138.64 90.8362 138.507 90.6009C138.375 90.3655 138.191 90.1816 137.955 90.049C137.723 89.9131 137.453 89.8452 137.145 89.8452C136.823 89.8452 136.538 89.9197 136.29 90.0689C136.045 90.2147 135.852 90.4119 135.713 90.6605C135.574 90.9058 135.503 91.1792 135.499 91.4808V92.7287C135.499 93.1065 135.569 93.433 135.708 93.7081C135.851 93.9832 136.051 94.1953 136.31 94.3445C136.568 94.4936 136.875 94.5682 137.229 94.5682C137.465 94.5682 137.68 94.535 137.876 94.4688C138.071 94.4025 138.239 94.303 138.378 94.1705C138.517 94.0379 138.623 93.8755 138.696 93.6832L140.655 93.8125C140.555 94.2831 140.352 94.6941 140.043 95.0455C139.738 95.3935 139.344 95.6652 138.86 95.8608C138.38 96.053 137.824 96.1491 137.195 96.1491Z" fill="#7E2EBC"/>
<path d="M19.8544 119H17.0291V110.273H19.9439C20.799 110.273 21.5334 110.447 22.147 110.797C22.7607 111.143 23.2308 111.642 23.5575 112.293C23.8871 112.94 24.0518 113.717 24.0518 114.624C24.0518 115.533 23.8857 116.314 23.5533 116.967C23.2237 117.621 22.7464 118.124 22.1214 118.476C21.4964 118.825 20.7408 119 19.8544 119ZM18.3459 117.849H19.782C20.4467 117.849 20.9993 117.724 21.4396 117.474C21.88 117.222 22.2095 116.857 22.4283 116.379C22.647 115.899 22.7564 115.314 22.7564 114.624C22.7564 113.939 22.647 113.358 22.4283 112.881C22.2124 112.403 21.8899 112.041 21.4609 111.794C21.032 111.547 20.4993 111.423 19.8629 111.423H18.3459V117.849ZM27.4918 119.145C27.0771 119.145 26.7021 119.068 26.3668 118.915C26.0316 118.759 25.766 118.533 25.57 118.237C25.3768 117.942 25.2802 117.58 25.2802 117.151C25.2802 116.781 25.3512 116.477 25.4933 116.239C25.6353 116 25.8271 115.811 26.0685 115.672C26.31 115.533 26.5799 115.428 26.8782 115.357C27.1765 115.286 27.4805 115.232 27.7901 115.195C28.1822 115.149 28.5004 115.112 28.7447 115.084C28.989 115.053 29.1665 115.003 29.2773 114.935C29.3881 114.866 29.4435 114.756 29.4435 114.602V114.572C29.4435 114.2 29.3384 113.912 29.1282 113.707C28.9208 113.503 28.6112 113.401 28.1992 113.401C27.7702 113.401 27.4322 113.496 27.185 113.686C26.9407 113.874 26.7717 114.082 26.6779 114.312L25.4805 114.04C25.6225 113.642 25.8299 113.321 26.1026 113.077C26.3782 112.83 26.695 112.651 27.0529 112.54C27.4109 112.426 27.7873 112.369 28.1822 112.369C28.4435 112.369 28.7205 112.401 29.0131 112.463C29.3086 112.523 29.5842 112.634 29.8398 112.795C30.0984 112.957 30.31 113.189 30.4748 113.49C30.6396 113.788 30.7219 114.176 30.7219 114.653V119H29.4776V118.105H29.4265C29.3441 118.27 29.2205 118.432 29.0558 118.591C28.891 118.75 28.6793 118.882 28.4208 118.987C28.1623 119.092 27.8526 119.145 27.4918 119.145ZM27.7688 118.122C28.1211 118.122 28.4222 118.053 28.6722 117.913C28.9251 117.774 29.1168 117.592 29.2475 117.368C29.381 117.141 29.4478 116.898 29.4478 116.639V115.795C29.4023 115.841 29.3143 115.884 29.1836 115.923C29.0558 115.96 28.9094 115.993 28.7447 116.021C28.5799 116.047 28.4194 116.071 28.2631 116.094C28.1069 116.114 27.9762 116.131 27.8711 116.145C27.6239 116.176 27.3981 116.229 27.1935 116.303C26.9918 116.376 26.8299 116.483 26.7077 116.622C26.5884 116.759 26.5288 116.94 26.5288 117.168C26.5288 117.483 26.6452 117.722 26.8782 117.884C27.1112 118.043 27.408 118.122 27.7688 118.122ZM35.4744 112.455V113.477H31.8991V112.455H35.4744ZM32.858 110.886H34.1321V117.078C34.1321 117.325 34.169 117.511 34.2429 117.636C34.3168 117.759 34.4119 117.842 34.5284 117.888C34.6477 117.93 34.777 117.952 34.9162 117.952C35.0185 117.952 35.108 117.945 35.1847 117.93C35.2614 117.916 35.321 117.905 35.3636 117.896L35.5938 118.949C35.5199 118.977 35.4148 119.006 35.2784 119.034C35.142 119.065 34.9716 119.082 34.767 119.085C34.4318 119.091 34.1193 119.031 33.8295 118.906C33.5398 118.781 33.3054 118.588 33.1264 118.327C32.9474 118.065 32.858 117.737 32.858 117.342V110.886ZM39.6346 119.132C38.9897 119.132 38.4343 118.994 37.9684 118.719C37.5053 118.44 37.1474 118.05 36.8945 117.547C36.6445 117.041 36.5195 116.449 36.5195 115.77C36.5195 115.099 36.6445 114.509 36.8945 113.997C37.1474 113.486 37.4996 113.087 37.9513 112.8C38.4059 112.513 38.9371 112.369 39.5451 112.369C39.9144 112.369 40.2724 112.43 40.619 112.553C40.9656 112.675 41.2766 112.866 41.5522 113.128C41.8278 113.389 42.0451 113.729 42.2042 114.146C42.3633 114.561 42.4428 115.065 42.4428 115.659V116.111H37.2397V115.156H41.1942C41.1942 114.821 41.1261 114.524 40.9897 114.266C40.8533 114.004 40.6616 113.798 40.4144 113.648C40.1701 113.497 39.8832 113.422 39.5536 113.422C39.1957 113.422 38.8832 113.51 38.6161 113.686C38.3519 113.859 38.1474 114.087 38.0025 114.368C37.8604 114.646 37.7894 114.949 37.7894 115.276V116.021C37.7894 116.459 37.8661 116.831 38.0195 117.138C38.1758 117.445 38.3931 117.679 38.6715 117.841C38.9499 118 39.2752 118.08 39.6474 118.08C39.8888 118.08 40.109 118.045 40.3079 117.977C40.5067 117.906 40.6786 117.801 40.8235 117.662C40.9684 117.523 41.0792 117.351 41.1559 117.146L42.3619 117.364C42.2653 117.719 42.092 118.03 41.842 118.297C41.5948 118.561 41.2837 118.767 40.9087 118.915C40.5366 119.06 40.1119 119.132 39.6346 119.132Z" fill="#3C3C43" fill-opacity="0.6"/>
<circle cx="48" cy="115" r="1" fill="#CFD1D4"/>
<path d="M54.0753 111.406V110.273H60.8295V111.406H58.1065V119H56.794V111.406H54.0753ZM62.2198 119V112.455H63.494V119H62.2198ZM62.8633 111.445C62.6417 111.445 62.4513 111.371 62.2923 111.223C62.136 111.072 62.0579 110.893 62.0579 110.686C62.0579 110.476 62.136 110.297 62.2923 110.149C62.4513 109.999 62.6417 109.923 62.8633 109.923C63.0849 109.923 63.2738 109.999 63.43 110.149C63.5891 110.297 63.6687 110.476 63.6687 110.686C63.6687 110.893 63.5891 111.072 63.43 111.223C63.2738 111.371 63.0849 111.445 62.8633 111.445ZM65.2081 119V112.455H66.4311V113.52H66.5121C66.6484 113.159 66.8714 112.878 67.1811 112.676C67.4908 112.472 67.8615 112.369 68.2933 112.369C68.7308 112.369 69.0973 112.472 69.3928 112.676C69.6911 112.881 69.9112 113.162 70.0533 113.52H70.1214C70.2777 113.17 70.5263 112.892 70.8672 112.685C71.2081 112.474 71.6143 112.369 72.0859 112.369C72.6797 112.369 73.1641 112.555 73.5391 112.928C73.9169 113.3 74.1058 113.861 74.1058 114.611V119H72.8317V114.73C72.8317 114.287 72.7109 113.966 72.4695 113.767C72.228 113.568 71.9396 113.469 71.6044 113.469C71.1896 113.469 70.8672 113.597 70.6371 113.852C70.407 114.105 70.2919 114.43 70.2919 114.828V119H69.022V114.649C69.022 114.294 68.9112 114.009 68.6896 113.793C68.468 113.577 68.1797 113.469 67.8246 113.469C67.5831 113.469 67.3601 113.533 67.1555 113.661C66.9538 113.786 66.7905 113.96 66.6655 114.185C66.5433 114.409 66.4822 114.669 66.4822 114.964V119H65.2081ZM78.6346 119.132C77.9897 119.132 77.4343 118.994 76.9684 118.719C76.5053 118.44 76.1474 118.05 75.8945 117.547C75.6445 117.041 75.5195 116.449 75.5195 115.77C75.5195 115.099 75.6445 114.509 75.8945 113.997C76.1474 113.486 76.4996 113.087 76.9513 112.8C77.4059 112.513 77.9371 112.369 78.5451 112.369C78.9144 112.369 79.2724 112.43 79.619 112.553C79.9656 112.675 80.2766 112.866 80.5522 113.128C80.8278 113.389 81.0451 113.729 81.2042 114.146C81.3633 114.561 81.4428 115.065 81.4428 115.659V116.111H76.2397V115.156H80.1942C80.1942 114.821 80.1261 114.524 79.9897 114.266C79.8533 114.004 79.6616 113.798 79.4144 113.648C79.1701 113.497 78.8832 113.422 78.5536 113.422C78.1957 113.422 77.8832 113.51 77.6161 113.686C77.3519 113.859 77.1474 114.087 77.0025 114.368C76.8604 114.646 76.7894 114.949 76.7894 115.276V116.021C76.7894 116.459 76.8661 116.831 77.0195 117.138C77.1758 117.445 77.3931 117.679 77.6715 117.841C77.9499 118 78.2752 118.08 78.6474 118.08C78.8888 118.08 79.109 118.045 79.3079 117.977C79.5067 117.906 79.6786 117.801 79.8235 117.662C79.9684 117.523 80.0792 117.351 80.1559 117.146L81.3619 117.364C81.2653 117.719 81.092 118.03 80.842 118.297C80.5948 118.561 80.2837 118.767 79.9087 118.915C79.5366 119.06 79.1119 119.132 78.6346 119.132Z" fill="#3C3C43" fill-opacity="0.6"/>
<rect x="334" y="70" width="24" height="24" rx="4" fill="#F6F6F6"/>
<path d="M350 78L342 86M342 78L350 86" stroke="#D42F55" stroke-width="1.33333" stroke-linecap="round" stroke-linejoin="round"/>
<path d="M195.519 91.1338L209.519 83.7264C210.446 83.2362 211.554 83.2362 212.481 83.7264L226.481 91.1338C227.518 91.6825 228.167 92.7596 228.167 93.9328V110.067C228.167 111.24 227.518 112.318 226.481 112.866L212.481 120.274C211.554 120.764 210.446 120.764 209.519 120.274L195.519 112.866C194.482 112.318 193.833 111.24 193.833 110.067V93.9328C193.833 92.7596 194.482 91.6825 195.519 91.1338Z" fill="#E7E8E9" stroke="#F6F6F6" stroke-width="1.66667"/>
<path d="M217.667 109.5C217.667 108.337 217.667 107.756 217.523 107.282C217.2 106.217 216.366 105.383 215.301 105.06C214.828 104.917 214.246 104.917 213.083 104.917H208.917C207.754 104.917 207.172 104.917 206.699 105.06C205.634 105.383 204.8 106.217 204.477 107.282C204.333 107.756 204.333 108.337 204.333 109.5M214.75 98.25C214.75 100.321 213.071 102 211 102C208.929 102 207.25 100.321 207.25 98.25C207.25 96.1789 208.929 94.5 211 94.5C213.071 94.5 214.75 96.1789 214.75 98.25Z" stroke="black" stroke-width="1.66667" stroke-linecap="round" stroke-linejoin="round"/>
<path d="M236.696 106H235.298L238.439 97.2727H239.96L243.101 106H241.703L239.236 98.858H239.168L236.696 106ZM236.93 102.582H241.464V103.69H236.93V102.582ZM245.533 102.114V106H244.259V99.4545H245.482V100.52H245.563C245.713 100.173 245.949 99.8949 246.27 99.6847C246.594 99.4744 247.002 99.3693 247.493 99.3693C247.939 99.3693 248.33 99.4631 248.665 99.6506C249 99.8352 249.26 100.111 249.445 100.477C249.63 100.844 249.722 101.297 249.722 101.837V106H248.448V101.99C248.448 101.516 248.324 101.145 248.077 100.878C247.83 100.608 247.49 100.473 247.059 100.473C246.763 100.473 246.5 100.537 246.27 100.665C246.043 100.793 245.863 100.98 245.729 101.227C245.598 101.472 245.533 101.767 245.533 102.114ZM252.002 108.455C251.811 108.455 251.638 108.439 251.482 108.408C251.326 108.379 251.209 108.348 251.132 108.314L251.439 107.27C251.672 107.332 251.88 107.359 252.061 107.351C252.243 107.342 252.404 107.274 252.543 107.146C252.685 107.018 252.81 106.81 252.918 106.52L253.076 106.085L250.681 99.4545H252.044L253.702 104.534H253.77L255.428 99.4545H256.796L254.098 106.874C253.973 107.214 253.814 107.503 253.621 107.739C253.428 107.977 253.198 108.156 252.931 108.276C252.664 108.395 252.354 108.455 252.002 108.455ZM266.031 99.5653C265.986 99.1619 265.798 98.8494 265.469 98.6278C265.139 98.4034 264.724 98.2912 264.224 98.2912C263.866 98.2912 263.557 98.348 263.295 98.4616C263.034 98.5724 262.831 98.7259 262.686 98.9219C262.544 99.1151 262.473 99.3352 262.473 99.5824C262.473 99.7898 262.521 99.9687 262.618 100.119C262.717 100.27 262.847 100.396 263.006 100.499C263.168 100.598 263.341 100.682 263.526 100.75C263.71 100.815 263.888 100.869 264.058 100.912L264.911 101.134C265.189 101.202 265.474 101.294 265.767 101.411C266.06 101.527 266.331 101.68 266.581 101.871C266.831 102.061 267.033 102.297 267.186 102.578C267.342 102.859 267.42 103.196 267.42 103.588C267.42 104.082 267.293 104.521 267.037 104.905C266.784 105.288 266.416 105.591 265.933 105.812C265.453 106.034 264.872 106.145 264.19 106.145C263.537 106.145 262.972 106.041 262.494 105.834C262.017 105.626 261.643 105.332 261.374 104.952C261.104 104.568 260.955 104.114 260.926 103.588H262.247C262.273 103.903 262.375 104.166 262.554 104.376C262.736 104.584 262.967 104.739 263.249 104.841C263.533 104.94 263.844 104.99 264.182 104.99C264.554 104.99 264.885 104.932 265.175 104.815C265.467 104.696 265.697 104.531 265.865 104.321C266.033 104.108 266.116 103.859 266.116 103.575C266.116 103.317 266.043 103.105 265.895 102.94C265.75 102.776 265.553 102.639 265.303 102.531C265.055 102.423 264.776 102.328 264.463 102.246L263.432 101.964C262.733 101.774 262.179 101.494 261.77 101.125C261.364 100.756 261.161 100.267 261.161 99.6591C261.161 99.1562 261.297 98.7173 261.57 98.3423C261.842 97.9673 262.212 97.6761 262.678 97.4688C263.143 97.2585 263.669 97.1534 264.254 97.1534C264.845 97.1534 265.366 97.2571 265.818 97.4645C266.273 97.6719 266.631 97.9574 266.892 98.321C267.153 98.6818 267.29 99.0966 267.301 99.5653H266.031ZM268.892 108.455V99.4545H270.136V100.516H270.243C270.316 100.379 270.423 100.222 270.562 100.043C270.701 99.8636 270.895 99.7074 271.142 99.5739C271.389 99.4375 271.716 99.3693 272.122 99.3693C272.65 99.3693 273.122 99.5028 273.537 99.7699C273.951 100.037 274.277 100.422 274.512 100.925C274.751 101.428 274.87 102.033 274.87 102.74C274.87 103.447 274.752 104.054 274.517 104.56C274.281 105.062 273.957 105.45 273.545 105.723C273.133 105.993 272.663 106.128 272.135 106.128C271.737 106.128 271.412 106.061 271.159 105.928C270.909 105.794 270.713 105.638 270.571 105.459C270.429 105.28 270.319 105.121 270.243 104.982H270.166V108.455H268.892ZM270.14 102.727C270.14 103.187 270.207 103.591 270.341 103.938C270.474 104.284 270.667 104.555 270.92 104.751C271.173 104.945 271.483 105.041 271.849 105.041C272.23 105.041 272.548 104.94 272.804 104.739C273.059 104.534 273.252 104.257 273.383 103.908C273.517 103.558 273.583 103.165 273.583 102.727C273.583 102.295 273.518 101.908 273.387 101.564C273.26 101.22 273.066 100.949 272.808 100.75C272.552 100.551 272.233 100.452 271.849 100.452C271.48 100.452 271.167 100.547 270.912 100.737C270.659 100.928 270.467 101.193 270.336 101.534C270.206 101.875 270.14 102.273 270.14 102.727ZM279.119 106.132C278.474 106.132 277.919 105.994 277.453 105.719C276.99 105.44 276.632 105.05 276.379 104.547C276.129 104.041 276.004 103.449 276.004 102.77C276.004 102.099 276.129 101.509 276.379 100.997C276.632 100.486 276.984 100.087 277.436 99.7997C277.89 99.5128 278.422 99.3693 279.029 99.3693C279.399 99.3693 279.757 99.4304 280.103 99.5526C280.45 99.6747 280.761 99.8665 281.037 100.128C281.312 100.389 281.529 100.729 281.689 101.146C281.848 101.561 281.927 102.065 281.927 102.659V103.111H276.724V102.156H280.679C280.679 101.821 280.61 101.524 280.474 101.266C280.338 101.004 280.146 100.798 279.899 100.648C279.654 100.497 279.368 100.422 279.038 100.422C278.68 100.422 278.368 100.51 278.1 100.686C277.836 100.859 277.632 101.087 277.487 101.368C277.345 101.646 277.274 101.949 277.274 102.276V103.021C277.274 103.459 277.35 103.831 277.504 104.138C277.66 104.445 277.877 104.679 278.156 104.841C278.434 105 278.76 105.08 279.132 105.08C279.373 105.08 279.593 105.045 279.792 104.977C279.991 104.906 280.163 104.801 280.308 104.662C280.453 104.523 280.564 104.351 280.64 104.146L281.846 104.364C281.75 104.719 281.576 105.03 281.326 105.297C281.079 105.561 280.768 105.767 280.393 105.915C280.021 106.06 279.596 106.132 279.119 106.132ZM286.098 106.132C285.464 106.132 284.919 105.989 284.462 105.702C284.007 105.412 283.658 105.013 283.413 104.504C283.169 103.996 283.047 103.413 283.047 102.757C283.047 102.092 283.172 101.506 283.422 100.997C283.672 100.486 284.024 100.087 284.479 99.7997C284.933 99.5128 285.469 99.3693 286.085 99.3693C286.582 99.3693 287.026 99.4616 287.415 99.6463C287.804 99.8281 288.118 100.084 288.357 100.413C288.598 100.743 288.741 101.128 288.787 101.568H287.547C287.479 101.261 287.322 100.997 287.078 100.776C286.837 100.554 286.513 100.443 286.107 100.443C285.751 100.443 285.44 100.537 285.173 100.724C284.909 100.909 284.703 101.173 284.555 101.517C284.408 101.858 284.334 102.261 284.334 102.727C284.334 103.205 284.406 103.616 284.551 103.963C284.696 104.31 284.901 104.578 285.165 104.768C285.432 104.959 285.746 105.054 286.107 105.054C286.348 105.054 286.567 105.01 286.763 104.922C286.962 104.831 287.128 104.702 287.261 104.534C287.398 104.366 287.493 104.165 287.547 103.929H288.787C288.741 104.352 288.604 104.73 288.374 105.062C288.143 105.395 287.835 105.656 287.449 105.847C287.065 106.037 286.615 106.132 286.098 106.132ZM290.15 106V99.4545H291.424V106H290.15ZM290.793 98.4446C290.571 98.4446 290.381 98.3707 290.222 98.223C290.066 98.0724 289.988 97.8935 289.988 97.6861C289.988 97.4759 290.066 97.2969 290.222 97.1491C290.381 96.9986 290.571 96.9233 290.793 96.9233C291.015 96.9233 291.203 96.9986 291.36 97.1491C291.519 97.2969 291.598 97.4759 291.598 97.6861C291.598 97.8935 291.519 98.0724 291.36 98.223C291.203 98.3707 291.015 98.4446 290.793 98.4446ZM295.043 106.145C294.628 106.145 294.253 106.068 293.918 105.915C293.582 105.759 293.317 105.533 293.121 105.237C292.928 104.942 292.831 104.58 292.831 104.151C292.831 103.781 292.902 103.477 293.044 103.239C293.186 103 293.378 102.811 293.619 102.672C293.861 102.533 294.131 102.428 294.429 102.357C294.727 102.286 295.031 102.232 295.341 102.195C295.733 102.149 296.051 102.112 296.295 102.084C296.54 102.053 296.717 102.003 296.828 101.935C296.939 101.866 296.994 101.756 296.994 101.602V101.572C296.994 101.2 296.889 100.912 296.679 100.707C296.472 100.503 296.162 100.401 295.75 100.401C295.321 100.401 294.983 100.496 294.736 100.686C294.491 100.874 294.322 101.082 294.229 101.312L293.031 101.04C293.173 100.642 293.381 100.321 293.653 100.077C293.929 99.8295 294.246 99.6506 294.604 99.5398C294.962 99.4261 295.338 99.3693 295.733 99.3693C295.994 99.3693 296.271 99.4006 296.564 99.4631C296.859 99.5227 297.135 99.6335 297.391 99.7955C297.649 99.9574 297.861 100.189 298.026 100.49C298.19 100.788 298.273 101.176 298.273 101.653V106H297.028V105.105H296.977C296.895 105.27 296.771 105.432 296.607 105.591C296.442 105.75 296.23 105.882 295.972 105.987C295.713 106.092 295.403 106.145 295.043 106.145ZM295.32 105.122C295.672 105.122 295.973 105.053 296.223 104.913C296.476 104.774 296.668 104.592 296.798 104.368C296.932 104.141 296.999 103.898 296.999 103.639V102.795C296.953 102.841 296.865 102.884 296.734 102.923C296.607 102.96 296.46 102.993 296.295 103.021C296.131 103.047 295.97 103.071 295.814 103.094C295.658 103.114 295.527 103.131 295.422 103.145C295.175 103.176 294.949 103.229 294.744 103.303C294.543 103.376 294.381 103.483 294.259 103.622C294.139 103.759 294.08 103.94 294.08 104.168C294.08 104.483 294.196 104.722 294.429 104.884C294.662 105.043 294.959 105.122 295.32 105.122ZM301.244 97.2727V106H299.97V97.2727H301.244ZM302.958 106V99.4545H304.232V106H302.958ZM303.602 98.4446C303.38 98.4446 303.19 98.3707 303.031 98.223C302.874 98.0724 302.796 97.8935 302.796 97.6861C302.796 97.4759 302.874 97.2969 303.031 97.1491C303.19 96.9986 303.38 96.9233 303.602 96.9233C303.823 96.9233 304.012 96.9986 304.168 97.1491C304.327 97.2969 304.407 97.4759 304.407 97.6861C304.407 97.8935 304.327 98.0724 304.168 98.223C304.012 98.3707 303.823 98.4446 303.602 98.4446ZM310.851 101.053L309.696 101.257C309.648 101.109 309.571 100.969 309.466 100.835C309.364 100.702 309.225 100.592 309.049 100.507C308.873 100.422 308.652 100.379 308.388 100.379C308.027 100.379 307.726 100.46 307.485 100.622C307.243 100.781 307.123 100.987 307.123 101.24C307.123 101.459 307.203 101.635 307.365 101.768C307.527 101.902 307.789 102.011 308.15 102.097L309.189 102.335C309.792 102.474 310.24 102.689 310.536 102.979C310.831 103.268 310.979 103.645 310.979 104.108C310.979 104.5 310.865 104.849 310.638 105.156C310.414 105.46 310.1 105.699 309.696 105.872C309.296 106.045 308.831 106.132 308.303 106.132C307.57 106.132 306.972 105.976 306.509 105.663C306.046 105.348 305.762 104.901 305.657 104.321L306.888 104.134C306.965 104.455 307.123 104.697 307.361 104.862C307.6 105.024 307.911 105.105 308.294 105.105C308.712 105.105 309.046 105.018 309.296 104.845C309.546 104.669 309.671 104.455 309.671 104.202C309.671 103.997 309.594 103.825 309.441 103.686C309.29 103.547 309.059 103.442 308.746 103.371L307.638 103.128C307.027 102.989 306.576 102.767 306.283 102.463C305.993 102.159 305.848 101.774 305.848 101.308C305.848 100.922 305.956 100.584 306.172 100.294C306.388 100.004 306.686 99.7784 307.067 99.6165C307.448 99.4517 307.884 99.3693 308.375 99.3693C309.083 99.3693 309.64 99.5227 310.046 99.8295C310.452 100.134 310.721 100.541 310.851 101.053ZM315.435 99.4545V100.477H311.86V99.4545H315.435ZM312.819 97.8864H314.093V104.078C314.093 104.325 314.13 104.511 314.204 104.636C314.278 104.759 314.373 104.842 314.489 104.888C314.609 104.93 314.738 104.952 314.877 104.952C314.979 104.952 315.069 104.945 315.146 104.93C315.222 104.916 315.282 104.905 315.325 104.896L315.555 105.949C315.481 105.977 315.376 106.006 315.239 106.034C315.103 106.065 314.933 106.082 314.728 106.085C314.393 106.091 314.08 106.031 313.79 105.906C313.501 105.781 313.266 105.588 313.087 105.327C312.908 105.065 312.819 104.737 312.819 104.342V97.8864Z" fill="#7E2EBC"/>
</g>
<path d="M253.131 26.4178C253.664 26.417 254.145 26.8494 254.204 27.3837C254.263 27.918 253.879 28.3519 253.345 28.3527L253.131 26.4178ZM213.707 56.6148L210.896 45.5599L221.711 49.6957L213.707 56.6148ZM253.345 28.3527C238.061 28.3772 223.302 33.2814 216.952 48.9679L215.137 48.0826C221.854 31.4901 237.476 26.4429 253.131 26.4178L253.345 28.3527Z" fill="white"/>
<path d="M260.157 18.392V16.3636H269.714V18.392H266.151V28H263.72V18.392H260.157ZM272.383 28.1648C271.827 28.1648 271.33 28.0682 270.895 27.875C270.459 27.678 270.114 27.3883 269.861 27.0057C269.611 26.6193 269.486 26.1383 269.486 25.5625C269.486 25.0777 269.575 24.6705 269.753 24.3409C269.931 24.0114 270.173 23.7462 270.48 23.5455C270.787 23.3447 271.135 23.1932 271.525 23.0909C271.919 22.9886 272.332 22.9167 272.764 22.875C273.272 22.822 273.681 22.7727 273.991 22.7273C274.302 22.678 274.527 22.6061 274.667 22.5114C274.808 22.4167 274.878 22.2765 274.878 22.0909V22.0568C274.878 21.697 274.764 21.4186 274.537 21.2216C274.313 21.0246 273.995 20.9261 273.582 20.9261C273.147 20.9261 272.8 21.0227 272.542 21.2159C272.285 21.4053 272.114 21.6439 272.031 21.9318L269.792 21.75C269.906 21.2197 270.13 20.7614 270.463 20.375C270.796 19.9848 271.226 19.6856 271.753 19.4773C272.283 19.2652 272.897 19.1591 273.594 19.1591C274.078 19.1591 274.542 19.2159 274.986 19.3295C275.433 19.4432 275.828 19.6193 276.173 19.858C276.522 20.0966 276.796 20.4034 276.997 20.7784C277.198 21.1496 277.298 21.5947 277.298 22.1136V28H275.003V26.7898H274.935C274.794 27.0625 274.607 27.303 274.372 27.5114C274.137 27.7159 273.855 27.8769 273.525 27.9943C273.196 28.108 272.815 28.1648 272.383 28.1648ZM273.077 26.4943C273.433 26.4943 273.747 26.4242 274.02 26.2841C274.292 26.1402 274.506 25.947 274.662 25.7045C274.817 25.4621 274.895 25.1875 274.895 24.8807V23.9545C274.819 24.0038 274.715 24.0492 274.582 24.0909C274.453 24.1288 274.308 24.1648 274.145 24.1989C273.982 24.2292 273.819 24.2576 273.656 24.2841C273.493 24.3068 273.345 24.3277 273.213 24.3466C272.929 24.3883 272.681 24.4545 272.469 24.5455C272.256 24.6364 272.092 24.7595 271.974 24.9148C271.857 25.0663 271.798 25.2557 271.798 25.483C271.798 25.8125 271.917 26.0644 272.156 26.2386C272.399 26.4091 272.705 26.4943 273.077 26.4943ZM279.016 31.2727V19.2727H281.402V20.7386H281.51C281.616 20.5038 281.77 20.2652 281.971 20.0227C282.175 19.7765 282.44 19.572 282.766 19.4091C283.096 19.2424 283.505 19.1591 283.993 19.1591C284.63 19.1591 285.217 19.3258 285.755 19.6591C286.293 19.9886 286.722 20.4867 287.044 21.1534C287.366 21.8163 287.527 22.6477 287.527 23.6477C287.527 24.6212 287.37 25.4432 287.056 26.1136C286.745 26.7803 286.321 27.286 285.783 27.6307C285.249 27.9716 284.65 28.142 283.988 28.142C283.518 28.142 283.118 28.0644 282.789 27.9091C282.463 27.7538 282.196 27.5587 281.988 27.3239C281.779 27.0852 281.62 26.8447 281.51 26.6023H281.436V31.2727H279.016ZM281.385 23.6364C281.385 24.1553 281.457 24.608 281.601 24.9943C281.745 25.3807 281.953 25.6818 282.226 25.8977C282.499 26.1098 282.83 26.2159 283.221 26.2159C283.614 26.2159 283.948 26.108 284.221 25.892C284.493 25.6723 284.7 25.3693 284.84 24.983C284.984 24.5928 285.056 24.1439 285.056 23.6364C285.056 23.1326 284.986 22.6894 284.846 22.3068C284.705 21.9242 284.499 21.625 284.226 21.4091C283.953 21.1932 283.618 21.0852 283.221 21.0852C282.827 21.0852 282.493 21.1894 282.221 21.3977C281.952 21.6061 281.745 21.9015 281.601 22.2841C281.457 22.6667 281.385 23.1174 281.385 23.6364ZM297.166 19.2727V21.0909H291.91V19.2727H297.166ZM293.104 17.1818H295.524V25.3182C295.524 25.5417 295.558 25.7159 295.626 25.8409C295.695 25.9621 295.789 26.0473 295.91 26.0966C296.035 26.1458 296.179 26.1705 296.342 26.1705C296.456 26.1705 296.57 26.161 296.683 26.142C296.797 26.1193 296.884 26.1023 296.945 26.0909L297.325 27.892C297.204 27.9299 297.034 27.9735 296.814 28.0227C296.594 28.0758 296.327 28.108 296.013 28.1193C295.429 28.142 294.918 28.0644 294.479 27.8864C294.043 27.7083 293.704 27.4318 293.462 27.0568C293.219 26.6818 293.1 26.2083 293.104 25.6364V17.1818ZM302.432 28.1705C301.55 28.1705 300.786 27.983 300.143 27.608C299.502 27.2292 299.008 26.7027 298.66 26.0284C298.311 25.3504 298.137 24.5644 298.137 23.6705C298.137 22.7689 298.311 21.9811 298.66 21.3068C299.008 20.6288 299.502 20.1023 300.143 19.7273C300.786 19.3485 301.55 19.1591 302.432 19.1591C303.315 19.1591 304.076 19.3485 304.716 19.7273C305.36 20.1023 305.857 20.6288 306.205 21.3068C306.554 21.9811 306.728 22.7689 306.728 23.6705C306.728 24.5644 306.554 25.3504 306.205 26.0284C305.857 26.7027 305.36 27.2292 304.716 27.608C304.076 27.983 303.315 28.1705 302.432 28.1705ZM302.444 26.2955C302.845 26.2955 303.18 26.1818 303.449 25.9545C303.718 25.7235 303.921 25.4091 304.057 25.0114C304.197 24.6136 304.268 24.161 304.268 23.6534C304.268 23.1458 304.197 22.6932 304.057 22.2955C303.921 21.8977 303.718 21.5833 303.449 21.3523C303.18 21.1212 302.845 21.0057 302.444 21.0057C302.038 21.0057 301.697 21.1212 301.421 21.3523C301.148 21.5833 300.942 21.8977 300.802 22.2955C300.665 22.6932 300.597 23.1458 300.597 23.6534C300.597 24.161 300.665 24.6136 300.802 25.0114C300.942 25.4091 301.148 25.7235 301.421 25.9545C301.697 26.1818 302.038 26.2955 302.444 26.2955ZM318.946 21.7614L316.73 21.8977C316.692 21.7083 316.611 21.5379 316.486 21.3864C316.361 21.2311 316.196 21.108 315.992 21.017C315.791 20.9223 315.55 20.875 315.27 20.875C314.895 20.875 314.579 20.9545 314.321 21.1136C314.064 21.2689 313.935 21.4773 313.935 21.7386C313.935 21.947 314.018 22.1231 314.185 22.267C314.351 22.411 314.637 22.5265 315.043 22.6136L316.622 22.9318C317.471 23.1061 318.103 23.3864 318.52 23.7727C318.937 24.1591 319.145 24.6667 319.145 25.2955C319.145 25.8674 318.976 26.3693 318.639 26.8011C318.306 27.233 317.848 27.5701 317.264 27.8125C316.685 28.0511 316.016 28.1705 315.259 28.1705C314.103 28.1705 313.183 27.9299 312.497 27.4489C311.815 26.964 311.416 26.3049 311.298 25.4716L313.679 25.3466C313.751 25.6989 313.925 25.9678 314.202 26.1534C314.478 26.3352 314.832 26.4261 315.264 26.4261C315.689 26.4261 316.029 26.3447 316.287 26.1818C316.548 26.0152 316.681 25.8011 316.685 25.5398C316.681 25.3201 316.588 25.1402 316.406 25C316.225 24.8561 315.944 24.7462 315.565 24.6705L314.054 24.3693C313.202 24.1989 312.567 23.9034 312.151 23.483C311.738 23.0625 311.531 22.5265 311.531 21.875C311.531 21.3144 311.683 20.8314 311.986 20.4261C312.293 20.0208 312.723 19.7083 313.276 19.4886C313.832 19.2689 314.484 19.1591 315.23 19.1591C316.332 19.1591 317.2 19.392 317.832 19.858C318.469 20.3239 318.84 20.9583 318.946 21.7614ZM324.486 28.1705C323.589 28.1705 322.816 27.9886 322.168 27.625C321.524 27.2576 321.028 26.7386 320.68 26.0682C320.331 25.3939 320.157 24.5966 320.157 23.6761C320.157 22.7784 320.331 21.9905 320.68 21.3125C321.028 20.6345 321.519 20.1061 322.151 19.7273C322.788 19.3485 323.534 19.1591 324.39 19.1591C324.966 19.1591 325.502 19.2519 325.998 19.4375C326.498 19.6193 326.933 19.8939 327.305 20.2614C327.68 20.6288 327.971 21.0909 328.18 21.6477C328.388 22.2008 328.492 22.8485 328.492 23.5909V24.2557H321.123V22.7557H326.214C326.214 22.4072 326.138 22.0985 325.986 21.8295C325.835 21.5606 325.625 21.3504 325.356 21.1989C325.091 21.0436 324.782 20.9659 324.43 20.9659C324.062 20.9659 323.736 21.0511 323.452 21.2216C323.172 21.3883 322.952 21.6136 322.793 21.8977C322.634 22.178 322.553 22.4905 322.549 22.8352V24.2614C322.549 24.6932 322.628 25.0663 322.788 25.3807C322.95 25.6951 323.18 25.9375 323.475 26.108C323.77 26.2784 324.121 26.3636 324.526 26.3636C324.795 26.3636 325.041 26.3258 325.265 26.25C325.488 26.1742 325.68 26.0606 325.839 25.9091C325.998 25.7576 326.119 25.572 326.202 25.3523L328.441 25.5C328.327 26.0379 328.094 26.5076 327.742 26.9091C327.394 27.3068 326.943 27.6174 326.39 27.8409C325.841 28.0606 325.206 28.1705 324.486 28.1705ZM332.332 16.3636V28H329.912V16.3636H332.332ZM338.088 28.1705C337.191 28.1705 336.418 27.9886 335.77 27.625C335.126 27.2576 334.63 26.7386 334.281 26.0682C333.933 25.3939 333.759 24.5966 333.759 23.6761C333.759 22.7784 333.933 21.9905 334.281 21.3125C334.63 20.6345 335.12 20.1061 335.753 19.7273C336.389 19.3485 337.136 19.1591 337.992 19.1591C338.567 19.1591 339.103 19.2519 339.6 19.4375C340.1 19.6193 340.535 19.8939 340.906 20.2614C341.281 20.6288 341.573 21.0909 341.781 21.6477C341.99 22.2008 342.094 22.8485 342.094 23.5909V24.2557H334.725V22.7557H339.816C339.816 22.4072 339.74 22.0985 339.588 21.8295C339.437 21.5606 339.227 21.3504 338.958 21.1989C338.692 21.0436 338.384 20.9659 338.031 20.9659C337.664 20.9659 337.338 21.0511 337.054 21.2216C336.774 21.3883 336.554 21.6136 336.395 21.8977C336.236 22.178 336.155 22.4905 336.151 22.8352V24.2614C336.151 24.6932 336.23 25.0663 336.389 25.3807C336.552 25.6951 336.781 25.9375 337.077 26.108C337.372 26.2784 337.723 26.3636 338.128 26.3636C338.397 26.3636 338.643 26.3258 338.867 26.25C339.09 26.1742 339.281 26.0606 339.441 25.9091C339.6 25.7576 339.721 25.572 339.804 25.3523L342.043 25.5C341.929 26.0379 341.696 26.5076 341.344 26.9091C340.995 27.3068 340.545 27.6174 339.992 27.8409C339.442 28.0606 338.808 28.1705 338.088 28.1705ZM347.457 28.1705C346.563 28.1705 345.794 27.9811 345.15 27.6023C344.51 27.2197 344.017 26.6894 343.673 26.0114C343.332 25.3333 343.161 24.553 343.161 23.6705C343.161 22.7765 343.334 21.9924 343.678 21.3182C344.027 20.6402 344.521 20.1117 345.161 19.733C345.801 19.3504 346.563 19.1591 347.445 19.1591C348.207 19.1591 348.873 19.2973 349.445 19.5739C350.017 19.8504 350.47 20.2386 350.803 20.7386C351.137 21.2386 351.32 21.8258 351.354 22.5H349.07C349.006 22.0644 348.835 21.714 348.559 21.4489C348.286 21.1799 347.928 21.0455 347.485 21.0455C347.11 21.0455 346.782 21.1477 346.502 21.3523C346.226 21.553 346.01 21.8466 345.854 22.233C345.699 22.6193 345.621 23.0871 345.621 23.6364C345.621 24.1932 345.697 24.6667 345.849 25.0568C346.004 25.447 346.222 25.7443 346.502 25.9489C346.782 26.1534 347.11 26.2557 347.485 26.2557C347.762 26.2557 348.01 26.1989 348.229 26.0852C348.453 25.9716 348.637 25.8068 348.781 25.5909C348.928 25.3712 349.025 25.108 349.07 24.8011H351.354C351.317 25.4678 351.135 26.0549 350.809 26.5625C350.487 27.0663 350.042 27.4602 349.474 27.7443C348.906 28.0284 348.233 28.1705 347.457 28.1705ZM357.386 19.2727V21.0909H352.13V19.2727H357.386ZM353.324 17.1818H355.744V25.3182C355.744 25.5417 355.778 25.7159 355.846 25.8409C355.915 25.9621 356.009 26.0473 356.13 26.0966C356.255 26.1458 356.399 26.1705 356.562 26.1705C356.676 26.1705 356.79 26.161 356.903 26.142C357.017 26.1193 357.104 26.1023 357.165 26.0909L357.545 27.892C357.424 27.9299 357.254 27.9735 357.034 28.0227C356.814 28.0758 356.547 28.108 356.233 28.1193C355.649 28.142 355.138 28.0644 354.699 27.8864C354.263 27.7083 353.924 27.4318 353.682 27.0568C353.439 26.6818 353.32 26.2083 353.324 25.6364V17.1818ZM280.126 43.7102C280.08 43.2519 279.885 42.8958 279.541 42.642C279.196 42.3883 278.728 42.2614 278.137 42.2614C277.736 42.2614 277.397 42.3182 277.12 42.4318C276.844 42.5417 276.631 42.6951 276.484 42.892C276.34 43.089 276.268 43.3125 276.268 43.5625C276.26 43.7708 276.304 43.9527 276.399 44.108C276.497 44.2633 276.631 44.3977 276.802 44.5114C276.972 44.6212 277.169 44.7178 277.393 44.8011C277.616 44.8807 277.855 44.9489 278.109 45.0057L279.154 45.2557C279.662 45.3693 280.128 45.5208 280.552 45.7102C280.976 45.8996 281.344 46.1326 281.654 46.4091C281.965 46.6856 282.205 47.0114 282.376 47.3864C282.55 47.7614 282.639 48.1913 282.643 48.6761C282.639 49.3883 282.457 50.0057 282.097 50.5284C281.741 51.0473 281.226 51.4508 280.552 51.7386C279.881 52.0227 279.073 52.1648 278.126 52.1648C277.186 52.1648 276.368 52.0208 275.671 51.733C274.978 51.4451 274.436 51.0189 274.046 50.4545C273.66 49.8864 273.457 49.1837 273.438 48.3466H275.819C275.846 48.7367 275.957 49.0625 276.154 49.3239C276.355 49.5814 276.622 49.7765 276.955 49.9091C277.292 50.0379 277.673 50.1023 278.097 50.1023C278.514 50.1023 278.876 50.0417 279.183 49.9205C279.493 49.7992 279.734 49.6307 279.904 49.4148C280.075 49.1989 280.16 48.9508 280.16 48.6705C280.16 48.4091 280.082 48.1894 279.927 48.0114C279.775 47.8333 279.552 47.6818 279.256 47.5568C278.965 47.4318 278.607 47.3182 278.183 47.2159L276.916 46.8977C275.935 46.6591 275.16 46.286 274.592 45.7784C274.024 45.2708 273.741 44.5871 273.745 43.7273C273.741 43.0227 273.929 42.4072 274.308 41.8807C274.69 41.3542 275.215 40.9432 275.881 40.6477C276.548 40.3523 277.306 40.2045 278.154 40.2045C279.018 40.2045 279.772 40.3523 280.416 40.6477C281.063 40.9432 281.567 41.3542 281.927 41.8807C282.287 42.4072 282.472 43.017 282.484 43.7102H280.126ZM284.092 55.2727V43.2727H286.479V44.7386H286.587C286.693 44.5038 286.846 44.2652 287.047 44.0227C287.251 43.7765 287.516 43.572 287.842 43.4091C288.172 43.2424 288.581 43.1591 289.07 43.1591C289.706 43.1591 290.293 43.3258 290.831 43.6591C291.369 43.9886 291.799 44.4867 292.121 45.1534C292.443 45.8163 292.604 46.6477 292.604 47.6477C292.604 48.6212 292.446 49.4432 292.132 50.1136C291.821 50.7803 291.397 51.286 290.859 51.6307C290.325 51.9716 289.727 52.142 289.064 52.142C288.594 52.142 288.195 52.0644 287.865 51.9091C287.539 51.7538 287.272 51.5587 287.064 51.3239C286.855 51.0852 286.696 50.8447 286.587 50.6023H286.513V55.2727H284.092ZM286.462 47.6364C286.462 48.1553 286.534 48.608 286.677 48.9943C286.821 49.3807 287.03 49.6818 287.302 49.8977C287.575 50.1098 287.907 50.2159 288.297 50.2159C288.691 50.2159 289.024 50.108 289.297 49.892C289.57 49.6723 289.776 49.3693 289.916 48.983C290.06 48.5928 290.132 48.1439 290.132 47.6364C290.132 47.1326 290.062 46.6894 289.922 46.3068C289.782 45.9242 289.575 45.625 289.302 45.4091C289.03 45.1932 288.695 45.0852 288.297 45.0852C287.903 45.0852 287.57 45.1894 287.297 45.3977C287.028 45.6061 286.821 45.9015 286.677 46.2841C286.534 46.6667 286.462 47.1174 286.462 47.6364ZM298.035 52.1705C297.137 52.1705 296.364 51.9886 295.716 51.625C295.072 51.2576 294.576 50.7386 294.228 50.0682C293.879 49.3939 293.705 48.5966 293.705 47.6761C293.705 46.7784 293.879 45.9905 294.228 45.3125C294.576 44.6345 295.067 44.1061 295.699 43.7273C296.336 43.3485 297.082 43.1591 297.938 43.1591C298.514 43.1591 299.05 43.2519 299.546 43.4375C300.046 43.6193 300.481 43.8939 300.853 44.2614C301.228 44.6288 301.519 45.0909 301.728 45.6477C301.936 46.2008 302.04 46.8485 302.04 47.5909V48.2557H294.671V46.7557H299.762C299.762 46.4072 299.686 46.0985 299.535 45.8295C299.383 45.5606 299.173 45.3504 298.904 45.1989C298.639 45.0436 298.33 44.9659 297.978 44.9659C297.61 44.9659 297.285 45.0511 297 45.2216C296.72 45.3883 296.5 45.6136 296.341 45.8977C296.182 46.178 296.101 46.4905 296.097 46.8352V48.2614C296.097 48.6932 296.177 49.0663 296.336 49.3807C296.499 49.6951 296.728 49.9375 297.023 50.108C297.319 50.2784 297.669 50.3636 298.074 50.3636C298.343 50.3636 298.589 50.3258 298.813 50.25C299.036 50.1742 299.228 50.0606 299.387 49.9091C299.546 49.7576 299.667 49.572 299.75 49.3523L301.989 49.5C301.875 50.0379 301.642 50.5076 301.29 50.9091C300.942 51.3068 300.491 51.6174 299.938 51.8409C299.389 52.0606 298.754 52.1705 298.035 52.1705ZM307.403 52.1705C306.509 52.1705 305.74 51.9811 305.096 51.6023C304.456 51.2197 303.964 50.6894 303.619 50.0114C303.278 49.3333 303.107 48.553 303.107 47.6705C303.107 46.7765 303.28 45.9924 303.625 45.3182C303.973 44.6402 304.467 44.1117 305.107 43.733C305.748 43.3504 306.509 43.1591 307.392 43.1591C308.153 43.1591 308.82 43.2973 309.392 43.5739C309.964 43.8504 310.416 44.2386 310.75 44.7386C311.083 45.2386 311.267 45.8258 311.301 46.5H309.017C308.952 46.0644 308.782 45.714 308.505 45.4489C308.232 45.1799 307.875 45.0455 307.431 45.0455C307.056 45.0455 306.729 45.1477 306.448 45.3523C306.172 45.553 305.956 45.8466 305.801 46.233C305.645 46.6193 305.568 47.0871 305.568 47.6364C305.568 48.1932 305.643 48.6667 305.795 49.0568C305.95 49.447 306.168 49.7443 306.448 49.9489C306.729 50.1534 307.056 50.2557 307.431 50.2557C307.708 50.2557 307.956 50.1989 308.176 50.0852C308.399 49.9716 308.583 49.8068 308.727 49.5909C308.875 49.3712 308.971 49.108 309.017 48.8011H311.301C311.263 49.4678 311.081 50.0549 310.755 50.5625C310.433 51.0663 309.988 51.4602 309.42 51.7443C308.852 52.0284 308.179 52.1705 307.403 52.1705ZM312.69 52V43.2727H315.111V52H312.69ZM313.906 42.1477C313.546 42.1477 313.238 42.0284 312.98 41.7898C312.726 41.5473 312.599 41.2576 312.599 40.9205C312.599 40.5871 312.726 40.3011 312.98 40.0625C313.238 39.8201 313.546 39.6989 313.906 39.6989C314.266 39.6989 314.573 39.8201 314.827 40.0625C315.084 40.3011 315.213 40.5871 315.213 40.9205C315.213 41.2576 315.084 41.5473 314.827 41.7898C314.573 42.0284 314.266 42.1477 313.906 42.1477ZM319.378 52.1648C318.822 52.1648 318.325 52.0682 317.89 51.875C317.454 51.678 317.109 51.3883 316.856 51.0057C316.606 50.6193 316.481 50.1383 316.481 49.5625C316.481 49.0777 316.57 48.6705 316.748 48.3409C316.926 48.0114 317.168 47.7462 317.475 47.5455C317.782 47.3447 318.13 47.1932 318.52 47.0909C318.914 46.9886 319.327 46.9167 319.759 46.875C320.267 46.822 320.676 46.7727 320.986 46.7273C321.297 46.678 321.522 46.6061 321.662 46.5114C321.803 46.4167 321.873 46.2765 321.873 46.0909V46.0568C321.873 45.697 321.759 45.4186 321.532 45.2216C321.308 45.0246 320.99 44.9261 320.577 44.9261C320.142 44.9261 319.795 45.0227 319.537 45.2159C319.28 45.4053 319.109 45.6439 319.026 45.9318L316.787 45.75C316.901 45.2197 317.125 44.7614 317.458 44.375C317.791 43.9848 318.221 43.6856 318.748 43.4773C319.278 43.2652 319.892 43.1591 320.589 43.1591C321.073 43.1591 321.537 43.2159 321.981 43.3295C322.428 43.4432 322.823 43.6193 323.168 43.858C323.517 44.0966 323.791 44.4034 323.992 44.7784C324.193 45.1496 324.293 45.5947 324.293 46.1136V52H321.998V50.7898H321.93C321.789 51.0625 321.602 51.303 321.367 51.5114C321.132 51.7159 320.85 51.8769 320.52 51.9943C320.191 52.108 319.81 52.1648 319.378 52.1648ZM320.072 50.4943C320.428 50.4943 320.742 50.4242 321.015 50.2841C321.287 50.1402 321.501 49.947 321.657 49.7045C321.812 49.4621 321.89 49.1875 321.89 48.8807V47.9545C321.814 48.0038 321.71 48.0492 321.577 48.0909C321.448 48.1288 321.303 48.1648 321.14 48.1989C320.977 48.2292 320.814 48.2576 320.651 48.2841C320.488 48.3068 320.34 48.3277 320.208 48.3466C319.924 48.3883 319.676 48.4545 319.464 48.5455C319.251 48.6364 319.087 48.7595 318.969 48.9148C318.852 49.0663 318.793 49.2557 318.793 49.483C318.793 49.8125 318.912 50.0644 319.151 50.2386C319.394 50.4091 319.7 50.4943 320.072 50.4943ZM328.431 40.3636V52H326.011V40.3636H328.431ZM330.21 52V43.2727H332.631V52H330.21ZM331.426 42.1477C331.066 42.1477 330.758 42.0284 330.5 41.7898C330.246 41.5473 330.119 41.2576 330.119 40.9205C330.119 40.5871 330.246 40.3011 330.5 40.0625C330.758 39.8201 331.066 39.6989 331.426 39.6989C331.786 39.6989 332.093 39.8201 332.347 40.0625C332.604 40.3011 332.733 40.5871 332.733 40.9205C332.733 41.2576 332.604 41.5473 332.347 41.7898C332.093 42.0284 331.786 42.1477 331.426 42.1477ZM341.671 45.7614L339.455 45.8977C339.417 45.7083 339.336 45.5379 339.211 45.3864C339.086 45.2311 338.921 45.108 338.717 45.017C338.516 44.9223 338.275 44.875 337.995 44.875C337.62 44.875 337.304 44.9545 337.046 45.1136C336.789 45.2689 336.66 45.4773 336.66 45.7386C336.66 45.947 336.743 46.1231 336.91 46.267C337.076 46.411 337.362 46.5265 337.768 46.6136L339.347 46.9318C340.196 47.1061 340.828 47.3864 341.245 47.7727C341.662 48.1591 341.87 48.6667 341.87 49.2955C341.87 49.8674 341.701 50.3693 341.364 50.8011C341.031 51.233 340.573 51.5701 339.989 51.8125C339.41 52.0511 338.741 52.1705 337.984 52.1705C336.828 52.1705 335.908 51.9299 335.222 51.4489C334.54 50.964 334.141 50.3049 334.023 49.4716L336.404 49.3466C336.476 49.6989 336.65 49.9678 336.927 50.1534C337.203 50.3352 337.557 50.4261 337.989 50.4261C338.414 50.4261 338.754 50.3447 339.012 50.1818C339.273 50.0152 339.406 49.8011 339.41 49.5398C339.406 49.3201 339.313 49.1402 339.131 49C338.95 48.8561 338.669 48.7462 338.29 48.6705L336.779 48.3693C335.927 48.1989 335.292 47.9034 334.876 47.483C334.463 47.0625 334.256 46.5265 334.256 45.875C334.256 45.3144 334.408 44.8314 334.711 44.4261C335.018 44.0208 335.448 43.7083 336.001 43.4886C336.557 43.2689 337.209 43.1591 337.955 43.1591C339.057 43.1591 339.925 43.392 340.557 43.858C341.194 44.3239 341.565 44.9583 341.671 45.7614ZM347.876 43.2727V45.0909H342.62V43.2727H347.876ZM343.814 41.1818H346.234V49.3182C346.234 49.5417 346.268 49.7159 346.336 49.8409C346.405 49.9621 346.499 50.0473 346.62 50.0966C346.745 50.1458 346.889 50.1705 347.052 50.1705C347.166 50.1705 347.28 50.161 347.393 50.142C347.507 50.1193 347.594 50.1023 347.655 50.0909L348.035 51.892C347.914 51.9299 347.744 51.9735 347.524 52.0227C347.304 52.0758 347.037 52.108 346.723 52.1193C346.139 52.142 345.628 52.0644 345.189 51.8864C344.753 51.7083 344.414 51.4318 344.172 51.0568C343.929 50.6818 343.81 50.2083 343.814 49.6364V41.1818Z" fill="white"/>
<defs>
<filter id="filter0_d_15855_50157" x="0" y="62" width="366" height="80" filterUnits="userSpaceOnUse" color-interpolation-filters="sRGB">
<feFlood flood-opacity="0" result="BackgroundImageFix"/>
<feColorMatrix in="SourceAlpha" type="matrix" values="0 0 0 0 0 0 0 0 0 0 0 0 0 0 0 0 0 0 127 0" result="hardAlpha"/>
<feOffset/>
<feGaussianBlur stdDeviation="2"/>
<feComposite in2="hardAlpha" operator="out"/>
<feColorMatrix type="matrix" values="0 0 0 0 0 0 0 0 0 0 0 0 0 0 0 0 0 0 0.12 0"/>
<feBlend mode="normal" in2="BackgroundImageFix" result="effect1_dropShadow_15855_50157"/>
<feBlend mode="normal" in="SourceGraphic" in2="effect1_dropShadow_15855_50157" result="shape"/>
</filter>
</defs>
</svg>
