<svg width="218" height="155" viewBox="0 0 218 155" fill="none" xmlns="http://www.w3.org/2000/svg">
<path d="M14.0791 115.392V113.364H23.6359V115.392H20.0734V125H17.6416V115.392H14.0791ZM26.3055 125.165C25.7487 125.165 25.2525 125.068 24.8168 124.875C24.3812 124.678 24.0365 124.388 23.7828 124.006C23.5328 123.619 23.4078 123.138 23.4078 122.562C23.4078 122.078 23.4968 121.67 23.6748 121.341C23.8528 121.011 24.0953 120.746 24.4021 120.545C24.7089 120.345 25.0574 120.193 25.4475 120.091C25.8415 119.989 26.2543 119.917 26.6862 119.875C27.1937 119.822 27.6028 119.773 27.9134 119.727C28.224 119.678 28.4494 119.606 28.5896 119.511C28.7297 119.417 28.7998 119.277 28.7998 119.091V119.057C28.7998 118.697 28.6862 118.419 28.4589 118.222C28.2354 118.025 27.9172 117.926 27.5043 117.926C27.0687 117.926 26.7221 118.023 26.4646 118.216C26.207 118.405 26.0365 118.644 25.9532 118.932L23.7146 118.75C23.8282 118.22 24.0517 117.761 24.385 117.375C24.7184 116.985 25.1483 116.686 25.6748 116.477C26.2051 116.265 26.8187 116.159 27.5157 116.159C28.0006 116.159 28.4646 116.216 28.9078 116.33C29.3547 116.443 29.7506 116.619 30.0953 116.858C30.4437 117.097 30.7184 117.403 30.9191 117.778C31.1199 118.15 31.2203 118.595 31.2203 119.114V125H28.9248V123.79H28.8566C28.7165 124.062 28.529 124.303 28.2941 124.511C28.0593 124.716 27.7771 124.877 27.4475 124.994C27.118 125.108 26.7373 125.165 26.3055 125.165ZM26.9987 123.494C27.3547 123.494 27.6691 123.424 27.9418 123.284C28.2146 123.14 28.4286 122.947 28.5839 122.705C28.7392 122.462 28.8168 122.187 28.8168 121.881V120.955C28.7411 121.004 28.6369 121.049 28.5043 121.091C28.3756 121.129 28.2297 121.165 28.0668 121.199C27.904 121.229 27.7411 121.258 27.5782 121.284C27.4153 121.307 27.2676 121.328 27.135 121.347C26.8509 121.388 26.6028 121.455 26.3907 121.545C26.1786 121.636 26.0138 121.759 25.8964 121.915C25.779 122.066 25.7203 122.256 25.7203 122.483C25.7203 122.812 25.8396 123.064 26.0782 123.239C26.3206 123.409 26.6275 123.494 26.9987 123.494ZM32.9381 128.273V116.273H35.3245V117.739H35.4324C35.5385 117.504 35.6919 117.265 35.8926 117.023C36.0972 116.777 36.3623 116.572 36.6881 116.409C37.0176 116.242 37.4267 116.159 37.9154 116.159C38.5517 116.159 39.1389 116.326 39.6767 116.659C40.2146 116.989 40.6445 117.487 40.9665 118.153C41.2885 118.816 41.4495 119.648 41.4495 120.648C41.4495 121.621 41.2923 122.443 40.9779 123.114C40.6673 123.78 40.243 124.286 39.7051 124.631C39.1711 124.972 38.5726 125.142 37.9097 125.142C37.44 125.142 37.0404 125.064 36.7108 124.909C36.3851 124.754 36.118 124.559 35.9097 124.324C35.7014 124.085 35.5423 123.845 35.4324 123.602H35.3586V128.273H32.9381ZM35.3074 120.636C35.3074 121.155 35.3794 121.608 35.5233 121.994C35.6673 122.381 35.8756 122.682 36.1483 122.898C36.4211 123.11 36.7525 123.216 37.1426 123.216C37.5366 123.216 37.8699 123.108 38.1426 122.892C38.4154 122.672 38.6218 122.369 38.762 121.983C38.9059 121.593 38.9779 121.144 38.9779 120.636C38.9779 120.133 38.9078 119.689 38.7676 119.307C38.6275 118.924 38.4211 118.625 38.1483 118.409C37.8756 118.193 37.5404 118.085 37.1426 118.085C36.7487 118.085 36.4154 118.189 36.1426 118.398C35.8737 118.606 35.6673 118.902 35.5233 119.284C35.3794 119.667 35.3074 120.117 35.3074 120.636ZM51.0883 116.273V118.091H45.8326V116.273H51.0883ZM47.0258 114.182H49.4462V122.318C49.4462 122.542 49.4803 122.716 49.5485 122.841C49.6167 122.962 49.7114 123.047 49.8326 123.097C49.9576 123.146 50.1015 123.17 50.2644 123.17C50.378 123.17 50.4917 123.161 50.6053 123.142C50.7189 123.119 50.8061 123.102 50.8667 123.091L51.2474 124.892C51.1261 124.93 50.9557 124.973 50.736 125.023C50.5163 125.076 50.2493 125.108 49.9349 125.119C49.3515 125.142 48.8402 125.064 48.4008 124.886C47.9652 124.708 47.6261 124.432 47.3837 124.057C47.1413 123.682 47.022 123.208 47.0258 122.636V114.182ZM56.3544 125.17C55.4718 125.17 54.7086 124.983 54.0646 124.608C53.4245 124.229 52.9302 123.703 52.5817 123.028C52.2332 122.35 52.0589 121.564 52.0589 120.67C52.0589 119.769 52.2332 118.981 52.5817 118.307C52.9302 117.629 53.4245 117.102 54.0646 116.727C54.7086 116.348 55.4718 116.159 56.3544 116.159C57.237 116.159 57.9983 116.348 58.6385 116.727C59.2824 117.102 59.7786 117.629 60.1271 118.307C60.4756 118.981 60.6499 119.769 60.6499 120.67C60.6499 121.564 60.4756 122.35 60.1271 123.028C59.7786 123.703 59.2824 124.229 58.6385 124.608C57.9983 124.983 57.237 125.17 56.3544 125.17ZM56.3658 123.295C56.7673 123.295 57.1025 123.182 57.3714 122.955C57.6404 122.723 57.843 122.409 57.9794 122.011C58.1196 121.614 58.1896 121.161 58.1896 120.653C58.1896 120.146 58.1196 119.693 57.9794 119.295C57.843 118.898 57.6404 118.583 57.3714 118.352C57.1025 118.121 56.7673 118.006 56.3658 118.006C55.9605 118.006 55.6196 118.121 55.343 118.352C55.0703 118.583 54.8639 118.898 54.7237 119.295C54.5874 119.693 54.5192 120.146 54.5192 120.653C54.5192 121.161 54.5874 121.614 54.7237 122.011C54.8639 122.409 55.0703 122.723 55.343 122.955C55.6196 123.182 55.9605 123.295 56.3658 123.295ZM68.0955 125.165C67.5387 125.165 67.0425 125.068 66.6068 124.875C66.1712 124.678 65.8265 124.388 65.5728 124.006C65.3228 123.619 65.1978 123.138 65.1978 122.562C65.1978 122.078 65.2868 121.67 65.4648 121.341C65.6428 121.011 65.8853 120.746 66.1921 120.545C66.4989 120.345 66.8474 120.193 67.2375 120.091C67.6315 119.989 68.0443 119.917 68.4762 119.875C68.9837 119.822 69.3928 119.773 69.7034 119.727C70.014 119.678 70.2394 119.606 70.3796 119.511C70.5197 119.417 70.5898 119.277 70.5898 119.091V119.057C70.5898 118.697 70.4762 118.419 70.2489 118.222C70.0254 118.025 69.7072 117.926 69.2943 117.926C68.8587 117.926 68.5121 118.023 68.2546 118.216C67.997 118.405 67.8265 118.644 67.7432 118.932L65.5046 118.75C65.6182 118.22 65.8417 117.761 66.175 117.375C66.5084 116.985 66.9383 116.686 67.4648 116.477C67.9951 116.265 68.6087 116.159 69.3057 116.159C69.7906 116.159 70.2546 116.216 70.6978 116.33C71.1447 116.443 71.5406 116.619 71.8853 116.858C72.2337 117.097 72.5084 117.403 72.7091 117.778C72.9099 118.15 73.0103 118.595 73.0103 119.114V125H70.7148V123.79H70.6466C70.5065 124.062 70.319 124.303 70.0841 124.511C69.8493 124.716 69.5671 124.877 69.2375 124.994C68.908 125.108 68.5273 125.165 68.0955 125.165ZM68.7887 123.494C69.1447 123.494 69.4591 123.424 69.7318 123.284C70.0046 123.14 70.2186 122.947 70.3739 122.705C70.5292 122.462 70.6068 122.187 70.6068 121.881V120.955C70.5311 121.004 70.4269 121.049 70.2943 121.091C70.1656 121.129 70.0197 121.165 69.8568 121.199C69.694 121.229 69.5311 121.258 69.3682 121.284C69.2053 121.307 69.0576 121.328 68.925 121.347C68.6409 121.388 68.3928 121.455 68.1807 121.545C67.9686 121.636 67.8038 121.759 67.6864 121.915C67.569 122.066 67.5103 122.256 67.5103 122.483C67.5103 122.812 67.6296 123.064 67.8682 123.239C68.1106 123.409 68.4175 123.494 68.7887 123.494ZM77.944 125.142C77.2811 125.142 76.6808 124.972 76.1429 124.631C75.6088 124.286 75.1845 123.78 74.8701 123.114C74.5595 122.443 74.4042 121.621 74.4042 120.648C74.4042 119.648 74.5652 118.816 74.8872 118.153C75.2092 117.487 75.6372 116.989 76.1713 116.659C76.7092 116.326 77.2982 116.159 77.9383 116.159C78.427 116.159 78.8342 116.242 79.1599 116.409C79.4895 116.572 79.7546 116.777 79.9554 117.023C80.1599 117.265 80.3152 117.504 80.4213 117.739H80.4951V113.364H82.9099V125H80.5236V123.602H80.4213C80.3076 123.845 80.1467 124.085 79.9383 124.324C79.7338 124.559 79.4667 124.754 79.1372 124.909C78.8114 125.064 78.4137 125.142 77.944 125.142ZM78.7111 123.216C79.1012 123.216 79.4308 123.11 79.6997 122.898C79.9724 122.682 80.1808 122.381 80.3247 121.994C80.4724 121.608 80.5463 121.155 80.5463 120.636C80.5463 120.117 80.4743 119.667 80.3304 119.284C80.1864 118.902 79.9781 118.606 79.7054 118.398C79.4326 118.189 79.1012 118.085 78.7111 118.085C78.3133 118.085 77.9781 118.193 77.7054 118.409C77.4326 118.625 77.2262 118.924 77.0861 119.307C76.9459 119.689 76.8758 120.133 76.8758 120.636C76.8758 121.144 76.9459 121.593 77.0861 121.983C77.23 122.369 77.4364 122.672 77.7054 122.892C77.9781 123.108 78.3133 123.216 78.7111 123.216ZM87.9559 125.142C87.293 125.142 86.6926 124.972 86.1547 124.631C85.6207 124.286 85.1964 123.78 84.882 123.114C84.5714 122.443 84.4161 121.621 84.4161 120.648C84.4161 119.648 84.5771 118.816 84.8991 118.153C85.221 117.487 85.6491 116.989 86.1832 116.659C86.721 116.326 87.31 116.159 87.9502 116.159C88.4388 116.159 88.846 116.242 89.1718 116.409C89.5013 116.572 89.7665 116.777 89.9672 117.023C90.1718 117.265 90.3271 117.504 90.4332 117.739H90.507V113.364H92.9218V125H90.5354V123.602H90.4332C90.3195 123.845 90.1585 124.085 89.9502 124.324C89.7457 124.559 89.4786 124.754 89.1491 124.909C88.8233 125.064 88.4256 125.142 87.9559 125.142ZM88.7229 123.216C89.1131 123.216 89.4426 123.11 89.7116 122.898C89.9843 122.682 90.1926 122.381 90.3366 121.994C90.4843 121.608 90.5582 121.155 90.5582 120.636C90.5582 120.117 90.4862 119.667 90.3422 119.284C90.1983 118.902 89.99 118.606 89.7172 118.398C89.4445 118.189 89.1131 118.085 88.7229 118.085C88.3252 118.085 87.99 118.193 87.7172 118.409C87.4445 118.625 87.2381 118.924 87.0979 119.307C86.9578 119.689 86.8877 120.133 86.8877 120.636C86.8877 121.144 86.9578 121.593 87.0979 121.983C87.2419 122.369 87.4483 122.672 87.7172 122.892C87.99 123.108 88.3252 123.216 88.7229 123.216ZM1.25403 149V140.273H3.56085V141.812H3.66312C3.84494 141.301 4.14797 140.898 4.57222 140.602C4.99646 140.307 5.50403 140.159 6.09494 140.159C6.69343 140.159 7.2029 140.309 7.62335 140.608C8.04381 140.903 8.32411 141.305 8.46426 141.812H8.55517C8.7332 141.312 9.05517 140.913 9.52108 140.614C9.99078 140.311 10.5457 140.159 11.1859 140.159C12.0002 140.159 12.6612 140.419 13.1688 140.938C13.6802 141.453 13.9359 142.184 13.9359 143.131V149H11.5211V143.608C11.5211 143.123 11.3923 142.759 11.1347 142.517C10.8771 142.275 10.5552 142.153 10.1688 142.153C9.72941 142.153 9.38661 142.294 9.1404 142.574C8.89419 142.85 8.77108 143.216 8.77108 143.67V149H6.42449V143.557C6.42449 143.129 6.30138 142.788 6.05517 142.534C5.81275 142.28 5.49267 142.153 5.09494 142.153C4.826 142.153 4.58358 142.222 4.36767 142.358C4.15555 142.491 3.98699 142.678 3.86199 142.92C3.73699 143.159 3.67449 143.439 3.67449 143.761V149H1.25403ZM19.631 149.17C18.7484 149.17 17.9851 148.983 17.3412 148.608C16.701 148.229 16.2067 147.703 15.8582 147.028C15.5098 146.35 15.3355 145.564 15.3355 144.67C15.3355 143.769 15.5098 142.981 15.8582 142.307C16.2067 141.629 16.701 141.102 17.3412 140.727C17.9851 140.348 18.7484 140.159 19.631 140.159C20.5135 140.159 21.2749 140.348 21.9151 140.727C22.559 141.102 23.0552 141.629 23.4037 142.307C23.7522 142.981 23.9264 143.769 23.9264 144.67C23.9264 145.564 23.7522 146.35 23.4037 147.028C23.0552 147.703 22.559 148.229 21.9151 148.608C21.2749 148.983 20.5135 149.17 19.631 149.17ZM19.6423 147.295C20.0438 147.295 20.3791 147.182 20.648 146.955C20.917 146.723 21.1196 146.409 21.256 146.011C21.3961 145.614 21.4662 145.161 21.4662 144.653C21.4662 144.146 21.3961 143.693 21.256 143.295C21.1196 142.898 20.917 142.583 20.648 142.352C20.3791 142.121 20.0438 142.006 19.6423 142.006C19.237 142.006 18.8961 142.121 18.6196 142.352C18.3469 142.583 18.1404 142.898 18.0003 143.295C17.8639 143.693 17.7957 144.146 17.7957 144.653C17.7957 145.161 17.8639 145.614 18.0003 146.011C18.1404 146.409 18.3469 146.723 18.6196 146.955C18.8961 147.182 19.237 147.295 19.6423 147.295ZM25.3403 149V140.273H27.6869V141.795H27.7778C27.9369 141.254 28.2039 140.845 28.5789 140.568C28.9539 140.288 29.3857 140.148 29.8744 140.148C29.9956 140.148 30.1263 140.155 30.2664 140.17C30.4066 140.186 30.5297 140.206 30.6357 140.233V142.381C30.5221 142.347 30.3649 142.316 30.1641 142.29C29.9634 142.263 29.7797 142.25 29.613 142.25C29.257 142.25 28.9388 142.328 28.6585 142.483C28.382 142.634 28.1623 142.847 27.9994 143.119C27.8403 143.392 27.7607 143.706 27.7607 144.062V149H25.3403ZM35.2982 149.17C34.4005 149.17 33.6277 148.989 32.98 148.625C32.3361 148.258 31.8398 147.739 31.4914 147.068C31.1429 146.394 30.9686 145.597 30.9686 144.676C30.9686 143.778 31.1429 142.991 31.4914 142.312C31.8398 141.634 32.3304 141.106 32.963 140.727C33.5993 140.348 34.3455 140.159 35.2016 140.159C35.7773 140.159 36.3133 140.252 36.8095 140.438C37.3095 140.619 37.7452 140.894 38.1164 141.261C38.4914 141.629 38.783 142.091 38.9914 142.648C39.1997 143.201 39.3039 143.848 39.3039 144.591V145.256H31.9345V143.756H37.0255C37.0255 143.407 36.9497 143.098 36.7982 142.83C36.6467 142.561 36.4364 142.35 36.1675 142.199C35.9023 142.044 35.5936 141.966 35.2414 141.966C34.8739 141.966 34.5482 142.051 34.2641 142.222C33.9838 142.388 33.7641 142.614 33.605 142.898C33.4459 143.178 33.3645 143.491 33.3607 143.835V145.261C33.3607 145.693 33.4402 146.066 33.5993 146.381C33.7622 146.695 33.9914 146.938 34.2868 147.108C34.5823 147.278 34.9327 147.364 35.338 147.364C35.6069 147.364 35.8531 147.326 36.0766 147.25C36.3001 147.174 36.4914 147.061 36.6505 146.909C36.8095 146.758 36.9308 146.572 37.0141 146.352L39.2527 146.5C39.1391 147.038 38.9061 147.508 38.5539 147.909C38.2054 148.307 37.7546 148.617 37.2016 148.841C36.6523 149.061 36.0179 149.17 35.2982 149.17ZM50.6245 140.71C50.579 140.252 50.384 139.896 50.0393 139.642C49.6946 139.388 49.2268 139.261 48.6359 139.261C48.2343 139.261 47.8953 139.318 47.6188 139.432C47.3423 139.542 47.1302 139.695 46.9824 139.892C46.8385 140.089 46.7665 140.312 46.7665 140.562C46.759 140.771 46.8025 140.953 46.8972 141.108C46.9957 141.263 47.1302 141.398 47.3006 141.511C47.4711 141.621 47.668 141.718 47.8915 141.801C48.115 141.881 48.3537 141.949 48.6074 142.006L49.6529 142.256C50.1605 142.369 50.6264 142.521 51.0506 142.71C51.4749 142.9 51.8423 143.133 52.1529 143.409C52.4635 143.686 52.704 144.011 52.8745 144.386C53.0487 144.761 53.1377 145.191 53.1415 145.676C53.1377 146.388 52.9559 147.006 52.5961 147.528C52.24 148.047 51.7249 148.451 51.0506 148.739C50.3802 149.023 49.5715 149.165 48.6245 149.165C47.6851 149.165 46.8669 149.021 46.1699 148.733C45.4768 148.445 44.9351 148.019 44.5449 147.455C44.1586 146.886 43.9559 146.184 43.937 145.347H46.3177C46.3442 145.737 46.4559 146.062 46.6529 146.324C46.8537 146.581 47.1207 146.777 47.454 146.909C47.7912 147.038 48.1718 147.102 48.5961 147.102C49.0127 147.102 49.3745 147.042 49.6813 146.92C49.9919 146.799 50.2324 146.631 50.4029 146.415C50.5734 146.199 50.6586 145.951 50.6586 145.67C50.6586 145.409 50.5809 145.189 50.4256 145.011C50.2741 144.833 50.0506 144.682 49.7552 144.557C49.4635 144.432 49.1055 144.318 48.6813 144.216L47.4143 143.898C46.4332 143.659 45.6586 143.286 45.0904 142.778C44.5222 142.271 44.24 141.587 44.2438 140.727C44.24 140.023 44.4275 139.407 44.8063 138.881C45.1889 138.354 45.7135 137.943 46.3802 137.648C47.0468 137.352 47.8044 137.205 48.6529 137.205C49.5165 137.205 50.2703 137.352 50.9143 137.648C51.562 137.943 52.0658 138.354 52.4256 138.881C52.7855 139.407 52.9711 140.017 52.9824 140.71H50.6245ZM58.5682 149.17C57.6705 149.17 56.8977 148.989 56.25 148.625C55.6061 148.258 55.1098 147.739 54.7614 147.068C54.4129 146.394 54.2386 145.597 54.2386 144.676C54.2386 143.778 54.4129 142.991 54.7614 142.312C55.1098 141.634 55.6004 141.106 56.233 140.727C56.8693 140.348 57.6155 140.159 58.4716 140.159C59.0473 140.159 59.5833 140.252 60.0795 140.438C60.5795 140.619 61.0152 140.894 61.3864 141.261C61.7614 141.629 62.053 142.091 62.2614 142.648C62.4697 143.201 62.5739 143.848 62.5739 144.591V145.256H55.2045V143.756H60.2955C60.2955 143.407 60.2197 143.098 60.0682 142.83C59.9167 142.561 59.7064 142.35 59.4375 142.199C59.1723 142.044 58.8636 141.966 58.5114 141.966C58.1439 141.966 57.8182 142.051 57.5341 142.222C57.2538 142.388 57.0341 142.614 56.875 142.898C56.7159 143.178 56.6345 143.491 56.6307 143.835V145.261C56.6307 145.693 56.7102 146.066 56.8693 146.381C57.0322 146.695 57.2614 146.938 57.5568 147.108C57.8523 147.278 58.2027 147.364 58.608 147.364C58.8769 147.364 59.1231 147.326 59.3466 147.25C59.5701 147.174 59.7614 147.061 59.9205 146.909C60.0795 146.758 60.2008 146.572 60.2841 146.352L62.5227 146.5C62.4091 147.038 62.1761 147.508 61.8239 147.909C61.4754 148.307 61.0246 148.617 60.4716 148.841C59.9223 149.061 59.2879 149.17 58.5682 149.17ZM63.9934 149V140.273H66.34V141.795H66.4309C66.59 141.254 66.857 140.845 67.232 140.568C67.607 140.288 68.0389 140.148 68.5275 140.148C68.6487 140.148 68.7794 140.155 68.9195 140.17C69.0597 140.186 69.1828 140.206 69.2889 140.233V142.381C69.1752 142.347 69.018 142.316 68.8173 142.29C68.6165 142.263 68.4328 142.25 68.2661 142.25C67.9101 142.25 67.5919 142.328 67.3116 142.483C67.0351 142.634 66.8154 142.847 66.6525 143.119C66.4934 143.392 66.4139 143.706 66.4139 144.062V149H63.9934ZM78.7823 140.273L75.7311 149H73.0039L69.9527 140.273H72.5095L74.322 146.517H74.413L76.2198 140.273H78.7823ZM79.8609 149V140.273H82.2814V149H79.8609ZM81.0768 139.148C80.717 139.148 80.4083 139.028 80.1507 138.79C79.8969 138.547 79.77 138.258 79.77 137.92C79.77 137.587 79.8969 137.301 80.1507 137.062C80.4083 136.82 80.717 136.699 81.0768 136.699C81.4367 136.699 81.7435 136.82 81.9973 137.062C82.2548 137.301 82.3836 137.587 82.3836 137.92C82.3836 138.258 82.2548 138.547 81.9973 138.79C81.7435 139.028 81.4367 139.148 81.0768 139.148ZM88.0035 149.17C87.1095 149.17 86.3406 148.981 85.6966 148.602C85.0565 148.22 84.5641 147.689 84.2194 147.011C83.8785 146.333 83.708 145.553 83.708 144.67C83.708 143.777 83.8804 142.992 84.2251 142.318C84.5735 141.64 85.0679 141.112 85.708 140.733C86.3482 140.35 87.1095 140.159 87.9921 140.159C88.7535 140.159 89.4201 140.297 89.9921 140.574C90.5641 140.85 91.0167 141.239 91.3501 141.739C91.6834 142.239 91.8671 142.826 91.9012 143.5H89.6171C89.5527 143.064 89.3823 142.714 89.1057 142.449C88.833 142.18 88.4751 142.045 88.0319 142.045C87.6569 142.045 87.3292 142.148 87.0489 142.352C86.7724 142.553 86.5565 142.847 86.4012 143.233C86.2459 143.619 86.1682 144.087 86.1682 144.636C86.1682 145.193 86.244 145.667 86.3955 146.057C86.5508 146.447 86.7686 146.744 87.0489 146.949C87.3292 147.153 87.6569 147.256 88.0319 147.256C88.3084 147.256 88.5565 147.199 88.7762 147.085C88.9997 146.972 89.1834 146.807 89.3273 146.591C89.4751 146.371 89.5716 146.108 89.6171 145.801H91.9012C91.8633 146.468 91.6815 147.055 91.3557 147.562C91.0338 148.066 90.5887 148.46 90.0205 148.744C89.4523 149.028 88.78 149.17 88.0035 149.17ZM97.2682 149.17C96.3705 149.17 95.5977 148.989 94.95 148.625C94.3061 148.258 93.8098 147.739 93.4614 147.068C93.1129 146.394 92.9386 145.597 92.9386 144.676C92.9386 143.778 93.1129 142.991 93.4614 142.312C93.8098 141.634 94.3004 141.106 94.933 140.727C95.5693 140.348 96.3155 140.159 97.1716 140.159C97.7473 140.159 98.2833 140.252 98.7795 140.438C99.2795 140.619 99.7151 140.894 100.086 141.261C100.461 141.629 100.753 142.091 100.961 142.648C101.17 143.201 101.274 143.848 101.274 144.591V145.256H93.9045V143.756H98.9955C98.9955 143.407 98.9197 143.098 98.7682 142.83C98.6167 142.561 98.4064 142.35 98.1375 142.199C97.8723 142.044 97.5636 141.966 97.2114 141.966C96.8439 141.966 96.5182 142.051 96.2341 142.222C95.9538 142.388 95.7341 142.614 95.575 142.898C95.4159 143.178 95.3345 143.491 95.3307 143.835V145.261C95.3307 145.693 95.4102 146.066 95.5693 146.381C95.7322 146.695 95.9614 146.938 96.2568 147.108C96.5523 147.278 96.9026 147.364 97.308 147.364C97.5769 147.364 97.8231 147.326 98.0466 147.25C98.2701 147.174 98.4614 147.061 98.6205 146.909C98.7795 146.758 98.9008 146.572 98.9841 146.352L101.223 146.5C101.109 147.038 100.876 147.508 100.524 147.909C100.175 148.307 99.7246 148.617 99.1716 148.841C98.6223 149.061 97.9879 149.17 97.2682 149.17ZM109.955 142.761L107.739 142.898C107.701 142.708 107.62 142.538 107.495 142.386C107.37 142.231 107.205 142.108 107 142.017C106.799 141.922 106.559 141.875 106.279 141.875C105.904 141.875 105.587 141.955 105.33 142.114C105.072 142.269 104.943 142.477 104.943 142.739C104.943 142.947 105.027 143.123 105.193 143.267C105.36 143.411 105.646 143.527 106.051 143.614L107.631 143.932C108.479 144.106 109.112 144.386 109.529 144.773C109.945 145.159 110.154 145.667 110.154 146.295C110.154 146.867 109.985 147.369 109.648 147.801C109.315 148.233 108.856 148.57 108.273 148.812C107.693 149.051 107.025 149.17 106.267 149.17C105.112 149.17 104.192 148.93 103.506 148.449C102.824 147.964 102.424 147.305 102.307 146.472L104.688 146.347C104.76 146.699 104.934 146.968 105.21 147.153C105.487 147.335 105.841 147.426 106.273 147.426C106.697 147.426 107.038 147.345 107.296 147.182C107.557 147.015 107.69 146.801 107.693 146.54C107.69 146.32 107.597 146.14 107.415 146C107.233 145.856 106.953 145.746 106.574 145.67L105.063 145.369C104.21 145.199 103.576 144.903 103.159 144.483C102.746 144.062 102.54 143.527 102.54 142.875C102.54 142.314 102.692 141.831 102.995 141.426C103.301 141.021 103.731 140.708 104.284 140.489C104.841 140.269 105.493 140.159 106.239 140.159C107.341 140.159 108.209 140.392 108.841 140.858C109.478 141.324 109.849 141.958 109.955 142.761Z" fill="white"/>
<path d="M206 8V16M202 12H210M216 12C216 17.5228 211.523 22 206 22C200.477 22 196 17.5228 196 12C196 6.47715 200.477 2 206 2C211.523 2 216 6.47715 216 12Z" stroke="white" stroke-width="2" stroke-linecap="round" stroke-linejoin="round"/>
<path d="M120.659 129.984C120.114 130.084 119.601 129.725 119.513 129.182C119.425 128.639 119.796 128.117 120.341 128.016L120.659 129.984ZM206 28.2658L211.201 38.4556L199.675 38.07L206 28.2658ZM120.341 128.016C172.419 118.423 200.492 73.6415 204.501 37.1777L206.488 37.3515C202.404 74.5047 173.814 120.192 120.659 129.984L120.341 128.016Z" fill="white"/>
</svg>
