<svg width="114" height="120" viewBox="0 0 114 120" fill="none" xmlns="http://www.w3.org/2000/svg">
<path d="M6 0L0.226497 10H11.7735L6 0ZM6 120L11.7735 110H0.226497L6 120ZM5 9V111H7V9H5Z" fill="white"/>
<path d="M21.3239 45.7102C21.2784 45.2519 21.0833 44.8958 20.7386 44.642C20.3939 44.3883 19.9261 44.2614 19.3352 44.2614C18.9337 44.2614 18.5947 44.3182 18.3182 44.4318C18.0417 44.5417 17.8295 44.6951 17.6818 44.892C17.5379 45.089 17.4659 45.3125 17.4659 45.5625C17.4583 45.7708 17.5019 45.9527 17.5966 46.108C17.6951 46.2633 17.8295 46.3977 18 46.5114C18.1705 46.6212 18.3674 46.7178 18.5909 46.8011C18.8144 46.8807 19.053 46.9489 19.3068 47.0057L20.3523 47.2557C20.8598 47.3693 21.3258 47.5208 21.75 47.7102C22.1742 47.8996 22.5417 48.1326 22.8523 48.4091C23.1629 48.6856 23.4034 49.0114 23.5739 49.3864C23.7481 49.7614 23.8371 50.1913 23.8409 50.6761C23.8371 51.3883 23.6553 52.0057 23.2955 52.5284C22.9394 53.0473 22.4242 53.4508 21.75 53.7386C21.0795 54.0227 20.2708 54.1648 19.3239 54.1648C18.3845 54.1648 17.5663 54.0208 16.8693 53.733C16.1761 53.4451 15.6345 53.0189 15.2443 52.4545C14.858 51.8864 14.6553 51.1837 14.6364 50.3466H17.017C17.0436 50.7367 17.1553 51.0625 17.3523 51.3239C17.553 51.5814 17.8201 51.7765 18.1534 51.9091C18.4905 52.0379 18.8712 52.1023 19.2955 52.1023C19.7121 52.1023 20.0739 52.0417 20.3807 51.9205C20.6913 51.7992 20.9318 51.6307 21.1023 51.4148C21.2727 51.1989 21.358 50.9508 21.358 50.6705C21.358 50.4091 21.2803 50.1894 21.125 50.0114C20.9735 49.8333 20.75 49.6818 20.4545 49.5568C20.1629 49.4318 19.8049 49.3182 19.3807 49.2159L18.1136 48.8977C17.1326 48.6591 16.358 48.286 15.7898 47.7784C15.2216 47.2708 14.9394 46.5871 14.9432 45.7273C14.9394 45.0227 15.1269 44.4072 15.5057 43.8807C15.8883 43.3542 16.4129 42.9432 17.0795 42.6477C17.7462 42.3523 18.5038 42.2045 19.3523 42.2045C20.2159 42.2045 20.9697 42.3523 21.6136 42.6477C22.2614 42.9432 22.7652 43.3542 23.125 43.8807C23.4848 44.4072 23.6705 45.017 23.6818 45.7102H21.3239ZM29.2335 54.1705C28.3395 54.1705 27.5706 53.9811 26.9266 53.6023C26.2865 53.2197 25.7941 52.6894 25.4494 52.0114C25.1085 51.3333 24.938 50.553 24.938 49.6705C24.938 48.7765 25.1104 47.9924 25.4551 47.3182C25.8035 46.6402 26.2979 46.1117 26.938 45.733C27.5782 45.3504 28.3395 45.1591 29.2221 45.1591C29.9835 45.1591 30.6501 45.2973 31.2221 45.5739C31.7941 45.8504 32.2467 46.2386 32.5801 46.7386C32.9134 47.2386 33.0971 47.8258 33.1312 48.5H30.8471C30.7827 48.0644 30.6123 47.714 30.3357 47.4489C30.063 47.1799 29.7051 47.0455 29.2619 47.0455C28.8869 47.0455 28.5592 47.1477 28.2789 47.3523C28.0024 47.553 27.7865 47.8466 27.6312 48.233C27.4759 48.6193 27.3982 49.0871 27.3982 49.6364C27.3982 50.1932 27.474 50.6667 27.6255 51.0568C27.7808 51.447 27.9986 51.7443 28.2789 51.9489C28.5592 52.1534 28.8869 52.2557 29.2619 52.2557C29.5384 52.2557 29.7865 52.1989 30.0062 52.0852C30.2297 51.9716 30.4134 51.8068 30.5573 51.5909C30.7051 51.3712 30.8016 51.108 30.8471 50.8011H33.1312C33.0933 51.4678 32.9115 52.0549 32.5857 52.5625C32.2638 53.0663 31.8187 53.4602 31.2505 53.7443C30.6823 54.0284 30.01 54.1705 29.2335 54.1705ZM34.5209 54V45.2727H36.8675V46.7955H36.9584C37.1175 46.2538 37.3845 45.8447 37.7595 45.5682C38.1345 45.2879 38.5664 45.1477 39.055 45.1477C39.1762 45.1477 39.3069 45.1553 39.447 45.1705C39.5872 45.1856 39.7103 45.2064 39.8164 45.233V47.3807C39.7027 47.3466 39.5455 47.3163 39.3448 47.2898C39.144 47.2633 38.9603 47.25 38.7936 47.25C38.4376 47.25 38.1194 47.3277 37.8391 47.483C37.5626 47.6345 37.3429 47.8466 37.18 48.1193C37.0209 48.392 36.9414 48.7064 36.9414 49.0625V54H34.5209ZM44.4447 54.1705C43.5621 54.1705 42.7989 53.983 42.1549 53.608C41.5148 53.2292 41.0205 52.7027 40.672 52.0284C40.3235 51.3504 40.1493 50.5644 40.1493 49.6705C40.1493 48.7689 40.3235 47.9811 40.672 47.3068C41.0205 46.6288 41.5148 46.1023 42.1549 45.7273C42.7989 45.3485 43.5621 45.1591 44.4447 45.1591C45.3273 45.1591 46.0887 45.3485 46.7288 45.7273C47.3727 46.1023 47.869 46.6288 48.2174 47.3068C48.5659 47.9811 48.7402 48.7689 48.7402 49.6705C48.7402 50.5644 48.5659 51.3504 48.2174 52.0284C47.869 52.7027 47.3727 53.2292 46.7288 53.608C46.0887 53.983 45.3273 54.1705 44.4447 54.1705ZM44.4561 52.2955C44.8576 52.2955 45.1928 52.1818 45.4618 51.9545C45.7307 51.7235 45.9334 51.4091 46.0697 51.0114C46.2099 50.6136 46.2799 50.161 46.2799 49.6534C46.2799 49.1458 46.2099 48.6932 46.0697 48.2955C45.9334 47.8977 45.7307 47.5833 45.4618 47.3523C45.1928 47.1212 44.8576 47.0057 44.4561 47.0057C44.0508 47.0057 43.7099 47.1212 43.4334 47.3523C43.1606 47.5833 42.9542 47.8977 42.814 48.2955C42.6777 48.6932 42.6095 49.1458 42.6095 49.6534C42.6095 50.161 42.6777 50.6136 42.814 51.0114C42.9542 51.4091 43.1606 51.7235 43.4334 51.9545C43.7099 52.1818 44.0508 52.2955 44.4561 52.2955ZM52.5745 42.3636V54H50.154V42.3636H52.5745ZM56.7739 42.3636V54H54.3534V42.3636H56.7739ZM66.738 45.2727V47.0909H61.4823V45.2727H66.738ZM62.6755 43.1818H65.0959V51.3182C65.0959 51.5417 65.13 51.7159 65.1982 51.8409C65.2664 51.9621 65.3611 52.0473 65.4823 52.0966C65.6073 52.1458 65.7512 52.1705 65.9141 52.1705C66.0277 52.1705 66.1414 52.161 66.255 52.142C66.3686 52.1193 66.4558 52.1023 66.5164 52.0909L66.897 53.892C66.7758 53.9299 66.6054 53.9735 66.3857 54.0227C66.166 54.0758 65.8989 54.108 65.5845 54.1193C65.0012 54.142 64.4898 54.0644 64.0505 53.8864C63.6148 53.7083 63.2758 53.4318 63.0334 53.0568C62.791 52.6818 62.6717 52.2083 62.6755 51.6364V43.1818ZM72.0041 54.1705C71.1215 54.1705 70.3583 53.983 69.7143 53.608C69.0742 53.2292 68.5798 52.7027 68.2314 52.0284C67.8829 51.3504 67.7086 50.5644 67.7086 49.6705C67.7086 48.7689 67.8829 47.9811 68.2314 47.3068C68.5798 46.6288 69.0742 46.1023 69.7143 45.7273C70.3583 45.3485 71.1215 45.1591 72.0041 45.1591C72.8867 45.1591 73.648 45.3485 74.2882 45.7273C74.9321 46.1023 75.4283 46.6288 75.7768 47.3068C76.1253 47.9811 76.2995 48.7689 76.2995 49.6705C76.2995 50.5644 76.1253 51.3504 75.7768 52.0284C75.4283 52.7027 74.9321 53.2292 74.2882 53.608C73.648 53.983 72.8867 54.1705 72.0041 54.1705ZM72.0155 52.2955C72.417 52.2955 72.7522 52.1818 73.0211 51.9545C73.2901 51.7235 73.4927 51.4091 73.6291 51.0114C73.7692 50.6136 73.8393 50.161 73.8393 49.6534C73.8393 49.1458 73.7692 48.6932 73.6291 48.2955C73.4927 47.8977 73.2901 47.5833 73.0211 47.3523C72.7522 47.1212 72.417 47.0057 72.0155 47.0057C71.6102 47.0057 71.2692 47.1212 70.9927 47.3523C70.72 47.5833 70.5136 47.8977 70.3734 48.2955C70.237 48.6932 70.1689 49.1458 70.1689 49.6534C70.1689 50.161 70.237 50.6136 70.3734 51.0114C70.5136 51.4091 70.72 51.7235 70.9927 51.9545C71.2692 52.1818 71.6102 52.2955 72.0155 52.2955ZM18.9091 78.1705C18.0152 78.1705 17.2462 77.9811 16.6023 77.6023C15.9621 77.2197 15.4697 76.6894 15.125 76.0114C14.7841 75.3333 14.6136 74.553 14.6136 73.6705C14.6136 72.7765 14.786 71.9924 15.1307 71.3182C15.4792 70.6402 15.9735 70.1117 16.6136 69.733C17.2538 69.3504 18.0152 69.1591 18.8977 69.1591C19.6591 69.1591 20.3258 69.2973 20.8977 69.5739C21.4697 69.8504 21.9223 70.2386 22.2557 70.7386C22.589 71.2386 22.7727 71.8258 22.8068 72.5H20.5227C20.4583 72.0644 20.2879 71.714 20.0114 71.4489C19.7386 71.1799 19.3807 71.0455 18.9375 71.0455C18.5625 71.0455 18.2348 71.1477 17.9545 71.3523C17.678 71.553 17.4621 71.8466 17.3068 72.233C17.1515 72.6193 17.0739 73.0871 17.0739 73.6364C17.0739 74.1932 17.1496 74.6667 17.3011 75.0568C17.4564 75.447 17.6742 75.7443 17.9545 75.9489C18.2348 76.1534 18.5625 76.2557 18.9375 76.2557C19.214 76.2557 19.4621 76.1989 19.6818 76.0852C19.9053 75.9716 20.089 75.8068 20.233 75.5909C20.3807 75.3712 20.4773 75.108 20.5227 74.8011H22.8068C22.7689 75.4678 22.5871 76.0549 22.2614 76.5625C21.9394 77.0663 21.4943 77.4602 20.9261 77.7443C20.358 78.0284 19.6856 78.1705 18.9091 78.1705ZM26.617 72.9545V78H24.1965V66.3636H26.5488V70.8125H26.6511C26.848 70.2973 27.1662 69.8939 27.6056 69.6023C28.045 69.3068 28.5962 69.1591 29.259 69.1591C29.8651 69.1591 30.3935 69.2917 30.8443 69.5568C31.2988 69.8182 31.6511 70.1951 31.9011 70.6875C32.1549 71.1761 32.2799 71.7614 32.2761 72.4432V78H29.8556V72.875C29.8594 72.3371 29.723 71.9186 29.4465 71.6193C29.1738 71.3201 28.7912 71.1705 28.2988 71.1705C27.9693 71.1705 27.6776 71.2405 27.4238 71.3807C27.1738 71.5208 26.9768 71.7254 26.8329 71.9943C26.6927 72.2595 26.6208 72.5795 26.617 72.9545ZM36.5095 78.1648C35.9527 78.1648 35.4565 78.0682 35.0209 77.875C34.5853 77.678 34.2406 77.3883 33.9868 77.0057C33.7368 76.6193 33.6118 76.1383 33.6118 75.5625C33.6118 75.0777 33.7008 74.6705 33.8789 74.3409C34.0569 74.0114 34.2993 73.7462 34.6061 73.5455C34.913 73.3447 35.2614 73.1932 35.6516 73.0909C36.0455 72.9886 36.4584 72.9167 36.8902 72.875C37.3978 72.822 37.8069 72.7727 38.1175 72.7273C38.4281 72.678 38.6535 72.6061 38.7936 72.5114C38.9338 72.4167 39.0039 72.2765 39.0039 72.0909V72.0568C39.0039 71.697 38.8902 71.4186 38.663 71.2216C38.4395 71.0246 38.1213 70.9261 37.7084 70.9261C37.2728 70.9261 36.9262 71.0227 36.6686 71.2159C36.4111 71.4053 36.2406 71.6439 36.1573 71.9318L33.9186 71.75C34.0323 71.2197 34.2558 70.7614 34.5891 70.375C34.9224 69.9848 35.3523 69.6856 35.8789 69.4773C36.4092 69.2652 37.0228 69.1591 37.7198 69.1591C38.2046 69.1591 38.6686 69.2159 39.1118 69.3295C39.5588 69.4432 39.9546 69.6193 40.2993 69.858C40.6478 70.0966 40.9224 70.4034 41.1232 70.7784C41.3239 71.1496 41.4243 71.5947 41.4243 72.1136V78H39.1289V76.7898H39.0607C38.9205 77.0625 38.733 77.303 38.4982 77.5114C38.2633 77.7159 37.9811 77.8769 37.6516 77.9943C37.322 78.108 36.9414 78.1648 36.5095 78.1648ZM37.2027 76.4943C37.5588 76.4943 37.8732 76.4242 38.1459 76.2841C38.4186 76.1402 38.6327 75.947 38.788 75.7045C38.9433 75.4621 39.0209 75.1875 39.0209 74.8807V73.9545C38.9452 74.0038 38.841 74.0492 38.7084 74.0909C38.5796 74.1288 38.4338 74.1648 38.2709 74.1989C38.108 74.2292 37.9452 74.2576 37.7823 74.2841C37.6194 74.3068 37.4717 74.3277 37.3391 74.3466C37.055 74.3883 36.8069 74.4545 36.5948 74.5455C36.3827 74.6364 36.2179 74.7595 36.1005 74.9148C35.983 75.0663 35.9243 75.2557 35.9243 75.483C35.9243 75.8125 36.0436 76.0644 36.2823 76.2386C36.5247 76.4091 36.8315 76.4943 37.2027 76.4943ZM45.5626 72.9545V78H43.1422V69.2727H45.449V70.8125H45.5513C45.7444 70.3049 46.0683 69.9034 46.5228 69.608C46.9774 69.3087 47.5285 69.1591 48.1763 69.1591C48.7823 69.1591 49.3107 69.2917 49.7615 69.5568C50.2122 69.822 50.5626 70.2008 50.8126 70.6932C51.0626 71.1818 51.1876 71.7652 51.1876 72.4432V78H48.7672V72.875C48.7709 72.3409 48.6346 71.9242 48.3581 71.625C48.0816 71.322 47.7009 71.1705 47.216 71.1705C46.8903 71.1705 46.6024 71.2405 46.3524 71.3807C46.1062 71.5208 45.913 71.7254 45.7728 71.9943C45.6365 72.2595 45.5664 72.5795 45.5626 72.9545ZM56.8671 81.4545C56.083 81.4545 55.4107 81.3466 54.8501 81.1307C54.2932 80.9186 53.8501 80.6288 53.5205 80.2614C53.191 79.8939 52.977 79.4811 52.8785 79.0227L55.1171 78.7216C55.1853 78.8958 55.2932 79.0587 55.441 79.2102C55.5887 79.3617 55.7838 79.483 56.0262 79.5739C56.2724 79.6686 56.5716 79.7159 56.9239 79.7159C57.4504 79.7159 57.8841 79.5871 58.2251 79.3295C58.5698 79.0758 58.7421 78.6496 58.7421 78.0511V76.4545H58.6398C58.5338 76.697 58.3747 76.9261 58.1626 77.142C57.9504 77.358 57.6777 77.5341 57.3444 77.6705C57.011 77.8068 56.6133 77.875 56.1512 77.875C55.4959 77.875 54.8993 77.7235 54.3614 77.4205C53.8273 77.1136 53.4012 76.6458 53.083 76.017C52.7686 75.3845 52.6114 74.5852 52.6114 73.6193C52.6114 72.6307 52.7724 71.8049 53.0944 71.142C53.4163 70.4792 53.8444 69.983 54.3785 69.6534C54.9163 69.3239 55.5054 69.1591 56.1455 69.1591C56.6341 69.1591 57.0432 69.2424 57.3728 69.4091C57.7023 69.572 57.9675 69.7765 58.1682 70.0227C58.3728 70.2652 58.53 70.5038 58.6398 70.7386H58.7307V69.2727H61.1341V78.0852C61.1341 78.8277 60.9523 79.4489 60.5887 79.9489C60.2251 80.4489 59.7213 80.8239 59.0773 81.0739C58.4372 81.3277 57.7004 81.4545 56.8671 81.4545ZM56.9182 76.0568C57.3084 76.0568 57.6379 75.9602 57.9069 75.767C58.1796 75.5701 58.3879 75.2898 58.5319 74.9261C58.6796 74.5587 58.7535 74.1193 58.7535 73.608C58.7535 73.0966 58.6815 72.6534 58.5376 72.2784C58.3936 71.8996 58.1853 71.6061 57.9126 71.3977C57.6398 71.1894 57.3084 71.0852 56.9182 71.0852C56.5205 71.0852 56.1853 71.1932 55.9126 71.4091C55.6398 71.6212 55.4334 71.9167 55.2932 72.2955C55.1531 72.6742 55.083 73.1117 55.083 73.608C55.083 74.1117 55.1531 74.5473 55.2932 74.9148C55.4372 75.2784 55.6436 75.5606 55.9126 75.7614C56.1853 75.9583 56.5205 76.0568 56.9182 76.0568ZM66.8776 78.1705C65.9798 78.1705 65.2071 77.9886 64.5594 77.625C63.9154 77.2576 63.4192 76.7386 63.0707 76.0682C62.7223 75.3939 62.548 74.5966 62.548 73.6761C62.548 72.7784 62.7223 71.9905 63.0707 71.3125C63.4192 70.6345 63.9098 70.1061 64.5423 69.7273C65.1787 69.3485 65.9249 69.1591 66.781 69.1591C67.3567 69.1591 67.8927 69.2519 68.3889 69.4375C68.8889 69.6193 69.3245 69.8939 69.6957 70.2614C70.0707 70.6288 70.3624 71.0909 70.5707 71.6477C70.7791 72.2008 70.8832 72.8485 70.8832 73.5909V74.2557H63.5139V72.7557H68.6048C68.6048 72.4072 68.5291 72.0985 68.3776 71.8295C68.226 71.5606 68.0158 71.3504 67.7469 71.1989C67.4817 71.0436 67.173 70.9659 66.8207 70.9659C66.4533 70.9659 66.1276 71.0511 65.8435 71.2216C65.5632 71.3883 65.3435 71.6136 65.1844 71.8977C65.0253 72.178 64.9438 72.4905 64.9401 72.8352V74.2614C64.9401 74.6932 65.0196 75.0663 65.1787 75.3807C65.3416 75.6951 65.5707 75.9375 65.8662 76.108C66.1616 76.2784 66.512 76.3636 66.9173 76.3636C67.1863 76.3636 67.4325 76.3258 67.656 76.25C67.8795 76.1742 68.0707 76.0606 68.2298 75.9091C68.3889 75.7576 68.5101 75.572 68.5935 75.3523L70.8321 75.5C70.7185 76.0379 70.4855 76.5076 70.1332 76.9091C69.7848 77.3068 69.334 77.6174 68.781 77.8409C68.2317 78.0606 67.5973 78.1705 66.8776 78.1705ZM75.4482 68.392V66.3636H85.005V68.392H81.4425V78H79.0107V68.392H75.4482ZM86.3734 78V69.2727H88.7939V78H86.3734ZM87.5893 68.1477C87.2295 68.1477 86.9208 68.0284 86.6632 67.7898C86.4094 67.5473 86.2825 67.2576 86.2825 66.9205C86.2825 66.5871 86.4094 66.3011 86.6632 66.0625C86.9208 65.8201 87.2295 65.6989 87.5893 65.6989C87.9492 65.6989 88.256 65.8201 88.5098 66.0625C88.7673 66.3011 88.8961 66.5871 88.8961 66.9205C88.8961 67.2576 88.7673 67.5473 88.5098 67.7898C88.256 68.0284 87.9492 68.1477 87.5893 68.1477ZM90.5728 78V69.2727H92.8796V70.8125H92.9819C93.1637 70.3011 93.4667 69.8977 93.891 69.6023C94.3152 69.3068 94.8228 69.1591 95.4137 69.1591C96.0122 69.1591 96.5216 69.3087 96.9421 69.608C97.3626 69.9034 97.6429 70.3049 97.783 70.8125H97.8739C98.0519 70.3125 98.3739 69.9129 98.8398 69.6136C99.3095 69.3106 99.8644 69.1591 100.505 69.1591C101.319 69.1591 101.98 69.4186 102.488 69.9375C102.999 70.4527 103.255 71.1837 103.255 72.1307V78H100.84V72.608C100.84 72.1231 100.711 71.7595 100.453 71.517C100.196 71.2746 99.8739 71.1534 99.4876 71.1534C99.0482 71.1534 98.7054 71.2936 98.4591 71.5739C98.2129 71.8504 98.0898 72.2159 98.0898 72.6705V78H95.7432V72.5568C95.7432 72.1288 95.6201 71.7879 95.3739 71.5341C95.1315 71.2803 94.8114 71.1534 94.4137 71.1534C94.1448 71.1534 93.9023 71.2216 93.6864 71.358C93.4743 71.4905 93.3057 71.678 93.1807 71.9205C93.0557 72.1591 92.9932 72.4394 92.9932 72.7614V78H90.5728ZM108.984 78.1705C108.086 78.1705 107.313 77.9886 106.666 77.625C106.022 77.2576 105.525 76.7386 105.177 76.0682C104.829 75.3939 104.654 74.5966 104.654 73.6761C104.654 72.7784 104.829 71.9905 105.177 71.3125C105.525 70.6345 106.016 70.1061 106.649 69.7273C107.285 69.3485 108.031 69.1591 108.887 69.1591C109.463 69.1591 109.999 69.2519 110.495 69.4375C110.995 69.6193 111.431 69.8939 111.802 70.2614C112.177 70.6288 112.469 71.0909 112.677 71.6477C112.885 72.2008 112.989 72.8485 112.989 73.5909V74.2557H105.62V72.7557H110.711C110.711 72.4072 110.635 72.0985 110.484 71.8295C110.332 71.5606 110.122 71.3504 109.853 71.1989C109.588 71.0436 109.279 70.9659 108.927 70.9659C108.56 70.9659 108.234 71.0511 107.95 71.2216C107.669 71.3883 107.45 71.6136 107.291 71.8977C107.132 72.178 107.05 72.4905 107.046 72.8352V74.2614C107.046 74.6932 107.126 75.0663 107.285 75.3807C107.448 75.6951 107.677 75.9375 107.972 76.108C108.268 76.2784 108.618 76.3636 109.024 76.3636C109.293 76.3636 109.539 76.3258 109.762 76.25C109.986 76.1742 110.177 76.0606 110.336 75.9091C110.495 75.7576 110.616 75.572 110.7 75.3523L112.938 75.5C112.825 76.0379 112.592 76.5076 112.239 76.9091C111.891 77.3068 111.44 77.6174 110.887 77.8409C110.338 78.0606 109.704 78.1705 108.984 78.1705Z" fill="white"/>
</svg>
