<svg width="275" height="84" viewBox="0 0 275 84" fill="none" xmlns="http://www.w3.org/2000/svg">
<rect x="0.5" y="53.7397" width="99" height="29" rx="3.5" stroke="white" stroke-linecap="round" stroke-linejoin="round" stroke-dasharray="4 4"/>
<path d="M112.568 17.6318V15.6034H122.125V17.6318H118.562V27.2397H116.131V17.6318H112.568ZM124.795 27.4045C124.238 27.4045 123.742 27.3079 123.306 27.1147C122.87 26.9178 122.526 26.628 122.272 26.2454C122.022 25.8591 121.897 25.378 121.897 24.8022C121.897 24.3174 121.986 23.9102 122.164 23.5807C122.342 23.2511 122.584 22.986 122.891 22.7852C123.198 22.5844 123.546 22.4329 123.937 22.3307C124.331 22.2284 124.743 22.1564 125.175 22.1147C125.683 22.0617 126.092 22.0125 126.403 21.967C126.713 21.9178 126.938 21.8458 127.079 21.7511C127.219 21.6564 127.289 21.5163 127.289 21.3307V21.2966C127.289 20.9367 127.175 20.6583 126.948 20.4613C126.724 20.2644 126.406 20.1659 125.993 20.1659C125.558 20.1659 125.211 20.2625 124.954 20.4557C124.696 20.645 124.526 20.8837 124.442 21.1716L122.204 20.9897C122.317 20.4594 122.541 20.0011 122.874 19.6147C123.207 19.2246 123.637 18.9254 124.164 18.717C124.694 18.5049 125.308 18.3988 126.005 18.3988C126.49 18.3988 126.954 18.4557 127.397 18.5693C127.844 18.6829 128.24 18.8591 128.584 19.0977C128.933 19.3363 129.207 19.6432 129.408 20.0182C129.609 20.3894 129.709 20.8344 129.709 21.3534V27.2397H127.414V26.0295H127.346C127.206 26.3022 127.018 26.5428 126.783 26.7511C126.548 26.9557 126.266 27.1166 125.937 27.2341C125.607 27.3477 125.226 27.4045 124.795 27.4045ZM125.488 25.7341C125.844 25.7341 126.158 25.664 126.431 25.5238C126.704 25.3799 126.918 25.1867 127.073 24.9443C127.228 24.7019 127.306 24.4272 127.306 24.1204V23.1943C127.23 23.2435 127.126 23.289 126.993 23.3307C126.865 23.3685 126.719 23.4045 126.556 23.4386C126.393 23.4689 126.23 23.4973 126.067 23.5238C125.904 23.5466 125.757 23.5674 125.624 23.5863C125.34 23.628 125.092 23.6943 124.88 23.7852C124.668 23.8761 124.503 23.9992 124.385 24.1545C124.268 24.306 124.209 24.4954 124.209 24.7227C124.209 25.0522 124.329 25.3041 124.567 25.4784C124.81 25.6488 125.117 25.7341 125.488 25.7341ZM131.427 30.5125V18.5125H133.814V19.9784H133.921C134.028 19.7435 134.181 19.5049 134.382 19.2625C134.586 19.0163 134.851 18.8117 135.177 18.6488C135.507 18.4822 135.916 18.3988 136.404 18.3988C137.041 18.3988 137.628 18.5655 138.166 18.8988C138.704 19.2284 139.134 19.7265 139.456 20.3932C139.778 21.056 139.939 21.8875 139.939 22.8875C139.939 23.861 139.781 24.6829 139.467 25.3534C139.156 26.02 138.732 26.5257 138.194 26.8704C137.66 27.2113 137.062 27.3818 136.399 27.3818C135.929 27.3818 135.529 27.3041 135.2 27.1488C134.874 26.9935 134.607 26.7985 134.399 26.5636C134.19 26.325 134.031 26.0844 133.921 25.842H133.848V30.5125H131.427ZM133.796 22.8761C133.796 23.395 133.868 23.8477 134.012 24.2341C134.156 24.6204 134.365 24.9216 134.637 25.1375C134.91 25.3496 135.242 25.4557 135.632 25.4557C136.026 25.4557 136.359 25.3477 136.632 25.1318C136.904 24.9121 137.111 24.6091 137.251 24.2227C137.395 23.8325 137.467 23.3837 137.467 22.8761C137.467 22.3723 137.397 21.9291 137.257 21.5466C137.117 21.164 136.91 20.8647 136.637 20.6488C136.365 20.4329 136.029 20.325 135.632 20.325C135.238 20.325 134.904 20.4291 134.632 20.6375C134.363 20.8458 134.156 21.1413 134.012 21.5238C133.868 21.9064 133.796 22.3572 133.796 22.8761ZM147.424 27.4045C146.867 27.4045 146.371 27.3079 145.935 27.1147C145.5 26.9178 145.155 26.628 144.901 26.2454C144.651 25.8591 144.526 25.378 144.526 24.8022C144.526 24.3174 144.615 23.9102 144.793 23.5807C144.971 23.2511 145.214 22.986 145.521 22.7852C145.827 22.5844 146.176 22.4329 146.566 22.3307C146.96 22.2284 147.373 22.1564 147.805 22.1147C148.312 22.0617 148.721 22.0125 149.032 21.967C149.342 21.9178 149.568 21.8458 149.708 21.7511C149.848 21.6564 149.918 21.5163 149.918 21.3307V21.2966C149.918 20.9367 149.805 20.6583 149.577 20.4613C149.354 20.2644 149.036 20.1659 148.623 20.1659C148.187 20.1659 147.841 20.2625 147.583 20.4557C147.325 20.645 147.155 20.8837 147.072 21.1716L144.833 20.9897C144.947 20.4594 145.17 20.0011 145.503 19.6147C145.837 19.2246 146.267 18.9254 146.793 18.717C147.324 18.5049 147.937 18.3988 148.634 18.3988C149.119 18.3988 149.583 18.4557 150.026 18.5693C150.473 18.6829 150.869 18.8591 151.214 19.0977C151.562 19.3363 151.837 19.6432 152.038 20.0182C152.238 20.3894 152.339 20.8344 152.339 21.3534V27.2397H150.043V26.0295H149.975C149.835 26.3022 149.647 26.5428 149.413 26.7511C149.178 26.9557 148.896 27.1166 148.566 27.2341C148.236 27.3477 147.856 27.4045 147.424 27.4045ZM148.117 25.7341C148.473 25.7341 148.788 25.664 149.06 25.5238C149.333 25.3799 149.547 25.1867 149.702 24.9443C149.858 24.7019 149.935 24.4272 149.935 24.1204V23.1943C149.86 23.2435 149.755 23.289 149.623 23.3307C149.494 23.3685 149.348 23.4045 149.185 23.4386C149.022 23.4689 148.86 23.4973 148.697 23.5238C148.534 23.5466 148.386 23.5674 148.253 23.5863C147.969 23.628 147.721 23.6943 147.509 23.7852C147.297 23.8761 147.132 23.9992 147.015 24.1545C146.897 24.306 146.839 24.4954 146.839 24.7227C146.839 25.0522 146.958 25.3041 147.197 25.4784C147.439 25.6488 147.746 25.7341 148.117 25.7341ZM156.477 22.1943V27.2397H154.057V18.5125H156.363V20.0522H156.466C156.659 19.5447 156.983 19.1432 157.437 18.8477C157.892 18.5485 158.443 18.3988 159.091 18.3988C159.697 18.3988 160.225 18.5314 160.676 18.7966C161.127 19.0617 161.477 19.4405 161.727 19.9329C161.977 20.4216 162.102 21.0049 162.102 21.6829V27.2397H159.682V22.1147C159.685 21.5807 159.549 21.164 159.272 20.8647C158.996 20.5617 158.615 20.4102 158.13 20.4102C157.805 20.4102 157.517 20.4803 157.267 20.6204C157.021 20.7606 156.827 20.9651 156.687 21.2341C156.551 21.4992 156.481 21.8193 156.477 22.1943ZM165.031 30.5125C164.725 30.5125 164.437 30.4879 164.168 30.4386C163.903 30.3932 163.683 30.3344 163.509 30.2625L164.054 28.4557C164.338 28.5428 164.594 28.5901 164.821 28.5977C165.052 28.6053 165.251 28.5522 165.418 28.4386C165.588 28.325 165.727 28.1318 165.833 27.8591L165.975 27.4897L162.844 18.5125H165.389L167.196 24.9216H167.287L169.111 18.5125H171.674L168.281 28.1829C168.119 28.6526 167.897 29.0617 167.617 29.4102C167.34 29.7625 166.99 30.0333 166.566 30.2227C166.141 30.4159 165.63 30.5125 165.031 30.5125ZM183.557 21.0011L181.341 21.1375C181.303 20.9481 181.221 20.7776 181.096 20.6261C180.971 20.4708 180.807 20.3477 180.602 20.2568C180.401 20.1621 180.161 20.1147 179.881 20.1147C179.506 20.1147 179.189 20.1943 178.932 20.3534C178.674 20.5087 178.545 20.717 178.545 20.9784C178.545 21.1867 178.629 21.3629 178.795 21.5068C178.962 21.6507 179.248 21.7663 179.653 21.8534L181.233 22.1716C182.081 22.3458 182.714 22.6261 183.131 23.0125C183.547 23.3988 183.756 23.9064 183.756 24.5352C183.756 25.1072 183.587 25.6091 183.25 26.0409C182.916 26.4727 182.458 26.8098 181.875 27.0522C181.295 27.2909 180.627 27.4102 179.869 27.4102C178.714 27.4102 177.793 27.1697 177.108 26.6886C176.426 26.2038 176.026 25.5447 175.909 24.7113L178.29 24.5863C178.362 24.9386 178.536 25.2075 178.812 25.3932C179.089 25.575 179.443 25.6659 179.875 25.6659C180.299 25.6659 180.64 25.5844 180.898 25.4216C181.159 25.2549 181.291 25.0409 181.295 24.7795C181.291 24.5598 181.199 24.3799 181.017 24.2397C180.835 24.0958 180.555 23.986 180.176 23.9102L178.665 23.6091C177.812 23.4386 177.178 23.1432 176.761 22.7227C176.348 22.3022 176.142 21.7663 176.142 21.1147C176.142 20.5541 176.293 20.0712 176.596 19.6659C176.903 19.2606 177.333 18.9481 177.886 18.7284C178.443 18.5087 179.095 18.3988 179.841 18.3988C180.943 18.3988 181.81 18.6318 182.443 19.0977C183.079 19.5636 183.451 20.1981 183.557 21.0011ZM187.54 15.6034V27.2397H185.12V15.6034H187.54ZM193.262 27.4102C192.38 27.4102 191.616 27.2227 190.972 26.8477C190.332 26.4689 189.838 25.9424 189.489 25.2682C189.141 24.5901 188.967 23.8041 188.967 22.9102C188.967 22.0087 189.141 21.2208 189.489 20.5466C189.838 19.8685 190.332 19.342 190.972 18.967C191.616 18.5882 192.38 18.3988 193.262 18.3988C194.145 18.3988 194.906 18.5882 195.546 18.967C196.19 19.342 196.686 19.8685 197.035 20.5466C197.383 21.2208 197.558 22.0087 197.558 22.9102C197.558 23.8041 197.383 24.5901 197.035 25.2682C196.686 25.9424 196.19 26.4689 195.546 26.8477C194.906 27.2227 194.145 27.4102 193.262 27.4102ZM193.274 25.5352C193.675 25.5352 194.01 25.4216 194.279 25.1943C194.548 24.9632 194.751 24.6488 194.887 24.2511C195.027 23.8534 195.097 23.4007 195.097 22.8932C195.097 22.3856 195.027 21.9329 194.887 21.5352C194.751 21.1375 194.548 20.8231 194.279 20.592C194.01 20.361 193.675 20.2454 193.274 20.2454C192.868 20.2454 192.527 20.361 192.251 20.592C191.978 20.8231 191.772 21.1375 191.632 21.5352C191.495 21.9329 191.427 22.3856 191.427 22.8932C191.427 23.4007 191.495 23.8534 191.632 24.2511C191.772 24.6488 191.978 24.9632 192.251 25.1943C192.527 25.4216 192.868 25.5352 193.274 25.5352ZM203.614 18.5125V20.3307H198.358V18.5125H203.614ZM199.551 16.4216H201.972V24.5579C201.972 24.7814 202.006 24.9557 202.074 25.0807C202.142 25.2019 202.237 25.2871 202.358 25.3363C202.483 25.3856 202.627 25.4102 202.79 25.4102C202.903 25.4102 203.017 25.4007 203.131 25.3818C203.244 25.3591 203.331 25.342 203.392 25.3307L203.773 27.1318C203.651 27.1697 203.481 27.2132 203.261 27.2625C203.042 27.3155 202.775 27.3477 202.46 27.3591C201.877 27.3818 201.365 27.3041 200.926 27.1261C200.49 26.9481 200.151 26.6716 199.909 26.2966C199.667 25.9216 199.547 25.4481 199.551 24.8761V16.4216ZM213.215 18.5125V20.3307H207.96V18.5125H213.215ZM209.153 16.4216H211.573V24.5579C211.573 24.7814 211.607 24.9557 211.676 25.0807C211.744 25.2019 211.839 25.2871 211.96 25.3363C212.085 25.3856 212.229 25.4102 212.392 25.4102C212.505 25.4102 212.619 25.4007 212.732 25.3818C212.846 25.3591 212.933 25.342 212.994 25.3307L213.375 27.1318C213.253 27.1697 213.083 27.2132 212.863 27.2625C212.643 27.3155 212.376 27.3477 212.062 27.3591C211.479 27.3818 210.967 27.3041 210.528 27.1261C210.092 26.9481 209.753 26.6716 209.511 26.2966C209.268 25.9216 209.149 25.4481 209.153 24.8761V16.4216ZM218.482 27.4102C217.599 27.4102 216.836 27.2227 216.192 26.8477C215.552 26.4689 215.057 25.9424 214.709 25.2682C214.36 24.5901 214.186 23.8041 214.186 22.9102C214.186 22.0087 214.36 21.2208 214.709 20.5466C215.057 19.8685 215.552 19.342 216.192 18.967C216.836 18.5882 217.599 18.3988 218.482 18.3988C219.364 18.3988 220.126 18.5882 220.766 18.967C221.41 19.342 221.906 19.8685 222.254 20.5466C222.603 21.2208 222.777 22.0087 222.777 22.9102C222.777 23.8041 222.603 24.5901 222.254 25.2682C221.906 25.9424 221.41 26.4689 220.766 26.8477C220.126 27.2227 219.364 27.4102 218.482 27.4102ZM218.493 25.5352C218.894 25.5352 219.23 25.4216 219.499 25.1943C219.768 24.9632 219.97 24.6488 220.107 24.2511C220.247 23.8534 220.317 23.4007 220.317 22.8932C220.317 22.3856 220.247 21.9329 220.107 21.5352C219.97 21.1375 219.768 20.8231 219.499 20.592C219.23 20.361 218.894 20.2454 218.493 20.2454C218.088 20.2454 217.747 20.361 217.47 20.592C217.198 20.8231 216.991 21.1375 216.851 21.5352C216.715 21.9329 216.646 22.3856 216.646 22.8932C216.646 23.4007 216.715 23.8534 216.851 24.2511C216.991 24.6488 217.198 24.9632 217.47 25.1943C217.747 25.4216 218.088 25.5352 218.493 25.5352ZM234.995 21.0011L232.779 21.1375C232.742 20.9481 232.66 20.7776 232.535 20.6261C232.41 20.4708 232.245 20.3477 232.041 20.2568C231.84 20.1621 231.6 20.1147 231.319 20.1147C230.944 20.1147 230.628 20.1943 230.37 20.3534C230.113 20.5087 229.984 20.717 229.984 20.9784C229.984 21.1867 230.067 21.3629 230.234 21.5068C230.401 21.6507 230.687 21.7663 231.092 21.8534L232.672 22.1716C233.52 22.3458 234.153 22.6261 234.569 23.0125C234.986 23.3988 235.194 23.9064 235.194 24.5352C235.194 25.1072 235.026 25.6091 234.689 26.0409C234.355 26.4727 233.897 26.8098 233.314 27.0522C232.734 27.2909 232.065 27.4102 231.308 27.4102C230.153 27.4102 229.232 27.1697 228.547 26.6886C227.865 26.2038 227.465 25.5447 227.348 24.7113L229.728 24.5863C229.8 24.9386 229.975 25.2075 230.251 25.3932C230.528 25.575 230.882 25.6659 231.314 25.6659C231.738 25.6659 232.079 25.5844 232.336 25.4216C232.598 25.2549 232.73 25.0409 232.734 24.7795C232.73 24.5598 232.637 24.3799 232.456 24.2397C232.274 24.0958 231.994 23.986 231.615 23.9102L230.103 23.6091C229.251 23.4386 228.617 23.1432 228.2 22.7227C227.787 22.3022 227.581 21.7663 227.581 21.1147C227.581 20.5541 227.732 20.0712 228.035 19.6659C228.342 19.2606 228.772 18.9481 229.325 18.7284C229.882 18.5087 230.533 18.3988 231.279 18.3988C232.382 18.3988 233.249 18.6318 233.882 19.0977C234.518 19.5636 234.889 20.1981 234.995 21.0011ZM240.536 27.4102C239.638 27.4102 238.865 27.2284 238.217 26.8647C237.574 26.4973 237.077 25.9784 236.729 25.3079C236.38 24.6337 236.206 23.8363 236.206 22.9159C236.206 22.0182 236.38 21.2303 236.729 20.5522C237.077 19.8742 237.568 19.3458 238.2 18.967C238.837 18.5882 239.583 18.3988 240.439 18.3988C241.015 18.3988 241.551 18.4916 242.047 18.6772C242.547 18.8591 242.983 19.1337 243.354 19.5011C243.729 19.8685 244.021 20.3307 244.229 20.8875C244.437 21.4405 244.541 22.0882 244.541 22.8307V23.4954H237.172V21.9954H242.263C242.263 21.6469 242.187 21.3382 242.036 21.0693C241.884 20.8004 241.674 20.5901 241.405 20.4386C241.14 20.2833 240.831 20.2057 240.479 20.2057C240.111 20.2057 239.786 20.2909 239.502 20.4613C239.221 20.628 239.002 20.8534 238.842 21.1375C238.683 21.4178 238.602 21.7303 238.598 22.075V23.5011C238.598 23.9329 238.678 24.306 238.837 24.6204C239 24.9348 239.229 25.1772 239.524 25.3477C239.82 25.5182 240.17 25.6034 240.575 25.6034C240.844 25.6034 241.091 25.5655 241.314 25.4897C241.538 25.414 241.729 25.3004 241.888 25.1488C242.047 24.9973 242.168 24.8117 242.252 24.592L244.49 24.7397C244.377 25.2776 244.144 25.7473 243.791 26.1488C243.443 26.5466 242.992 26.8572 242.439 27.0807C241.89 27.3004 241.255 27.4102 240.536 27.4102ZM248.381 15.6034V27.2397H245.961V15.6034H248.381ZM254.138 27.4102C253.24 27.4102 252.467 27.2284 251.819 26.8647C251.175 26.4973 250.679 25.9784 250.331 25.3079C249.982 24.6337 249.808 23.8363 249.808 22.9159C249.808 22.0182 249.982 21.2303 250.331 20.5522C250.679 19.8742 251.17 19.3458 251.802 18.967C252.439 18.5882 253.185 18.3988 254.041 18.3988C254.617 18.3988 255.153 18.4916 255.649 18.6772C256.149 18.8591 256.585 19.1337 256.956 19.5011C257.331 19.8685 257.622 20.3307 257.831 20.8875C258.039 21.4405 258.143 22.0882 258.143 22.8307V23.4954H250.774V21.9954H255.865C255.865 21.6469 255.789 21.3382 255.638 21.0693C255.486 20.8004 255.276 20.5901 255.007 20.4386C254.742 20.2833 254.433 20.2057 254.081 20.2057C253.713 20.2057 253.388 20.2909 253.103 20.4613C252.823 20.628 252.603 20.8534 252.444 21.1375C252.285 21.4178 252.204 21.7303 252.2 22.075V23.5011C252.2 23.9329 252.28 24.306 252.439 24.6204C252.602 24.9348 252.831 25.1772 253.126 25.3477C253.422 25.5182 253.772 25.6034 254.177 25.6034C254.446 25.6034 254.692 25.5655 254.916 25.4897C255.139 25.414 255.331 25.3004 255.49 25.1488C255.649 24.9973 255.77 24.8117 255.853 24.592L258.092 24.7397C257.978 25.2776 257.746 25.7473 257.393 26.1488C257.045 26.5466 256.594 26.8572 256.041 27.0807C255.492 27.3004 254.857 27.4102 254.138 27.4102ZM263.506 27.4102C262.612 27.4102 261.843 27.2208 261.199 26.842C260.559 26.4594 260.067 25.9291 259.722 25.2511C259.381 24.5731 259.211 23.7928 259.211 22.9102C259.211 22.0163 259.383 21.2322 259.728 20.5579C260.076 19.8799 260.57 19.3515 261.211 18.9727C261.851 18.5901 262.612 18.3988 263.495 18.3988C264.256 18.3988 264.923 18.5371 265.495 18.8136C266.067 19.0901 266.519 19.4784 266.853 19.9784C267.186 20.4784 267.37 21.0655 267.404 21.7397H265.12C265.055 21.3041 264.885 20.9538 264.608 20.6886C264.336 20.4197 263.978 20.2852 263.534 20.2852C263.159 20.2852 262.832 20.3875 262.551 20.592C262.275 20.7928 262.059 21.0863 261.904 21.4727C261.748 21.8591 261.671 22.3269 261.671 22.8761C261.671 23.4329 261.746 23.9064 261.898 24.2966C262.053 24.6867 262.271 24.9841 262.551 25.1886C262.832 25.3932 263.159 25.4954 263.534 25.4954C263.811 25.4954 264.059 25.4386 264.279 25.325C264.502 25.2113 264.686 25.0466 264.83 24.8307C264.978 24.611 265.074 24.3477 265.12 24.0409H267.404C267.366 24.7075 267.184 25.2947 266.858 25.8022C266.536 26.306 266.091 26.7 265.523 26.9841C264.955 27.2682 264.282 27.4102 263.506 27.4102ZM273.435 18.5125V20.3307H268.18V18.5125H273.435ZM269.373 16.4216H271.793V24.5579C271.793 24.7814 271.827 24.9557 271.896 25.0807C271.964 25.2019 272.059 25.2871 272.18 25.3363C272.305 25.3856 272.449 25.4102 272.612 25.4102C272.725 25.4102 272.839 25.4007 272.952 25.3818C273.066 25.3591 273.153 25.342 273.214 25.3307L273.595 27.1318C273.473 27.1697 273.303 27.2132 273.083 27.2625C272.863 27.3155 272.596 27.3477 272.282 27.3591C271.699 27.3818 271.187 27.3041 270.748 27.1261C270.312 26.9481 269.973 26.6716 269.731 26.2966C269.488 25.9216 269.369 25.4481 269.373 24.8761V16.4216ZM113.011 51.2397V39.6034H117.67C118.527 39.6034 119.241 39.7303 119.812 39.9841C120.384 40.2379 120.814 40.5901 121.102 41.0409C121.39 41.4879 121.534 42.003 121.534 42.5863C121.534 43.0409 121.443 43.4405 121.261 43.7852C121.08 44.1261 120.83 44.4064 120.511 44.6261C120.197 44.842 119.837 44.9954 119.432 45.0863V45.2C119.875 45.2189 120.29 45.3439 120.676 45.575C121.066 45.806 121.383 46.1299 121.625 46.5466C121.867 46.9594 121.989 47.4519 121.989 48.0238C121.989 48.6413 121.835 49.1924 121.528 49.6772C121.225 50.1583 120.777 50.539 120.182 50.8193C119.587 51.0996 118.854 51.2397 117.983 51.2397H113.011ZM115.472 49.2284H117.477C118.163 49.2284 118.663 49.0977 118.977 48.8363C119.292 48.5712 119.449 48.2189 119.449 47.7795C119.449 47.4575 119.371 47.1735 119.216 46.9272C119.061 46.681 118.839 46.4879 118.551 46.3477C118.267 46.2075 117.928 46.1375 117.534 46.1375H115.472V49.2284ZM115.472 44.4727H117.295C117.633 44.4727 117.932 44.414 118.193 44.2966C118.458 44.1754 118.667 44.0049 118.818 43.7852C118.973 43.5655 119.051 43.3022 119.051 42.9954C119.051 42.575 118.902 42.236 118.602 41.9784C118.307 41.7208 117.886 41.592 117.341 41.592H115.472V44.4727ZM127.327 51.4102C126.445 51.4102 125.681 51.2227 125.037 50.8477C124.397 50.4689 123.903 49.9424 123.554 49.2682C123.206 48.5901 123.032 47.8041 123.032 46.9102C123.032 46.0087 123.206 45.2208 123.554 44.5466C123.903 43.8685 124.397 43.342 125.037 42.967C125.681 42.5882 126.445 42.3988 127.327 42.3988C128.21 42.3988 128.971 42.5882 129.611 42.967C130.255 43.342 130.751 43.8685 131.1 44.5466C131.448 45.2208 131.623 46.0087 131.623 46.9102C131.623 47.8041 131.448 48.5901 131.1 49.2682C130.751 49.9424 130.255 50.4689 129.611 50.8477C128.971 51.2227 128.21 51.4102 127.327 51.4102ZM127.339 49.5352C127.74 49.5352 128.075 49.4216 128.344 49.1943C128.613 48.9632 128.816 48.6488 128.952 48.2511C129.092 47.8534 129.162 47.4007 129.162 46.8932C129.162 46.3856 129.092 45.9329 128.952 45.5352C128.816 45.1375 128.613 44.8231 128.344 44.592C128.075 44.361 127.74 44.2454 127.339 44.2454C126.933 44.2454 126.592 44.361 126.316 44.592C126.043 44.8231 125.837 45.1375 125.697 45.5352C125.56 45.9329 125.492 46.3856 125.492 46.8932C125.492 47.4007 125.56 47.8534 125.697 48.2511C125.837 48.6488 126.043 48.9632 126.316 49.1943C126.592 49.4216 126.933 49.5352 127.339 49.5352ZM136.98 51.4102C136.097 51.4102 135.334 51.2227 134.69 50.8477C134.05 50.4689 133.555 49.9424 133.207 49.2682C132.859 48.5901 132.684 47.8041 132.684 46.9102C132.684 46.0087 132.859 45.2208 133.207 44.5466C133.555 43.8685 134.05 43.342 134.69 42.967C135.334 42.5882 136.097 42.3988 136.98 42.3988C137.862 42.3988 138.624 42.5882 139.264 42.967C139.908 43.342 140.404 43.8685 140.752 44.5466C141.101 45.2208 141.275 46.0087 141.275 46.9102C141.275 47.8041 141.101 48.5901 140.752 49.2682C140.404 49.9424 139.908 50.4689 139.264 50.8477C138.624 51.2227 137.862 51.4102 136.98 51.4102ZM136.991 49.5352C137.393 49.5352 137.728 49.4216 137.997 49.1943C138.266 48.9632 138.468 48.6488 138.605 48.2511C138.745 47.8534 138.815 47.4007 138.815 46.8932C138.815 46.3856 138.745 45.9329 138.605 45.5352C138.468 45.1375 138.266 44.8231 137.997 44.592C137.728 44.361 137.393 44.2454 136.991 44.2454C136.586 44.2454 136.245 44.361 135.968 44.592C135.696 44.8231 135.489 45.1375 135.349 45.5352C135.213 45.9329 135.144 46.3856 135.144 46.8932C135.144 47.4007 135.213 47.8534 135.349 48.2511C135.489 48.6488 135.696 48.9632 135.968 49.1943C136.245 49.4216 136.586 49.5352 136.991 49.5352ZM144.882 48.7284L144.888 45.825H145.24L148.036 42.5125H150.814L147.058 46.8988H146.484L144.882 48.7284ZM142.689 51.2397V39.6034H145.109V51.2397H142.689ZM148.144 51.2397L145.575 47.4386L147.189 45.7284L150.979 51.2397H148.144ZM151.842 51.2397V42.5125H154.262V51.2397H151.842ZM153.057 41.3875C152.698 41.3875 152.389 41.2682 152.131 41.0295C151.878 40.7871 151.751 40.4973 151.751 40.1602C151.751 39.8269 151.878 39.5409 152.131 39.3022C152.389 39.0598 152.698 38.9386 153.057 38.9386C153.417 38.9386 153.724 39.0598 153.978 39.3022C154.235 39.5409 154.364 39.8269 154.364 40.1602C154.364 40.4973 154.235 40.7871 153.978 41.0295C153.724 41.2682 153.417 41.3875 153.057 41.3875ZM158.461 46.1943V51.2397H156.041V42.5125H158.348V44.0522H158.45C158.643 43.5447 158.967 43.1432 159.422 42.8477C159.876 42.5485 160.427 42.3988 161.075 42.3988C161.681 42.3988 162.209 42.5314 162.66 42.7966C163.111 43.0617 163.461 43.4405 163.711 43.9329C163.961 44.4216 164.086 45.0049 164.086 45.6829V51.2397H161.666V46.1147C161.67 45.5807 161.533 45.164 161.257 44.8647C160.98 44.5617 160.6 44.4102 160.115 44.4102C159.789 44.4102 159.501 44.4803 159.251 44.6204C159.005 44.7606 158.812 44.9651 158.672 45.2341C158.535 45.4992 158.465 45.8193 158.461 46.1943ZM169.766 54.6943C168.982 54.6943 168.309 54.5863 167.749 54.3704C167.192 54.1583 166.749 53.8685 166.419 53.5011C166.09 53.1337 165.876 52.7208 165.777 52.2625L168.016 51.9613C168.084 52.1356 168.192 52.2985 168.34 52.45C168.487 52.6015 168.683 52.7227 168.925 52.8136C169.171 52.9083 169.47 52.9557 169.823 52.9557C170.349 52.9557 170.783 52.8269 171.124 52.5693C171.469 52.3155 171.641 51.8894 171.641 51.2909V49.6943H171.539C171.433 49.9367 171.273 50.1659 171.061 50.3818C170.849 50.5977 170.576 50.7738 170.243 50.9102C169.91 51.0466 169.512 51.1147 169.05 51.1147C168.395 51.1147 167.798 50.9632 167.26 50.6602C166.726 50.3534 166.3 49.8856 165.982 49.2568C165.667 48.6242 165.51 47.825 165.51 46.8591C165.51 45.8704 165.671 45.0447 165.993 44.3818C166.315 43.7189 166.743 43.2227 167.277 42.8932C167.815 42.5636 168.404 42.3988 169.044 42.3988C169.533 42.3988 169.942 42.4822 170.272 42.6488C170.601 42.8117 170.866 43.0163 171.067 43.2625C171.272 43.5049 171.429 43.7435 171.539 43.9784H171.629V42.5125H174.033V51.325C174.033 52.0674 173.851 52.6886 173.487 53.1886C173.124 53.6886 172.62 54.0636 171.976 54.3136C171.336 54.5674 170.599 54.6943 169.766 54.6943ZM169.817 49.2966C170.207 49.2966 170.537 49.2 170.806 49.0068C171.078 48.8098 171.287 48.5295 171.431 48.1659C171.578 47.7985 171.652 47.3591 171.652 46.8477C171.652 46.3363 171.58 45.8932 171.436 45.5182C171.292 45.1394 171.084 44.8458 170.811 44.6375C170.539 44.4291 170.207 44.325 169.817 44.325C169.419 44.325 169.084 44.4329 168.811 44.6488C168.539 44.861 168.332 45.1564 168.192 45.5352C168.052 45.914 167.982 46.3515 167.982 46.8477C167.982 47.3515 168.052 47.7871 168.192 48.1545C168.336 48.5182 168.542 48.8004 168.811 49.0011C169.084 49.1981 169.419 49.2966 169.817 49.2966ZM183.984 42.5125V44.3307H178.729V42.5125H183.984ZM179.922 40.4216H182.342V48.5579C182.342 48.7814 182.376 48.9557 182.444 49.0807C182.513 49.2019 182.607 49.2871 182.729 49.3363C182.854 49.3856 182.997 49.4102 183.16 49.4102C183.274 49.4102 183.388 49.4007 183.501 49.3818C183.615 49.3591 183.702 49.342 183.763 49.3307L184.143 51.1318C184.022 51.1697 183.852 51.2132 183.632 51.2625C183.412 51.3155 183.145 51.3477 182.831 51.3591C182.247 51.3818 181.736 51.3041 181.297 51.1261C180.861 50.9481 180.522 50.6716 180.28 50.2966C180.037 49.9216 179.918 49.4481 179.922 48.8761V40.4216ZM185.401 51.2397V42.5125H187.821V51.2397H185.401ZM186.617 41.3875C186.257 41.3875 185.948 41.2682 185.691 41.0295C185.437 40.7871 185.31 40.4973 185.31 40.1602C185.31 39.8269 185.437 39.5409 185.691 39.3022C185.948 39.0598 186.257 38.9386 186.617 38.9386C186.977 38.9386 187.283 39.0598 187.537 39.3022C187.795 39.5409 187.924 39.8269 187.924 40.1602C187.924 40.4973 187.795 40.7871 187.537 41.0295C187.283 41.2682 186.977 41.3875 186.617 41.3875ZM189.6 51.2397V42.5125H191.907V44.0522H192.009C192.191 43.5409 192.494 43.1375 192.918 42.842C193.343 42.5466 193.85 42.3988 194.441 42.3988C195.04 42.3988 195.549 42.5485 195.97 42.8477C196.39 43.1432 196.67 43.5447 196.811 44.0522H196.901C197.079 43.5522 197.401 43.1526 197.867 42.8534C198.337 42.5504 198.892 42.3988 199.532 42.3988C200.346 42.3988 201.007 42.6583 201.515 43.1772C202.026 43.6924 202.282 44.4235 202.282 45.3704V51.2397H199.867V45.8477C199.867 45.3629 199.739 44.9992 199.481 44.7568C199.223 44.5144 198.901 44.3932 198.515 44.3932C198.076 44.3932 197.733 44.5333 197.487 44.8136C197.24 45.0901 197.117 45.4557 197.117 45.9102V51.2397H194.771V45.7966C194.771 45.3685 194.648 45.0276 194.401 44.7738C194.159 44.52 193.839 44.3932 193.441 44.3932C193.172 44.3932 192.93 44.4613 192.714 44.5977C192.502 44.7303 192.333 44.9178 192.208 45.1602C192.083 45.3988 192.021 45.6791 192.021 46.0011V51.2397H189.6ZM208.011 51.4102C207.114 51.4102 206.341 51.2284 205.693 50.8647C205.049 50.4973 204.553 49.9784 204.204 49.3079C203.856 48.6337 203.682 47.8363 203.682 46.9159C203.682 46.0182 203.856 45.2303 204.204 44.5522C204.553 43.8742 205.044 43.3458 205.676 42.967C206.312 42.5882 207.059 42.3988 207.915 42.3988C208.49 42.3988 209.026 42.4916 209.523 42.6772C210.023 42.8591 210.458 43.1337 210.829 43.5011C211.204 43.8685 211.496 44.3307 211.704 44.8875C211.913 45.4405 212.017 46.0882 212.017 46.8307V47.4954H204.648V45.9954H209.739C209.739 45.6469 209.663 45.3382 209.511 45.0693C209.36 44.8004 209.15 44.5901 208.881 44.4386C208.615 44.2833 208.307 44.2057 207.954 44.2057C207.587 44.2057 207.261 44.2909 206.977 44.4613C206.697 44.628 206.477 44.8534 206.318 45.1375C206.159 45.4178 206.078 45.7303 206.074 46.075V47.5011C206.074 47.9329 206.153 48.306 206.312 48.6204C206.475 48.9348 206.704 49.1772 207 49.3477C207.295 49.5182 207.646 49.6034 208.051 49.6034C208.32 49.6034 208.566 49.5655 208.79 49.4897C209.013 49.414 209.204 49.3004 209.364 49.1488C209.523 48.9973 209.644 48.8117 209.727 48.592L211.966 48.7397C211.852 49.2776 211.619 49.7473 211.267 50.1488C210.919 50.5466 210.468 50.8572 209.915 51.0807C209.365 51.3004 208.731 51.4102 208.011 51.4102Z" fill="white"/>
<path d="M104.176 22.2613C104.724 22.3538 105.089 22.8669 104.992 23.4073C104.894 23.9477 104.371 24.3109 103.824 24.2184L104.176 22.2613ZM37.0132 46.1888L38.9619 34.8751L47.917 42.1312L37.0132 46.1888ZM103.824 24.2184C91.0099 22.0545 79.9029 21.7862 70.0291 24.1473C60.1774 26.5031 51.4916 31.4913 43.5317 39.946L42.0593 38.6006C50.2723 29.877 59.3023 24.6723 69.5664 22.2179C79.8085 19.7687 91.2173 20.0729 104.176 22.2613L103.824 24.2184Z" fill="white"/>
</svg>
