<svg width="326" height="109" viewBox="0 0 326 109" fill="none" xmlns="http://www.w3.org/2000/svg">
<path d="M99.2937 78.8705C99.8272 78.8713 100.308 78.4389 100.367 77.9046C100.426 77.3703 100.041 76.9364 99.5079 76.9356L99.2937 78.8705ZM17.4997 41.8084L18.568 52.7474L27.7092 45.3164L17.4997 41.8084ZM99.5079 76.9356C91.4377 76.9227 77.5037 75.2326 63.0101 70.7082C48.5117 66.1823 33.5485 58.8495 23.3242 47.6158L21.8209 48.9978C32.322 60.5356 47.6015 67.9879 62.2501 72.5607C76.9036 77.135 91.021 78.8572 99.2937 78.8705L99.5079 76.9356Z" fill="white"/>
<path d="M109.112 69.392V67.3636H118.668V69.392H115.106V79H112.674V69.392H109.112ZM121.338 79.1648C120.781 79.1648 120.285 79.0682 119.849 78.875C119.414 78.678 119.069 78.3883 118.815 78.0057C118.565 77.6193 118.44 77.1383 118.44 76.5625C118.44 76.0777 118.529 75.6705 118.707 75.3409C118.885 75.0114 119.128 74.7462 119.435 74.5455C119.741 74.3447 120.09 74.1932 120.48 74.0909C120.874 73.9886 121.287 73.9167 121.719 73.875C122.226 73.822 122.635 73.7727 122.946 73.7273C123.257 73.678 123.482 73.6061 123.622 73.5114C123.762 73.4167 123.832 73.2765 123.832 73.0909V73.0568C123.832 72.697 123.719 72.4186 123.491 72.2216C123.268 72.0246 122.95 71.9261 122.537 71.9261C122.101 71.9261 121.755 72.0227 121.497 72.2159C121.24 72.4053 121.069 72.6439 120.986 72.9318L118.747 72.75C118.861 72.2197 119.084 71.7614 119.418 71.375C119.751 70.9848 120.181 70.6856 120.707 70.4773C121.238 70.2652 121.851 70.1591 122.548 70.1591C123.033 70.1591 123.497 70.2159 123.94 70.3295C124.387 70.4432 124.783 70.6193 125.128 70.858C125.476 71.0966 125.751 71.4034 125.952 71.7784C126.152 72.1496 126.253 72.5947 126.253 73.1136V79H123.957V77.7898H123.889C123.749 78.0625 123.562 78.303 123.327 78.5114C123.092 78.7159 122.81 78.8769 122.48 78.9943C122.151 79.108 121.77 79.1648 121.338 79.1648ZM122.031 77.4943C122.387 77.4943 122.702 77.4242 122.974 77.2841C123.247 77.1402 123.461 76.947 123.616 76.7045C123.772 76.4621 123.849 76.1875 123.849 75.8807V74.9545C123.774 75.0038 123.669 75.0492 123.537 75.0909C123.408 75.1288 123.262 75.1648 123.099 75.1989C122.937 75.2292 122.774 75.2576 122.611 75.2841C122.448 75.3068 122.3 75.3277 122.168 75.3466C121.883 75.3883 121.635 75.4545 121.423 75.5455C121.211 75.6364 121.046 75.7595 120.929 75.9148C120.812 76.0663 120.753 76.2557 120.753 76.483C120.753 76.8125 120.872 77.0644 121.111 77.2386C121.353 77.4091 121.66 77.4943 122.031 77.4943ZM127.971 82.2727V70.2727H130.357V71.7386H130.465C130.571 71.5038 130.724 71.2652 130.925 71.0227C131.13 70.7765 131.395 70.572 131.721 70.4091C132.05 70.2424 132.459 70.1591 132.948 70.1591C133.584 70.1591 134.171 70.3258 134.709 70.6591C135.247 70.9886 135.677 71.4867 135.999 72.1534C136.321 72.8163 136.482 73.6477 136.482 74.6477C136.482 75.6212 136.325 76.4432 136.01 77.1136C135.7 77.7803 135.276 78.286 134.738 78.6307C134.204 78.9716 133.605 79.142 132.942 79.142C132.473 79.142 132.073 79.0644 131.743 78.9091C131.418 78.7538 131.151 78.5587 130.942 78.3239C130.734 78.0852 130.575 77.8447 130.465 77.6023H130.391V82.2727H127.971ZM130.34 74.6364C130.34 75.1553 130.412 75.608 130.556 75.9943C130.7 76.3807 130.908 76.6818 131.181 76.8977C131.454 77.1098 131.785 77.2159 132.175 77.2159C132.569 77.2159 132.902 77.108 133.175 76.892C133.448 76.6723 133.654 76.3693 133.795 75.983C133.938 75.5928 134.01 75.1439 134.01 74.6364C134.01 74.1326 133.94 73.6894 133.8 73.3068C133.66 72.9242 133.454 72.625 133.181 72.4091C132.908 72.1932 132.573 72.0852 132.175 72.0852C131.781 72.0852 131.448 72.1894 131.175 72.3977C130.906 72.6061 130.7 72.9015 130.556 73.2841C130.412 73.6667 130.34 74.1174 130.34 74.6364ZM146.121 70.2727V72.0909H140.865V70.2727H146.121ZM142.058 68.1818H144.479V76.3182C144.479 76.5417 144.513 76.7159 144.581 76.8409C144.649 76.9621 144.744 77.0473 144.865 77.0966C144.99 77.1458 145.134 77.1705 145.297 77.1705C145.411 77.1705 145.524 77.161 145.638 77.142C145.752 77.1193 145.839 77.1023 145.899 77.0909L146.28 78.892C146.159 78.9299 145.988 78.9735 145.769 79.0227C145.549 79.0758 145.282 79.108 144.967 79.1193C144.384 79.142 143.873 79.0644 143.433 78.8864C142.998 78.7083 142.659 78.4318 142.416 78.0568C142.174 77.6818 142.055 77.2083 142.058 76.6364V68.1818ZM151.387 79.1705C150.504 79.1705 149.741 78.983 149.097 78.608C148.457 78.2292 147.963 77.7027 147.614 77.0284C147.266 76.3504 147.092 75.5644 147.092 74.6705C147.092 73.7689 147.266 72.9811 147.614 72.3068C147.963 71.6288 148.457 71.1023 149.097 70.7273C149.741 70.3485 150.504 70.1591 151.387 70.1591C152.27 70.1591 153.031 70.3485 153.671 70.7273C154.315 71.1023 154.811 71.6288 155.16 72.3068C155.508 72.9811 155.682 73.7689 155.682 74.6705C155.682 75.5644 155.508 76.3504 155.16 77.0284C154.811 77.7027 154.315 78.2292 153.671 78.608C153.031 78.983 152.27 79.1705 151.387 79.1705ZM151.398 77.2955C151.8 77.2955 152.135 77.1818 152.404 76.9545C152.673 76.7235 152.876 76.4091 153.012 76.0114C153.152 75.6136 153.222 75.161 153.222 74.6534C153.222 74.1458 153.152 73.6932 153.012 73.2955C152.876 72.8977 152.673 72.5833 152.404 72.3523C152.135 72.1212 151.8 72.0057 151.398 72.0057C150.993 72.0057 150.652 72.1212 150.376 72.3523C150.103 72.5833 149.896 72.8977 149.756 73.2955C149.62 73.6932 149.552 74.1458 149.552 74.6534C149.552 75.161 149.62 75.6136 149.756 76.0114C149.896 76.4091 150.103 76.7235 150.376 76.9545C150.652 77.1818 150.993 77.2955 151.398 77.2955ZM164.583 79.1705C163.689 79.1705 162.92 78.9811 162.276 78.6023C161.636 78.2197 161.143 77.6894 160.798 77.0114C160.458 76.3333 160.287 75.553 160.287 74.6705C160.287 73.7765 160.459 72.9924 160.804 72.3182C161.153 71.6402 161.647 71.1117 162.287 70.733C162.927 70.3504 163.689 70.1591 164.571 70.1591C165.333 70.1591 165.999 70.2973 166.571 70.5739C167.143 70.8504 167.596 71.2386 167.929 71.7386C168.263 72.2386 168.446 72.8258 168.48 73.5H166.196C166.132 73.0644 165.961 72.714 165.685 72.4489C165.412 72.1799 165.054 72.0455 164.611 72.0455C164.236 72.0455 163.908 72.1477 163.628 72.3523C163.352 72.553 163.136 72.8466 162.98 73.233C162.825 73.6193 162.747 74.0871 162.747 74.6364C162.747 75.1932 162.823 75.6667 162.975 76.0568C163.13 76.447 163.348 76.7443 163.628 76.9489C163.908 77.1534 164.236 77.2557 164.611 77.2557C164.888 77.2557 165.136 77.1989 165.355 77.0852C165.579 76.9716 165.763 76.8068 165.906 76.5909C166.054 76.3712 166.151 76.108 166.196 75.8011H168.48C168.442 76.4678 168.261 77.0549 167.935 77.5625C167.613 78.0663 167.168 78.4602 166.6 78.7443C166.031 79.0284 165.359 79.1705 164.583 79.1705ZM172.29 73.9545V79H169.87V67.3636H172.222V71.8125H172.325C172.522 71.2973 172.84 70.8939 173.279 70.6023C173.719 70.3068 174.27 70.1591 174.933 70.1591C175.539 70.1591 176.067 70.2917 176.518 70.5568C176.972 70.8182 177.325 71.1951 177.575 71.6875C177.828 72.1761 177.953 72.7614 177.95 73.4432V79H175.529V73.875C175.533 73.3371 175.397 72.9186 175.12 72.6193C174.847 72.3201 174.465 72.1705 173.972 72.1705C173.643 72.1705 173.351 72.2405 173.097 72.3807C172.847 72.5208 172.65 72.7254 172.506 72.9943C172.366 73.2595 172.294 73.5795 172.29 73.9545ZM182.183 79.1648C181.626 79.1648 181.13 79.0682 180.694 78.875C180.259 78.678 179.914 78.3883 179.66 78.0057C179.41 77.6193 179.285 77.1383 179.285 76.5625C179.285 76.0777 179.374 75.6705 179.552 75.3409C179.73 75.0114 179.973 74.7462 180.28 74.5455C180.586 74.3447 180.935 74.1932 181.325 74.0909C181.719 73.9886 182.132 73.9167 182.564 73.875C183.071 73.822 183.48 73.7727 183.791 73.7273C184.102 73.678 184.327 73.6061 184.467 73.5114C184.607 73.4167 184.677 73.2765 184.677 73.0909V73.0568C184.677 72.697 184.564 72.4186 184.336 72.2216C184.113 72.0246 183.795 71.9261 183.382 71.9261C182.946 71.9261 182.6 72.0227 182.342 72.2159C182.085 72.4053 181.914 72.6439 181.831 72.9318L179.592 72.75C179.706 72.2197 179.929 71.7614 180.263 71.375C180.596 70.9848 181.026 70.6856 181.552 70.4773C182.083 70.2652 182.696 70.1591 183.393 70.1591C183.878 70.1591 184.342 70.2159 184.785 70.3295C185.232 70.4432 185.628 70.6193 185.973 70.858C186.321 71.0966 186.596 71.4034 186.797 71.7784C186.997 72.1496 187.098 72.5947 187.098 73.1136V79H184.802V77.7898H184.734C184.594 78.0625 184.407 78.303 184.172 78.5114C183.937 78.7159 183.655 78.8769 183.325 78.9943C182.996 79.108 182.615 79.1648 182.183 79.1648ZM182.876 77.4943C183.232 77.4943 183.547 77.4242 183.819 77.2841C184.092 77.1402 184.306 76.947 184.461 76.7045C184.617 76.4621 184.694 76.1875 184.694 75.8807V74.9545C184.619 75.0038 184.514 75.0492 184.382 75.0909C184.253 75.1288 184.107 75.1648 183.944 75.1989C183.782 75.2292 183.619 75.2576 183.456 75.2841C183.293 75.3068 183.145 75.3277 183.013 75.3466C182.728 75.3883 182.48 75.4545 182.268 75.5455C182.056 75.6364 181.891 75.7595 181.774 75.9148C181.657 76.0663 181.598 76.2557 181.598 76.483C181.598 76.8125 181.717 77.0644 181.956 77.2386C182.198 77.4091 182.505 77.4943 182.876 77.4943ZM191.236 73.9545V79H188.816V70.2727H191.122V71.8125H191.225C191.418 71.3049 191.742 70.9034 192.196 70.608C192.651 70.3087 193.202 70.1591 193.85 70.1591C194.456 70.1591 194.984 70.2917 195.435 70.5568C195.886 70.822 196.236 71.2008 196.486 71.6932C196.736 72.1818 196.861 72.7652 196.861 73.4432V79H194.441V73.875C194.444 73.3409 194.308 72.9242 194.032 72.625C193.755 72.322 193.374 72.1705 192.89 72.1705C192.564 72.1705 192.276 72.2405 192.026 72.3807C191.78 72.5208 191.586 72.7254 191.446 72.9943C191.31 73.2595 191.24 73.5795 191.236 73.9545ZM202.541 82.4545C201.757 82.4545 201.084 82.3466 200.524 82.1307C199.967 81.9186 199.524 81.6288 199.194 81.2614C198.864 80.8939 198.65 80.4811 198.552 80.0227L200.791 79.7216C200.859 79.8958 200.967 80.0587 201.114 80.2102C201.262 80.3617 201.457 80.483 201.7 80.5739C201.946 80.6686 202.245 80.7159 202.597 80.7159C203.124 80.7159 203.558 80.5871 203.899 80.3295C204.243 80.0758 204.416 79.6496 204.416 79.0511V77.4545H204.313C204.207 77.697 204.048 77.9261 203.836 78.142C203.624 78.358 203.351 78.5341 203.018 78.6705C202.685 78.8068 202.287 78.875 201.825 78.875C201.169 78.875 200.573 78.7235 200.035 78.4205C199.501 78.1136 199.075 77.6458 198.757 77.017C198.442 76.3845 198.285 75.5852 198.285 74.6193C198.285 73.6307 198.446 72.8049 198.768 72.142C199.09 71.4792 199.518 70.983 200.052 70.6534C200.59 70.3239 201.179 70.1591 201.819 70.1591C202.308 70.1591 202.717 70.2424 203.046 70.4091C203.376 70.572 203.641 70.7765 203.842 71.0227C204.046 71.2652 204.203 71.5038 204.313 71.7386H204.404V70.2727H206.808V79.0852C206.808 79.8277 206.626 80.4489 206.262 80.9489C205.899 81.4489 205.395 81.8239 204.751 82.0739C204.111 82.3277 203.374 82.4545 202.541 82.4545ZM202.592 77.0568C202.982 77.0568 203.311 76.9602 203.58 76.767C203.853 76.5701 204.061 76.2898 204.205 75.9261C204.353 75.5587 204.427 75.1193 204.427 74.608C204.427 74.0966 204.355 73.6534 204.211 73.2784C204.067 72.8996 203.859 72.6061 203.586 72.3977C203.313 72.1894 202.982 72.0852 202.592 72.0852C202.194 72.0852 201.859 72.1932 201.586 72.4091C201.313 72.6212 201.107 72.9167 200.967 73.2955C200.827 73.6742 200.757 74.1117 200.757 74.608C200.757 75.1117 200.827 75.5473 200.967 75.9148C201.111 76.2784 201.317 76.5606 201.586 76.7614C201.859 76.9583 202.194 77.0568 202.592 77.0568ZM212.551 79.1705C211.653 79.1705 210.881 78.9886 210.233 78.625C209.589 78.2576 209.093 77.7386 208.744 77.0682C208.396 76.3939 208.222 75.5966 208.222 74.6761C208.222 73.7784 208.396 72.9905 208.744 72.3125C209.093 71.6345 209.583 71.1061 210.216 70.7273C210.852 70.3485 211.598 70.1591 212.454 70.1591C213.03 70.1591 213.566 70.2519 214.062 70.4375C214.562 70.6193 214.998 70.8939 215.369 71.2614C215.744 71.6288 216.036 72.0909 216.244 72.6477C216.453 73.2008 216.557 73.8485 216.557 74.5909V75.2557H209.187V73.7557H214.278C214.278 73.4072 214.203 73.0985 214.051 72.8295C213.9 72.5606 213.689 72.3504 213.42 72.1989C213.155 72.0436 212.847 71.9659 212.494 71.9659C212.127 71.9659 211.801 72.0511 211.517 72.2216C211.237 72.3883 211.017 72.6136 210.858 72.8977C210.699 73.178 210.617 73.4905 210.614 73.8352V75.2614C210.614 75.6932 210.693 76.0663 210.852 76.3807C211.015 76.6951 211.244 76.9375 211.54 77.108C211.835 77.2784 212.186 77.3636 212.591 77.3636C212.86 77.3636 213.106 77.3258 213.329 77.25C213.553 77.1742 213.744 77.0606 213.903 76.9091C214.062 76.7576 214.184 76.572 214.267 76.3523L216.506 76.5C216.392 77.0379 216.159 77.5076 215.807 77.9091C215.458 78.3068 215.007 78.6174 214.454 78.8409C213.905 79.0606 213.271 79.1705 212.551 79.1705ZM149.929 103H145.804V91.3636H149.963C151.133 91.3636 152.141 91.5966 152.985 92.0625C153.83 92.5246 154.48 93.1894 154.934 94.0568C155.393 94.9242 155.622 95.9621 155.622 97.1705C155.622 98.3826 155.393 99.4242 154.934 100.295C154.48 101.167 153.826 101.835 152.974 102.301C152.126 102.767 151.11 103 149.929 103ZM148.264 100.892H149.826C150.554 100.892 151.165 100.763 151.662 100.506C152.162 100.244 152.537 99.8409 152.787 99.2955C153.04 98.7462 153.167 98.0379 153.167 97.1705C153.167 96.3106 153.04 95.608 152.787 95.0625C152.537 94.517 152.163 94.1155 151.667 93.858C151.171 93.6004 150.559 93.4716 149.832 93.4716H148.264V100.892ZM159.727 103.165C159.171 103.165 158.674 103.068 158.239 102.875C157.803 102.678 157.458 102.388 157.205 102.006C156.955 101.619 156.83 101.138 156.83 100.562C156.83 100.078 156.919 99.6705 157.097 99.3409C157.275 99.0114 157.517 98.7462 157.824 98.5455C158.131 98.3447 158.479 98.1932 158.869 98.0909C159.263 97.9886 159.676 97.9167 160.108 97.875C160.616 97.822 161.025 97.7727 161.335 97.7273C161.646 97.678 161.871 97.6061 162.012 97.5114C162.152 97.4167 162.222 97.2765 162.222 97.0909V97.0568C162.222 96.697 162.108 96.4186 161.881 96.2216C161.657 96.0246 161.339 95.9261 160.926 95.9261C160.491 95.9261 160.144 96.0227 159.887 96.2159C159.629 96.4053 159.458 96.6439 159.375 96.9318L157.137 96.75C157.25 96.2197 157.474 95.7614 157.807 95.375C158.14 94.9848 158.57 94.6856 159.097 94.4773C159.627 94.2652 160.241 94.1591 160.938 94.1591C161.422 94.1591 161.887 94.2159 162.33 94.3295C162.777 94.4432 163.172 94.6193 163.517 94.858C163.866 95.0966 164.14 95.4034 164.341 95.7784C164.542 96.1496 164.642 96.5947 164.642 97.1136V103H162.347V101.79H162.279C162.138 102.062 161.951 102.303 161.716 102.511C161.481 102.716 161.199 102.877 160.869 102.994C160.54 103.108 160.159 103.165 159.727 103.165ZM160.421 101.494C160.777 101.494 161.091 101.424 161.364 101.284C161.637 101.14 161.851 100.947 162.006 100.705C162.161 100.462 162.239 100.187 162.239 99.8807V98.9545C162.163 99.0038 162.059 99.0492 161.926 99.0909C161.797 99.1288 161.652 99.1648 161.489 99.1989C161.326 99.2292 161.163 99.2576 161 99.2841C160.837 99.3068 160.69 99.3277 160.557 99.3466C160.273 99.3883 160.025 99.4545 159.813 99.5455C159.601 99.6364 159.436 99.7595 159.318 99.9148C159.201 100.066 159.142 100.256 159.142 100.483C159.142 100.812 159.262 101.064 159.5 101.239C159.743 101.409 160.049 101.494 160.421 101.494ZM171.002 94.2727V96.0909H165.746V94.2727H171.002ZM166.94 92.1818H169.36V100.318C169.36 100.542 169.394 100.716 169.462 100.841C169.53 100.962 169.625 101.047 169.746 101.097C169.871 101.146 170.015 101.17 170.178 101.17C170.292 101.17 170.405 101.161 170.519 101.142C170.633 101.119 170.72 101.102 170.78 101.091L171.161 102.892C171.04 102.93 170.869 102.973 170.65 103.023C170.43 103.076 170.163 103.108 169.849 103.119C169.265 103.142 168.754 103.064 168.315 102.886C167.879 102.708 167.54 102.432 167.298 102.057C167.055 101.682 166.936 101.208 166.94 100.636V92.1818ZM176.302 103.17C175.405 103.17 174.632 102.989 173.984 102.625C173.34 102.258 172.844 101.739 172.495 101.068C172.147 100.394 171.973 99.5966 171.973 98.6761C171.973 97.7784 172.147 96.9905 172.495 96.3125C172.844 95.6345 173.334 95.1061 173.967 94.7273C174.603 94.3485 175.35 94.1591 176.206 94.1591C176.781 94.1591 177.317 94.2519 177.814 94.4375C178.314 94.6193 178.749 94.8939 179.12 95.2614C179.495 95.6288 179.787 96.0909 179.995 96.6477C180.204 97.2008 180.308 97.8485 180.308 98.5909V99.2557H172.939V97.7557H178.03C178.03 97.4072 177.954 97.0985 177.802 96.8295C177.651 96.5606 177.441 96.3504 177.172 96.1989C176.906 96.0436 176.598 95.9659 176.245 95.9659C175.878 95.9659 175.552 96.0511 175.268 96.2216C174.988 96.3883 174.768 96.6136 174.609 96.8977C174.45 97.178 174.369 97.4905 174.365 97.8352V99.2614C174.365 99.6932 174.444 100.066 174.603 100.381C174.766 100.695 174.995 100.938 175.291 101.108C175.586 101.278 175.937 101.364 176.342 101.364C176.611 101.364 176.857 101.326 177.081 101.25C177.304 101.174 177.495 101.061 177.655 100.909C177.814 100.758 177.935 100.572 178.018 100.352L180.257 100.5C180.143 101.038 179.91 101.508 179.558 101.909C179.209 102.307 178.759 102.617 178.206 102.841C177.656 103.061 177.022 103.17 176.302 103.17Z" fill="white"/>
<path d="M226.421 78.8705C225.887 78.8713 225.407 78.4389 225.348 77.9046C225.288 77.3703 225.673 76.9364 226.206 76.9356L226.421 78.8705ZM308.215 41.8084L307.146 52.7474L298.005 45.3164L308.215 41.8084ZM226.206 76.9356C234.277 76.9227 248.211 75.2326 262.704 70.7082C277.203 66.1823 292.166 58.8495 302.39 47.6158L303.893 48.9978C293.392 60.5356 278.113 67.9879 263.464 72.5607C248.811 77.135 234.693 78.8572 226.421 78.8705L226.206 76.9356Z" fill="white"/>
<path d="M316 28L320 24L316 20" stroke="white" stroke-width="1.33333" stroke-linecap="round" stroke-linejoin="round"/>
<path d="M10 28L6 24L10 20" stroke="white" stroke-width="1.33333" stroke-linecap="round" stroke-linejoin="round"/>
<path d="M41.3107 4.72727H42.6424L44.9577 10.3807H45.043L47.3583 4.72727H48.69V12H47.646V6.73722H47.5785L45.4336 11.9893H44.5671L42.4222 6.73366H42.3548V12H41.3107V4.72727ZM52.4977 12.1101C51.9863 12.1101 51.5401 11.9929 51.1589 11.7585C50.7778 11.5241 50.4818 11.1963 50.2711 10.7749C50.0604 10.3535 49.9551 9.86103 49.9551 9.29759C49.9551 8.73177 50.0604 8.23698 50.2711 7.81321C50.4818 7.38944 50.7778 7.06037 51.1589 6.82599C51.5401 6.59162 51.9863 6.47443 52.4977 6.47443C53.0091 6.47443 53.4553 6.59162 53.8365 6.82599C54.2176 7.06037 54.5136 7.38944 54.7243 7.81321C54.935 8.23698 55.0403 8.73177 55.0403 9.29759C55.0403 9.86103 54.935 10.3535 54.7243 10.7749C54.5136 11.1963 54.2176 11.5241 53.8365 11.7585C53.4553 11.9929 53.0091 12.1101 52.4977 12.1101ZM52.5012 11.2188C52.8327 11.2188 53.1073 11.1312 53.3251 10.956C53.5429 10.7808 53.7039 10.5476 53.8081 10.2564C53.9146 9.9652 53.9679 9.64441 53.9679 9.29403C53.9679 8.94602 53.9146 8.62642 53.8081 8.33523C53.7039 8.04167 53.5429 7.80611 53.3251 7.62855C53.1073 7.45099 52.8327 7.36222 52.5012 7.36222C52.1674 7.36222 51.8904 7.45099 51.6703 7.62855C51.4525 7.80611 51.2903 8.04167 51.1838 8.33523C51.0796 8.62642 51.0275 8.94602 51.0275 9.29403C51.0275 9.64441 51.0796 9.9652 51.1838 10.2564C51.2903 10.5476 51.4525 10.7808 51.6703 10.956C51.8904 11.1312 52.1674 11.2188 52.5012 11.2188ZM57.2873 8.76136V12H56.2255V6.54545H57.2447V7.43324H57.3121C57.4376 7.14441 57.6341 6.91241 57.9016 6.73722C58.1715 6.56203 58.5112 6.47443 58.9208 6.47443C59.2925 6.47443 59.618 6.55256 59.8974 6.70881C60.1767 6.86269 60.3933 7.09233 60.5472 7.39773C60.7011 7.70312 60.7781 8.08073 60.7781 8.53054V12H59.7163V8.65838C59.7163 8.26302 59.6133 7.95407 59.4073 7.73153C59.2013 7.50663 58.9184 7.39418 58.5586 7.39418C58.3124 7.39418 58.0934 7.44744 57.9016 7.55398C57.7122 7.66051 57.5619 7.81676 57.4506 8.02273C57.3417 8.22633 57.2873 8.47254 57.2873 8.76136Z" fill="white"/>
<rect x="39" y="22" width="24" height="24" rx="4" fill="#7E2EBC"/>
<path d="M47.697 39.169C46.9115 39.1657 46.2403 38.9586 45.6835 38.5476C45.1267 38.1366 44.7008 37.5384 44.4058 36.7528C44.1108 35.9673 43.9633 35.0211 43.9633 33.9141C43.9633 32.8104 44.1108 31.8674 44.4058 31.0852C44.7041 30.303 45.1317 29.7064 45.6885 29.2955C46.2486 28.8845 46.9181 28.679 47.697 28.679C48.4759 28.679 49.1437 28.8861 49.7006 29.3004C50.2574 29.7114 50.6833 30.308 50.9782 31.0902C51.2765 31.8691 51.4257 32.8104 51.4257 33.9141C51.4257 35.0244 51.2782 35.9723 50.9832 36.7578C50.6882 37.54 50.2623 38.1383 49.7055 38.5526C49.1487 38.9635 48.4792 39.169 47.697 39.169ZM47.697 37.8416C48.3864 37.8416 48.925 37.5052 49.3128 36.8324C49.7039 36.1596 49.8994 35.1868 49.8994 33.9141C49.8994 33.0689 49.8099 32.3546 49.6309 31.7713C49.4553 31.1847 49.2017 30.7405 48.8703 30.4389C48.5422 30.134 48.1511 29.9815 47.697 29.9815C47.0109 29.9815 46.4723 30.3196 46.0812 30.9957C45.6901 31.6719 45.4929 32.6446 45.4896 33.9141C45.4896 34.7625 45.5774 35.4801 45.7531 36.0668C45.9321 36.6501 46.1856 37.0926 46.5138 37.3942C46.8419 37.6925 47.2363 37.8416 47.697 37.8416ZM57.0523 28.8182V39H55.5111V30.3594H55.4514L53.0154 31.9503V30.4787L55.5558 28.8182H57.0523Z" fill="white"/>
<path d="M154.646 5.67188V4.72727H160.275V5.67188H158.006V12H156.912V5.67188H154.646ZM164.147 9.73793V6.54545H165.212V12H164.168V11.0554H164.111C163.986 11.3466 163.784 11.5893 163.507 11.7834C163.233 11.9751 162.891 12.071 162.481 12.071C162.131 12.071 161.821 11.9941 161.551 11.8402C161.283 11.6839 161.072 11.4531 160.919 11.1477C160.767 10.8423 160.691 10.4647 160.691 10.0149V6.54545H161.753V9.88707C161.753 10.2588 161.856 10.5547 162.062 10.7749C162.268 10.995 162.536 11.1051 162.865 11.1051C163.063 11.1051 163.261 11.0554 163.458 10.956C163.657 10.8565 163.821 10.7062 163.951 10.505C164.084 10.3037 164.149 10.0481 164.147 9.73793ZM168.989 12.1101C168.452 12.1101 167.989 11.9953 167.601 11.7656C167.215 11.5336 166.917 11.2081 166.706 10.7891C166.498 10.3677 166.394 9.87405 166.394 9.30824C166.394 8.74953 166.498 8.2571 166.706 7.83097C166.917 7.40483 167.21 7.07221 167.587 6.8331C167.966 6.59399 168.408 6.47443 168.915 6.47443C169.223 6.47443 169.521 6.52533 169.81 6.62713C170.099 6.72893 170.358 6.88873 170.587 7.10653C170.817 7.32434 170.998 7.60724 171.131 7.95526C171.263 8.3009 171.33 8.72112 171.33 9.21591V9.59233H166.994V8.79688H170.289C170.289 8.51752 170.232 8.27012 170.119 8.05469C170.005 7.83688 169.845 7.66525 169.639 7.53977C169.436 7.4143 169.197 7.35156 168.922 7.35156C168.624 7.35156 168.363 7.42495 168.141 7.57173C167.921 7.71615 167.75 7.90554 167.629 8.13991C167.511 8.37192 167.452 8.62405 167.452 8.89631V9.51776C167.452 9.88234 167.516 10.1925 167.644 10.4482C167.774 10.7038 167.955 10.8991 168.187 11.0341C168.419 11.1667 168.69 11.233 169 11.233C169.201 11.233 169.385 11.2045 169.551 11.1477C169.716 11.0885 169.859 11.0009 169.98 10.8849C170.101 10.7689 170.193 10.6257 170.257 10.4553L171.262 10.6364C171.182 10.9323 171.037 11.1915 170.829 11.4141C170.623 11.6342 170.364 11.8059 170.051 11.929C169.741 12.0497 169.387 12.1101 168.989 12.1101Z" fill="white"/>
<rect x="151" y="22" width="24" height="24" rx="4" fill="#F6F6F6"/>
<path d="M158.713 39.169C157.927 39.1657 157.256 38.9586 156.699 38.5476C156.142 38.1366 155.716 37.5384 155.421 36.7528C155.126 35.9673 154.979 35.0211 154.979 33.9141C154.979 32.8104 155.126 31.8674 155.421 31.0852C155.72 30.303 156.147 29.7064 156.704 29.2955C157.264 28.8845 157.934 28.679 158.713 28.679C159.492 28.679 160.159 28.8861 160.716 29.3004C161.273 29.7114 161.699 30.308 161.994 31.0902C162.292 31.8691 162.441 32.8104 162.441 33.9141C162.441 35.0244 162.294 35.9723 161.999 36.7578C161.704 37.54 161.278 38.1383 160.721 38.5526C160.164 38.9635 159.495 39.169 158.713 39.169ZM158.713 37.8416C159.402 37.8416 159.941 37.5052 160.328 36.8324C160.719 36.1596 160.915 35.1868 160.915 33.9141C160.915 33.0689 160.826 32.3546 160.647 31.7713C160.471 31.1847 160.217 30.7405 159.886 30.4389C159.558 30.134 159.167 29.9815 158.713 29.9815C158.027 29.9815 157.488 30.3196 157.097 30.9957C156.706 31.6719 156.509 32.6446 156.505 33.9141C156.505 34.7625 156.593 35.4801 156.769 36.0668C156.948 36.6501 157.201 37.0926 157.529 37.3942C157.858 37.6925 158.252 37.8416 158.713 37.8416ZM164.205 39V37.8864L167.65 34.3168C168.018 33.929 168.321 33.5893 168.56 33.2976C168.802 33.0026 168.983 32.7225 169.102 32.4574C169.221 32.1922 169.281 31.9105 169.281 31.6122C169.281 31.2741 169.201 30.9825 169.042 30.7372C168.883 30.4886 168.666 30.2981 168.391 30.1655C168.116 30.0296 167.806 29.9616 167.461 29.9616C167.097 29.9616 166.779 30.0362 166.507 30.1854C166.235 30.3345 166.026 30.545 165.88 30.8168C165.735 31.0885 165.662 31.4067 165.662 31.7713H164.195C164.195 31.1515 164.338 30.6096 164.623 30.1456C164.908 29.6816 165.299 29.322 165.796 29.0668C166.293 28.8082 166.858 28.679 167.491 28.679C168.131 28.679 168.694 28.8066 169.182 29.0618C169.672 29.3137 170.055 29.6584 170.33 30.0959C170.605 30.5301 170.743 31.0206 170.743 31.5675C170.743 31.9453 170.671 32.3149 170.529 32.6761C170.39 33.0374 170.146 33.4401 169.798 33.8842C169.45 34.325 168.966 34.8603 168.346 35.4901L166.323 37.608V37.6825H170.907V39H164.205Z" fill="black"/>
<path d="M266.539 12L264.522 4.72727H265.676L267.093 10.3594H267.161L268.635 4.72727H269.778L271.252 10.3629H271.319L272.733 4.72727H273.89L271.87 12H270.765L269.235 6.55256H269.178L267.647 12H266.539ZM276.619 12.1101C276.082 12.1101 275.619 11.9953 275.231 11.7656C274.845 11.5336 274.547 11.2081 274.336 10.7891C274.128 10.3677 274.023 9.87405 274.023 9.30824C274.023 8.74953 274.128 8.2571 274.336 7.83097C274.547 7.40483 274.84 7.07221 275.217 6.8331C275.595 6.59399 276.038 6.47443 276.545 6.47443C276.853 6.47443 277.151 6.52533 277.44 6.62713C277.728 6.72893 277.988 6.88873 278.217 7.10653C278.447 7.32434 278.628 7.60724 278.761 7.95526C278.893 8.3009 278.96 8.72112 278.96 9.21591V9.59233H274.624V8.79688H277.919C277.919 8.51752 277.862 8.27012 277.749 8.05469C277.635 7.83688 277.475 7.66525 277.269 7.53977C277.066 7.4143 276.826 7.35156 276.552 7.35156C276.254 7.35156 275.993 7.42495 275.771 7.57173C275.55 7.71615 275.38 7.90554 275.259 8.13991C275.141 8.37192 275.082 8.62405 275.082 8.89631V9.51776C275.082 9.88234 275.146 10.1925 275.273 10.4482C275.404 10.7038 275.585 10.8991 275.817 11.0341C276.049 11.1667 276.32 11.233 276.63 11.233C276.831 11.233 277.015 11.2045 277.18 11.1477C277.346 11.0885 277.489 11.0009 277.61 10.8849C277.731 10.7689 277.823 10.6257 277.887 10.4553L278.892 10.6364C278.812 10.9323 278.667 11.1915 278.459 11.4141C278.253 11.6342 277.994 11.8059 277.681 11.929C277.371 12.0497 277.017 12.1101 276.619 12.1101ZM282.18 12.1065C281.739 12.1065 281.346 11.9941 281.001 11.7692C280.657 11.5419 280.387 11.2187 280.191 10.7997C279.997 10.3783 279.9 9.87287 279.9 9.28338C279.9 8.69389 279.998 8.18963 280.194 7.7706C280.393 7.35156 280.666 7.03078 281.011 6.80824C281.357 6.5857 281.749 6.47443 282.187 6.47443C282.525 6.47443 282.797 6.53125 283.003 6.64489C283.212 6.75616 283.373 6.88636 283.486 7.03551C283.602 7.18466 283.692 7.31605 283.756 7.42969H283.82V4.72727H284.882V12H283.845V11.1513H283.756C283.692 11.2673 283.6 11.3999 283.479 11.549C283.361 11.6982 283.198 11.8284 282.989 11.9396C282.781 12.0509 282.511 12.1065 282.18 12.1065ZM282.414 11.201C282.719 11.201 282.977 11.1205 283.188 10.9595C283.401 10.7962 283.562 10.5701 283.671 10.2812C283.782 9.99242 283.838 9.65625 283.838 9.27273C283.838 8.89394 283.783 8.5625 283.675 8.27841C283.566 7.99432 283.406 7.77296 283.195 7.61435C282.984 7.45573 282.724 7.37642 282.414 7.37642C282.094 7.37642 281.828 7.45928 281.615 7.625C281.402 7.79072 281.241 8.01681 281.132 8.30327C281.025 8.58973 280.972 8.91288 280.972 9.27273C280.972 9.63731 281.027 9.9652 281.135 10.2564C281.244 10.5476 281.405 10.7784 281.618 10.9489C281.834 11.117 282.099 11.201 282.414 11.201Z" fill="white"/>
<rect x="263" y="22" width="24" height="24" rx="4" fill="#F6F6F6"/>
<path d="M270.494 39.169C269.708 39.1657 269.037 38.9586 268.48 38.5476C267.924 38.1366 267.498 37.5384 267.203 36.7528C266.908 35.9673 266.76 35.0211 266.76 33.9141C266.76 32.8104 266.908 31.8674 267.203 31.0852C267.501 30.303 267.929 29.7064 268.485 29.2955C269.045 28.8845 269.715 28.679 270.494 28.679C271.273 28.679 271.941 28.8861 272.497 29.3004C273.054 29.7114 273.48 30.308 273.775 31.0902C274.073 31.8691 274.223 32.8104 274.223 33.9141C274.223 35.0244 274.075 35.9723 273.78 36.7578C273.485 37.54 273.059 38.1383 272.502 38.5526C271.946 38.9635 271.276 39.169 270.494 39.169ZM270.494 37.8416C271.183 37.8416 271.722 37.5052 272.11 36.8324C272.501 36.1596 272.696 35.1868 272.696 33.9141C272.696 33.0689 272.607 32.3546 272.428 31.7713C272.252 31.1847 271.999 30.7405 271.667 30.4389C271.339 30.134 270.948 29.9815 270.494 29.9815C269.808 29.9815 269.269 30.3196 268.878 30.9957C268.487 31.6719 268.29 32.6446 268.286 33.9141C268.286 34.7625 268.374 35.4801 268.55 36.0668C268.729 36.6501 268.983 37.0926 269.311 37.3942C269.639 37.6925 270.033 37.8416 270.494 37.8416ZM279.531 39.1392C278.848 39.1392 278.238 39.0215 277.701 38.7862C277.168 38.5509 276.745 38.2244 276.434 37.8068C276.125 37.3859 275.96 36.8987 275.937 36.3452H277.498C277.517 36.6468 277.619 36.9086 277.801 37.1307C277.986 37.3494 278.228 37.5185 278.527 37.6378C278.825 37.7571 279.156 37.8168 279.521 37.8168C279.922 37.8168 280.277 37.7472 280.585 37.608C280.897 37.4687 281.14 37.2749 281.316 37.0263C281.491 36.7744 281.579 36.4844 281.579 36.1562C281.579 35.8149 281.491 35.5149 281.316 35.2564C281.143 34.9946 280.89 34.7891 280.555 34.6399C280.224 34.4908 279.823 34.4162 279.352 34.4162H278.492V33.1634H279.352C279.73 33.1634 280.061 33.0954 280.346 32.9595C280.635 32.8236 280.86 32.6347 281.022 32.3928C281.185 32.1475 281.266 31.8608 281.266 31.5327C281.266 31.2178 281.195 30.9444 281.052 30.7124C280.913 30.477 280.714 30.2931 280.456 30.1605C280.2 30.0279 279.899 29.9616 279.551 29.9616C279.219 29.9616 278.91 30.023 278.621 30.1456C278.336 30.2649 278.104 30.4373 277.925 30.6626C277.746 30.8847 277.65 31.1515 277.637 31.4631H276.15C276.167 30.9129 276.329 30.429 276.638 30.0114C276.949 29.5937 277.36 29.2673 277.87 29.032C278.381 28.7966 278.948 28.679 279.571 28.679C280.224 28.679 280.787 28.8066 281.261 29.0618C281.738 29.3137 282.106 29.6501 282.365 30.071C282.627 30.492 282.756 30.9527 282.753 31.4531C282.756 32.0232 282.597 32.5071 282.275 32.9048C281.957 33.3026 281.533 33.5694 281.003 33.7053V33.7848C281.679 33.8875 282.202 34.156 282.574 34.5902C282.948 35.0244 283.134 35.563 283.13 36.206C283.134 36.7661 282.978 37.2682 282.663 37.7124C282.352 38.1565 281.926 38.5062 281.385 38.7614C280.845 39.0133 280.227 39.1392 279.531 39.1392Z" fill="black"/>
</svg>
