
<svg width="180" height="166" viewBox="0 0 180 166" fill="none" xmlns="http://www.w3.org/2000/svg">
<path d="M47.9804 0H38.0483V1.31203H47.9804V0Z" fill="#EFE6F7"/>
<path d="M1.31203 14.8785H0C0.00341079 10.9448 1.56306 7.17235 4.3384 4.38472C7.11373 1.59709 10.8793 0.020793 14.8129 0H32.6565V1.31203H14.8129C11.2273 1.33282 7.79543 2.77088 5.26615 5.31246C2.73686 7.85404 1.31544 11.2928 1.31203 14.8785Z" fill="#EFE6F7"/>
<path d="M14.8147 5.18912H169.727C175.069 5.18912 179.401 9.52029 179.401 14.8631V40.369C179.401 45.7118 175.069 50.043 169.727 50.043H14.8147C9.47196 50.043 5.14078 45.7118 5.14078 40.369V14.8631C5.14078 9.52029 9.47196 5.18912 14.8147 5.18912Z" fill="#EFE6F7" stroke="#EFE6F7" stroke-width="1.19854"/>
<path d="M71.31 20.6738L73.5667 25.2397L78.618 25.9744L74.9574 29.5301L75.8234 34.5683L71.31 32.1935L66.7966 34.5683L67.6625 29.5301L64.002 25.9744L69.0533 25.2397L71.31 20.6738Z" fill="#FFCC00"/>
<path d="M91.8022 20.6738L94.0589 25.2397L99.1102 25.9744L95.4496 29.5301L96.3156 34.5683L91.8022 32.1935L87.2888 34.5683L88.1547 29.5301L84.4941 25.9744L89.5455 25.2397L91.8022 20.6738Z" fill="#FFCC00"/>
<path d="M112.298 20.6738L114.554 25.2397L119.606 25.9744L115.958 29.5301L116.811 34.5683L112.298 32.1935L107.784 34.5683L108.65 29.5301L104.99 25.9744L110.041 25.2397L112.298 20.6738Z" fill="#FFCC00"/>
<path d="M132.79 20.6738L135.047 25.2397L140.098 25.9744L136.451 29.5301L137.304 34.5683L132.79 32.1935L128.277 34.5683L129.143 29.5301L125.482 25.9744L130.534 25.2397L132.79 20.6738Z" fill="#FFCC00"/>
<path d="M153.286 23.6415L154.362 25.8326C154.459 26.0228 154.6 26.1867 154.773 26.3102C154.947 26.4336 155.148 26.5129 155.359 26.5411L157.774 26.8954L156.029 28.601C155.877 28.7485 155.763 28.9305 155.697 29.1316C155.63 29.3326 155.614 29.5467 155.648 29.7556L156.055 32.1698L153.903 31.0939C153.711 31.0015 153.5 30.9523 153.286 30.9496C153.077 30.9487 152.87 30.9982 152.683 31.0939L150.518 32.2354L150.885 29.7819C150.92 29.573 150.903 29.3589 150.837 29.1578C150.771 28.9568 150.657 28.7747 150.505 28.6273L148.76 26.9216L151.174 26.5674C151.391 26.5419 151.599 26.4626 151.777 26.3365C151.956 26.2105 152.101 26.0418 152.197 25.8457L153.273 23.6547M153.273 20.6895L151.017 25.2553L145.965 25.9901L149.626 29.5588L148.76 34.5839L153.273 32.2091L157.787 34.5839L156.921 29.5588L160.581 25.9901L155.53 25.2553L153.273 20.6895Z" fill="#3C3C43" fill-opacity="0.16"/>
<g filter="url(#filter0_d_29737_188541)">
<path d="M36.5402 43.3764C45.2429 43.3764 52.2978 36.3215 52.2978 27.6189C52.2978 18.9162 45.2429 11.8613 36.5402 11.8613C27.8376 11.8613 20.7827 18.9162 20.7827 27.6189C20.7827 36.3215 27.8376 43.3764 36.5402 43.3764Z" fill="#EFE6F7"/>
</g>
<path d="M49.5582 27.6198C49.5616 30.515 48.5985 33.3286 46.8217 35.6145C45.0448 37.9004 42.5559 39.5279 39.7493 40.239C36.9427 40.95 33.979 40.704 31.3281 39.5399C28.6772 38.3758 26.4906 36.3602 25.115 33.8126C24.0753 31.9145 23.5337 29.7839 23.5406 27.6198C23.6479 24.2411 25.0655 21.0368 27.4934 18.6848C29.9213 16.3327 33.1691 15.0176 36.5494 15.0176C39.9298 15.0176 43.1775 16.3327 45.6054 18.6848C48.0333 21.0368 49.4509 24.2411 49.5582 27.6198Z" fill="white"/>
<path d="M47.982 33.8127C46.8697 35.8767 45.2195 37.6011 43.2063 38.803C41.1932 40.005 38.8923 40.6396 36.5477 40.6396C34.203 40.6396 31.9021 40.005 29.889 38.803C27.8759 37.6011 26.2256 35.8767 25.1133 33.8127C28.4987 31.5534 32.4776 30.3477 36.5477 30.3477C40.6177 30.3477 44.5966 31.5534 47.982 33.8127Z" fill="#263238"/>
<path d="M42.3396 23.225C42.3396 24.3719 41.9995 25.4932 41.3623 26.4468C40.725 27.4005 39.8193 28.1438 38.7597 28.5827C37.7 29.0217 36.534 29.1365 35.409 28.9127C34.2841 28.689 33.2508 28.1367 32.4398 27.3256C31.6287 26.5146 31.0764 25.4813 30.8526 24.3563C30.6289 23.2314 30.7437 22.0654 31.1826 21.0057C31.6216 19.9461 32.3649 19.0403 33.3185 18.4031C34.2722 17.7659 35.3934 17.4258 36.5404 17.4258C38.0784 17.4258 39.5535 18.0368 40.6411 19.1243C41.7286 20.2119 42.3396 21.6869 42.3396 23.225Z" fill="#FFC3BD"/>
<path d="M159.043 164.633H132.79V165.945H159.043V164.633Z" fill="#EFE6F7"/>
<path d="M14.8147 115.9H169.727C175.069 115.9 179.401 120.231 179.401 125.574V151.08C179.401 156.423 175.069 160.754 169.727 160.754H14.8147C9.47196 160.754 5.14078 156.423 5.14078 151.08V125.574C5.14078 120.231 9.47196 115.9 14.8147 115.9Z" fill="#EFE6F7" stroke="#EFE6F7" stroke-width="1.19854"/>
<path d="M71.31 131.373L73.5667 135.952L78.618 136.674L74.9574 140.242L75.8234 145.268L71.31 142.893L66.7966 145.268L67.6625 140.242L64.002 136.674L69.0533 135.952L71.31 131.373Z" fill="#FFCC00"/>
<path d="M91.8022 131.373L94.0589 135.952L99.1102 136.674L95.4496 140.242L96.3156 145.268L91.8022 142.893L87.2888 145.268L88.1547 140.242L84.4941 136.674L89.5455 135.952L91.8022 131.373Z" fill="#FFCC00"/>
<path d="M112.298 131.373L114.554 135.952L119.606 136.674L115.958 140.242L116.811 145.268L112.298 142.893L107.784 145.268L108.65 140.242L104.99 136.674L110.041 135.952L112.298 131.373Z" fill="#FFCC00"/>
<path d="M132.79 131.373L135.047 135.952L140.098 136.674L136.451 140.242L137.304 145.268L132.79 142.893L128.277 145.268L129.143 140.242L125.482 136.674L130.534 135.952L132.79 131.373Z" fill="#FFCC00"/>
<path d="M153.287 131.373L155.544 135.952L160.595 136.674L156.948 140.242L157.8 145.268L153.287 142.893L148.774 145.268L149.64 140.242L145.979 136.674L151.03 135.952L153.287 131.373Z" fill="#FFCC00"/>
<g filter="url(#filter1_d_29737_188541)">
<path d="M47.6934 149.466C53.8471 143.313 53.8471 133.336 47.6934 127.182C41.5397 121.028 31.5626 121.028 25.4089 127.182C19.2552 133.336 19.2552 143.313 25.4089 149.466C31.5626 155.62 41.5397 155.62 47.6934 149.466Z" fill="#EFE6F7"/>
</g>
<path d="M49.5582 138.313C49.5645 141.21 48.6036 144.025 46.8278 146.313C45.052 148.601 42.563 150.231 39.7556 150.944C36.9483 151.657 33.9834 151.412 31.3311 150.248C28.6789 149.084 26.4912 147.068 25.115 144.519C24.0753 142.616 23.5337 140.481 23.5406 138.313C23.6479 134.934 25.0655 131.73 27.4934 129.378C29.9213 127.026 33.1691 125.711 36.5494 125.711C39.9298 125.711 43.1775 127.026 45.6054 129.378C48.0333 131.73 49.4509 134.934 49.5582 138.313Z" fill="white"/>
<path opacity="0.5" d="M47.982 144.518C46.8667 146.578 45.2154 148.299 43.2026 149.498C41.1899 150.697 38.8905 151.33 36.5477 151.33C34.2048 151.33 31.9054 150.697 29.8927 149.498C27.88 148.299 26.2286 146.578 25.1133 144.518C28.4987 142.258 32.4776 141.053 36.5477 141.053C40.6177 141.053 44.5966 142.258 47.982 144.518Z" fill="#3C3C43" fill-opacity="0.7"/>
<path d="M42.3396 133.866C42.3422 135.014 42.0043 136.136 41.3686 137.092C40.733 138.047 39.8282 138.792 38.7687 139.233C37.7093 139.674 36.5429 139.791 35.4171 139.569C34.2913 139.346 33.2567 138.795 32.4444 137.985C31.6321 137.174 31.0784 136.141 30.8536 135.015C30.6288 133.89 30.7428 132.723 31.1814 131.663C31.6199 130.603 32.3632 129.696 33.3172 129.058C34.2711 128.421 35.3929 128.08 36.5404 128.08C38.0762 128.08 39.5492 128.689 40.6364 129.774C41.7236 130.859 42.3361 132.33 42.3396 133.866Z" fill="#FFC3BD"/>
<path d="M14.8147 60.5465H169.727C175.069 60.5465 179.401 64.8777 179.401 70.2205V95.7264C179.401 101.069 175.069 105.4 169.727 105.4H14.8147C9.47196 105.4 5.14078 101.069 5.14078 95.7264V70.2205C5.14078 64.8777 9.47196 60.5465 14.8147 60.5465Z" fill="#EFE6F7" stroke="#EFE6F7" stroke-width="1.19854"/>
<path d="M71.31 76.0215L73.5667 80.6005L78.618 81.3352L74.9574 84.8908L75.8234 89.9159L71.31 87.5411L66.7966 89.9159L67.6625 84.8908L64.002 81.3352L69.0533 80.6005L71.31 76.0215Z" fill="#FFCC00"/>
<path d="M91.8022 76.0215L94.0589 80.6005L99.1102 81.3352L95.4496 84.8908L96.3156 89.9159L91.8022 87.5411L87.2888 89.9159L88.1547 84.8908L84.4941 81.3352L89.5455 80.6005L91.8022 76.0215Z" fill="#FFCC00"/>
<path d="M112.298 78.9853L113.374 81.1764C113.469 81.369 113.609 81.5356 113.783 81.6614C113.957 81.7872 114.159 81.8684 114.371 81.898L116.772 82.2654L115.027 83.971C114.875 84.1185 114.761 84.3005 114.695 84.5016C114.629 84.7026 114.612 84.9167 114.647 85.1256L115.053 87.5397L112.902 86.3983C112.712 86.296 112.5 86.2419 112.285 86.2408C112.074 86.2401 111.866 86.2944 111.682 86.3983L109.517 87.5397L109.923 85.1256C109.958 84.9167 109.941 84.7026 109.875 84.5016C109.809 84.3005 109.695 84.1185 109.543 83.971L107.798 82.2654L110.212 81.9111C110.425 81.8815 110.627 81.8003 110.801 81.6745C110.974 81.5487 111.115 81.3821 111.209 81.1895L112.285 78.9984M112.285 76.0332L110.028 80.6122L104.977 81.3469L108.638 84.9025L107.772 89.9276L112.285 87.5529L116.798 89.9276L115.933 84.9025L119.593 81.3469L114.542 80.6122L112.285 76.0332Z" fill="#3C3C43" fill-opacity="0.16"/>
<path d="M132.79 78.9867L133.866 81.1778C133.961 81.3704 134.101 81.537 134.275 81.6628C134.449 81.7886 134.651 81.8698 134.863 81.8994L137.278 82.2536L135.533 83.9593C135.381 84.1068 135.267 84.2888 135.201 84.4898C135.134 84.6909 135.118 84.905 135.152 85.1139L135.559 87.528L133.407 86.3865C133.218 86.2843 133.006 86.2302 132.79 86.2291C132.579 86.2284 132.371 86.2827 132.187 86.3865L130.022 87.528L130.429 85.1139C130.463 84.905 130.447 84.6909 130.38 84.4898C130.314 84.2888 130.2 84.1068 130.048 83.9593L128.303 82.2536L130.717 81.8994C130.93 81.8698 131.132 81.7886 131.306 81.6628C131.48 81.537 131.62 81.3704 131.715 81.1778L132.79 78.9867ZM132.79 76.0215L130.534 80.6005L125.482 81.3352L129.143 84.8908L128.277 89.9159L132.79 87.5411L137.304 89.9159L136.451 84.8908L140.112 81.3352L135.06 80.6005L132.804 76.0215H132.79Z" fill="#3C3C43" fill-opacity="0.16"/>
<path d="M153.287 78.9867L154.363 81.1778C154.457 81.3704 154.598 81.537 154.772 81.6628C154.945 81.7886 155.148 81.8698 155.36 81.8994L157.774 82.2536L156.029 83.9593C155.877 84.1068 155.763 84.2888 155.697 84.4898C155.631 84.6909 155.614 84.905 155.649 85.1139L156.055 87.528L153.904 86.3865C153.714 86.2843 153.502 86.2302 153.287 86.2291C153.076 86.2284 152.868 86.2827 152.683 86.3865L150.519 87.528L150.925 85.1139C150.96 84.905 150.943 84.6909 150.877 84.4898C150.811 84.2888 150.697 84.1068 150.545 83.9593L148.8 82.2536L151.214 81.8994C151.427 81.8698 151.629 81.7886 151.802 81.6628C151.976 81.537 152.117 81.3704 152.211 81.1778L153.287 78.9867ZM153.287 76.0215L151.03 80.6005L145.979 81.3352L149.64 84.8908L148.774 89.9159L153.287 87.5411L157.8 89.9159L156.934 84.8908L160.595 81.3352L155.544 80.6005L153.287 76.0215Z" fill="#3C3C43" fill-opacity="0.16"/>
<g filter="url(#filter2_d_29737_188541)">
<path d="M36.5402 98.7299C45.2429 98.7299 52.2978 91.675 52.2978 82.9724C52.2978 74.2697 45.2429 67.2148 36.5402 67.2148C27.8376 67.2148 20.7827 74.2697 20.7827 82.9724C20.7827 91.675 27.8376 98.7299 36.5402 98.7299Z" fill="#EFE6F7"/>
</g>
<path d="M49.555 82.9715C49.5583 85.8668 48.5953 88.6804 46.8184 90.9663C45.0416 93.2522 42.5526 94.8796 39.746 95.5907C36.9394 96.3018 33.9758 96.0557 31.3248 94.8916C28.6739 93.7275 26.4874 91.7119 25.1118 89.1643C24.0721 87.2663 23.5304 85.1357 23.5373 82.9715C23.482 81.2284 23.7775 79.492 24.4063 77.8653C25.0351 76.2386 25.9845 74.7549 27.1979 73.5023C28.4114 72.2497 29.8642 71.2538 31.4701 70.5736C33.076 69.8935 34.8022 69.543 36.5461 69.543C38.2901 69.543 40.0163 69.8935 41.6222 70.5736C43.2281 71.2538 44.6809 72.2497 45.8944 73.5023C47.1078 74.7549 48.0571 76.2386 48.686 77.8653C49.3148 79.492 49.6103 81.2284 49.555 82.9715Z" fill="white"/>
<path d="M47.982 89.1662C46.8667 91.2265 45.2154 92.9473 43.2026 94.1464C41.1899 95.3456 38.8905 95.9786 36.5477 95.9786C34.2048 95.9786 31.9054 95.3456 29.8927 94.1464C27.88 92.9473 26.2286 91.2265 25.1133 89.1662C28.4987 86.9069 32.4776 85.7012 36.5477 85.7012C40.6177 85.7012 44.5966 86.9069 47.982 89.1662Z" fill="#3C3C43" fill-opacity="0.7"/>
<path d="M42.3396 78.5238C42.3396 79.6708 41.9995 80.792 41.3623 81.7457C40.725 82.6994 39.8193 83.4427 38.7597 83.8816C37.7 84.3205 36.534 84.4354 35.409 84.2116C34.2841 83.9878 33.2508 83.4355 32.4398 82.6245C31.6287 81.8134 31.0764 80.7801 30.8526 79.6552C30.6289 78.5303 30.7437 77.3642 31.1826 76.3046C31.6216 75.2449 32.3649 74.3392 33.3185 73.702C34.2722 73.0647 35.3934 72.7246 36.5404 72.7246C37.3024 72.7229 38.0573 72.8717 38.7617 73.1625C39.4661 73.4534 40.1061 73.8805 40.6449 74.4193C41.1838 74.9582 41.6109 75.5982 41.9017 76.3025C42.1925 77.0069 42.3413 77.7618 42.3396 78.5238Z" fill="#FFC3BD"/>
<defs>
<filter id="filter0_d_29737_188541" x="15.9885" y="7.06715" width="41.1035" height="41.104" filterUnits="userSpaceOnUse" color-interpolation-filters="sRGB">
<feFlood flood-opacity="0" result="BackgroundImageFix"/>
<feColorMatrix in="SourceAlpha" type="matrix" values="0 0 0 0 0 0 0 0 0 0 0 0 0 0 0 0 0 0 127 0" result="hardAlpha"/>
<feOffset/>
<feGaussianBlur stdDeviation="2.39709"/>
<feComposite in2="hardAlpha" operator="out"/>
<feColorMatrix type="matrix" values="0 0 0 0 0 0 0 0 0 0 0 0 0 0 0 0 0 0 0.12 0"/>
<feBlend mode="normal" in2="BackgroundImageFix" result="effect1_dropShadow_29737_188541"/>
<feBlend mode="normal" in="SourceGraphic" in2="effect1_dropShadow_29737_188541" result="shape"/>
</filter>
<filter id="filter1_d_29737_188541" x="15.9993" y="117.772" width="41.1035" height="41.104" filterUnits="userSpaceOnUse" color-interpolation-filters="sRGB">
<feFlood flood-opacity="0" result="BackgroundImageFix"/>
<feColorMatrix in="SourceAlpha" type="matrix" values="0 0 0 0 0 0 0 0 0 0 0 0 0 0 0 0 0 0 127 0" result="hardAlpha"/>
<feOffset/>
<feGaussianBlur stdDeviation="2.39709"/>
<feComposite in2="hardAlpha" operator="out"/>
<feColorMatrix type="matrix" values="0 0 0 0 0 0 0 0 0 0 0 0 0 0 0 0 0 0 0.12 0"/>
<feBlend mode="normal" in2="BackgroundImageFix" result="effect1_dropShadow_29737_188541"/>
<feBlend mode="normal" in="SourceGraphic" in2="effect1_dropShadow_29737_188541" result="shape"/>
</filter>
<filter id="filter2_d_29737_188541" x="15.9885" y="62.4207" width="41.1035" height="41.104" filterUnits="userSpaceOnUse" color-interpolation-filters="sRGB">
<feFlood flood-opacity="0" result="BackgroundImageFix"/>
<feColorMatrix in="SourceAlpha" type="matrix" values="0 0 0 0 0 0 0 0 0 0 0 0 0 0 0 0 0 0 127 0" result="hardAlpha"/>
<feOffset/>
<feGaussianBlur stdDeviation="2.39709"/>
<feComposite in2="hardAlpha" operator="out"/>
<feColorMatrix type="matrix" values="0 0 0 0 0 0 0 0 0 0 0 0 0 0 0 0 0 0 0.12 0"/>
<feBlend mode="normal" in2="BackgroundImageFix" result="effect1_dropShadow_29737_188541"/>
<feBlend mode="normal" in="SourceGraphic" in2="effect1_dropShadow_29737_188541" result="shape"/>
</filter>
</defs>
</svg>
