<svg width="204" height="140" viewBox="0 0 204 140" fill="none" xmlns="http://www.w3.org/2000/svg">
<path d="M40.7595 0.772461H32.4727V1.86715H40.7595V0.772461Z" fill="#EFE6F7"/>
<path d="M1.82223 13.1862H0.727539C0.730385 9.90425 2.03167 6.75668 4.34726 4.43084C6.66286 2.10499 9.80464 0.789809 13.0866 0.772461H27.9744V1.86715H13.0866C10.095 1.88449 7.23163 3.08434 5.12133 5.20489C3.01103 7.32545 1.82507 10.1946 1.82223 13.1862Z" fill="#EFE6F7"/>
<path d="M13.088 5.10254H142.338C146.796 5.10254 150.41 8.71624 150.41 13.174V34.4548C150.41 38.9125 146.796 42.5262 142.338 42.5262H13.088C8.63031 42.5262 5.0166 38.9125 5.0166 34.4548V13.174C5.0166 8.71623 8.6303 5.10254 13.088 5.10254Z" fill="#FAF7FC" stroke="#EFE6F7"/>
<path d="M60.2244 18.0225L62.1073 21.832L66.3218 22.445L63.2676 25.4116L63.9901 29.6152L60.2244 27.6338L56.4586 29.6152L57.1811 25.4116L54.127 22.445L58.3415 21.832L60.2244 18.0225Z" fill="#FFCC00"/>
<path d="M77.322 18.0225L79.2049 21.832L83.4195 22.445L80.3653 25.4116L81.0878 29.6152L77.322 27.6338L73.5563 29.6152L74.2788 25.4116L71.2246 22.445L75.4392 21.832L77.322 18.0225Z" fill="#FFCC00"/>
<path d="M94.4226 18.0225L96.3055 21.832L100.52 22.445L97.4768 25.4116L98.1884 29.6152L94.4226 27.6338L90.6569 29.6152L91.3794 25.4116L88.3252 22.445L92.5397 21.832L94.4226 18.0225Z" fill="#FFCC00"/>
<path d="M111.52 18.0225L113.403 21.832L117.618 22.445L114.574 25.4116L115.286 29.6152L111.52 27.6338L107.755 29.6152L108.477 25.4116L105.423 22.445L109.637 21.832L111.52 18.0225Z" fill="#FFCC00"/>
<path d="M128.621 20.4972L129.519 22.3254C129.599 22.4841 129.717 22.6208 129.862 22.7238C130.007 22.8268 130.174 22.893 130.351 22.9165L132.365 23.2121L130.909 24.6352C130.782 24.7582 130.687 24.9101 130.632 25.0778C130.577 25.2456 130.563 25.4242 130.592 25.5985L130.931 27.6127L129.136 26.7151C128.975 26.638 128.799 26.5969 128.621 26.5947C128.446 26.594 128.273 26.6353 128.118 26.7151L126.311 27.6675L126.618 25.6204C126.647 25.4461 126.633 25.2675 126.577 25.0997C126.522 24.932 126.427 24.7801 126.3 24.6571L124.844 23.234L126.859 22.9384C127.04 22.9172 127.213 22.8509 127.362 22.7458C127.511 22.6406 127.632 22.4999 127.712 22.3363L128.61 20.5082M128.61 18.0342L126.727 21.8437L122.513 22.4567L125.567 25.4343L124.844 29.627L128.61 27.6456L132.376 29.627L131.653 25.4343L134.708 22.4567L130.493 21.8437L128.61 18.0342Z" fill="#3C3C43" fill-opacity="0.16"/>
<g filter="url(#filter0_d_28879_120689)">
<path d="M31.2146 36.9634C38.4756 36.9634 44.3619 31.0772 44.3619 23.8162C44.3619 16.5552 38.4756 10.6689 31.2146 10.6689C23.9536 10.6689 18.0674 16.5552 18.0674 23.8162C18.0674 31.0772 23.9536 36.9634 31.2146 36.9634Z" fill="#FAF7FC"/>
</g>
<path d="M42.0759 23.8163C42.0787 26.232 41.2752 28.5795 39.7927 30.4867C38.3102 32.394 36.2335 33.7518 33.8919 34.3451C31.5502 34.9384 29.0775 34.7331 26.8657 33.7618C24.6539 32.7906 22.8296 31.1089 21.6818 28.9833C20.8144 27.3997 20.3624 25.622 20.3682 23.8163C20.4578 20.9974 21.6405 18.3238 23.6662 16.3614C25.692 14.3991 28.4017 13.3018 31.2221 13.3018C34.0425 13.3018 36.7522 14.3991 38.7779 16.3614C40.8036 18.3238 41.9864 20.9974 42.0759 23.8163Z" fill="white"/>
<path d="M40.7611 28.9838C39.8331 30.7059 38.4562 32.1447 36.7765 33.1475C35.0969 34.1503 33.1771 34.6798 31.2209 34.6798C29.2647 34.6798 27.3449 34.1503 25.6653 33.1475C23.9856 32.1447 22.6087 30.7059 21.6807 28.9838C24.5053 27.0988 27.825 26.0928 31.2209 26.0928C34.6168 26.0928 37.9365 27.0988 40.7611 28.9838Z" fill="#263238"/>
<path d="M36.053 20.1501C36.053 21.107 35.7693 22.0425 35.2376 22.8382C34.7059 23.6339 33.9503 24.2541 33.0661 24.6203C32.182 24.9865 31.2091 25.0823 30.2706 24.8956C29.332 24.7089 28.4698 24.2481 27.7932 23.5714C27.1165 22.8947 26.6556 22.0326 26.469 21.094C26.2823 20.1554 26.3781 19.1826 26.7443 18.2984C27.1105 17.4143 27.7307 16.6586 28.5264 16.127C29.3221 15.5953 30.2575 15.3115 31.2145 15.3115C32.4978 15.3115 33.7285 15.8213 34.6359 16.7287C35.5433 17.6361 36.053 18.8668 36.053 20.1501Z" fill="#FFC3BD"/>
<path d="M133.424 138.134H111.52V139.228H133.424V138.134Z" fill="#EFE6F7"/>
<path d="M13.088 97.4736H142.338C146.796 97.4736 150.41 101.087 150.41 105.545V126.826C150.41 131.284 146.796 134.897 142.338 134.897H13.088C8.63031 134.897 5.0166 131.284 5.0166 126.826V105.545C5.0166 101.087 8.63031 97.4736 13.088 97.4736Z" fill="#FAF7FC" stroke="#EFE6F7"/>
<path d="M60.2244 110.384L62.1073 114.204L66.3218 114.806L63.2676 117.784L63.9901 121.977L60.2244 119.995L56.4586 121.977L57.1811 117.784L54.127 114.806L58.3415 114.204L60.2244 110.384Z" fill="#FFCC00"/>
<path d="M77.322 110.384L79.2049 114.204L83.4195 114.806L80.3653 117.784L81.0878 121.977L77.322 119.995L73.5563 121.977L74.2788 117.784L71.2246 114.806L75.4392 114.204L77.322 110.384Z" fill="#FFCC00"/>
<path d="M94.4226 110.384L96.3055 114.204L100.52 114.806L97.4768 117.784L98.1884 121.977L94.4226 119.995L90.6569 121.977L91.3794 117.784L88.3252 114.806L92.5397 114.204L94.4226 110.384Z" fill="#FFCC00"/>
<path d="M111.52 110.384L113.403 114.204L117.618 114.806L114.574 117.784L115.286 121.977L111.52 119.995L107.755 121.977L108.477 117.784L105.423 114.806L109.637 114.204L111.52 110.384Z" fill="#FFCC00"/>
<path d="M128.622 110.384L130.505 114.204L134.719 114.806L131.676 117.784L132.388 121.977L128.622 119.995L124.856 121.977L125.579 117.784L122.524 114.806L126.739 114.204L128.622 110.384Z" fill="#FFCC00"/>
<g filter="url(#filter1_d_28879_120689)">
<path d="M40.5204 125.481C45.6547 120.347 45.6547 112.022 40.5204 106.888C35.386 101.754 27.0617 101.754 21.9274 106.888C16.793 112.022 16.793 120.347 21.9274 125.481C27.0617 130.615 35.386 130.615 40.5204 125.481Z" fill="#FAF7FC"/>
</g>
<path d="M42.0759 116.174C42.0812 118.59 41.2794 120.94 39.7978 122.849C38.3161 124.758 36.2395 126.117 33.8972 126.712C31.5549 127.307 29.0811 127.102 26.8682 126.131C24.6553 125.16 22.83 123.478 21.6818 121.352C20.8144 119.764 20.3625 117.983 20.3682 116.174C20.4578 113.355 21.6405 110.681 23.6662 108.719C25.692 106.756 28.4017 105.659 31.2221 105.659C34.0425 105.659 36.7522 106.756 38.7779 108.719C40.8036 110.681 41.9864 113.355 42.0759 116.174Z" fill="white"/>
<path opacity="0.5" d="M40.7611 121.351C39.8305 123.07 38.4528 124.506 36.7734 125.506C35.0941 126.507 33.1757 127.035 31.2209 127.035C29.2661 127.035 27.3477 126.507 25.6683 125.506C23.989 124.506 22.6112 123.07 21.6807 121.351C24.5053 119.466 27.825 118.46 31.2209 118.46C34.6168 118.46 37.9365 119.466 40.7611 121.351Z" fill="#3C3C43" fill-opacity="0.7"/>
<path d="M36.053 112.463C36.0552 113.421 35.7733 114.357 35.2429 115.154C34.7126 115.952 33.9577 116.573 33.0737 116.941C32.1898 117.309 31.2166 117.407 30.2773 117.221C29.338 117.036 28.4748 116.576 27.797 115.9C27.1193 115.223 26.6573 114.361 26.4698 113.422C26.2822 112.483 26.3773 111.51 26.7432 110.625C27.1091 109.74 27.7293 108.984 28.5252 108.452C29.3211 107.92 30.2571 107.636 31.2145 107.636C32.4959 107.636 33.7249 108.144 34.632 109.049C35.5391 109.954 36.0501 111.182 36.053 112.463Z" fill="#FFC3BD"/>
<path d="M13.088 51.29H142.338C146.796 51.29 150.41 54.9038 150.41 59.3615V80.6423C150.41 85.1 146.796 88.7137 142.338 88.7137H13.088C8.63031 88.7137 5.0166 85.1 5.0166 80.6423V59.3615C5.0166 54.9038 8.63031 51.29 13.088 51.29Z" fill="#FAF7FC" stroke="#EFE6F7"/>
<path d="M60.2244 64.2002L62.1073 68.0207L66.3218 68.6337L63.2676 71.6003L63.9901 75.793L60.2244 73.8116L56.4586 75.793L57.1811 71.6003L54.127 68.6337L58.3415 68.0207L60.2244 64.2002Z" fill="#FFCC00"/>
<path d="M77.322 64.2002L79.2049 68.0207L83.4195 68.6337L80.3653 71.6003L81.0878 75.793L77.322 73.8116L73.5563 75.793L74.2788 71.6003L71.2246 68.6337L75.4392 68.0207L77.322 64.2002Z" fill="#FFCC00"/>
<path d="M94.4228 66.673L95.3205 68.5011C95.3993 68.6619 95.5164 68.8008 95.6615 68.9058C95.8065 69.0108 95.9751 69.0786 96.1524 69.1032L98.1557 69.4097L96.6998 70.8328C96.5731 70.9559 96.478 71.1078 96.4228 71.2755C96.3675 71.4433 96.3536 71.6219 96.3823 71.7962L96.7217 73.8104L94.9264 72.858C94.7683 72.7727 94.5916 72.7275 94.4119 72.7267C94.2355 72.7261 94.062 72.7713 93.9083 72.858L92.1021 73.8104L92.4414 71.7962C92.4702 71.6219 92.4563 71.4433 92.401 71.2755C92.3457 71.1078 92.2507 70.9559 92.124 70.8328L90.668 69.4097L92.6823 69.1142C92.8596 69.0895 93.0282 69.0217 93.1732 68.9167C93.3183 68.8118 93.4354 68.6728 93.5142 68.5121L94.4119 66.684M94.4119 64.21L92.529 68.0304L88.3145 68.6435L91.3686 71.6101L90.6461 75.8027L94.4119 73.8213L98.1776 75.8027L97.4551 71.6101L100.509 68.6435L96.2948 68.0304L94.4119 64.21Z" fill="#3C3C43" fill-opacity="0.16"/>
<path d="M111.52 66.6742L112.418 68.5023C112.497 68.6631 112.614 68.802 112.759 68.907C112.904 69.012 113.073 69.0797 113.25 69.1044L115.264 69.4L113.808 70.8231C113.681 70.9461 113.586 71.098 113.531 71.2657C113.476 71.4335 113.462 71.6121 113.491 71.7864L113.83 73.8006L112.035 72.8482C111.877 72.7629 111.7 72.7178 111.52 72.7169C111.344 72.7163 111.17 72.7616 111.017 72.8482L109.21 73.8006L109.55 71.7864C109.579 71.6121 109.565 71.4335 109.509 71.2657C109.454 71.098 109.359 70.9461 109.232 70.8231L107.776 69.4L109.791 69.1044C109.968 69.0797 110.137 69.012 110.282 68.907C110.427 68.802 110.544 68.6631 110.623 68.5023L111.52 66.6742ZM111.52 64.2002L109.637 68.0207L105.423 68.6337L108.477 71.6003L107.755 75.793L111.52 73.8116L115.286 75.793L114.574 71.6003L117.629 68.6337L113.414 68.0207L111.531 64.2002H111.52Z" fill="#3C3C43" fill-opacity="0.16"/>
<path d="M128.622 66.6742L129.519 68.5023C129.598 68.6631 129.715 68.802 129.86 68.907C130.006 69.012 130.174 69.0797 130.351 69.1044L132.366 69.4L130.91 70.8231C130.783 70.9461 130.688 71.098 130.633 71.2657C130.577 71.4335 130.564 71.6121 130.592 71.7864L130.932 73.8006L129.136 72.8482C128.978 72.7629 128.802 72.7178 128.622 72.7169C128.445 72.7163 128.272 72.7616 128.118 72.8482L126.312 73.8006L126.651 71.7864C126.68 71.6121 126.666 71.4335 126.611 71.2657C126.556 71.098 126.461 70.9461 126.334 70.8231L124.878 69.4L126.892 69.1044C127.07 69.0797 127.238 69.012 127.383 68.907C127.528 68.802 127.645 68.6631 127.724 68.5023L128.622 66.6742ZM128.622 64.2002L126.739 68.0207L122.524 68.6337L125.579 71.6003L124.856 75.793L128.622 73.8116L132.388 75.793L131.665 71.6003L134.719 68.6337L130.505 68.0207L128.622 64.2002Z" fill="#3C3C43" fill-opacity="0.16"/>
<g filter="url(#filter2_d_28879_120689)">
<path d="M31.2146 83.147C38.4756 83.147 44.3619 77.2608 44.3619 69.9998C44.3619 62.7388 38.4756 56.8525 31.2146 56.8525C23.9536 56.8525 18.0674 62.7388 18.0674 69.9998C18.0674 77.2608 23.9536 83.147 31.2146 83.147Z" fill="#FAF7FC"/>
</g>
<path d="M42.0735 70C42.0764 72.4156 41.2728 74.7631 39.7903 76.6703C38.3078 78.5776 36.2311 79.9355 33.8895 80.5287C31.5478 81.122 29.0751 80.9167 26.8633 79.9455C24.6515 78.9742 22.8272 77.2925 21.6795 75.1669C20.812 73.5833 20.3601 71.8056 20.3658 70C20.3196 68.5456 20.5662 67.0968 21.0909 65.7396C21.6155 64.3824 22.4076 63.1445 23.42 62.0994C24.4325 61.0543 25.6446 60.2233 26.9845 59.6558C28.3244 59.0883 29.7646 58.7959 31.2197 58.7959C32.6748 58.7959 34.115 59.0883 35.4549 59.6558C36.7947 60.2233 38.0069 61.0543 39.0193 62.0994C40.0318 63.1445 40.8238 64.3824 41.3485 65.7396C41.8732 67.0968 42.1197 68.5456 42.0735 70Z" fill="white"/>
<path d="M40.7611 75.1674C39.8305 76.8864 38.4528 78.3221 36.7734 79.3226C35.0941 80.3232 33.1757 80.8513 31.2209 80.8513C29.2661 80.8513 27.3477 80.3232 25.6683 79.3226C23.989 78.3221 22.6112 76.8864 21.6807 75.1674C24.5053 73.2824 27.825 72.2764 31.2209 72.2764C34.6168 72.2764 37.9365 73.2824 40.7611 75.1674Z" fill="#3C3C43" fill-opacity="0.7"/>
<path d="M36.053 66.2887C36.053 67.2457 35.7693 68.1812 35.2376 68.9769C34.7059 69.7726 33.9503 70.3928 33.0661 70.759C32.182 71.1252 31.2091 71.221 30.2706 71.0343C29.332 70.8476 28.4698 70.3868 27.7932 69.7101C27.1165 69.0334 26.6556 68.1713 26.469 67.2327C26.2823 66.2941 26.3781 65.3212 26.7443 64.4371C27.1105 63.553 27.7307 62.7973 28.5264 62.2656C29.3221 61.734 30.2575 61.4502 31.2145 61.4502C31.8503 61.4488 32.4802 61.5729 33.0678 61.8156C33.6555 62.0582 34.1895 62.4146 34.6391 62.8642C35.0887 63.3138 35.445 63.8477 35.6877 64.4354C35.9303 65.0231 36.0545 65.6529 36.053 66.2887Z" fill="#FFC3BD"/>
<path d="M155.281 63.1751L160.233 54.5103C157.196 49.5774 156.114 43.687 157.2 37.9969C158.285 32.3068 161.46 27.2284 166.099 23.76C170.739 20.2916 176.508 18.6839 182.273 19.2529C188.037 19.8219 193.381 22.5265 197.253 26.8351C201.125 31.1436 203.245 36.7446 203.198 42.5372C203.15 48.3297 200.937 53.8949 196.995 58.139C193.052 62.3831 187.665 64.9991 181.891 65.4729C176.118 65.9467 170.376 64.244 165.794 60.6994L155.281 63.1751Z" fill="#F6F6F6"/>
<path d="M155.281 63.1747L165.744 60.6L165.678 60.7733L165.175 60.1131L165.835 60.6248C169.051 63.0969 172.863 64.6767 176.885 65.2047C178.088 65.3645 179.303 65.4197 180.516 65.3698C181.143 65.3698 181.778 65.312 182.414 65.2625L184.353 64.9571C188.821 64.0731 192.928 61.8883 196.158 58.6773C199.388 55.4664 201.597 51.3724 202.508 46.9097C203.16 43.5412 203.064 40.0705 202.227 36.7431C201.361 33.2683 199.681 30.0493 197.325 27.3522C194.937 24.5863 191.92 22.4329 188.529 21.0724C185.265 19.7747 181.75 19.2303 178.246 19.4797C174.946 19.702 171.735 20.6457 168.839 22.2442C163.633 25.1285 159.733 29.9024 157.946 35.5796C157.228 37.9887 156.88 40.4929 156.915 43.0065C157.014 47.0394 158.172 50.9752 160.273 54.4192V54.4769V54.5265L155.272 63.1417L160.092 54.4604V54.5677C157.93 51.0923 156.728 47.1059 156.609 43.0147C156.563 40.4669 156.902 37.9267 157.616 35.4806C159.407 29.7033 163.356 24.8385 168.641 21.8976C171.585 20.2626 174.853 19.2963 178.213 19.0671C181.846 18.7908 185.493 19.3703 188.861 20.759C192.228 22.1478 195.224 24.307 197.606 27.0634C199.991 29.8174 201.688 33.0981 202.557 36.6359C203.408 40.0204 203.501 43.5511 202.829 46.9758C202.176 50.2185 200.833 53.2831 198.893 55.9623C195.407 60.8007 190.212 64.1338 184.361 65.2872L182.397 65.5761C181.745 65.6338 181.102 65.6503 180.466 65.6833C179.236 65.7295 178.004 65.666 176.786 65.4935C172.719 64.9423 168.873 63.3157 165.645 60.7816L165.794 60.633L165.893 60.7651L165.736 60.8063L155.281 63.1747Z" fill="#3C3C43" fill-opacity="0.16"/>
<path d="M186.186 53.3681L190.2 49.3535L172.216 31.3696L168.202 35.3842L186.186 53.3681Z" fill="#D42F55"/>
<path d="M168.206 49.3536L172.22 53.3682L190.204 35.3843L186.19 31.3697L168.206 49.3536Z" fill="#D42F55"/>
<defs>
<filter id="filter0_d_28879_120689" x="14.0674" y="6.66895" width="34.2944" height="34.2949" filterUnits="userSpaceOnUse" color-interpolation-filters="sRGB">
<feFlood flood-opacity="0" result="BackgroundImageFix"/>
<feColorMatrix in="SourceAlpha" type="matrix" values="0 0 0 0 0 0 0 0 0 0 0 0 0 0 0 0 0 0 127 0" result="hardAlpha"/>
<feOffset/>
<feGaussianBlur stdDeviation="2"/>
<feComposite in2="hardAlpha" operator="out"/>
<feColorMatrix type="matrix" values="0 0 0 0 0 0 0 0 0 0 0 0 0 0 0 0 0 0 0.12 0"/>
<feBlend mode="normal" in2="BackgroundImageFix" result="effect1_dropShadow_28879_120689"/>
<feBlend mode="normal" in="SourceGraphic" in2="effect1_dropShadow_28879_120689" result="shape"/>
</filter>
<filter id="filter1_d_28879_120689" x="14.0767" y="99.0371" width="34.2944" height="34.2949" filterUnits="userSpaceOnUse" color-interpolation-filters="sRGB">
<feFlood flood-opacity="0" result="BackgroundImageFix"/>
<feColorMatrix in="SourceAlpha" type="matrix" values="0 0 0 0 0 0 0 0 0 0 0 0 0 0 0 0 0 0 127 0" result="hardAlpha"/>
<feOffset/>
<feGaussianBlur stdDeviation="2"/>
<feComposite in2="hardAlpha" operator="out"/>
<feColorMatrix type="matrix" values="0 0 0 0 0 0 0 0 0 0 0 0 0 0 0 0 0 0 0.12 0"/>
<feBlend mode="normal" in2="BackgroundImageFix" result="effect1_dropShadow_28879_120689"/>
<feBlend mode="normal" in="SourceGraphic" in2="effect1_dropShadow_28879_120689" result="shape"/>
</filter>
<filter id="filter2_d_28879_120689" x="14.0674" y="52.8525" width="34.2944" height="34.2949" filterUnits="userSpaceOnUse" color-interpolation-filters="sRGB">
<feFlood flood-opacity="0" result="BackgroundImageFix"/>
<feColorMatrix in="SourceAlpha" type="matrix" values="0 0 0 0 0 0 0 0 0 0 0 0 0 0 0 0 0 0 127 0" result="hardAlpha"/>
<feOffset/>
<feGaussianBlur stdDeviation="2"/>
<feComposite in2="hardAlpha" operator="out"/>
<feColorMatrix type="matrix" values="0 0 0 0 0 0 0 0 0 0 0 0 0 0 0 0 0 0 0.12 0"/>
<feBlend mode="normal" in2="BackgroundImageFix" result="effect1_dropShadow_28879_120689"/>
<feBlend mode="normal" in="SourceGraphic" in2="effect1_dropShadow_28879_120689" result="shape"/>
</filter>
</defs>
</svg>
