<svg width="262" height="198" viewBox="0 0 262 198" fill="none" xmlns="http://www.w3.org/2000/svg">
<path d="M131.518 37.2707L127.662 36.5176L115.074 100.979L118.93 101.732L131.518 37.2707Z" fill="#E7E8E9"/>
<path d="M160.022 26.6325L105.26 15.9384C102.582 15.4153 99.9861 17.1627 99.463 19.8414L92.9298 53.2959C92.4067 55.9746 94.1541 58.5701 96.8328 59.0932L151.594 69.7874C154.273 70.3105 156.868 68.5631 157.392 65.8844L163.925 32.4299C164.448 29.7512 162.7 27.1556 160.022 26.6325Z" fill="#F6F6F6"/>
<path d="M129.798 37.1301C129.856 37.066 129.913 37.0083 129.971 36.9442C130.67 36.1494 131.163 35.1816 131.407 34.156C131.593 33.3677 131.766 32.1883 132.689 31.9319C133.413 31.7268 134.176 32.3357 134.406 33.0536C134.637 33.7715 134.49 34.5534 134.317 35.2905C134.015 36.5725 133.669 37.848 133.266 39.1043C134.509 39.5017 135.752 39.8991 137.002 40.2965C137.727 40.5272 138.477 40.7708 139.034 41.2836C139.592 41.7963 139.912 42.6552 139.573 43.3346C139.098 44.2833 137.759 44.3153 136.733 44.0589C137.887 44.4243 138.72 45.6998 138.451 46.8792C138.182 48.0585 136.74 48.8533 135.644 48.3406C136.425 48.5328 136.861 49.4751 136.663 50.257C136.464 51.039 135.778 51.6223 135.022 51.8979C134.265 52.1735 133.439 52.1863 132.637 52.1607C129.554 52.0774 126.484 51.5518 123.555 50.5967C123.119 50.4557 122.67 50.2955 122.344 49.975C121.991 49.6289 121.818 49.1418 121.741 48.6546C121.497 47.1996 121.985 45.7254 122.555 44.3666C123.042 43.2064 123.6 42.0783 124.215 40.9823C124.548 40.3926 124.914 39.7965 125.427 39.3543C126.119 38.7517 126.914 38.9376 127.702 38.5915C128.49 38.2518 129.208 37.7518 129.804 37.1301H129.798Z" fill="#3E70F1"/>
<path d="M120.466 48.0005C120.536 48.5325 120.562 49.0966 120.209 49.3786C119.921 49.6093 119.511 49.558 119.145 49.494C118.536 49.385 117.921 49.2696 117.312 49.1606C117.107 49.1222 116.895 49.0837 116.722 48.962C116.389 48.7248 116.319 48.2633 116.299 47.8531C116.145 44.6675 117.254 41.437 119.337 39.0206C119.587 38.7322 119.863 38.4438 120.235 38.3348C120.517 38.2515 120.818 38.2899 121.113 38.3284C121.818 38.4181 122.549 38.4694 123.247 38.604C123.709 38.6937 124.164 38.713 123.843 39.277C123.497 39.8731 122.978 40.3987 122.613 40.9948C121.927 42.1036 121.286 43.251 120.869 44.488C120.581 45.3405 120.395 46.2379 120.382 47.1416C120.382 47.3724 120.433 47.68 120.478 48.0005H120.466Z" fill="#3E70F1"/>
<path d="M200.176 167.401C200.176 167.401 206.534 172.279 202.977 181.554C200.189 188.822 197.375 190.047 184.325 191.476C170.268 193.021 127.753 197.757 127.753 197.757C127.753 197.757 115.607 198.7 104.275 185.451C92.9299 172.202 6.60499 72.2954 6.60499 72.2954C6.60499 72.2954 -0.945549 64.3154 0.0992205 58.4891C1.14399 52.6627 1.17604 47.362 11.6109 47.1312C22.0394 46.9069 72.669 46.5608 72.669 46.5608C72.669 46.5608 81.6938 44.8173 93.9106 57.2905C106.134 69.7636 200.176 167.401 200.176 167.401Z" fill="#34414C"/>
<path d="M202.977 181.554C200.189 188.822 197.375 190.04 184.325 191.476C170.268 193.02 127.753 197.757 127.753 197.757C127.753 197.757 115.607 198.699 104.275 185.451C92.9299 172.202 6.60499 72.2951 6.60499 72.2951C6.60499 72.2951 -0.945549 64.3151 0.0992205 58.4888C0.958111 53.7264 1.13758 49.3102 6.88061 47.7334C2.40669 52.2009 8.36123 57.0979 8.36123 57.0979C8.36123 57.0979 103.365 165.542 112.633 175.625C121.901 185.707 134.33 184.444 134.33 184.444C134.33 184.444 183.665 179.445 196.785 178.227C200.669 177.868 202.759 176.029 203.791 173.593C204.246 175.721 204.195 178.381 202.97 181.56L202.977 181.554Z" fill="#1B242B"/>
<path d="M151.52 167.306C150.668 169.921 153.482 173.184 157.802 174.588C162.122 175.991 166.314 175.004 167.166 172.389C168.019 169.774 165.205 166.511 160.885 165.108C156.565 163.704 152.373 164.691 151.52 167.306Z" fill="#1B242B"/>
<path d="M186.805 158.204L108.249 164.434L19.7637 64.3922L93.8141 62.2578L186.805 158.204Z" fill="#FAF7FC"/>
<path d="M57.0225 94.7733L114.459 90.1135C115.017 90.0686 115.568 90.2737 115.959 90.6775L138.752 114.098C139.803 115.175 139.226 116.989 137.745 117.265L82.6353 127.443C81.9816 127.565 81.3085 127.328 80.8727 126.828L55.7533 97.882C54.7406 96.7154 55.4841 94.8951 57.0225 94.7669V94.7733Z" fill="#EADEF4"/>
<path d="M55.9453 95.7911L104.562 105.373L115.959 90.6826" stroke="#B29CE5" stroke-width="0.640963" stroke-miterlimit="10"/>
<g opacity="0.2">
<path d="M66.8301 63.0325L78.3995 62.6992L85.0527 138.211L71.8552 123.289L66.8301 63.0325Z" fill="#F6F6F6"/>
</g>
<g opacity="0.3">
<path d="M93.866 148.173L83.4824 62.5536L93.8147 62.2588L110.941 79.9301L122.504 163.307L108.249 164.435L93.866 148.173Z" fill="#F6F6F6"/>
</g>
<path d="M36.9485 55.3937C36.7626 55.9705 37.5702 56.7525 38.756 57.1371C39.9418 57.5217 41.0571 57.3678 41.2493 56.791C41.4352 56.2141 40.6276 55.4321 39.4418 55.0475C38.256 54.663 37.1408 54.8168 36.9485 55.3937Z" fill="#1B242B"/>
<path d="M60.5746 54.491C60.2477 55.4909 61.6514 56.8369 63.6961 57.5035C65.7472 58.1701 67.6701 57.9009 67.997 56.901C68.3239 55.9011 66.9201 54.555 64.8755 53.8884C62.8244 53.2218 60.9015 53.4911 60.5746 54.491Z" fill="#1B242B"/>
<path d="M32.8651 57.5478L20.7701 57.8106C20.7701 57.8106 18.4755 58.067 18.014 56.9133C17.5525 55.7659 18.0973 55.439 19.751 55.3493C21.4047 55.2596 30.9742 55.2724 30.9742 55.2724C30.9742 55.2724 33.4804 54.8686 34.1855 55.971C34.8905 57.0735 34.1085 57.5158 32.8587 57.5414L32.8651 57.5478Z" fill="#1B242B"/>
<path d="M84.078 56.3291L71.983 56.5918C71.983 56.5918 69.6883 56.8482 69.2269 55.6945C68.7654 54.5472 69.3102 54.2203 70.9639 54.1305C72.6175 54.0408 82.1871 54.0536 82.1871 54.0536C82.1871 54.0536 84.6933 53.6498 85.3983 54.7523C86.1034 55.8547 85.3214 56.297 84.0715 56.3226L84.078 56.3291Z" fill="#1B242B"/>
<path d="M16.8219 78.6923L20.1485 82.4803C20.9753 83.4161 22.4431 83.3969 23.2379 82.4355C23.8789 81.6663 23.8596 80.5446 23.1994 79.7947L19.8728 76.0066C19.046 75.0708 17.5782 75.09 16.7834 76.0515C16.1424 76.8206 16.1617 77.9423 16.8219 78.6923Z" fill="#34414C"/>
<g style="mix-blend-mode:multiply">
<path d="M53.2609 70.4854L64.67 68.7804C64.67 68.7804 81.3223 72.139 85.5526 55.3586L44.6592 50.3848C44.6592 50.3848 46.1526 59.8326 54.4787 64.0565L53.2609 70.4854Z" fill="#D1D3D4"/>
</g>
<g style="mix-blend-mode:multiply">
<path d="M148.674 155.682L155.962 152.644L188.349 155.124C186.125 152.817 183.645 150.24 180.972 147.465L153.532 147.055L148.674 155.676V155.682Z" fill="#D1D3D4"/>
</g>
<path d="M190.209 52.5833L259.446 43.4816C261.228 43.2445 262.554 45.0905 261.772 46.7057L235.397 101.053C235.397 101.053 194.805 115.154 152.501 102.335C152.501 102.335 177.05 86.9389 188.376 54.1024C188.658 53.2884 189.363 52.6987 190.215 52.5897L190.209 52.5833Z" fill="#F6F6F6"/>
<path d="M261.765 46.7057C262.547 45.0904 261.22 43.2509 259.438 43.4816L190.202 52.5833C189.349 52.6923 188.644 53.2884 188.362 54.096C187.388 56.929 186.305 59.6211 185.157 62.1977L258.547 53.3268L261.759 46.7057H261.765Z" fill="#3E70F1"/>
<path d="M245.402 49.6931C245.446 50.3918 245.055 50.9815 244.517 51.0199C243.985 51.052 243.517 50.52 243.472 49.8213C243.427 49.1227 243.818 48.533 244.357 48.4945C244.889 48.4625 245.357 48.9945 245.402 49.6931Z" fill="#F6F6F6"/>
<path d="M249.26 49.4422C249.305 50.1408 248.914 50.7305 248.375 50.769C247.843 50.801 247.376 50.269 247.331 49.5704C247.286 48.8717 247.677 48.282 248.215 48.2436C248.747 48.2115 249.215 48.7435 249.26 49.4422Z" fill="#F6F6F6"/>
<path d="M253.118 49.1931C253.163 49.8918 252.772 50.4815 252.234 50.5199C251.702 50.552 251.234 50.02 251.189 49.3213C251.144 48.6227 251.535 48.033 252.074 47.9945C252.606 47.9625 253.073 48.4945 253.118 49.1931Z" fill="#F6F6F6"/>
<path d="M187.452 67.8896C187.715 67.8896 246.004 61.6338 246.004 61.6338" stroke="#3E70F1" stroke-width="0.365349" stroke-linecap="round" stroke-linejoin="round"/>
<path d="M185.709 73.3641L243.389 67.3711" stroke="#3E70F1" stroke-width="0.365349" stroke-linecap="round" stroke-linejoin="round"/>
<path d="M183.017 79.3567L238.877 73.9727" stroke="#3E70F1" stroke-width="0.365349" stroke-linecap="round" stroke-linejoin="round"/>
<path d="M178.588 85.7022C178.588 85.7022 223.846 81.9654 235.922 80.4912" stroke="#3E70F1" stroke-width="0.365349" stroke-linecap="round" stroke-linejoin="round"/>
<path d="M173.986 91.4328C174.249 91.4328 201.439 91.6955 232.538 87.1768" stroke="#3E70F1" stroke-width="0.365349" stroke-linecap="round" stroke-linejoin="round"/>
<path d="M168.602 96.4707C168.602 96.4707 188.927 100.643 228.019 94.2979" stroke="#3E70F1" stroke-width="0.365349" stroke-linecap="round" stroke-linejoin="round"/>
<path d="M188.017 63.8005L176.621 71.9215L137.144 16.5103C134.913 13.376 135.65 8.98539 138.785 6.74843C141.919 4.51788 146.31 5.25498 148.547 8.38929L188.024 63.8005H188.017Z" fill="#FBCE67"/>
<path d="M143.695 8.91377L139.394 11.9785L183.018 73.2054L187.319 70.1406L143.695 8.91377Z" fill="#E5B553"/>
<path d="M138.778 6.74843C135.644 8.97898 134.907 13.376 137.137 16.5103L138.105 17.8691C140.688 16.2924 146.482 12.6966 149.828 10.2096L148.533 8.38929C146.303 5.25498 141.906 4.51788 138.772 6.74843H138.778Z" fill="#EA4E4E"/>
<path d="M137.144 16.5105L138.111 17.8693C138.925 17.3758 140.053 16.6772 141.323 15.8759C139.464 12.1263 138.733 9.17148 138.605 6.88965C135.624 9.15866 134.951 13.4339 137.144 16.5105Z" fill="#C64646"/>
<path d="M176.621 71.9218L188.549 78.5814C189.299 78.9852 190.184 78.3635 190.062 77.5238L188.017 63.8008C188.017 63.8008 179.646 63.9931 176.621 71.9218Z" fill="#FFE8BB"/>
<path d="M190.061 77.5232L189.35 72.748C186.555 73.389 184.991 74.9145 184.158 76.1323L188.549 78.5872C189.299 78.991 190.183 78.3693 190.061 77.5296V77.5232Z" fill="#23201A"/>
<path d="M137.483 16.9849L142.624 24.2021C145.021 22.9266 150.155 19.959 154.059 16.1324L148.905 8.90234C147.284 10.5688 143.649 13.8313 137.483 16.9849Z" fill="#23201A"/>
<path d="M138.694 18.1702C138.694 18.1702 145.142 15.5743 149.655 10.3633" stroke="#FBCE67" stroke-width="0.16665" stroke-linecap="round" stroke-linejoin="round"/>
<path d="M140.002 20.0032C140.002 20.0032 146.45 17.4073 150.962 12.1963" stroke="#FBCE67" stroke-width="0.16665" stroke-linecap="round" stroke-linejoin="round"/>
<path d="M141.31 21.8372C141.31 21.8372 147.758 19.2413 152.27 14.0303" stroke="#FBCE67" stroke-width="0.16665" stroke-linecap="round" stroke-linejoin="round"/>
<path d="M97.686 4.7373L85.7961 20.0307L90.8277 22.2548L83.2002 42.7144L97.6539 20.2294L92.2442 18.5821L97.686 4.7373Z" fill="#FFCC00"/>
<path d="M140.81 56.2578L128.216 60.6164L130.279 63.7891L118.197 72.7242L134.978 65.18L132.478 62.1995L140.81 56.2578Z" fill="#FFCC00"/>
<path d="M183.703 113.631L171.108 109.266L170.775 113.034L155.751 112.592L173.602 117.034L173.48 113.15L183.703 113.631Z" fill="#FFCC00"/>
<path d="M208.028 172.375L192.574 160.69L190.42 165.754L169.858 158.396L192.536 172.548L194.112 167.119L208.028 172.375Z" fill="#FFCC00"/>
<path d="M244.934 121.104H148.783C144.676 121.104 141.348 124.432 141.348 128.539V141.512C141.348 145.618 144.676 148.947 148.783 148.947H244.934C249.04 148.947 252.369 145.618 252.369 141.512V128.539C252.369 124.432 249.04 121.104 244.934 121.104Z" fill="url(#paint0_linear_37271_222198)"/>
<path d="M148.559 146.158V156.202L156.013 146.761L148.559 146.158Z" fill="#7E2EBC"/>
<path d="M156.935 127.661L158.96 131.763L163.492 132.423L160.21 135.622L160.986 140.134L156.935 138L152.878 140.134L153.653 135.622L150.378 132.423L154.91 131.763L156.935 127.661Z" fill="#FFCC00"/>
<path d="M176.85 127.661L178.882 131.763L183.413 132.423L180.132 135.622L180.907 140.134L176.85 138L172.799 140.134L173.575 135.622L170.293 132.423L174.825 131.763L176.85 127.661Z" fill="#FFCC00"/>
<path d="M196.771 127.661L198.796 131.763L203.328 132.423L200.053 135.622L200.822 140.134L196.771 138L192.72 140.134L193.489 135.622L190.214 132.423L194.745 131.763L196.771 127.661Z" fill="#FFCC00"/>
<path d="M216.692 127.661L218.718 131.763L223.249 132.423L219.968 135.622L220.743 140.134L216.692 138L212.635 140.134L213.411 135.622L210.129 132.423L214.667 131.763L216.692 127.661Z" fill="#FFCC00"/>
<path d="M236.606 127.661L238.638 131.763L243.169 132.423L239.888 135.622L240.663 140.134L236.606 138L232.555 140.134L233.331 135.622L230.049 132.423L234.58 131.763L236.606 127.661Z" fill="#FFCC00"/>
<path d="M90.6611 65.293L91.6225 66.9211C91.6995 67.0493 91.8341 67.1326 91.9815 67.1454L93.8659 67.28C94.2441 67.3057 94.4235 67.7543 94.1736 68.0364L92.9173 69.4529C92.8147 69.5683 92.7827 69.7221 92.8147 69.8631L93.2698 71.7027C93.3596 72.068 92.9942 72.3821 92.6417 72.2283L90.9047 71.4719C90.7701 71.4142 90.6098 71.4206 90.4816 71.504L88.8728 72.5039C88.5523 72.7026 88.1421 72.4462 88.1742 72.0744L88.36 70.19C88.3729 70.0426 88.3152 69.8951 88.1998 69.799L86.7512 68.5812C86.4628 68.3376 86.5782 67.8697 86.9435 67.7864L88.7895 67.3762C88.9369 67.3441 89.0587 67.2416 89.1164 67.1005L89.8278 65.3443C89.9689 64.9918 90.4496 64.9597 90.6419 65.2866L90.6611 65.293Z" fill="#FFCC00"/>
<path d="M218.59 175.418L218.924 176.347C218.949 176.424 219.013 176.475 219.09 176.494L220.045 176.744C220.238 176.796 220.289 177.039 220.129 177.161L219.347 177.77C219.283 177.821 219.251 177.892 219.257 177.975L219.315 178.962C219.328 179.161 219.11 179.283 218.943 179.174L218.123 178.622C218.058 178.578 217.975 178.571 217.905 178.597L216.982 178.956C216.796 179.026 216.61 178.86 216.668 178.667L216.943 177.719C216.962 177.642 216.943 177.565 216.898 177.501L216.27 176.738C216.142 176.584 216.251 176.353 216.45 176.347L217.437 176.315C217.514 176.315 217.584 176.27 217.629 176.206L218.161 175.373C218.27 175.206 218.52 175.232 218.584 175.418H218.59Z" fill="#FFCC00"/>
<path d="M168.494 17.4903L169.455 19.1183C169.532 19.2465 169.667 19.3299 169.814 19.3427L171.698 19.4773C172.077 19.5029 172.256 19.9516 172.006 20.2336L170.75 21.6501C170.647 21.7655 170.615 21.9193 170.647 22.0604L171.102 23.8999C171.192 24.2653 170.827 24.5793 170.474 24.4255L168.737 23.6692C168.603 23.6115 168.442 23.6179 168.314 23.7012L166.705 24.7011C166.385 24.8998 165.975 24.6434 166.007 24.2717L166.186 22.3873C166.199 22.2398 166.141 22.0924 166.026 21.9963L164.577 20.7784C164.289 20.5349 164.404 20.067 164.77 19.9836L166.616 19.5734C166.763 19.5414 166.885 19.4388 166.943 19.2978L167.654 17.5416C167.795 17.189 168.276 17.157 168.468 17.4839L168.494 17.4903Z" fill="#FFCC00"/>
<path d="M166.686 69.9659L167.647 71.5939C167.724 71.7221 167.858 71.8054 168.006 71.8183L169.89 71.9529C170.268 71.9785 170.448 72.4272 170.198 72.7092L168.942 74.1257C168.839 74.2411 168.807 74.3949 168.839 74.5359L169.294 76.3755C169.384 76.7409 169.019 77.0549 168.666 76.9011L166.929 76.1448C166.794 76.0871 166.634 76.0935 166.506 76.1768L164.897 77.1767C164.577 77.3754 164.167 77.119 164.199 76.7473L164.384 74.8628C164.397 74.7154 164.34 74.568 164.224 74.4719L162.776 73.254C162.487 73.0105 162.603 72.5426 162.968 72.4592L164.814 72.049C164.961 72.017 165.083 71.9144 165.141 71.7734L165.852 70.0172C165.993 69.6646 166.474 69.6326 166.666 69.9595L166.686 69.9659Z" fill="#F6F6F6"/>
<path d="M76.8798 10.4913L77.8413 12.1193C77.9182 12.2475 78.0528 12.3308 78.2002 12.3437L80.0847 12.4783C80.4628 12.5039 80.6423 12.9526 80.3923 13.2346L79.136 14.6511C79.0335 14.7665 79.0014 14.9203 79.0335 15.0613L79.4886 16.9009C79.5783 17.2662 79.213 17.5803 78.8604 17.4265L77.1234 16.6702C76.9888 16.6125 76.8286 16.6189 76.7004 16.7022L75.0916 17.7021C74.7711 17.9008 74.3609 17.6444 74.3929 17.2727L74.5788 15.3882C74.5916 15.2408 74.5339 15.0934 74.4186 14.9972L72.97 13.7794C72.6815 13.5358 72.7969 13.0679 73.1623 12.9846L75.0082 12.5744C75.1557 12.5424 75.2774 12.4398 75.3351 12.2988L76.0466 10.5425C76.1876 10.19 76.6683 10.158 76.8606 10.4849L76.8798 10.4913Z" fill="#F6F6F6"/>
<path d="M245.595 104.296L246.236 106.078C246.287 106.219 246.402 106.328 246.55 106.367L248.383 106.847C248.748 106.944 248.844 107.418 248.55 107.649L247.056 108.809C246.941 108.898 246.87 109.046 246.883 109.193L246.992 111.084C247.011 111.462 246.595 111.699 246.28 111.488L244.717 110.424C244.595 110.341 244.435 110.321 244.294 110.379L242.531 111.071C242.178 111.212 241.819 110.885 241.928 110.52L242.454 108.7C242.499 108.552 242.467 108.399 242.371 108.283L241.172 106.822C240.935 106.527 241.134 106.091 241.512 106.078L243.403 106.014C243.55 106.014 243.691 105.931 243.774 105.803L244.793 104.207C244.999 103.886 245.479 103.944 245.607 104.296H245.595Z" fill="#FFCC00"/>
<path d="M212.232 152.015L212.873 153.797C212.925 153.938 213.04 154.047 213.187 154.085L215.021 154.566C215.386 154.662 215.482 155.137 215.187 155.367L213.694 156.527C213.578 156.617 213.508 156.765 213.521 156.912L213.63 158.803C213.649 159.181 213.232 159.418 212.918 159.207L211.354 158.143C211.232 158.059 211.072 158.04 210.931 158.098L209.169 158.79C208.816 158.931 208.457 158.604 208.566 158.239L209.092 156.419C209.137 156.271 209.104 156.117 209.008 156.002L207.81 154.54C207.573 154.246 207.771 153.81 208.149 153.797L210.04 153.733C210.188 153.733 210.329 153.65 210.412 153.521L211.431 151.925C211.636 151.605 212.117 151.663 212.245 152.015H212.232Z" fill="#FFCC00"/>
<path d="M239.736 32.06L240.377 33.8419C240.429 33.9829 240.544 34.0919 240.691 34.1303L242.524 34.6111C242.89 34.7072 242.986 35.1815 242.691 35.4123L241.198 36.5724C241.082 36.6621 241.012 36.8096 241.025 36.957L241.134 38.8478C241.153 39.226 240.736 39.4631 240.422 39.2516L238.858 38.1876C238.736 38.1043 238.576 38.0851 238.435 38.1428L236.672 38.835C236.32 38.976 235.961 38.6491 236.07 38.2838L236.596 36.4634C236.634 36.316 236.608 36.1622 236.512 36.0468L235.314 34.5854C235.076 34.2906 235.275 33.8547 235.653 33.8419L237.544 33.7778C237.692 33.7778 237.833 33.6945 237.916 33.5663L238.935 31.9703C239.14 31.6498 239.621 31.7075 239.749 32.06H239.736Z" fill="#F6F6F6"/>
<path d="M157.027 0.30026L157.668 2.08214C157.72 2.22315 157.835 2.33211 157.982 2.37057L159.815 2.85129C160.181 2.94744 160.277 3.42175 159.982 3.6525L158.489 4.81264C158.367 4.90237 158.303 5.0498 158.316 5.19722L158.425 7.08806C158.444 7.46623 158.027 7.70338 157.713 7.49186L156.149 6.42787C156.027 6.34454 155.867 6.32531 155.726 6.383L153.963 7.07524C153.611 7.21625 153.252 6.88936 153.361 6.52401L153.887 4.70368C153.925 4.55625 153.899 4.40242 153.803 4.28705L152.605 2.82565C152.367 2.53081 152.566 2.09496 152.944 2.08214L154.835 2.01804C154.983 2.01804 155.124 1.93472 155.207 1.80652L156.226 0.210526C156.431 -0.109956 156.912 -0.0522692 157.04 0.30026H157.027Z" fill="#F6F6F6"/>
<path d="M185.331 46.7961L185.889 47.6998C185.934 47.7703 186.011 47.8152 186.094 47.8216L187.158 47.8729C187.369 47.8857 187.478 48.1357 187.337 48.2959L186.651 49.1036C186.594 49.1676 186.575 49.2574 186.6 49.3343L186.876 50.3598C186.934 50.5649 186.728 50.7444 186.53 50.6611L185.549 50.2573C185.472 50.2252 185.382 50.2316 185.312 50.2765L184.421 50.8534C184.241 50.9688 184.011 50.8277 184.024 50.6162L184.107 49.5586C184.113 49.4753 184.081 49.392 184.011 49.3407L183.184 48.6741C183.017 48.5395 183.081 48.2767 183.286 48.2254L184.318 47.9755C184.402 47.9562 184.466 47.8985 184.498 47.8152L184.876 46.8217C184.953 46.623 185.222 46.5974 185.331 46.7769V46.7961Z" fill="#F6F6F6"/>
<path d="M128.754 8.90839L129.312 9.81215C129.356 9.88266 129.433 9.92752 129.517 9.93393L130.581 9.98521C130.792 9.99803 130.901 10.248 130.76 10.4082L130.074 11.2159C130.017 11.28 129.997 11.3697 130.023 11.4466L130.299 12.4721C130.356 12.6773 130.151 12.8567 129.953 12.7734L128.972 12.3696C128.895 12.3375 128.805 12.344 128.735 12.3888L127.844 12.9657C127.664 13.0811 127.434 12.94 127.446 12.7285L127.53 11.6709C127.536 11.5876 127.504 11.5043 127.434 11.453L126.607 10.7864C126.44 10.6518 126.504 10.389 126.709 10.3377L127.741 10.0878C127.825 10.0685 127.889 10.0108 127.921 9.92752L128.299 8.93403C128.376 8.73533 128.645 8.70969 128.754 8.88916V8.90839Z" fill="#F6F6F6"/>
<path d="M67.4967 8.43427L67.83 9.36367C67.8556 9.44058 67.9197 9.49186 67.9967 9.51109L68.9517 9.76106C69.144 9.81234 69.1953 10.0559 69.035 10.1777L68.253 10.7866C68.1889 10.8379 68.1569 10.9084 68.1633 10.9917L68.221 11.9788C68.2338 12.1775 68.0159 12.2993 67.8492 12.1903L67.0288 11.6391C66.9647 11.5942 66.8814 11.5878 66.8109 11.6134L65.8879 11.9724C65.702 12.0429 65.5161 11.8762 65.5738 11.684L65.8494 10.7353C65.8687 10.6584 65.8494 10.5815 65.8046 10.5174L65.1764 9.75465C65.0482 9.60082 65.1572 9.37008 65.3559 9.36367L66.343 9.33162C66.4199 9.33162 66.4904 9.28675 66.5353 9.22266L67.0673 8.3894C67.1762 8.22275 67.4262 8.24839 67.4903 8.43427H67.4967Z" fill="#FFCC00"/>
<path d="M249.582 38.3093L249.915 39.2387C249.941 39.3156 250.005 39.3669 250.082 39.3861L251.037 39.6361C251.229 39.6873 251.28 39.9309 251.12 40.0527L250.338 40.6616C250.274 40.7129 250.242 40.7834 250.248 40.8667L250.306 41.8538C250.319 42.0525 250.101 42.1743 249.934 42.0653L249.114 41.5141C249.05 41.4692 248.966 41.4628 248.896 41.4884L247.973 41.8474C247.787 41.9179 247.601 41.7512 247.659 41.5589L247.934 40.6103C247.954 40.5334 247.934 40.4565 247.89 40.3924L247.261 39.6297C247.133 39.4758 247.242 39.2451 247.441 39.2387L248.428 39.2066C248.505 39.2066 248.575 39.1618 248.62 39.0977L249.152 38.2644C249.261 38.0978 249.511 38.1234 249.575 38.3093H249.582Z" fill="#FFCC00"/>
<path d="M165.096 62.7692L165.43 63.6986C165.455 63.7755 165.519 63.8268 165.596 63.846L166.551 64.096C166.744 64.1473 166.795 64.3909 166.635 64.5127L165.853 65.1216C165.789 65.1728 165.756 65.2433 165.763 65.3267L165.821 66.3138C165.833 66.5125 165.615 66.6342 165.449 66.5253L164.628 65.974C164.564 65.9292 164.481 65.9228 164.41 65.9484L163.487 66.3073C163.302 66.3779 163.116 66.2112 163.173 66.0189L163.449 65.0703C163.468 64.9934 163.449 64.9165 163.404 64.8524L162.776 64.0896C162.648 63.9358 162.757 63.705 162.955 63.6986L163.943 63.6666C164.019 63.6666 164.09 63.6217 164.135 63.5576L164.667 62.7244C164.776 62.5577 165.026 62.5834 165.09 62.7692H165.096Z" fill="#FFCC00"/>
<path d="M242.333 95.029L242.666 95.9584C242.692 96.0353 242.756 96.0866 242.833 96.1058L243.788 96.3558C243.98 96.4071 244.031 96.6506 243.871 96.7724L243.089 97.3813C243.025 97.4326 242.993 97.5031 242.999 97.5864L243.057 98.5735C243.07 98.7722 242.852 98.894 242.685 98.785L241.865 98.2338C241.801 98.1889 241.717 98.1825 241.647 98.2082L240.724 98.5671C240.538 98.6376 240.352 98.471 240.41 98.2787L240.685 97.3301C240.705 97.2531 240.685 97.1762 240.641 97.1121L240.012 96.3494C239.884 96.1956 239.993 95.9648 240.192 95.9584L241.179 95.9263C241.256 95.9263 241.326 95.8815 241.371 95.8174L241.903 94.9841C242.012 94.8175 242.262 94.8431 242.326 95.029H242.333Z" fill="#FFCC00"/>
<path d="M227.763 114.424L228.097 115.353C228.122 115.43 228.186 115.481 228.263 115.5L229.218 115.75C229.411 115.802 229.462 116.045 229.302 116.167L228.52 116.776C228.456 116.827 228.423 116.898 228.43 116.981L228.488 117.968C228.5 118.167 228.282 118.289 228.116 118.18L227.295 117.628C227.231 117.583 227.148 117.577 227.077 117.603L226.154 117.962C225.969 118.032 225.783 117.865 225.84 117.673L226.116 116.725C226.135 116.648 226.116 116.571 226.071 116.507L225.443 115.744C225.315 115.59 225.424 115.359 225.622 115.353L226.61 115.321C226.686 115.321 226.757 115.276 226.802 115.212L227.334 114.379C227.443 114.212 227.693 114.238 227.757 114.424H227.763Z" fill="#F6F6F6"/>
<path d="M72.3609 148.568L73.0595 163.515L36.1465 174.847L70.8418 148.35L72.3609 148.568Z" fill="#DAC7FF"/>
<path d="M36.2363 174.847L70.9316 148.35L53.991 146.594L36.2363 174.847Z" fill="#EADEF4"/>
<path d="M36.2363 174.848L72.4507 148.568L101.615 152.094L36.2363 174.848Z" fill="#EADEF4"/>
<path d="M75.541 145.869C75.7718 145.67 75.9961 145.472 76.2268 145.267" stroke="#383838" stroke-width="0.640963" stroke-linecap="round" stroke-linejoin="round"/>
<path d="M77.5469 144.031C83.7065 137.948 87.8407 129.827 89.0778 121.257C89.315 119.623 89.4431 117.905 88.8791 116.354C87.6164 112.848 82.8284 111.406 79.5531 113.175C76.2714 114.944 74.7651 119.174 75.6048 122.802C76.438 126.436 79.2647 129.398 82.5977 131.058C85.9371 132.718 89.7444 133.198 93.4748 133.179C101.006 133.134 108.672 131.013 114.556 126.315C119.966 121.994 123.683 115.361 123.863 108.477" stroke="#383838" stroke-width="0.640963" stroke-linecap="round" stroke-linejoin="round"/>
<path d="M123.857 107.572C123.857 107.271 123.838 106.97 123.818 106.662" stroke="#383838" stroke-width="0.640963" stroke-linecap="round" stroke-linejoin="round"/>
<path d="M66.7377 65.8017C79.4815 65.8017 89.8124 55.4708 89.8124 42.727C89.8124 29.9832 79.4815 19.6523 66.7377 19.6523C53.994 19.6523 43.6631 29.9832 43.6631 42.727C43.6631 55.4708 53.994 65.8017 66.7377 65.8017Z" fill="#ED2939"/>
<path d="M81.1433 42.577C81.1433 46.4374 79.6098 50.1397 76.8801 52.8694C74.1504 55.5991 70.4482 57.1326 66.5878 57.1326C62.7274 57.1326 59.0251 55.5991 56.2955 52.8694C53.5658 50.1397 52.0322 46.4374 52.0322 42.577C52.0322 38.7167 53.5658 35.0144 56.2955 32.2847C59.0251 29.555 62.7274 28.0215 66.5878 28.0215C70.4482 28.0215 74.1504 29.555 76.8801 32.2847C79.6098 35.0144 81.1433 38.7167 81.1433 42.577ZM66.5878 34.3895C66.5878 34.1483 66.4919 33.9169 66.3213 33.7463C66.1507 33.5757 65.9193 33.4798 65.6781 33.4798C65.4368 33.4798 65.2054 33.5757 65.0348 33.7463C64.8642 33.9169 64.7683 34.1483 64.7683 34.3895V44.3965C64.7684 44.5568 64.8108 44.7143 64.8913 44.853C64.9719 44.9917 65.0876 45.1066 65.2268 45.1861L71.5949 48.825C71.8039 48.938 72.0487 48.9647 72.2772 48.8995C72.5056 48.8343 72.6994 48.6823 72.8173 48.476C72.9351 48.2698 72.9677 48.0256 72.9079 47.7957C72.8481 47.5658 72.7007 47.3684 72.4973 47.2457L66.5878 43.8688V34.3895Z" fill="white"/>
<path d="M57.394 59.8643L53.2598 70.485L70.2196 62.9024L57.394 59.8643Z" fill="#ED2939"/>
<defs>
<linearGradient id="paint0_linear_37271_222198" x1="157.606" y1="144.869" x2="165.866" y2="112.376" gradientUnits="userSpaceOnUse">
<stop stop-color="#7E2EBC"/>
<stop offset="1" stop-color="#C054EE"/>
</linearGradient>
</defs>
</svg>
