<svg width="20" height="20" viewBox="0 0 20 20" fill="none" xmlns="http://www.w3.org/2000/svg">
<g clip-path="url(#clip0_30271_7701)">
<path d="M10.0007 12.9165H6.25074C5.08779 12.9165 4.50631 12.9165 4.03315 13.06C2.96784 13.3832 2.13417 14.2168 1.81101 15.2822C1.66748 15.7553 1.66748 16.3368 1.66748 17.4997M12.084 6.24994C12.084 8.32097 10.4051 9.99987 8.33403 9.99987C6.263 9.99987 4.5841 8.32097 4.5841 6.24994C4.5841 4.1789 6.263 2.5 8.33403 2.5C10.4051 2.5 12.084 4.1789 12.084 6.24994ZM16.4203 12.4998C17.3987 12.4998 18.0561 13.4311 18.0561 14.2998C18.0561 16.0591 15.3277 17.4997 15.2784 17.4997C15.229 17.4997 12.5006 16.0591 12.5006 14.2998C12.5006 13.4311 13.158 12.4998 14.1364 12.4998C14.6981 12.4998 15.0654 12.7842 15.2784 13.0342C15.4913 12.7842 15.8586 12.4998 16.4203 12.4998Z" stroke="#1A1A1A" stroke-width="1.67" stroke-linecap="round" stroke-linejoin="round"/>
</g>
<defs>
<clipPath id="clip0_30271_7701">
<rect width="19.9997" height="19.9997" fill="white" transform="translate(0.000732422)"/>
</clipPath>
</defs>
</svg>
