<svg width="84" height="120" viewBox="0 0 84 120" fill="none" xmlns="http://www.w3.org/2000/svg">
<path d="M6 0L0.226497 10H11.7735L6 0ZM6 120L11.7735 110H0.226497L6 120ZM5 9V111H7V9H5Z" fill="white"/>
<path d="M14.5682 32.392V30.3636H24.125V32.392H20.5625V42H18.1307V32.392H14.5682ZM24.5872 42V33.2727H26.9338V34.7955H27.0247C27.1838 34.2538 27.4508 33.8447 27.8258 33.5682C28.2008 33.2879 28.6326 33.1477 29.1213 33.1477C29.2425 33.1477 29.3731 33.1553 29.5133 33.1705C29.6534 33.1856 29.7766 33.2064 29.8826 33.233V35.3807C29.769 35.3466 29.6118 35.3163 29.411 35.2898C29.2103 35.2633 29.0266 35.25 28.8599 35.25C28.5038 35.25 28.1856 35.3277 27.9053 35.483C27.6288 35.6345 27.4091 35.8466 27.2463 36.1193C27.0872 36.392 27.0076 36.7064 27.0076 37.0625V42H24.5872ZM40.2013 32.7898H41.6047C41.6009 33.4489 41.5024 34.0019 41.3093 34.4489C41.1161 34.892 40.7884 35.2254 40.3263 35.4489C39.868 35.6723 39.2411 35.7841 38.4456 35.7841V34.7045C38.9721 34.7045 39.3585 34.6345 39.6047 34.4943C39.8547 34.3542 40.0157 34.1439 40.0877 33.8636C40.1634 33.5795 40.2013 33.2216 40.2013 32.7898ZM36.6274 38.2841V33.2727H39.0422V42H36.724V40.4148H36.6331C36.4362 40.9261 36.1085 41.3371 35.6502 41.6477C35.1956 41.9583 34.6407 42.1136 33.9854 42.1136C33.4021 42.1136 32.8888 41.9811 32.4456 41.7159C32.0024 41.4508 31.6559 41.0739 31.4059 40.5852C31.1596 40.0966 31.0346 39.5114 31.0309 38.8295V33.2727H33.4513V38.3977C33.4513 38.9129 33.5877 39.3201 33.8604 39.6193C34.1369 39.9186 34.5043 40.0682 34.9627 40.0682C35.2543 40.0682 35.5252 40.0019 35.7752 39.8693C36.029 39.733 36.2335 39.5322 36.3888 39.267C36.5479 39.0019 36.6274 38.6742 36.6274 38.2841ZM49.8623 32.7614H51.3055C51.3055 33.7235 51.0763 34.4735 50.618 35.0114C50.1597 35.5455 49.4229 35.8125 48.4078 35.8125V34.8466C48.8093 34.8466 49.1142 34.7633 49.3226 34.5966C49.5309 34.4261 49.6729 34.1856 49.7487 33.875C49.8245 33.5644 49.8623 33.1932 49.8623 32.7614ZM46.101 42.1705C45.2184 42.1705 44.4551 41.983 43.8112 41.608C43.171 41.2292 42.6767 40.7027 42.3282 40.0284C41.9798 39.3504 41.8055 38.5644 41.8055 37.6705C41.8055 36.7689 41.9798 35.9811 42.3282 35.3068C42.6767 34.6288 43.171 34.1023 43.8112 33.7273C44.4551 33.3485 45.2184 33.1591 46.101 33.1591C46.9835 33.1591 47.7449 33.3485 48.3851 33.7273C49.029 34.1023 49.5252 34.6288 49.8737 35.3068C50.2222 35.9811 50.3964 36.7689 50.3964 37.6705C50.3964 38.5644 50.2222 39.3504 49.8737 40.0284C49.5252 40.7027 49.029 41.2292 48.3851 41.608C47.7449 41.983 46.9835 42.1705 46.101 42.1705ZM46.1123 40.2955C46.5138 40.2955 46.8491 40.1818 47.118 39.9545C47.387 39.7235 47.5896 39.4091 47.726 39.0114C47.8661 38.6136 47.9362 38.161 47.9362 37.6534C47.9362 37.1458 47.8661 36.6932 47.726 36.2955C47.5896 35.8977 47.387 35.5833 47.118 35.3523C46.8491 35.1212 46.5138 35.0057 46.1123 35.0057C45.707 35.0057 45.3661 35.1212 45.0896 35.3523C44.8169 35.5833 44.6104 35.8977 44.4703 36.2955C44.3339 36.6932 44.2657 37.1458 44.2657 37.6534C44.2657 38.161 44.3339 38.6136 44.4703 39.0114C44.6104 39.4091 44.8169 39.7235 45.0896 39.9545C45.3661 40.1818 45.707 40.2955 46.1123 40.2955ZM46.101 45.267C45.7411 45.267 45.4324 45.1477 45.1748 44.9091C44.9173 44.6705 44.7885 44.3826 44.7885 44.0455C44.7885 43.7083 44.9173 43.4205 45.1748 43.1818C45.4324 42.9432 45.7411 42.8239 46.101 42.8239C46.4608 42.8239 46.7676 42.9432 47.0214 43.1818C47.279 43.4205 47.4078 43.7083 47.4078 44.0455C47.4078 44.3826 47.279 44.6705 47.0214 44.9091C46.7676 45.1477 46.4608 45.267 46.101 45.267ZM56.7492 33.2727V35.0909H51.4935V33.2727H56.7492ZM52.6867 31.1818H55.1072V39.3182C55.1072 39.5417 55.1413 39.7159 55.2094 39.8409C55.2776 39.9621 55.3723 40.0473 55.4935 40.0966C55.6185 40.1458 55.7625 40.1705 55.9253 40.1705C56.039 40.1705 56.1526 40.161 56.2663 40.142C56.3799 40.1193 56.467 40.1023 56.5276 40.0909L56.9083 41.892C56.7871 41.9299 56.6166 41.9735 56.3969 42.0227C56.1772 42.0758 55.9102 42.108 55.5958 42.1193C55.0125 42.142 54.5011 42.0644 54.0617 41.8864C53.6261 41.7083 53.2871 41.4318 53.0447 41.0568C52.8022 40.6818 52.6829 40.2083 52.6867 39.6364V31.1818ZM64.9249 42.142C64.2621 42.142 63.6617 41.9716 63.1238 41.6307C62.5897 41.286 62.1655 40.7803 61.8511 40.1136C61.5405 39.4432 61.3852 38.6212 61.3852 37.6477C61.3852 36.6477 61.5462 35.8163 61.8681 35.1534C62.1901 34.4867 62.6181 33.9886 63.1522 33.6591C63.6901 33.3258 64.2791 33.1591 64.9193 33.1591C65.4079 33.1591 65.8151 33.2424 66.1409 33.4091C66.4704 33.572 66.7356 33.7765 66.9363 34.0227C67.1409 34.2652 67.2962 34.5038 67.4022 34.7386H67.4761V30.3636H69.8909V42H67.5045V40.6023H67.4022C67.2886 40.8447 67.1276 41.0852 66.9193 41.3239C66.7147 41.5587 66.4477 41.7538 66.1181 41.9091C65.7924 42.0644 65.3946 42.142 64.9249 42.142ZM65.692 40.2159C66.0821 40.2159 66.4117 40.1098 66.6806 39.8977C66.9534 39.6818 67.1617 39.3807 67.3056 38.9943C67.4534 38.608 67.5272 38.1553 67.5272 37.6364C67.5272 37.1174 67.4552 36.6667 67.3113 36.2841C67.1674 35.9015 66.959 35.6061 66.6863 35.3977C66.4136 35.1894 66.0821 35.0852 65.692 35.0852C65.2943 35.0852 64.959 35.1932 64.6863 35.4091C64.4136 35.625 64.2071 35.9242 64.067 36.3068C63.9268 36.6894 63.8568 37.1326 63.8568 37.6364C63.8568 38.1439 63.9268 38.5928 64.067 38.983C64.2109 39.3693 64.4174 39.6723 64.6863 39.892C64.959 40.108 65.2943 40.2159 65.692 40.2159ZM65.2147 32.6761V31.25H70.8852V32.6761H65.2147ZM75.6982 42.1705C74.8005 42.1705 74.0277 41.9886 73.38 41.625C72.7361 41.2576 72.2398 40.7386 71.8914 40.0682C71.5429 39.3939 71.3686 38.5966 71.3686 37.6761C71.3686 36.7784 71.5429 35.9905 71.8914 35.3125C72.2398 34.6345 72.7304 34.1061 73.363 33.7273C73.9993 33.3485 74.7455 33.1591 75.6016 33.1591C76.1773 33.1591 76.7133 33.2519 77.2095 33.4375C77.7095 33.6193 78.1452 33.8939 78.5164 34.2614C78.8914 34.6288 79.183 35.0909 79.3914 35.6477C79.5997 36.2008 79.7039 36.8485 79.7039 37.5909V38.2557H72.3345V36.7557H77.4255C77.4255 36.4072 77.3497 36.0985 77.1982 35.8295C77.0467 35.5606 76.8364 35.3504 76.5675 35.1989C76.3023 35.0436 75.9936 34.9659 75.6414 34.9659C75.2739 34.9659 74.9482 35.0511 74.6641 35.2216C74.3838 35.3883 74.1641 35.6136 74.005 35.8977C73.8459 36.178 73.7645 36.4905 73.7607 36.8352V38.2614C73.7607 38.6932 73.8402 39.0663 73.9993 39.3807C74.1622 39.6951 74.3914 39.9375 74.6868 40.108C74.9823 40.2784 75.3327 40.3636 75.738 40.3636C76.0069 40.3636 76.2531 40.3258 76.4766 40.25C76.7001 40.1742 76.8914 40.0606 77.0505 39.9091C77.2095 39.7576 77.3308 39.572 77.4141 39.3523L79.6527 39.5C79.5391 40.0379 79.3061 40.5076 78.9539 40.9091C78.6054 41.3068 78.1546 41.6174 77.6016 41.8409C77.0523 42.0606 76.4179 42.1705 75.6982 42.1705ZM76.2209 30.6136L78.4595 32.3807H76.7948L75.5334 31.3864L74.255 32.3807H72.5902L74.8289 30.6136H76.2209ZM78.9766 31.3864H77.7209L77.613 30.5341C77.9387 30.5189 78.1755 30.4773 78.3232 30.4091C78.4709 30.3409 78.5448 30.2405 78.5448 30.108C78.5448 29.9337 78.452 29.8163 78.2664 29.7557C78.0808 29.6951 77.8497 29.6648 77.5732 29.6648L77.63 28.75C78.3989 28.75 78.9861 28.8636 79.3914 29.0909C79.7967 29.3144 79.9993 29.6307 79.9993 30.0398C79.9993 30.3239 79.8914 30.5417 79.6755 30.6932C79.4633 30.8409 79.2304 30.9356 78.9766 30.9773V31.3864ZM19.608 57.2727V59.0909H14.3523V57.2727H19.608ZM15.5455 55.1818H17.9659V63.3182C17.9659 63.5417 18 63.7159 18.0682 63.8409C18.1364 63.9621 18.2311 64.0473 18.3523 64.0966C18.4773 64.1458 18.6212 64.1705 18.7841 64.1705C18.8977 64.1705 19.0114 64.161 19.125 64.142C19.2386 64.1193 19.3258 64.1023 19.3864 64.0909L19.767 65.892C19.6458 65.9299 19.4754 65.9735 19.2557 66.0227C19.036 66.0758 18.7689 66.108 18.4545 66.1193C17.8712 66.142 17.3598 66.0644 16.9205 65.8864C16.4848 65.7083 16.1458 65.4318 15.9034 65.0568C15.661 64.6818 15.5417 64.2083 15.5455 63.6364V55.1818ZM23.6326 60.9545V66H21.2122V54.3636H23.5644V58.8125H23.6667C23.8637 58.2973 24.1819 57.8939 24.6213 57.6023C25.0606 57.3068 25.6118 57.1591 26.2747 57.1591C26.8807 57.1591 27.4091 57.2917 27.8599 57.5568C28.3144 57.8182 28.6667 58.1951 28.9167 58.6875C29.1705 59.1761 29.2955 59.7614 29.2917 60.4432V66H26.8713V60.875C26.875 60.3371 26.7387 59.9186 26.4622 59.6193C26.1894 59.3201 25.8069 59.1705 25.3144 59.1705C24.9849 59.1705 24.6932 59.2405 24.4394 59.3807C24.1894 59.5208 23.9925 59.7254 23.8485 59.9943C23.7084 60.2595 23.6364 60.5795 23.6326 60.9545ZM33.5252 66.1648C32.9684 66.1648 32.4721 66.0682 32.0365 65.875C31.6009 65.678 31.2562 65.3883 31.0024 65.0057C30.7524 64.6193 30.6274 64.1383 30.6274 63.5625C30.6274 63.0777 30.7165 62.6705 30.8945 62.3409C31.0725 62.0114 31.3149 61.7462 31.6218 61.5455C31.9286 61.3447 32.2771 61.1932 32.6672 61.0909C33.0612 60.9886 33.474 60.9167 33.9059 60.875C34.4134 60.822 34.8225 60.7727 35.1331 60.7273C35.4437 60.678 35.6691 60.6061 35.8093 60.5114C35.9494 60.4167 36.0195 60.2765 36.0195 60.0909V60.0568C36.0195 59.697 35.9059 59.4186 35.6786 59.2216C35.4551 59.0246 35.1369 58.9261 34.724 58.9261C34.2884 58.9261 33.9418 59.0227 33.6843 59.2159C33.4267 59.4053 33.2562 59.6439 33.1729 59.9318L30.9343 59.75C31.0479 59.2197 31.2714 58.7614 31.6047 58.375C31.938 57.9848 32.368 57.6856 32.8945 57.4773C33.4248 57.2652 34.0384 57.1591 34.7354 57.1591C35.2202 57.1591 35.6843 57.2159 36.1274 57.3295C36.5744 57.4432 36.9702 57.6193 37.3149 57.858C37.6634 58.0966 37.938 58.4034 38.1388 58.7784C38.3396 59.1496 38.4399 59.5947 38.4399 60.1136V66H36.1445V64.7898H36.0763C35.9362 65.0625 35.7487 65.303 35.5138 65.5114C35.279 65.7159 34.9968 65.8769 34.6672 65.9943C34.3377 66.108 33.957 66.1648 33.5252 66.1648ZM34.2184 64.4943C34.5744 64.4943 34.8888 64.4242 35.1615 64.2841C35.4343 64.1402 35.6483 63.947 35.8036 63.7045C35.9589 63.4621 36.0365 63.1875 36.0365 62.8807V61.9545C35.9608 62.0038 35.8566 62.0492 35.724 62.0909C35.5952 62.1288 35.4494 62.1648 35.2865 62.1989C35.1237 62.2292 34.9608 62.2576 34.7979 62.2841C34.635 62.3068 34.4873 62.3277 34.3547 62.3466C34.0706 62.3883 33.8225 62.4545 33.6104 62.5455C33.3983 62.6364 33.2335 62.7595 33.1161 62.9148C32.9987 63.0663 32.9399 63.2557 32.9399 63.483C32.9399 63.8125 33.0593 64.0644 33.2979 64.2386C33.5403 64.4091 33.8471 64.4943 34.2184 64.4943ZM41.3396 69.2727C41.0328 69.2727 40.7449 69.2481 40.476 69.1989C40.2108 69.1534 39.9911 69.0947 39.8169 69.0227L40.3623 67.2159C40.6464 67.303 40.9021 67.3504 41.1294 67.358C41.3604 67.3655 41.5593 67.3125 41.726 67.1989C41.8964 67.0852 42.0347 66.892 42.1407 66.6193L42.2828 66.25L39.1521 57.2727H41.6976L43.5044 63.6818H43.5953L45.4191 57.2727H47.9816L44.5896 66.9432C44.4267 67.4129 44.2051 67.822 43.9248 68.1705C43.6483 68.5227 43.2979 68.7936 42.8737 68.983C42.4495 69.1761 41.9381 69.2727 41.3396 69.2727ZM55.8193 66.142C55.1564 66.142 54.5561 65.9716 54.0182 65.6307C53.4841 65.286 53.0598 64.7803 52.7455 64.1136C52.4348 63.4432 52.2795 62.6212 52.2795 61.6477C52.2795 60.6477 52.4405 59.8163 52.7625 59.1534C53.0845 58.4867 53.5125 57.9886 54.0466 57.6591C54.5845 57.3258 55.1735 57.1591 55.8136 57.1591C56.3023 57.1591 56.7095 57.2424 57.0352 57.4091C57.3648 57.572 57.6299 57.7765 57.8307 58.0227C58.0352 58.2652 58.1905 58.5038 58.2966 58.7386H58.3705V54.3636H60.7852V66H58.3989V64.6023H58.2966C58.183 64.8447 58.022 65.0852 57.8136 65.3239C57.6091 65.5587 57.342 65.7538 57.0125 65.9091C56.6867 66.0644 56.289 66.142 55.8193 66.142ZM56.5864 64.2159C56.9765 64.2159 57.3061 64.1098 57.575 63.8977C57.8477 63.6818 58.0561 63.3807 58.2 62.9943C58.3477 62.608 58.4216 62.1553 58.4216 61.6364C58.4216 61.1174 58.3496 60.6667 58.2057 60.2841C58.0617 59.9015 57.8534 59.6061 57.5807 59.3977C57.308 59.1894 56.9765 59.0852 56.5864 59.0852C56.1886 59.0852 55.8534 59.1932 55.5807 59.4091C55.308 59.625 55.1015 59.9242 54.9614 60.3068C54.8212 60.6894 54.7511 61.1326 54.7511 61.6364C54.7511 62.1439 54.8212 62.5928 54.9614 62.983C55.1053 63.3693 55.3117 63.6723 55.5807 63.892C55.8534 64.108 56.1886 64.2159 56.5864 64.2159ZM56.1091 56.6761V55.25H61.7795V56.6761H56.1091ZM66.5585 66.1705C65.6759 66.1705 64.9126 65.983 64.2687 65.608C63.6285 65.2292 63.1342 64.7027 62.7857 64.0284C62.4373 63.3504 62.263 62.5644 62.263 61.6705C62.263 60.7689 62.4373 59.9811 62.7857 59.3068C63.1342 58.6288 63.6285 58.1023 64.2687 57.7273C64.9126 57.3485 65.6759 57.1591 66.5585 57.1591C67.441 57.1591 68.2024 57.3485 68.8426 57.7273C69.4865 58.1023 69.9827 58.6288 70.3312 59.3068C70.6797 59.9811 70.8539 60.7689 70.8539 61.6705C70.8539 62.5644 70.6797 63.3504 70.3312 64.0284C69.9827 64.7027 69.4865 65.2292 68.8426 65.608C68.2024 65.983 67.441 66.1705 66.5585 66.1705ZM66.5698 64.2955C66.9713 64.2955 67.3066 64.1818 67.5755 63.9545C67.8445 63.7235 68.0471 63.4091 68.1835 63.0114C68.3236 62.6136 68.3937 62.161 68.3937 61.6534C68.3937 61.1458 68.3236 60.6932 68.1835 60.2955C68.0471 59.8977 67.8445 59.5833 67.5755 59.3523C67.3066 59.1212 66.9713 59.0057 66.5698 59.0057C66.1645 59.0057 65.8236 59.1212 65.5471 59.3523C65.2744 59.5833 65.0679 59.8977 64.9278 60.2955C64.7914 60.6932 64.7232 61.1458 64.7232 61.6534C64.7232 62.161 64.7914 62.6136 64.9278 63.0114C65.0679 63.4091 65.2744 63.7235 65.5471 63.9545C65.8236 64.1818 66.1645 64.2955 66.5698 64.2955ZM67.2346 54.6136L69.4732 56.3807H67.8085L66.5471 55.3864L65.2687 56.3807H63.6039L65.8426 54.6136H67.2346ZM69.9903 55.3864H68.7346L68.6266 54.5341C68.9524 54.5189 69.1891 54.4773 69.3369 54.4091C69.4846 54.3409 69.5585 54.2405 69.5585 54.108C69.5585 53.9337 69.4657 53.8163 69.2801 53.7557C69.0945 53.6951 68.8634 53.6648 68.5869 53.6648L68.6437 52.75C69.4126 52.75 69.9998 52.8636 70.4051 53.0909C70.8104 53.3144 71.013 53.6307 71.013 54.0398C71.013 54.3239 70.9051 54.5417 70.6891 54.6932C70.477 54.8409 70.2441 54.9356 69.9903 54.9773V55.3864ZM72.2678 66V57.2727H74.6882V66H72.2678ZM73.4837 56.1477C73.1238 56.1477 72.8151 56.0284 72.5576 55.7898C72.3038 55.5473 72.1769 55.2576 72.1769 54.9205C72.1769 54.5871 72.3038 54.3011 72.5576 54.0625C72.8151 53.8201 73.1238 53.6989 73.4837 53.6989C73.8435 53.6989 74.1504 53.8201 74.4041 54.0625C74.6617 54.3011 74.7905 54.5871 74.7905 54.9205C74.7905 55.2576 74.6617 55.5473 74.4041 55.7898C74.1504 56.0284 73.8435 56.1477 73.4837 56.1477ZM19.608 81.2727V83.0909H14.3523V81.2727H19.608ZM15.5455 79.1818H17.9659V87.3182C17.9659 87.5417 18 87.7159 18.0682 87.8409C18.1364 87.9621 18.2311 88.0473 18.3523 88.0966C18.4773 88.1458 18.6212 88.1705 18.7841 88.1705C18.8977 88.1705 19.0114 88.161 19.125 88.142C19.2386 88.1193 19.3258 88.1023 19.3864 88.0909L19.767 89.892C19.6458 89.9299 19.4754 89.9735 19.2557 90.0227C19.036 90.0758 18.7689 90.108 18.4545 90.1193C17.8712 90.142 17.3598 90.0644 16.9205 89.8864C16.4848 89.7083 16.1458 89.4318 15.9034 89.0568C15.661 88.6818 15.5417 88.2083 15.5455 87.6364V79.1818ZM23.6326 84.9545V90H21.2122V78.3636H23.5644V82.8125H23.6667C23.8637 82.2973 24.1819 81.8939 24.6213 81.6023C25.0606 81.3068 25.6118 81.1591 26.2747 81.1591C26.8807 81.1591 27.4091 81.2917 27.8599 81.5568C28.3144 81.8182 28.6667 82.1951 28.9167 82.6875C29.1705 83.1761 29.2955 83.7614 29.2917 84.4432V90H26.8713V84.875C26.875 84.3371 26.7387 83.9186 26.4622 83.6193C26.1894 83.3201 25.8069 83.1705 25.3144 83.1705C24.9849 83.1705 24.6932 83.2405 24.4394 83.3807C24.1894 83.5208 23.9925 83.7254 23.8485 83.9943C23.7084 84.2595 23.6364 84.5795 23.6326 84.9545ZM38.7411 80.7614H40.1843C40.1843 81.7235 39.9551 82.4735 39.4968 83.0114C39.0384 83.5455 38.3017 83.8125 37.2865 83.8125V82.8466C37.688 82.8466 37.993 82.7633 38.2013 82.5966C38.4096 82.4261 38.5517 82.1856 38.6274 81.875C38.7032 81.5644 38.7411 81.1932 38.7411 80.7614ZM34.9797 90.1705C34.0971 90.1705 33.3339 89.983 32.6899 89.608C32.0498 89.2292 31.5555 88.7027 31.207 88.0284C30.8585 87.3504 30.6843 86.5644 30.6843 85.6705C30.6843 84.7689 30.8585 83.9811 31.207 83.3068C31.5555 82.6288 32.0498 82.1023 32.6899 81.7273C33.3339 81.3485 34.0971 81.1591 34.9797 81.1591C35.8623 81.1591 36.6237 81.3485 37.2638 81.7273C37.9077 82.1023 38.404 82.6288 38.7524 83.3068C39.1009 83.9811 39.2752 84.7689 39.2752 85.6705C39.2752 86.5644 39.1009 87.3504 38.7524 88.0284C38.404 88.7027 37.9077 89.2292 37.2638 89.608C36.6237 89.983 35.8623 90.1705 34.9797 90.1705ZM34.9911 88.2955C35.3926 88.2955 35.7278 88.1818 35.9968 87.9545C36.2657 87.7235 36.4684 87.4091 36.6047 87.0114C36.7449 86.6136 36.8149 86.161 36.8149 85.6534C36.8149 85.1458 36.7449 84.6932 36.6047 84.2955C36.4684 83.8977 36.2657 83.5833 35.9968 83.3523C35.7278 83.1212 35.3926 83.0057 34.9911 83.0057C34.5858 83.0057 34.2449 83.1212 33.9684 83.3523C33.6956 83.5833 33.4892 83.8977 33.349 84.2955C33.2127 84.6932 33.1445 85.1458 33.1445 85.6534C33.1445 86.161 33.2127 86.6136 33.349 87.0114C33.4892 87.4091 33.6956 87.7235 33.9684 87.9545C34.2449 88.1818 34.5858 88.2955 34.9911 88.2955ZM34.1388 80.1477L32.4059 77.5625H34.6388L35.849 80.1477H34.1388ZM40.9859 90V81.2727H43.4064V90H40.9859ZM42.2018 80.1477C41.842 80.1477 41.5333 80.0284 41.2757 79.7898C41.0219 79.5473 40.895 79.2576 40.895 78.9205C40.895 78.5871 41.0219 78.3011 41.2757 78.0625C41.5333 77.8201 41.842 77.6989 42.2018 77.6989C42.5617 77.6989 42.8685 77.8201 43.1223 78.0625C43.3798 78.3011 43.5086 78.5871 43.5086 78.9205C43.5086 79.2576 43.3798 79.5473 43.1223 79.7898C42.8685 80.0284 42.5617 80.1477 42.2018 80.1477ZM52.6602 93.4545C51.8761 93.4545 51.2038 93.3466 50.6432 93.1307C50.0864 92.9186 49.6432 92.6288 49.3136 92.2614C48.9841 91.8939 48.7701 91.4811 48.6716 91.0227L50.9102 90.7216C50.9784 90.8958 51.0864 91.0587 51.2341 91.2102C51.3818 91.3617 51.5769 91.483 51.8193 91.5739C52.0655 91.6686 52.3648 91.7159 52.717 91.7159C53.2436 91.7159 53.6773 91.5871 54.0182 91.3295C54.3629 91.0758 54.5352 90.6496 54.5352 90.0511V88.4545H54.433C54.3269 88.697 54.1678 88.9261 53.9557 89.142C53.7436 89.358 53.4708 89.5341 53.1375 89.6705C52.8042 89.8068 52.4064 89.875 51.9443 89.875C51.289 89.875 50.6924 89.7235 50.1545 89.4205C49.6205 89.1136 49.1943 88.6458 48.8761 88.017C48.5617 87.3845 48.4045 86.5852 48.4045 85.6193C48.4045 84.6307 48.5655 83.8049 48.8875 83.142C49.2095 82.4792 49.6375 81.983 50.1716 81.6534C50.7095 81.3239 51.2985 81.1591 51.9386 81.1591C52.4273 81.1591 52.8364 81.2424 53.1659 81.4091C53.4955 81.572 53.7606 81.7765 53.9614 82.0227C54.1659 82.2652 54.3231 82.5038 54.433 82.7386H54.5239V81.2727H56.9273V90.0852C56.9273 90.8277 56.7455 91.4489 56.3818 91.9489C56.0182 92.4489 55.5144 92.8239 54.8705 93.0739C54.2303 93.3277 53.4936 93.4545 52.6602 93.4545ZM52.7114 88.0568C53.1015 88.0568 53.4311 87.9602 53.7 87.767C53.9727 87.5701 54.1811 87.2898 54.325 86.9261C54.4727 86.5587 54.5466 86.1193 54.5466 85.608C54.5466 85.0966 54.4746 84.6534 54.3307 84.2784C54.1867 83.8996 53.9784 83.6061 53.7057 83.3977C53.433 83.1894 53.1015 83.0852 52.7114 83.0852C52.3136 83.0852 51.9784 83.1932 51.7057 83.4091C51.433 83.6212 51.2265 83.9167 51.0864 84.2955C50.9462 84.6742 50.8761 85.1117 50.8761 85.608C50.8761 86.1117 50.9462 86.5473 51.0864 86.9148C51.2303 87.2784 51.4367 87.5606 51.7057 87.7614C51.9784 87.9583 52.3136 88.0568 52.7114 88.0568ZM58.6934 90V81.2727H61.1139V90H58.6934ZM59.9093 80.1477C59.5495 80.1477 59.2408 80.0284 58.9832 79.7898C58.7294 79.5473 58.6025 79.2576 58.6025 78.9205C58.6025 78.5871 58.7294 78.3011 58.9832 78.0625C59.2408 77.8201 59.5495 77.6989 59.9093 77.6989C60.2692 77.6989 60.576 77.8201 60.8298 78.0625C61.0873 78.3011 61.2161 78.5871 61.2161 78.9205C61.2161 79.2576 61.0873 79.5473 60.8298 79.7898C60.576 80.0284 60.2692 80.1477 59.9093 80.1477ZM65.3814 90.1648C64.8246 90.1648 64.3284 90.0682 63.8928 89.875C63.4572 89.678 63.1125 89.3883 62.8587 89.0057C62.6087 88.6193 62.4837 88.1383 62.4837 87.5625C62.4837 87.0777 62.5727 86.6705 62.7507 86.3409C62.9288 86.0114 63.1712 85.7462 63.478 85.5455C63.7848 85.3447 64.1333 85.1932 64.5235 85.0909C64.9174 84.9886 65.3303 84.9167 65.7621 84.875C66.2697 84.822 66.6788 84.7727 66.9894 84.7273C67.3 84.678 67.5254 84.6061 67.6655 84.5114C67.8057 84.4167 67.8757 84.2765 67.8757 84.0909V84.0568C67.8757 83.697 67.7621 83.4186 67.5348 83.2216C67.3113 83.0246 66.9932 82.9261 66.5803 82.9261C66.1447 82.9261 65.7981 83.0227 65.5405 83.2159C65.2829 83.4053 65.1125 83.6439 65.0291 83.9318L62.7905 83.75C62.9041 83.2197 63.1276 82.7614 63.461 82.375C63.7943 81.9848 64.2242 81.6856 64.7507 81.4773C65.281 81.2652 65.8947 81.1591 66.5916 81.1591C67.0765 81.1591 67.5405 81.2159 67.9837 81.3295C68.4307 81.4432 68.8265 81.6193 69.1712 81.858C69.5197 82.0966 69.7943 82.4034 69.9951 82.7784C70.1958 83.1496 70.2962 83.5947 70.2962 84.1136V90H68.0007V88.7898H67.9326C67.7924 89.0625 67.6049 89.303 67.3701 89.5114C67.1352 89.7159 66.853 89.8769 66.5235 89.9943C66.1939 90.108 65.8132 90.1648 65.3814 90.1648ZM66.0746 88.4943C66.4307 88.4943 66.7451 88.4242 67.0178 88.2841C67.2905 88.1402 67.5045 87.947 67.6598 87.7045C67.8151 87.4621 67.8928 87.1875 67.8928 86.8807V85.9545C67.817 86.0038 67.7129 86.0492 67.5803 86.0909C67.4515 86.1288 67.3057 86.1648 67.1428 86.1989C66.9799 86.2292 66.817 86.2576 66.6541 86.2841C66.4913 86.3068 66.3435 86.3277 66.211 86.3466C65.9269 86.3883 65.6788 86.4545 65.4666 86.5455C65.2545 86.6364 65.0898 86.7595 64.9723 86.9148C64.8549 87.0663 64.7962 87.2557 64.7962 87.483C64.7962 87.8125 64.9155 88.0644 65.1541 88.2386C65.3966 88.4091 65.7034 88.4943 66.0746 88.4943ZM74.4345 84.9545V90H72.014V81.2727H74.3209V82.8125H74.4231C74.6163 82.3049 74.9402 81.9034 75.3947 81.608C75.8493 81.3087 76.4004 81.1591 77.0481 81.1591C77.6542 81.1591 78.1826 81.2917 78.6334 81.5568C79.0841 81.822 79.4345 82.2008 79.6845 82.6932C79.9345 83.1818 80.0595 83.7652 80.0595 84.4432V90H77.639V84.875C77.6428 84.3409 77.5065 83.9242 77.2299 83.625C76.9534 83.322 76.5727 83.1705 76.0879 83.1705C75.7621 83.1705 75.4743 83.2405 75.2243 83.3807C74.9781 83.5208 74.7849 83.7254 74.6447 83.9943C74.5084 84.2595 74.4383 84.5795 74.4345 84.9545Z" fill="white"/>
</svg>
