<svg width="366" height="142" viewBox="0 0 366 142" fill="none" xmlns="http://www.w3.org/2000/svg">
<path d="M33.1949 6.36364L36.0074 15.2045H36.1153L38.9335 6.36364H41.6608L37.6494 18H34.479L30.4619 6.36364H33.1949ZM48.4525 14.2841V9.27273H50.873V18H48.5491V16.4148H48.4582C48.2612 16.9261 47.9336 17.3371 47.4752 17.6477C47.0207 17.9583 46.4658 18.1136 45.8105 18.1136C45.2271 18.1136 44.7139 17.9811 44.2707 17.7159C43.8275 17.4508 43.4809 17.0739 43.2309 16.5852C42.9847 16.0966 42.8597 15.5114 42.8559 14.8295V9.27273H45.2764V14.3977C45.2802 14.9129 45.4184 15.3201 45.6911 15.6193C45.9639 15.9186 46.3294 16.0682 46.7877 16.0682C47.0794 16.0682 47.3521 16.0019 47.6059 15.8693C47.8597 15.733 48.0642 15.5322 48.2195 15.267C48.3786 15.0019 48.4563 14.6742 48.4525 14.2841ZM56.5922 18.1705C55.7096 18.1705 54.9464 17.983 54.3024 17.608C53.6623 17.2292 53.168 16.7027 52.8195 16.0284C52.471 15.3504 52.2968 14.5644 52.2968 13.6705C52.2968 12.7689 52.471 11.9811 52.8195 11.3068C53.168 10.6288 53.6623 10.1023 54.3024 9.72727C54.9464 9.34848 55.7096 9.15909 56.5922 9.15909C57.4748 9.15909 58.2362 9.34848 58.8763 9.72727C59.5202 10.1023 60.0165 10.6288 60.3649 11.3068C60.7134 11.9811 60.8877 12.7689 60.8877 13.6705C60.8877 14.5644 60.7134 15.3504 60.3649 16.0284C60.0165 16.7027 59.5202 17.2292 58.8763 17.608C58.2362 17.983 57.4748 18.1705 56.5922 18.1705ZM56.6036 16.2955C57.0051 16.2955 57.3403 16.1818 57.6093 15.9545C57.8782 15.7235 58.0809 15.4091 58.2172 15.0114C58.3574 14.6136 58.4274 14.161 58.4274 13.6534C58.4274 13.1458 58.3574 12.6932 58.2172 12.2955C58.0809 11.8977 57.8782 11.5833 57.6093 11.3523C57.3403 11.1212 57.0051 11.0057 56.6036 11.0057C56.1983 11.0057 55.8574 11.1212 55.5809 11.3523C55.3081 11.5833 55.1017 11.8977 54.9615 12.2955C54.8252 12.6932 54.757 13.1458 54.757 13.6534C54.757 14.161 54.8252 14.6136 54.9615 15.0114C55.1017 15.4091 55.3081 15.7235 55.5809 15.9545C55.8574 16.1818 56.1983 16.2955 56.6036 16.2955ZM53.632 8.31818L55.9218 6.55114H57.2286L59.5297 8.31818H57.7854L56.5865 7.36364L55.3706 8.31818H53.632ZM58.9331 7.31818L60.2627 5.1875H62.1377L60.3024 7.31818H58.9331ZM66.9436 9.27273V11.0909H61.6879V9.27273H66.9436ZM62.8811 7.18182H65.3015V15.3182C65.3015 15.5417 65.3356 15.7159 65.4038 15.8409C65.472 15.9621 65.5667 16.0473 65.6879 16.0966C65.8129 16.1458 65.9568 16.1705 66.1197 16.1705C66.2334 16.1705 66.347 16.161 66.4606 16.142C66.5743 16.1193 66.6614 16.1023 66.722 16.0909L67.1027 17.892C66.9815 17.9299 66.811 17.9735 66.5913 18.0227C66.3716 18.0758 66.1046 18.108 65.7902 18.1193C65.2068 18.142 64.6955 18.0644 64.2561 17.8864C63.8205 17.7083 63.4815 17.4318 63.239 17.0568C62.9966 16.6818 62.8773 16.2083 62.8811 15.6364V7.18182ZM75.1193 18.142C74.4564 18.142 73.8561 17.9716 73.3182 17.6307C72.7841 17.286 72.3598 16.7803 72.0455 16.1136C71.7348 15.4432 71.5795 14.6212 71.5795 13.6477C71.5795 12.6477 71.7405 11.8163 72.0625 11.1534C72.3845 10.4867 72.8125 9.98864 73.3466 9.65909C73.8845 9.32576 74.4735 9.15909 75.1136 9.15909C75.6023 9.15909 76.0095 9.24242 76.3352 9.40909C76.6648 9.57197 76.9299 9.77652 77.1307 10.0227C77.3352 10.2652 77.4905 10.5038 77.5966 10.7386H77.6705V6.36364H80.0852V18H77.6989V16.6023H77.5966C77.483 16.8447 77.322 17.0852 77.1136 17.3239C76.9091 17.5587 76.642 17.7538 76.3125 17.9091C75.9867 18.0644 75.589 18.142 75.1193 18.142ZM75.8864 16.2159C76.2765 16.2159 76.6061 16.1098 76.875 15.8977C77.1477 15.6818 77.3561 15.3807 77.5 14.9943C77.6477 14.608 77.7216 14.1553 77.7216 13.6364C77.7216 13.1174 77.6496 12.6667 77.5057 12.2841C77.3617 11.9015 77.1534 11.6061 76.8807 11.3977C76.608 11.1894 76.2765 11.0852 75.8864 11.0852C75.4886 11.0852 75.1534 11.1932 74.8807 11.4091C74.608 11.625 74.4015 11.9242 74.2614 12.3068C74.1212 12.6894 74.0511 13.1326 74.0511 13.6364C74.0511 14.1439 74.1212 14.5928 74.2614 14.983C74.4053 15.3693 74.6117 15.6723 74.8807 15.892C75.1534 16.108 75.4886 16.2159 75.8864 16.2159ZM75.4091 8.67614V7.25H81.0795V8.67614H75.4091ZM85.8926 18.1705C84.9948 18.1705 84.2221 17.9886 83.5744 17.625C82.9304 17.2576 82.4342 16.7386 82.0857 16.0682C81.7373 15.3939 81.563 14.5966 81.563 13.6761C81.563 12.7784 81.7373 11.9905 82.0857 11.3125C82.4342 10.6345 82.9248 10.1061 83.5573 9.72727C84.1937 9.34848 84.9399 9.15909 85.796 9.15909C86.3717 9.15909 86.9077 9.25189 87.4039 9.4375C87.9039 9.61932 88.3395 9.89394 88.7107 10.2614C89.0857 10.6288 89.3774 11.0909 89.5857 11.6477C89.7941 12.2008 89.8982 12.8485 89.8982 13.5909V14.2557H82.5289V12.7557H87.6198C87.6198 12.4072 87.5441 12.0985 87.3926 11.8295C87.241 11.5606 87.0308 11.3504 86.7619 11.1989C86.4967 11.0436 86.188 10.9659 85.8357 10.9659C85.4683 10.9659 85.1426 11.0511 84.8585 11.2216C84.5782 11.3883 84.3585 11.6136 84.1994 11.8977C84.0403 12.178 83.9588 12.4905 83.9551 12.8352V14.2614C83.9551 14.6932 84.0346 15.0663 84.1937 15.3807C84.3566 15.6951 84.5857 15.9375 84.8812 16.108C85.1766 16.2784 85.527 16.3636 85.9323 16.3636C86.2013 16.3636 86.4475 16.3258 86.671 16.25C86.8944 16.1742 87.0857 16.0606 87.2448 15.9091C87.4039 15.7576 87.5251 15.572 87.6085 15.3523L89.8471 15.5C89.7335 16.0379 89.5005 16.5076 89.1482 16.9091C88.7998 17.3068 88.349 17.6174 87.796 17.8409C87.2467 18.0606 86.6123 18.1705 85.8926 18.1705ZM86.4153 6.61364L88.6539 8.38068H86.9891L85.7278 7.38636L84.4494 8.38068H82.7846L85.0232 6.61364H86.4153ZM89.171 7.38636H87.9153L87.8073 6.53409C88.1331 6.51894 88.3698 6.47727 88.5176 6.40909C88.6653 6.34091 88.7391 6.24053 88.7391 6.10795C88.7391 5.93371 88.6463 5.81629 88.4607 5.75568C88.2751 5.69508 88.0441 5.66477 87.7676 5.66477L87.8244 4.75C88.5933 4.75 89.1804 4.86364 89.5857 5.09091C89.991 5.31439 90.1937 5.63068 90.1937 6.03977C90.1937 6.32386 90.0857 6.54167 89.8698 6.69318C89.6577 6.84091 89.4248 6.93561 89.171 6.97727V7.38636ZM98.0768 18.142C97.4139 18.142 96.8136 17.9716 96.2757 17.6307C95.7416 17.286 95.3174 16.7803 95.003 16.1136C94.6924 15.4432 94.537 14.6212 94.537 13.6477C94.537 12.6477 94.698 11.8163 95.02 11.1534C95.342 10.4867 95.77 9.98864 96.3041 9.65909C96.842 9.32576 97.431 9.15909 98.0711 9.15909C98.5598 9.15909 98.967 9.24242 99.2927 9.40909C99.6223 9.57197 99.8874 9.77652 100.088 10.0227C100.293 10.2652 100.448 10.5038 100.554 10.7386H100.628V6.36364H103.043V18H100.656V16.6023H100.554C100.44 16.8447 100.279 17.0852 100.071 17.3239C99.8666 17.5587 99.5995 17.7538 99.27 17.9091C98.9442 18.0644 98.5465 18.142 98.0768 18.142ZM98.8439 16.2159C99.234 16.2159 99.5636 16.1098 99.8325 15.8977C100.105 15.6818 100.314 15.3807 100.458 14.9943C100.605 14.608 100.679 14.1553 100.679 13.6364C100.679 13.1174 100.607 12.6667 100.463 12.2841C100.319 11.9015 100.111 11.6061 99.8382 11.3977C99.5655 11.1894 99.234 11.0852 98.8439 11.0852C98.4461 11.0852 98.1109 11.1932 97.8382 11.4091C97.5655 11.625 97.359 11.9242 97.2189 12.3068C97.0787 12.6894 97.0086 13.1326 97.0086 13.6364C97.0086 14.1439 97.0787 14.5928 97.2189 14.983C97.3628 15.3693 97.5692 15.6723 97.8382 15.892C98.1109 16.108 98.4461 16.2159 98.8439 16.2159ZM98.3666 8.67614V7.25H104.037V8.67614H98.3666ZM108.816 18.1705C107.933 18.1705 107.17 17.983 106.526 17.608C105.886 17.2292 105.392 16.7027 105.043 16.0284C104.695 15.3504 104.521 14.5644 104.521 13.6705C104.521 12.7689 104.695 11.9811 105.043 11.3068C105.392 10.6288 105.886 10.1023 106.526 9.72727C107.17 9.34848 107.933 9.15909 108.816 9.15909C109.699 9.15909 110.46 9.34848 111.1 9.72727C111.744 10.1023 112.24 10.6288 112.589 11.3068C112.937 11.9811 113.111 12.7689 113.111 13.6705C113.111 14.5644 112.937 15.3504 112.589 16.0284C112.24 16.7027 111.744 17.2292 111.1 17.608C110.46 17.983 109.699 18.1705 108.816 18.1705ZM108.827 16.2955C109.229 16.2955 109.564 16.1818 109.833 15.9545C110.102 15.7235 110.305 15.4091 110.441 15.0114C110.581 14.6136 110.651 14.161 110.651 13.6534C110.651 13.1458 110.581 12.6932 110.441 12.2955C110.305 11.8977 110.102 11.5833 109.833 11.3523C109.564 11.1212 109.229 11.0057 108.827 11.0057C108.422 11.0057 108.081 11.1212 107.805 11.3523C107.532 11.5833 107.325 11.8977 107.185 12.2955C107.049 12.6932 106.981 13.1458 106.981 13.6534C106.981 14.161 107.049 14.6136 107.185 15.0114C107.325 15.4091 107.532 15.7235 107.805 15.9545C108.081 16.1818 108.422 16.2955 108.827 16.2955ZM109.492 6.61364L111.731 8.38068H110.066L108.805 7.38636L107.526 8.38068H105.861L108.1 6.61364H109.492ZM112.248 7.38636H110.992L110.884 6.53409C111.21 6.51894 111.447 6.47727 111.594 6.40909C111.742 6.34091 111.816 6.24053 111.816 6.10795C111.816 5.93371 111.723 5.81629 111.538 5.75568C111.352 5.69508 111.121 5.66477 110.844 5.66477L110.901 4.75C111.67 4.75 112.257 4.86364 112.663 5.09091C113.068 5.31439 113.271 5.63068 113.271 6.03977C113.271 6.32386 113.163 6.54167 112.947 6.69318C112.735 6.84091 112.502 6.93561 112.248 6.97727V7.38636ZM114.525 18V9.27273H116.946V18H114.525ZM115.741 8.14773C115.381 8.14773 115.073 8.02841 114.815 7.78977C114.561 7.54735 114.434 7.25758 114.434 6.92045C114.434 6.58712 114.561 6.30114 114.815 6.0625C115.073 5.82008 115.381 5.69886 115.741 5.69886C116.101 5.69886 116.408 5.82008 116.662 6.0625C116.919 6.30114 117.048 6.58712 117.048 6.92045C117.048 7.25758 116.919 7.54735 116.662 7.78977C116.408 8.02841 116.101 8.14773 115.741 8.14773ZM16.3399 45.4545C15.5558 45.4545 14.8835 45.3466 14.3229 45.1307C13.7661 44.9186 13.3229 44.6288 12.9933 44.2614C12.6638 43.8939 12.4498 43.4811 12.3513 43.0227L14.5899 42.7216C14.6581 42.8958 14.7661 43.0587 14.9138 43.2102C15.0615 43.3617 15.2566 43.483 15.499 43.5739C15.7452 43.6686 16.0445 43.7159 16.3967 43.7159C16.9232 43.7159 17.357 43.5871 17.6979 43.3295C18.0426 43.0758 18.2149 42.6496 18.2149 42.0511V40.4545H18.1126C18.0066 40.697 17.8475 40.9261 17.6354 41.142C17.4232 41.358 17.1505 41.5341 16.8172 41.6705C16.4839 41.8068 16.0861 41.875 15.624 41.875C14.9687 41.875 14.3721 41.7235 13.8342 41.4205C13.3001 41.1136 12.874 40.6458 12.5558 40.017C12.2414 39.3845 12.0842 38.5852 12.0842 37.6193C12.0842 36.6307 12.2452 35.8049 12.5672 35.142C12.8892 34.4792 13.3172 33.983 13.8513 33.6534C14.3892 33.3239 14.9782 33.1591 15.6183 33.1591C16.107 33.1591 16.5161 33.2424 16.8456 33.4091C17.1751 33.572 17.4403 33.7765 17.6411 34.0227C17.8456 34.2652 18.0028 34.5038 18.1126 34.7386H18.2036V33.2727H20.607V42.0852C20.607 42.8277 20.4251 43.4489 20.0615 43.9489C19.6979 44.4489 19.1941 44.8239 18.5501 45.0739C17.91 45.3277 17.1732 45.4545 16.3399 45.4545ZM16.3911 40.0568C16.7812 40.0568 17.1107 39.9602 17.3797 39.767C17.6524 39.5701 17.8607 39.2898 18.0047 38.9261C18.1524 38.5587 18.2263 38.1193 18.2263 37.608C18.2263 37.0966 18.1543 36.6534 18.0104 36.2784C17.8664 35.8996 17.6581 35.6061 17.3854 35.3977C17.1126 35.1894 16.7812 35.0852 16.3911 35.0852C15.9933 35.0852 15.6581 35.1932 15.3854 35.4091C15.1126 35.6212 14.9062 35.9167 14.7661 36.2955C14.6259 36.6742 14.5558 37.1117 14.5558 37.608C14.5558 38.1117 14.6259 38.5473 14.7661 38.9148C14.91 39.2784 15.1164 39.5606 15.3854 39.7614C15.6581 39.9583 15.9933 40.0568 16.3911 40.0568ZM22.3731 42V33.2727H24.7936V42H22.3731ZM23.589 32.1477C23.2292 32.1477 22.9204 32.0284 22.6629 31.7898C22.4091 31.5473 22.2822 31.2576 22.2822 30.9205C22.2822 30.5871 22.4091 30.3011 22.6629 30.0625C22.9204 29.8201 23.2292 29.6989 23.589 29.6989C23.9489 29.6989 24.2557 29.8201 24.5095 30.0625C24.767 30.3011 24.8958 30.5871 24.8958 30.9205C24.8958 31.2576 24.767 31.5473 24.5095 31.7898C24.2557 32.0284 23.9489 32.1477 23.589 32.1477ZM35.7997 32.7898H37.2032C37.1994 33.4489 37.1009 34.0019 36.9077 34.4489C36.7145 34.892 36.3869 35.2254 35.9247 35.4489C35.4664 35.6723 34.8395 35.7841 34.0441 35.7841V34.7045C34.5706 34.7045 34.9569 34.6345 35.2032 34.4943C35.4532 34.3542 35.6141 34.1439 35.6861 33.8636C35.7619 33.5795 35.7997 33.2216 35.7997 32.7898ZM32.2259 38.2841V33.2727H34.6407V42H32.3225V40.4148H32.2316C32.0346 40.9261 31.7069 41.3371 31.2486 41.6477C30.7941 41.9583 30.2391 42.1136 29.5838 42.1136C29.0005 42.1136 28.4872 41.9811 28.0441 41.7159C27.6009 41.4508 27.2543 41.0739 27.0043 40.5852C26.7581 40.0966 26.6331 39.5114 26.6293 38.8295V33.2727H29.0497V38.3977C29.0497 38.9129 29.1861 39.3201 29.4588 39.6193C29.7354 39.9186 30.1028 40.0682 30.5611 40.0682C30.8528 40.0682 31.1236 40.0019 31.3736 39.8693C31.6274 39.733 31.8319 39.5322 31.9872 39.267C32.1463 39.0019 32.2259 38.6742 32.2259 38.2841ZM29.0213 32.1989L27.6747 32.1818C27.6747 31.4583 27.8528 30.9034 28.2088 30.517C28.5687 30.1307 29.0062 29.9356 29.5213 29.9318C29.7865 29.9318 30.0138 29.9754 30.2032 30.0625C30.3963 30.1458 30.5687 30.2443 30.7202 30.358C30.8755 30.4716 31.0232 30.572 31.1634 30.6591C31.3035 30.7424 31.455 30.7841 31.6179 30.7841C31.8376 30.7803 32.0043 30.6989 32.1179 30.5398C32.2354 30.3769 32.2941 30.1648 32.2941 29.9034L33.6179 29.9432C33.6104 30.6591 33.4285 31.2121 33.0725 31.6023C32.7164 31.9886 32.2827 32.1837 31.7713 32.1875C31.4872 32.1875 31.2486 32.1458 31.0554 32.0625C30.866 31.9754 30.6994 31.8769 30.5554 31.767C30.4115 31.6534 30.2713 31.553 30.135 31.4659C29.9986 31.3788 29.8452 31.3352 29.6747 31.3352C29.4778 31.3352 29.3187 31.4129 29.1975 31.5682C29.08 31.7235 29.0213 31.9337 29.0213 32.1989ZM40.2449 42.1648C39.688 42.1648 39.1918 42.0682 38.7562 41.875C38.3206 41.678 37.9759 41.3883 37.7221 41.0057C37.4721 40.6193 37.3471 40.1383 37.3471 39.5625C37.3471 39.0777 37.4361 38.6705 37.6142 38.3409C37.7922 38.0114 38.0346 37.7462 38.3415 37.5455C38.6483 37.3447 38.9968 37.1932 39.3869 37.0909C39.7808 36.9886 40.1937 36.9167 40.6255 36.875C41.1331 36.822 41.5422 36.7727 41.8528 36.7273C42.1634 36.678 42.3888 36.6061 42.529 36.5114C42.6691 36.4167 42.7392 36.2765 42.7392 36.0909V36.0568C42.7392 35.697 42.6255 35.4186 42.3983 35.2216C42.1748 35.0246 41.8566 34.9261 41.4437 34.9261C41.0081 34.9261 40.6615 35.0227 40.404 35.2159C40.1464 35.4053 39.9759 35.6439 39.8926 35.9318L37.654 35.75C37.7676 35.2197 37.9911 34.7614 38.3244 34.375C38.6577 33.9848 39.0877 33.6856 39.6142 33.4773C40.1445 33.2652 40.7581 33.1591 41.4551 33.1591C41.9399 33.1591 42.404 33.2159 42.8471 33.3295C43.2941 33.4432 43.6899 33.6193 44.0346 33.858C44.3831 34.0966 44.6577 34.4034 44.8585 34.7784C45.0593 35.1496 45.1596 35.5947 45.1596 36.1136V42H42.8642V40.7898H42.796C42.6558 41.0625 42.4683 41.303 42.2335 41.5114C41.9986 41.7159 41.7165 41.8769 41.3869 41.9943C41.0574 42.108 40.6767 42.1648 40.2449 42.1648ZM40.938 40.4943C41.2941 40.4943 41.6085 40.4242 41.8812 40.2841C42.154 40.1402 42.368 39.947 42.5233 39.7045C42.6786 39.4621 42.7562 39.1875 42.7562 38.8807V37.9545C42.6805 38.0038 42.5763 38.0492 42.4437 38.0909C42.3149 38.1288 42.1691 38.1648 42.0062 38.1989C41.8433 38.2292 41.6805 38.2576 41.5176 38.2841C41.3547 38.3068 41.207 38.3277 41.0744 38.3466C40.7903 38.3883 40.5422 38.4545 40.3301 38.5455C40.118 38.6364 39.9532 38.7595 39.8358 38.9148C39.7183 39.0663 39.6596 39.2557 39.6596 39.483C39.6596 39.8125 39.779 40.0644 40.0176 40.2386C40.26 40.4091 40.5668 40.4943 40.938 40.4943ZM54.3638 42.1705C53.4698 42.1705 52.7009 41.9811 52.057 41.6023C51.4168 41.2197 50.9244 40.6894 50.5797 40.0114C50.2388 39.3333 50.0683 38.553 50.0683 37.6705C50.0683 36.7765 50.2407 35.9924 50.5854 35.3182C50.9339 34.6402 51.4282 34.1117 52.0683 33.733C52.7085 33.3504 53.4698 33.1591 54.3524 33.1591C55.1138 33.1591 55.7804 33.2973 56.3524 33.5739C56.9244 33.8504 57.377 34.2386 57.7104 34.7386C58.0437 35.2386 58.2274 35.8258 58.2615 36.5H55.9774C55.913 36.0644 55.7426 35.714 55.4661 35.4489C55.1933 35.1799 54.8354 35.0455 54.3922 35.0455C54.0172 35.0455 53.6895 35.1477 53.4092 35.3523C53.1327 35.553 52.9168 35.8466 52.7615 36.233C52.6062 36.6193 52.5286 37.0871 52.5286 37.6364C52.5286 38.1932 52.6043 38.6667 52.7558 39.0568C52.9111 39.447 53.1289 39.7443 53.4092 39.9489C53.6895 40.1534 54.0172 40.2557 54.3922 40.2557C54.6687 40.2557 54.9168 40.1989 55.1365 40.0852C55.36 39.9716 55.5437 39.8068 55.6876 39.5909C55.8354 39.3712 55.932 39.108 55.9774 38.8011H58.2615C58.2236 39.4678 58.0418 40.0549 57.7161 40.5625C57.3941 41.0663 56.949 41.4602 56.3808 41.7443C55.8126 42.0284 55.1403 42.1705 54.3638 42.1705ZM62.1399 42.1648C61.583 42.1648 61.0868 42.0682 60.6512 41.875C60.2156 41.678 59.8709 41.3883 59.6171 41.0057C59.3671 40.6193 59.2421 40.1383 59.2421 39.5625C59.2421 39.0777 59.3311 38.6705 59.5092 38.3409C59.6872 38.0114 59.9296 37.7462 60.2365 37.5455C60.5433 37.3447 60.8918 37.1932 61.2819 37.0909C61.6758 36.9886 62.0887 36.9167 62.5205 36.875C63.0281 36.822 63.4372 36.7727 63.7478 36.7273C64.0584 36.678 64.2838 36.6061 64.424 36.5114C64.5641 36.4167 64.6342 36.2765 64.6342 36.0909V36.0568C64.6342 35.697 64.5205 35.4186 64.2933 35.2216C64.0698 35.0246 63.7516 34.9261 63.3387 34.9261C62.9031 34.9261 62.5565 35.0227 62.299 35.2159C62.0414 35.4053 61.8709 35.6439 61.7876 35.9318L59.549 35.75C59.6626 35.2197 59.8861 34.7614 60.2194 34.375C60.5527 33.9848 60.9827 33.6856 61.5092 33.4773C62.0395 33.2652 62.6531 33.1591 63.3501 33.1591C63.8349 33.1591 64.299 33.2159 64.7421 33.3295C65.1891 33.4432 65.5849 33.6193 65.9296 33.858C66.2781 34.0966 66.5527 34.4034 66.7535 34.7784C66.9543 35.1496 67.0546 35.5947 67.0546 36.1136V42H64.7592V40.7898H64.691C64.5508 41.0625 64.3633 41.303 64.1285 41.5114C63.8936 41.7159 63.6115 41.8769 63.2819 41.9943C62.9524 42.108 62.5717 42.1648 62.1399 42.1648ZM62.833 40.4943C63.1891 40.4943 63.5035 40.4242 63.7762 40.2841C64.049 40.1402 64.263 39.947 64.4183 39.7045C64.5736 39.4621 64.6512 39.1875 64.6512 38.8807V37.9545C64.5755 38.0038 64.4713 38.0492 64.3387 38.0909C64.2099 38.1288 64.0641 38.1648 63.9012 38.1989C63.7383 38.2292 63.5755 38.2576 63.4126 38.2841C63.2497 38.3068 63.102 38.3277 62.9694 38.3466C62.6853 38.3883 62.4372 38.4545 62.2251 38.5455C62.013 38.6364 61.8482 38.7595 61.7308 38.9148C61.6133 39.0663 61.5546 39.2557 61.5546 39.483C61.5546 39.8125 61.674 40.0644 61.9126 40.2386C62.155 40.4091 62.4618 40.4943 62.833 40.4943ZM62.5717 32.1477L63.7762 29.5625H66.0149L64.2819 32.1477H62.5717ZM72.7157 42.1705C71.8217 42.1705 71.0528 41.9811 70.4088 41.6023C69.7687 41.2197 69.2763 40.6894 68.9316 40.0114C68.5907 39.3333 68.4202 38.553 68.4202 37.6705C68.4202 36.7765 68.5925 35.9924 68.9372 35.3182C69.2857 34.6402 69.78 34.1117 70.4202 33.733C71.0604 33.3504 71.8217 33.1591 72.7043 33.1591C73.4657 33.1591 74.1323 33.2973 74.7043 33.5739C75.2763 33.8504 75.7289 34.2386 76.0622 34.7386C76.3956 35.2386 76.5793 35.8258 76.6134 36.5H74.3293C74.2649 36.0644 74.0944 35.714 73.8179 35.4489C73.5452 35.1799 73.1872 35.0455 72.7441 35.0455C72.3691 35.0455 72.0414 35.1477 71.7611 35.3523C71.4846 35.553 71.2687 35.8466 71.1134 36.233C70.9581 36.6193 70.8804 37.0871 70.8804 37.6364C70.8804 38.1932 70.9562 38.6667 71.1077 39.0568C71.263 39.447 71.4808 39.7443 71.7611 39.9489C72.0414 40.1534 72.3691 40.2557 72.7441 40.2557C73.0206 40.2557 73.2687 40.1989 73.4884 40.0852C73.7119 39.9716 73.8956 39.8068 74.0395 39.5909C74.1872 39.3712 74.2838 39.108 74.3293 38.8011H76.6134C76.5755 39.4678 76.3937 40.0549 76.0679 40.5625C75.746 41.0663 75.3009 41.4602 74.7327 41.7443C74.1645 42.0284 73.4922 42.1705 72.7157 42.1705ZM84.7621 42.142C84.0992 42.142 83.4989 41.9716 82.961 41.6307C82.4269 41.286 82.0027 40.7803 81.6883 40.1136C81.3777 39.4432 81.2224 38.6212 81.2224 37.6477C81.2224 36.6477 81.3833 35.8163 81.7053 35.1534C82.0273 34.4867 82.4553 33.9886 82.9894 33.6591C83.5273 33.3258 84.1163 33.1591 84.7564 33.1591C85.2451 33.1591 85.6523 33.2424 85.978 33.4091C86.3076 33.572 86.5727 33.7765 86.7735 34.0227C86.978 34.2652 87.1333 34.5038 87.2394 34.7386H87.3133V30.3636H89.728V42H87.3417V40.6023H87.2394C87.1258 40.8447 86.9648 41.0852 86.7564 41.3239C86.5519 41.5587 86.2849 41.7538 85.9553 41.9091C85.6295 42.0644 85.2318 42.142 84.7621 42.142ZM85.5292 40.2159C85.9193 40.2159 86.2489 40.1098 86.5178 39.8977C86.7905 39.6818 86.9989 39.3807 87.1428 38.9943C87.2905 38.608 87.3644 38.1553 87.3644 37.6364C87.3644 37.1174 87.2924 36.6667 87.1485 36.2841C87.0045 35.9015 86.7962 35.6061 86.5235 35.3977C86.2508 35.1894 85.9193 35.0852 85.5292 35.0852C85.1314 35.0852 84.7962 35.1932 84.5235 35.4091C84.2508 35.625 84.0443 35.9242 83.9042 36.3068C83.764 36.6894 83.6939 37.1326 83.6939 37.6364C83.6939 38.1439 83.764 38.5928 83.9042 38.983C84.0481 39.3693 84.2545 39.6723 84.5235 39.892C84.7962 40.108 85.1314 40.2159 85.5292 40.2159ZM91.5581 42V33.2727H93.9786V42H91.5581ZM92.774 32.1477C92.4142 32.1477 92.1055 32.0284 91.8479 31.7898C91.5941 31.5473 91.4672 31.2576 91.4672 30.9205C91.4672 30.5871 91.5941 30.3011 91.8479 30.0625C92.1055 29.8201 92.4142 29.6989 92.774 29.6989C93.1339 29.6989 93.4407 29.8201 93.6945 30.0625C93.952 30.3011 94.0808 30.5871 94.0808 30.9205C94.0808 31.2576 93.952 31.5473 93.6945 31.7898C93.4407 32.0284 93.1339 32.1477 92.774 32.1477ZM92.7911 45.267C92.4312 45.267 92.1225 45.1477 91.8649 44.9091C91.6073 44.6705 91.4786 44.3826 91.4786 44.0455C91.4786 43.7083 91.6073 43.4205 91.8649 43.1818C92.1225 42.9432 92.4312 42.8239 92.7911 42.8239C93.1509 42.8239 93.4577 42.9432 93.7115 43.1818C93.9691 43.4205 94.0979 43.7083 94.0979 44.0455C94.0979 44.3826 93.9691 44.6705 93.7115 44.9091C93.4577 45.1477 93.1509 45.267 92.7911 45.267ZM99.7007 42.1705C98.8067 42.1705 98.0378 41.9811 97.3938 41.6023C96.7537 41.2197 96.2613 40.6894 95.9166 40.0114C95.5757 39.3333 95.4052 38.553 95.4052 37.6705C95.4052 36.7765 95.5775 35.9924 95.9222 35.3182C96.2707 34.6402 96.765 34.1117 97.4052 33.733C98.0454 33.3504 98.8067 33.1591 99.6893 33.1591C100.451 33.1591 101.117 33.2973 101.689 33.5739C102.261 33.8504 102.714 34.2386 103.047 34.7386C103.381 35.2386 103.564 35.8258 103.598 36.5H101.314C101.25 36.0644 101.079 35.714 100.803 35.4489C100.53 35.1799 100.172 35.0455 99.7291 35.0455C99.3541 35.0455 99.0264 35.1477 98.7461 35.3523C98.4696 35.553 98.2537 35.8466 98.0984 36.233C97.9431 36.6193 97.8654 37.0871 97.8654 37.6364C97.8654 38.1932 97.9412 38.6667 98.0927 39.0568C98.248 39.447 98.4658 39.7443 98.7461 39.9489C99.0264 40.1534 99.3541 40.2557 99.7291 40.2557C100.006 40.2557 100.254 40.1989 100.473 40.0852C100.697 39.9716 100.881 39.8068 101.025 39.5909C101.172 39.3712 101.269 39.108 101.314 38.8011H103.598C103.561 39.4678 103.379 40.0549 103.053 40.5625C102.731 41.0663 102.286 41.4602 101.718 41.7443C101.15 42.0284 100.477 42.1705 99.7007 42.1705ZM107.409 36.9545V42H104.988V30.3636H107.34V34.8125H107.443C107.64 34.2973 107.958 33.8939 108.397 33.6023C108.837 33.3068 109.388 33.1591 110.051 33.1591C110.657 33.1591 111.185 33.2917 111.636 33.5568C112.09 33.8182 112.443 34.1951 112.693 34.6875C112.946 35.1761 113.071 35.7614 113.068 36.4432V42H110.647V36.875C110.651 36.3371 110.515 35.9186 110.238 35.6193C109.965 35.3201 109.583 35.1705 109.09 35.1705C108.761 35.1705 108.469 35.2405 108.215 35.3807C107.965 35.5208 107.768 35.7254 107.624 35.9943C107.484 36.2595 107.412 36.5795 107.409 36.9545ZM126.492 33.2727L123.441 42H120.714L117.662 33.2727H120.219L122.032 39.517H122.123L123.929 33.2727H126.492ZM133.167 38.2841V33.2727H135.588V42H133.264V40.4148H133.173C132.976 40.9261 132.648 41.3371 132.19 41.6477C131.735 41.9583 131.18 42.1136 130.525 42.1136C129.942 42.1136 129.429 41.9811 128.985 41.7159C128.542 41.4508 128.196 41.0739 127.946 40.5852C127.699 40.0966 127.574 39.5114 127.571 38.8295V33.2727H129.991V38.3977C129.995 38.9129 130.133 39.3201 130.406 39.6193C130.679 39.9186 131.044 40.0682 131.502 40.0682C131.794 40.0682 132.067 40.0019 132.321 39.8693C132.574 39.733 132.779 39.5322 132.934 39.267C133.093 39.0019 133.171 38.6742 133.167 38.2841ZM131.946 45.267C131.586 45.267 131.277 45.1477 131.019 44.9091C130.762 44.6705 130.633 44.3826 130.633 44.0455C130.633 43.7083 130.762 43.4205 131.019 43.1818C131.277 42.9432 131.586 42.8239 131.946 42.8239C132.305 42.8239 132.612 42.9432 132.866 43.1818C133.124 43.4205 133.252 43.7083 133.252 44.0455C133.252 44.3826 133.124 44.6705 132.866 44.9091C132.612 45.1477 132.305 45.267 131.946 45.267Z" fill="white"/>
<path d="M4 56L14 61.7735V50.2265L4 56ZM144 56L134 50.2265V61.7735L144 56ZM13 57L135 57V55L13 55V57Z" fill="white"/>
<g filter="url(#filter0_d_15855_50167)">
<rect x="4" y="66" width="358" height="72" rx="8" fill="white" shape-rendering="crispEdges"/>
<path d="M20.4943 96H16.8849V85.8182H20.5241C21.5483 85.8182 22.4299 86.022 23.169 86.4297C23.9081 86.834 24.4766 87.4157 24.8743 88.1747C25.2753 88.9337 25.4759 89.8419 25.4759 90.8991C25.4759 91.9598 25.2753 92.8712 24.8743 93.6335C24.4766 94.3958 23.9048 94.9808 23.1591 95.3885C22.4167 95.7962 21.5284 96 20.4943 96ZM19.0376 94.1555H20.4048C21.0412 94.1555 21.5765 94.0429 22.0107 93.8175C22.4482 93.5888 22.7763 93.2358 22.995 92.7585C23.2171 92.2779 23.3281 91.6581 23.3281 90.8991C23.3281 90.1468 23.2171 89.532 22.995 89.0547C22.7763 88.5774 22.4498 88.2261 22.0156 88.0007C21.5814 87.7753 21.0462 87.6626 20.4098 87.6626H19.0376V94.1555ZM26.8907 96V88.3636H29.0086V96H26.8907ZM27.9546 87.3793C27.6398 87.3793 27.3696 87.2749 27.1443 87.0661C26.9222 86.8539 26.8112 86.6004 26.8112 86.3054C26.8112 86.0137 26.9222 85.7635 27.1443 85.5547C27.3696 85.3426 27.6398 85.2365 27.9546 85.2365C28.2695 85.2365 28.538 85.3426 28.76 85.5547C28.9854 85.7635 29.0981 86.0137 29.0981 86.3054C29.0981 86.6004 28.9854 86.8539 28.76 87.0661C28.538 87.2749 28.2695 87.3793 27.9546 87.3793ZM27.9696 98.8587C27.6547 98.8587 27.3846 98.7543 27.1592 98.5455C26.9338 98.3366 26.8211 98.0848 26.8211 97.7898C26.8211 97.4948 26.9338 97.2429 27.1592 97.0341C27.3846 96.8253 27.6547 96.7209 27.9696 96.7209C28.2844 96.7209 28.5529 96.8253 28.7749 97.0341C29.0003 97.2429 29.113 97.4948 29.113 97.7898C29.113 98.0848 29.0003 98.3366 28.7749 98.5455C28.5529 98.7543 28.2844 98.8587 27.9696 98.8587ZM34.0155 96.1491C33.2333 96.1491 32.5604 95.9834 31.997 95.652C31.4369 95.3172 31.006 94.8532 30.7044 94.2599C30.4061 93.6667 30.2569 92.9839 30.2569 92.2116C30.2569 91.4295 30.4077 90.7434 30.7093 90.1534C31.0143 89.5601 31.4468 89.0978 32.0069 88.7663C32.5671 88.4316 33.2333 88.2642 34.0055 88.2642C34.6717 88.2642 35.255 88.3852 35.7555 88.6271C36.256 88.8691 36.6521 89.2088 36.9437 89.6463C37.2354 90.0838 37.3961 90.5975 37.426 91.1875H35.4274C35.371 90.8063 35.2219 90.4998 34.9799 90.2678C34.7413 90.0324 34.4281 89.9148 34.0403 89.9148C33.7122 89.9148 33.4255 90.0043 33.1802 90.1832C32.9383 90.3589 32.7494 90.6158 32.6135 90.9538C32.4776 91.2919 32.4096 91.7012 32.4096 92.1818C32.4096 92.669 32.4759 93.0833 32.6085 93.4247C32.7444 93.7661 32.935 94.0263 33.1802 94.2053C33.4255 94.3842 33.7122 94.4737 34.0403 94.4737C34.2823 94.4737 34.4994 94.424 34.6916 94.3246C34.8871 94.2251 35.0479 94.081 35.1738 93.892C35.3031 93.6998 35.3876 93.4695 35.4274 93.201H37.426C37.3928 93.7843 37.2337 94.2981 36.9487 94.7422C36.667 95.183 36.2775 95.5277 35.7804 95.7763C35.2832 96.0249 34.6949 96.1491 34.0155 96.1491ZM40.7599 91.5852V96H38.642V85.8182H40.7002V89.7109H40.7897C40.962 89.2602 41.2405 88.9072 41.6249 88.652C42.0094 88.3935 42.4916 88.2642 43.0717 88.2642C43.602 88.2642 44.0643 88.3802 44.4587 88.6122C44.8565 88.8409 45.1647 89.1707 45.3834 89.6016C45.6055 90.0291 45.7149 90.5412 45.7116 91.1378V96H43.5937V91.5156C43.597 91.045 43.4777 90.6787 43.2357 90.4169C42.9971 90.1551 42.6623 90.0241 42.2315 90.0241C41.9431 90.0241 41.6879 90.0855 41.4658 90.2081C41.2471 90.3307 41.0747 90.5097 40.9488 90.745C40.8262 90.977 40.7632 91.2571 40.7599 91.5852ZM57.4578 88.3636L54.7881 96H52.4017L49.732 88.3636H51.9692L53.5551 93.8274H53.6347L55.2157 88.3636H57.4578ZM63.2987 92.7486V88.3636H65.4166V96H63.3832V94.6129H63.3036C63.1313 95.0604 62.8446 95.42 62.4436 95.6918C62.0458 95.9635 61.5603 96.0994 60.9869 96.0994C60.4765 96.0994 60.0274 95.9834 59.6396 95.7514C59.2518 95.5194 58.9485 95.1896 58.7298 94.7621C58.5143 94.3345 58.405 93.8224 58.4017 93.2259V88.3636H60.5196V92.848C60.5229 93.2988 60.6438 93.6551 60.8825 93.9169C61.1211 94.1787 61.441 94.3097 61.842 94.3097C62.0972 94.3097 62.3358 94.2517 62.5579 94.1357C62.78 94.0163 62.9589 93.8407 63.0948 93.6087C63.234 93.3767 63.302 93.09 63.2987 92.7486ZM62.2298 98.8587C61.9149 98.8587 61.6448 98.7543 61.4194 98.5455C61.194 98.3366 61.0813 98.0848 61.0813 97.7898C61.0813 97.4948 61.194 97.2429 61.4194 97.0341C61.6448 96.8253 61.9149 96.7209 62.2298 96.7209C62.5446 96.7209 62.8131 96.8253 63.0352 97.0341C63.2606 97.2429 63.3732 97.4948 63.3732 97.7898C63.3732 98.0848 63.2606 98.3366 63.0352 98.5455C62.8131 98.7543 62.5446 98.8587 62.2298 98.8587ZM71.3784 98.8636C71.1099 98.8636 70.858 98.8421 70.6227 98.799C70.3907 98.7592 70.1985 98.7079 70.046 98.6449L70.5233 97.0639C70.7719 97.1402 70.9956 97.1816 71.1945 97.1882C71.3966 97.1948 71.5706 97.1484 71.7165 97.049C71.8656 96.9496 71.9866 96.7805 72.0794 96.5419L72.2037 96.2188L69.4643 88.3636H71.6916L73.2726 93.9716H73.3521L74.948 88.3636H77.1902L74.2222 96.8253C74.0796 97.2363 73.8857 97.5942 73.6405 97.8991C73.3985 98.2074 73.0919 98.4444 72.7207 98.6101C72.3495 98.7791 71.9021 98.8636 71.3784 98.8636ZM81.368 96.1491C80.5825 96.1491 79.9064 95.9901 79.3396 95.6719C78.7762 95.3504 78.342 94.8963 78.0371 94.3097C77.7321 93.7197 77.5797 93.022 77.5797 92.2166C77.5797 91.4311 77.7321 90.7417 78.0371 90.1484C78.342 89.5552 78.7712 89.0928 79.3247 88.7614C79.8815 88.4299 80.5345 88.2642 81.2835 88.2642C81.7873 88.2642 82.2563 88.3454 82.6905 88.5078C83.128 88.6669 83.5091 88.9072 83.8339 89.2287C84.1621 89.5502 84.4173 89.9545 84.5996 90.4418C84.7818 90.9257 84.873 91.4924 84.873 92.142V92.7237H78.4248V91.4112H82.8794C82.8794 91.1063 82.8131 90.8362 82.6805 90.6009C82.5479 90.3655 82.364 90.1816 82.1287 90.049C81.8967 89.9131 81.6265 89.8452 81.3183 89.8452C80.9968 89.8452 80.7118 89.9197 80.4632 90.0689C80.2179 90.2147 80.0257 90.4119 79.8865 90.6605C79.7473 90.9058 79.676 91.1792 79.6727 91.4808V92.7287C79.6727 93.1065 79.7423 93.433 79.8815 93.7081C80.024 93.9832 80.2246 94.1953 80.4831 94.3445C80.7416 94.4936 81.0482 94.5682 81.4028 94.5682C81.6381 94.5682 81.8536 94.535 82.0491 94.4688C82.2447 94.4025 82.4121 94.303 82.5513 94.1705C82.6905 94.0379 82.7965 93.8755 82.8694 93.6832L84.8282 93.8125C84.7288 94.2831 84.525 94.6941 84.2167 95.0455C83.9118 95.3935 83.5174 95.6652 83.0335 95.8608C82.5529 96.053 81.9978 96.1491 81.368 96.1491ZM82.2331 87.4489L81.2338 86.2358L80.2345 87.4489H78.4298V87.3793L80.4433 85.1918H82.0193L84.0378 87.3793V87.4489H82.2331ZM91.0121 92.7486V88.3636H93.13V96H91.0966V94.6129H91.0171C90.8447 95.0604 90.558 95.42 90.157 95.6918C89.7593 95.9635 89.2737 96.0994 88.7003 96.0994C88.1899 96.0994 87.7408 95.9834 87.353 95.7514C86.9652 95.5194 86.662 95.1896 86.4432 94.7621C86.2278 94.3345 86.1184 93.8224 86.1151 93.2259V88.3636H88.233V92.848C88.2363 93.2988 88.3573 93.6551 88.5959 93.9169C88.8346 94.1787 89.1544 94.3097 89.5554 94.3097C89.8106 94.3097 90.0493 94.2517 90.2713 94.1357C90.4934 94.0163 90.6724 93.8407 90.8083 93.6087C90.9475 93.3767 91.0154 93.09 91.0121 92.7486ZM101.846 88.3636V89.9545H97.2474V88.3636H101.846ZM98.2914 86.5341H100.409V93.6534C100.409 93.849 100.439 94.0014 100.499 94.1108C100.558 94.2169 100.641 94.2914 100.747 94.3345C100.857 94.3776 100.983 94.3991 101.125 94.3991C101.225 94.3991 101.324 94.3909 101.424 94.3743C101.523 94.3544 101.599 94.3395 101.652 94.3295L101.985 95.9055C101.879 95.9387 101.73 95.9768 101.538 96.0199C101.346 96.0663 101.112 96.0945 100.837 96.1044C100.326 96.1243 99.879 96.0563 99.4945 95.9006C99.1134 95.7448 98.8167 95.5028 98.6046 95.1747C98.3925 94.8466 98.2881 94.4323 98.2914 93.9318V86.5341ZM105.368 91.5852V96H103.25V85.8182H105.308V89.7109H105.398C105.57 89.2602 105.848 88.9072 106.233 88.652C106.617 88.3935 107.099 88.2642 107.679 88.2642C108.21 88.2642 108.672 88.3802 109.067 88.6122C109.464 88.8409 109.773 89.1707 109.991 89.6016C110.213 90.0291 110.323 90.5412 110.319 91.1378V96H108.201V91.5156C108.205 91.045 108.085 90.6787 107.844 90.4169C107.605 90.1551 107.27 90.0241 106.839 90.0241C106.551 90.0241 106.296 90.0855 106.074 90.2081C105.855 90.3307 105.683 90.5097 105.557 90.745C105.434 90.977 105.371 91.2571 105.368 91.5852ZM111.846 96V88.3636H113.964V96H111.846ZM112.149 87.3793L113.203 85.1172H115.162L113.646 87.3793H112.149ZM118.971 96.1491C118.189 96.1491 117.516 95.9834 116.952 95.652C116.392 95.3172 115.961 94.8532 115.66 94.2599C115.361 93.6667 115.212 92.9839 115.212 92.2116C115.212 91.4295 115.363 90.7434 115.665 90.1534C115.97 89.5601 116.402 89.0978 116.962 88.7663C117.522 88.4316 118.189 88.2642 118.961 88.2642C119.627 88.2642 120.21 88.3852 120.711 88.6271C121.211 88.8691 121.607 89.2088 121.899 89.6463C122.191 90.0838 122.352 90.5975 122.381 91.1875H120.383C120.326 90.8063 120.177 90.4998 119.935 90.2678C119.697 90.0324 119.383 89.9148 118.996 89.9148C118.668 89.9148 118.381 90.0043 118.136 90.1832C117.894 90.3589 117.705 90.6158 117.569 90.9538C117.433 91.2919 117.365 91.7012 117.365 92.1818C117.365 92.669 117.431 93.0833 117.564 93.4247C117.7 93.7661 117.89 94.0263 118.136 94.2053C118.381 94.3842 118.668 94.4737 118.996 94.4737C119.238 94.4737 119.455 94.424 119.647 94.3246C119.843 94.2251 120.003 94.081 120.129 93.892C120.258 93.6998 120.343 93.4695 120.383 93.201H122.381C122.348 93.7843 122.189 94.2981 121.904 94.7422C121.622 95.183 121.233 95.5277 120.736 95.7763C120.239 96.0249 119.65 96.1491 118.971 96.1491ZM125.715 91.5852V96H123.597V85.8182H125.656V89.7109H125.745C125.917 89.2602 126.196 88.9072 126.58 88.652C126.965 88.3935 127.447 88.2642 128.027 88.2642C128.557 88.2642 129.02 88.3802 129.414 88.6122C129.812 88.8409 130.12 89.1707 130.339 89.6016C130.561 90.0291 130.67 90.5412 130.667 91.1378V96H128.549V91.5156C128.552 91.045 128.433 90.6787 128.191 90.4169C127.952 90.1551 127.618 90.0241 127.187 90.0241C126.898 90.0241 126.643 90.0855 126.421 90.2081C126.202 90.3307 126.03 90.5097 125.904 90.745C125.782 90.977 125.719 91.2571 125.715 91.5852Z" fill="#7E2EBC"/>
<path d="M24.2372 110.273V119H23.027L18.5909 112.599H18.5099V119H17.1932V110.273H18.4119L22.8523 116.682H22.9332V110.273H24.2372ZM28.8001 121.591C28.2802 121.591 27.8327 121.523 27.4577 121.386C27.0856 121.25 26.7816 121.07 26.5458 120.845C26.31 120.621 26.1339 120.375 26.0174 120.108L27.1126 119.656C27.1893 119.781 27.2915 119.913 27.4194 120.053C27.5501 120.195 27.7262 120.315 27.9478 120.415C28.1722 120.514 28.4606 120.564 28.8129 120.564C29.2958 120.564 29.695 120.446 30.0103 120.21C30.3256 119.977 30.4833 119.605 30.4833 119.094V117.807H30.4023C30.3256 117.946 30.2148 118.101 30.07 118.271C29.9279 118.442 29.7319 118.589 29.4819 118.714C29.2319 118.839 28.9066 118.902 28.506 118.902C27.989 118.902 27.5231 118.781 27.1083 118.54C26.6964 118.295 26.3697 117.936 26.1282 117.462C25.8896 116.984 25.7702 116.398 25.7702 115.702C25.7702 115.006 25.8881 114.409 26.1239 113.912C26.3626 113.415 26.6893 113.034 27.104 112.77C27.5188 112.503 27.989 112.369 28.5146 112.369C28.9208 112.369 29.2489 112.438 29.4989 112.574C29.7489 112.707 29.9435 112.864 30.0827 113.043C30.2248 113.222 30.3342 113.379 30.4109 113.516H30.5046V112.455H31.7532V119.145C31.7532 119.707 31.6225 120.169 31.3612 120.53C31.0998 120.891 30.7461 121.158 30.3001 121.331C29.8569 121.504 29.3569 121.591 28.8001 121.591ZM28.7873 117.845C29.1538 117.845 29.4634 117.76 29.7163 117.589C29.9719 117.416 30.1651 117.169 30.2958 116.848C30.4293 116.524 30.4961 116.136 30.4961 115.685C30.4961 115.244 30.4308 114.857 30.3001 114.521C30.1694 114.186 29.9776 113.925 29.7248 113.737C29.4719 113.547 29.1594 113.452 28.7873 113.452C28.4038 113.452 28.0842 113.551 27.8285 113.75C27.5728 113.946 27.3796 114.213 27.2489 114.551C27.1211 114.889 27.0572 115.267 27.0572 115.685C27.0572 116.114 27.1225 116.49 27.2532 116.814C27.3839 117.138 27.5771 117.391 27.8327 117.572C28.0913 117.754 28.4094 117.845 28.7873 117.845ZM35.3668 119.145C34.9521 119.145 34.5771 119.068 34.2418 118.915C33.9066 118.759 33.641 118.533 33.445 118.237C33.2518 117.942 33.1552 117.58 33.1552 117.151C33.1552 116.781 33.2262 116.477 33.3683 116.239C33.5103 116 33.7021 115.811 33.9435 115.672C34.185 115.533 34.4549 115.428 34.7532 115.357C35.0515 115.286 35.3555 115.232 35.6651 115.195C36.0572 115.149 36.3754 115.112 36.6197 115.084C36.864 115.053 37.0415 115.003 37.1523 114.935C37.2631 114.866 37.3185 114.756 37.3185 114.602V114.572C37.3185 114.2 37.2134 113.912 37.0032 113.707C36.7958 113.503 36.4862 113.401 36.0742 113.401C35.6452 113.401 35.3072 113.496 35.06 113.686C34.8157 113.874 34.6467 114.082 34.5529 114.312L33.3555 114.04C33.4975 113.642 33.7049 113.321 33.9776 113.077C34.2532 112.83 34.57 112.651 34.9279 112.54C35.2859 112.426 35.6623 112.369 36.0572 112.369C36.3185 112.369 36.5955 112.401 36.8881 112.463C37.1836 112.523 37.4592 112.634 37.7148 112.795C37.9734 112.957 38.185 113.189 38.3498 113.49C38.5146 113.788 38.5969 114.176 38.5969 114.653V119H37.3526V118.105H37.3015C37.2191 118.27 37.0955 118.432 36.9308 118.591C36.766 118.75 36.5543 118.882 36.2958 118.987C36.0373 119.092 35.7276 119.145 35.3668 119.145ZM35.6438 118.122C35.9961 118.122 36.2972 118.053 36.5472 117.913C36.8001 117.774 36.9918 117.592 37.1225 117.368C37.256 117.141 37.3228 116.898 37.3228 116.639V115.795C37.2773 115.841 37.1893 115.884 37.0586 115.923C36.9308 115.96 36.7844 115.993 36.6197 116.021C36.4549 116.047 36.2944 116.071 36.1381 116.094C35.9819 116.114 35.8512 116.131 35.7461 116.145C35.4989 116.176 35.2731 116.229 35.0685 116.303C34.8668 116.376 34.7049 116.483 34.5827 116.622C34.4634 116.759 34.4038 116.94 34.4038 117.168C34.4038 117.483 34.5202 117.722 34.7532 117.884C34.9862 118.043 35.283 118.122 35.6438 118.122ZM35.6268 111.581L34.31 109.616H35.6523L36.6452 111.581H35.6268ZM40.8651 121.455C40.6747 121.455 40.5014 121.439 40.3452 121.408C40.1889 121.379 40.0724 121.348 39.9957 121.314L40.3026 120.27C40.5355 120.332 40.7429 120.359 40.9247 120.351C41.1065 120.342 41.267 120.274 41.4062 120.146C41.5483 120.018 41.6733 119.81 41.7812 119.52L41.9389 119.085L39.544 112.455H40.9077L42.5653 117.534H42.6335L44.2912 112.455H45.6591L42.9616 119.874C42.8366 120.214 42.6776 120.503 42.4844 120.739C42.2912 120.977 42.0611 121.156 41.794 121.276C41.527 121.395 41.2173 121.455 40.8651 121.455Z" fill="#3C3C43" fill-opacity="0.6"/>
<circle cx="51" cy="115" r="1" fill="#CFD1D4"/>
<path d="M63.1658 113.03C63.0835 112.771 62.9727 112.54 62.8335 112.335C62.6971 112.128 62.5337 111.952 62.3434 111.807C62.1531 111.659 61.9357 111.547 61.6914 111.47C61.4499 111.393 61.1843 111.355 60.8945 111.355C60.4031 111.355 59.9599 111.482 59.565 111.734C59.1701 111.987 58.8576 112.358 58.6275 112.847C58.4002 113.332 58.2866 113.928 58.2866 114.632C58.2866 115.339 58.4016 115.937 58.6317 116.426C58.8619 116.915 59.1772 117.286 59.5778 117.538C59.9783 117.791 60.4343 117.918 60.9457 117.918C61.4201 117.918 61.8335 117.821 62.1857 117.628C62.5408 117.435 62.815 117.162 63.0082 116.81C63.2042 116.455 63.3022 116.037 63.3022 115.557L63.6431 115.621H61.146V114.534H64.5763V115.527C64.5763 116.26 64.4201 116.896 64.1076 117.436C63.7979 117.973 63.369 118.388 62.8207 118.68C62.2752 118.973 61.6502 119.119 60.9457 119.119C60.1559 119.119 59.4627 118.938 58.8661 118.574C58.2724 118.21 57.8093 117.695 57.4769 117.027C57.1445 116.357 56.9783 115.561 56.9783 114.641C56.9783 113.945 57.0749 113.32 57.2681 112.766C57.4613 112.212 57.7326 111.741 58.082 111.355C58.4343 110.966 58.8477 110.669 59.3221 110.464C59.7994 110.257 60.3207 110.153 60.886 110.153C61.3576 110.153 61.7965 110.223 62.2028 110.362C62.6119 110.501 62.9755 110.699 63.2937 110.955C63.6147 111.21 63.8803 111.514 64.0906 111.866C64.3008 112.216 64.4428 112.604 64.5167 113.03H63.1658ZM66.5558 119V112.455H67.8299V119H66.5558ZM67.1992 111.445C66.9776 111.445 66.7873 111.371 66.6282 111.223C66.4719 111.072 66.3938 110.893 66.3938 110.686C66.3938 110.476 66.4719 110.297 66.6282 110.149C66.7873 109.999 66.9776 109.923 67.1992 109.923C67.4208 109.923 67.6097 109.999 67.766 110.149C67.9251 110.297 68.0046 110.476 68.0046 110.686C68.0046 110.893 67.9251 111.072 67.766 111.223C67.6097 111.371 67.4208 111.445 67.1992 111.445ZM75.0156 111.999H76C76 112.669 75.848 113.199 75.544 113.588C75.2429 113.974 74.7287 114.168 74.0014 114.168V113.452C74.2912 113.452 74.5085 113.392 74.6534 113.273C74.7983 113.151 74.8949 112.982 74.9432 112.766C74.9915 112.547 75.0156 112.291 75.0156 111.999ZM72.3011 119.132C71.6875 119.132 71.152 118.991 70.6946 118.71C70.2372 118.429 69.8821 118.036 69.6293 117.53C69.3764 117.024 69.25 116.433 69.25 115.757C69.25 115.078 69.3764 114.484 69.6293 113.976C69.8821 113.467 70.2372 113.072 70.6946 112.791C71.152 112.51 71.6875 112.369 72.3011 112.369C72.9148 112.369 73.4503 112.51 73.9077 112.791C74.3651 113.072 74.7202 113.467 74.973 113.976C75.2259 114.484 75.3523 115.078 75.3523 115.757C75.3523 116.433 75.2259 117.024 74.973 117.53C74.7202 118.036 74.3651 118.429 73.9077 118.71C73.4503 118.991 72.9148 119.132 72.3011 119.132ZM72.3054 118.062C72.7031 118.062 73.0327 117.957 73.294 117.747C73.5554 117.537 73.7486 117.257 73.8736 116.908C74.0014 116.558 74.0653 116.173 74.0653 115.753C74.0653 115.335 74.0014 114.952 73.8736 114.602C73.7486 114.25 73.5554 113.967 73.294 113.754C73.0327 113.541 72.7031 113.435 72.3054 113.435C71.9048 113.435 71.5724 113.541 71.3082 113.754C71.0469 113.967 70.8523 114.25 70.7244 114.602C70.5994 114.952 70.5369 115.335 70.5369 115.753C70.5369 116.173 70.5994 116.558 70.7244 116.908C70.8523 117.257 71.0469 117.537 71.3082 117.747C71.5724 117.957 71.9048 118.062 72.3054 118.062ZM71.8068 111.581L70.4901 109.616H71.8324L72.8253 111.581H71.8068Z" fill="#3C3C43" fill-opacity="0.6"/>
<rect x="334" y="70" width="24" height="24" rx="4" fill="#F6F6F6"/>
<path d="M350 78L342 86M342 78L350 86" stroke="#D42F55" stroke-width="1.33333" stroke-linecap="round" stroke-linejoin="round"/>
<path d="M195.519 91.1338L209.519 83.7264C210.446 83.2362 211.554 83.2362 212.481 83.7264L226.481 91.1338C227.518 91.6825 228.167 92.7596 228.167 93.9328V110.067C228.167 111.24 227.518 112.318 226.481 112.866L212.481 120.274C211.554 120.764 210.446 120.764 209.519 120.274L195.519 112.866C194.482 112.318 193.833 111.24 193.833 110.067V93.9328C193.833 92.7596 194.482 91.6825 195.519 91.1338Z" fill="#E7E8E9" stroke="#F6F6F6" stroke-width="1.66667"/>
<path d="M217.667 109.5C217.667 108.337 217.667 107.756 217.523 107.282C217.2 106.217 216.366 105.383 215.301 105.06C214.828 104.917 214.246 104.917 213.083 104.917H208.917C207.754 104.917 207.172 104.917 206.699 105.06C205.634 105.383 204.8 106.217 204.477 107.282C204.333 107.756 204.333 108.337 204.333 109.5M214.75 98.25C214.75 100.321 213.071 102 211 102C208.929 102 207.25 100.321 207.25 98.25C207.25 96.1789 208.929 94.5 211 94.5C213.071 94.5 214.75 96.1789 214.75 98.25Z" stroke="black" stroke-width="1.66667" stroke-linecap="round" stroke-linejoin="round"/>
<path d="M243.207 100.111H241.878C241.827 99.8267 241.732 99.5767 241.592 99.3608C241.453 99.1449 241.283 98.9616 241.081 98.8111C240.879 98.6605 240.653 98.5469 240.403 98.4702C240.156 98.3935 239.893 98.3551 239.615 98.3551C239.112 98.3551 238.662 98.4815 238.264 98.7344C237.869 98.9872 237.557 99.358 237.327 99.8466C237.099 100.335 236.986 100.932 236.986 101.636C236.986 102.347 237.099 102.946 237.327 103.435C237.557 103.923 237.871 104.293 238.268 104.543C238.666 104.793 239.114 104.918 239.611 104.918C239.886 104.918 240.148 104.881 240.395 104.807C240.645 104.73 240.871 104.618 241.072 104.47C241.274 104.322 241.445 104.142 241.584 103.929C241.726 103.713 241.824 103.466 241.878 103.188L243.207 103.192C243.136 103.621 242.999 104.016 242.794 104.376C242.592 104.734 242.332 105.044 242.014 105.305C241.699 105.564 241.338 105.764 240.932 105.906C240.526 106.048 240.082 106.119 239.602 106.119C238.847 106.119 238.173 105.94 237.582 105.582C236.991 105.222 236.526 104.706 236.185 104.036C235.847 103.365 235.678 102.565 235.678 101.636C235.678 100.705 235.848 99.9048 236.189 99.2372C236.53 98.5668 236.996 98.0526 237.587 97.6946C238.178 97.3338 238.849 97.1534 239.602 97.1534C240.065 97.1534 240.497 97.2202 240.898 97.3537C241.301 97.4844 241.663 97.6776 241.984 97.9332C242.305 98.1861 242.571 98.4957 242.781 98.8622C242.991 99.2259 243.134 99.642 243.207 100.111ZM245.955 102.114V106H244.681V97.2727H245.938V100.52H246.019C246.172 100.168 246.407 99.8878 246.722 99.6804C247.037 99.473 247.449 99.3693 247.958 99.3693C248.407 99.3693 248.799 99.4616 249.134 99.6463C249.472 99.831 249.733 100.107 249.918 100.473C250.105 100.837 250.199 101.291 250.199 101.837V106H248.925V101.99C248.925 101.51 248.801 101.138 248.554 100.874C248.307 100.607 247.963 100.473 247.523 100.473C247.222 100.473 246.952 100.537 246.713 100.665C246.478 100.793 246.292 100.98 246.155 101.227C246.022 101.472 245.955 101.767 245.955 102.114ZM254.657 106.132C254.043 106.132 253.507 105.991 253.05 105.71C252.593 105.429 252.238 105.036 251.985 104.53C251.732 104.024 251.605 103.433 251.605 102.757C251.605 102.078 251.732 101.484 251.985 100.976C252.238 100.467 252.593 100.072 253.05 99.7912C253.507 99.5099 254.043 99.3693 254.657 99.3693C255.27 99.3693 255.806 99.5099 256.263 99.7912C256.721 100.072 257.076 100.467 257.328 100.976C257.581 101.484 257.708 102.078 257.708 102.757C257.708 103.433 257.581 104.024 257.328 104.53C257.076 105.036 256.721 105.429 256.263 105.71C255.806 105.991 255.27 106.132 254.657 106.132ZM254.661 105.062C255.059 105.062 255.388 104.957 255.65 104.747C255.911 104.537 256.104 104.257 256.229 103.908C256.357 103.558 256.421 103.173 256.421 102.753C256.421 102.335 256.357 101.952 256.229 101.602C256.104 101.25 255.911 100.967 255.65 100.754C255.388 100.541 255.059 100.435 254.661 100.435C254.26 100.435 253.928 100.541 253.664 100.754C253.402 100.967 253.208 101.25 253.08 101.602C252.955 101.952 252.892 102.335 252.892 102.753C252.892 103.173 252.955 103.558 253.08 103.908C253.208 104.257 253.402 104.537 253.664 104.747C253.928 104.957 254.26 105.062 254.661 105.062ZM254.657 108.259C254.438 108.259 254.249 108.185 254.09 108.037C253.931 107.889 253.851 107.71 253.851 107.5C253.851 107.29 253.931 107.111 254.09 106.963C254.249 106.815 254.438 106.741 254.657 106.741C254.878 106.741 255.067 106.815 255.223 106.963C255.382 107.111 255.462 107.29 255.462 107.5C255.462 107.71 255.382 107.889 255.223 108.037C255.067 108.185 254.878 108.259 254.657 108.259ZM260.404 102.114V106H259.13V99.4545H260.353V100.52H260.434C260.585 100.173 260.82 99.8949 261.141 99.6847C261.465 99.4744 261.873 99.3693 262.364 99.3693C262.81 99.3693 263.201 99.4631 263.536 99.6506C263.871 99.8352 264.131 100.111 264.316 100.477C264.501 100.844 264.593 101.297 264.593 101.837V106H263.319V101.99C263.319 101.516 263.195 101.145 262.948 100.878C262.701 100.608 262.362 100.473 261.93 100.473C261.634 100.473 261.371 100.537 261.141 100.665C260.914 100.793 260.734 100.98 260.6 101.227C260.469 101.472 260.404 101.767 260.404 102.114ZM272.235 106.132C271.601 106.132 271.056 105.989 270.598 105.702C270.144 105.412 269.794 105.013 269.55 104.504C269.306 103.996 269.184 103.413 269.184 102.757C269.184 102.092 269.309 101.506 269.559 100.997C269.809 100.486 270.161 100.087 270.615 99.7997C271.07 99.5128 271.605 99.3693 272.222 99.3693C272.719 99.3693 273.162 99.4616 273.551 99.6463C273.941 99.8281 274.255 100.084 274.493 100.413C274.735 100.743 274.878 101.128 274.924 101.568H273.684C273.615 101.261 273.459 100.997 273.215 100.776C272.973 100.554 272.65 100.443 272.243 100.443C271.888 100.443 271.577 100.537 271.31 100.724C271.046 100.909 270.84 101.173 270.692 101.517C270.544 101.858 270.471 102.261 270.471 102.727C270.471 103.205 270.543 103.616 270.688 103.963C270.833 104.31 271.037 104.578 271.301 104.768C271.569 104.959 271.882 105.054 272.243 105.054C272.485 105.054 272.703 105.01 272.9 104.922C273.098 104.831 273.265 104.702 273.398 104.534C273.534 104.366 273.63 104.165 273.684 103.929H274.924C274.878 104.352 274.74 104.73 274.51 105.062C274.28 105.395 273.972 105.656 273.586 105.847C273.202 106.037 272.752 106.132 272.235 106.132ZM277.56 102.114V106H276.286V97.2727H277.543V100.52H277.624C277.778 100.168 278.012 99.8878 278.327 99.6804C278.643 99.473 279.055 99.3693 279.563 99.3693C280.012 99.3693 280.404 99.4616 280.739 99.6463C281.077 99.831 281.339 100.107 281.523 100.473C281.711 100.837 281.805 101.291 281.805 101.837V106H280.531V101.99C280.531 101.51 280.407 101.138 280.16 100.874C279.913 100.607 279.569 100.473 279.129 100.473C278.827 100.473 278.558 100.537 278.319 100.665C278.083 100.793 277.897 100.98 277.761 101.227C277.627 101.472 277.56 101.767 277.56 102.114ZM287.651 103.286V99.4545H288.93V106H287.677V104.866H287.609C287.458 105.216 287.217 105.507 286.884 105.74C286.555 105.97 286.144 106.085 285.653 106.085C285.232 106.085 284.86 105.993 284.536 105.808C284.215 105.621 283.962 105.344 283.778 104.977C283.596 104.611 283.505 104.158 283.505 103.618V99.4545H284.779V103.464C284.779 103.911 284.903 104.266 285.15 104.53C285.397 104.794 285.718 104.926 286.113 104.926C286.352 104.926 286.589 104.866 286.825 104.747C287.063 104.628 287.261 104.447 287.417 104.206C287.576 103.964 287.654 103.658 287.651 103.286ZM291.447 108.455C291.257 108.455 291.083 108.439 290.927 108.408C290.771 108.379 290.654 108.348 290.578 108.314L290.885 107.27C291.118 107.332 291.325 107.359 291.507 107.351C291.689 107.342 291.849 107.274 291.988 107.146C292.13 107.018 292.255 106.81 292.363 106.52L292.521 106.085L290.126 99.4545H291.49L293.147 104.534H293.216L294.873 99.4545H296.241L293.544 106.874C293.419 107.214 293.26 107.503 293.066 107.739C292.873 107.977 292.643 108.156 292.376 108.276C292.109 108.395 291.799 108.455 291.447 108.455ZM300.037 106.132C299.392 106.132 298.837 105.994 298.371 105.719C297.908 105.44 297.55 105.05 297.297 104.547C297.047 104.041 296.922 103.449 296.922 102.77C296.922 102.099 297.047 101.509 297.297 100.997C297.55 100.486 297.902 100.087 298.354 99.7997C298.808 99.5128 299.339 99.3693 299.947 99.3693C300.317 99.3693 300.675 99.4304 301.021 99.5526C301.368 99.6747 301.679 99.8665 301.955 100.128C302.23 100.389 302.447 100.729 302.607 101.146C302.766 101.561 302.845 102.065 302.845 102.659V103.111H297.642V102.156H301.597C301.597 101.821 301.528 101.524 301.392 101.266C301.256 101.004 301.064 100.798 300.817 100.648C300.572 100.497 300.286 100.422 299.956 100.422C299.598 100.422 299.286 100.51 299.018 100.686C298.754 100.859 298.55 101.087 298.405 101.368C298.263 101.646 298.192 101.949 298.192 102.276V103.021C298.192 103.459 298.268 103.831 298.422 104.138C298.578 104.445 298.795 104.679 299.074 104.841C299.352 105 299.678 105.08 300.05 105.08C300.291 105.08 300.511 105.045 300.71 104.977C300.909 104.906 301.081 104.801 301.226 104.662C301.371 104.523 301.482 104.351 301.558 104.146L302.764 104.364C302.668 104.719 302.494 105.03 302.244 105.297C301.997 105.561 301.686 105.767 301.311 105.915C300.939 106.06 300.514 106.132 300.037 106.132ZM300.774 98.6705L299.901 97.5284L299.023 98.6705H297.872V98.6065L299.368 96.7997H300.429L301.929 98.6065V98.6705H300.774ZM305.533 102.114V106H304.259V99.4545H305.482V100.52H305.563C305.713 100.173 305.949 99.8949 306.27 99.6847C306.594 99.4744 307.002 99.3693 307.493 99.3693C307.939 99.3693 308.33 99.4631 308.665 99.6506C309 99.8352 309.26 100.111 309.445 100.477C309.63 100.844 309.722 101.297 309.722 101.837V106H308.448V101.99C308.448 101.516 308.324 101.145 308.077 100.878C307.83 100.608 307.49 100.473 307.059 100.473C306.763 100.473 306.5 100.537 306.27 100.665C306.043 100.793 305.863 100.98 305.729 101.227C305.598 101.472 305.533 101.767 305.533 102.114ZM320.206 99.4545L317.832 106H316.469L314.091 99.4545H315.459L317.116 104.491H317.185L318.838 99.4545H320.206ZM321.403 106V99.4545H322.678V106H321.403ZM322.047 98.4446C321.825 98.4446 321.635 98.3707 321.476 98.223C321.32 98.0724 321.241 97.8935 321.241 97.6861C321.241 97.4759 321.32 97.2969 321.476 97.1491C321.635 96.9986 321.825 96.9233 322.047 96.9233C322.268 96.9233 322.457 96.9986 322.614 97.1491C322.773 97.2969 322.852 97.4759 322.852 97.6861C322.852 97.8935 322.773 98.0724 322.614 98.223C322.457 98.3707 322.268 98.4446 322.047 98.4446ZM327.213 106.132C326.568 106.132 326.012 105.994 325.547 105.719C325.083 105.44 324.725 105.05 324.473 104.547C324.223 104.041 324.098 103.449 324.098 102.77C324.098 102.099 324.223 101.509 324.473 100.997C324.725 100.486 325.078 100.087 325.529 99.7997C325.984 99.5128 326.515 99.3693 327.123 99.3693C327.493 99.3693 327.85 99.4304 328.197 99.5526C328.544 99.6747 328.855 99.8665 329.13 100.128C329.406 100.389 329.623 100.729 329.782 101.146C329.941 101.561 330.021 102.065 330.021 102.659V103.111H324.818V102.156H328.772C328.772 101.821 328.704 101.524 328.568 101.266C328.431 101.004 328.24 100.798 327.993 100.648C327.748 100.497 327.461 100.422 327.132 100.422C326.774 100.422 326.461 100.51 326.194 100.686C325.93 100.859 325.725 101.087 325.581 101.368C325.439 101.646 325.368 101.949 325.368 102.276V103.021C325.368 103.459 325.444 103.831 325.598 104.138C325.754 104.445 325.971 104.679 326.25 104.841C326.528 105 326.853 105.08 327.225 105.08C327.467 105.08 327.687 105.045 327.886 104.977C328.085 104.906 328.257 104.801 328.402 104.662C328.547 104.523 328.657 104.351 328.734 104.146L329.94 104.364C329.843 104.719 329.67 105.03 329.42 105.297C329.173 105.561 328.862 105.767 328.487 105.915C328.115 106.06 327.69 106.132 327.213 106.132ZM327.95 98.6705L327.076 97.5284L326.199 98.6705H325.048V98.6065L326.544 96.7997H327.605L329.105 98.6065V98.6705H327.95ZM332.709 102.114V106H331.435V99.4545H332.658V100.52H332.739C332.889 100.173 333.125 99.8949 333.446 99.6847C333.77 99.4744 334.178 99.3693 334.669 99.3693C335.115 99.3693 335.506 99.4631 335.841 99.6506C336.176 99.8352 336.436 100.111 336.621 100.477C336.805 100.844 336.898 101.297 336.898 101.837V106H335.624V101.99C335.624 101.516 335.5 101.145 335.253 100.878C335.006 100.608 334.666 100.473 334.234 100.473C333.939 100.473 333.676 100.537 333.446 100.665C333.219 100.793 333.038 100.98 332.905 101.227C332.774 101.472 332.709 101.767 332.709 102.114Z" fill="#7E2EBC"/>
</g>
<path d="M244.131 24.4178C244.664 24.417 245.145 24.8494 245.204 25.3837C245.263 25.918 244.879 26.3519 244.345 26.3527L244.131 24.4178ZM204.707 54.6148L201.896 43.5599L212.711 47.6957L204.707 54.6148ZM244.345 26.3527C229.061 26.3772 214.302 31.2814 207.952 46.9679L206.137 46.0826C212.854 29.4901 228.476 24.4429 244.131 24.4178L244.345 26.3527Z" fill="white"/>
<path d="M262.137 18.4375H259.648C259.603 18.1155 259.51 17.8295 259.37 17.5795C259.23 17.3258 259.05 17.1098 258.83 16.9318C258.61 16.7538 258.357 16.6174 258.069 16.5227C257.785 16.428 257.476 16.3807 257.143 16.3807C256.54 16.3807 256.016 16.5303 255.569 16.8295C255.122 17.125 254.775 17.5568 254.529 18.125C254.283 18.6894 254.16 19.375 254.16 20.1818C254.16 21.0114 254.283 21.7083 254.529 22.2727C254.779 22.8371 255.127 23.2633 255.574 23.5511C256.021 23.839 256.538 23.983 257.126 23.983C257.455 23.983 257.76 23.9394 258.04 23.8523C258.324 23.7652 258.576 23.6383 258.796 23.4716C259.016 23.3011 259.198 23.0947 259.341 22.8523C259.489 22.6098 259.591 22.3333 259.648 22.0227L262.137 22.0341C262.073 22.5682 261.912 23.0833 261.654 23.5795C261.4 24.072 261.057 24.5133 260.626 24.9034C260.198 25.2898 259.686 25.5966 259.091 25.8239C258.501 26.0473 257.832 26.1591 257.086 26.1591C256.048 26.1591 255.12 25.9242 254.302 25.4545C253.487 24.9848 252.843 24.3049 252.37 23.4148C251.9 22.5246 251.665 21.447 251.665 20.1818C251.665 18.9129 251.904 17.8333 252.381 16.9432C252.859 16.053 253.506 15.375 254.324 14.9091C255.143 14.4394 256.063 14.2045 257.086 14.2045C257.76 14.2045 258.385 14.2992 258.961 14.4886C259.54 14.678 260.054 14.9545 260.501 15.3182C260.948 15.678 261.311 16.1193 261.591 16.642C261.876 17.1648 262.057 17.7633 262.137 18.4375ZM266.116 20.9545V26H263.696V14.3636H266.048V18.8125H266.15C266.347 18.2973 266.665 17.8939 267.105 17.6023C267.544 17.3068 268.095 17.1591 268.758 17.1591C269.364 17.1591 269.893 17.2917 270.343 17.5568C270.798 17.8182 271.15 18.1951 271.4 18.6875C271.654 19.1761 271.779 19.7614 271.775 20.4432V26H269.355V20.875C269.359 20.3371 269.222 19.9186 268.946 19.6193C268.673 19.3201 268.29 19.1705 267.798 19.1705C267.468 19.1705 267.177 19.2405 266.923 19.3807C266.673 19.5208 266.476 19.7254 266.332 19.9943C266.192 20.2595 266.12 20.5795 266.116 20.9545ZM276.009 26.1648C275.452 26.1648 274.956 26.0682 274.52 25.875C274.084 25.678 273.74 25.3883 273.486 25.0057C273.236 24.6193 273.111 24.1383 273.111 23.5625C273.111 23.0777 273.2 22.6705 273.378 22.3409C273.556 22.0114 273.798 21.7462 274.105 21.5455C274.412 21.3447 274.761 21.1932 275.151 21.0909C275.545 20.9886 275.958 20.9167 276.389 20.875C276.897 20.822 277.306 20.7727 277.617 20.7273C277.927 20.678 278.153 20.6061 278.293 20.5114C278.433 20.4167 278.503 20.2765 278.503 20.0909V20.0568C278.503 19.697 278.389 19.4186 278.162 19.2216C277.939 19.0246 277.62 18.9261 277.208 18.9261C276.772 18.9261 276.425 19.0227 276.168 19.2159C275.91 19.4053 275.74 19.6439 275.656 19.9318L273.418 19.75C273.531 19.2197 273.755 18.7614 274.088 18.375C274.422 17.9848 274.851 17.6856 275.378 17.4773C275.908 17.2652 276.522 17.1591 277.219 17.1591C277.704 17.1591 278.168 17.2159 278.611 17.3295C279.058 17.4432 279.454 17.6193 279.798 17.858C280.147 18.0966 280.422 18.4034 280.622 18.7784C280.823 19.1496 280.923 19.5947 280.923 20.1136V26H278.628V24.7898H278.56C278.42 25.0625 278.232 25.303 277.997 25.5114C277.762 25.7159 277.48 25.8769 277.151 25.9943C276.821 26.108 276.441 26.1648 276.009 26.1648ZM276.702 24.4943C277.058 24.4943 277.372 24.4242 277.645 24.2841C277.918 24.1402 278.132 23.947 278.287 23.7045C278.442 23.4621 278.52 23.1875 278.52 22.8807V21.9545C278.444 22.0038 278.34 22.0492 278.208 22.0909C278.079 22.1288 277.933 22.1648 277.77 22.1989C277.607 22.2292 277.444 22.2576 277.281 22.2841C277.119 22.3068 276.971 22.3277 276.838 22.3466C276.554 22.3883 276.306 22.4545 276.094 22.5455C275.882 22.6364 275.717 22.7595 275.6 22.9148C275.482 23.0663 275.423 23.2557 275.423 23.483C275.423 23.8125 275.543 24.0644 275.781 24.2386C276.024 24.4091 276.331 24.4943 276.702 24.4943ZM277.213 29.267C276.853 29.267 276.545 29.1477 276.287 28.9091C276.03 28.6705 275.901 28.3826 275.901 28.0455C275.901 27.7083 276.03 27.4205 276.287 27.1818C276.545 26.9432 276.853 26.8239 277.213 26.8239C277.573 26.8239 277.88 26.9432 278.134 27.1818C278.391 27.4205 278.52 27.7083 278.52 28.0455C278.52 28.3826 278.391 28.6705 278.134 28.9091C277.88 29.1477 277.573 29.267 277.213 29.267ZM282.641 26V17.2727H284.948V18.8125H285.05C285.232 18.3011 285.535 17.8977 285.959 17.6023C286.384 17.3068 286.891 17.1591 287.482 17.1591C288.081 17.1591 288.59 17.3087 289.011 17.608C289.431 17.9034 289.711 18.3049 289.852 18.8125H289.942C290.12 18.3125 290.442 17.9129 290.908 17.6136C291.378 17.3106 291.933 17.1591 292.573 17.1591C293.388 17.1591 294.048 17.4186 294.556 17.9375C295.067 18.4527 295.323 19.1837 295.323 20.1307V26H292.908V20.608C292.908 20.1231 292.78 19.7595 292.522 19.517C292.264 19.2746 291.942 19.1534 291.556 19.1534C291.117 19.1534 290.774 19.2936 290.528 19.5739C290.281 19.8504 290.158 20.2159 290.158 20.6705V26H287.812V20.5568C287.812 20.1288 287.689 19.7879 287.442 19.5341C287.2 19.2803 286.88 19.1534 286.482 19.1534C286.213 19.1534 285.971 19.2216 285.755 19.358C285.543 19.4905 285.374 19.678 285.249 19.9205C285.124 20.1591 285.062 20.4394 285.062 20.7614V26H282.641ZM303.834 26.142C303.171 26.142 302.571 25.9716 302.033 25.6307C301.499 25.286 301.075 24.7803 300.76 24.1136C300.45 23.4432 300.294 22.6212 300.294 21.6477C300.294 20.6477 300.455 19.8163 300.777 19.1534C301.099 18.4867 301.527 17.9886 302.061 17.6591C302.599 17.3258 303.188 17.1591 303.828 17.1591C304.317 17.1591 304.724 17.2424 305.05 17.4091C305.38 17.572 305.645 17.7765 305.845 18.0227C306.05 18.2652 306.205 18.5038 306.311 18.7386H306.385V14.3636H308.8V26H306.414V24.6023H306.311C306.198 24.8447 306.037 25.0852 305.828 25.3239C305.624 25.5587 305.357 25.7538 305.027 25.9091C304.702 26.0644 304.304 26.142 303.834 26.142ZM304.601 24.2159C304.991 24.2159 305.321 24.1098 305.59 23.8977C305.862 23.6818 306.071 23.3807 306.215 22.9943C306.362 22.608 306.436 22.1553 306.436 21.6364C306.436 21.1174 306.364 20.6667 306.22 20.2841C306.077 19.9015 305.868 19.6061 305.595 19.3977C305.323 19.1894 304.991 19.0852 304.601 19.0852C304.203 19.0852 303.868 19.1932 303.595 19.4091C303.323 19.625 303.116 19.9242 302.976 20.3068C302.836 20.6894 302.766 21.1326 302.766 21.6364C302.766 22.1439 302.836 22.5928 302.976 22.983C303.12 23.3693 303.327 23.6723 303.595 23.892C303.868 24.108 304.203 24.2159 304.601 24.2159ZM304.124 16.6761V15.25H309.794V16.6761H304.124ZM314.607 26.1705C313.71 26.1705 312.937 25.9886 312.289 25.625C311.645 25.2576 311.149 24.7386 310.801 24.0682C310.452 23.3939 310.278 22.5966 310.278 21.6761C310.278 20.7784 310.452 19.9905 310.801 19.3125C311.149 18.6345 311.64 18.1061 312.272 17.7273C312.908 17.3485 313.655 17.1591 314.511 17.1591C315.086 17.1591 315.622 17.2519 316.119 17.4375C316.619 17.6193 317.054 17.8939 317.426 18.2614C317.801 18.6288 318.092 19.0909 318.301 19.6477C318.509 20.2008 318.613 20.8485 318.613 21.5909V22.2557H311.244V20.7557H316.335C316.335 20.4072 316.259 20.0985 316.107 19.8295C315.956 19.5606 315.746 19.3504 315.477 19.1989C315.211 19.0436 314.903 18.9659 314.551 18.9659C314.183 18.9659 313.857 19.0511 313.573 19.2216C313.293 19.3883 313.073 19.6136 312.914 19.8977C312.755 20.178 312.674 20.4905 312.67 20.8352V22.2614C312.67 22.6932 312.749 23.0663 312.908 23.3807C313.071 23.6951 313.301 23.9375 313.596 24.108C313.891 24.2784 314.242 24.3636 314.647 24.3636C314.916 24.3636 315.162 24.3258 315.386 24.25C315.609 24.1742 315.801 24.0606 315.96 23.9091C316.119 23.7576 316.24 23.572 316.323 23.3523L318.562 23.5C318.448 24.0379 318.215 24.5076 317.863 24.9091C317.515 25.3068 317.064 25.6174 316.511 25.8409C315.961 26.0606 315.327 26.1705 314.607 26.1705ZM315.13 14.6136L317.369 16.3807H315.704L314.443 15.3864L313.164 16.3807H311.499L313.738 14.6136H315.13ZM317.886 15.3864H316.63L316.522 14.5341C316.848 14.5189 317.085 14.4773 317.232 14.4091C317.38 14.3409 317.454 14.2405 317.454 14.108C317.454 13.9337 317.361 13.8163 317.176 13.7557C316.99 13.6951 316.759 13.6648 316.482 13.6648L316.539 12.75C317.308 12.75 317.895 12.8636 318.301 13.0909C318.706 13.3144 318.908 13.6307 318.908 14.0398C318.908 14.3239 318.801 14.5417 318.585 14.6932C318.372 14.8409 318.14 14.9356 317.886 14.9773V15.3864ZM327.519 26.1705C326.625 26.1705 325.856 25.9811 325.212 25.6023C324.572 25.2197 324.079 24.6894 323.735 24.0114C323.394 23.3333 323.223 22.553 323.223 21.6705C323.223 20.7765 323.396 19.9924 323.74 19.3182C324.089 18.6402 324.583 18.1117 325.223 17.733C325.864 17.3504 326.625 17.1591 327.507 17.1591C328.269 17.1591 328.936 17.2973 329.507 17.5739C330.079 17.8504 330.532 18.2386 330.865 18.7386C331.199 19.2386 331.382 19.8258 331.417 20.5H329.132C329.068 20.0644 328.898 19.714 328.621 19.4489C328.348 19.1799 327.99 19.0455 327.547 19.0455C327.172 19.0455 326.845 19.1477 326.564 19.3523C326.288 19.553 326.072 19.8466 325.917 20.233C325.761 20.6193 325.684 21.0871 325.684 21.6364C325.684 22.1932 325.759 22.6667 325.911 23.0568C326.066 23.447 326.284 23.7443 326.564 23.9489C326.845 24.1534 327.172 24.2557 327.547 24.2557C327.824 24.2557 328.072 24.1989 328.292 24.0852C328.515 23.9716 328.699 23.8068 328.843 23.5909C328.99 23.3712 329.087 23.108 329.132 22.8011H331.417C331.379 23.4678 331.197 24.0549 330.871 24.5625C330.549 25.0663 330.104 25.4602 329.536 25.7443C328.968 26.0284 328.295 26.1705 327.519 26.1705ZM335.227 20.9545V26H332.806V14.3636H335.159V18.8125H335.261C335.458 18.2973 335.776 17.8939 336.215 17.6023C336.655 17.3068 337.206 17.1591 337.869 17.1591C338.475 17.1591 339.003 17.2917 339.454 17.5568C339.909 17.8182 340.261 18.1951 340.511 18.6875C340.765 19.1761 340.89 19.7614 340.886 20.4432V26H338.465V20.875C338.469 20.3371 338.333 19.9186 338.056 19.6193C337.784 19.3201 337.401 19.1705 336.909 19.1705C336.579 19.1705 336.287 19.2405 336.034 19.3807C335.784 19.5208 335.587 19.7254 335.443 19.9943C335.303 20.2595 335.231 20.5795 335.227 20.9545ZM346.574 26.1705C345.691 26.1705 344.928 25.983 344.284 25.608C343.644 25.2292 343.15 24.7027 342.801 24.0284C342.453 23.3504 342.278 22.5644 342.278 21.6705C342.278 20.7689 342.453 19.9811 342.801 19.3068C343.15 18.6288 343.644 18.1023 344.284 17.7273C344.928 17.3485 345.691 17.1591 346.574 17.1591C347.456 17.1591 348.218 17.3485 348.858 17.7273C349.502 18.1023 349.998 18.6288 350.347 19.3068C350.695 19.9811 350.869 20.7689 350.869 21.6705C350.869 22.5644 350.695 23.3504 350.347 24.0284C349.998 24.7027 349.502 25.2292 348.858 25.608C348.218 25.983 347.456 26.1705 346.574 26.1705ZM346.585 24.2955C346.987 24.2955 347.322 24.1818 347.591 23.9545C347.86 23.7235 348.062 23.4091 348.199 23.0114C348.339 22.6136 348.409 22.161 348.409 21.6534C348.409 21.1458 348.339 20.6932 348.199 20.2955C348.062 19.8977 347.86 19.5833 347.591 19.3523C347.322 19.1212 346.987 19.0057 346.585 19.0057C346.18 19.0057 345.839 19.1212 345.562 19.3523C345.29 19.5833 345.083 19.8977 344.943 20.2955C344.807 20.6932 344.739 21.1458 344.739 21.6534C344.739 22.161 344.807 22.6136 344.943 23.0114C345.083 23.4091 345.29 23.7235 345.562 23.9545C345.839 24.1818 346.18 24.2955 346.585 24.2955ZM346.574 29.267C346.214 29.267 345.905 29.1477 345.648 28.9091C345.39 28.6705 345.261 28.3826 345.261 28.0455C345.261 27.7083 345.39 27.4205 345.648 27.1818C345.905 26.9432 346.214 26.8239 346.574 26.8239C346.934 26.8239 347.241 26.9432 347.494 27.1818C347.752 27.4205 347.881 27.7083 347.881 28.0455C347.881 28.3826 347.752 28.6705 347.494 28.9091C347.241 29.1477 346.934 29.267 346.574 29.267ZM354.704 20.9545V26H352.283V17.2727H354.59V18.8125H354.692C354.885 18.3049 355.209 17.9034 355.664 17.608C356.118 17.3087 356.67 17.1591 357.317 17.1591C357.923 17.1591 358.452 17.2917 358.902 17.5568C359.353 17.822 359.704 18.2008 359.954 18.6932C360.204 19.1818 360.329 19.7652 360.329 20.4432V26H357.908V20.875C357.912 20.3409 357.776 19.9242 357.499 19.625C357.223 19.322 356.842 19.1705 356.357 19.1705C356.031 19.1705 355.743 19.2405 355.493 19.3807C355.247 19.5208 355.054 19.7254 354.914 19.9943C354.777 20.2595 354.707 20.5795 354.704 20.9545ZM264.328 50.1705C263.434 50.1705 262.665 49.9811 262.021 49.6023C261.381 49.2197 260.889 48.6894 260.544 48.0114C260.203 47.3333 260.033 46.553 260.033 45.6705C260.033 44.7765 260.205 43.9924 260.55 43.3182C260.898 42.6402 261.393 42.1117 262.033 41.733C262.673 41.3504 263.434 41.1591 264.317 41.1591C265.078 41.1591 265.745 41.2973 266.317 41.5739C266.889 41.8504 267.341 42.2386 267.675 42.7386C268.008 43.2386 268.192 43.8258 268.226 44.5H265.942C265.877 44.0644 265.707 43.714 265.431 43.4489C265.158 43.1799 264.8 43.0455 264.357 43.0455C263.982 43.0455 263.654 43.1477 263.374 43.3523C263.097 43.553 262.881 43.8466 262.726 44.233C262.571 44.6193 262.493 45.0871 262.493 45.6364C262.493 46.1932 262.569 46.6667 262.72 47.0568C262.876 47.447 263.093 47.7443 263.374 47.9489C263.654 48.1534 263.982 48.2557 264.357 48.2557C264.633 48.2557 264.881 48.1989 265.101 48.0852C265.324 47.9716 265.508 47.8068 265.652 47.5909C265.8 47.3712 265.896 47.108 265.942 46.8011H268.226C268.188 47.4678 268.006 48.0549 267.681 48.5625C267.359 49.0663 266.913 49.4602 266.345 49.7443C265.777 50.0284 265.105 50.1705 264.328 50.1705ZM272.036 44.9545V50H269.616V38.3636H271.968V42.8125H272.07C272.267 42.2973 272.585 41.8939 273.025 41.6023C273.464 41.3068 274.015 41.1591 274.678 41.1591C275.284 41.1591 275.813 41.2917 276.263 41.5568C276.718 41.8182 277.07 42.1951 277.32 42.6875C277.574 43.1761 277.699 43.7614 277.695 44.4432V50H275.275V44.875C275.279 44.3371 275.142 43.9186 274.866 43.6193C274.593 43.3201 274.21 43.1705 273.718 43.1705C273.388 43.1705 273.097 43.2405 272.843 43.3807C272.593 43.5208 272.396 43.7254 272.252 43.9943C272.112 44.2595 272.04 44.5795 272.036 44.9545ZM285.037 46.2841V41.2727H287.457V50H285.133V48.4148H285.042C284.845 48.9261 284.518 49.3371 284.059 49.6477C283.605 49.9583 283.05 50.1136 282.395 50.1136C281.811 50.1136 281.298 49.9811 280.855 49.7159C280.412 49.4508 280.065 49.0739 279.815 48.5852C279.569 48.0966 279.444 47.5114 279.44 46.8295V41.2727H281.861V46.3977C281.864 46.9129 282.003 47.3201 282.275 47.6193C282.548 47.9186 282.914 48.0682 283.372 48.0682C283.664 48.0682 283.936 48.0019 284.19 47.8693C284.444 47.733 284.648 47.5322 284.804 47.267C284.963 47.0019 285.04 46.6742 285.037 46.2841ZM290.727 53.2727C290.421 53.2727 290.133 53.2481 289.864 53.1989C289.599 53.1534 289.379 53.0947 289.205 53.0227L289.75 51.2159C290.034 51.303 290.29 51.3504 290.517 51.358C290.748 51.3655 290.947 51.3125 291.114 51.1989C291.284 51.0852 291.423 50.892 291.529 50.6193L291.671 50.25L288.54 41.2727H291.085L292.892 47.6818H292.983L294.807 41.2727H297.37L293.977 50.9432C293.815 51.4129 293.593 51.822 293.313 52.1705C293.036 52.5227 292.686 52.7936 292.262 52.983C291.837 53.1761 291.326 53.2727 290.727 53.2727ZM302.144 50.1705C301.246 50.1705 300.474 49.9886 299.826 49.625C299.182 49.2576 298.686 48.7386 298.337 48.0682C297.989 47.3939 297.815 46.5966 297.815 45.6761C297.815 44.7784 297.989 43.9905 298.337 43.3125C298.686 42.6345 299.176 42.1061 299.809 41.7273C300.445 41.3485 301.192 41.1591 302.048 41.1591C302.623 41.1591 303.159 41.2519 303.656 41.4375C304.156 41.6193 304.591 41.8939 304.962 42.2614C305.337 42.6288 305.629 43.0909 305.837 43.6477C306.046 44.2008 306.15 44.8485 306.15 45.5909V46.2557H298.781V44.7557H303.871C303.871 44.4072 303.796 44.0985 303.644 43.8295C303.493 43.5606 303.282 43.3504 303.014 43.1989C302.748 43.0436 302.44 42.9659 302.087 42.9659C301.72 42.9659 301.394 43.0511 301.11 43.2216C300.83 43.3883 300.61 43.6136 300.451 43.8977C300.292 44.178 300.21 44.4905 300.207 44.8352V46.2614C300.207 46.6932 300.286 47.0663 300.445 47.3807C300.608 47.6951 300.837 47.9375 301.133 48.108C301.428 48.2784 301.779 48.3636 302.184 48.3636C302.453 48.3636 302.699 48.3258 302.923 48.25C303.146 48.1742 303.337 48.0606 303.496 47.9091C303.656 47.7576 303.777 47.572 303.86 47.3523L306.099 47.5C305.985 48.0379 305.752 48.5076 305.4 48.9091C305.051 49.3068 304.601 49.6174 304.048 49.8409C303.498 50.0606 302.864 50.1705 302.144 50.1705ZM303.133 40.2273L301.991 38.8409L300.849 40.2273H298.786V40.1477L301.087 37.6477H302.889L305.195 40.1477V40.2273H303.133ZM309.99 44.9545V50H307.569V41.2727H309.876V42.8125H309.979C310.172 42.3049 310.496 41.9034 310.95 41.608C311.405 41.3087 311.956 41.1591 312.604 41.1591C313.21 41.1591 313.738 41.2917 314.189 41.5568C314.64 41.822 314.99 42.2008 315.24 42.6932C315.49 43.1818 315.615 43.7652 315.615 44.4432V50H313.194V44.875C313.198 44.3409 313.062 43.9242 312.785 43.625C312.509 43.322 312.128 43.1705 311.643 43.1705C311.318 43.1705 311.03 43.2405 310.78 43.3807C310.533 43.5208 310.34 43.7254 310.2 43.9943C310.064 44.2595 309.994 44.5795 309.99 44.9545ZM329.042 41.2727L325.991 50H323.264L320.212 41.2727H322.769L324.582 47.517H324.673L326.48 41.2727H329.042ZM330.121 50V41.2727H332.541V50H330.121ZM331.337 40.1477C330.977 40.1477 330.668 40.0284 330.41 39.7898C330.157 39.5473 330.03 39.2576 330.03 38.9205C330.03 38.5871 330.157 38.3011 330.41 38.0625C330.668 37.8201 330.977 37.6989 331.337 37.6989C331.696 37.6989 332.003 37.8201 332.257 38.0625C332.515 38.3011 332.643 38.5871 332.643 38.9205C332.643 39.2576 332.515 39.5473 332.257 39.7898C332.003 40.0284 331.696 40.1477 331.337 40.1477ZM338.297 50.1705C337.4 50.1705 336.627 49.9886 335.979 49.625C335.335 49.2576 334.839 48.7386 334.491 48.0682C334.142 47.3939 333.968 46.5966 333.968 45.6761C333.968 44.7784 334.142 43.9905 334.491 43.3125C334.839 42.6345 335.33 42.1061 335.962 41.7273C336.598 41.3485 337.345 41.1591 338.201 41.1591C338.776 41.1591 339.312 41.2519 339.809 41.4375C340.309 41.6193 340.744 41.8939 341.116 42.2614C341.491 42.6288 341.782 43.0909 341.991 43.6477C342.199 44.2008 342.303 44.8485 342.303 45.5909V46.2557H334.934V44.7557H340.025C340.025 44.4072 339.949 44.0985 339.797 43.8295C339.646 43.5606 339.436 43.3504 339.167 43.1989C338.901 43.0436 338.593 42.9659 338.241 42.9659C337.873 42.9659 337.547 43.0511 337.263 43.2216C336.983 43.3883 336.763 43.6136 336.604 43.8977C336.445 44.178 336.364 44.4905 336.36 44.8352V46.2614C336.36 46.6932 336.439 47.0663 336.598 47.3807C336.761 47.6951 336.991 47.9375 337.286 48.108C337.581 48.2784 337.932 48.3636 338.337 48.3636C338.606 48.3636 338.852 48.3258 339.076 48.25C339.299 48.1742 339.491 48.0606 339.65 47.9091C339.809 47.7576 339.93 47.572 340.013 47.3523L342.252 47.5C342.138 48.0379 341.905 48.5076 341.553 48.9091C341.205 49.3068 340.754 49.6174 340.201 49.8409C339.651 50.0606 339.017 50.1705 338.297 50.1705ZM339.286 40.2273L338.144 38.8409L337.002 40.2273H334.939V40.1477L337.241 37.6477H339.042L341.348 40.1477V40.2273H339.286ZM346.143 44.9545V50H343.723V41.2727H346.029V42.8125H346.132C346.325 42.3049 346.649 41.9034 347.103 41.608C347.558 41.3087 348.109 41.1591 348.757 41.1591C349.363 41.1591 349.891 41.2917 350.342 41.5568C350.793 41.822 351.143 42.2008 351.393 42.6932C351.643 43.1818 351.768 43.7652 351.768 44.4432V50H349.348V44.875C349.351 44.3409 349.215 43.9242 348.938 43.625C348.662 43.322 348.281 43.1705 347.796 43.1705C347.471 43.1705 347.183 43.2405 346.933 43.3807C346.687 43.5208 346.493 43.7254 346.353 43.9943C346.217 44.2595 346.147 44.5795 346.143 44.9545Z" fill="white"/>
<defs>
<filter id="filter0_d_15855_50167" x="0" y="62" width="366" height="80" filterUnits="userSpaceOnUse" color-interpolation-filters="sRGB">
<feFlood flood-opacity="0" result="BackgroundImageFix"/>
<feColorMatrix in="SourceAlpha" type="matrix" values="0 0 0 0 0 0 0 0 0 0 0 0 0 0 0 0 0 0 127 0" result="hardAlpha"/>
<feOffset/>
<feGaussianBlur stdDeviation="2"/>
<feComposite in2="hardAlpha" operator="out"/>
<feColorMatrix type="matrix" values="0 0 0 0 0 0 0 0 0 0 0 0 0 0 0 0 0 0 0.12 0"/>
<feBlend mode="normal" in2="BackgroundImageFix" result="effect1_dropShadow_15855_50167"/>
<feBlend mode="normal" in="SourceGraphic" in2="effect1_dropShadow_15855_50167" result="shape"/>
</filter>
</defs>
</svg>
