<svg width="288" height="84" viewBox="0 0 288 84" fill="none" xmlns="http://www.w3.org/2000/svg">
<rect x="0.5" y="53.7397" width="99" height="29" rx="3.5" stroke="white" stroke-linecap="round" stroke-linejoin="round" stroke-dasharray="4 4"/>
<path d="M123.278 19.6772H120.79C120.744 19.3553 120.652 19.0693 120.511 18.8193C120.371 18.5655 120.191 18.3496 119.972 18.1716C119.752 17.9935 119.498 17.8572 119.21 17.7625C118.926 17.6678 118.617 17.6204 118.284 17.6204C117.682 17.6204 117.157 17.77 116.71 18.0693C116.263 18.3647 115.917 18.7966 115.67 19.3647C115.424 19.9291 115.301 20.6147 115.301 21.4216C115.301 22.2511 115.424 22.9481 115.67 23.5125C115.92 24.0769 116.269 24.503 116.716 24.7909C117.163 25.0788 117.68 25.2227 118.267 25.2227C118.597 25.2227 118.902 25.1791 119.182 25.092C119.466 25.0049 119.718 24.878 119.938 24.7113C120.157 24.5409 120.339 24.3344 120.483 24.092C120.631 23.8496 120.733 23.5731 120.79 23.2625L123.278 23.2738C123.214 23.8079 123.053 24.3231 122.795 24.8193C122.542 25.3117 122.199 25.753 121.767 26.1432C121.339 26.5295 120.828 26.8363 120.233 27.0636C119.642 27.2871 118.973 27.3988 118.227 27.3988C117.189 27.3988 116.261 27.164 115.443 26.6943C114.629 26.2246 113.985 25.5447 113.511 24.6545C113.042 23.7644 112.807 22.6867 112.807 21.4216C112.807 20.1526 113.045 19.0731 113.523 18.1829C114 17.2928 114.648 16.6147 115.466 16.1488C116.284 15.6791 117.205 15.4443 118.227 15.4443C118.902 15.4443 119.527 15.539 120.102 15.7284C120.682 15.9178 121.195 16.1943 121.642 16.5579C122.089 16.9178 122.453 17.3591 122.733 17.8818C123.017 18.4045 123.199 19.003 123.278 19.6772ZM127.258 22.1943V27.2397H124.837V15.6034H127.189V20.0522H127.292C127.489 19.5371 127.807 19.1337 128.246 18.842C128.686 18.5466 129.237 18.3988 129.9 18.3988C130.506 18.3988 131.034 18.5314 131.485 18.7966C131.939 19.0579 132.292 19.4348 132.542 19.9272C132.795 20.4159 132.92 21.0011 132.917 21.6829V27.2397H130.496V22.1147C130.5 21.5769 130.364 21.1583 130.087 20.8591C129.814 20.5598 129.432 20.4102 128.939 20.4102C128.61 20.4102 128.318 20.4803 128.064 20.6204C127.814 20.7606 127.617 20.9651 127.474 21.2341C127.333 21.4992 127.261 21.8193 127.258 22.1943ZM137.15 27.4045C136.593 27.4045 136.097 27.3079 135.662 27.1147C135.226 26.9178 134.881 26.628 134.627 26.2454C134.377 25.8591 134.252 25.378 134.252 24.8022C134.252 24.3174 134.341 23.9102 134.519 23.5807C134.698 23.2511 134.94 22.986 135.247 22.7852C135.554 22.5844 135.902 22.4329 136.292 22.3307C136.686 22.2284 137.099 22.1564 137.531 22.1147C138.038 22.0617 138.448 22.0125 138.758 21.967C139.069 21.9178 139.294 21.8458 139.434 21.7511C139.574 21.6564 139.644 21.5163 139.644 21.3307V21.2966C139.644 20.9367 139.531 20.6583 139.304 20.4613C139.08 20.2644 138.762 20.1659 138.349 20.1659C137.913 20.1659 137.567 20.2625 137.309 20.4557C137.052 20.645 136.881 20.8837 136.798 21.1716L134.559 20.9897C134.673 20.4594 134.896 20.0011 135.23 19.6147C135.563 19.2246 135.993 18.9254 136.519 18.717C137.05 18.5049 137.663 18.3988 138.36 18.3988C138.845 18.3988 139.309 18.4557 139.752 18.5693C140.199 18.6829 140.595 18.8591 140.94 19.0977C141.288 19.3363 141.563 19.6432 141.764 20.0182C141.965 20.3894 142.065 20.8344 142.065 21.3534V27.2397H139.769V26.0295H139.701C139.561 26.3022 139.374 26.5428 139.139 26.7511C138.904 26.9557 138.622 27.1166 138.292 27.2341C137.963 27.3477 137.582 27.4045 137.15 27.4045ZM137.843 25.7341C138.199 25.7341 138.514 25.664 138.787 25.5238C139.059 25.3799 139.273 25.1867 139.429 24.9443C139.584 24.7019 139.662 24.4272 139.662 24.1204V23.1943C139.586 23.2435 139.482 23.289 139.349 23.3307C139.22 23.3685 139.074 23.4045 138.912 23.4386C138.749 23.4689 138.586 23.4973 138.423 23.5238C138.26 23.5466 138.112 23.5674 137.98 23.5863C137.696 23.628 137.448 23.6943 137.235 23.7852C137.023 23.8761 136.859 23.9992 136.741 24.1545C136.624 24.306 136.565 24.4954 136.565 24.7227C136.565 25.0522 136.684 25.3041 136.923 25.4784C137.165 25.6488 137.472 25.7341 137.843 25.7341ZM138.355 30.5068C137.995 30.5068 137.686 30.3875 137.429 30.1488C137.171 29.9102 137.042 29.6223 137.042 29.2852C137.042 28.9481 137.171 28.6602 137.429 28.4216C137.686 28.1829 137.995 28.0636 138.355 28.0636C138.715 28.0636 139.021 28.1829 139.275 28.4216C139.533 28.6602 139.662 28.9481 139.662 29.2852C139.662 29.6223 139.533 29.9102 139.275 30.1488C139.021 30.3875 138.715 30.5068 138.355 30.5068ZM143.783 27.2397V18.5125H146.09V20.0522H146.192C146.374 19.5409 146.677 19.1375 147.101 18.842C147.525 18.5466 148.033 18.3988 148.624 18.3988C149.222 18.3988 149.732 18.5485 150.152 18.8477C150.573 19.1432 150.853 19.5447 150.993 20.0522H151.084C151.262 19.5522 151.584 19.1526 152.05 18.8534C152.52 18.5504 153.074 18.3988 153.715 18.3988C154.529 18.3988 155.19 18.6583 155.698 19.1772C156.209 19.6924 156.465 20.4235 156.465 21.3704V27.2397H154.05V21.8477C154.05 21.3629 153.921 20.9992 153.663 20.7568C153.406 20.5144 153.084 20.3932 152.698 20.3932C152.258 20.3932 151.915 20.5333 151.669 20.8136C151.423 21.0901 151.3 21.4557 151.3 21.9102V27.2397H148.953V21.7966C148.953 21.3685 148.83 21.0276 148.584 20.7738C148.341 20.52 148.021 20.3932 147.624 20.3932C147.355 20.3932 147.112 20.4613 146.896 20.5977C146.684 20.7303 146.516 20.9178 146.391 21.1602C146.266 21.3988 146.203 21.6791 146.203 22.0011V27.2397H143.783ZM161.805 27.2397V15.6034H164.226V19.9784H164.299C164.405 19.7435 164.559 19.5049 164.76 19.2625C164.964 19.0163 165.229 18.8117 165.555 18.6488C165.885 18.4822 166.294 18.3988 166.782 18.3988C167.419 18.3988 168.006 18.5655 168.544 18.8988C169.082 19.2284 169.512 19.7265 169.834 20.3932C170.155 21.056 170.316 21.8875 170.316 22.8875C170.316 23.861 170.159 24.6829 169.845 25.3534C169.534 26.02 169.11 26.5257 168.572 26.8704C168.038 27.2113 167.44 27.3818 166.777 27.3818C166.307 27.3818 165.907 27.3041 165.578 27.1488C165.252 26.9935 164.985 26.7985 164.777 26.5636C164.568 26.325 164.409 26.0844 164.299 25.842H164.191V27.2397H161.805ZM164.174 22.8761C164.174 23.395 164.246 23.8477 164.39 24.2341C164.534 24.6204 164.743 24.9216 165.015 25.1375C165.288 25.3496 165.62 25.4557 166.01 25.4557C166.404 25.4557 166.737 25.3477 167.01 25.1318C167.282 24.9121 167.489 24.6091 167.629 24.2227C167.773 23.8325 167.845 23.3837 167.845 22.8761C167.845 22.3723 167.775 21.9291 167.635 21.5466C167.495 21.164 167.288 20.8647 167.015 20.6488C166.743 20.4329 166.407 20.325 166.01 20.325C165.616 20.325 165.282 20.4291 165.01 20.6375C164.741 20.8458 164.534 21.1413 164.39 21.5238C164.246 21.9064 164.174 22.3572 164.174 22.8761ZM174.26 27.4045C173.703 27.4045 173.207 27.3079 172.772 27.1147C172.336 26.9178 171.991 26.628 171.737 26.2454C171.487 25.8591 171.362 25.378 171.362 24.8022C171.362 24.3174 171.451 23.9102 171.629 23.5807C171.808 23.2511 172.05 22.986 172.357 22.7852C172.664 22.5844 173.012 22.4329 173.402 22.3307C173.796 22.2284 174.209 22.1564 174.641 22.1147C175.148 22.0617 175.558 22.0125 175.868 21.967C176.179 21.9178 176.404 21.8458 176.544 21.7511C176.684 21.6564 176.754 21.5163 176.754 21.3307V21.2966C176.754 20.9367 176.641 20.6583 176.414 20.4613C176.19 20.2644 175.872 20.1659 175.459 20.1659C175.023 20.1659 174.677 20.2625 174.419 20.4557C174.162 20.645 173.991 20.8837 173.908 21.1716L171.669 20.9897C171.783 20.4594 172.006 20.0011 172.34 19.6147C172.673 19.2246 173.103 18.9254 173.629 18.717C174.16 18.5049 174.773 18.3988 175.47 18.3988C175.955 18.3988 176.419 18.4557 176.862 18.5693C177.309 18.6829 177.705 18.8591 178.05 19.0977C178.398 19.3363 178.673 19.6432 178.874 20.0182C179.075 20.3894 179.175 20.8344 179.175 21.3534V27.2397H176.879V26.0295H176.811C176.671 26.3022 176.484 26.5428 176.249 26.7511C176.014 26.9557 175.732 27.1166 175.402 27.2341C175.073 27.3477 174.692 27.4045 174.26 27.4045ZM174.953 25.7341C175.309 25.7341 175.624 25.664 175.897 25.5238C176.169 25.3799 176.383 25.1867 176.539 24.9443C176.694 24.7019 176.772 24.4272 176.772 24.1204V23.1943C176.696 23.2435 176.592 23.289 176.459 23.3307C176.33 23.3685 176.184 23.4045 176.022 23.4386C175.859 23.4689 175.696 23.4973 175.533 23.5238C175.37 23.5466 175.222 23.5674 175.09 23.5863C174.806 23.628 174.558 23.6943 174.345 23.7852C174.133 23.8761 173.969 23.9992 173.851 24.1545C173.734 24.306 173.675 24.4954 173.675 24.7227C173.675 25.0522 173.794 25.3041 174.033 25.4784C174.275 25.6488 174.582 25.7341 174.953 25.7341ZM172.601 17.5579L174.891 15.7909H176.198L178.499 17.5579H176.754L175.556 16.6034L174.34 17.5579H172.601ZM177.902 16.5579L179.232 14.4272H181.107L179.272 16.5579H177.902ZM185.535 18.5125V20.3307H180.279V18.5125H185.535ZM181.472 16.4216H183.893V24.5579C183.893 24.7814 183.927 24.9557 183.995 25.0807C184.063 25.2019 184.158 25.2871 184.279 25.3363C184.404 25.3856 184.548 25.4102 184.711 25.4102C184.825 25.4102 184.938 25.4007 185.052 25.3818C185.166 25.3591 185.253 25.342 185.313 25.3307L185.694 27.1318C185.573 27.1697 185.402 27.2132 185.183 27.2625C184.963 27.3155 184.696 27.3477 184.381 27.3591C183.798 27.3818 183.287 27.3041 182.847 27.1261C182.412 26.9481 182.073 26.6716 181.83 26.2966C181.588 25.9216 181.469 25.4481 181.472 24.8761V16.4216ZM192.688 24.7284L192.694 21.825H193.046L195.841 18.5125H198.62L194.864 22.8988H194.29L192.688 24.7284ZM190.495 27.2397V15.6034H192.915V27.2397H190.495ZM195.949 27.2397L193.381 23.4386L194.995 21.7284L198.784 27.2397H195.949ZM201.282 30.5125C200.975 30.5125 200.687 30.4879 200.418 30.4386C200.153 30.3932 199.934 30.3344 199.759 30.2625L200.305 28.4557C200.589 28.5428 200.845 28.5901 201.072 28.5977C201.303 28.6053 201.502 28.5522 201.668 28.4386C201.839 28.325 201.977 28.1318 202.083 27.8591L202.225 27.4897L199.095 18.5125H201.64L203.447 24.9216H203.538L205.362 18.5125H207.924L204.532 28.1829C204.369 28.6526 204.148 29.0617 203.867 29.4102C203.591 29.7625 203.24 30.0333 202.816 30.2227C202.392 30.4159 201.881 30.5125 201.282 30.5125ZM202.657 17.3875L200.924 14.8022H203.157L204.367 17.3875H202.657ZM214.739 24.7284L214.745 21.825H215.097L217.893 18.5125H220.671L216.915 22.8988H216.341L214.739 24.7284ZM212.546 27.2397V15.6034H214.966V27.2397H212.546ZM218 27.2397L215.432 23.4386L217.046 21.7284L220.836 27.2397H218ZM224.119 22.1943V27.2397H221.698V15.6034H224.051V20.0522H224.153C224.35 19.5371 224.668 19.1337 225.107 18.842C225.547 18.5466 226.098 18.3988 226.761 18.3988C227.367 18.3988 227.895 18.5314 228.346 18.7966C228.801 19.0579 229.153 19.4348 229.403 19.9272C229.657 20.4159 229.782 21.0011 229.778 21.6829V27.2397H227.357V22.1147C227.361 21.5769 227.225 21.1583 226.948 20.8591C226.676 20.5598 226.293 20.4102 225.801 20.4102C225.471 20.4102 225.179 20.4803 224.926 20.6204C224.676 20.7606 224.479 20.9651 224.335 21.2341C224.195 21.4992 224.123 21.8193 224.119 22.1943ZM237.119 23.5238V18.5125H239.54V27.2397H237.216V25.6545H237.125C236.928 26.1659 236.6 26.5769 236.142 26.8875C235.688 27.1981 235.133 27.3534 234.477 27.3534C233.894 27.3534 233.381 27.2208 232.938 26.9557C232.494 26.6905 232.148 26.3136 231.898 25.825C231.652 25.3363 231.527 24.7511 231.523 24.0693V18.5125H233.943V23.6375C233.947 24.1526 234.085 24.5598 234.358 24.8591C234.631 25.1583 234.996 25.3079 235.455 25.3079C235.746 25.3079 236.019 25.2416 236.273 25.1091C236.527 24.9727 236.731 24.7719 236.886 24.5068C237.046 24.2416 237.123 23.914 237.119 23.5238ZM243.736 22.1943V27.2397H241.316V18.5125H243.623V20.0522H243.725C243.918 19.5447 244.242 19.1432 244.697 18.8477C245.151 18.5485 245.702 18.3988 246.35 18.3988C246.956 18.3988 247.484 18.5314 247.935 18.7966C248.386 19.0617 248.736 19.4405 248.986 19.9329C249.236 20.4216 249.361 21.0049 249.361 21.6829V27.2397H246.941V22.1147C246.945 21.5807 246.808 21.164 246.532 20.8647C246.255 20.5617 245.875 20.4102 245.39 20.4102C245.064 20.4102 244.776 20.4803 244.526 20.6204C244.28 20.7606 244.087 20.9651 243.947 21.2341C243.81 21.4992 243.74 21.8193 243.736 22.1943ZM255.041 30.6943C254.257 30.6943 253.584 30.5863 253.024 30.3704C252.467 30.1583 252.024 29.8685 251.694 29.5011C251.365 29.1337 251.151 28.7208 251.052 28.2625L253.291 27.9613C253.359 28.1356 253.467 28.2985 253.615 28.45C253.762 28.6015 253.958 28.7227 254.2 28.8136C254.446 28.9083 254.745 28.9557 255.098 28.9557C255.624 28.9557 256.058 28.8269 256.399 28.5693C256.744 28.3155 256.916 27.8894 256.916 27.2909V25.6943H256.814C256.708 25.9367 256.548 26.1659 256.336 26.3818C256.124 26.5977 255.851 26.7738 255.518 26.9102C255.185 27.0466 254.787 27.1147 254.325 27.1147C253.67 27.1147 253.073 26.9632 252.535 26.6602C252.001 26.3534 251.575 25.8856 251.257 25.2568C250.942 24.6242 250.785 23.825 250.785 22.8591C250.785 21.8704 250.946 21.0447 251.268 20.3818C251.59 19.7189 252.018 19.2227 252.552 18.8932C253.09 18.5636 253.679 18.3988 254.319 18.3988C254.808 18.3988 255.217 18.4822 255.547 18.6488C255.876 18.8117 256.141 19.0163 256.342 19.2625C256.547 19.5049 256.704 19.7435 256.814 19.9784H256.904V18.5125H259.308V27.325C259.308 28.0674 259.126 28.6886 258.762 29.1886C258.399 29.6886 257.895 30.0636 257.251 30.3136C256.611 30.5674 255.874 30.6943 255.041 30.6943ZM255.092 25.2966C255.482 25.2966 255.812 25.2 256.081 25.0068C256.353 24.8098 256.562 24.5295 256.706 24.1659C256.853 23.7985 256.927 23.3591 256.927 22.8477C256.927 22.3363 256.855 21.8932 256.711 21.5182C256.567 21.1394 256.359 20.8458 256.086 20.6375C255.814 20.4291 255.482 20.325 255.092 20.325C254.694 20.325 254.359 20.4329 254.086 20.6488C253.814 20.861 253.607 21.1564 253.467 21.5352C253.327 21.914 253.257 22.3515 253.257 22.8477C253.257 23.3515 253.327 23.7871 253.467 24.1545C253.611 24.5182 253.817 24.8004 254.086 25.0011C254.359 25.1981 254.694 25.2966 255.092 25.2966ZM268.549 30.6943C267.765 30.6943 267.093 30.5863 266.532 30.3704C265.975 30.1583 265.532 29.8685 265.202 29.5011C264.873 29.1337 264.659 28.7208 264.56 28.2625L266.799 27.9613C266.867 28.1356 266.975 28.2985 267.123 28.45C267.271 28.6015 267.466 28.7227 267.708 28.8136C267.954 28.9083 268.254 28.9557 268.606 28.9557C269.132 28.9557 269.566 28.8269 269.907 28.5693C270.252 28.3155 270.424 27.8894 270.424 27.2909V25.6943H270.322C270.216 25.9367 270.057 26.1659 269.844 26.3818C269.632 26.5977 269.36 26.7738 269.026 26.9102C268.693 27.0466 268.295 27.1147 267.833 27.1147C267.178 27.1147 266.581 26.9632 266.043 26.6602C265.509 26.3534 265.083 25.8856 264.765 25.2568C264.45 24.6242 264.293 23.825 264.293 22.8591C264.293 21.8704 264.454 21.0447 264.776 20.3818C265.098 19.7189 265.526 19.2227 266.06 18.8932C266.598 18.5636 267.187 18.3988 267.827 18.3988C268.316 18.3988 268.725 18.4822 269.055 18.6488C269.384 18.8117 269.649 19.0163 269.85 19.2625C270.055 19.5049 270.212 19.7435 270.322 19.9784H270.413V18.5125H272.816V27.325C272.816 28.0674 272.634 28.6886 272.271 29.1886C271.907 29.6886 271.403 30.0636 270.759 30.3136C270.119 30.5674 269.382 30.6943 268.549 30.6943ZM268.6 25.2966C268.99 25.2966 269.32 25.2 269.589 25.0068C269.861 24.8098 270.07 24.5295 270.214 24.1659C270.361 23.7985 270.435 23.3591 270.435 22.8477C270.435 22.3363 270.363 21.8932 270.219 21.5182C270.075 21.1394 269.867 20.8458 269.594 20.6375C269.322 20.4291 268.99 20.325 268.6 20.325C268.202 20.325 267.867 20.4329 267.594 20.6488C267.322 20.861 267.115 21.1564 266.975 21.5352C266.835 21.914 266.765 22.3515 266.765 22.8477C266.765 23.3515 266.835 23.7871 266.975 24.1545C267.119 24.5182 267.325 24.8004 267.594 25.0011C267.867 25.1981 268.202 25.2966 268.6 25.2966ZM274.582 27.2397V18.5125H277.003V27.2397H274.582ZM275.798 17.3875C275.438 17.3875 275.13 17.2682 274.872 17.0295C274.618 16.7871 274.491 16.4973 274.491 16.1602C274.491 15.8269 274.618 15.5409 274.872 15.3022C275.13 15.0598 275.438 14.9386 275.798 14.9386C276.158 14.9386 276.465 15.0598 276.719 15.3022C276.976 15.5409 277.105 15.8269 277.105 16.1602C277.105 16.4973 276.976 16.7871 276.719 17.0295C276.465 17.2682 276.158 17.3875 275.798 17.3875ZM286.486 18.0011H287.929C287.929 18.9632 287.7 19.7132 287.242 20.2511C286.783 20.7852 286.047 21.0522 285.032 21.0522V20.0863C285.433 20.0863 285.738 20.003 285.946 19.8363C286.155 19.6659 286.297 19.4254 286.372 19.1147C286.448 18.8041 286.486 18.4329 286.486 18.0011ZM282.725 27.4102C281.842 27.4102 281.079 27.2227 280.435 26.8477C279.795 26.4689 279.3 25.9424 278.952 25.2682C278.604 24.5901 278.429 23.8041 278.429 22.9102C278.429 22.0087 278.604 21.2208 278.952 20.5466C279.3 19.8685 279.795 19.342 280.435 18.967C281.079 18.5882 281.842 18.3988 282.725 18.3988C283.607 18.3988 284.369 18.5882 285.009 18.967C285.653 19.342 286.149 19.8685 286.497 20.5466C286.846 21.2208 287.02 22.0087 287.02 22.9102C287.02 23.8041 286.846 24.5901 286.497 25.2682C286.149 25.9424 285.653 26.4689 285.009 26.8477C284.369 27.2227 283.607 27.4102 282.725 27.4102ZM282.736 25.5352C283.138 25.5352 283.473 25.4216 283.742 25.1943C284.011 24.9632 284.213 24.6488 284.35 24.2511C284.49 23.8534 284.56 23.4007 284.56 22.8932C284.56 22.3856 284.49 21.9329 284.35 21.5352C284.213 21.1375 284.011 20.8231 283.742 20.592C283.473 20.361 283.138 20.2454 282.736 20.2454C282.331 20.2454 281.99 20.361 281.713 20.592C281.441 20.8231 281.234 21.1375 281.094 21.5352C280.958 21.9329 280.889 22.3856 280.889 22.8932C280.889 23.4007 280.958 23.8534 281.094 24.2511C281.234 24.6488 281.441 24.9632 281.713 25.1943C281.99 25.4216 282.331 25.5352 282.736 25.5352ZM281.884 17.3875L280.151 14.8022H282.384L283.594 17.3875H281.884ZM117.608 42.5125V44.3307H112.352V42.5125H117.608ZM113.545 40.4216H115.966V48.5579C115.966 48.7814 116 48.9557 116.068 49.0807C116.136 49.2019 116.231 49.2871 116.352 49.3363C116.477 49.3856 116.621 49.4102 116.784 49.4102C116.898 49.4102 117.011 49.4007 117.125 49.3818C117.239 49.3591 117.326 49.342 117.386 49.3307L117.767 51.1318C117.646 51.1697 117.475 51.2132 117.256 51.2625C117.036 51.3155 116.769 51.3477 116.455 51.3591C115.871 51.3818 115.36 51.3041 114.92 51.1261C114.485 50.9481 114.146 50.6716 113.903 50.2966C113.661 49.9216 113.542 49.4481 113.545 48.8761V40.4216ZM119.025 51.2397V42.5125H121.371V44.0352H121.462C121.621 43.4935 121.888 43.0844 122.263 42.8079C122.638 42.5276 123.07 42.3875 123.559 42.3875C123.68 42.3875 123.811 42.395 123.951 42.4102C124.091 42.4254 124.214 42.4462 124.32 42.4727V44.6204C124.206 44.5863 124.049 44.556 123.849 44.5295C123.648 44.503 123.464 44.4897 123.297 44.4897C122.941 44.4897 122.623 44.5674 122.343 44.7227C122.066 44.8742 121.847 45.0863 121.684 45.3591C121.525 45.6318 121.445 45.9462 121.445 46.3022V51.2397H119.025ZM128.948 51.4102C128.066 51.4102 127.303 51.2227 126.659 50.8477C126.019 50.4689 125.524 49.9424 125.176 49.2682C124.827 48.5901 124.653 47.8041 124.653 46.9102C124.653 46.0087 124.827 45.2208 125.176 44.5466C125.524 43.8685 126.019 43.342 126.659 42.967C127.303 42.5882 128.066 42.3988 128.948 42.3988C129.831 42.3988 130.592 42.5882 131.233 42.967C131.876 43.342 132.373 43.8685 132.721 44.5466C133.07 45.2208 133.244 46.0087 133.244 46.9102C133.244 47.8041 133.07 48.5901 132.721 49.2682C132.373 49.9424 131.876 50.4689 131.233 50.8477C130.592 51.2227 129.831 51.4102 128.948 51.4102ZM128.96 49.5352C129.361 49.5352 129.697 49.4216 129.966 49.1943C130.234 48.9632 130.437 48.6488 130.573 48.2511C130.714 47.8534 130.784 47.4007 130.784 46.8932C130.784 46.3856 130.714 45.9329 130.573 45.5352C130.437 45.1375 130.234 44.8231 129.966 44.592C129.697 44.361 129.361 44.2454 128.96 44.2454C128.555 44.2454 128.214 44.361 127.937 44.592C127.664 44.8231 127.458 45.1375 127.318 45.5352C127.181 45.9329 127.113 46.3856 127.113 46.8932C127.113 47.4007 127.181 47.8534 127.318 48.2511C127.458 48.6488 127.664 48.9632 127.937 49.1943C128.214 49.4216 128.555 49.5352 128.96 49.5352ZM125.988 41.5579L128.278 39.7909H129.585L131.886 41.5579H130.142L128.943 40.6034L127.727 41.5579H125.988ZM131.289 40.5579L132.619 38.4272H134.494L132.659 40.5579H131.289ZM137.078 46.1943V51.2397H134.658V42.5125H136.965V44.0522H137.067C137.26 43.5447 137.584 43.1432 138.038 42.8477C138.493 42.5485 139.044 42.3988 139.692 42.3988C140.298 42.3988 140.826 42.5314 141.277 42.7966C141.728 43.0617 142.078 43.4405 142.328 43.9329C142.578 44.4216 142.703 45.0049 142.703 45.6829V51.2397H140.283V46.1147C140.287 45.5807 140.15 45.164 139.874 44.8647C139.597 44.5617 139.216 44.4102 138.732 44.4102C138.406 44.4102 138.118 44.4803 137.868 44.6204C137.622 44.7606 137.429 44.9651 137.288 45.2341C137.152 45.4992 137.082 45.8193 137.078 46.1943ZM148.383 54.6943C147.599 54.6943 146.926 54.5863 146.366 54.3704C145.809 54.1583 145.366 53.8685 145.036 53.5011C144.707 53.1337 144.493 52.7208 144.394 52.2625L146.633 51.9613C146.701 52.1356 146.809 52.2985 146.957 52.45C147.104 52.6015 147.299 52.7227 147.542 52.8136C147.788 52.9083 148.087 52.9557 148.44 52.9557C148.966 52.9557 149.4 52.8269 149.741 52.5693C150.085 52.3155 150.258 51.8894 150.258 51.2909V49.6943H150.155C150.049 49.9367 149.89 50.1659 149.678 50.3818C149.466 50.5977 149.193 50.7738 148.86 50.9102C148.527 51.0466 148.129 51.1147 147.667 51.1147C147.012 51.1147 146.415 50.9632 145.877 50.6602C145.343 50.3534 144.917 49.8856 144.599 49.2568C144.284 48.6242 144.127 47.825 144.127 46.8591C144.127 45.8704 144.288 45.0447 144.61 44.3818C144.932 43.7189 145.36 43.2227 145.894 42.8932C146.432 42.5636 147.021 42.3988 147.661 42.3988C148.15 42.3988 148.559 42.4822 148.888 42.6488C149.218 42.8117 149.483 43.0163 149.684 43.2625C149.888 43.5049 150.046 43.7435 150.155 43.9784H150.246V42.5125H152.65V51.325C152.65 52.0674 152.468 52.6886 152.104 53.1886C151.741 53.6886 151.237 54.0636 150.593 54.3136C149.953 54.5674 149.216 54.6943 148.383 54.6943ZM148.434 49.2966C148.824 49.2966 149.154 49.2 149.423 49.0068C149.695 48.8098 149.904 48.5295 150.048 48.1659C150.195 47.7985 150.269 47.3591 150.269 46.8477C150.269 46.3363 150.197 45.8932 150.053 45.5182C149.909 45.1394 149.701 44.8458 149.428 44.6375C149.155 44.4291 148.824 44.325 148.434 44.325C148.036 44.325 147.701 44.4329 147.428 44.6488C147.155 44.861 146.949 45.1564 146.809 45.5352C146.669 45.914 146.599 46.3515 146.599 46.8477C146.599 47.3515 146.669 47.7871 146.809 48.1545C146.953 48.5182 147.159 48.8004 147.428 49.0011C147.701 49.1981 148.036 49.2966 148.434 49.2966ZM161.175 51.3818C160.512 51.3818 159.912 51.2113 159.374 50.8704C158.84 50.5257 158.415 50.02 158.101 49.3534C157.79 48.6829 157.635 47.861 157.635 46.8875C157.635 45.8875 157.796 45.056 158.118 44.3932C158.44 43.7265 158.868 43.2284 159.402 42.8988C159.94 42.5655 160.529 42.3988 161.169 42.3988C161.658 42.3988 162.065 42.4822 162.391 42.6488C162.72 42.8117 162.986 43.0163 163.186 43.2625C163.391 43.5049 163.546 43.7435 163.652 43.9784H163.726V39.6034H166.141V51.2397H163.754V49.842H163.652C163.539 50.0844 163.378 50.325 163.169 50.5636C162.965 50.7985 162.698 50.9935 162.368 51.1488C162.042 51.3041 161.645 51.3818 161.175 51.3818ZM161.942 49.4557C162.332 49.4557 162.662 49.3496 162.931 49.1375C163.203 48.9216 163.412 48.6204 163.556 48.2341C163.703 47.8477 163.777 47.395 163.777 46.8761C163.777 46.3572 163.705 45.9064 163.561 45.5238C163.417 45.1413 163.209 44.8458 162.936 44.6375C162.664 44.4291 162.332 44.325 161.942 44.325C161.544 44.325 161.209 44.4329 160.936 44.6488C160.664 44.8647 160.457 45.164 160.317 45.5466C160.177 45.9291 160.107 46.3723 160.107 46.8761C160.107 47.3837 160.177 47.8325 160.317 48.2227C160.461 48.6091 160.667 48.9121 160.936 49.1318C161.209 49.3477 161.544 49.4557 161.942 49.4557ZM161.465 41.9159V40.4897H167.135V41.9159H161.465ZM171.948 51.4102C171.05 51.4102 170.278 51.2284 169.63 50.8647C168.986 50.4973 168.49 49.9784 168.141 49.3079C167.793 48.6337 167.619 47.8363 167.619 46.9159C167.619 46.0182 167.793 45.2303 168.141 44.5522C168.49 43.8742 168.98 43.3458 169.613 42.967C170.249 42.5882 170.996 42.3988 171.852 42.3988C172.427 42.3988 172.963 42.4916 173.46 42.6772C173.96 42.8591 174.395 43.1337 174.766 43.5011C175.141 43.8685 175.433 44.3307 175.641 44.8875C175.85 45.4405 175.954 46.0882 175.954 46.8307V47.4954H168.585V45.9954H173.675C173.675 45.6469 173.6 45.3382 173.448 45.0693C173.297 44.8004 173.086 44.5901 172.818 44.4386C172.552 44.2833 172.244 44.2057 171.891 44.2057C171.524 44.2057 171.198 44.2909 170.914 44.4613C170.634 44.628 170.414 44.8534 170.255 45.1375C170.096 45.4178 170.014 45.7303 170.011 46.075V47.5011C170.011 47.9329 170.09 48.306 170.249 48.6204C170.412 48.9348 170.641 49.1772 170.937 49.3477C171.232 49.5182 171.583 49.6034 171.988 49.6034C172.257 49.6034 172.503 49.5655 172.727 49.4897C172.95 49.414 173.141 49.3004 173.3 49.1488C173.46 48.9973 173.581 48.8117 173.664 48.592L175.903 48.7397C175.789 49.2776 175.556 49.7473 175.204 50.1488C174.855 50.5466 174.405 50.8572 173.852 51.0807C173.302 51.3004 172.668 51.4102 171.948 51.4102ZM172.471 39.8534L174.71 41.6204H173.045L171.783 40.6261L170.505 41.6204H168.84L171.079 39.8534H172.471ZM175.227 40.6261H173.971L173.863 39.7738C174.189 39.7587 174.425 39.717 174.573 39.6488C174.721 39.5807 174.795 39.4803 174.795 39.3477C174.795 39.1735 174.702 39.056 174.516 38.9954C174.331 38.9348 174.1 38.9045 173.823 38.9045L173.88 37.9897C174.649 37.9897 175.236 38.1034 175.641 38.3307C176.047 38.5541 176.249 38.8704 176.249 39.2795C176.249 39.5636 176.141 39.7814 175.925 39.9329C175.713 40.0807 175.48 40.1754 175.227 40.217V40.6261ZM184.86 51.4102C183.966 51.4102 183.197 51.2208 182.553 50.842C181.913 50.4594 181.42 49.9291 181.076 49.2511C180.735 48.5731 180.564 47.7928 180.564 46.9102C180.564 46.0163 180.737 45.2322 181.081 44.5579C181.43 43.8799 181.924 43.3515 182.564 42.9727C183.204 42.5901 183.966 42.3988 184.848 42.3988C185.61 42.3988 186.276 42.5371 186.848 42.8136C187.42 43.0901 187.873 43.4784 188.206 43.9784C188.54 44.4784 188.723 45.0655 188.757 45.7397H186.473C186.409 45.3041 186.239 44.9538 185.962 44.6886C185.689 44.4197 185.331 44.2852 184.888 44.2852C184.513 44.2852 184.185 44.3875 183.905 44.592C183.629 44.7928 183.413 45.0863 183.257 45.4727C183.102 45.8591 183.024 46.3269 183.024 46.8761C183.024 47.4329 183.1 47.9064 183.252 48.2966C183.407 48.6867 183.625 48.9841 183.905 49.1886C184.185 49.3932 184.513 49.4954 184.888 49.4954C185.165 49.4954 185.413 49.4386 185.632 49.325C185.856 49.2113 186.04 49.0466 186.184 48.8307C186.331 48.611 186.428 48.3477 186.473 48.0409H188.757C188.72 48.7075 188.538 49.2947 188.212 49.8022C187.89 50.306 187.445 50.7 186.877 50.9841C186.309 51.2682 185.636 51.4102 184.86 51.4102ZM192.568 46.1943V51.2397H190.147V39.6034H192.499V44.0522H192.602C192.799 43.5371 193.117 43.1337 193.556 42.842C193.996 42.5466 194.547 42.3988 195.21 42.3988C195.816 42.3988 196.344 42.5314 196.795 42.7966C197.249 43.0579 197.602 43.4348 197.852 43.9272C198.105 44.4159 198.23 45.0011 198.227 45.6829V51.2397H195.806V46.1147C195.81 45.5769 195.674 45.1583 195.397 44.8591C195.124 44.5598 194.742 44.4102 194.249 44.4102C193.92 44.4102 193.628 44.4803 193.374 44.6204C193.124 44.7606 192.927 44.9651 192.784 45.2341C192.643 45.4992 192.571 45.8193 192.568 46.1943ZM203.915 51.4102C203.032 51.4102 202.269 51.2227 201.625 50.8477C200.985 50.4689 200.49 49.9424 200.142 49.2682C199.794 48.5901 199.619 47.8041 199.619 46.9102C199.619 46.0087 199.794 45.2208 200.142 44.5466C200.49 43.8685 200.985 43.342 201.625 42.967C202.269 42.5882 203.032 42.3988 203.915 42.3988C204.797 42.3988 205.559 42.5882 206.199 42.967C206.843 43.342 207.339 43.8685 207.687 44.5466C208.036 45.2208 208.21 46.0087 208.21 46.9102C208.21 47.8041 208.036 48.5901 207.687 49.2682C207.339 49.9424 206.843 50.4689 206.199 50.8477C205.559 51.2227 204.797 51.4102 203.915 51.4102ZM203.926 49.5352C204.328 49.5352 204.663 49.4216 204.932 49.1943C205.201 48.9632 205.403 48.6488 205.54 48.2511C205.68 47.8534 205.75 47.4007 205.75 46.8932C205.75 46.3856 205.68 45.9329 205.54 45.5352C205.403 45.1375 205.201 44.8231 204.932 44.592C204.663 44.361 204.328 44.2454 203.926 44.2454C203.521 44.2454 203.18 44.361 202.903 44.592C202.631 44.8231 202.424 45.1375 202.284 45.5352C202.148 45.9329 202.079 46.3856 202.079 46.8932C202.079 47.4007 202.148 47.8534 202.284 48.2511C202.424 48.6488 202.631 48.9632 202.903 49.1943C203.18 49.4216 203.521 49.5352 203.926 49.5352ZM203.915 54.5068C203.555 54.5068 203.246 54.3875 202.989 54.1488C202.731 53.9102 202.602 53.6223 202.602 53.2852C202.602 52.9481 202.731 52.6602 202.989 52.4216C203.246 52.1829 203.555 52.0636 203.915 52.0636C204.275 52.0636 204.581 52.1829 204.835 52.4216C205.093 52.6602 205.222 52.9481 205.222 53.2852C205.222 53.6223 205.093 53.9102 204.835 54.1488C204.581 54.3875 204.275 54.5068 203.915 54.5068ZM212.044 46.1943V51.2397H209.624V42.5125H211.931V44.0522H212.033C212.226 43.5447 212.55 43.1432 213.005 42.8477C213.459 42.5485 214.01 42.3988 214.658 42.3988C215.264 42.3988 215.793 42.5314 216.243 42.7966C216.694 43.0617 217.044 43.4405 217.294 43.9329C217.544 44.4216 217.669 45.0049 217.669 45.6829V51.2397H215.249V46.1147C215.253 45.5807 215.116 45.164 214.84 44.8647C214.563 44.5617 214.183 44.4102 213.698 44.4102C213.372 44.4102 213.084 44.4803 212.834 44.6204C212.588 44.7606 212.395 44.9651 212.255 45.2341C212.118 45.4992 212.048 45.8193 212.044 46.1943Z" fill="white"/>
<path d="M104.176 22.2613C104.724 22.3538 105.089 22.8669 104.992 23.4073C104.894 23.9477 104.371 24.3109 103.824 24.2184L104.176 22.2613ZM37.0132 46.1888L38.9619 34.8751L47.917 42.1312L37.0132 46.1888ZM103.824 24.2184C91.0099 22.0545 79.9029 21.7862 70.0291 24.1473C60.1774 26.5031 51.4916 31.4913 43.5317 39.946L42.0593 38.6006C50.2723 29.877 59.3023 24.6723 69.5664 22.2179C79.8085 19.7687 91.2173 20.0729 104.176 22.2613L103.824 24.2184Z" fill="white"/>
</svg>
