<svg width="366" height="174" viewBox="0 0 366 174" fill="none" xmlns="http://www.w3.org/2000/svg">
<path d="M277.391 10.4375H274.902C274.857 10.1155 274.764 9.82955 274.624 9.57955C274.484 9.32576 274.304 9.10985 274.084 8.93182C273.864 8.75379 273.611 8.61742 273.323 8.52273C273.039 8.42803 272.73 8.38068 272.397 8.38068C271.794 8.38068 271.27 8.5303 270.823 8.82955C270.376 9.125 270.029 9.55682 269.783 10.125C269.537 10.6894 269.414 11.375 269.414 12.1818C269.414 13.0114 269.537 13.7083 269.783 14.2727C270.033 14.8371 270.381 15.2633 270.828 15.5511C271.275 15.839 271.792 15.983 272.38 15.983C272.709 15.983 273.014 15.9394 273.294 15.8523C273.578 15.7652 273.83 15.6383 274.05 15.4716C274.27 15.3011 274.452 15.0947 274.595 14.8523C274.743 14.6098 274.845 14.3333 274.902 14.0227L277.391 14.0341C277.327 14.5682 277.166 15.0833 276.908 15.5795C276.654 16.072 276.311 16.5133 275.88 16.9034C275.452 17.2898 274.94 17.5966 274.345 17.8239C273.755 18.0473 273.086 18.1591 272.34 18.1591C271.302 18.1591 270.374 17.9242 269.556 17.4545C268.741 16.9848 268.097 16.3049 267.624 15.4148C267.154 14.5246 266.919 13.447 266.919 12.1818C266.919 10.9129 267.158 9.83333 267.635 8.94318C268.112 8.05303 268.76 7.375 269.578 6.90909C270.397 6.43939 271.317 6.20455 272.34 6.20455C273.014 6.20455 273.639 6.29924 274.215 6.48864C274.794 6.67803 275.308 6.95455 275.755 7.31818C276.202 7.67803 276.565 8.11932 276.845 8.64205C277.13 9.16477 277.311 9.76326 277.391 10.4375ZM281.37 12.9545V18H278.95V6.36364H281.302V10.8125H281.404C281.601 10.2973 281.919 9.89394 282.359 9.60227C282.798 9.30682 283.349 9.15909 284.012 9.15909C284.618 9.15909 285.147 9.29167 285.597 9.55682C286.052 9.81818 286.404 10.1951 286.654 10.6875C286.908 11.1761 287.033 11.7614 287.029 12.4432V18H284.609V12.875C284.613 12.3371 284.476 11.9186 284.2 11.6193C283.927 11.3201 283.544 11.1705 283.052 11.1705C282.722 11.1705 282.431 11.2405 282.177 11.3807C281.927 11.5208 281.73 11.7254 281.586 11.9943C281.446 12.2595 281.374 12.5795 281.37 12.9545ZM291.263 18.1648C290.706 18.1648 290.21 18.0682 289.774 17.875C289.338 17.678 288.994 17.3883 288.74 17.0057C288.49 16.6193 288.365 16.1383 288.365 15.5625C288.365 15.0777 288.454 14.6705 288.632 14.3409C288.81 14.0114 289.052 13.7462 289.359 13.5455C289.666 13.3447 290.015 13.1932 290.405 13.0909C290.799 12.9886 291.212 12.9167 291.643 12.875C292.151 12.822 292.56 12.7727 292.871 12.7273C293.181 12.678 293.407 12.6061 293.547 12.5114C293.687 12.4167 293.757 12.2765 293.757 12.0909V12.0568C293.757 11.697 293.643 11.4186 293.416 11.2216C293.193 11.0246 292.874 10.9261 292.462 10.9261C292.026 10.9261 291.679 11.0227 291.422 11.2159C291.164 11.4053 290.994 11.6439 290.91 11.9318L288.672 11.75C288.785 11.2197 289.009 10.7614 289.342 10.375C289.676 9.98485 290.105 9.68561 290.632 9.47727C291.162 9.26515 291.776 9.15909 292.473 9.15909C292.958 9.15909 293.422 9.21591 293.865 9.32955C294.312 9.44318 294.708 9.61932 295.052 9.85795C295.401 10.0966 295.676 10.4034 295.876 10.7784C296.077 11.1496 296.177 11.5947 296.177 12.1136V18H293.882V16.7898H293.814C293.674 17.0625 293.486 17.303 293.251 17.5114C293.016 17.7159 292.734 17.8769 292.405 17.9943C292.075 18.108 291.694 18.1648 291.263 18.1648ZM291.956 16.4943C292.312 16.4943 292.626 16.4242 292.899 16.2841C293.172 16.1402 293.386 15.947 293.541 15.7045C293.696 15.4621 293.774 15.1875 293.774 14.8807V13.9545C293.698 14.0038 293.594 14.0492 293.462 14.0909C293.333 14.1288 293.187 14.1648 293.024 14.1989C292.861 14.2292 292.698 14.2576 292.535 14.2841C292.373 14.3068 292.225 14.3277 292.092 14.3466C291.808 14.3883 291.56 14.4545 291.348 14.5455C291.136 14.6364 290.971 14.7595 290.854 14.9148C290.736 15.0663 290.677 15.2557 290.677 15.483C290.677 15.8125 290.797 16.0644 291.035 16.2386C291.278 16.4091 291.585 16.4943 291.956 16.4943ZM292.467 21.267C292.107 21.267 291.799 21.1477 291.541 20.9091C291.284 20.6705 291.155 20.3826 291.155 20.0455C291.155 19.7083 291.284 19.4205 291.541 19.1818C291.799 18.9432 292.107 18.8239 292.467 18.8239C292.827 18.8239 293.134 18.9432 293.388 19.1818C293.645 19.4205 293.774 19.7083 293.774 20.0455C293.774 20.3826 293.645 20.6705 293.388 20.9091C293.134 21.1477 292.827 21.267 292.467 21.267ZM297.895 18V9.27273H300.202V10.8125H300.304C300.486 10.3011 300.789 9.89773 301.213 9.60227C301.638 9.30682 302.145 9.15909 302.736 9.15909C303.335 9.15909 303.844 9.30871 304.265 9.60795C304.685 9.90341 304.965 10.3049 305.106 10.8125H305.196C305.374 10.3125 305.696 9.91288 306.162 9.61364C306.632 9.31061 307.187 9.15909 307.827 9.15909C308.641 9.15909 309.302 9.41856 309.81 9.9375C310.321 10.4527 310.577 11.1837 310.577 12.1307V18H308.162V12.608C308.162 12.1231 308.034 11.7595 307.776 11.517C307.518 11.2746 307.196 11.1534 306.81 11.1534C306.371 11.1534 306.028 11.2936 305.782 11.5739C305.535 11.8504 305.412 12.2159 305.412 12.6705V18H303.066V12.5568C303.066 12.1288 302.943 11.7879 302.696 11.5341C302.454 11.2803 302.134 11.1534 301.736 11.1534C301.467 11.1534 301.225 11.2216 301.009 11.358C300.797 11.4905 300.628 11.678 300.503 11.9205C300.378 12.1591 300.316 12.4394 300.316 12.7614V18H297.895ZM319.088 18.142C318.425 18.142 317.825 17.9716 317.287 17.6307C316.753 17.286 316.329 16.7803 316.014 16.1136C315.704 15.4432 315.548 14.6212 315.548 13.6477C315.548 12.6477 315.709 11.8163 316.031 11.1534C316.353 10.4867 316.781 9.98864 317.315 9.65909C317.853 9.32576 318.442 9.15909 319.082 9.15909C319.571 9.15909 319.978 9.24242 320.304 9.40909C320.634 9.57197 320.899 9.77652 321.099 10.0227C321.304 10.2652 321.459 10.5038 321.565 10.7386H321.639V6.36364H324.054V18H321.668V16.6023H321.565C321.452 16.8447 321.291 17.0852 321.082 17.3239C320.878 17.5587 320.611 17.7538 320.281 17.9091C319.955 18.0644 319.558 18.142 319.088 18.142ZM319.855 16.2159C320.245 16.2159 320.575 16.1098 320.844 15.8977C321.116 15.6818 321.325 15.3807 321.469 14.9943C321.616 14.608 321.69 14.1553 321.69 13.6364C321.69 13.1174 321.618 12.6667 321.474 12.2841C321.33 11.9015 321.122 11.6061 320.849 11.3977C320.577 11.1894 320.245 11.0852 319.855 11.0852C319.457 11.0852 319.122 11.1932 318.849 11.4091C318.577 11.625 318.37 11.9242 318.23 12.3068C318.09 12.6894 318.02 13.1326 318.02 13.6364C318.02 14.1439 318.09 14.5928 318.23 14.983C318.374 15.3693 318.58 15.6723 318.849 15.892C319.122 16.108 319.457 16.2159 319.855 16.2159ZM319.378 8.67614V7.25H325.048V8.67614H319.378ZM329.861 18.1705C328.964 18.1705 328.191 17.9886 327.543 17.625C326.899 17.2576 326.403 16.7386 326.054 16.0682C325.706 15.3939 325.532 14.5966 325.532 13.6761C325.532 12.7784 325.706 11.9905 326.054 11.3125C326.403 10.6345 326.894 10.1061 327.526 9.72727C328.162 9.34848 328.909 9.15909 329.765 9.15909C330.34 9.15909 330.876 9.25189 331.373 9.4375C331.873 9.61932 332.308 9.89394 332.679 10.2614C333.054 10.6288 333.346 11.0909 333.554 11.6477C333.763 12.2008 333.867 12.8485 333.867 13.5909V14.2557H326.498V12.7557H331.589C331.589 12.4072 331.513 12.0985 331.361 11.8295C331.21 11.5606 331 11.3504 330.731 11.1989C330.465 11.0436 330.157 10.9659 329.804 10.9659C329.437 10.9659 329.111 11.0511 328.827 11.2216C328.547 11.3883 328.327 11.6136 328.168 11.8977C328.009 12.178 327.928 12.4905 327.924 12.8352V14.2614C327.924 14.6932 328.003 15.0663 328.162 15.3807C328.325 15.6951 328.554 15.9375 328.85 16.108C329.145 16.2784 329.496 16.3636 329.901 16.3636C330.17 16.3636 330.416 16.3258 330.64 16.25C330.863 16.1742 331.054 16.0606 331.214 15.9091C331.373 15.7576 331.494 15.572 331.577 15.3523L333.816 15.5C333.702 16.0379 333.469 16.5076 333.117 16.9091C332.769 17.3068 332.318 17.6174 331.765 17.8409C331.215 18.0606 330.581 18.1705 329.861 18.1705ZM330.384 6.61364L332.623 8.38068H330.958L329.697 7.38636L328.418 8.38068H326.753L328.992 6.61364H330.384ZM333.14 7.38636H331.884L331.776 6.53409C332.102 6.51894 332.339 6.47727 332.486 6.40909C332.634 6.34091 332.708 6.24053 332.708 6.10795C332.708 5.93371 332.615 5.81629 332.429 5.75568C332.244 5.69508 332.013 5.66477 331.736 5.66477L331.793 4.75C332.562 4.75 333.149 4.86364 333.554 5.09091C333.96 5.31439 334.162 5.63068 334.162 6.03977C334.162 6.32386 334.054 6.54167 333.839 6.69318C333.626 6.84091 333.394 6.93561 333.14 6.97727V7.38636ZM342.046 18.142C341.383 18.142 340.782 17.9716 340.244 17.6307C339.71 17.286 339.286 16.7803 338.972 16.1136C338.661 15.4432 338.506 14.6212 338.506 13.6477C338.506 12.6477 338.667 11.8163 338.989 11.1534C339.311 10.4867 339.739 9.98864 340.273 9.65909C340.811 9.32576 341.4 9.15909 342.04 9.15909C342.529 9.15909 342.936 9.24242 343.261 9.40909C343.591 9.57197 343.856 9.77652 344.057 10.0227C344.261 10.2652 344.417 10.5038 344.523 10.7386H344.597V6.36364H347.011V18H344.625V16.6023H344.523C344.409 16.8447 344.248 17.0852 344.04 17.3239C343.835 17.5587 343.568 17.7538 343.239 17.9091C342.913 18.0644 342.515 18.142 342.046 18.142ZM342.813 16.2159C343.203 16.2159 343.532 16.1098 343.801 15.8977C344.074 15.6818 344.282 15.3807 344.426 14.9943C344.574 14.608 344.648 14.1553 344.648 13.6364C344.648 13.1174 344.576 12.6667 344.432 12.2841C344.288 11.9015 344.08 11.6061 343.807 11.3977C343.534 11.1894 343.203 11.0852 342.813 11.0852C342.415 11.0852 342.08 11.1932 341.807 11.4091C341.534 11.625 341.328 11.9242 341.188 12.3068C341.047 12.6894 340.977 13.1326 340.977 13.6364C340.977 14.1439 341.047 14.5928 341.188 14.983C341.332 15.3693 341.538 15.6723 341.807 15.892C342.08 16.108 342.415 16.2159 342.813 16.2159ZM342.335 8.67614V7.25H348.006V8.67614H342.335ZM352.785 18.1705C351.902 18.1705 351.139 17.983 350.495 17.608C349.855 17.2292 349.36 16.7027 349.012 16.0284C348.664 15.3504 348.489 14.5644 348.489 13.6705C348.489 12.7689 348.664 11.9811 349.012 11.3068C349.36 10.6288 349.855 10.1023 350.495 9.72727C351.139 9.34848 351.902 9.15909 352.785 9.15909C353.667 9.15909 354.429 9.34848 355.069 9.72727C355.713 10.1023 356.209 10.6288 356.557 11.3068C356.906 11.9811 357.08 12.7689 357.08 13.6705C357.08 14.5644 356.906 15.3504 356.557 16.0284C356.209 16.7027 355.713 17.2292 355.069 17.608C354.429 17.983 353.667 18.1705 352.785 18.1705ZM352.796 16.2955C353.198 16.2955 353.533 16.1818 353.802 15.9545C354.071 15.7235 354.273 15.4091 354.41 15.0114C354.55 14.6136 354.62 14.161 354.62 13.6534C354.62 13.1458 354.55 12.6932 354.41 12.2955C354.273 11.8977 354.071 11.5833 353.802 11.3523C353.533 11.1212 353.198 11.0057 352.796 11.0057C352.391 11.0057 352.05 11.1212 351.773 11.3523C351.501 11.5833 351.294 11.8977 351.154 12.2955C351.018 12.6932 350.949 13.1458 350.949 13.6534C350.949 14.161 351.018 14.6136 351.154 15.0114C351.294 15.4091 351.501 15.7235 351.773 15.9545C352.05 16.1818 352.391 16.2955 352.796 16.2955ZM353.461 6.61364L355.699 8.38068H354.035L352.773 7.38636L351.495 8.38068H349.83L352.069 6.61364H353.461ZM356.217 7.38636H354.961L354.853 6.53409C355.179 6.51894 355.415 6.47727 355.563 6.40909C355.711 6.34091 355.785 6.24053 355.785 6.10795C355.785 5.93371 355.692 5.81629 355.506 5.75568C355.321 5.69508 355.09 5.66477 354.813 5.66477L354.87 4.75C355.639 4.75 356.226 4.86364 356.631 5.09091C357.037 5.31439 357.239 5.63068 357.239 6.03977C357.239 6.32386 357.131 6.54167 356.915 6.69318C356.703 6.84091 356.47 6.93561 356.217 6.97727V7.38636ZM358.494 18V9.27273H360.914V18H358.494ZM359.71 8.14773C359.35 8.14773 359.041 8.02841 358.784 7.78977C358.53 7.54735 358.403 7.25758 358.403 6.92045C358.403 6.58712 358.53 6.30114 358.784 6.0625C359.041 5.82008 359.35 5.69886 359.71 5.69886C360.07 5.69886 360.377 5.82008 360.63 6.0625C360.888 6.30114 361.017 6.58712 361.017 6.92045C361.017 7.25758 360.888 7.54735 360.63 7.78977C360.377 8.02841 360.07 8.14773 359.71 8.14773ZM272.921 32.392V30.3636H282.478V32.392H278.915V42H276.483V32.392H272.921ZM286.267 36.9545V42H283.846V30.3636H286.198V34.8125H286.301C286.498 34.2973 286.816 33.8939 287.255 33.6023C287.695 33.3068 288.246 33.1591 288.909 33.1591C289.515 33.1591 290.043 33.2917 290.494 33.5568C290.948 33.8182 291.301 34.1951 291.551 34.6875C291.805 35.1761 291.93 35.7614 291.926 36.4432V42H289.505V36.875C289.509 36.3371 289.373 35.9186 289.096 35.6193C288.823 35.3201 288.441 35.1705 287.948 35.1705C287.619 35.1705 287.327 35.2405 287.073 35.3807C286.823 35.5208 286.627 35.7254 286.483 35.9943C286.342 36.2595 286.27 36.5795 286.267 36.9545ZM301.375 32.7614H302.818C302.818 33.7235 302.589 34.4735 302.131 35.0114C301.672 35.5455 300.936 35.8125 299.921 35.8125V34.8466C300.322 34.8466 300.627 34.7633 300.835 34.5966C301.044 34.4261 301.186 34.1856 301.262 33.875C301.337 33.5644 301.375 33.1932 301.375 32.7614ZM297.614 42.1705C296.731 42.1705 295.968 41.983 295.324 41.608C294.684 41.2292 294.19 40.7027 293.841 40.0284C293.493 39.3504 293.318 38.5644 293.318 37.6705C293.318 36.7689 293.493 35.9811 293.841 35.3068C294.19 34.6288 294.684 34.1023 295.324 33.7273C295.968 33.3485 296.731 33.1591 297.614 33.1591C298.496 33.1591 299.258 33.3485 299.898 33.7273C300.542 34.1023 301.038 34.6288 301.387 35.3068C301.735 35.9811 301.909 36.7689 301.909 37.6705C301.909 38.5644 301.735 39.3504 301.387 40.0284C301.038 40.7027 300.542 41.2292 299.898 41.608C299.258 41.983 298.496 42.1705 297.614 42.1705ZM297.625 40.2955C298.027 40.2955 298.362 40.1818 298.631 39.9545C298.9 39.7235 299.102 39.4091 299.239 39.0114C299.379 38.6136 299.449 38.161 299.449 37.6534C299.449 37.1458 299.379 36.6932 299.239 36.2955C299.102 35.8977 298.9 35.5833 298.631 35.3523C298.362 35.1212 298.027 35.0057 297.625 35.0057C297.22 35.0057 296.879 35.1212 296.602 35.3523C296.33 35.5833 296.123 35.8977 295.983 36.2955C295.847 36.6932 295.779 37.1458 295.779 37.6534C295.779 38.161 295.847 38.6136 295.983 39.0114C296.123 39.4091 296.33 39.7235 296.602 39.9545C296.879 40.1818 297.22 40.2955 297.625 40.2955ZM296.773 32.1477L295.04 29.5625H297.273L298.483 32.1477H296.773ZM303.62 42V33.2727H306.04V42H303.62ZM304.836 32.1477C304.476 32.1477 304.167 32.0284 303.91 31.7898C303.656 31.5473 303.529 31.2576 303.529 30.9205C303.529 30.5871 303.656 30.3011 303.91 30.0625C304.167 29.8201 304.476 29.6989 304.836 29.6989C305.196 29.6989 305.503 29.8201 305.756 30.0625C306.014 30.3011 306.143 30.5871 306.143 30.9205C306.143 31.2576 306.014 31.5473 305.756 31.7898C305.503 32.0284 305.196 32.1477 304.836 32.1477ZM313.783 30.3636V42H311.362V30.3636H313.783ZM324.789 32.7898H326.193C326.189 33.4489 326.09 34.0019 325.897 34.4489C325.704 34.892 325.376 35.2254 324.914 35.4489C324.456 35.6723 323.829 35.7841 323.033 35.7841V34.7045C323.56 34.7045 323.946 34.6345 324.193 34.4943C324.443 34.3542 324.604 34.1439 324.675 33.8636C324.751 33.5795 324.789 33.2216 324.789 32.7898ZM321.215 38.2841V33.2727H323.63V42H321.312V40.4148H321.221C321.024 40.9261 320.696 41.3371 320.238 41.6477C319.783 41.9583 319.229 42.1136 318.573 42.1136C317.99 42.1136 317.477 41.9811 317.033 41.7159C316.59 41.4508 316.244 41.0739 315.994 40.5852C315.747 40.0966 315.622 39.5114 315.619 38.8295V33.2727H318.039V38.3977C318.039 38.9129 318.175 39.3201 318.448 39.6193C318.725 39.9186 319.092 40.0682 319.55 40.0682C319.842 40.0682 320.113 40.0019 320.363 39.8693C320.617 39.733 320.821 39.5322 320.977 39.267C321.136 39.0019 321.215 38.6742 321.215 38.2841ZM334.45 32.7614H335.893C335.893 33.7235 335.664 34.4735 335.206 35.0114C334.747 35.5455 334.011 35.8125 332.996 35.8125V34.8466C333.397 34.8466 333.702 34.7633 333.91 34.5966C334.119 34.4261 334.261 34.1856 334.337 33.875C334.412 33.5644 334.45 33.1932 334.45 32.7614ZM330.689 42.1705C329.806 42.1705 329.043 41.983 328.399 41.608C327.759 41.2292 327.265 40.7027 326.916 40.0284C326.568 39.3504 326.393 38.5644 326.393 37.6705C326.393 36.7689 326.568 35.9811 326.916 35.3068C327.265 34.6288 327.759 34.1023 328.399 33.7273C329.043 33.3485 329.806 33.1591 330.689 33.1591C331.571 33.1591 332.333 33.3485 332.973 33.7273C333.617 34.1023 334.113 34.6288 334.462 35.3068C334.81 35.9811 334.984 36.7689 334.984 37.6705C334.984 38.5644 334.81 39.3504 334.462 40.0284C334.113 40.7027 333.617 41.2292 332.973 41.608C332.333 41.983 331.571 42.1705 330.689 42.1705ZM330.7 40.2955C331.102 40.2955 331.437 40.1818 331.706 39.9545C331.975 39.7235 332.177 39.4091 332.314 39.0114C332.454 38.6136 332.524 38.161 332.524 37.6534C332.524 37.1458 332.454 36.6932 332.314 36.2955C332.177 35.8977 331.975 35.5833 331.706 35.3523C331.437 35.1212 331.102 35.0057 330.7 35.0057C330.295 35.0057 329.954 35.1212 329.677 35.3523C329.405 35.5833 329.198 35.8977 329.058 36.2955C328.922 36.6932 328.854 37.1458 328.854 37.6534C328.854 38.161 328.922 38.6136 329.058 39.0114C329.198 39.4091 329.405 39.7235 329.677 39.9545C329.954 40.1818 330.295 40.2955 330.7 40.2955ZM330.689 45.267C330.329 45.267 330.02 45.1477 329.763 44.9091C329.505 44.6705 329.376 44.3826 329.376 44.0455C329.376 43.7083 329.505 43.4205 329.763 43.1818C330.02 42.9432 330.329 42.8239 330.689 42.8239C331.049 42.8239 331.355 42.9432 331.609 43.1818C331.867 43.4205 331.996 43.7083 331.996 44.0455C331.996 44.3826 331.867 44.6705 331.609 44.9091C331.355 45.1477 331.049 45.267 330.689 45.267ZM339.115 36.9545V42H336.695V33.2727H339.002V34.8125H339.104C339.297 34.3049 339.621 33.9034 340.076 33.608C340.53 33.3087 341.081 33.1591 341.729 33.1591C342.335 33.1591 342.864 33.2917 343.314 33.5568C343.765 33.822 344.115 34.2008 344.365 34.6932C344.615 35.1818 344.74 35.7652 344.74 36.4432V42H342.32V36.875C342.324 36.3409 342.187 35.9242 341.911 35.625C341.634 35.322 341.254 35.1705 340.769 35.1705C340.443 35.1705 340.155 35.2405 339.905 35.3807C339.659 35.5208 339.466 35.7254 339.326 35.9943C339.189 36.2595 339.119 36.5795 339.115 36.9545ZM350.42 45.4545C349.636 45.4545 348.963 45.3466 348.403 45.1307C347.846 44.9186 347.403 44.6288 347.073 44.2614C346.744 43.8939 346.53 43.4811 346.431 43.0227L348.67 42.7216C348.738 42.8958 348.846 43.0587 348.994 43.2102C349.142 43.3617 349.337 43.483 349.579 43.5739C349.825 43.6686 350.124 43.7159 350.477 43.7159C351.003 43.7159 351.437 43.5871 351.778 43.3295C352.123 43.0758 352.295 42.6496 352.295 42.0511V40.4545H352.193C352.087 40.697 351.927 40.9261 351.715 41.142C351.503 41.358 351.231 41.5341 350.897 41.6705C350.564 41.8068 350.166 41.875 349.704 41.875C349.049 41.875 348.452 41.7235 347.914 41.4205C347.38 41.1136 346.954 40.6458 346.636 40.017C346.321 39.3845 346.164 38.5852 346.164 37.6193C346.164 36.6307 346.325 35.8049 346.647 35.142C346.969 34.4792 347.397 33.983 347.931 33.6534C348.469 33.3239 349.058 33.1591 349.698 33.1591C350.187 33.1591 350.596 33.2424 350.926 33.4091C351.255 33.572 351.52 33.7765 351.721 34.0227C351.926 34.2652 352.083 34.5038 352.193 34.7386H352.284V33.2727H354.687V42.0852C354.687 42.8277 354.505 43.4489 354.142 43.9489C353.778 44.4489 353.274 44.8239 352.63 45.0739C351.99 45.3277 351.253 45.4545 350.42 45.4545ZM350.471 40.0568C350.861 40.0568 351.191 39.9602 351.46 39.767C351.732 39.5701 351.941 39.2898 352.085 38.9261C352.232 38.5587 352.306 38.1193 352.306 37.608C352.306 37.0966 352.234 36.6534 352.09 36.2784C351.946 35.8996 351.738 35.6061 351.465 35.3977C351.193 35.1894 350.861 35.0852 350.471 35.0852C350.073 35.0852 349.738 35.1932 349.465 35.4091C349.193 35.6212 348.986 35.9167 348.846 36.2955C348.706 36.6742 348.636 37.1117 348.636 37.608C348.636 38.1117 348.706 38.5473 348.846 38.9148C348.99 39.2784 349.196 39.5606 349.465 39.7614C349.738 39.9583 350.073 40.0568 350.471 40.0568Z" fill="white"/>
<path d="M326.066 52.019C326.546 51.7984 327.158 52.0289 327.434 52.5339C327.709 53.0388 327.543 53.6269 327.063 53.8475L326.066 52.019ZM301.436 92.3883L297.397 81.2196L308.809 84.3582L301.436 92.3883ZM327.063 53.8475C319.918 57.1287 314.994 60.6877 311.431 65.3808C307.863 70.0788 305.606 75.9824 303.919 84.0529L301.954 83.4471C303.67 75.2393 306.001 69.053 309.784 64.0715C313.57 59.0851 318.758 55.3749 326.066 52.019L327.063 53.8475Z" fill="white"/>
<path d="M163.391 10.4375H160.902C160.857 10.1155 160.764 9.82955 160.624 9.57955C160.484 9.32576 160.304 9.10985 160.084 8.93182C159.864 8.75379 159.611 8.61742 159.323 8.52273C159.039 8.42803 158.73 8.38068 158.397 8.38068C157.794 8.38068 157.27 8.5303 156.823 8.82955C156.376 9.125 156.029 9.55682 155.783 10.125C155.537 10.6894 155.414 11.375 155.414 12.1818C155.414 13.0114 155.537 13.7083 155.783 14.2727C156.033 14.8371 156.381 15.2633 156.828 15.5511C157.275 15.839 157.792 15.983 158.38 15.983C158.709 15.983 159.014 15.9394 159.294 15.8523C159.578 15.7652 159.83 15.6383 160.05 15.4716C160.27 15.3011 160.452 15.0947 160.595 14.8523C160.743 14.6098 160.845 14.3333 160.902 14.0227L163.391 14.0341C163.327 14.5682 163.166 15.0833 162.908 15.5795C162.654 16.072 162.311 16.5133 161.88 16.9034C161.452 17.2898 160.94 17.5966 160.345 17.8239C159.755 18.0473 159.086 18.1591 158.34 18.1591C157.302 18.1591 156.374 17.9242 155.556 17.4545C154.741 16.9848 154.097 16.3049 153.624 15.4148C153.154 14.5246 152.919 13.447 152.919 12.1818C152.919 10.9129 153.158 9.83333 153.635 8.94318C154.112 8.05303 154.76 7.375 155.578 6.90909C156.397 6.43939 157.317 6.20455 158.34 6.20455C159.014 6.20455 159.639 6.29924 160.215 6.48864C160.794 6.67803 161.308 6.95455 161.755 7.31818C162.202 7.67803 162.565 8.11932 162.845 8.64205C163.13 9.16477 163.311 9.76326 163.391 10.4375ZM167.37 12.9545V18H164.95V6.36364H167.302V10.8125H167.404C167.601 10.2973 167.919 9.89394 168.359 9.60227C168.798 9.30682 169.349 9.15909 170.012 9.15909C170.618 9.15909 171.147 9.29167 171.597 9.55682C172.052 9.81818 172.404 10.1951 172.654 10.6875C172.908 11.1761 173.033 11.7614 173.029 12.4432V18H170.609V12.875C170.613 12.3371 170.476 11.9186 170.2 11.6193C169.927 11.3201 169.544 11.1705 169.052 11.1705C168.722 11.1705 168.431 11.2405 168.177 11.3807C167.927 11.5208 167.73 11.7254 167.586 11.9943C167.446 12.2595 167.374 12.5795 167.37 12.9545ZM177.263 18.1648C176.706 18.1648 176.21 18.0682 175.774 17.875C175.338 17.678 174.994 17.3883 174.74 17.0057C174.49 16.6193 174.365 16.1383 174.365 15.5625C174.365 15.0777 174.454 14.6705 174.632 14.3409C174.81 14.0114 175.052 13.7462 175.359 13.5455C175.666 13.3447 176.015 13.1932 176.405 13.0909C176.799 12.9886 177.212 12.9167 177.643 12.875C178.151 12.822 178.56 12.7727 178.871 12.7273C179.181 12.678 179.407 12.6061 179.547 12.5114C179.687 12.4167 179.757 12.2765 179.757 12.0909V12.0568C179.757 11.697 179.643 11.4186 179.416 11.2216C179.193 11.0246 178.874 10.9261 178.462 10.9261C178.026 10.9261 177.679 11.0227 177.422 11.2159C177.164 11.4053 176.994 11.6439 176.91 11.9318L174.672 11.75C174.785 11.2197 175.009 10.7614 175.342 10.375C175.676 9.98485 176.105 9.68561 176.632 9.47727C177.162 9.26515 177.776 9.15909 178.473 9.15909C178.958 9.15909 179.422 9.21591 179.865 9.32955C180.312 9.44318 180.708 9.61932 181.052 9.85795C181.401 10.0966 181.676 10.4034 181.876 10.7784C182.077 11.1496 182.177 11.5947 182.177 12.1136V18H179.882V16.7898H179.814C179.674 17.0625 179.486 17.303 179.251 17.5114C179.016 17.7159 178.734 17.8769 178.405 17.9943C178.075 18.108 177.694 18.1648 177.263 18.1648ZM177.956 16.4943C178.312 16.4943 178.626 16.4242 178.899 16.2841C179.172 16.1402 179.386 15.947 179.541 15.7045C179.696 15.4621 179.774 15.1875 179.774 14.8807V13.9545C179.698 14.0038 179.594 14.0492 179.462 14.0909C179.333 14.1288 179.187 14.1648 179.024 14.1989C178.861 14.2292 178.698 14.2576 178.535 14.2841C178.373 14.3068 178.225 14.3277 178.092 14.3466C177.808 14.3883 177.56 14.4545 177.348 14.5455C177.136 14.6364 176.971 14.7595 176.854 14.9148C176.736 15.0663 176.677 15.2557 176.677 15.483C176.677 15.8125 176.797 16.0644 177.035 16.2386C177.278 16.4091 177.585 16.4943 177.956 16.4943ZM178.467 21.267C178.107 21.267 177.799 21.1477 177.541 20.9091C177.284 20.6705 177.155 20.3826 177.155 20.0455C177.155 19.7083 177.284 19.4205 177.541 19.1818C177.799 18.9432 178.107 18.8239 178.467 18.8239C178.827 18.8239 179.134 18.9432 179.388 19.1818C179.645 19.4205 179.774 19.7083 179.774 20.0455C179.774 20.3826 179.645 20.6705 179.388 20.9091C179.134 21.1477 178.827 21.267 178.467 21.267ZM183.895 18V9.27273H186.202V10.8125H186.304C186.486 10.3011 186.789 9.89773 187.213 9.60227C187.638 9.30682 188.145 9.15909 188.736 9.15909C189.335 9.15909 189.844 9.30871 190.265 9.60795C190.685 9.90341 190.965 10.3049 191.106 10.8125H191.196C191.374 10.3125 191.696 9.91288 192.162 9.61364C192.632 9.31061 193.187 9.15909 193.827 9.15909C194.641 9.15909 195.302 9.41856 195.81 9.9375C196.321 10.4527 196.577 11.1837 196.577 12.1307V18H194.162V12.608C194.162 12.1231 194.034 11.7595 193.776 11.517C193.518 11.2746 193.196 11.1534 192.81 11.1534C192.371 11.1534 192.028 11.2936 191.782 11.5739C191.535 11.8504 191.412 12.2159 191.412 12.6705V18H189.066V12.5568C189.066 12.1288 188.943 11.7879 188.696 11.5341C188.454 11.2803 188.134 11.1534 187.736 11.1534C187.467 11.1534 187.225 11.2216 187.009 11.358C186.797 11.4905 186.628 11.678 186.503 11.9205C186.378 12.1591 186.316 12.4394 186.316 12.7614V18H183.895ZM205.088 18.142C204.425 18.142 203.825 17.9716 203.287 17.6307C202.753 17.286 202.329 16.7803 202.014 16.1136C201.704 15.4432 201.548 14.6212 201.548 13.6477C201.548 12.6477 201.709 11.8163 202.031 11.1534C202.353 10.4867 202.781 9.98864 203.315 9.65909C203.853 9.32576 204.442 9.15909 205.082 9.15909C205.571 9.15909 205.978 9.24242 206.304 9.40909C206.634 9.57197 206.899 9.77652 207.099 10.0227C207.304 10.2652 207.459 10.5038 207.565 10.7386H207.639V6.36364H210.054V18H207.668V16.6023H207.565C207.452 16.8447 207.291 17.0852 207.082 17.3239C206.878 17.5587 206.611 17.7538 206.281 17.9091C205.955 18.0644 205.558 18.142 205.088 18.142ZM205.855 16.2159C206.245 16.2159 206.575 16.1098 206.844 15.8977C207.116 15.6818 207.325 15.3807 207.469 14.9943C207.616 14.608 207.69 14.1553 207.69 13.6364C207.69 13.1174 207.618 12.6667 207.474 12.2841C207.33 11.9015 207.122 11.6061 206.849 11.3977C206.577 11.1894 206.245 11.0852 205.855 11.0852C205.457 11.0852 205.122 11.1932 204.849 11.4091C204.577 11.625 204.37 11.9242 204.23 12.3068C204.09 12.6894 204.02 13.1326 204.02 13.6364C204.02 14.1439 204.09 14.5928 204.23 14.983C204.374 15.3693 204.58 15.6723 204.849 15.892C205.122 16.108 205.457 16.2159 205.855 16.2159ZM205.378 8.67614V7.25H211.048V8.67614H205.378ZM215.861 18.1705C214.964 18.1705 214.191 17.9886 213.543 17.625C212.899 17.2576 212.403 16.7386 212.054 16.0682C211.706 15.3939 211.532 14.5966 211.532 13.6761C211.532 12.7784 211.706 11.9905 212.054 11.3125C212.403 10.6345 212.894 10.1061 213.526 9.72727C214.162 9.34848 214.909 9.15909 215.765 9.15909C216.34 9.15909 216.876 9.25189 217.373 9.4375C217.873 9.61932 218.308 9.89394 218.679 10.2614C219.054 10.6288 219.346 11.0909 219.554 11.6477C219.763 12.2008 219.867 12.8485 219.867 13.5909V14.2557H212.498V12.7557H217.589C217.589 12.4072 217.513 12.0985 217.361 11.8295C217.21 11.5606 217 11.3504 216.731 11.1989C216.465 11.0436 216.157 10.9659 215.804 10.9659C215.437 10.9659 215.111 11.0511 214.827 11.2216C214.547 11.3883 214.327 11.6136 214.168 11.8977C214.009 12.178 213.928 12.4905 213.924 12.8352V14.2614C213.924 14.6932 214.003 15.0663 214.162 15.3807C214.325 15.6951 214.554 15.9375 214.85 16.108C215.145 16.2784 215.496 16.3636 215.901 16.3636C216.17 16.3636 216.416 16.3258 216.64 16.25C216.863 16.1742 217.054 16.0606 217.214 15.9091C217.373 15.7576 217.494 15.572 217.577 15.3523L219.816 15.5C219.702 16.0379 219.469 16.5076 219.117 16.9091C218.769 17.3068 218.318 17.6174 217.765 17.8409C217.215 18.0606 216.581 18.1705 215.861 18.1705ZM216.384 6.61364L218.623 8.38068H216.958L215.697 7.38636L214.418 8.38068H212.753L214.992 6.61364H216.384ZM219.14 7.38636H217.884L217.776 6.53409C218.102 6.51894 218.339 6.47727 218.486 6.40909C218.634 6.34091 218.708 6.24053 218.708 6.10795C218.708 5.93371 218.615 5.81629 218.429 5.75568C218.244 5.69508 218.013 5.66477 217.736 5.66477L217.793 4.75C218.562 4.75 219.149 4.86364 219.554 5.09091C219.96 5.31439 220.162 5.63068 220.162 6.03977C220.162 6.32386 220.054 6.54167 219.839 6.69318C219.626 6.84091 219.394 6.93561 219.14 6.97727V7.38636ZM228.046 18.142C227.383 18.142 226.782 17.9716 226.244 17.6307C225.71 17.286 225.286 16.7803 224.972 16.1136C224.661 15.4432 224.506 14.6212 224.506 13.6477C224.506 12.6477 224.667 11.8163 224.989 11.1534C225.311 10.4867 225.739 9.98864 226.273 9.65909C226.811 9.32576 227.4 9.15909 228.04 9.15909C228.529 9.15909 228.936 9.24242 229.261 9.40909C229.591 9.57197 229.856 9.77652 230.057 10.0227C230.261 10.2652 230.417 10.5038 230.523 10.7386H230.597V6.36364H233.011V18H230.625V16.6023H230.523C230.409 16.8447 230.248 17.0852 230.04 17.3239C229.835 17.5587 229.568 17.7538 229.239 17.9091C228.913 18.0644 228.515 18.142 228.046 18.142ZM228.813 16.2159C229.203 16.2159 229.532 16.1098 229.801 15.8977C230.074 15.6818 230.282 15.3807 230.426 14.9943C230.574 14.608 230.648 14.1553 230.648 13.6364C230.648 13.1174 230.576 12.6667 230.432 12.2841C230.288 11.9015 230.08 11.6061 229.807 11.3977C229.534 11.1894 229.203 11.0852 228.813 11.0852C228.415 11.0852 228.08 11.1932 227.807 11.4091C227.534 11.625 227.328 11.9242 227.188 12.3068C227.047 12.6894 226.977 13.1326 226.977 13.6364C226.977 14.1439 227.047 14.5928 227.188 14.983C227.332 15.3693 227.538 15.6723 227.807 15.892C228.08 16.108 228.415 16.2159 228.813 16.2159ZM228.335 8.67614V7.25H234.006V8.67614H228.335ZM238.785 18.1705C237.902 18.1705 237.139 17.983 236.495 17.608C235.855 17.2292 235.36 16.7027 235.012 16.0284C234.664 15.3504 234.489 14.5644 234.489 13.6705C234.489 12.7689 234.664 11.9811 235.012 11.3068C235.36 10.6288 235.855 10.1023 236.495 9.72727C237.139 9.34848 237.902 9.15909 238.785 9.15909C239.667 9.15909 240.429 9.34848 241.069 9.72727C241.713 10.1023 242.209 10.6288 242.557 11.3068C242.906 11.9811 243.08 12.7689 243.08 13.6705C243.08 14.5644 242.906 15.3504 242.557 16.0284C242.209 16.7027 241.713 17.2292 241.069 17.608C240.429 17.983 239.667 18.1705 238.785 18.1705ZM238.796 16.2955C239.198 16.2955 239.533 16.1818 239.802 15.9545C240.071 15.7235 240.273 15.4091 240.41 15.0114C240.55 14.6136 240.62 14.161 240.62 13.6534C240.62 13.1458 240.55 12.6932 240.41 12.2955C240.273 11.8977 240.071 11.5833 239.802 11.3523C239.533 11.1212 239.198 11.0057 238.796 11.0057C238.391 11.0057 238.05 11.1212 237.773 11.3523C237.501 11.5833 237.294 11.8977 237.154 12.2955C237.018 12.6932 236.949 13.1458 236.949 13.6534C236.949 14.161 237.018 14.6136 237.154 15.0114C237.294 15.4091 237.501 15.7235 237.773 15.9545C238.05 16.1818 238.391 16.2955 238.796 16.2955ZM239.461 6.61364L241.699 8.38068H240.035L238.773 7.38636L237.495 8.38068H235.83L238.069 6.61364H239.461ZM242.217 7.38636H240.961L240.853 6.53409C241.179 6.51894 241.415 6.47727 241.563 6.40909C241.711 6.34091 241.785 6.24053 241.785 6.10795C241.785 5.93371 241.692 5.81629 241.506 5.75568C241.321 5.69508 241.09 5.66477 240.813 5.66477L240.87 4.75C241.639 4.75 242.226 4.86364 242.631 5.09091C243.037 5.31439 243.239 5.63068 243.239 6.03977C243.239 6.32386 243.131 6.54167 242.915 6.69318C242.703 6.84091 242.47 6.93561 242.217 6.97727V7.38636ZM244.494 18V9.27273H246.914V18H244.494ZM245.71 8.14773C245.35 8.14773 245.041 8.02841 244.784 7.78977C244.53 7.54735 244.403 7.25758 244.403 6.92045C244.403 6.58712 244.53 6.30114 244.784 6.0625C245.041 5.82008 245.35 5.69886 245.71 5.69886C246.07 5.69886 246.377 5.82008 246.63 6.0625C246.888 6.30114 247.017 6.58712 247.017 6.92045C247.017 7.25758 246.888 7.54735 246.63 7.78977C246.377 8.02841 246.07 8.14773 245.71 8.14773ZM172.939 33.7102C172.893 33.2519 172.698 32.8958 172.353 32.642C172.009 32.3883 171.541 32.2614 170.95 32.2614C170.548 32.2614 170.209 32.3182 169.933 32.4318C169.656 32.5417 169.444 32.6951 169.297 32.892C169.153 33.089 169.081 33.3125 169.081 33.5625C169.073 33.7708 169.117 33.9527 169.211 34.108C169.31 34.2633 169.444 34.3977 169.615 34.5114C169.785 34.6212 169.982 34.7178 170.206 34.8011C170.429 34.8807 170.668 34.9489 170.922 35.0057L171.967 35.2557C172.475 35.3693 172.94 35.5208 173.365 35.7102C173.789 35.8996 174.156 36.1326 174.467 36.4091C174.778 36.6856 175.018 37.0114 175.189 37.3864C175.363 37.7614 175.452 38.1913 175.456 38.6761C175.452 39.3883 175.27 40.0057 174.91 40.5284C174.554 41.0473 174.039 41.4508 173.365 41.7386C172.694 42.0227 171.886 42.1648 170.939 42.1648C169.999 42.1648 169.181 42.0208 168.484 41.733C167.791 41.4451 167.249 41.0189 166.859 40.4545C166.473 39.8864 166.27 39.1837 166.251 38.3466H168.632C168.658 38.7367 168.77 39.0625 168.967 39.3239C169.168 39.5814 169.435 39.7765 169.768 39.9091C170.105 40.0379 170.486 40.1023 170.91 40.1023C171.327 40.1023 171.689 40.0417 171.995 39.9205C172.306 39.7992 172.547 39.6307 172.717 39.4148C172.887 39.1989 172.973 38.9508 172.973 38.6705C172.973 38.4091 172.895 38.1894 172.74 38.0114C172.588 37.8333 172.365 37.6818 172.069 37.5568C171.778 37.4318 171.42 37.3182 170.995 37.2159L169.728 36.8977C168.747 36.6591 167.973 36.286 167.404 35.7784C166.836 35.2708 166.554 34.5871 166.558 33.7273C166.554 33.0227 166.742 32.4072 167.12 31.8807C167.503 31.3542 168.028 30.9432 168.694 30.6477C169.361 30.3523 170.118 30.2045 170.967 30.2045C171.831 30.2045 172.584 30.3523 173.228 30.6477C173.876 30.9432 174.38 31.3542 174.74 31.8807C175.1 32.4072 175.285 33.017 175.297 33.7102H172.939ZM180.848 42.1705C179.966 42.1705 179.202 41.983 178.558 41.608C177.918 41.2292 177.424 40.7027 177.075 40.0284C176.727 39.3504 176.553 38.5644 176.553 37.6705C176.553 36.7689 176.727 35.9811 177.075 35.3068C177.424 34.6288 177.918 34.1023 178.558 33.7273C179.202 33.3485 179.966 33.1591 180.848 33.1591C181.731 33.1591 182.492 33.3485 183.132 33.7273C183.776 34.1023 184.272 34.6288 184.621 35.3068C184.969 35.9811 185.144 36.7689 185.144 37.6705C185.144 38.5644 184.969 39.3504 184.621 40.0284C184.272 40.7027 183.776 41.2292 183.132 41.608C182.492 41.983 181.731 42.1705 180.848 42.1705ZM180.86 40.2955C181.261 40.2955 181.596 40.1818 181.865 39.9545C182.134 39.7235 182.337 39.4091 182.473 39.0114C182.613 38.6136 182.683 38.161 182.683 37.6534C182.683 37.1458 182.613 36.6932 182.473 36.2955C182.337 35.8977 182.134 35.5833 181.865 35.3523C181.596 35.1212 181.261 35.0057 180.86 35.0057C180.454 35.0057 180.113 35.1212 179.837 35.3523C179.564 35.5833 179.358 35.8977 179.217 36.2955C179.081 36.6932 179.013 37.1458 179.013 37.6534C179.013 38.161 179.081 38.6136 179.217 39.0114C179.358 39.4091 179.564 39.7235 179.837 39.9545C180.113 40.1818 180.454 40.2955 180.86 40.2955ZM177.888 32.3182L180.178 30.5511H181.485L183.786 32.3182H182.041L180.842 31.3636L179.627 32.3182H177.888ZM183.189 31.3182L184.519 29.1875H186.394L184.558 31.3182H183.189ZM192.521 30.3636V42H190.101V30.3636H192.521ZM203.527 32.7898H204.931C204.927 33.4489 204.828 34.0019 204.635 34.4489C204.442 34.892 204.114 35.2254 203.652 35.4489C203.194 35.6723 202.567 35.7841 201.772 35.7841V34.7045C202.298 34.7045 202.684 34.6345 202.931 34.4943C203.181 34.3542 203.342 34.1439 203.414 33.8636C203.489 33.5795 203.527 33.2216 203.527 32.7898ZM199.953 38.2841V33.2727H202.368V42H200.05V40.4148H199.959C199.762 40.9261 199.434 41.3371 198.976 41.6477C198.522 41.9583 197.967 42.1136 197.311 42.1136C196.728 42.1136 196.215 41.9811 195.772 41.7159C195.328 41.4508 194.982 41.0739 194.732 40.5852C194.486 40.0966 194.361 39.5114 194.357 38.8295V33.2727H196.777V38.3977C196.777 38.9129 196.914 39.3201 197.186 39.6193C197.463 39.9186 197.83 40.0682 198.289 40.0682C198.58 40.0682 198.851 40.0019 199.101 39.8693C199.355 39.733 199.559 39.5322 199.715 39.267C199.874 39.0019 199.953 38.6742 199.953 38.2841ZM213.188 32.7614H214.631C214.631 33.7235 214.402 34.4735 213.944 35.0114C213.486 35.5455 212.749 35.8125 211.734 35.8125V34.8466C212.135 34.8466 212.44 34.7633 212.648 34.5966C212.857 34.4261 212.999 34.1856 213.075 33.875C213.15 33.5644 213.188 33.1932 213.188 32.7614ZM209.427 42.1705C208.544 42.1705 207.781 41.983 207.137 41.608C206.497 41.2292 206.003 40.7027 205.654 40.0284C205.306 39.3504 205.131 38.5644 205.131 37.6705C205.131 36.7689 205.306 35.9811 205.654 35.3068C206.003 34.6288 206.497 34.1023 207.137 33.7273C207.781 33.3485 208.544 33.1591 209.427 33.1591C210.309 33.1591 211.071 33.3485 211.711 33.7273C212.355 34.1023 212.851 34.6288 213.2 35.3068C213.548 35.9811 213.722 36.7689 213.722 37.6705C213.722 38.5644 213.548 39.3504 213.2 40.0284C212.851 40.7027 212.355 41.2292 211.711 41.608C211.071 41.983 210.309 42.1705 209.427 42.1705ZM209.438 40.2955C209.84 40.2955 210.175 40.1818 210.444 39.9545C210.713 39.7235 210.916 39.4091 211.052 39.0114C211.192 38.6136 211.262 38.161 211.262 37.6534C211.262 37.1458 211.192 36.6932 211.052 36.2955C210.916 35.8977 210.713 35.5833 210.444 35.3523C210.175 35.1212 209.84 35.0057 209.438 35.0057C209.033 35.0057 208.692 35.1212 208.416 35.3523C208.143 35.5833 207.936 35.8977 207.796 36.2955C207.66 36.6932 207.592 37.1458 207.592 37.6534C207.592 38.161 207.66 38.6136 207.796 39.0114C207.936 39.4091 208.143 39.7235 208.416 39.9545C208.692 40.1818 209.033 40.2955 209.438 40.2955ZM209.427 45.267C209.067 45.267 208.758 45.1477 208.501 44.9091C208.243 44.6705 208.114 44.3826 208.114 44.0455C208.114 43.7083 208.243 43.4205 208.501 43.1818C208.758 42.9432 209.067 42.8239 209.427 42.8239C209.787 42.8239 210.094 42.9432 210.347 43.1818C210.605 43.4205 210.734 43.7083 210.734 44.0455C210.734 44.3826 210.605 44.6705 210.347 44.9091C210.094 45.1477 209.787 45.267 209.427 45.267ZM217.854 36.9545V42H215.433V33.2727H217.74V34.8125H217.842C218.035 34.3049 218.359 33.9034 218.814 33.608C219.268 33.3087 219.819 33.1591 220.467 33.1591C221.073 33.1591 221.602 33.2917 222.052 33.5568C222.503 33.822 222.854 34.2008 223.104 34.6932C223.354 35.1818 223.479 35.7652 223.479 36.4432V42H221.058V36.875C221.062 36.3409 220.926 35.9242 220.649 35.625C220.372 35.322 219.992 35.1705 219.507 35.1705C219.181 35.1705 218.893 35.2405 218.643 35.3807C218.397 35.5208 218.204 35.7254 218.064 35.9943C217.927 36.2595 217.857 36.5795 217.854 36.9545ZM229.158 45.4545C228.374 45.4545 227.702 45.3466 227.141 45.1307C226.584 44.9186 226.141 44.6288 225.811 44.2614C225.482 43.8939 225.268 43.4811 225.169 43.0227L227.408 42.7216C227.476 42.8958 227.584 43.0587 227.732 43.2102C227.88 43.3617 228.075 43.483 228.317 43.5739C228.563 43.6686 228.863 43.7159 229.215 43.7159C229.741 43.7159 230.175 43.5871 230.516 43.3295C230.861 43.0758 231.033 42.6496 231.033 42.0511V40.4545H230.931C230.825 40.697 230.666 40.9261 230.453 41.142C230.241 41.358 229.969 41.5341 229.635 41.6705C229.302 41.8068 228.904 41.875 228.442 41.875C227.787 41.875 227.19 41.7235 226.652 41.4205C226.118 41.1136 225.692 40.6458 225.374 40.017C225.06 39.3845 224.902 38.5852 224.902 37.6193C224.902 36.6307 225.063 35.8049 225.385 35.142C225.707 34.4792 226.135 33.983 226.669 33.6534C227.207 33.3239 227.796 33.1591 228.436 33.1591C228.925 33.1591 229.334 33.2424 229.664 33.4091C229.993 33.572 230.258 33.7765 230.459 34.0227C230.664 34.2652 230.821 34.5038 230.931 34.7386H231.022V33.2727H233.425V42.0852C233.425 42.8277 233.243 43.4489 232.88 43.9489C232.516 44.4489 232.012 44.8239 231.368 45.0739C230.728 45.3277 229.991 45.4545 229.158 45.4545ZM229.209 40.0568C229.599 40.0568 229.929 39.9602 230.198 39.767C230.471 39.5701 230.679 39.2898 230.823 38.9261C230.971 38.5587 231.044 38.1193 231.044 37.608C231.044 37.0966 230.972 36.6534 230.828 36.2784C230.685 35.8996 230.476 35.6061 230.203 35.3977C229.931 35.1894 229.599 35.0852 229.209 35.0852C228.811 35.0852 228.476 35.1932 228.203 35.4091C227.931 35.6212 227.724 35.9167 227.584 36.2955C227.444 36.6742 227.374 37.1117 227.374 37.608C227.374 38.1117 227.444 38.5473 227.584 38.9148C227.728 39.2784 227.935 39.5606 228.203 39.7614C228.476 39.9583 228.811 40.0568 229.209 40.0568Z" fill="white"/>
<path d="M212.066 52.019C212.546 51.7984 213.158 52.0289 213.434 52.5339C213.709 53.0388 213.543 53.6269 213.063 53.8475L212.066 52.019ZM187.436 92.3883L183.397 81.2196L194.809 84.3582L187.436 92.3883ZM213.063 53.8475C205.918 57.1287 200.994 60.6877 197.431 65.3808C193.863 70.0788 191.606 75.9824 189.919 84.0529L187.954 83.4471C189.67 75.2393 192.001 69.053 195.784 64.0715C199.57 59.0851 204.758 55.3749 212.066 52.019L213.063 53.8475Z" fill="white"/>
<path d="M33.1949 38.3636L36.0074 47.2045H36.1153L38.9335 38.3636H41.6608L37.6494 50H34.479L30.4619 38.3636H33.1949ZM48.4525 46.2841V41.2727H50.873V50H48.5491V48.4148H48.4582C48.2612 48.9261 47.9336 49.3371 47.4752 49.6477C47.0207 49.9583 46.4658 50.1136 45.8105 50.1136C45.2271 50.1136 44.7139 49.9811 44.2707 49.7159C43.8275 49.4508 43.4809 49.0739 43.2309 48.5852C42.9847 48.0966 42.8597 47.5114 42.8559 46.8295V41.2727H45.2764V46.3977C45.2802 46.9129 45.4184 47.3201 45.6911 47.6193C45.9639 47.9186 46.3294 48.0682 46.7877 48.0682C47.0794 48.0682 47.3521 48.0019 47.6059 47.8693C47.8597 47.733 48.0642 47.5322 48.2195 47.267C48.3786 47.0019 48.4563 46.6742 48.4525 46.2841ZM56.5922 50.1705C55.7096 50.1705 54.9464 49.983 54.3024 49.608C53.6623 49.2292 53.168 48.7027 52.8195 48.0284C52.471 47.3504 52.2968 46.5644 52.2968 45.6705C52.2968 44.7689 52.471 43.9811 52.8195 43.3068C53.168 42.6288 53.6623 42.1023 54.3024 41.7273C54.9464 41.3485 55.7096 41.1591 56.5922 41.1591C57.4748 41.1591 58.2362 41.3485 58.8763 41.7273C59.5202 42.1023 60.0165 42.6288 60.3649 43.3068C60.7134 43.9811 60.8877 44.7689 60.8877 45.6705C60.8877 46.5644 60.7134 47.3504 60.3649 48.0284C60.0165 48.7027 59.5202 49.2292 58.8763 49.608C58.2362 49.983 57.4748 50.1705 56.5922 50.1705ZM56.6036 48.2955C57.0051 48.2955 57.3403 48.1818 57.6093 47.9545C57.8782 47.7235 58.0809 47.4091 58.2172 47.0114C58.3574 46.6136 58.4274 46.161 58.4274 45.6534C58.4274 45.1458 58.3574 44.6932 58.2172 44.2955C58.0809 43.8977 57.8782 43.5833 57.6093 43.3523C57.3403 43.1212 57.0051 43.0057 56.6036 43.0057C56.1983 43.0057 55.8574 43.1212 55.5809 43.3523C55.3081 43.5833 55.1017 43.8977 54.9615 44.2955C54.8252 44.6932 54.757 45.1458 54.757 45.6534C54.757 46.161 54.8252 46.6136 54.9615 47.0114C55.1017 47.4091 55.3081 47.7235 55.5809 47.9545C55.8574 48.1818 56.1983 48.2955 56.6036 48.2955ZM53.632 40.3182L55.9218 38.5511H57.2286L59.5297 40.3182H57.7854L56.5865 39.3636L55.3706 40.3182H53.632ZM58.9331 39.3182L60.2627 37.1875H62.1377L60.3024 39.3182H58.9331ZM66.9436 41.2727V43.0909H61.6879V41.2727H66.9436ZM62.8811 39.1818H65.3015V47.3182C65.3015 47.5417 65.3356 47.7159 65.4038 47.8409C65.472 47.9621 65.5667 48.0473 65.6879 48.0966C65.8129 48.1458 65.9568 48.1705 66.1197 48.1705C66.2334 48.1705 66.347 48.161 66.4606 48.142C66.5743 48.1193 66.6614 48.1023 66.722 48.0909L67.1027 49.892C66.9815 49.9299 66.811 49.9735 66.5913 50.0227C66.3716 50.0758 66.1046 50.108 65.7902 50.1193C65.2068 50.142 64.6955 50.0644 64.2561 49.8864C63.8205 49.7083 63.4815 49.4318 63.239 49.0568C62.9966 48.6818 62.8773 48.2083 62.8811 47.6364V39.1818ZM75.1193 50.142C74.4564 50.142 73.8561 49.9716 73.3182 49.6307C72.7841 49.286 72.3598 48.7803 72.0455 48.1136C71.7348 47.4432 71.5795 46.6212 71.5795 45.6477C71.5795 44.6477 71.7405 43.8163 72.0625 43.1534C72.3845 42.4867 72.8125 41.9886 73.3466 41.6591C73.8845 41.3258 74.4735 41.1591 75.1136 41.1591C75.6023 41.1591 76.0095 41.2424 76.3352 41.4091C76.6648 41.572 76.9299 41.7765 77.1307 42.0227C77.3352 42.2652 77.4905 42.5038 77.5966 42.7386H77.6705V38.3636H80.0852V50H77.6989V48.6023H77.5966C77.483 48.8447 77.322 49.0852 77.1136 49.3239C76.9091 49.5587 76.642 49.7538 76.3125 49.9091C75.9867 50.0644 75.589 50.142 75.1193 50.142ZM75.8864 48.2159C76.2765 48.2159 76.6061 48.1098 76.875 47.8977C77.1477 47.6818 77.3561 47.3807 77.5 46.9943C77.6477 46.608 77.7216 46.1553 77.7216 45.6364C77.7216 45.1174 77.6496 44.6667 77.5057 44.2841C77.3617 43.9015 77.1534 43.6061 76.8807 43.3977C76.608 43.1894 76.2765 43.0852 75.8864 43.0852C75.4886 43.0852 75.1534 43.1932 74.8807 43.4091C74.608 43.625 74.4015 43.9242 74.2614 44.3068C74.1212 44.6894 74.0511 45.1326 74.0511 45.6364C74.0511 46.1439 74.1212 46.5928 74.2614 46.983C74.4053 47.3693 74.6117 47.6723 74.8807 47.892C75.1534 48.108 75.4886 48.2159 75.8864 48.2159ZM75.4091 40.6761V39.25H81.0795V40.6761H75.4091ZM85.8926 50.1705C84.9948 50.1705 84.2221 49.9886 83.5744 49.625C82.9304 49.2576 82.4342 48.7386 82.0857 48.0682C81.7373 47.3939 81.563 46.5966 81.563 45.6761C81.563 44.7784 81.7373 43.9905 82.0857 43.3125C82.4342 42.6345 82.9248 42.1061 83.5573 41.7273C84.1937 41.3485 84.9399 41.1591 85.796 41.1591C86.3717 41.1591 86.9077 41.2519 87.4039 41.4375C87.9039 41.6193 88.3395 41.8939 88.7107 42.2614C89.0857 42.6288 89.3774 43.0909 89.5857 43.6477C89.7941 44.2008 89.8982 44.8485 89.8982 45.5909V46.2557H82.5289V44.7557H87.6198C87.6198 44.4072 87.5441 44.0985 87.3926 43.8295C87.241 43.5606 87.0308 43.3504 86.7619 43.1989C86.4967 43.0436 86.188 42.9659 85.8357 42.9659C85.4683 42.9659 85.1426 43.0511 84.8585 43.2216C84.5782 43.3883 84.3585 43.6136 84.1994 43.8977C84.0403 44.178 83.9588 44.4905 83.9551 44.8352V46.2614C83.9551 46.6932 84.0346 47.0663 84.1937 47.3807C84.3566 47.6951 84.5857 47.9375 84.8812 48.108C85.1766 48.2784 85.527 48.3636 85.9323 48.3636C86.2013 48.3636 86.4475 48.3258 86.671 48.25C86.8944 48.1742 87.0857 48.0606 87.2448 47.9091C87.4039 47.7576 87.5251 47.572 87.6085 47.3523L89.8471 47.5C89.7335 48.0379 89.5005 48.5076 89.1482 48.9091C88.7998 49.3068 88.349 49.6174 87.796 49.8409C87.2467 50.0606 86.6123 50.1705 85.8926 50.1705ZM86.4153 38.6136L88.6539 40.3807H86.9891L85.7278 39.3864L84.4494 40.3807H82.7846L85.0232 38.6136H86.4153ZM89.171 39.3864H87.9153L87.8073 38.5341C88.1331 38.5189 88.3698 38.4773 88.5176 38.4091C88.6653 38.3409 88.7391 38.2405 88.7391 38.108C88.7391 37.9337 88.6463 37.8163 88.4607 37.7557C88.2751 37.6951 88.0441 37.6648 87.7676 37.6648L87.8244 36.75C88.5933 36.75 89.1804 36.8636 89.5857 37.0909C89.991 37.3144 90.1937 37.6307 90.1937 38.0398C90.1937 38.3239 90.0857 38.5417 89.8698 38.6932C89.6577 38.8409 89.4248 38.9356 89.171 38.9773V39.3864ZM98.0768 50.142C97.4139 50.142 96.8136 49.9716 96.2757 49.6307C95.7416 49.286 95.3174 48.7803 95.003 48.1136C94.6924 47.4432 94.537 46.6212 94.537 45.6477C94.537 44.6477 94.698 43.8163 95.02 43.1534C95.342 42.4867 95.77 41.9886 96.3041 41.6591C96.842 41.3258 97.431 41.1591 98.0711 41.1591C98.5598 41.1591 98.967 41.2424 99.2927 41.4091C99.6223 41.572 99.8874 41.7765 100.088 42.0227C100.293 42.2652 100.448 42.5038 100.554 42.7386H100.628V38.3636H103.043V50H100.656V48.6023H100.554C100.44 48.8447 100.279 49.0852 100.071 49.3239C99.8666 49.5587 99.5995 49.7538 99.27 49.9091C98.9442 50.0644 98.5465 50.142 98.0768 50.142ZM98.8439 48.2159C99.234 48.2159 99.5636 48.1098 99.8325 47.8977C100.105 47.6818 100.314 47.3807 100.458 46.9943C100.605 46.608 100.679 46.1553 100.679 45.6364C100.679 45.1174 100.607 44.6667 100.463 44.2841C100.319 43.9015 100.111 43.6061 99.8382 43.3977C99.5655 43.1894 99.234 43.0852 98.8439 43.0852C98.4461 43.0852 98.1109 43.1932 97.8382 43.4091C97.5655 43.625 97.359 43.9242 97.2189 44.3068C97.0787 44.6894 97.0086 45.1326 97.0086 45.6364C97.0086 46.1439 97.0787 46.5928 97.2189 46.983C97.3628 47.3693 97.5692 47.6723 97.8382 47.892C98.1109 48.108 98.4461 48.2159 98.8439 48.2159ZM98.3666 40.6761V39.25H104.037V40.6761H98.3666ZM108.816 50.1705C107.933 50.1705 107.17 49.983 106.526 49.608C105.886 49.2292 105.392 48.7027 105.043 48.0284C104.695 47.3504 104.521 46.5644 104.521 45.6705C104.521 44.7689 104.695 43.9811 105.043 43.3068C105.392 42.6288 105.886 42.1023 106.526 41.7273C107.17 41.3485 107.933 41.1591 108.816 41.1591C109.699 41.1591 110.46 41.3485 111.1 41.7273C111.744 42.1023 112.24 42.6288 112.589 43.3068C112.937 43.9811 113.111 44.7689 113.111 45.6705C113.111 46.5644 112.937 47.3504 112.589 48.0284C112.24 48.7027 111.744 49.2292 111.1 49.608C110.46 49.983 109.699 50.1705 108.816 50.1705ZM108.827 48.2955C109.229 48.2955 109.564 48.1818 109.833 47.9545C110.102 47.7235 110.305 47.4091 110.441 47.0114C110.581 46.6136 110.651 46.161 110.651 45.6534C110.651 45.1458 110.581 44.6932 110.441 44.2955C110.305 43.8977 110.102 43.5833 109.833 43.3523C109.564 43.1212 109.229 43.0057 108.827 43.0057C108.422 43.0057 108.081 43.1212 107.805 43.3523C107.532 43.5833 107.325 43.8977 107.185 44.2955C107.049 44.6932 106.981 45.1458 106.981 45.6534C106.981 46.161 107.049 46.6136 107.185 47.0114C107.325 47.4091 107.532 47.7235 107.805 47.9545C108.081 48.1818 108.422 48.2955 108.827 48.2955ZM109.492 38.6136L111.731 40.3807H110.066L108.805 39.3864L107.526 40.3807H105.861L108.1 38.6136H109.492ZM112.248 39.3864H110.992L110.884 38.5341C111.21 38.5189 111.447 38.4773 111.594 38.4091C111.742 38.3409 111.816 38.2405 111.816 38.108C111.816 37.9337 111.723 37.8163 111.538 37.7557C111.352 37.6951 111.121 37.6648 110.844 37.6648L110.901 36.75C111.67 36.75 112.257 36.8636 112.663 37.0909C113.068 37.3144 113.271 37.6307 113.271 38.0398C113.271 38.3239 113.163 38.5417 112.947 38.6932C112.735 38.8409 112.502 38.9356 112.248 38.9773V39.3864ZM114.525 50V41.2727H116.946V50H114.525ZM115.741 40.1477C115.381 40.1477 115.073 40.0284 114.815 39.7898C114.561 39.5473 114.434 39.2576 114.434 38.9205C114.434 38.5871 114.561 38.3011 114.815 38.0625C115.073 37.8201 115.381 37.6989 115.741 37.6989C116.101 37.6989 116.408 37.8201 116.662 38.0625C116.919 38.3011 117.048 38.5871 117.048 38.9205C117.048 39.2576 116.919 39.5473 116.662 39.7898C116.408 40.0284 116.101 40.1477 115.741 40.1477ZM16.3399 77.4545C15.5558 77.4545 14.8835 77.3466 14.3229 77.1307C13.7661 76.9186 13.3229 76.6288 12.9933 76.2614C12.6638 75.8939 12.4498 75.4811 12.3513 75.0227L14.5899 74.7216C14.6581 74.8958 14.7661 75.0587 14.9138 75.2102C15.0615 75.3617 15.2566 75.483 15.499 75.5739C15.7452 75.6686 16.0445 75.7159 16.3967 75.7159C16.9232 75.7159 17.357 75.5871 17.6979 75.3295C18.0426 75.0758 18.2149 74.6496 18.2149 74.0511V72.4545H18.1126C18.0066 72.697 17.8475 72.9261 17.6354 73.142C17.4232 73.358 17.1505 73.5341 16.8172 73.6705C16.4839 73.8068 16.0861 73.875 15.624 73.875C14.9687 73.875 14.3721 73.7235 13.8342 73.4205C13.3001 73.1136 12.874 72.6458 12.5558 72.017C12.2414 71.3845 12.0842 70.5852 12.0842 69.6193C12.0842 68.6307 12.2452 67.8049 12.5672 67.142C12.8892 66.4792 13.3172 65.983 13.8513 65.6534C14.3892 65.3239 14.9782 65.1591 15.6183 65.1591C16.107 65.1591 16.5161 65.2424 16.8456 65.4091C17.1751 65.572 17.4403 65.7765 17.6411 66.0227C17.8456 66.2652 18.0028 66.5038 18.1126 66.7386H18.2036V65.2727H20.607V74.0852C20.607 74.8277 20.4251 75.4489 20.0615 75.9489C19.6979 76.4489 19.1941 76.8239 18.5501 77.0739C17.91 77.3277 17.1732 77.4545 16.3399 77.4545ZM16.3911 72.0568C16.7812 72.0568 17.1107 71.9602 17.3797 71.767C17.6524 71.5701 17.8607 71.2898 18.0047 70.9261C18.1524 70.5587 18.2263 70.1193 18.2263 69.608C18.2263 69.0966 18.1543 68.6534 18.0104 68.2784C17.8664 67.8996 17.6581 67.6061 17.3854 67.3977C17.1126 67.1894 16.7812 67.0852 16.3911 67.0852C15.9933 67.0852 15.6581 67.1932 15.3854 67.4091C15.1126 67.6212 14.9062 67.9167 14.7661 68.2955C14.6259 68.6742 14.5558 69.1117 14.5558 69.608C14.5558 70.1117 14.6259 70.5473 14.7661 70.9148C14.91 71.2784 15.1164 71.5606 15.3854 71.7614C15.6581 71.9583 15.9933 72.0568 16.3911 72.0568ZM22.3731 74V65.2727H24.7936V74H22.3731ZM23.589 64.1477C23.2292 64.1477 22.9204 64.0284 22.6629 63.7898C22.4091 63.5473 22.2822 63.2576 22.2822 62.9205C22.2822 62.5871 22.4091 62.3011 22.6629 62.0625C22.9204 61.8201 23.2292 61.6989 23.589 61.6989C23.9489 61.6989 24.2557 61.8201 24.5095 62.0625C24.767 62.3011 24.8958 62.5871 24.8958 62.9205C24.8958 63.2576 24.767 63.5473 24.5095 63.7898C24.2557 64.0284 23.9489 64.1477 23.589 64.1477ZM35.7997 64.7898H37.2032C37.1994 65.4489 37.1009 66.0019 36.9077 66.4489C36.7145 66.892 36.3869 67.2254 35.9247 67.4489C35.4664 67.6723 34.8395 67.7841 34.0441 67.7841V66.7045C34.5706 66.7045 34.9569 66.6345 35.2032 66.4943C35.4532 66.3542 35.6141 66.1439 35.6861 65.8636C35.7619 65.5795 35.7997 65.2216 35.7997 64.7898ZM32.2259 70.2841V65.2727H34.6407V74H32.3225V72.4148H32.2316C32.0346 72.9261 31.7069 73.3371 31.2486 73.6477C30.7941 73.9583 30.2391 74.1136 29.5838 74.1136C29.0005 74.1136 28.4872 73.9811 28.0441 73.7159C27.6009 73.4508 27.2543 73.0739 27.0043 72.5852C26.7581 72.0966 26.6331 71.5114 26.6293 70.8295V65.2727H29.0497V70.3977C29.0497 70.9129 29.1861 71.3201 29.4588 71.6193C29.7354 71.9186 30.1028 72.0682 30.5611 72.0682C30.8528 72.0682 31.1236 72.0019 31.3736 71.8693C31.6274 71.733 31.8319 71.5322 31.9872 71.267C32.1463 71.0019 32.2259 70.6742 32.2259 70.2841ZM29.0213 64.1989L27.6747 64.1818C27.6747 63.4583 27.8528 62.9034 28.2088 62.517C28.5687 62.1307 29.0062 61.9356 29.5213 61.9318C29.7865 61.9318 30.0138 61.9754 30.2032 62.0625C30.3963 62.1458 30.5687 62.2443 30.7202 62.358C30.8755 62.4716 31.0232 62.572 31.1634 62.6591C31.3035 62.7424 31.455 62.7841 31.6179 62.7841C31.8376 62.7803 32.0043 62.6989 32.1179 62.5398C32.2354 62.3769 32.2941 62.1648 32.2941 61.9034L33.6179 61.9432C33.6104 62.6591 33.4285 63.2121 33.0725 63.6023C32.7164 63.9886 32.2827 64.1837 31.7713 64.1875C31.4872 64.1875 31.2486 64.1458 31.0554 64.0625C30.866 63.9754 30.6994 63.8769 30.5554 63.767C30.4115 63.6534 30.2713 63.553 30.135 63.4659C29.9986 63.3788 29.8452 63.3352 29.6747 63.3352C29.4778 63.3352 29.3187 63.4129 29.1975 63.5682C29.08 63.7235 29.0213 63.9337 29.0213 64.1989ZM40.2449 74.1648C39.688 74.1648 39.1918 74.0682 38.7562 73.875C38.3206 73.678 37.9759 73.3883 37.7221 73.0057C37.4721 72.6193 37.3471 72.1383 37.3471 71.5625C37.3471 71.0777 37.4361 70.6705 37.6142 70.3409C37.7922 70.0114 38.0346 69.7462 38.3415 69.5455C38.6483 69.3447 38.9968 69.1932 39.3869 69.0909C39.7808 68.9886 40.1937 68.9167 40.6255 68.875C41.1331 68.822 41.5422 68.7727 41.8528 68.7273C42.1634 68.678 42.3888 68.6061 42.529 68.5114C42.6691 68.4167 42.7392 68.2765 42.7392 68.0909V68.0568C42.7392 67.697 42.6255 67.4186 42.3983 67.2216C42.1748 67.0246 41.8566 66.9261 41.4437 66.9261C41.0081 66.9261 40.6615 67.0227 40.404 67.2159C40.1464 67.4053 39.9759 67.6439 39.8926 67.9318L37.654 67.75C37.7676 67.2197 37.9911 66.7614 38.3244 66.375C38.6577 65.9848 39.0877 65.6856 39.6142 65.4773C40.1445 65.2652 40.7581 65.1591 41.4551 65.1591C41.9399 65.1591 42.404 65.2159 42.8471 65.3295C43.2941 65.4432 43.6899 65.6193 44.0346 65.858C44.3831 66.0966 44.6577 66.4034 44.8585 66.7784C45.0593 67.1496 45.1596 67.5947 45.1596 68.1136V74H42.8642V72.7898H42.796C42.6558 73.0625 42.4683 73.303 42.2335 73.5114C41.9986 73.7159 41.7165 73.8769 41.3869 73.9943C41.0574 74.108 40.6767 74.1648 40.2449 74.1648ZM40.938 72.4943C41.2941 72.4943 41.6085 72.4242 41.8812 72.2841C42.154 72.1402 42.368 71.947 42.5233 71.7045C42.6786 71.4621 42.7562 71.1875 42.7562 70.8807V69.9545C42.6805 70.0038 42.5763 70.0492 42.4437 70.0909C42.3149 70.1288 42.1691 70.1648 42.0062 70.1989C41.8433 70.2292 41.6805 70.2576 41.5176 70.2841C41.3547 70.3068 41.207 70.3277 41.0744 70.3466C40.7903 70.3883 40.5422 70.4545 40.3301 70.5455C40.118 70.6364 39.9532 70.7595 39.8358 70.9148C39.7183 71.0663 39.6596 71.2557 39.6596 71.483C39.6596 71.8125 39.779 72.0644 40.0176 72.2386C40.26 72.4091 40.5668 72.4943 40.938 72.4943ZM54.3638 74.1705C53.4698 74.1705 52.7009 73.9811 52.057 73.6023C51.4168 73.2197 50.9244 72.6894 50.5797 72.0114C50.2388 71.3333 50.0683 70.553 50.0683 69.6705C50.0683 68.7765 50.2407 67.9924 50.5854 67.3182C50.9339 66.6402 51.4282 66.1117 52.0683 65.733C52.7085 65.3504 53.4698 65.1591 54.3524 65.1591C55.1138 65.1591 55.7804 65.2973 56.3524 65.5739C56.9244 65.8504 57.377 66.2386 57.7104 66.7386C58.0437 67.2386 58.2274 67.8258 58.2615 68.5H55.9774C55.913 68.0644 55.7426 67.714 55.4661 67.4489C55.1933 67.1799 54.8354 67.0455 54.3922 67.0455C54.0172 67.0455 53.6895 67.1477 53.4092 67.3523C53.1327 67.553 52.9168 67.8466 52.7615 68.233C52.6062 68.6193 52.5286 69.0871 52.5286 69.6364C52.5286 70.1932 52.6043 70.6667 52.7558 71.0568C52.9111 71.447 53.1289 71.7443 53.4092 71.9489C53.6895 72.1534 54.0172 72.2557 54.3922 72.2557C54.6687 72.2557 54.9168 72.1989 55.1365 72.0852C55.36 71.9716 55.5437 71.8068 55.6876 71.5909C55.8354 71.3712 55.932 71.108 55.9774 70.8011H58.2615C58.2236 71.4678 58.0418 72.0549 57.7161 72.5625C57.3941 73.0663 56.949 73.4602 56.3808 73.7443C55.8126 74.0284 55.1403 74.1705 54.3638 74.1705ZM62.1399 74.1648C61.583 74.1648 61.0868 74.0682 60.6512 73.875C60.2156 73.678 59.8709 73.3883 59.6171 73.0057C59.3671 72.6193 59.2421 72.1383 59.2421 71.5625C59.2421 71.0777 59.3311 70.6705 59.5092 70.3409C59.6872 70.0114 59.9296 69.7462 60.2365 69.5455C60.5433 69.3447 60.8918 69.1932 61.2819 69.0909C61.6758 68.9886 62.0887 68.9167 62.5205 68.875C63.0281 68.822 63.4372 68.7727 63.7478 68.7273C64.0584 68.678 64.2838 68.6061 64.424 68.5114C64.5641 68.4167 64.6342 68.2765 64.6342 68.0909V68.0568C64.6342 67.697 64.5205 67.4186 64.2933 67.2216C64.0698 67.0246 63.7516 66.9261 63.3387 66.9261C62.9031 66.9261 62.5565 67.0227 62.299 67.2159C62.0414 67.4053 61.8709 67.6439 61.7876 67.9318L59.549 67.75C59.6626 67.2197 59.8861 66.7614 60.2194 66.375C60.5527 65.9848 60.9827 65.6856 61.5092 65.4773C62.0395 65.2652 62.6531 65.1591 63.3501 65.1591C63.8349 65.1591 64.299 65.2159 64.7421 65.3295C65.1891 65.4432 65.5849 65.6193 65.9296 65.858C66.2781 66.0966 66.5527 66.4034 66.7535 66.7784C66.9543 67.1496 67.0546 67.5947 67.0546 68.1136V74H64.7592V72.7898H64.691C64.5508 73.0625 64.3633 73.303 64.1285 73.5114C63.8936 73.7159 63.6115 73.8769 63.2819 73.9943C62.9524 74.108 62.5717 74.1648 62.1399 74.1648ZM62.833 72.4943C63.1891 72.4943 63.5035 72.4242 63.7762 72.2841C64.049 72.1402 64.263 71.947 64.4183 71.7045C64.5736 71.4621 64.6512 71.1875 64.6512 70.8807V69.9545C64.5755 70.0038 64.4713 70.0492 64.3387 70.0909C64.2099 70.1288 64.0641 70.1648 63.9012 70.1989C63.7383 70.2292 63.5755 70.2576 63.4126 70.2841C63.2497 70.3068 63.102 70.3277 62.9694 70.3466C62.6853 70.3883 62.4372 70.4545 62.2251 70.5455C62.013 70.6364 61.8482 70.7595 61.7308 70.9148C61.6133 71.0663 61.5546 71.2557 61.5546 71.483C61.5546 71.8125 61.674 72.0644 61.9126 72.2386C62.155 72.4091 62.4618 72.4943 62.833 72.4943ZM62.5717 64.1477L63.7762 61.5625H66.0149L64.2819 64.1477H62.5717ZM72.7157 74.1705C71.8217 74.1705 71.0528 73.9811 70.4088 73.6023C69.7687 73.2197 69.2763 72.6894 68.9316 72.0114C68.5907 71.3333 68.4202 70.553 68.4202 69.6705C68.4202 68.7765 68.5925 67.9924 68.9372 67.3182C69.2857 66.6402 69.78 66.1117 70.4202 65.733C71.0604 65.3504 71.8217 65.1591 72.7043 65.1591C73.4657 65.1591 74.1323 65.2973 74.7043 65.5739C75.2763 65.8504 75.7289 66.2386 76.0622 66.7386C76.3956 67.2386 76.5793 67.8258 76.6134 68.5H74.3293C74.2649 68.0644 74.0944 67.714 73.8179 67.4489C73.5452 67.1799 73.1872 67.0455 72.7441 67.0455C72.3691 67.0455 72.0414 67.1477 71.7611 67.3523C71.4846 67.553 71.2687 67.8466 71.1134 68.233C70.9581 68.6193 70.8804 69.0871 70.8804 69.6364C70.8804 70.1932 70.9562 70.6667 71.1077 71.0568C71.263 71.447 71.4808 71.7443 71.7611 71.9489C72.0414 72.1534 72.3691 72.2557 72.7441 72.2557C73.0206 72.2557 73.2687 72.1989 73.4884 72.0852C73.7119 71.9716 73.8956 71.8068 74.0395 71.5909C74.1872 71.3712 74.2838 71.108 74.3293 70.8011H76.6134C76.5755 71.4678 76.3937 72.0549 76.0679 72.5625C75.746 73.0663 75.3009 73.4602 74.7327 73.7443C74.1645 74.0284 73.4922 74.1705 72.7157 74.1705ZM84.7621 74.142C84.0992 74.142 83.4989 73.9716 82.961 73.6307C82.4269 73.286 82.0027 72.7803 81.6883 72.1136C81.3777 71.4432 81.2224 70.6212 81.2224 69.6477C81.2224 68.6477 81.3833 67.8163 81.7053 67.1534C82.0273 66.4867 82.4553 65.9886 82.9894 65.6591C83.5273 65.3258 84.1163 65.1591 84.7564 65.1591C85.2451 65.1591 85.6523 65.2424 85.978 65.4091C86.3076 65.572 86.5727 65.7765 86.7735 66.0227C86.978 66.2652 87.1333 66.5038 87.2394 66.7386H87.3133V62.3636H89.728V74H87.3417V72.6023H87.2394C87.1258 72.8447 86.9648 73.0852 86.7564 73.3239C86.5519 73.5587 86.2849 73.7538 85.9553 73.9091C85.6295 74.0644 85.2318 74.142 84.7621 74.142ZM85.5292 72.2159C85.9193 72.2159 86.2489 72.1098 86.5178 71.8977C86.7905 71.6818 86.9989 71.3807 87.1428 70.9943C87.2905 70.608 87.3644 70.1553 87.3644 69.6364C87.3644 69.1174 87.2924 68.6667 87.1485 68.2841C87.0045 67.9015 86.7962 67.6061 86.5235 67.3977C86.2508 67.1894 85.9193 67.0852 85.5292 67.0852C85.1314 67.0852 84.7962 67.1932 84.5235 67.4091C84.2508 67.625 84.0443 67.9242 83.9042 68.3068C83.764 68.6894 83.6939 69.1326 83.6939 69.6364C83.6939 70.1439 83.764 70.5928 83.9042 70.983C84.0481 71.3693 84.2545 71.6723 84.5235 71.892C84.7962 72.108 85.1314 72.2159 85.5292 72.2159ZM91.5581 74V65.2727H93.9786V74H91.5581ZM92.774 64.1477C92.4142 64.1477 92.1055 64.0284 91.8479 63.7898C91.5941 63.5473 91.4672 63.2576 91.4672 62.9205C91.4672 62.5871 91.5941 62.3011 91.8479 62.0625C92.1055 61.8201 92.4142 61.6989 92.774 61.6989C93.1339 61.6989 93.4407 61.8201 93.6945 62.0625C93.952 62.3011 94.0808 62.5871 94.0808 62.9205C94.0808 63.2576 93.952 63.5473 93.6945 63.7898C93.4407 64.0284 93.1339 64.1477 92.774 64.1477ZM92.7911 77.267C92.4312 77.267 92.1225 77.1477 91.8649 76.9091C91.6073 76.6705 91.4786 76.3826 91.4786 76.0455C91.4786 75.7083 91.6073 75.4205 91.8649 75.1818C92.1225 74.9432 92.4312 74.8239 92.7911 74.8239C93.1509 74.8239 93.4577 74.9432 93.7115 75.1818C93.9691 75.4205 94.0979 75.7083 94.0979 76.0455C94.0979 76.3826 93.9691 76.6705 93.7115 76.9091C93.4577 77.1477 93.1509 77.267 92.7911 77.267ZM99.7007 74.1705C98.8067 74.1705 98.0378 73.9811 97.3938 73.6023C96.7537 73.2197 96.2613 72.6894 95.9166 72.0114C95.5757 71.3333 95.4052 70.553 95.4052 69.6705C95.4052 68.7765 95.5775 67.9924 95.9222 67.3182C96.2707 66.6402 96.765 66.1117 97.4052 65.733C98.0454 65.3504 98.8067 65.1591 99.6893 65.1591C100.451 65.1591 101.117 65.2973 101.689 65.5739C102.261 65.8504 102.714 66.2386 103.047 66.7386C103.381 67.2386 103.564 67.8258 103.598 68.5H101.314C101.25 68.0644 101.079 67.714 100.803 67.4489C100.53 67.1799 100.172 67.0455 99.7291 67.0455C99.3541 67.0455 99.0264 67.1477 98.7461 67.3523C98.4696 67.553 98.2537 67.8466 98.0984 68.233C97.9431 68.6193 97.8654 69.0871 97.8654 69.6364C97.8654 70.1932 97.9412 70.6667 98.0927 71.0568C98.248 71.447 98.4658 71.7443 98.7461 71.9489C99.0264 72.1534 99.3541 72.2557 99.7291 72.2557C100.006 72.2557 100.254 72.1989 100.473 72.0852C100.697 71.9716 100.881 71.8068 101.025 71.5909C101.172 71.3712 101.269 71.108 101.314 70.8011H103.598C103.561 71.4678 103.379 72.0549 103.053 72.5625C102.731 73.0663 102.286 73.4602 101.718 73.7443C101.15 74.0284 100.477 74.1705 99.7007 74.1705ZM107.409 68.9545V74H104.988V62.3636H107.34V66.8125H107.443C107.64 66.2973 107.958 65.8939 108.397 65.6023C108.837 65.3068 109.388 65.1591 110.051 65.1591C110.657 65.1591 111.185 65.2917 111.636 65.5568C112.09 65.8182 112.443 66.1951 112.693 66.6875C112.946 67.1761 113.071 67.7614 113.068 68.4432V74H110.647V68.875C110.651 68.3371 110.515 67.9186 110.238 67.6193C109.965 67.3201 109.583 67.1705 109.09 67.1705C108.761 67.1705 108.469 67.2405 108.215 67.3807C107.965 67.5208 107.768 67.7254 107.624 67.9943C107.484 68.2595 107.412 68.5795 107.409 68.9545ZM126.492 65.2727L123.441 74H120.714L117.662 65.2727H120.219L122.032 71.517H122.123L123.929 65.2727H126.492ZM133.167 70.2841V65.2727H135.588V74H133.264V72.4148H133.173C132.976 72.9261 132.648 73.3371 132.19 73.6477C131.735 73.9583 131.18 74.1136 130.525 74.1136C129.942 74.1136 129.429 73.9811 128.985 73.7159C128.542 73.4508 128.196 73.0739 127.946 72.5852C127.699 72.0966 127.574 71.5114 127.571 70.8295V65.2727H129.991V70.3977C129.995 70.9129 130.133 71.3201 130.406 71.6193C130.679 71.9186 131.044 72.0682 131.502 72.0682C131.794 72.0682 132.067 72.0019 132.321 71.8693C132.574 71.733 132.779 71.5322 132.934 71.267C133.093 71.0019 133.171 70.6742 133.167 70.2841ZM131.946 77.267C131.586 77.267 131.277 77.1477 131.019 76.9091C130.762 76.6705 130.633 76.3826 130.633 76.0455C130.633 75.7083 130.762 75.4205 131.019 75.1818C131.277 74.9432 131.586 74.8239 131.946 74.8239C132.305 74.8239 132.612 74.9432 132.866 75.1818C133.124 75.4205 133.252 75.7083 133.252 76.0455C133.252 76.3826 133.124 76.6705 132.866 76.9091C132.612 77.1477 132.305 77.267 131.946 77.267Z" fill="white"/>
<path d="M4 88L14 93.7735V82.2265L4 88ZM144 88L134 82.2265V93.7735L144 88ZM13 89L135 89V87L13 87V89Z" fill="white"/>
<g filter="url(#filter0_d_15855_50168)">
<rect x="4" y="98" width="358" height="72" rx="8" fill="white" shape-rendering="crispEdges"/>
<path d="M22.4084 120.746C22.3686 120.345 22.1979 120.034 21.8963 119.812C21.5947 119.59 21.1854 119.479 20.6683 119.479C20.317 119.479 20.0204 119.528 19.7784 119.628C19.5365 119.724 19.3509 119.858 19.2216 120.031C19.0956 120.203 19.0327 120.398 19.0327 120.617C19.026 120.799 19.0642 120.959 19.147 121.094C19.2332 121.23 19.3509 121.348 19.5 121.447C19.6491 121.544 19.8215 121.628 20.017 121.701C20.2126 121.771 20.4214 121.83 20.6435 121.88L21.5582 122.099C22.0024 122.198 22.41 122.331 22.7812 122.496C23.1525 122.662 23.474 122.866 23.7457 123.108C24.0175 123.35 24.228 123.635 24.3771 123.963C24.5296 124.291 24.6075 124.667 24.6108 125.092C24.6075 125.715 24.4484 126.255 24.1335 126.712C23.822 127.166 23.3712 127.519 22.7812 127.771C22.1946 128.02 21.487 128.144 20.6584 128.144C19.8364 128.144 19.1205 128.018 18.5107 127.766C17.9041 127.514 17.4302 127.142 17.0888 126.648C16.7507 126.151 16.5734 125.536 16.5568 124.803H18.6399C18.6631 125.145 18.7609 125.43 18.9332 125.658C19.1089 125.884 19.3426 126.054 19.6342 126.17C19.9292 126.283 20.2623 126.339 20.6335 126.339C20.9981 126.339 21.3146 126.286 21.5831 126.18C21.8549 126.074 22.0653 125.927 22.2145 125.738C22.3636 125.549 22.4382 125.332 22.4382 125.087C22.4382 124.858 22.3703 124.666 22.2344 124.51C22.1018 124.354 21.9063 124.222 21.6477 124.112C21.3925 124.003 21.0793 123.903 20.7081 123.814L19.5994 123.536C18.741 123.327 18.0632 123 17.5661 122.556C17.0689 122.112 16.822 121.514 16.8253 120.761C16.822 120.145 16.986 119.606 17.3175 119.146C17.6522 118.685 18.1113 118.325 18.6946 118.067C19.2779 117.808 19.9408 117.679 20.6832 117.679C21.4389 117.679 22.0985 117.808 22.6619 118.067C23.2287 118.325 23.6695 118.685 23.9844 119.146C24.2992 119.606 24.4616 120.14 24.4716 120.746H22.4084ZM28.0566 128.144C27.5693 128.144 27.1352 128.06 26.754 127.891C26.3728 127.718 26.0712 127.465 25.8492 127.13C25.6304 126.792 25.521 126.371 25.521 125.867C25.521 125.443 25.5989 125.087 25.7547 124.798C25.9105 124.51 26.1226 124.278 26.3911 124.102C26.6595 123.927 26.9645 123.794 27.3058 123.705C27.6505 123.615 28.0118 123.552 28.3897 123.516C28.8338 123.469 29.1917 123.426 29.4635 123.386C29.7353 123.343 29.9325 123.28 30.0551 123.197C30.1778 123.115 30.2391 122.992 30.2391 122.83V122.8C30.2391 122.485 30.1397 122.241 29.9408 122.069C29.7452 121.897 29.4668 121.81 29.1056 121.81C28.7244 121.81 28.4211 121.895 28.1958 122.064C27.9704 122.23 27.8212 122.438 27.7483 122.69L25.7895 122.531C25.8889 122.067 26.0845 121.666 26.3762 121.328C26.6678 120.987 27.044 120.725 27.5047 120.543C27.9687 120.357 28.5057 120.264 29.1155 120.264C29.5397 120.264 29.9458 120.314 30.3335 120.413C30.7246 120.513 31.071 120.667 31.3726 120.876C31.6775 121.085 31.9178 121.353 32.0935 121.681C32.2691 122.006 32.357 122.395 32.357 122.849V128H30.3485V126.941H30.2888C30.1662 127.18 30.0021 127.39 29.7966 127.572C29.5911 127.751 29.3442 127.892 29.0558 127.995C28.7675 128.094 28.4344 128.144 28.0566 128.144ZM28.6631 126.683C28.9746 126.683 29.2497 126.621 29.4884 126.499C29.727 126.373 29.9143 126.204 30.0502 125.991C30.1861 125.779 30.254 125.539 30.254 125.271V124.46C30.1877 124.503 30.0966 124.543 29.9806 124.58C29.8679 124.613 29.7403 124.644 29.5977 124.674C29.4552 124.701 29.3127 124.725 29.1702 124.749C29.0277 124.768 28.8984 124.787 28.7824 124.803C28.5338 124.84 28.3167 124.898 28.1311 124.977C27.9455 125.057 27.8013 125.165 27.6986 125.3C27.5959 125.433 27.5445 125.599 27.5445 125.798C27.5445 126.086 27.6489 126.306 27.8577 126.459C28.0698 126.608 28.3383 126.683 28.6631 126.683ZM30.1943 119.449L29.195 118.236L28.1958 119.449H26.3911V119.379L28.4046 117.192H29.9806L31.999 119.379V119.449H30.1943ZM35.978 123.585V128H33.8601V120.364H35.8786V121.711H35.968C36.1371 121.267 36.4205 120.915 36.8182 120.657C37.2159 120.395 37.6982 120.264 38.2649 120.264C38.7952 120.264 39.2576 120.38 39.652 120.612C40.0464 120.844 40.353 121.176 40.5717 121.607C40.7905 122.034 40.8999 122.545 40.8999 123.138V128H38.782V123.516C38.7853 123.048 38.666 122.684 38.424 122.422C38.1821 122.157 37.849 122.024 37.4247 122.024C37.1397 122.024 36.8878 122.085 36.669 122.208C36.4536 122.331 36.2846 122.51 36.1619 122.745C36.0426 122.977 35.9813 123.257 35.978 123.585ZM45.5691 128V117.818H47.687V121.646H47.7516C47.8444 121.441 47.9786 121.232 48.1543 121.02C48.3333 120.804 48.5653 120.625 48.8503 120.483C49.1387 120.337 49.4966 120.264 49.9242 120.264C50.481 120.264 50.9947 120.41 51.4654 120.702C51.936 120.99 52.3122 121.426 52.5939 122.009C52.8757 122.589 53.0165 123.317 53.0165 124.192C53.0165 125.044 52.879 125.763 52.6039 126.349C52.3321 126.933 51.9609 127.375 51.4902 127.677C51.0229 127.975 50.4992 128.124 49.9192 128.124C49.5082 128.124 49.1586 128.056 48.8702 127.92C48.5852 127.785 48.3515 127.614 48.1692 127.408C47.9869 127.2 47.8477 126.989 47.7516 126.777H47.6572V128H45.5691ZM47.6422 124.182C47.6422 124.636 47.7052 125.032 47.8312 125.37C47.9571 125.708 48.1394 125.972 48.378 126.161C48.6167 126.346 48.9067 126.439 49.2481 126.439C49.5928 126.439 49.8844 126.344 50.1231 126.156C50.3617 125.963 50.5423 125.698 50.665 125.36C50.7909 125.019 50.8539 124.626 50.8539 124.182C50.8539 123.741 50.7926 123.353 50.6699 123.018C50.5473 122.684 50.3667 122.422 50.128 122.233C49.8894 122.044 49.5961 121.95 49.2481 121.95C48.9034 121.95 48.6117 122.041 48.3731 122.223C48.1377 122.405 47.9571 122.664 47.8312 122.999C47.7052 123.333 47.6422 123.728 47.6422 124.182ZM57.74 128.149C56.9677 128.149 56.2999 127.985 55.7364 127.657C55.1763 127.326 54.7438 126.865 54.4388 126.275C54.1339 125.682 53.9815 124.994 53.9815 124.212C53.9815 123.423 54.1339 122.733 54.4388 122.143C54.7438 121.55 55.1763 121.089 55.7364 120.761C56.2999 120.43 56.9677 120.264 57.74 120.264C58.5122 120.264 59.1784 120.43 59.7386 120.761C60.302 121.089 60.7362 121.55 61.0411 122.143C61.346 122.733 61.4985 123.423 61.4985 124.212C61.4985 124.994 61.346 125.682 61.0411 126.275C60.7362 126.865 60.302 127.326 59.7386 127.657C59.1784 127.985 58.5122 128.149 57.74 128.149ZM57.7499 126.509C58.1013 126.509 58.3946 126.409 58.6299 126.21C58.8652 126.008 59.0425 125.733 59.1619 125.385C59.2845 125.037 59.3458 124.641 59.3458 124.197C59.3458 123.753 59.2845 123.357 59.1619 123.009C59.0425 122.661 58.8652 122.385 58.6299 122.183C58.3946 121.981 58.1013 121.88 57.7499 121.88C57.3953 121.88 57.097 121.981 56.855 122.183C56.6164 122.385 56.4358 122.661 56.3131 123.009C56.1938 123.357 56.1342 123.753 56.1342 124.197C56.1342 124.641 56.1938 125.037 56.3131 125.385C56.4358 125.733 56.6164 126.008 56.855 126.21C57.097 126.409 57.3953 126.509 57.7499 126.509ZM56.9793 119.379L58.0333 117.117H59.9921L58.4758 119.379H56.9793ZM64.8535 123.585V128H62.7356V120.364H64.7541V121.711H64.8436C65.0126 121.267 65.296 120.915 65.6937 120.657C66.0915 120.395 66.5737 120.264 67.1405 120.264C67.6708 120.264 68.1331 120.38 68.5275 120.612C68.922 120.844 69.2285 121.176 69.4473 121.607C69.666 122.034 69.7754 122.545 69.7754 123.138V128H67.6575V123.516C67.6608 123.048 67.5415 122.684 67.2996 122.422C67.0576 122.157 66.7245 122.024 66.3003 122.024C66.0152 122.024 65.7633 122.085 65.5446 122.208C65.3292 122.331 65.1601 122.51 65.0375 122.745C64.9182 122.977 64.8569 123.257 64.8535 123.585ZM74.745 131.023C74.0589 131.023 73.4706 130.928 72.9801 130.739C72.4928 130.554 72.1051 130.3 71.8167 129.979C71.5283 129.657 71.3411 129.296 71.2549 128.895L73.2137 128.631C73.2734 128.784 73.3678 128.926 73.4971 129.059C73.6264 129.192 73.797 129.298 74.0092 129.377C74.2246 129.46 74.4864 129.501 74.7947 129.501C75.2554 129.501 75.6349 129.389 75.9332 129.163C76.2348 128.941 76.3856 128.568 76.3856 128.045V126.648H76.2961C76.2033 126.86 76.0641 127.06 75.8785 127.249C75.6929 127.438 75.4542 127.592 75.1626 127.712C74.8709 127.831 74.5229 127.891 74.1185 127.891C73.5452 127.891 73.0231 127.758 72.5525 127.493C72.0852 127.224 71.7123 126.815 71.4339 126.265C71.1588 125.711 71.0212 125.012 71.0212 124.167C71.0212 123.302 71.1621 122.579 71.4438 121.999C71.7256 121.419 72.1001 120.985 72.5674 120.697C73.0381 120.408 73.5534 120.264 74.1136 120.264C74.5411 120.264 74.8991 120.337 75.1874 120.483C75.4758 120.625 75.7078 120.804 75.8835 121.02C76.0624 121.232 76.2 121.441 76.2961 121.646H76.3756V120.364H78.4786V128.075C78.4786 128.724 78.3195 129.268 78.0014 129.705C77.6832 130.143 77.2424 130.471 76.6789 130.69C76.1188 130.912 75.4741 131.023 74.745 131.023ZM74.7897 126.3C75.1311 126.3 75.4194 126.215 75.6548 126.046C75.8934 125.874 76.0757 125.629 76.2016 125.31C76.3309 124.989 76.3955 124.604 76.3955 124.157C76.3955 123.71 76.3326 123.322 76.2066 122.994C76.0807 122.662 75.8984 122.405 75.6597 122.223C75.4211 122.041 75.1311 121.95 74.7897 121.95C74.4417 121.95 74.1484 122.044 73.9097 122.233C73.6711 122.419 73.4905 122.677 73.3678 123.009C73.2452 123.34 73.1839 123.723 73.1839 124.157C73.1839 124.598 73.2452 124.979 73.3678 125.3C73.4938 125.619 73.6744 125.866 73.9097 126.041C74.1484 126.214 74.4417 126.3 74.7897 126.3Z" fill="#7E2EBC"/>
<path d="M24.2372 142.273V151H23.027L18.5909 144.599H18.5099V151H17.1932V142.273H18.4119L22.8523 148.682H22.9332V142.273H24.2372ZM28.8001 153.591C28.2802 153.591 27.8327 153.523 27.4577 153.386C27.0856 153.25 26.7816 153.07 26.5458 152.845C26.31 152.621 26.1339 152.375 26.0174 152.108L27.1126 151.656C27.1893 151.781 27.2915 151.913 27.4194 152.053C27.5501 152.195 27.7262 152.315 27.9478 152.415C28.1722 152.514 28.4606 152.564 28.8129 152.564C29.2958 152.564 29.695 152.446 30.0103 152.21C30.3256 151.977 30.4833 151.605 30.4833 151.094V149.807H30.4023C30.3256 149.946 30.2148 150.101 30.07 150.271C29.9279 150.442 29.7319 150.589 29.4819 150.714C29.2319 150.839 28.9066 150.902 28.506 150.902C27.989 150.902 27.5231 150.781 27.1083 150.54C26.6964 150.295 26.3697 149.936 26.1282 149.462C25.8896 148.984 25.7702 148.398 25.7702 147.702C25.7702 147.006 25.8881 146.409 26.1239 145.912C26.3626 145.415 26.6893 145.034 27.104 144.77C27.5188 144.503 27.989 144.369 28.5146 144.369C28.9208 144.369 29.2489 144.438 29.4989 144.574C29.7489 144.707 29.9435 144.864 30.0827 145.043C30.2248 145.222 30.3342 145.379 30.4109 145.516H30.5046V144.455H31.7532V151.145C31.7532 151.707 31.6225 152.169 31.3612 152.53C31.0998 152.891 30.7461 153.158 30.3001 153.331C29.8569 153.504 29.3569 153.591 28.8001 153.591ZM28.7873 149.845C29.1538 149.845 29.4634 149.76 29.7163 149.589C29.9719 149.416 30.1651 149.169 30.2958 148.848C30.4293 148.524 30.4961 148.136 30.4961 147.685C30.4961 147.244 30.4308 146.857 30.3001 146.521C30.1694 146.186 29.9776 145.925 29.7248 145.737C29.4719 145.547 29.1594 145.452 28.7873 145.452C28.4038 145.452 28.0842 145.551 27.8285 145.75C27.5728 145.946 27.3796 146.213 27.2489 146.551C27.1211 146.889 27.0572 147.267 27.0572 147.685C27.0572 148.114 27.1225 148.49 27.2532 148.814C27.3839 149.138 27.5771 149.391 27.8327 149.572C28.0913 149.754 28.4094 149.845 28.7873 149.845ZM35.3668 151.145C34.9521 151.145 34.5771 151.068 34.2418 150.915C33.9066 150.759 33.641 150.533 33.445 150.237C33.2518 149.942 33.1552 149.58 33.1552 149.151C33.1552 148.781 33.2262 148.477 33.3683 148.239C33.5103 148 33.7021 147.811 33.9435 147.672C34.185 147.533 34.4549 147.428 34.7532 147.357C35.0515 147.286 35.3555 147.232 35.6651 147.195C36.0572 147.149 36.3754 147.112 36.6197 147.084C36.864 147.053 37.0415 147.003 37.1523 146.935C37.2631 146.866 37.3185 146.756 37.3185 146.602V146.572C37.3185 146.2 37.2134 145.912 37.0032 145.707C36.7958 145.503 36.4862 145.401 36.0742 145.401C35.6452 145.401 35.3072 145.496 35.06 145.686C34.8157 145.874 34.6467 146.082 34.5529 146.312L33.3555 146.04C33.4975 145.642 33.7049 145.321 33.9776 145.077C34.2532 144.83 34.57 144.651 34.9279 144.54C35.2859 144.426 35.6623 144.369 36.0572 144.369C36.3185 144.369 36.5955 144.401 36.8881 144.463C37.1836 144.523 37.4592 144.634 37.7148 144.795C37.9734 144.957 38.185 145.189 38.3498 145.49C38.5146 145.788 38.5969 146.176 38.5969 146.653V151H37.3526V150.105H37.3015C37.2191 150.27 37.0955 150.432 36.9308 150.591C36.766 150.75 36.5543 150.882 36.2958 150.987C36.0373 151.092 35.7276 151.145 35.3668 151.145ZM35.6438 150.122C35.9961 150.122 36.2972 150.053 36.5472 149.913C36.8001 149.774 36.9918 149.592 37.1225 149.368C37.256 149.141 37.3228 148.898 37.3228 148.639V147.795C37.2773 147.841 37.1893 147.884 37.0586 147.923C36.9308 147.96 36.7844 147.993 36.6197 148.021C36.4549 148.047 36.2944 148.071 36.1381 148.094C35.9819 148.114 35.8512 148.131 35.7461 148.145C35.4989 148.176 35.2731 148.229 35.0685 148.303C34.8668 148.376 34.7049 148.483 34.5827 148.622C34.4634 148.759 34.4038 148.94 34.4038 149.168C34.4038 149.483 34.5202 149.722 34.7532 149.884C34.9862 150.043 35.283 150.122 35.6438 150.122ZM35.6268 143.581L34.31 141.616H35.6523L36.6452 143.581H35.6268ZM40.8651 153.455C40.6747 153.455 40.5014 153.439 40.3452 153.408C40.1889 153.379 40.0724 153.348 39.9957 153.314L40.3026 152.27C40.5355 152.332 40.7429 152.359 40.9247 152.351C41.1065 152.342 41.267 152.274 41.4062 152.146C41.5483 152.018 41.6733 151.81 41.7812 151.52L41.9389 151.085L39.544 144.455H40.9077L42.5653 149.534H42.6335L44.2912 144.455H45.6591L42.9616 151.874C42.8366 152.214 42.6776 152.503 42.4844 152.739C42.2912 152.977 42.0611 153.156 41.794 153.276C41.527 153.395 41.2173 153.455 40.8651 153.455Z" fill="#3C3C43" fill-opacity="0.6"/>
<circle cx="51" cy="147" r="1" fill="#CFD1D4"/>
<path d="M63.1658 145.03C63.0835 144.771 62.9727 144.54 62.8335 144.335C62.6971 144.128 62.5337 143.952 62.3434 143.807C62.1531 143.659 61.9357 143.547 61.6914 143.47C61.4499 143.393 61.1843 143.355 60.8945 143.355C60.4031 143.355 59.9599 143.482 59.565 143.734C59.1701 143.987 58.8576 144.358 58.6275 144.847C58.4002 145.332 58.2866 145.928 58.2866 146.632C58.2866 147.339 58.4016 147.937 58.6317 148.426C58.8619 148.915 59.1772 149.286 59.5778 149.538C59.9783 149.791 60.4343 149.918 60.9457 149.918C61.4201 149.918 61.8335 149.821 62.1857 149.628C62.5408 149.435 62.815 149.162 63.0082 148.81C63.2042 148.455 63.3022 148.037 63.3022 147.557L63.6431 147.621H61.146V146.534H64.5763V147.527C64.5763 148.26 64.4201 148.896 64.1076 149.436C63.7979 149.973 63.369 150.388 62.8207 150.68C62.2752 150.973 61.6502 151.119 60.9457 151.119C60.1559 151.119 59.4627 150.938 58.8661 150.574C58.2724 150.21 57.8093 149.695 57.4769 149.027C57.1445 148.357 56.9783 147.561 56.9783 146.641C56.9783 145.945 57.0749 145.32 57.2681 144.766C57.4613 144.212 57.7326 143.741 58.082 143.355C58.4343 142.966 58.8477 142.669 59.3221 142.464C59.7994 142.257 60.3207 142.153 60.886 142.153C61.3576 142.153 61.7965 142.223 62.2028 142.362C62.6119 142.501 62.9755 142.699 63.2937 142.955C63.6147 143.21 63.8803 143.514 64.0906 143.866C64.3008 144.216 64.4428 144.604 64.5167 145.03H63.1658ZM66.5558 151V144.455H67.8299V151H66.5558ZM67.1992 143.445C66.9776 143.445 66.7873 143.371 66.6282 143.223C66.4719 143.072 66.3938 142.893 66.3938 142.686C66.3938 142.476 66.4719 142.297 66.6282 142.149C66.7873 141.999 66.9776 141.923 67.1992 141.923C67.4208 141.923 67.6097 141.999 67.766 142.149C67.9251 142.297 68.0046 142.476 68.0046 142.686C68.0046 142.893 67.9251 143.072 67.766 143.223C67.6097 143.371 67.4208 143.445 67.1992 143.445ZM75.0156 143.999H76C76 144.669 75.848 145.199 75.544 145.588C75.2429 145.974 74.7287 146.168 74.0014 146.168V145.452C74.2912 145.452 74.5085 145.392 74.6534 145.273C74.7983 145.151 74.8949 144.982 74.9432 144.766C74.9915 144.547 75.0156 144.291 75.0156 143.999ZM72.3011 151.132C71.6875 151.132 71.152 150.991 70.6946 150.71C70.2372 150.429 69.8821 150.036 69.6293 149.53C69.3764 149.024 69.25 148.433 69.25 147.757C69.25 147.078 69.3764 146.484 69.6293 145.976C69.8821 145.467 70.2372 145.072 70.6946 144.791C71.152 144.51 71.6875 144.369 72.3011 144.369C72.9148 144.369 73.4503 144.51 73.9077 144.791C74.3651 145.072 74.7202 145.467 74.973 145.976C75.2259 146.484 75.3523 147.078 75.3523 147.757C75.3523 148.433 75.2259 149.024 74.973 149.53C74.7202 150.036 74.3651 150.429 73.9077 150.71C73.4503 150.991 72.9148 151.132 72.3011 151.132ZM72.3054 150.062C72.7031 150.062 73.0327 149.957 73.294 149.747C73.5554 149.537 73.7486 149.257 73.8736 148.908C74.0014 148.558 74.0653 148.173 74.0653 147.753C74.0653 147.335 74.0014 146.952 73.8736 146.602C73.7486 146.25 73.5554 145.967 73.294 145.754C73.0327 145.541 72.7031 145.435 72.3054 145.435C71.9048 145.435 71.5724 145.541 71.3082 145.754C71.0469 145.967 70.8523 146.25 70.7244 146.602C70.5994 146.952 70.5369 147.335 70.5369 147.753C70.5369 148.173 70.5994 148.558 70.7244 148.908C70.8523 149.257 71.0469 149.537 71.3082 149.747C71.5724 149.957 71.9048 150.062 72.3054 150.062ZM71.8068 143.581L70.4901 141.616H71.8324L72.8253 143.581H71.8068Z" fill="#3C3C43" fill-opacity="0.6"/>
<rect x="334" y="102" width="24" height="24" rx="4" fill="#F6F6F6"/>
<path d="M350 110L342 118M342 110L350 118" stroke="#D42F55" stroke-width="1.33333" stroke-linecap="round" stroke-linejoin="round"/>
<path d="M170.307 114.565C170.261 114.162 170.074 113.849 169.744 113.628C169.415 113.403 169 113.291 168.5 113.291C168.142 113.291 167.832 113.348 167.571 113.462C167.309 113.572 167.106 113.726 166.961 113.922C166.819 114.115 166.748 114.335 166.748 114.582C166.748 114.79 166.797 114.969 166.893 115.119C166.993 115.27 167.122 115.396 167.281 115.499C167.443 115.598 167.616 115.682 167.801 115.75C167.986 115.815 168.163 115.869 168.334 115.912L169.186 116.134C169.464 116.202 169.75 116.294 170.042 116.411C170.335 116.527 170.606 116.68 170.856 116.871C171.106 117.061 171.308 117.297 171.461 117.578C171.618 117.859 171.696 118.196 171.696 118.588C171.696 119.082 171.568 119.521 171.312 119.905C171.059 120.288 170.692 120.591 170.209 120.812C169.729 121.034 169.148 121.145 168.466 121.145C167.812 121.145 167.247 121.041 166.77 120.834C166.292 120.626 165.919 120.332 165.649 119.952C165.379 119.568 165.23 119.114 165.202 118.588H166.523C166.548 118.903 166.65 119.166 166.829 119.376C167.011 119.584 167.243 119.739 167.524 119.841C167.808 119.94 168.119 119.99 168.457 119.99C168.829 119.99 169.16 119.932 169.45 119.815C169.743 119.696 169.973 119.531 170.14 119.321C170.308 119.108 170.392 118.859 170.392 118.575C170.392 118.317 170.318 118.105 170.17 117.94C170.025 117.776 169.828 117.639 169.578 117.531C169.331 117.423 169.051 117.328 168.738 117.246L167.707 116.964C167.008 116.774 166.454 116.494 166.045 116.125C165.639 115.756 165.436 115.267 165.436 114.659C165.436 114.156 165.572 113.717 165.845 113.342C166.118 112.967 166.487 112.676 166.953 112.469C167.419 112.259 167.944 112.153 168.53 112.153C169.121 112.153 169.642 112.257 170.094 112.464C170.548 112.672 170.906 112.957 171.167 113.321C171.429 113.682 171.565 114.097 171.577 114.565H170.307ZM175.924 121.132C175.311 121.132 174.775 120.991 174.318 120.71C173.86 120.429 173.505 120.036 173.252 119.53C172.999 119.024 172.873 118.433 172.873 117.757C172.873 117.078 172.999 116.484 173.252 115.976C173.505 115.467 173.86 115.072 174.318 114.791C174.775 114.51 175.311 114.369 175.924 114.369C176.538 114.369 177.073 114.51 177.531 114.791C177.988 115.072 178.343 115.467 178.596 115.976C178.849 116.484 178.975 117.078 178.975 117.757C178.975 118.433 178.849 119.024 178.596 119.53C178.343 120.036 177.988 120.429 177.531 120.71C177.073 120.991 176.538 121.132 175.924 121.132ZM175.928 120.062C176.326 120.062 176.656 119.957 176.917 119.747C177.178 119.537 177.372 119.257 177.497 118.908C177.624 118.558 177.688 118.173 177.688 117.753C177.688 117.335 177.624 116.952 177.497 116.602C177.372 116.25 177.178 115.967 176.917 115.754C176.656 115.541 176.326 115.435 175.928 115.435C175.528 115.435 175.195 115.541 174.931 115.754C174.67 115.967 174.475 116.25 174.347 116.602C174.222 116.952 174.16 117.335 174.16 117.753C174.16 118.173 174.222 118.558 174.347 118.908C174.475 119.257 174.67 119.537 174.931 119.747C175.195 119.957 175.528 120.062 175.928 120.062ZM173.721 113.67L175.451 112.192H176.401L178.136 113.67H176.883L175.937 112.827L174.982 113.67H173.721ZM177.68 112.724L178.57 111.169H179.87L178.613 112.724H177.68ZM184.847 112.273V121H183.573V112.273H184.847ZM192.8 114.139H193.742C193.739 114.594 193.675 114.974 193.55 115.281C193.428 115.585 193.215 115.814 192.911 115.967C192.607 116.121 192.185 116.197 191.645 116.197V115.46C192.012 115.46 192.275 115.415 192.434 115.324C192.596 115.23 192.697 115.087 192.736 114.893C192.779 114.697 192.8 114.446 192.8 114.139ZM190.725 118.286V114.455H191.999V121H190.746V119.866H190.678C190.528 120.216 190.287 120.507 189.958 120.74C189.628 120.97 189.216 121.085 188.722 121.085C188.305 121.085 187.934 120.993 187.61 120.808C187.286 120.621 187.032 120.344 186.847 119.977C186.665 119.611 186.574 119.158 186.574 118.618V114.455H187.849V118.464C187.849 118.911 187.972 119.266 188.219 119.53C188.469 119.794 188.79 119.926 189.182 119.926C189.421 119.926 189.658 119.866 189.894 119.747C190.133 119.628 190.33 119.447 190.486 119.206C190.645 118.964 190.725 118.658 190.725 118.286ZM199.85 113.999H200.834C200.834 114.669 200.682 115.199 200.378 115.588C200.077 115.974 199.563 116.168 198.835 116.168V115.452C199.125 115.452 199.343 115.392 199.487 115.273C199.632 115.151 199.729 114.982 199.777 114.766C199.825 114.547 199.85 114.291 199.85 113.999ZM197.135 121.132C196.521 121.132 195.986 120.991 195.529 120.71C195.071 120.429 194.716 120.036 194.463 119.53C194.21 119.024 194.084 118.433 194.084 117.757C194.084 117.078 194.21 116.484 194.463 115.976C194.716 115.467 195.071 115.072 195.529 114.791C195.986 114.51 196.521 114.369 197.135 114.369C197.749 114.369 198.284 114.51 198.742 114.791C199.199 115.072 199.554 115.467 199.807 115.976C200.06 116.484 200.186 117.078 200.186 117.757C200.186 118.433 200.06 119.024 199.807 119.53C199.554 120.036 199.199 120.429 198.742 120.71C198.284 120.991 197.749 121.132 197.135 121.132ZM197.139 120.062C197.537 120.062 197.867 119.957 198.128 119.747C198.389 119.537 198.583 119.257 198.708 118.908C198.835 118.558 198.899 118.173 198.899 117.753C198.899 117.335 198.835 116.952 198.708 116.602C198.583 116.25 198.389 115.967 198.128 115.754C197.867 115.541 197.537 115.435 197.139 115.435C196.739 115.435 196.406 115.541 196.142 115.754C195.881 115.967 195.686 116.25 195.558 116.602C195.433 116.952 195.371 117.335 195.371 117.753C195.371 118.173 195.433 118.558 195.558 118.908C195.686 119.257 195.881 119.537 196.142 119.747C196.406 119.957 196.739 120.062 197.139 120.062ZM197.135 123.259C196.916 123.259 196.727 123.185 196.568 123.037C196.409 122.889 196.33 122.71 196.33 122.5C196.33 122.29 196.409 122.111 196.568 121.963C196.727 121.815 196.916 121.741 197.135 121.741C197.357 121.741 197.546 121.815 197.702 121.963C197.861 122.111 197.941 122.29 197.941 122.5C197.941 122.71 197.861 122.889 197.702 123.037C197.546 123.185 197.357 123.259 197.135 123.259ZM202.965 117.114V121H201.691V114.455H202.914V115.52H202.994C203.145 115.173 203.381 114.895 203.702 114.685C204.026 114.474 204.433 114.369 204.925 114.369C205.371 114.369 205.762 114.463 206.097 114.651C206.432 114.835 206.692 115.111 206.877 115.477C207.061 115.844 207.154 116.297 207.154 116.837V121H205.879V116.99C205.879 116.516 205.756 116.145 205.509 115.878C205.262 115.608 204.922 115.473 204.49 115.473C204.195 115.473 203.932 115.537 203.702 115.665C203.475 115.793 203.294 115.98 203.161 116.227C203.03 116.472 202.965 116.767 202.965 117.114ZM211.607 123.591C211.087 123.591 210.639 123.523 210.264 123.386C209.892 123.25 209.588 123.07 209.352 122.845C209.117 122.621 208.941 122.375 208.824 122.108L209.919 121.656C209.996 121.781 210.098 121.913 210.226 122.053C210.357 122.195 210.533 122.315 210.754 122.415C210.979 122.514 211.267 122.564 211.619 122.564C212.102 122.564 212.502 122.446 212.817 122.21C213.132 121.977 213.29 121.605 213.29 121.094V119.807H213.209C213.132 119.946 213.021 120.101 212.877 120.271C212.735 120.442 212.539 120.589 212.289 120.714C212.039 120.839 211.713 120.902 211.313 120.902C210.796 120.902 210.33 120.781 209.915 120.54C209.503 120.295 209.176 119.936 208.935 119.462C208.696 118.984 208.577 118.398 208.577 117.702C208.577 117.006 208.695 116.409 208.931 115.912C209.169 115.415 209.496 115.034 209.911 114.77C210.325 114.503 210.796 114.369 211.321 114.369C211.727 114.369 212.056 114.438 212.306 114.574C212.556 114.707 212.75 114.864 212.889 115.043C213.031 115.222 213.141 115.379 213.218 115.516H213.311V114.455H214.56V121.145C214.56 121.707 214.429 122.169 214.168 122.53C213.906 122.891 213.553 123.158 213.107 123.331C212.664 123.504 212.164 123.591 211.607 123.591ZM211.594 119.845C211.96 119.845 212.27 119.76 212.523 119.589C212.779 119.416 212.972 119.169 213.102 118.848C213.236 118.524 213.303 118.136 213.303 117.685C213.303 117.244 213.237 116.857 213.107 116.521C212.976 116.186 212.784 115.925 212.531 115.737C212.279 115.547 211.966 115.452 211.594 115.452C211.21 115.452 210.891 115.551 210.635 115.75C210.379 115.946 210.186 116.213 210.056 116.551C209.928 116.889 209.864 117.267 209.864 117.685C209.864 118.114 209.929 118.49 210.06 118.814C210.191 119.138 210.384 119.391 210.639 119.572C210.898 119.754 211.216 119.845 211.594 119.845Z" fill="black"/>
<path d="M156.167 144H167.833" stroke="#E7E8E9" stroke-width="1.66667" stroke-linecap="round" stroke-linejoin="round"/>
<path d="M191.534 138.818V149H189.993V140.359H189.933L187.497 141.95V140.479L190.037 138.818H191.534Z" fill="#7E2EBC"/>
<path d="M218 138.167V149.833M212.167 144H223.833" stroke="black" stroke-width="1.66667" stroke-linecap="round" stroke-linejoin="round"/>
<rect x="146.5" y="128.5" width="87" height="31" rx="7.5" stroke="#E7E8E9"/>
<path d="M273.133 116.667L271.8 118L270.467 116.667M271.963 117.667C271.988 117.448 272 117.225 272 117C272 113.686 269.314 111 266 111C262.686 111 260 113.686 260 117C260 120.314 262.686 123 266 123C267.885 123 269.567 122.131 270.667 120.772M266 113.667V117L268 118.333" stroke="black" stroke-width="1.33333" stroke-linecap="round" stroke-linejoin="round"/>
<path d="M279.579 117.378C279.579 116.31 279.719 115.327 280.001 114.429C280.282 113.531 280.692 112.703 281.232 111.945H282.4C282.19 112.226 281.994 112.571 281.812 112.98C281.63 113.389 281.471 113.838 281.335 114.327C281.198 114.812 281.092 115.317 281.015 115.839C280.938 116.359 280.9 116.872 280.9 117.378C280.9 118.054 280.967 118.739 281.1 119.432C281.234 120.125 281.414 120.768 281.641 121.362C281.869 121.956 282.121 122.44 282.4 122.815H281.232C280.692 122.057 280.282 121.229 280.001 120.331C279.719 119.433 279.579 118.449 279.579 117.378ZM283.743 123.455V114.455H284.988V115.516H285.094C285.168 115.379 285.275 115.222 285.414 115.043C285.553 114.864 285.746 114.707 285.993 114.574C286.24 114.438 286.567 114.369 286.973 114.369C287.502 114.369 287.973 114.503 288.388 114.77C288.803 115.037 289.128 115.422 289.364 115.925C289.603 116.428 289.722 117.033 289.722 117.74C289.722 118.447 289.604 119.054 289.368 119.56C289.132 120.062 288.809 120.45 288.397 120.723C287.985 120.993 287.515 121.128 286.986 121.128C286.588 121.128 286.263 121.061 286.01 120.928C285.76 120.794 285.564 120.638 285.422 120.459C285.28 120.28 285.171 120.121 285.094 119.982H285.017V123.455H283.743ZM284.992 117.727C284.992 118.187 285.059 118.591 285.192 118.938C285.326 119.284 285.519 119.555 285.772 119.751C286.025 119.945 286.334 120.041 286.701 120.041C287.081 120.041 287.4 119.94 287.655 119.739C287.911 119.534 288.104 119.257 288.235 118.908C288.368 118.558 288.435 118.165 288.435 117.727C288.435 117.295 288.37 116.908 288.239 116.564C288.111 116.22 287.918 115.949 287.659 115.75C287.404 115.551 287.084 115.452 286.701 115.452C286.331 115.452 286.019 115.547 285.763 115.737C285.51 115.928 285.319 116.193 285.188 116.534C285.057 116.875 284.992 117.273 284.992 117.727ZM292.424 117.114V121H291.15V112.273H292.407V115.52H292.488C292.641 115.168 292.875 114.888 293.191 114.68C293.506 114.473 293.918 114.369 294.426 114.369C294.875 114.369 295.267 114.462 295.603 114.646C295.941 114.831 296.202 115.107 296.387 115.473C296.574 115.837 296.668 116.291 296.668 116.837V121H295.394V116.99C295.394 116.51 295.27 116.138 295.023 115.874C294.776 115.607 294.432 115.473 293.992 115.473C293.691 115.473 293.421 115.537 293.182 115.665C292.946 115.793 292.76 115.98 292.624 116.227C292.49 116.472 292.424 116.767 292.424 117.114ZM302.515 118.286V114.455H303.793V121H302.54V119.866H302.472C302.321 120.216 302.08 120.507 301.748 120.74C301.418 120.97 301.007 121.085 300.516 121.085C300.096 121.085 299.723 120.993 299.4 120.808C299.078 120.621 298.826 120.344 298.641 119.977C298.459 119.611 298.368 119.158 298.368 118.618V114.455H299.642V118.464C299.642 118.911 299.766 119.266 300.013 119.53C300.26 119.794 300.581 119.926 300.976 119.926C301.215 119.926 301.452 119.866 301.688 119.747C301.926 119.628 302.124 119.447 302.28 119.206C302.439 118.964 302.517 118.658 302.515 118.286ZM300.563 113.581L301.56 111.616H302.902L301.581 113.581H300.563ZM308.56 114.455V115.477H304.985V114.455H308.56ZM305.944 112.886H307.218V119.078C307.218 119.325 307.255 119.511 307.329 119.636C307.403 119.759 307.498 119.842 307.614 119.888C307.734 119.93 307.863 119.952 308.002 119.952C308.104 119.952 308.194 119.945 308.271 119.93C308.347 119.916 308.407 119.905 308.45 119.896L308.68 120.949C308.606 120.977 308.501 121.006 308.364 121.034C308.228 121.065 308.058 121.082 307.853 121.085C307.518 121.091 307.205 121.031 306.915 120.906C306.626 120.781 306.391 120.588 306.212 120.327C306.033 120.065 305.944 119.737 305.944 119.342V112.886ZM312.42 117.378C312.42 118.449 312.279 119.433 311.998 120.331C311.717 121.229 311.306 122.057 310.767 122.815H309.599C309.809 122.534 310.005 122.189 310.187 121.78C310.369 121.371 310.528 120.923 310.664 120.438C310.801 119.949 310.907 119.443 310.984 118.92C311.061 118.398 311.099 117.884 311.099 117.378C311.099 116.705 311.032 116.021 310.899 115.328C310.765 114.635 310.585 113.991 310.358 113.398C310.13 112.804 309.877 112.32 309.599 111.945H310.767C311.306 112.703 311.717 113.531 311.998 114.429C312.279 115.327 312.42 116.31 312.42 117.378Z" fill="#3C3C43" fill-opacity="0.6"/>
<path d="M252.167 144H263.833" stroke="#E7E8E9" stroke-width="1.66667" stroke-linecap="round" stroke-linejoin="round"/>
<path d="M281.494 149.139C280.811 149.139 280.201 149.022 279.664 148.786C279.131 148.551 278.708 148.224 278.397 147.807C278.088 147.386 277.923 146.899 277.899 146.345H279.46C279.48 146.647 279.581 146.909 279.764 147.131C279.949 147.349 280.191 147.518 280.49 147.638C280.788 147.757 281.119 147.817 281.484 147.817C281.885 147.817 282.24 147.747 282.548 147.608C282.859 147.469 283.103 147.275 283.279 147.026C283.454 146.774 283.542 146.484 283.542 146.156C283.542 145.815 283.454 145.515 283.279 145.256C283.106 144.995 282.853 144.789 282.518 144.64C282.187 144.491 281.786 144.416 281.315 144.416H280.455V143.163H281.315C281.693 143.163 282.024 143.095 282.309 142.96C282.598 142.824 282.823 142.635 282.985 142.393C283.148 142.147 283.229 141.861 283.229 141.533C283.229 141.218 283.158 140.944 283.015 140.712C282.876 140.477 282.677 140.293 282.419 140.161C282.163 140.028 281.862 139.962 281.514 139.962C281.182 139.962 280.872 140.023 280.584 140.146C280.299 140.265 280.067 140.437 279.888 140.663C279.709 140.885 279.613 141.152 279.6 141.463H278.113C278.13 140.913 278.292 140.429 278.6 140.011C278.912 139.594 279.323 139.267 279.833 139.032C280.344 138.797 280.911 138.679 281.534 138.679C282.187 138.679 282.75 138.807 283.224 139.062C283.701 139.314 284.069 139.65 284.328 140.071C284.59 140.492 284.719 140.953 284.715 141.453C284.719 142.023 284.56 142.507 284.238 142.905C283.92 143.303 283.496 143.569 282.965 143.705V143.785C283.642 143.888 284.165 144.156 284.536 144.59C284.911 145.024 285.097 145.563 285.093 146.206C285.097 146.766 284.941 147.268 284.626 147.712C284.314 148.156 283.889 148.506 283.348 148.761C282.808 149.013 282.19 149.139 281.494 149.139ZM290.517 149.169C289.732 149.166 289.061 148.959 288.504 148.548C287.947 148.137 287.521 147.538 287.226 146.753C286.931 145.967 286.784 145.021 286.784 143.914C286.784 142.81 286.931 141.867 287.226 141.085C287.524 140.303 287.952 139.706 288.509 139.295C289.069 138.884 289.738 138.679 290.517 138.679C291.296 138.679 291.964 138.886 292.521 139.3C293.078 139.711 293.504 140.308 293.799 141.09C294.097 141.869 294.246 142.81 294.246 143.914C294.246 145.024 294.099 145.972 293.804 146.758C293.509 147.54 293.083 148.138 292.526 148.553C291.969 148.964 291.3 149.169 290.517 149.169ZM290.517 147.842C291.207 147.842 291.745 147.505 292.133 146.832C292.524 146.16 292.72 145.187 292.72 143.914C292.72 143.069 292.63 142.355 292.451 141.771C292.276 141.185 292.022 140.741 291.691 140.439C291.362 140.134 290.971 139.982 290.517 139.982C289.831 139.982 289.293 140.32 288.902 140.996C288.51 141.672 288.313 142.645 288.31 143.914C288.31 144.763 288.398 145.48 288.573 146.067C288.752 146.65 289.006 147.093 289.334 147.394C289.662 147.692 290.057 147.842 290.517 147.842Z" fill="#7E2EBC"/>
<path d="M314 138.167V149.833M308.167 144H319.833" stroke="black" stroke-width="1.66667" stroke-linecap="round" stroke-linejoin="round"/>
<rect x="242.5" y="128.5" width="87" height="31" rx="7.5" stroke="#E7E8E9"/>
</g>
<defs>
<filter id="filter0_d_15855_50168" x="0" y="94" width="366" height="80" filterUnits="userSpaceOnUse" color-interpolation-filters="sRGB">
<feFlood flood-opacity="0" result="BackgroundImageFix"/>
<feColorMatrix in="SourceAlpha" type="matrix" values="0 0 0 0 0 0 0 0 0 0 0 0 0 0 0 0 0 0 127 0" result="hardAlpha"/>
<feOffset/>
<feGaussianBlur stdDeviation="2"/>
<feComposite in2="hardAlpha" operator="out"/>
<feColorMatrix type="matrix" values="0 0 0 0 0 0 0 0 0 0 0 0 0 0 0 0 0 0 0.12 0"/>
<feBlend mode="normal" in2="BackgroundImageFix" result="effect1_dropShadow_15855_50168"/>
<feBlend mode="normal" in="SourceGraphic" in2="effect1_dropShadow_15855_50168" result="shape"/>
</filter>
</defs>
</svg>
