<svg width="326" height="109" viewBox="0 0 326 109" fill="none" xmlns="http://www.w3.org/2000/svg">
<path d="M99.2937 78.8705C99.8272 78.8713 100.308 78.4389 100.367 77.9046C100.426 77.3703 100.041 76.9364 99.5079 76.9356L99.2937 78.8705ZM17.4997 41.8084L18.568 52.7474L27.7092 45.3164L17.4997 41.8084ZM99.5079 76.9356C91.4377 76.9227 77.5037 75.2326 63.0101 70.7082C48.5117 66.1823 33.5485 58.8495 23.3242 47.6158L21.8209 48.9978C32.322 60.5356 47.6015 67.9879 62.2501 72.5607C76.9036 77.135 91.021 78.8572 99.2937 78.8705L99.5079 76.9356Z" fill="white"/>
<path d="M139.951 71.4375H137.463C137.417 71.1155 137.324 70.8295 137.184 70.5795C137.044 70.3258 136.864 70.1098 136.644 69.9318C136.425 69.7538 136.171 69.6174 135.883 69.5227C135.599 69.428 135.29 69.3807 134.957 69.3807C134.355 69.3807 133.83 69.5303 133.383 69.8295C132.936 70.125 132.59 70.5568 132.343 71.125C132.097 71.6894 131.974 72.375 131.974 73.1818C131.974 74.0114 132.097 74.7083 132.343 75.2727C132.593 75.8371 132.942 76.2633 133.389 76.5511C133.836 76.839 134.353 76.983 134.94 76.983C135.269 76.983 135.574 76.9394 135.855 76.8523C136.139 76.7652 136.391 76.6383 136.61 76.4716C136.83 76.3011 137.012 76.0947 137.156 75.8523C137.304 75.6098 137.406 75.3333 137.463 75.0227L139.951 75.0341C139.887 75.5682 139.726 76.0833 139.468 76.5795C139.215 77.072 138.872 77.5133 138.44 77.9034C138.012 78.2898 137.501 78.5966 136.906 78.8239C136.315 79.0473 135.646 79.1591 134.9 79.1591C133.862 79.1591 132.934 78.9242 132.116 78.4545C131.302 77.9848 130.658 77.3049 130.184 76.4148C129.715 75.5246 129.48 74.447 129.48 73.1818C129.48 71.9129 129.718 70.8333 130.196 69.9432C130.673 69.053 131.321 68.375 132.139 67.9091C132.957 67.4394 133.877 67.2045 134.9 67.2045C135.574 67.2045 136.199 67.2992 136.775 67.4886C137.355 67.678 137.868 67.9545 138.315 68.3182C138.762 68.678 139.126 69.1193 139.406 69.642C139.69 70.1648 139.872 70.7633 139.951 71.4375ZM143.93 73.9545V79H141.51V67.3636H143.862V71.8125H143.965C144.162 71.2973 144.48 70.8939 144.919 70.6023C145.359 70.3068 145.91 70.1591 146.573 70.1591C147.179 70.1591 147.707 70.2917 148.158 70.5568C148.612 70.8182 148.965 71.1951 149.215 71.6875C149.468 72.1761 149.593 72.7614 149.59 73.4432V79H147.169V73.875C147.173 73.3371 147.037 72.9186 146.76 72.6193C146.487 72.3201 146.105 72.1705 145.612 72.1705C145.283 72.1705 144.991 72.2405 144.737 72.3807C144.487 72.5208 144.29 72.7254 144.146 72.9943C144.006 73.2595 143.934 73.5795 143.93 73.9545ZM153.823 79.1648C153.266 79.1648 152.77 79.0682 152.334 78.875C151.899 78.678 151.554 78.3883 151.3 78.0057C151.05 77.6193 150.925 77.1383 150.925 76.5625C150.925 76.0777 151.014 75.6705 151.192 75.3409C151.37 75.0114 151.613 74.7462 151.92 74.5455C152.226 74.3447 152.575 74.1932 152.965 74.0909C153.359 73.9886 153.772 73.9167 154.204 73.875C154.711 73.822 155.12 73.7727 155.431 73.7273C155.742 73.678 155.967 73.6061 156.107 73.5114C156.247 73.4167 156.317 73.2765 156.317 73.0909V73.0568C156.317 72.697 156.204 72.4186 155.976 72.2216C155.753 72.0246 155.435 71.9261 155.022 71.9261C154.586 71.9261 154.24 72.0227 153.982 72.2159C153.725 72.4053 153.554 72.6439 153.471 72.9318L151.232 72.75C151.346 72.2197 151.569 71.7614 151.903 71.375C152.236 70.9848 152.666 70.6856 153.192 70.4773C153.723 70.2652 154.336 70.1591 155.033 70.1591C155.518 70.1591 155.982 70.2159 156.425 70.3295C156.872 70.4432 157.268 70.6193 157.613 70.858C157.961 71.0966 158.236 71.4034 158.437 71.7784C158.637 72.1496 158.738 72.5947 158.738 73.1136V79H156.442V77.7898H156.374C156.234 78.0625 156.047 78.303 155.812 78.5114C155.577 78.7159 155.295 78.8769 154.965 78.9943C154.636 79.108 154.255 79.1648 153.823 79.1648ZM154.516 77.4943C154.872 77.4943 155.187 77.4242 155.459 77.2841C155.732 77.1402 155.946 76.947 156.101 76.7045C156.257 76.4621 156.334 76.1875 156.334 75.8807V74.9545C156.259 75.0038 156.154 75.0492 156.022 75.0909C155.893 75.1288 155.747 75.1648 155.584 75.1989C155.422 75.2292 155.259 75.2576 155.096 75.2841C154.933 75.3068 154.785 75.3277 154.653 75.3466C154.368 75.3883 154.12 75.4545 153.908 75.5455C153.696 75.6364 153.531 75.7595 153.414 75.9148C153.297 76.0663 153.238 76.2557 153.238 76.483C153.238 76.8125 153.357 77.0644 153.596 77.2386C153.838 77.4091 154.145 77.4943 154.516 77.4943ZM155.028 82.267C154.668 82.267 154.359 82.1477 154.101 81.9091C153.844 81.6705 153.715 81.3826 153.715 81.0455C153.715 80.7083 153.844 80.4205 154.101 80.1818C154.359 79.9432 154.668 79.8239 155.028 79.8239C155.387 79.8239 155.694 79.9432 155.948 80.1818C156.206 80.4205 156.334 80.7083 156.334 81.0455C156.334 81.3826 156.206 81.6705 155.948 81.9091C155.694 82.1477 155.387 82.267 155.028 82.267ZM160.456 79V70.2727H162.762V71.8125H162.865C163.047 71.3011 163.35 70.8977 163.774 70.6023C164.198 70.3068 164.706 70.1591 165.297 70.1591C165.895 70.1591 166.405 70.3087 166.825 70.608C167.245 70.9034 167.526 71.3049 167.666 71.8125H167.757C167.935 71.3125 168.257 70.9129 168.723 70.6136C169.192 70.3106 169.747 70.1591 170.387 70.1591C171.202 70.1591 171.863 70.4186 172.37 70.9375C172.882 71.4527 173.137 72.1837 173.137 73.1307V79H170.723V73.608C170.723 73.1231 170.594 72.7595 170.336 72.517C170.079 72.2746 169.757 72.1534 169.37 72.1534C168.931 72.1534 168.588 72.2936 168.342 72.5739C168.096 72.8504 167.973 73.2159 167.973 73.6705V79H165.626V73.5568C165.626 73.1288 165.503 72.7879 165.257 72.5341C165.014 72.2803 164.694 72.1534 164.297 72.1534C164.028 72.1534 163.785 72.2216 163.569 72.358C163.357 72.4905 163.189 72.678 163.064 72.9205C162.939 73.1591 162.876 73.4394 162.876 73.7614V79H160.456ZM181.648 79.142C180.986 79.142 180.385 78.9716 179.847 78.6307C179.313 78.286 178.889 77.7803 178.575 77.1136C178.264 76.4432 178.109 75.6212 178.109 74.6477C178.109 73.6477 178.27 72.8163 178.592 72.1534C178.914 71.4867 179.342 70.9886 179.876 70.6591C180.414 70.3258 181.003 70.1591 181.643 70.1591C182.131 70.1591 182.539 70.2424 182.864 70.4091C183.194 70.572 183.459 70.7765 183.66 71.0227C183.864 71.2652 184.02 71.5038 184.126 71.7386H184.2V67.3636H186.614V79H184.228V77.6023H184.126C184.012 77.8447 183.851 78.0852 183.643 78.3239C183.438 78.5587 183.171 78.7538 182.842 78.9091C182.516 79.0644 182.118 79.142 181.648 79.142ZM182.415 77.2159C182.806 77.2159 183.135 77.1098 183.404 76.8977C183.677 76.6818 183.885 76.3807 184.029 75.9943C184.177 75.608 184.251 75.1553 184.251 74.6364C184.251 74.1174 184.179 73.6667 184.035 73.2841C183.891 72.9015 183.683 72.6061 183.41 72.3977C183.137 72.1894 182.806 72.0852 182.415 72.0852C182.018 72.0852 181.683 72.1932 181.41 72.4091C181.137 72.625 180.931 72.9242 180.79 73.3068C180.65 73.6894 180.58 74.1326 180.58 74.6364C180.58 75.1439 180.65 75.5928 180.79 75.983C180.934 76.3693 181.141 76.6723 181.41 76.892C181.683 77.108 182.018 77.2159 182.415 77.2159ZM181.938 69.6761V68.25H187.609V69.6761H181.938ZM192.422 79.1705C191.524 79.1705 190.751 78.9886 190.103 78.625C189.46 78.2576 188.963 77.7386 188.615 77.0682C188.266 76.3939 188.092 75.5966 188.092 74.6761C188.092 73.7784 188.266 72.9905 188.615 72.3125C188.963 71.6345 189.454 71.1061 190.086 70.7273C190.723 70.3485 191.469 70.1591 192.325 70.1591C192.901 70.1591 193.437 70.2519 193.933 70.4375C194.433 70.6193 194.869 70.8939 195.24 71.2614C195.615 71.6288 195.907 72.0909 196.115 72.6477C196.323 73.2008 196.427 73.8485 196.427 74.5909V75.2557H189.058V73.7557H194.149C194.149 73.4072 194.073 73.0985 193.922 72.8295C193.77 72.5606 193.56 72.3504 193.291 72.1989C193.026 72.0436 192.717 71.9659 192.365 71.9659C191.997 71.9659 191.672 72.0511 191.388 72.2216C191.107 72.3883 190.888 72.6136 190.728 72.8977C190.569 73.178 190.488 73.4905 190.484 73.8352V75.2614C190.484 75.6932 190.564 76.0663 190.723 76.3807C190.886 76.6951 191.115 76.9375 191.41 77.108C191.706 77.2784 192.056 77.3636 192.461 77.3636C192.73 77.3636 192.977 77.3258 193.2 77.25C193.424 77.1742 193.615 77.0606 193.774 76.9091C193.933 76.7576 194.054 76.572 194.138 76.3523L196.376 76.5C196.263 77.0379 196.03 77.5076 195.677 77.9091C195.329 78.3068 194.878 78.6174 194.325 78.8409C193.776 79.0606 193.141 79.1705 192.422 79.1705ZM192.944 67.6136L195.183 69.3807H193.518L192.257 68.3864L190.978 69.3807H189.314L191.552 67.6136H192.944ZM195.7 68.3864H194.444L194.336 67.5341C194.662 67.5189 194.899 67.4773 195.047 67.4091C195.194 67.3409 195.268 67.2405 195.268 67.108C195.268 66.9337 195.175 66.8163 194.99 66.7557C194.804 66.6951 194.573 66.6648 194.297 66.6648L194.353 65.75C195.122 65.75 195.71 65.8636 196.115 66.0909C196.52 66.3144 196.723 66.6307 196.723 67.0398C196.723 67.3239 196.615 67.5417 196.399 67.6932C196.187 67.8409 195.954 67.9356 195.7 67.9773V68.3864ZM134.364 103.142C133.701 103.142 133.101 102.972 132.563 102.631C132.029 102.286 131.605 101.78 131.291 101.114C130.98 100.443 130.825 99.6212 130.825 98.6477C130.825 97.6477 130.986 96.8163 131.308 96.1534C131.63 95.4867 132.058 94.9886 132.592 94.6591C133.13 94.3258 133.719 94.1591 134.359 94.1591C134.847 94.1591 135.255 94.2424 135.58 94.4091C135.91 94.572 136.175 94.7765 136.376 95.0227C136.58 95.2652 136.736 95.5038 136.842 95.7386H136.916V91.3636H139.33V103H136.944V101.602H136.842C136.728 101.845 136.567 102.085 136.359 102.324C136.154 102.559 135.887 102.754 135.558 102.909C135.232 103.064 134.834 103.142 134.364 103.142ZM135.131 101.216C135.522 101.216 135.851 101.11 136.12 100.898C136.393 100.682 136.601 100.381 136.745 99.9943C136.893 99.608 136.967 99.1553 136.967 98.6364C136.967 98.1174 136.895 97.6667 136.751 97.2841C136.607 96.9015 136.398 96.6061 136.126 96.3977C135.853 96.1894 135.522 96.0852 135.131 96.0852C134.734 96.0852 134.398 96.1932 134.126 96.4091C133.853 96.625 133.647 96.9242 133.506 97.3068C133.366 97.6894 133.296 98.1326 133.296 98.6364C133.296 99.1439 133.366 99.5928 133.506 99.983C133.65 100.369 133.857 100.672 134.126 100.892C134.398 101.108 134.734 101.216 135.131 101.216ZM134.654 93.6761V92.25H140.325V93.6761H134.654ZM145.104 103.17C144.221 103.17 143.458 102.983 142.814 102.608C142.174 102.229 141.679 101.703 141.331 101.028C140.982 100.35 140.808 99.5644 140.808 98.6705C140.808 97.7689 140.982 96.9811 141.331 96.3068C141.679 95.6288 142.174 95.1023 142.814 94.7273C143.458 94.3485 144.221 94.1591 145.104 94.1591C145.986 94.1591 146.747 94.3485 147.388 94.7273C148.032 95.1023 148.528 95.6288 148.876 96.3068C149.225 96.9811 149.399 97.7689 149.399 98.6705C149.399 99.5644 149.225 100.35 148.876 101.028C148.528 101.703 148.032 102.229 147.388 102.608C146.747 102.983 145.986 103.17 145.104 103.17ZM145.115 101.295C145.516 101.295 145.852 101.182 146.121 100.955C146.39 100.723 146.592 100.409 146.729 100.011C146.869 99.6136 146.939 99.161 146.939 98.6534C146.939 98.1458 146.869 97.6932 146.729 97.2955C146.592 96.8977 146.39 96.5833 146.121 96.3523C145.852 96.1212 145.516 96.0057 145.115 96.0057C144.71 96.0057 144.369 96.1212 144.092 96.3523C143.819 96.5833 143.613 96.8977 143.473 97.2955C143.336 97.6932 143.268 98.1458 143.268 98.6534C143.268 99.161 143.336 99.6136 143.473 100.011C143.613 100.409 143.819 100.723 144.092 100.955C144.369 101.182 144.71 101.295 145.115 101.295ZM145.78 91.6136L148.018 93.3807H146.354L145.092 92.3864L143.814 93.3807H142.149L144.388 91.6136H145.78ZM148.535 92.3864H147.28L147.172 91.5341C147.497 91.5189 147.734 91.4773 147.882 91.4091C148.03 91.3409 148.104 91.2405 148.104 91.108C148.104 90.9337 148.011 90.8163 147.825 90.7557C147.64 90.6951 147.408 90.6648 147.132 90.6648L147.189 89.75C147.958 89.75 148.545 89.8636 148.95 90.0909C149.355 90.3144 149.558 90.6307 149.558 91.0398C149.558 91.3239 149.45 91.5417 149.234 91.6932C149.022 91.8409 148.789 91.9356 148.535 91.9773V92.3864ZM150.813 103V94.2727H153.233V103H150.813ZM152.029 93.1477C151.669 93.1477 151.36 93.0284 151.103 92.7898C150.849 92.5473 150.722 92.2576 150.722 91.9205C150.722 91.5871 150.849 91.3011 151.103 91.0625C151.36 90.8201 151.669 90.6989 152.029 90.6989C152.389 90.6989 152.695 90.8201 152.949 91.0625C153.207 91.3011 153.336 91.5871 153.336 91.9205C153.336 92.2576 153.207 92.5473 152.949 92.7898C152.695 93.0284 152.389 93.1477 152.029 93.1477ZM160.976 97.9545V103H158.555V94.2727H160.862V95.8125H160.964C161.158 95.3049 161.481 94.9034 161.936 94.608C162.391 94.3087 162.942 94.1591 163.589 94.1591C164.195 94.1591 164.724 94.2917 165.175 94.5568C165.625 94.822 165.976 95.2008 166.226 95.6932C166.476 96.1818 166.601 96.7652 166.601 97.4432V103H164.18V97.875C164.184 97.3409 164.048 96.9242 163.771 96.625C163.495 96.322 163.114 96.1705 162.629 96.1705C162.303 96.1705 162.016 96.2405 161.766 96.3807C161.519 96.5208 161.326 96.7254 161.186 96.9943C161.05 97.2595 160.98 97.5795 160.976 97.9545ZM172.28 106.455C171.496 106.455 170.824 106.347 170.263 106.131C169.706 105.919 169.263 105.629 168.934 105.261C168.604 104.894 168.39 104.481 168.292 104.023L170.53 103.722C170.598 103.896 170.706 104.059 170.854 104.21C171.002 104.362 171.197 104.483 171.439 104.574C171.686 104.669 171.985 104.716 172.337 104.716C172.864 104.716 173.297 104.587 173.638 104.33C173.983 104.076 174.155 103.65 174.155 103.051V101.455H174.053C173.947 101.697 173.788 101.926 173.576 102.142C173.364 102.358 173.091 102.534 172.758 102.67C172.424 102.807 172.027 102.875 171.564 102.875C170.909 102.875 170.312 102.723 169.775 102.42C169.241 102.114 168.814 101.646 168.496 101.017C168.182 100.384 168.025 99.5852 168.025 98.6193C168.025 97.6307 168.186 96.8049 168.508 96.142C168.83 95.4792 169.258 94.983 169.792 94.6534C170.33 94.3239 170.919 94.1591 171.559 94.1591C172.047 94.1591 172.456 94.2424 172.786 94.4091C173.116 94.572 173.381 94.7765 173.581 95.0227C173.786 95.2652 173.943 95.5038 174.053 95.7386H174.144V94.2727H176.547V103.085C176.547 103.828 176.366 104.449 176.002 104.949C175.638 105.449 175.134 105.824 174.491 106.074C173.85 106.328 173.114 106.455 172.28 106.455ZM172.331 101.057C172.722 101.057 173.051 100.96 173.32 100.767C173.593 100.57 173.801 100.29 173.945 99.9261C174.093 99.5587 174.167 99.1193 174.167 98.608C174.167 98.0966 174.095 97.6534 173.951 97.2784C173.807 96.8996 173.598 96.6061 173.326 96.3977C173.053 96.1894 172.722 96.0852 172.331 96.0852C171.934 96.0852 171.598 96.1932 171.326 96.4091C171.053 96.6212 170.847 96.9167 170.706 97.2955C170.566 97.6742 170.496 98.1117 170.496 98.608C170.496 99.1117 170.566 99.5473 170.706 99.9148C170.85 100.278 171.057 100.561 171.326 100.761C171.598 100.958 171.934 101.057 172.331 101.057ZM180.802 103.165C180.245 103.165 179.749 103.068 179.313 102.875C178.878 102.678 178.533 102.388 178.279 102.006C178.029 101.619 177.904 101.138 177.904 100.562C177.904 100.078 177.993 99.6705 178.171 99.3409C178.349 99.0114 178.592 98.7462 178.899 98.5455C179.206 98.3447 179.554 98.1932 179.944 98.0909C180.338 97.9886 180.751 97.9167 181.183 97.875C181.69 97.822 182.099 97.7727 182.41 97.7273C182.721 97.678 182.946 97.6061 183.086 97.5114C183.226 97.4167 183.296 97.2765 183.296 97.0909V97.0568C183.296 96.697 183.183 96.4186 182.956 96.2216C182.732 96.0246 182.414 95.9261 182.001 95.9261C181.565 95.9261 181.219 96.0227 180.961 96.2159C180.704 96.4053 180.533 96.6439 180.45 96.9318L178.211 96.75C178.325 96.2197 178.548 95.7614 178.882 95.375C179.215 94.9848 179.645 94.6856 180.171 94.4773C180.702 94.2652 181.315 94.1591 182.012 94.1591C182.497 94.1591 182.961 94.2159 183.404 94.3295C183.851 94.4432 184.247 94.6193 184.592 94.858C184.94 95.0966 185.215 95.4034 185.416 95.7784C185.617 96.1496 185.717 96.5947 185.717 97.1136V103H183.421V101.79H183.353C183.213 102.062 183.026 102.303 182.791 102.511C182.556 102.716 182.274 102.877 181.944 102.994C181.615 103.108 181.234 103.165 180.802 103.165ZM181.495 101.494C181.851 101.494 182.166 101.424 182.438 101.284C182.711 101.14 182.925 100.947 183.081 100.705C183.236 100.462 183.313 100.187 183.313 99.8807V98.9545C183.238 99.0038 183.134 99.0492 183.001 99.0909C182.872 99.1288 182.726 99.1648 182.563 99.1989C182.401 99.2292 182.238 99.2576 182.075 99.2841C181.912 99.3068 181.764 99.3277 181.632 99.3466C181.348 99.3883 181.099 99.4545 180.887 99.5455C180.675 99.6364 180.51 99.7595 180.393 99.9148C180.276 100.066 180.217 100.256 180.217 100.483C180.217 100.812 180.336 101.064 180.575 101.239C180.817 101.409 181.124 101.494 181.495 101.494ZM181.262 93.1477L179.529 90.5625H181.762L182.973 93.1477H181.262ZM188.617 106.273C188.31 106.273 188.022 106.248 187.753 106.199C187.488 106.153 187.268 106.095 187.094 106.023L187.639 104.216C187.923 104.303 188.179 104.35 188.406 104.358C188.637 104.366 188.836 104.313 189.003 104.199C189.173 104.085 189.312 103.892 189.418 103.619L189.56 103.25L186.429 94.2727H188.974L190.781 100.682H190.872L192.696 94.2727H195.259L191.867 103.943C191.704 104.413 191.482 104.822 191.202 105.17C190.925 105.523 190.575 105.794 190.151 105.983C189.726 106.176 189.215 106.273 188.617 106.273Z" fill="white"/>
<path d="M226.421 78.8705C225.887 78.8713 225.407 78.4389 225.348 77.9046C225.288 77.3703 225.673 76.9364 226.206 76.9356L226.421 78.8705ZM308.215 41.8084L307.146 52.7474L298.005 45.3164L308.215 41.8084ZM226.206 76.9356C234.277 76.9227 248.211 75.2326 262.704 70.7082C277.203 66.1823 292.166 58.8495 302.39 47.6158L303.893 48.9978C293.392 60.5356 278.113 67.9879 263.464 72.5607C248.811 77.135 234.693 78.8572 226.421 78.8705L226.206 76.9356Z" fill="white"/>
<path d="M316 28L320 24L316 20" stroke="white" stroke-width="1.33333" stroke-linecap="round" stroke-linejoin="round"/>
<path d="M10 28L6 24L10 20" stroke="white" stroke-width="1.33333" stroke-linecap="round" stroke-linejoin="round"/>
<path d="M44.8659 5.99503V4.72727H50.8389V5.99503H48.6123V12H47.0924V5.99503H44.8659ZM51.7799 12V10.892L54.3687 8.49503C54.5889 8.28196 54.7735 8.0902 54.9227 7.91974C55.0742 7.74929 55.189 7.58239 55.2671 7.41903C55.3453 7.25331 55.3843 7.07457 55.3843 6.88281C55.3843 6.66974 55.3358 6.48627 55.2387 6.33239C55.1417 6.17614 55.0091 6.05658 54.841 5.97372C54.6729 5.88849 54.4823 5.84588 54.2693 5.84588C54.0467 5.84588 53.8526 5.89086 53.6869 5.98082C53.5212 6.07079 53.3933 6.19981 53.3034 6.3679C53.2134 6.53598 53.1684 6.73603 53.1684 6.96804H51.7089C51.7089 6.49219 51.8166 6.07907 52.032 5.72869C52.2475 5.37831 52.5493 5.10724 52.9376 4.91548C53.3258 4.72372 53.7733 4.62784 54.2799 4.62784C54.8008 4.62784 55.2541 4.72017 55.64 4.90483C56.0283 5.08712 56.3301 5.34044 56.5455 5.66477C56.761 5.98911 56.8687 6.3608 56.8687 6.77983C56.8687 7.05445 56.8142 7.32552 56.7053 7.59304C56.5988 7.86056 56.4082 8.15767 56.1336 8.48438C55.859 8.80871 55.4719 9.19815 54.9724 9.6527L53.9106 10.6932V10.7429H56.9646V12H51.7799Z" fill="white"/>
<rect x="39" y="22" width="24" height="24" rx="4" fill="url(#paint0_linear_15626_47059)"/>
<path d="M47.697 39.169C46.9115 39.1657 46.2403 38.9586 45.6835 38.5476C45.1267 38.1366 44.7008 37.5384 44.4058 36.7528C44.1108 35.9673 43.9633 35.0211 43.9633 33.9141C43.9633 32.8104 44.1108 31.8674 44.4058 31.0852C44.7041 30.303 45.1317 29.7064 45.6885 29.2955C46.2486 28.8845 46.9181 28.679 47.697 28.679C48.4759 28.679 49.1437 28.8861 49.7006 29.3004C50.2574 29.7114 50.6833 30.308 50.9782 31.0902C51.2765 31.8691 51.4257 32.8104 51.4257 33.9141C51.4257 35.0244 51.2782 35.9723 50.9832 36.7578C50.6882 37.54 50.2623 38.1383 49.7055 38.5526C49.1487 38.9635 48.4792 39.169 47.697 39.169ZM47.697 37.8416C48.3864 37.8416 48.925 37.5052 49.3128 36.8324C49.7039 36.1596 49.8994 35.1868 49.8994 33.9141C49.8994 33.0689 49.8099 32.3546 49.6309 31.7713C49.4553 31.1847 49.2017 30.7405 48.8703 30.4389C48.5422 30.134 48.1511 29.9815 47.697 29.9815C47.0109 29.9815 46.4723 30.3196 46.0812 30.9957C45.6901 31.6719 45.4929 32.6446 45.4896 33.9141C45.4896 34.7625 45.5774 35.4801 45.7531 36.0668C45.9321 36.6501 46.1856 37.0926 46.5138 37.3942C46.8419 37.6925 47.2363 37.8416 47.697 37.8416ZM57.0523 28.8182V39H55.5111V30.3594H55.4514L53.0154 31.9503V30.4787L55.5558 28.8182H57.0523Z" fill="white"/>
<path d="M156.719 5.99503V4.72727H162.692V5.99503H160.466V12H158.946V5.99503H156.719ZM166.322 12.0994C165.791 12.0994 165.319 12.0083 164.905 11.826C164.493 11.6413 164.167 11.388 163.928 11.0661C163.691 10.7417 163.57 10.3677 163.562 9.94389H165.111C165.12 10.1214 165.178 10.2777 165.285 10.4126C165.394 10.5452 165.538 10.6482 165.718 10.7216C165.898 10.795 166.1 10.8317 166.325 10.8317C166.56 10.8317 166.767 10.7902 166.947 10.7074C167.127 10.6245 167.267 10.5097 167.369 10.3629C167.471 10.2161 167.522 10.0469 167.522 9.85511C167.522 9.66098 167.467 9.48935 167.359 9.3402C167.252 9.18868 167.098 9.07031 166.897 8.98509C166.698 8.89986 166.461 8.85724 166.187 8.85724H165.508V7.72798H166.187C166.419 7.72798 166.623 7.68774 166.801 7.60724C166.981 7.52675 167.121 7.41548 167.22 7.27344C167.32 7.12902 167.369 6.96094 167.369 6.76918C167.369 6.58688 167.325 6.42708 167.238 6.28977C167.153 6.15009 167.032 6.04119 166.876 5.96307C166.722 5.88494 166.542 5.84588 166.336 5.84588C166.128 5.84588 165.937 5.88376 165.764 5.95952C165.591 6.03291 165.453 6.13826 165.349 6.27557C165.244 6.41288 165.189 6.57386 165.182 6.75852H163.708C163.715 6.33949 163.835 5.97017 164.067 5.65057C164.299 5.33097 164.611 5.0812 165.004 4.90128C165.4 4.71899 165.846 4.62784 166.343 4.62784C166.845 4.62784 167.284 4.71899 167.66 4.90128C168.037 5.08357 168.329 5.32978 168.538 5.63991C168.748 5.94768 168.852 6.29332 168.85 6.67685C168.852 7.08404 168.726 7.42377 168.47 7.69602C168.217 7.96828 167.887 8.1411 167.479 8.21449V8.27131C168.014 8.33996 168.422 8.5258 168.701 8.82884C168.983 9.1295 169.122 9.50592 169.12 9.9581C169.122 10.3724 169.003 10.7405 168.761 11.0625C168.522 11.3845 168.192 11.6378 167.771 11.8224C167.349 12.0071 166.866 12.0994 166.322 12.0994Z" fill="white"/>
<rect x="151" y="22" width="24" height="24" rx="4" fill="#F6F6F6"/>
<path d="M158.713 39.169C157.927 39.1657 157.256 38.9586 156.699 38.5476C156.142 38.1366 155.716 37.5384 155.421 36.7528C155.126 35.9673 154.979 35.0211 154.979 33.9141C154.979 32.8104 155.126 31.8674 155.421 31.0852C155.72 30.303 156.147 29.7064 156.704 29.2955C157.264 28.8845 157.934 28.679 158.713 28.679C159.492 28.679 160.159 28.8861 160.716 29.3004C161.273 29.7114 161.699 30.308 161.994 31.0902C162.292 31.8691 162.441 32.8104 162.441 33.9141C162.441 35.0244 162.294 35.9723 161.999 36.7578C161.704 37.54 161.278 38.1383 160.721 38.5526C160.164 38.9635 159.495 39.169 158.713 39.169ZM158.713 37.8416C159.402 37.8416 159.941 37.5052 160.328 36.8324C160.719 36.1596 160.915 35.1868 160.915 33.9141C160.915 33.0689 160.826 32.3546 160.647 31.7713C160.471 31.1847 160.217 30.7405 159.886 30.4389C159.558 30.134 159.167 29.9815 158.713 29.9815C158.027 29.9815 157.488 30.3196 157.097 30.9957C156.706 31.6719 156.509 32.6446 156.505 33.9141C156.505 34.7625 156.593 35.4801 156.769 36.0668C156.948 36.6501 157.201 37.0926 157.529 37.3942C157.858 37.6925 158.252 37.8416 158.713 37.8416ZM164.205 39V37.8864L167.65 34.3168C168.018 33.929 168.321 33.5893 168.56 33.2976C168.802 33.0026 168.983 32.7225 169.102 32.4574C169.221 32.1922 169.281 31.9105 169.281 31.6122C169.281 31.2741 169.201 30.9825 169.042 30.7372C168.883 30.4886 168.666 30.2981 168.391 30.1655C168.116 30.0296 167.806 29.9616 167.461 29.9616C167.097 29.9616 166.779 30.0362 166.507 30.1854C166.235 30.3345 166.026 30.545 165.88 30.8168C165.735 31.0885 165.662 31.4067 165.662 31.7713H164.195C164.195 31.1515 164.338 30.6096 164.623 30.1456C164.908 29.6816 165.299 29.322 165.796 29.0668C166.293 28.8082 166.858 28.679 167.491 28.679C168.131 28.679 168.694 28.8066 169.182 29.0618C169.672 29.3137 170.055 29.6584 170.33 30.0959C170.605 30.5301 170.743 31.0206 170.743 31.5675C170.743 31.9453 170.671 32.3149 170.529 32.6761C170.39 33.0374 170.146 33.4401 169.798 33.8842C169.45 34.325 168.966 34.8603 168.346 35.4901L166.323 37.608V37.6825H170.907V39H164.205Z" fill="black"/>
<path d="M268.968 5.99503V4.72727H274.941V5.99503H272.715V12H271.195V5.99503H268.968ZM275.089 10.7216V9.51065L278.125 4.72727H279.169V6.40341H278.551L276.637 9.43253V9.48935H280.952V10.7216H275.089ZM278.58 12V10.3523L278.608 9.81605V4.72727H280.05V12H278.58Z" fill="white"/>
<rect x="263" y="22" width="24" height="24" rx="4" fill="#F6F6F6"/>
<path d="M270.494 39.169C269.708 39.1657 269.037 38.9586 268.48 38.5476C267.924 38.1366 267.498 37.5384 267.203 36.7528C266.908 35.9673 266.76 35.0211 266.76 33.9141C266.76 32.8104 266.908 31.8674 267.203 31.0852C267.501 30.303 267.929 29.7064 268.485 29.2955C269.045 28.8845 269.715 28.679 270.494 28.679C271.273 28.679 271.941 28.8861 272.497 29.3004C273.054 29.7114 273.48 30.308 273.775 31.0902C274.073 31.8691 274.223 32.8104 274.223 33.9141C274.223 35.0244 274.075 35.9723 273.78 36.7578C273.485 37.54 273.059 38.1383 272.502 38.5526C271.946 38.9635 271.276 39.169 270.494 39.169ZM270.494 37.8416C271.183 37.8416 271.722 37.5052 272.11 36.8324C272.501 36.1596 272.696 35.1868 272.696 33.9141C272.696 33.0689 272.607 32.3546 272.428 31.7713C272.252 31.1847 271.999 30.7405 271.667 30.4389C271.339 30.134 270.948 29.9815 270.494 29.9815C269.808 29.9815 269.269 30.3196 268.878 30.9957C268.487 31.6719 268.29 32.6446 268.286 33.9141C268.286 34.7625 268.374 35.4801 268.55 36.0668C268.729 36.6501 268.983 37.0926 269.311 37.3942C269.639 37.6925 270.033 37.8416 270.494 37.8416ZM279.531 39.1392C278.848 39.1392 278.238 39.0215 277.701 38.7862C277.168 38.5509 276.745 38.2244 276.434 37.8068C276.125 37.3859 275.96 36.8987 275.937 36.3452H277.498C277.517 36.6468 277.619 36.9086 277.801 37.1307C277.986 37.3494 278.228 37.5185 278.527 37.6378C278.825 37.7571 279.156 37.8168 279.521 37.8168C279.922 37.8168 280.277 37.7472 280.585 37.608C280.897 37.4687 281.14 37.2749 281.316 37.0263C281.491 36.7744 281.579 36.4844 281.579 36.1562C281.579 35.8149 281.491 35.5149 281.316 35.2564C281.143 34.9946 280.89 34.7891 280.555 34.6399C280.224 34.4908 279.823 34.4162 279.352 34.4162H278.492V33.1634H279.352C279.73 33.1634 280.061 33.0954 280.346 32.9595C280.635 32.8236 280.86 32.6347 281.022 32.3928C281.185 32.1475 281.266 31.8608 281.266 31.5327C281.266 31.2178 281.195 30.9444 281.052 30.7124C280.913 30.477 280.714 30.2931 280.456 30.1605C280.2 30.0279 279.899 29.9616 279.551 29.9616C279.219 29.9616 278.91 30.023 278.621 30.1456C278.336 30.2649 278.104 30.4373 277.925 30.6626C277.746 30.8847 277.65 31.1515 277.637 31.4631H276.15C276.167 30.9129 276.329 30.429 276.638 30.0114C276.949 29.5937 277.36 29.2673 277.87 29.032C278.381 28.7966 278.948 28.679 279.571 28.679C280.224 28.679 280.787 28.8066 281.261 29.0618C281.738 29.3137 282.106 29.6501 282.365 30.071C282.627 30.492 282.756 30.9527 282.753 31.4531C282.756 32.0232 282.597 32.5071 282.275 32.9048C281.957 33.3026 281.533 33.5694 281.003 33.7053V33.7848C281.679 33.8875 282.202 34.156 282.574 34.5902C282.948 35.0244 283.134 35.563 283.13 36.206C283.134 36.7661 282.978 37.2682 282.663 37.7124C282.352 38.1565 281.926 38.5062 281.385 38.7614C280.845 39.0133 280.227 39.1392 279.531 39.1392Z" fill="black"/>
<defs>
<linearGradient id="paint0_linear_15626_47059" x1="42.5147" y1="42.4853" x2="57.4222" y2="27.7778" gradientUnits="userSpaceOnUse">
<stop stop-color="#7D2EBD"/>
<stop offset="1" stop-color="#C054EE"/>
</linearGradient>
</defs>
</svg>
