<svg width="213" height="155" viewBox="0 0 213 155" fill="none" xmlns="http://www.w3.org/2000/svg">
<path d="M27.5943 117.438H25.1057C25.0603 117.116 24.9675 116.83 24.8273 116.58C24.6871 116.326 24.5072 116.11 24.2875 115.932C24.0678 115.754 23.814 115.617 23.5262 115.523C23.2421 115.428 22.9334 115.381 22.6 115.381C21.9978 115.381 21.4731 115.53 21.0262 115.83C20.5792 116.125 20.2326 116.557 19.9864 117.125C19.7402 117.689 19.6171 118.375 19.6171 119.182C19.6171 120.011 19.7402 120.708 19.9864 121.273C20.2364 121.837 20.5849 122.263 21.0318 122.551C21.4788 122.839 21.9959 122.983 22.583 122.983C22.9125 122.983 23.2175 122.939 23.4978 122.852C23.7818 122.765 24.0337 122.638 24.2534 122.472C24.4731 122.301 24.655 122.095 24.7989 121.852C24.9466 121.61 25.0489 121.333 25.1057 121.023L27.5943 121.034C27.53 121.568 27.369 122.083 27.1114 122.58C26.8576 123.072 26.5148 123.513 26.083 123.903C25.655 124.29 25.1436 124.597 24.5489 124.824C23.958 125.047 23.2894 125.159 22.5432 125.159C21.5053 125.159 20.5773 124.924 19.7591 124.455C18.9447 123.985 18.3008 123.305 17.8273 122.415C17.3576 121.525 17.1228 120.447 17.1228 119.182C17.1228 117.913 17.3614 116.833 17.8387 115.943C18.3159 115.053 18.9637 114.375 19.7818 113.909C20.6 113.439 21.5205 113.205 22.5432 113.205C23.2175 113.205 23.8425 113.299 24.4182 113.489C24.9978 113.678 25.511 113.955 25.958 114.318C26.405 114.678 26.7686 115.119 27.0489 115.642C27.333 116.165 27.5148 116.763 27.5943 117.438ZM31.5736 119.955V125H29.1531V113.364H31.5054V117.812H31.6076C31.8046 117.297 32.1228 116.894 32.5622 116.602C33.0016 116.307 33.5527 116.159 34.2156 116.159C34.8217 116.159 35.3501 116.292 35.8008 116.557C36.2554 116.818 36.6076 117.195 36.8576 117.688C37.1114 118.176 37.2364 118.761 37.2326 119.443V125H34.8122V119.875C34.816 119.337 34.6796 118.919 34.4031 118.619C34.1304 118.32 33.7478 118.17 33.2554 118.17C32.9258 118.17 32.6342 118.241 32.3804 118.381C32.1304 118.521 31.9334 118.725 31.7895 118.994C31.6493 119.259 31.5773 119.58 31.5736 119.955ZM41.4661 125.165C40.9093 125.165 40.4131 125.068 39.9775 124.875C39.5419 124.678 39.1972 124.388 38.9434 124.006C38.6934 123.619 38.5684 123.138 38.5684 122.562C38.5684 122.078 38.6574 121.67 38.8354 121.341C39.0135 121.011 39.2559 120.746 39.5627 120.545C39.8695 120.345 40.218 120.193 40.6082 120.091C41.0021 119.989 41.415 119.917 41.8468 119.875C42.3544 119.822 42.7635 119.773 43.0741 119.727C43.3847 119.678 43.61 119.606 43.7502 119.511C43.8904 119.417 43.9604 119.277 43.9604 119.091V119.057C43.9604 118.697 43.8468 118.419 43.6195 118.222C43.396 118.025 43.0779 117.926 42.665 117.926C42.2294 117.926 41.8828 118.023 41.6252 118.216C41.3676 118.405 41.1972 118.644 41.1138 118.932L38.8752 118.75C38.9888 118.22 39.2123 117.761 39.5457 117.375C39.879 116.985 40.3089 116.686 40.8354 116.477C41.3657 116.265 41.9794 116.159 42.6763 116.159C43.1612 116.159 43.6252 116.216 44.0684 116.33C44.5154 116.443 44.9112 116.619 45.2559 116.858C45.6044 117.097 45.879 117.403 46.0797 117.778C46.2805 118.15 46.3809 118.595 46.3809 119.114V125H44.0854V123.79H44.0172C43.8771 124.062 43.6896 124.303 43.4547 124.511C43.2199 124.716 42.9377 124.877 42.6082 124.994C42.2786 125.108 41.8979 125.165 41.4661 125.165ZM42.1593 123.494C42.5154 123.494 42.8297 123.424 43.1025 123.284C43.3752 123.14 43.5892 122.947 43.7445 122.705C43.8998 122.462 43.9775 122.187 43.9775 121.881V120.955C43.9017 121.004 43.7975 121.049 43.665 121.091C43.5362 121.129 43.3904 121.165 43.2275 121.199C43.0646 121.229 42.9017 121.258 42.7388 121.284C42.576 121.307 42.4282 121.328 42.2957 121.347C42.0116 121.388 41.7635 121.455 41.5513 121.545C41.3392 121.636 41.1744 121.759 41.057 121.915C40.9396 122.066 40.8809 122.256 40.8809 122.483C40.8809 122.812 41.0002 123.064 41.2388 123.239C41.4813 123.409 41.7881 123.494 42.1593 123.494ZM42.6707 128.267C42.3108 128.267 42.0021 128.148 41.7445 127.909C41.4869 127.67 41.3582 127.383 41.3582 127.045C41.3582 126.708 41.4869 126.42 41.7445 126.182C42.0021 125.943 42.3108 125.824 42.6707 125.824C43.0305 125.824 43.3373 125.943 43.5911 126.182C43.8487 126.42 43.9775 126.708 43.9775 127.045C43.9775 127.383 43.8487 127.67 43.5911 127.909C43.3373 128.148 43.0305 128.267 42.6707 128.267ZM48.0987 125V116.273H50.4055V117.812H50.5078C50.6896 117.301 50.9927 116.898 51.4169 116.602C51.8411 116.307 52.3487 116.159 52.9396 116.159C53.5381 116.159 54.0476 116.309 54.468 116.608C54.8885 116.903 55.1688 117.305 55.3089 117.812H55.3999C55.5779 117.312 55.8999 116.913 56.3658 116.614C56.8355 116.311 57.3904 116.159 58.0305 116.159C58.8449 116.159 59.5059 116.419 60.0135 116.938C60.5249 117.453 60.7805 118.184 60.7805 119.131V125H58.3658V119.608C58.3658 119.123 58.237 118.759 57.9794 118.517C57.7218 118.275 57.3999 118.153 57.0135 118.153C56.5741 118.153 56.2313 118.294 55.9851 118.574C55.7389 118.85 55.6158 119.216 55.6158 119.67V125H53.2692V119.557C53.2692 119.129 53.1461 118.788 52.8999 118.534C52.6574 118.28 52.3374 118.153 51.9396 118.153C51.6707 118.153 51.4283 118.222 51.2124 118.358C51.0002 118.491 50.8317 118.678 50.7067 118.92C50.5817 119.159 50.5192 119.439 50.5192 119.761V125H48.0987ZM69.2915 125.142C68.6286 125.142 68.0282 124.972 67.4904 124.631C66.9563 124.286 66.532 123.78 66.2176 123.114C65.907 122.443 65.7517 121.621 65.7517 120.648C65.7517 119.648 65.9127 118.816 66.2347 118.153C66.5567 117.487 66.9847 116.989 67.5188 116.659C68.0567 116.326 68.6457 116.159 69.2858 116.159C69.7745 116.159 70.1817 116.242 70.5074 116.409C70.837 116.572 71.1021 116.777 71.3029 117.023C71.5074 117.265 71.6627 117.504 71.7688 117.739H71.8426V113.364H74.2574V125H71.8711V123.602H71.7688C71.6551 123.845 71.4942 124.085 71.2858 124.324C71.0813 124.559 70.8142 124.754 70.4847 124.909C70.1589 125.064 69.7612 125.142 69.2915 125.142ZM70.0586 123.216C70.4487 123.216 70.7782 123.11 71.0472 122.898C71.3199 122.682 71.5282 122.381 71.6722 121.994C71.8199 121.608 71.8938 121.155 71.8938 120.636C71.8938 120.117 71.8218 119.667 71.6779 119.284C71.5339 118.902 71.3256 118.606 71.0529 118.398C70.7801 118.189 70.4487 118.085 70.0586 118.085C69.6608 118.085 69.3256 118.193 69.0529 118.409C68.7801 118.625 68.5737 118.924 68.4336 119.307C68.2934 119.689 68.2233 120.133 68.2233 120.636C68.2233 121.144 68.2934 121.593 68.4336 121.983C68.5775 122.369 68.7839 122.672 69.0529 122.892C69.3256 123.108 69.6608 123.216 70.0586 123.216ZM69.5813 115.676V114.25H75.2517V115.676H69.5813ZM80.0647 125.17C79.167 125.17 78.3943 124.989 77.7466 124.625C77.1026 124.258 76.6064 123.739 76.2579 123.068C75.9094 122.394 75.7352 121.597 75.7352 120.676C75.7352 119.778 75.9094 118.991 76.2579 118.312C76.6064 117.634 77.0969 117.106 77.7295 116.727C78.3659 116.348 79.1121 116.159 79.9682 116.159C80.5439 116.159 81.0799 116.252 81.5761 116.438C82.0761 116.619 82.5117 116.894 82.8829 117.261C83.2579 117.629 83.5496 118.091 83.7579 118.648C83.9663 119.201 84.0704 119.848 84.0704 120.591V121.256H76.7011V119.756H81.792C81.792 119.407 81.7163 119.098 81.5647 118.83C81.4132 118.561 81.203 118.35 80.9341 118.199C80.6689 118.044 80.3602 117.966 80.0079 117.966C79.6405 117.966 79.3147 118.051 79.0307 118.222C78.7504 118.388 78.5307 118.614 78.3716 118.898C78.2125 119.178 78.131 119.491 78.1272 119.835V121.261C78.1272 121.693 78.2068 122.066 78.3659 122.381C78.5288 122.695 78.7579 122.938 79.0534 123.108C79.3488 123.278 79.6992 123.364 80.1045 123.364C80.3735 123.364 80.6197 123.326 80.8432 123.25C81.0666 123.174 81.2579 123.061 81.417 122.909C81.5761 122.758 81.6973 122.572 81.7807 122.352L84.0193 122.5C83.9057 123.038 83.6727 123.508 83.3204 123.909C82.9719 124.307 82.5212 124.617 81.9682 124.841C81.4189 125.061 80.7844 125.17 80.0647 125.17ZM80.5875 113.614L82.8261 115.381H81.1613L79.9 114.386L78.6216 115.381H76.9568L79.1954 113.614H80.5875ZM83.3432 114.386H82.0875L81.9795 113.534C82.3053 113.519 82.542 113.477 82.6897 113.409C82.8375 113.341 82.9113 113.241 82.9113 113.108C82.9113 112.934 82.8185 112.816 82.6329 112.756C82.4473 112.695 82.2163 112.665 81.9397 112.665L81.9966 111.75C82.7655 111.75 83.3526 111.864 83.7579 112.091C84.1632 112.314 84.3659 112.631 84.3659 113.04C84.3659 113.324 84.2579 113.542 84.042 113.693C83.8299 113.841 83.5969 113.936 83.3432 113.977V114.386ZM5.65983 140.273V142.091H0.404149V140.273H5.65983ZM1.59733 138.182H4.01779V146.318C4.01779 146.542 4.05188 146.716 4.12006 146.841C4.18824 146.962 4.28294 147.047 4.40415 147.097C4.52915 147.146 4.67309 147.17 4.83597 147.17C4.9496 147.17 5.06324 147.161 5.17688 147.142C5.29051 147.119 5.37763 147.102 5.43824 147.091L5.81892 148.892C5.69771 148.93 5.52726 148.973 5.30756 149.023C5.08786 149.076 4.82082 149.108 4.50642 149.119C3.92309 149.142 3.41172 149.064 2.97233 148.886C2.53672 148.708 2.19771 148.432 1.95529 148.057C1.71286 147.682 1.59354 147.208 1.59733 146.636V138.182ZM9.68449 143.955V149H7.26404V137.364H9.61631V141.812H9.71858C9.91555 141.297 10.2337 140.894 10.6731 140.602C11.1125 140.307 11.6637 140.159 12.3265 140.159C12.9326 140.159 13.461 140.292 13.9118 140.557C14.3663 140.818 14.7186 141.195 14.9686 141.688C15.2224 142.176 15.3474 142.761 15.3436 143.443V149H12.9231V143.875C12.9269 143.337 12.7906 142.919 12.514 142.619C12.2413 142.32 11.8587 142.17 11.3663 142.17C11.0368 142.17 10.7451 142.241 10.4913 142.381C10.2413 142.521 10.0443 142.725 9.9004 142.994C9.76025 143.259 9.68828 143.58 9.68449 143.955ZM21.0657 149.17C20.168 149.17 19.3952 148.989 18.7475 148.625C18.1036 148.258 17.6073 147.739 17.2589 147.068C16.9104 146.394 16.7361 145.597 16.7361 144.676C16.7361 143.778 16.9104 142.991 17.2589 142.312C17.6073 141.634 18.0979 141.106 18.7305 140.727C19.3668 140.348 20.113 140.159 20.9691 140.159C21.5449 140.159 22.0808 140.252 22.577 140.438C23.077 140.619 23.5127 140.894 23.8839 141.261C24.2589 141.629 24.5505 142.091 24.7589 142.648C24.9672 143.201 25.0714 143.848 25.0714 144.591V145.256H17.702V143.756H22.793C22.793 143.407 22.7172 143.098 22.5657 142.83C22.4142 142.561 22.2039 142.35 21.935 142.199C21.6699 142.044 21.3611 141.966 21.0089 141.966C20.6414 141.966 20.3157 142.051 20.0316 142.222C19.7513 142.388 19.5316 142.614 19.3725 142.898C19.2134 143.178 19.132 143.491 19.1282 143.835V145.261C19.1282 145.693 19.2077 146.066 19.3668 146.381C19.5297 146.695 19.7589 146.938 20.0543 147.108C20.3498 147.278 20.7002 147.364 21.1055 147.364C21.3744 147.364 21.6206 147.326 21.8441 147.25C22.0676 147.174 22.2589 147.061 22.418 146.909C22.577 146.758 22.6983 146.572 22.7816 146.352L25.0202 146.5C24.9066 147.038 24.6736 147.508 24.3214 147.909C23.9729 148.307 23.5221 148.617 22.9691 148.841C22.4199 149.061 21.7854 149.17 21.0657 149.17ZM22.0543 139.227L20.9123 137.841L19.7702 139.227H17.7077V139.148L20.0089 136.648H21.81L24.1168 139.148V139.227H22.0543ZM26.4909 149V140.273H28.7977V141.812H28.9C29.0818 141.301 29.3849 140.898 29.8091 140.602C30.2333 140.307 30.7409 140.159 31.3318 140.159C31.9303 140.159 32.4398 140.309 32.8602 140.608C33.2807 140.903 33.561 141.305 33.7011 141.812H33.792C33.9701 141.312 34.292 140.913 34.758 140.614C35.2277 140.311 35.7826 140.159 36.4227 140.159C37.2371 140.159 37.8981 140.419 38.4057 140.938C38.917 141.453 39.1727 142.184 39.1727 143.131V149H36.758V143.608C36.758 143.123 36.6292 142.759 36.3716 142.517C36.114 142.275 35.792 142.153 35.4057 142.153C34.9663 142.153 34.6235 142.294 34.3773 142.574C34.1311 142.85 34.008 143.216 34.008 143.67V149H31.6614V143.557C31.6614 143.129 31.5383 142.788 31.292 142.534C31.0496 142.28 30.7295 142.153 30.3318 142.153C30.0629 142.153 29.8205 142.222 29.6045 142.358C29.3924 142.491 29.2239 142.678 29.0989 142.92C28.9739 143.159 28.9114 143.439 28.9114 143.761V149H26.4909ZM48.6382 149H44.5132V137.364H48.6723C49.8428 137.364 50.8504 137.597 51.6951 138.062C52.5398 138.525 53.1894 139.189 53.6439 140.057C54.1023 140.924 54.3314 141.962 54.3314 143.17C54.3314 144.383 54.1023 145.424 53.6439 146.295C53.1894 147.167 52.536 147.835 51.6837 148.301C50.8352 148.767 49.8201 149 48.6382 149ZM46.9735 146.892H48.536C49.2632 146.892 49.875 146.763 50.3712 146.506C50.8712 146.244 51.2462 145.841 51.4962 145.295C51.75 144.746 51.8769 144.038 51.8769 143.17C51.8769 142.311 51.75 141.608 51.4962 141.062C51.2462 140.517 50.8731 140.116 50.3769 139.858C49.8807 139.6 49.2689 139.472 48.5416 139.472H46.9735V146.892ZM55.9484 149V140.273H58.3689V149H55.9484ZM57.1643 139.148C56.8045 139.148 56.4958 139.028 56.2382 138.79C55.9844 138.547 55.8575 138.258 55.8575 137.92C55.8575 137.587 55.9844 137.301 56.2382 137.062C56.4958 136.82 56.8045 136.699 57.1643 136.699C57.5242 136.699 57.831 136.82 58.0848 137.062C58.3424 137.301 58.4711 137.587 58.4711 137.92C58.4711 138.258 58.3424 138.547 58.0848 138.79C57.831 139.028 57.5242 139.148 57.1643 139.148ZM57.1814 152.267C56.8215 152.267 56.5128 152.148 56.2552 151.909C55.9977 151.67 55.8689 151.383 55.8689 151.045C55.8689 150.708 55.9977 150.42 56.2552 150.182C56.5128 149.943 56.8215 149.824 57.1814 149.824C57.5412 149.824 57.848 149.943 58.1018 150.182C58.3594 150.42 58.4882 150.708 58.4882 151.045C58.4882 151.383 58.3594 151.67 58.1018 151.909C57.848 152.148 57.5412 152.267 57.1814 152.267ZM64.091 149.17C63.197 149.17 62.4281 148.981 61.7841 148.602C61.144 148.22 60.6516 147.689 60.3069 147.011C59.966 146.333 59.7955 145.553 59.7955 144.67C59.7955 143.777 59.9679 142.992 60.3126 142.318C60.661 141.64 61.1554 141.112 61.7955 140.733C62.4357 140.35 63.197 140.159 64.0796 140.159C64.841 140.159 65.5076 140.297 66.0796 140.574C66.6516 140.85 67.1042 141.239 67.4376 141.739C67.7709 142.239 67.9546 142.826 67.9887 143.5H65.7046C65.6402 143.064 65.4698 142.714 65.1932 142.449C64.9205 142.18 64.5626 142.045 64.1194 142.045C63.7444 142.045 63.4167 142.148 63.1364 142.352C62.8599 142.553 62.644 142.847 62.4887 143.233C62.3334 143.619 62.2557 144.087 62.2557 144.636C62.2557 145.193 62.3315 145.667 62.483 146.057C62.6383 146.447 62.8561 146.744 63.1364 146.949C63.4167 147.153 63.7444 147.256 64.1194 147.256C64.3959 147.256 64.644 147.199 64.8637 147.085C65.0872 146.972 65.2709 146.807 65.4148 146.591C65.5626 146.371 65.6591 146.108 65.7046 145.801H67.9887C67.9508 146.468 67.769 147.055 67.4432 147.562C67.1213 148.066 66.6762 148.46 66.108 148.744C65.5398 149.028 64.8675 149.17 64.091 149.17ZM71.7989 143.955V149H69.3784V137.364H71.7307V141.812H71.833C72.0299 141.297 72.3481 140.894 72.7875 140.602C73.2269 140.307 73.778 140.159 74.4409 140.159C75.047 140.159 75.5754 140.292 76.0261 140.557C76.4807 140.818 76.833 141.195 77.083 141.688C77.3367 142.176 77.4617 142.761 77.458 143.443V149H75.0375V143.875C75.0413 143.337 74.9049 142.919 74.6284 142.619C74.3557 142.32 73.9731 142.17 73.4807 142.17C73.1511 142.17 72.8595 142.241 72.6057 142.381C72.3557 142.521 72.1587 142.725 72.0148 142.994C71.8746 143.259 71.8027 143.58 71.7989 143.955ZM90.8823 140.273L87.8311 149H85.1039L82.0527 140.273H84.6095L86.422 146.517H86.513L88.3198 140.273H90.8823ZM97.5575 145.284V140.273H99.978V149H97.6541V147.415H97.5632C97.3662 147.926 97.0386 148.337 96.5802 148.648C96.1257 148.958 95.5708 149.114 94.9154 149.114C94.3321 149.114 93.8189 148.981 93.3757 148.716C92.9325 148.451 92.5859 148.074 92.3359 147.585C92.0897 147.097 91.9647 146.511 91.9609 145.83V140.273H94.3814V145.398C94.3851 145.913 94.5234 146.32 94.7961 146.619C95.0689 146.919 95.4344 147.068 95.8927 147.068C96.1844 147.068 96.4571 147.002 96.7109 146.869C96.9647 146.733 97.1692 146.532 97.3245 146.267C97.4836 146.002 97.5613 145.674 97.5575 145.284ZM96.3359 152.267C95.9761 152.267 95.6673 152.148 95.4098 151.909C95.1522 151.67 95.0234 151.383 95.0234 151.045C95.0234 150.708 95.1522 150.42 95.4098 150.182C95.6673 149.943 95.9761 149.824 96.3359 149.824C96.6958 149.824 97.0026 149.943 97.2564 150.182C97.5139 150.42 97.6427 150.708 97.6427 151.045C97.6427 151.383 97.5139 151.67 97.2564 151.909C97.0026 152.148 96.6958 152.267 96.3359 152.267Z" fill="white"/>
<path d="M201 8V16M197 12H205M211 12C211 17.5228 206.523 22 201 22C195.477 22 191 17.5228 191 12C191 6.47715 195.477 2 201 2C206.523 2 211 6.47715 211 12Z" stroke="white" stroke-width="2" stroke-linecap="round" stroke-linejoin="round"/>
<path d="M115.659 129.983C115.114 130.084 114.601 129.725 114.513 129.182C114.425 128.638 114.796 128.117 115.341 128.016L115.659 129.983ZM201 28.2655L206.201 38.4554L194.675 38.0697L201 28.2655ZM115.341 128.016C167.419 118.423 195.492 73.6412 199.501 37.1775L201.488 37.3512C197.404 74.5045 168.814 120.192 115.659 129.983L115.341 128.016Z" fill="white"/>
</svg>
