<svg width="36" height="36" viewBox="0 0 36 36" fill="none" xmlns="http://www.w3.org/2000/svg">
<g filter="url(#filter0_d_15237_5097)">
<circle cx="18.4058" cy="17.8002" r="13.6" fill="white"/>
<path d="M25.7324 14.1279H25.0601V20.9893C25.0601 21.7577 24.4956 22.3842 23.8016 22.3861C22.8273 22.3887 20.9522 22.6 19.8144 23.7942C21.7823 23.2599 24.4396 23.6072 25.6219 23.906C25.7695 23.9433 25.9221 23.9048 26.0404 23.8003C26.1582 23.696 26.2258 23.5401 26.2258 23.3728V14.6751C26.2259 14.3734 26.0045 14.1279 25.7324 14.1279Z" fill="#228B22"/>
<path d="M10.3993 14.1279H11.0715V20.9893C11.0715 21.7577 11.6361 22.3842 12.33 22.3861C13.3044 22.3887 15.1794 22.6 16.3173 23.7942C14.3494 23.2599 11.692 23.6072 10.5097 23.906C10.3621 23.9433 10.2096 23.9048 10.0913 23.8003C9.97344 23.696 9.90583 23.5401 9.90583 23.3728V14.6751C9.90579 14.3734 10.1272 14.1279 10.3993 14.1279Z" fill="#228B22"/>
<path d="M12.7647 11.6802C12.7643 11.6802 12.7639 11.6802 12.7635 11.6802C12.6237 11.6802 12.4922 11.7392 12.393 11.8464C12.2926 11.9549 12.2373 12.0993 12.2373 12.253V20.8419C12.2373 21.1569 12.4748 21.4137 12.7668 21.4145C13.9978 21.4177 16.0602 21.6956 17.483 23.3082V14.3196C17.483 14.2128 17.4578 14.1126 17.4103 14.0296C16.2426 11.9928 13.9985 11.6833 12.7647 11.6802Z" fill="#228B22"/>
<path d="M23.8945 20.842V12.253C23.8945 12.0993 23.8392 11.9549 23.7388 11.8464C23.6395 11.7392 23.508 11.6802 23.3683 11.6802C23.3679 11.6802 23.3674 11.6802 23.367 11.6802C22.1333 11.6834 19.8892 11.9928 18.7214 14.0296C18.6739 14.1126 18.6487 14.2129 18.6487 14.3197V23.3082C20.0715 21.6956 22.134 21.4177 23.365 21.4145C23.6569 21.4137 23.8945 21.1569 23.8945 20.842Z" fill="#228B22"/>
</g>
<defs>
<filter id="filter0_d_15237_5097" x="0.805847" y="0.200195" width="35.2" height="35.2002" filterUnits="userSpaceOnUse" color-interpolation-filters="sRGB">
<feFlood flood-opacity="0" result="BackgroundImageFix"/>
<feColorMatrix in="SourceAlpha" type="matrix" values="0 0 0 0 0 0 0 0 0 0 0 0 0 0 0 0 0 0 127 0" result="hardAlpha"/>
<feOffset/>
<feGaussianBlur stdDeviation="2"/>
<feComposite in2="hardAlpha" operator="out"/>
<feColorMatrix type="matrix" values="0 0 0 0 0 0 0 0 0 0 0 0 0 0 0 0 0 0 0.12 0"/>
<feBlend mode="normal" in2="BackgroundImageFix" result="effect1_dropShadow_15237_5097"/>
<feBlend mode="normal" in="SourceGraphic" in2="effect1_dropShadow_15237_5097" result="shape"/>
</filter>
</defs>
</svg>
