<svg width="36" height="36" viewBox="0 0 36 36" fill="none" xmlns="http://www.w3.org/2000/svg">
<g filter="url(#filter0_d_15237_5513)">
<circle cx="17.9059" cy="17.7997" r="13.6" fill="white"/>
<path d="M17.5667 10.3193C21.5107 10.3193 24.7078 13.5341 24.7078 17.5C24.7087 18.6149 24.4511 19.7146 23.9553 20.7118C23.4596 21.709 22.7395 22.5763 21.8521 23.2446H24.6714C24.8608 23.2446 25.0425 23.3203 25.1764 23.4549C25.3103 23.5896 25.3856 23.7722 25.3856 23.9627C25.3856 24.1531 25.3103 24.3358 25.1764 24.4704C25.0425 24.6051 24.8608 24.6807 24.6714 24.6807H17.5667C13.6226 24.6807 10.4255 21.4659 10.4255 17.5C10.4255 13.5341 13.6226 10.3193 17.5667 10.3193ZM17.5667 18.9362C17.1879 18.9362 16.8246 19.0875 16.5568 19.3568C16.2889 19.6261 16.1384 19.9914 16.1384 20.3723C16.1384 20.7532 16.2889 21.1185 16.5568 21.3878C16.8246 21.6572 17.1879 21.8085 17.5667 21.8085C17.9455 21.8085 18.3087 21.6572 18.5766 21.3878C18.8444 21.1185 18.9949 20.7532 18.9949 20.3723C18.9949 19.9914 18.8444 19.6261 18.5766 19.3568C18.3087 19.0875 17.9455 18.9362 17.5667 18.9362ZM14.7102 16.0639C14.3314 16.0639 13.9682 16.2152 13.7003 16.4845C13.4325 16.7539 13.282 17.1192 13.282 17.5C13.282 17.8809 13.4325 18.2462 13.7003 18.5155C13.9682 18.7849 14.3314 18.9362 14.7102 18.9362C15.089 18.9362 15.4523 18.7849 15.7201 18.5155C15.988 18.2462 16.1384 17.8809 16.1384 17.5C16.1384 17.1192 15.988 16.7539 15.7201 16.4845C15.4523 16.2152 15.089 16.0639 14.7102 16.0639ZM20.4231 16.0639C20.0443 16.0639 19.6811 16.2152 19.4132 16.4845C19.1454 16.7539 18.9949 17.1192 18.9949 17.5C18.9949 17.8809 19.1454 18.2462 19.4132 18.5155C19.6811 18.7849 20.0443 18.9362 20.4231 18.9362C20.8019 18.9362 21.1652 18.7849 21.433 18.5155C21.7009 18.2462 21.8514 17.8809 21.8514 17.5C21.8514 17.1192 21.7009 16.7539 21.433 16.4845C21.1652 16.2152 20.8019 16.0639 20.4231 16.0639ZM17.5667 13.1916C17.1879 13.1916 16.8246 13.3429 16.5568 13.6123C16.2889 13.8816 16.1384 14.2469 16.1384 14.6278C16.1384 15.0086 16.2889 15.3739 16.5568 15.6433C16.8246 15.9126 17.1879 16.0639 17.5667 16.0639C17.9455 16.0639 18.3087 15.9126 18.5766 15.6433C18.8444 15.3739 18.9949 15.0086 18.9949 14.6278C18.9949 14.2469 18.8444 13.8816 18.5766 13.6123C18.3087 13.3429 17.9455 13.1916 17.5667 13.1916Z" fill="#FACA16"/>
</g>
<defs>
<filter id="filter0_d_15237_5513" x="0.305908" y="0.199707" width="35.2" height="35.2002" filterUnits="userSpaceOnUse" color-interpolation-filters="sRGB">
<feFlood flood-opacity="0" result="BackgroundImageFix"/>
<feColorMatrix in="SourceAlpha" type="matrix" values="0 0 0 0 0 0 0 0 0 0 0 0 0 0 0 0 0 0 127 0" result="hardAlpha"/>
<feOffset/>
<feGaussianBlur stdDeviation="2"/>
<feComposite in2="hardAlpha" operator="out"/>
<feColorMatrix type="matrix" values="0 0 0 0 0 0 0 0 0 0 0 0 0 0 0 0 0 0 0.12 0"/>
<feBlend mode="normal" in2="BackgroundImageFix" result="effect1_dropShadow_15237_5513"/>
<feBlend mode="normal" in="SourceGraphic" in2="effect1_dropShadow_15237_5513" result="shape"/>
</filter>
</defs>
</svg>
