<svg width="37" height="36" viewBox="0 0 37 36" fill="none" xmlns="http://www.w3.org/2000/svg">
<g filter="url(#filter0_d_15237_5200)">
<circle cx="18.4941" cy="17.8002" r="13.6" fill="white"/>
<path d="M23.7366 11.5171H22.1172L21.0932 10.4953C21.0376 10.4398 20.9716 10.3957 20.8989 10.3657C20.8263 10.3357 20.7484 10.3203 20.6698 10.3203H15.8826C15.804 10.3203 15.7262 10.3357 15.6535 10.3657C15.5809 10.3957 15.5149 10.4398 15.4593 10.4953L14.4353 11.5171H12.8158C12.5183 11.5171 12.2329 11.6353 12.0225 11.8457C11.812 12.0562 11.6938 12.3415 11.6938 12.6391V24.1583C11.6938 24.4559 11.812 24.7413 12.0225 24.9517C12.2329 25.1621 12.5183 25.2803 12.8158 25.2803H17.3786C17.458 25.2803 17.5341 25.2488 17.5902 25.1927C17.6463 25.1366 17.6778 25.0605 17.6778 24.9811V16.3245C17.6759 16.1701 17.7325 16.0207 17.8361 15.9063C17.9397 15.7918 18.0828 15.7208 18.2366 15.7074C18.3184 15.702 18.4005 15.7134 18.4778 15.7411C18.555 15.7687 18.6258 15.8119 18.6856 15.868C18.7454 15.9241 18.7931 15.992 18.8256 16.0673C18.8581 16.1426 18.8748 16.2238 18.8746 16.3058V24.9811C18.8746 25.0605 18.9062 25.1366 18.9623 25.1927C19.0184 25.2488 19.0945 25.2803 19.1738 25.2803H23.7366C24.0342 25.2803 24.3196 25.1621 24.53 24.9517C24.7404 24.7413 24.8586 24.4559 24.8586 24.1583V12.6391C24.8586 12.3415 24.7404 12.0562 24.53 11.8457C24.3196 11.6353 24.0342 11.5171 23.7366 11.5171ZM15.175 16.5347C15.1313 16.5707 15.0782 16.5935 15.022 16.6005C14.9658 16.6075 14.9088 16.5984 14.8576 16.5742C14.8063 16.5501 14.763 16.5119 14.7326 16.4642C14.7022 16.4164 14.686 16.3609 14.6858 16.3043V12.9615L15.8258 11.8215L17.5813 14.4553L15.175 16.5347ZM21.8666 16.3043C21.8668 16.3612 21.8506 16.417 21.8202 16.4651C21.7897 16.5132 21.7461 16.5516 21.6946 16.5758C21.644 16.6003 21.5874 16.6096 21.5316 16.6029C21.4757 16.5961 21.423 16.5735 21.3797 16.5377L18.9711 14.4568L20.7267 11.823L21.8666 12.9615V16.3043Z" fill="#7E2EBC"/>
</g>
<defs>
<filter id="filter0_d_15237_5200" x="0.894135" y="0.200195" width="35.2" height="35.2002" filterUnits="userSpaceOnUse" color-interpolation-filters="sRGB">
<feFlood flood-opacity="0" result="BackgroundImageFix"/>
<feColorMatrix in="SourceAlpha" type="matrix" values="0 0 0 0 0 0 0 0 0 0 0 0 0 0 0 0 0 0 127 0" result="hardAlpha"/>
<feOffset/>
<feGaussianBlur stdDeviation="2"/>
<feComposite in2="hardAlpha" operator="out"/>
<feColorMatrix type="matrix" values="0 0 0 0 0 0 0 0 0 0 0 0 0 0 0 0 0 0 0.12 0"/>
<feBlend mode="normal" in2="BackgroundImageFix" result="effect1_dropShadow_15237_5200"/>
<feBlend mode="normal" in="SourceGraphic" in2="effect1_dropShadow_15237_5200" result="shape"/>
</filter>
</defs>
</svg>
