<svg width="38" height="38" viewBox="0 0 38 38" fill="none" xmlns="http://www.w3.org/2000/svg">
<g filter="url(#filter0_d_15237_973)">
<circle cx="19.2588" cy="18.7414" r="14.5412" fill="white"/>
<path fill-rule="evenodd" clip-rule="evenodd" d="M26.7879 18.5175H26.2955C26.081 15.2885 23.6817 12.64 20.5619 12.0669C20.6457 11.887 20.6959 11.6334 20.6959 11.4221C20.6959 10.6471 20.0653 10.0166 19.2901 10.0166C18.5149 10.0166 17.8842 10.6471 17.8842 11.4221C17.8842 11.6334 17.9344 11.887 18.0183 12.0669C14.8984 12.64 12.4366 15.2884 12.2222 18.5175H11.7298C11.4708 18.5175 11.2612 18.7146 11.2612 18.9735C11.2612 19.2325 11.4708 19.442 11.7298 19.442H26.7879C27.0469 19.442 27.2565 19.2325 27.2565 18.9735C27.2565 18.7146 27.0469 18.5175 26.7879 18.5175ZM19.2901 11.9458C19.0315 11.9458 18.8215 11.6807 18.8215 11.4221C18.8215 11.1636 19.0315 10.9536 19.2901 10.9536C19.5486 10.9536 19.7587 11.1636 19.7587 11.4221C19.7587 11.6807 19.5486 11.9458 19.2901 11.9458ZM12.6669 21.3161C12.4046 21.3161 12.1984 21.5222 12.1984 21.7846V25.54C12.1984 25.8024 12.4046 26.0085 12.6669 26.0085H14.0725V21.3161H12.6669ZM24.4704 20.9147C24.8365 20.5487 25.4295 20.5487 25.7956 20.9147C26.1618 21.2808 26.1618 21.8612 25.7957 22.2273L23.1122 24.9102C22.4042 25.6185 21.4624 26.0083 20.4611 26.0083C20.4586 26.0083 20.459 26.0083 20.4598 26.0084C20.4702 26.0093 20.5435 26.0157 15.0101 26.0083V21.195C15.0101 20.9243 15.1606 20.6756 15.4006 20.5503C16.5302 19.9601 17.8848 20.1206 18.8215 20.7817C18.9454 20.8606 19.0758 20.9794 19.2021 21.0945C19.2477 21.1361 19.2928 21.1773 19.3369 21.2158C19.4641 21.3288 19.5829 21.3286 19.7364 21.3283C19.7438 21.3283 19.7512 21.3283 19.7587 21.3283H20.6959C21.2114 21.3283 21.6331 21.7375 21.6331 22.2528C21.6331 22.7682 21.2114 23.1898 20.6959 23.1898H19.2526C18.9955 23.1898 18.784 23.381 18.784 23.6583C18.784 23.9357 18.9956 24.1269 19.2526 24.1269H20.5361C21.0083 24.1082 21.4507 23.9213 21.7869 23.5851L24.4704 20.9147Z" fill="#ED2939"/>
</g>
<defs>
<filter id="filter0_d_15237_973" x="0.717682" y="0.200195" width="37.0823" height="37.0825" filterUnits="userSpaceOnUse" color-interpolation-filters="sRGB">
<feFlood flood-opacity="0" result="BackgroundImageFix"/>
<feColorMatrix in="SourceAlpha" type="matrix" values="0 0 0 0 0 0 0 0 0 0 0 0 0 0 0 0 0 0 127 0" result="hardAlpha"/>
<feOffset/>
<feGaussianBlur stdDeviation="2"/>
<feComposite in2="hardAlpha" operator="out"/>
<feColorMatrix type="matrix" values="0 0 0 0 0 0 0 0 0 0 0 0 0 0 0 0 0 0 0.12 0"/>
<feBlend mode="normal" in2="BackgroundImageFix" result="effect1_dropShadow_15237_973"/>
<feBlend mode="normal" in="SourceGraphic" in2="effect1_dropShadow_15237_973" result="shape"/>
</filter>
</defs>
</svg>
