<svg width="41" height="40" viewBox="0 0 41 40" fill="none" xmlns="http://www.w3.org/2000/svg">
<circle cx="20.5" cy="20" r="20" fill="#EAE2F0"/>
<path fill-rule="evenodd" clip-rule="evenodd" d="M20.5879 30.3408C11.9411 30.3408 10.0879 28.4876 10.0879 19.8408C10.0879 11.1941 11.9411 9.34082 20.5879 9.34082C29.2346 9.34082 31.0879 11.1941 31.0879 19.8408C31.0879 28.4876 29.2346 30.3408 20.5879 30.3408ZM20.5879 18.9658C20.1046 18.9658 19.7129 19.3576 19.7129 19.8408C19.7129 20.3241 20.1046 20.7158 20.5879 20.7158C21.0712 20.7158 21.4629 20.3241 21.4629 19.8408C21.4629 19.3576 21.0712 18.9658 20.5879 18.9658ZM23.2129 19.8408C23.2129 19.3576 23.6046 18.9658 24.0879 18.9658C24.5712 18.9658 24.9629 19.3576 24.9629 19.8408C24.9629 20.3241 24.5712 20.7158 24.0879 20.7158C23.6046 20.7158 23.2129 20.3241 23.2129 19.8408ZM17.0879 18.9658C16.6046 18.9658 16.2129 19.3576 16.2129 19.8408C16.2129 20.3241 16.6046 20.7158 17.0879 20.7158C17.5711 20.7158 17.9629 20.3241 17.9629 19.8408C17.9629 19.3576 17.5711 18.9658 17.0879 18.9658Z" fill="#7E2EBC"/>
</svg>
