<svg width="36" height="36" viewBox="0 0 36 36" fill="none" xmlns="http://www.w3.org/2000/svg">
<g filter="url(#filter0_d_15254_4844)">
<circle cx="17.9941" cy="17.8002" r="13.6" fill="white"/>
<path d="M25.663 12.8042L22.9902 10.1314C22.4594 9.5999 21.7392 9.30095 20.988 9.30029H15.0002C14.249 9.30095 13.5289 9.5999 12.998 10.1314L10.3252 12.8042C9.79373 13.335 9.49479 14.0552 9.49413 14.8064V23.467C9.49413 24.2184 9.79264 24.9391 10.324 25.4704C10.8553 26.0018 11.576 26.3003 12.3275 26.3003H23.6608C24.4122 26.3003 25.1329 26.0018 25.6643 25.4704C26.1956 24.9391 26.4941 24.2184 26.4941 23.467V14.8064C26.4935 14.0552 26.1945 13.335 25.663 12.8042ZM17.9941 21.5781C16.9922 21.5781 16.0313 21.1801 15.3228 20.4716C14.6144 19.7631 14.2163 18.8022 14.2163 17.8003C14.2163 17.5498 14.3159 17.3096 14.493 17.1325C14.6701 16.9554 14.9103 16.8558 15.1608 16.8558C15.4113 16.8558 15.6515 16.9554 15.8286 17.1325C16.0057 17.3096 16.1052 17.5498 16.1052 17.8003C16.1052 18.3013 16.3042 18.7817 16.6585 19.1359C17.0127 19.4902 17.4932 19.6892 17.9941 19.6892C18.4951 19.6892 18.9755 19.4902 19.3298 19.1359C19.684 18.7817 19.883 18.3013 19.883 17.8003C19.883 17.5498 19.9825 17.3096 20.1596 17.1325C20.3368 16.9554 20.577 16.8558 20.8275 16.8558C21.0779 16.8558 21.3182 16.9554 21.4953 17.1325C21.6724 17.3096 21.7719 17.5498 21.7719 17.8003C21.7719 18.8022 21.3739 19.7631 20.6654 20.4716C19.9569 21.1801 18.9961 21.5781 17.9941 21.5781ZM12.7147 13.0781L14.3297 11.4631C14.5107 11.2905 14.7502 11.1927 15.0002 11.1892H20.988C21.2381 11.1927 21.4776 11.2905 21.6586 11.4631L23.2736 13.0781H12.7147Z" fill="#FB7B05"/>
</g>
<defs>
<filter id="filter0_d_15254_4844" x="0.394127" y="0.200195" width="35.2" height="35.2002" filterUnits="userSpaceOnUse" color-interpolation-filters="sRGB">
<feFlood flood-opacity="0" result="BackgroundImageFix"/>
<feColorMatrix in="SourceAlpha" type="matrix" values="0 0 0 0 0 0 0 0 0 0 0 0 0 0 0 0 0 0 127 0" result="hardAlpha"/>
<feOffset/>
<feGaussianBlur stdDeviation="2"/>
<feComposite in2="hardAlpha" operator="out"/>
<feColorMatrix type="matrix" values="0 0 0 0 0 0 0 0 0 0 0 0 0 0 0 0 0 0 0.12 0"/>
<feBlend mode="normal" in2="BackgroundImageFix" result="effect1_dropShadow_15254_4844"/>
<feBlend mode="normal" in="SourceGraphic" in2="effect1_dropShadow_15254_4844" result="shape"/>
</filter>
</defs>
</svg>
