<svg width="40" height="40" viewBox="0 0 40 40" fill="none" xmlns="http://www.w3.org/2000/svg">
<rect width="40" height="40" rx="20" fill="#FEF2F7"/>
<path d="M25.423 14.2926C25.8739 15.5913 26.1709 16.9361 26.1709 18.2641C26.1709 21.5555 24.4078 24.0498 22.7676 25.6662C24.5347 25.7122 26.8445 25.3471 28.6063 23.5286C31.8867 20.1425 32.0001 13.0176 32.0001 13.0176C32.0001 13.0176 28.5887 13.0817 25.423 14.2926Z" fill="#EB6E8B"/>
<path d="M14.5771 14.2926C11.4114 13.0817 8 13.0176 8 13.0176C8 13.0176 8.1134 20.1425 11.3939 23.5286C13.1542 25.3471 15.4654 25.7122 17.2325 25.6662C15.591 24.0498 13.8292 21.5555 13.8292 18.2641C13.8292 16.9361 14.1262 15.5913 14.5771 14.2926Z" fill="#EB6E8B"/>
<path d="M24.8013 17.9105C24.8013 13.1211 20.0007 8 20.0007 8C20.0007 8 15.2002 13.1211 15.2002 17.9105C15.2002 21.0277 17.2306 23.2294 18.6508 24.3916V32H21.3507V24.3916C22.7709 23.2294 24.8013 21.0277 24.8013 17.9105Z" fill="#EB6E8B"/>
</svg>
