<svg width="35" height="36" viewBox="0 0 35 36" fill="none" xmlns="http://www.w3.org/2000/svg">
<g filter="url(#filter0_d_15254_2496)">
<circle cx="17.4648" cy="17.7414" r="14.5412" fill="white"/>
<path d="M23.7078 13.8982C24.4031 13.1793 25.2184 11.7029 24.3782 10.8324C24.0964 10.5507 23.7085 10.4246 23.3157 10.4858C22.5516 10.6049 21.8588 10.9564 21.3121 11.5029L19.6212 13.1932L18.609 12.9729C19.0457 12.3043 18.1426 11.5569 17.567 12.1234L17.0557 12.6345L15.8562 12.3734C16.6036 11.7489 15.7131 10.701 14.984 11.3348L14.2869 12.0316L11.8041 11.4911C11.609 11.4484 11.4074 11.5078 11.2653 11.6493L10.7655 12.1489C10.4906 12.4085 10.56 12.9023 10.8964 13.0756L16.7272 16.2956L13.7756 19.5241L10.7779 19.6835L10.3136 20.1473C10.1024 20.347 10.1839 20.7317 10.4591 20.8266L13.2968 21.91L14.3808 24.747C14.4766 25.0212 14.8597 25.1045 15.0606 24.8918L15.5243 24.4283L15.6837 21.4313L18.9133 18.4807L22.1322 24.3074C22.3055 24.6437 22.7992 24.7134 23.0593 24.4386C23.339 24.1162 23.8242 23.8554 23.7175 23.4006L23.1778 20.9211L23.8757 20.2237C24.0033 20.0961 24.0737 19.9264 24.0737 19.7459C24.0709 19.0848 23.2326 18.8348 22.8362 19.352L22.5753 18.1528L23.0869 17.6414C23.653 17.0637 22.9138 16.1757 22.2373 16.6013L22.0167 15.5879L23.7078 13.8982Z" fill="#40E0D0"/>
</g>
<defs>
<filter id="filter0_d_15254_2496" x="0.0153496" y="0.291961" width="34.8988" height="34.899" filterUnits="userSpaceOnUse" color-interpolation-filters="sRGB">
<feFlood flood-opacity="0" result="BackgroundImageFix"/>
<feColorMatrix in="SourceAlpha" type="matrix" values="0 0 0 0 0 0 0 0 0 0 0 0 0 0 0 0 0 0 127 0" result="hardAlpha"/>
<feOffset/>
<feGaussianBlur stdDeviation="1.45412"/>
<feComposite in2="hardAlpha" operator="out"/>
<feColorMatrix type="matrix" values="0 0 0 0 0 0 0 0 0 0 0 0 0 0 0 0 0 0 0.12 0"/>
<feBlend mode="normal" in2="BackgroundImageFix" result="effect1_dropShadow_15254_2496"/>
<feBlend mode="normal" in="SourceGraphic" in2="effect1_dropShadow_15254_2496" result="shape"/>
</filter>
</defs>
</svg>
