<svg width="16" height="16" viewBox="0 0 16 16" fill="none" xmlns="http://www.w3.org/2000/svg">
<path d="M11.7946 6.39392C11.7587 6.34887 11.7151 6.35772 11.6922 6.36692C11.6731 6.37468 11.6292 6.39947 11.6353 6.4616C11.6426 6.53621 11.6467 6.61228 11.6475 6.68772C11.6507 7.00069 11.5252 7.3073 11.303 7.52894C11.0823 7.74915 10.792 7.8678 10.4829 7.86436C10.0606 7.85897 9.71041 7.63874 9.47007 7.22746C9.27135 6.88738 9.35869 6.44877 9.45117 5.98437C9.50528 5.71255 9.56125 5.43145 9.56125 5.16393C9.56125 3.08089 8.16087 1.87912 7.32613 1.34816C7.30886 1.3372 7.29243 1.33334 7.27787 1.33334C7.2542 1.33334 7.23545 1.34355 7.22621 1.3498C7.20829 1.36194 7.17962 1.38959 7.18884 1.43855C7.5079 3.13287 6.55623 4.1519 5.54867 5.23075C4.51012 6.3428 3.33301 7.60324 3.33301 9.87646C3.33301 12.5178 5.4819 14.6667 8.12327 14.6667C10.2981 14.6667 12.2156 13.1504 12.7862 10.9795C13.1753 9.49917 12.7675 7.61355 11.7946 6.39392ZM8.24277 13.6442C7.58136 13.6744 6.95235 13.4372 6.47191 12.9778C5.99662 12.5233 5.72401 11.8891 5.72401 11.2377C5.72401 10.0152 6.19141 9.11784 7.44855 7.92649C7.46912 7.90699 7.49019 7.90082 7.50855 7.90082C7.52519 7.90082 7.53962 7.9059 7.54954 7.91066C7.57045 7.92074 7.60483 7.94569 7.60019 7.99965C7.55524 8.52269 7.55603 8.95683 7.60248 9.29006C7.72124 10.1412 8.34434 10.7131 9.15307 10.7131C9.54958 10.7131 9.92726 10.5639 10.2166 10.2929C10.2501 10.2615 10.2876 10.2655 10.302 10.2685C10.321 10.2727 10.3465 10.2843 10.3599 10.3165C10.4798 10.6061 10.5411 10.9136 10.5421 11.2302C10.5459 12.5043 9.51445 13.5872 8.24277 13.6442Z" fill="url(#paint0_linear_25809_166796)"/>
<defs>
<linearGradient id="paint0_linear_25809_166796" x1="4.73879" y1="12.7141" x2="12.5594" y2="7.15919" gradientUnits="userSpaceOnUse">
<stop stop-color="#7D2EBD"/>
<stop offset="1" stop-color="#C054EE"/>
</linearGradient>
</defs>
</svg>
