<svg width="16" height="16" viewBox="0 0 16 16" fill="none" xmlns="http://www.w3.org/2000/svg">
<path d="M14 5.33331H2M10.6667 1.33331V3.33331M5.33333 1.33331V3.33331M5.2 14.6666H10.8C11.9201 14.6666 12.4802 14.6666 12.908 14.4487C13.2843 14.2569 13.5903 13.951 13.782 13.5746C14 13.1468 14 12.5868 14 11.4666V5.86665C14 4.74654 14 4.18649 13.782 3.75867C13.5903 3.38234 13.2843 3.07638 12.908 2.88463C12.4802 2.66665 11.9201 2.66665 10.8 2.66665H5.2C4.0799 2.66665 3.51984 2.66665 3.09202 2.88463C2.71569 3.07638 2.40973 3.38234 2.21799 3.75867C2 4.18649 2 4.74654 2 5.86665V11.4666C2 12.5868 2 13.1468 2.21799 13.5746C2.40973 13.951 2.71569 14.2569 3.09202 14.4487C3.51984 14.6666 4.0799 14.6666 5.2 14.6666ZM7.99817 8.22038C7.46501 7.61438 6.57593 7.45137 5.90792 8.00628C5.23991 8.56119 5.14586 9.48897 5.67045 10.1453C6.05133 10.6218 7.10618 11.5598 7.65555 12.0379C7.77465 12.1416 7.8342 12.1934 7.90398 12.214C7.96442 12.2318 8.03192 12.2318 8.09237 12.214C8.16215 12.1934 8.2217 12.1416 8.34079 12.0379C8.89017 11.5598 9.94502 10.6218 10.3259 10.1453C10.8505 9.48897 10.7679 8.55535 10.0884 8.00628C9.40893 7.45721 8.53133 7.61438 7.99817 8.22038Z" stroke="url(#paint0_linear_25809_166801)" stroke-width="1.33333" stroke-linecap="round" stroke-linejoin="round"/>
<defs>
<linearGradient id="paint0_linear_25809_166801" x1="3.75736" y1="12.714" x2="11.9819" y2="5.41126" gradientUnits="userSpaceOnUse">
<stop stop-color="#7D2EBD"/>
<stop offset="1" stop-color="#C054EE"/>
</linearGradient>
</defs>
</svg>
