<svg width="280" height="280" viewBox="0 0 280 280" fill="none" xmlns="http://www.w3.org/2000/svg">
<circle cx="140" cy="140" r="140" fill="white"/>
<circle cx="140" cy="140" r="140" fill="white"/>
<circle cx="140" cy="140" r="130" stroke="url(#paint0_linear_11474_57052)" stroke-width="20"/>
<mask id="mask0_11474_57052" style="mask-type:alpha" maskUnits="userSpaceOnUse" x="0" y="0" width="280" height="280">
<circle cx="140" cy="140" r="140" fill="white"/>
</mask>
<g mask="url(#mask0_11474_57052)">
<path d="M121.308 150L81.5767 161.215L52.4643 151.909L15 186.51L29.3176 242.348C33.1356 257.382 47.6918 267.046 63.0831 264.779L147.437 252.132L121.308 150Z" fill="url(#paint1_linear_11474_57052)"/>
<path d="M182.474 233.402C159.208 229.346 135.822 224.454 112.198 223.022C104.562 222.545 98 229.942 98 237.22C98 245.333 104.562 250.941 112.198 251.418C133.317 252.731 154.077 257.145 174.957 260.844C182.474 262.157 190.348 258.816 192.496 250.941C194.286 244.021 190.11 234.715 182.474 233.402Z" fill="url(#paint2_linear_11474_57052)"/>
<path d="M15.0666 186L-154 320.585L-33.3745 400.525L56.1102 264.389L15.0666 186Z" fill="#F2928A"/>
<path opacity="0.3" d="M182.94 233.305C168.861 230.799 154.901 228.055 140.703 226.026L129.368 182H91.069L26.1627 230.441C13.3962 212.902 0.152435 206.936 -8.19948 205.027L-154 321.238L-33.3745 401.178L55.7744 265.582C58.0414 265.821 60.7634 265.161 63.1497 264.803L136.169 253.946C149.294 255.855 162.418 258.48 175.423 260.747C182.94 262.059 190.815 258.718 192.962 250.844C194.752 243.923 190.576 234.617 182.94 233.305Z" fill="#9465A1"/>
<path d="M109.736 227.627C140.877 226.553 171.898 225.599 203.039 224.525C221.294 223.928 221.413 195.413 203.039 196.009C171.898 197.083 140.877 198.038 109.736 199.111C91.4811 199.827 91.3617 228.224 109.736 227.627Z" fill="url(#paint3_linear_11474_57052)"/>
<path d="M118.991 204.11C149.655 198.622 180.199 193.253 210.862 187.765C218.379 186.452 222.674 177.146 220.765 170.226C218.617 162.232 210.862 158.891 203.226 160.323C172.563 165.811 142.018 171.18 111.355 176.668C103.838 177.981 99.543 187.287 101.452 194.207C103.719 202.201 111.474 205.423 118.991 204.11Z" fill="url(#paint4_linear_11474_57052)"/>
<g opacity="0.5">
<path d="M179 197.716V226.232C185.682 225.993 192.244 225.754 198.925 225.516V197L179 197.716Z" fill="#C76F8A"/>
</g>
<g opacity="0.5">
<path d="M179 164.46V193.215C185.682 192.021 192.244 190.828 198.925 189.635V161C192.363 162.074 185.682 163.267 179 164.46Z" fill="#C76F8A"/>
</g>
<path d="M94.4477 184.69C124.157 175.503 181.546 158.322 211.255 149.135C228.675 143.765 221.277 116.323 203.738 121.693C174.029 130.88 116.64 148.061 86.9309 157.248C69.5112 162.617 76.9087 190.178 94.4477 184.69Z" fill="url(#paint5_linear_11474_57052)"/>
<g opacity="0.5">
<path d="M179 129.324V159.033C186.278 156.766 193.318 154.737 199.641 152.709V123C193.437 124.909 186.517 127.057 179 129.324Z" fill="#C76F8A"/>
</g>
<path d="M15 187.197L26.2154 230.985C41.4875 234.326 59.0265 229.553 72.0316 216.906C91.1217 198.293 93.3887 169.539 77.52 152L52.4643 152.716L15 187.197Z" fill="#F2928A"/>
<path opacity="0.4" d="M188.757 193.759C175.513 194.237 162.269 194.595 149.026 195.072C162.269 192.686 175.513 190.419 188.757 188.032V159.278C171.218 162.38 153.679 165.482 136.14 168.584C151.889 163.693 167.519 158.92 183.268 154.028C185.535 153.312 187.325 152.238 188.757 151.045V129.569C185.655 126.467 181.24 125.035 175.752 126.706C146.043 135.893 116.334 145.08 86.5056 154.147C85.5511 154.386 84.7159 154.744 84 155.221V242.916C84 246.257 86.7442 249.121 90.2043 249.121H182.672C186.013 249.121 188.876 246.376 188.876 242.916V233.252C187.206 231.582 185.177 230.389 182.791 229.911C170.86 227.764 158.929 225.497 146.878 223.588C160.838 223.11 174.917 222.633 188.876 222.156V193.759H188.757Z" fill="#A42855"/>
<path d="M186.672 241.264H94.2043C90.8635 241.264 88 238.52 88 235.06V43.2043C88 39.8635 90.7442 37 94.2043 37H186.672C190.013 37 192.876 39.7442 192.876 43.2043V235.179C192.876 238.52 190.132 241.264 186.672 241.264Z" fill="white"/>
<path d="M186.672 243.264H94.2043C90.8635 243.264 88 240.52 88 237.06V45.2043C88 41.8635 90.7442 39 94.2043 39H186.672C190.013 39 192.876 41.7442 192.876 45.2043V237.179C192.876 240.52 190.132 243.264 186.672 243.264Z" fill="#7E2EBC"/>
<path d="M192.757 53H88V226.839H192.757V53Z" fill="url(#paint6_linear_11474_57052)"/>
<path opacity="0.4" d="M99.9313 121.634C95.994 124.616 92.0566 127.361 88 130.105V168.166C99.3347 161.604 110.431 154.445 120.811 146.57C127.851 141.32 128.328 130.224 122.839 123.662C116.993 116.622 106.971 116.384 99.9313 121.634Z" fill="#8775E0"/>
<path d="M140.699 50.3974C142.741 50.3974 144.397 48.7414 144.397 46.6987C144.397 44.656 142.741 43 140.699 43C138.656 43 137 44.656 137 46.6987C137 48.7414 138.656 50.3974 140.699 50.3974Z" fill="#8775E0"/>
<path d="M149.55 238.352H131.176C128.79 238.352 127 236.443 127 234.176C127 231.79 128.909 230 131.176 230H149.55C151.936 230 153.726 231.909 153.726 234.176C153.726 236.443 151.817 238.352 149.55 238.352Z" fill="#8775E0"/>
<path d="M83.1189 114.045C72.5 130.152 59.9721 145.066 45.8932 158.668C30.8598 173.224 53.8872 196.251 68.9206 181.695C84.7893 166.304 99.1068 148.884 111.277 130.51C116.169 123.232 112.708 112.494 105.43 108.198C97.4364 103.545 88.0107 106.647 83.1189 114.045Z" fill="#F2928A"/>
<g opacity="0.5">
<path d="M10.7322 214.737C12.4025 213.663 14.0729 212.47 15.7433 211.396C26.0042 204.715 37.339 199.823 47.1226 192.664C52.1338 188.966 56.787 184.432 59.6505 178.824C62.2754 173.574 62.7526 167.847 64.6616 162.478C66.69 156.751 71.3432 153.291 75.7578 149.354C81.6041 144.223 87.4504 139.093 92.7002 133.366C97.7113 127.997 103.677 121.434 104.393 113.798C104.512 111.77 104.154 109.384 103.319 106.998C95.9217 104.253 87.9277 107.356 83.5131 114.037C73.4908 129.07 61.9175 143.149 48.9123 156.035L15.1467 187.176L-8 205.55C-3.10817 206.743 3.57338 209.249 10.7322 214.737Z" fill="#F2AFA9"/>
</g>
<path opacity="0.5" d="M93.6472 126.378C93.7665 126.497 94.0051 126.617 94.1244 126.736C95.0789 127.571 97.8231 122.56 98.1811 121.963C99.7321 119.219 101.403 116.356 100.925 113.134C100.567 110.032 97.4652 108.123 94.6017 108.004C90.7837 107.884 87.4429 110.629 85.176 113.492C84.818 113.969 81 119.338 81 119.338C85.7725 121.009 90.0678 123.395 93.6472 126.378Z" fill="url(#paint7_linear_11474_57052)"/>
<path d="M-222.666 376.977C-235.074 389.147 -247.125 401.556 -258.221 414.8C-260.607 417.663 -263.113 420.646 -264.306 424.225C-265.499 427.805 -265.26 432.1 -262.755 434.844C-260.13 437.708 -255.835 438.304 -251.897 438.662C-220.876 442.6 -189.139 444.389 -157.879 445.94C-128.766 447.372 -100.489 445.225 -71.3766 445.463C-66.962 445.463 -62.4281 445.463 -58.3715 443.673C-53.9569 441.645 -50.7355 437.588 -47.872 433.651C-19.5948 396.425 6.29617 357.41 31.5905 318.156C33.8575 314.577 45.4308 301.93 44.9536 298.112C41.1356 266.494 22.8806 236.904 -3.84546 219.484C-10.527 215.189 -18.0437 211.371 -25.9184 212.087C-37.4917 213.161 -44.0539 223.064 -53.1217 228.671C-64.5758 235.83 -75.0753 244.182 -85.8135 252.534C-117.431 276.993 -146.902 303.958 -175.537 331.758C-191.048 346.791 -207.155 361.586 -222.666 376.977Z" fill="#8775E0"/>
<path d="M-243.307 434.844C-232.211 421.123 -220.399 408.238 -208.229 395.59C-193.076 379.841 -177.446 364.808 -162.532 349.536C-135.209 321.616 -107.409 294.771 -77.9388 270.789C-68.0359 262.676 -58.2522 254.562 -47.7526 247.523C-39.4007 242.034 -33.5544 232.609 -22.8162 231.535C-15.5381 230.819 -8.26004 234.279 -2.05576 238.336C20.0172 252.653 36.6017 275.919 43.5218 301.81C44.357 300.259 44.8343 298.947 44.8343 298.112C41.0163 266.494 22.7614 236.904 -3.96475 219.484C-10.6463 215.189 -18.163 211.371 -26.0377 212.087C-37.611 213.161 -44.1732 223.064 -53.241 228.671C-64.6951 235.83 -75.1946 244.182 -85.9328 252.534C-117.431 277.113 -146.902 304.077 -175.537 331.877C-191.048 346.911 -207.155 361.705 -222.666 377.097C-235.074 389.267 -247.125 401.675 -258.221 414.919C-260.607 417.783 -263.113 420.765 -264.306 424.345C-265.499 427.924 -265.26 432.219 -262.755 434.964C-260.13 437.827 -255.835 438.424 -251.897 438.782C-250.108 439.02 -248.318 439.14 -246.528 439.378C-245.574 437.708 -244.5 436.276 -243.307 434.844Z" fill="#9987F5"/>
</g>
<path d="M142 138.263L123.038 150L114 133.217L132.962 121.478V98H151.038V121.476L170 133.215L160.962 149.998L142 138.263Z" fill="white"/>
<circle cx="87.3333" cy="195.333" r="30.3333" fill="#3CD154"/>
<circle cx="87.3332" cy="195.333" r="23.3333" fill="white"/>
<circle cx="69.5" cy="195.5" r="3.5" fill="#F6F6F6"/>
<circle cx="87.5" cy="177.5" r="3.5" fill="#F6F6F6"/>
<circle cx="104.5" cy="195.5" r="3.5" transform="rotate(-180 104.5 195.5)" fill="#F6F6F6"/>
<circle cx="87.5" cy="212.5" r="3.5" transform="rotate(-180 87.5 212.5)" fill="#F6F6F6"/>
<path d="M87 180V195.167H96.3333" stroke="black" stroke-width="3" stroke-linecap="round"/>
<g clip-path="url(#clip0_11474_57052)">
<path d="M162 6H220.667C225.083 6 228.667 9.4972 228.667 13.8077V65.859C228.667 70.1695 225.083 73.6667 220.667 73.6667H162C157.583 73.6667 154 70.1695 154 65.859V13.8077C154 9.4972 157.583 6 162 6Z" fill="#FCFCFE"/>
<path d="M228.667 13V26.3333H154V13C154 8.6 157.6 5 162 5H220.667C225.067 5 228.667 8.6 228.667 13Z" fill="#3CD154"/>
<path d="M170.333 2.66667V13.3333C170.333 14.8 169.133 16 167.667 16C166.2 16 165 14.8 165 13.3333V2.66667C165 1.2 166.2 0 167.667 0C169.133 0 170.333 1.2 170.333 2.66667ZM215.667 0C214.2 0 213 1.2 213 2.66667V13.3333C213 14.8 214.2 16 215.667 16C217.133 16 218.333 14.8 218.333 13.3333V2.66667C218.333 1.2 217.133 0 215.667 0Z" fill="#303238"/>
<rect x="166" y="33" width="14" height="14" fill="#F6F6F6"/>
<rect x="184" y="33" width="14" height="14" fill="#3CD154"/>
<rect x="203" y="33" width="14" height="14" fill="#F6F6F6"/>
<rect x="166" y="51" width="14" height="14" fill="#F6F6F6"/>
<rect x="184" y="51" width="14" height="14" fill="#F6F6F6"/>
<rect x="203" y="51" width="14" height="14" fill="#F6F6F6"/>
<path d="M186 36.9412L191.25 42.5L201.167 32" stroke="black" stroke-width="3" stroke-linecap="round"/>
</g>
<defs>
<linearGradient id="paint0_linear_11474_57052" x1="140" y1="0" x2="140" y2="280" gradientUnits="userSpaceOnUse">
<stop stop-color="#B33CF1"/>
<stop offset="1" stop-color="white" stop-opacity="0"/>
</linearGradient>
<linearGradient id="paint1_linear_11474_57052" x1="24.0941" y1="221.365" x2="132.539" y2="193.557" gradientUnits="userSpaceOnUse">
<stop offset="0.3142" stop-color="#F2928A"/>
<stop offset="0.3774" stop-color="#F7978F"/>
<stop offset="0.5421" stop-color="#FD9C96"/>
<stop offset="1" stop-color="#FF9E98"/>
</linearGradient>
<linearGradient id="paint2_linear_11474_57052" x1="112.115" y1="242.042" x2="178.87" y2="242.042" gradientUnits="userSpaceOnUse">
<stop offset="0.1006" stop-color="#FF9E98"/>
<stop offset="1" stop-color="#FFB8B3"/>
</linearGradient>
<linearGradient id="paint3_linear_11474_57052" x1="109.697" y1="211.864" x2="203.055" y2="211.864" gradientUnits="userSpaceOnUse">
<stop offset="0.1006" stop-color="#FF9E98"/>
<stop offset="1" stop-color="#FFB8B3"/>
</linearGradient>
<linearGradient id="paint4_linear_11474_57052" x1="115.046" y1="182.232" x2="207.351" y2="182.232" gradientUnits="userSpaceOnUse">
<stop offset="0.1006" stop-color="#FF9E98"/>
<stop offset="1" stop-color="#FFB8B3"/>
</linearGradient>
<linearGradient id="paint5_linear_11474_57052" x1="93.5234" y1="153.218" x2="204.695" y2="153.218" gradientUnits="userSpaceOnUse">
<stop offset="0.1006" stop-color="#FF9E98"/>
<stop offset="1" stop-color="#FFB8B3"/>
</linearGradient>
<linearGradient id="paint6_linear_11474_57052" x1="140.378" y1="53" x2="140.378" y2="226.839" gradientUnits="userSpaceOnUse">
<stop stop-color="#46009B"/>
<stop offset="1" stop-color="#B67AFF"/>
</linearGradient>
<linearGradient id="paint7_linear_11474_57052" x1="85.7332" y1="128.901" x2="93.2005" y2="113.738" gradientUnits="userSpaceOnUse">
<stop stop-color="#FFD1CF"/>
<stop offset="1" stop-color="#FFEBEA"/>
</linearGradient>
<clipPath id="clip0_11474_57052">
<rect width="74.6667" height="74.6667" fill="white" transform="translate(154)"/>
</clipPath>
</defs>
</svg>
