<svg width="24" height="24" viewBox="0 0 24 24" fill="none" xmlns="http://www.w3.org/2000/svg">
<rect width="24" height="24" rx="12" fill="#7E2EBC"/>
<path d="M14.6668 8.66667C14.6668 8.04669 14.6668 7.7367 14.5987 7.48236C14.4137 6.79218 13.8747 6.25308 13.1845 6.06815C12.9301 6 12.6201 6 12.0002 6C11.3802 6 11.0702 6 10.8159 6.06815C10.1257 6.25308 9.58658 6.79218 9.40164 7.48236C9.3335 7.7367 9.3335 8.04669 9.3335 8.66667M7.46683 18H16.5335C17.2802 18 17.6536 18 17.9388 17.8547C18.1897 17.7268 18.3937 17.5229 18.5215 17.272C18.6668 16.9868 18.6668 16.6134 18.6668 15.8667V10.8C18.6668 10.0533 18.6668 9.6799 18.5215 9.39468C18.3937 9.1438 18.1897 8.93982 17.9388 8.81199C17.6536 8.66667 17.2802 8.66667 16.5335 8.66667H7.46683C6.72009 8.66667 6.34672 8.66667 6.06151 8.81199C5.81063 8.93982 5.60665 9.1438 5.47882 9.39468C5.3335 9.6799 5.3335 10.0533 5.3335 10.8V15.8667C5.3335 16.6134 5.3335 16.9868 5.47882 17.272C5.60665 17.5229 5.81063 17.7268 6.06151 17.8547C6.34672 18 6.72009 18 7.46683 18Z" stroke="white" stroke-width="1.33" stroke-linecap="round" stroke-linejoin="round"/>
</svg>
