<svg width="24" height="24" viewBox="0 0 24 24" fill="none" xmlns="http://www.w3.org/2000/svg">
<path fill-rule="evenodd" clip-rule="evenodd" d="M7.58581 1.88843L7.62704 1.88843H15.9192L15.9604 1.88843C16.7547 1.88841 17.411 1.8884 17.9458 1.9321C18.5014 1.9775 19.0134 2.07502 19.4946 2.32021C20.24 2.70002 20.846 3.30606 21.2258 4.05147C21.471 4.5327 21.5685 5.04465 21.6139 5.60033C21.6576 6.1351 21.6576 6.79137 21.6576 7.58561V7.58563V7.58565V7.6269V12.9577V12.9989V12.999V12.999C21.6576 13.7932 21.6576 14.4495 21.6139 14.9843C21.5685 15.5399 21.471 16.0519 21.2258 16.5331C20.846 17.2785 20.24 17.8846 19.4946 18.2644C19.0134 18.5096 18.5014 18.6071 17.9458 18.6525C17.411 18.6962 16.7547 18.6962 15.9604 18.6962H15.9192H13.4353C12.7792 18.6962 12.5898 18.7009 12.4176 18.7362C12.2445 18.7717 12.077 18.8305 11.9196 18.9109C11.7631 18.9909 11.6122 19.1055 11.0999 19.5154L8.74508 21.3993L8.71758 21.4213L8.71756 21.4213L8.71754 21.4213C8.53642 21.5663 8.35118 21.7145 8.18819 21.8223C8.03237 21.9253 7.72836 22.1111 7.3325 22.1115C6.87763 22.112 6.44734 21.9052 6.16358 21.5497C5.91663 21.2403 5.87178 20.8869 5.85488 20.7008C5.83721 20.5062 5.83725 20.269 5.8373 20.037L5.8373 20.0017V18.6876C5.4552 18.6745 5.12622 18.6419 4.82482 18.5612C3.45774 18.1949 2.38993 17.127 2.02363 15.7599C1.88784 15.2531 1.88816 14.6684 1.88859 13.8842L1.88864 13.7474V7.6269L1.88864 7.58568C1.88863 6.79141 1.88862 6.13512 1.93231 5.60033C1.97771 5.04465 2.07523 4.5327 2.32042 4.05147C2.70022 3.30606 3.30625 2.70002 4.05165 2.32021C4.53287 2.07502 5.04482 1.9775 5.6005 1.9321C6.13528 1.8884 6.79156 1.88841 7.58581 1.88843ZM5.76336 3.92545C5.33137 3.96075 5.11192 4.02463 4.95964 4.10222C4.59057 4.29028 4.29049 4.59035 4.10244 4.95944C4.02484 5.11173 3.96097 5.33119 3.92567 5.76319C3.88942 6.20687 3.88864 6.78109 3.88864 7.6269V13.7474C3.88864 14.7299 3.89723 15.0249 3.95548 15.2423C4.13686 15.9192 4.66558 16.4479 5.34247 16.6293C5.55985 16.6876 5.85489 16.6962 6.8373 16.6962C7.38959 16.6962 7.8373 17.1439 7.8373 17.6962V19.5642L9.85051 17.9536L9.91744 17.9001C10.3336 17.5669 10.6496 17.3139 11.0097 17.1299C11.3275 16.9675 11.6659 16.8488 12.0155 16.777C12.4117 16.6957 12.8164 16.6959 13.3495 16.6961L13.4353 16.6962H15.9192C16.765 16.6962 17.3392 16.6954 17.7829 16.6591C18.2149 16.6238 18.4343 16.56 18.5866 16.4824C18.9557 16.2943 19.2558 15.9942 19.4438 15.6251C19.5214 15.4729 19.5853 15.2534 19.6206 14.8214C19.6568 14.3777 19.6576 13.8035 19.6576 12.9577V7.6269C19.6576 6.78109 19.6568 6.20687 19.6206 5.76319C19.5853 5.33119 19.5214 5.11173 19.4438 4.95944C19.2558 4.59035 18.9557 4.29028 18.5866 4.10222C18.4343 4.02463 18.2149 3.96075 17.7829 3.92545C17.3392 3.8892 16.765 3.88843 15.9192 3.88843H7.62704C6.78124 3.88843 6.20703 3.8892 5.76336 3.92545ZM6.82447 7.82434C6.82447 7.27205 7.27218 6.82434 7.82447 6.82434L11.7731 6.82434C12.3254 6.82434 12.7731 7.27205 12.7731 7.82434C12.7731 8.37662 12.3254 8.82434 11.7731 8.82434L7.82447 8.82434C7.27218 8.82434 6.82447 8.37662 6.82447 7.82434ZM11.7731 10.7731C11.2208 10.7731 10.7731 11.2208 10.7731 11.7731C10.7731 12.3253 11.2208 12.7731 11.7731 12.7731H15.7218C16.2741 12.7731 16.7218 12.3253 16.7218 11.7731C16.7218 11.2208 16.2741 10.7731 15.7218 10.7731H11.7731Z" fill="#3C3C43" fill-opacity="0.3"/>
</svg>
