<svg width="184" height="160" viewBox="0 0 184 160" fill="none" xmlns="http://www.w3.org/2000/svg">
<path d="M183.36 140.606H0.501953V140.713H183.36V140.606Z" fill="#E0E0E0"/>
<path d="M172.418 147.34H153.152V147.447H172.418V147.34Z" fill="#E0E0E0"/>
<path d="M150.326 147.34H146.594V147.448H150.326V147.34Z" fill="#E0E0E0"/>
<path d="M114.919 145.858H106.604V145.966H114.919V145.858Z" fill="#E0E0E0"/>
<path d="M39.6793 145.802H21.1309V145.909H39.6793V145.802Z" fill="#E0E0E0"/>
<path d="M17.3083 145.802H14.5898V145.909H17.3083V145.802Z" fill="#E0E0E0"/>
<path d="M107.903 143.26H67.6709V143.367H107.903V143.26Z" fill="#E0E0E0"/>
<path d="M88.1561 121.452H5.23114C4.58151 121.451 3.95888 121.192 3.49993 120.732C3.04097 120.272 2.7832 119.649 2.7832 119V2.43075C2.78886 1.78485 3.04912 1.16727 3.50747 0.712142C3.96581 0.257015 4.58521 0.00110646 5.23114 0H88.1561C88.8064 0 89.4302 0.258359 89.89 0.718241C90.3499 1.17812 90.6083 1.80186 90.6083 2.45223V119C90.6083 119.65 90.3499 120.274 89.89 120.734C89.4302 121.193 88.8064 121.452 88.1561 121.452ZM5.23114 0.0858927C4.60999 0.0870304 4.01466 0.334579 3.57585 0.774202C3.13703 1.21383 2.89057 1.8096 2.89057 2.43075V119C2.89057 119.621 3.13703 120.217 3.57585 120.656C4.01466 121.096 4.60999 121.343 5.23114 121.344H88.1561C88.7776 121.343 89.3734 121.096 89.8129 120.656C90.2524 120.217 90.4998 119.621 90.5009 119V2.43075C90.4998 1.80921 90.2524 1.21344 89.8129 0.77394C89.3734 0.334439 88.7776 0.087028 88.1561 0.0858927H5.23114Z" fill="#E0E0E0"/>
<path d="M181.053 121.452H98.1241C97.4741 121.451 96.851 121.192 96.3914 120.732C95.9317 120.273 95.673 119.65 95.6719 119V2.43075C95.6787 1.78446 95.9399 1.16688 96.3989 0.711873C96.8579 0.256865 97.4778 0.00109439 98.1241 0H181.053C181.698 0.00223513 182.317 0.258643 182.774 0.713649C183.232 1.16865 183.491 1.7856 183.497 2.43075V119C183.497 119.648 183.24 120.271 182.782 120.731C182.324 121.19 181.702 121.45 181.053 121.452ZM98.1241 0.0858927C97.5026 0.087028 96.9068 0.334439 96.4673 0.77394C96.0278 1.21344 95.7804 1.80921 95.7792 2.43075V119C95.7804 119.621 96.0278 120.217 96.4673 120.656C96.9068 121.096 97.5026 121.343 98.1241 121.344H181.053C181.675 121.343 182.271 121.096 182.71 120.656C183.15 120.217 183.397 119.621 183.398 119V2.43075C183.397 1.80921 183.15 1.21344 182.71 0.77394C182.271 0.334439 181.675 0.087028 181.053 0.0858927H98.1241Z" fill="#E0E0E0"/>
<path d="M87.3182 27.103H35.9717V140.657H87.3182V27.103Z" fill="#E6E6E6"/>
<path d="M87.3197 27.103H38.4082V140.657H87.3197V27.103Z" fill="#F0F0F0"/>
<path d="M84.7422 138.081V29.6802L40.9842 29.6802L40.9842 138.081H84.7422Z" fill="#EBEBEB"/>
<path d="M84.7422 138.085V29.6846H84.0722V138.085H84.7422Z" fill="#E6E6E6"/>
<path d="M78.8977 81.3832C80.1097 81.3832 81.0922 80.4007 81.0922 79.1887C81.0922 77.9767 80.1097 76.9941 78.8977 76.9941C77.6857 76.9941 76.7031 77.9767 76.7031 79.1887C76.7031 80.4007 77.6857 81.3832 78.8977 81.3832Z" fill="#E6E6E6"/>
<path d="M79.7571 80.9277C80.9691 80.9277 81.9516 79.9451 81.9516 78.7331C81.9516 77.5211 80.9691 76.5386 79.7571 76.5386C78.545 76.5386 77.5625 77.5211 77.5625 78.7331C77.5625 79.9451 78.545 80.9277 79.7571 80.9277Z" fill="#FAFAFA"/>
<path d="M168.147 13.124H109.869V100.348H168.147V13.124Z" fill="#E0E0E0"/>
<path d="M169.44 13.124H111.162V100.348H169.44V13.124Z" fill="#F0F0F0"/>
<path d="M167.117 97.7368V15.7354L113.49 15.7354V97.7368H167.117Z" fill="#FAFAFA"/>
<path d="M167.117 97.7368V15.7354H166.138V97.7368H167.117Z" fill="#E0E0E0"/>
<path d="M168.477 41.3013H112.123V44.8057H168.477V41.3013Z" fill="#F0F0F0"/>
<path d="M171.974 8.80371H107.336C107.241 8.80371 107.151 8.84127 107.084 8.90811C107.017 8.97496 106.979 9.06563 106.979 9.16017C106.979 9.2551 107.017 9.34621 107.084 9.41375C107.15 9.48128 107.241 9.51978 107.336 9.52091H171.974C172.07 9.5198 172.161 9.48143 172.228 9.41402C172.296 9.3466 172.334 9.2555 172.335 9.16017C172.334 9.06523 172.295 8.97458 172.228 8.90785C172.16 8.84112 172.069 8.8037 171.974 8.80371Z" fill="#E0E0E0"/>
<path d="M174.121 9.1601C174.122 9.51448 174.017 9.86114 173.821 10.1562C173.625 10.4513 173.345 10.6815 173.018 10.8177C172.691 10.9539 172.331 10.99 171.983 10.9214C171.636 10.8527 171.316 10.6825 171.065 10.4322C170.814 10.182 170.643 9.86286 170.574 9.51535C170.504 9.16784 170.54 8.80754 170.675 8.48006C170.81 8.15257 171.04 7.87262 171.335 7.67565C171.629 7.47868 171.976 7.37354 172.33 7.37354C172.804 7.37353 173.259 7.56162 173.595 7.89655C173.93 8.23147 174.12 8.68588 174.121 9.1601Z" fill="#E0E0E0"/>
<path d="M110.35 11.1662C110.222 11.1651 110.1 11.1135 110.01 11.0226C109.92 10.9317 109.869 10.8089 109.869 10.6809V9.64594C109.869 9.51797 109.92 9.39518 110.01 9.30429C110.1 9.2134 110.222 9.16178 110.35 9.16064C110.478 9.16177 110.601 9.21325 110.692 9.30402C110.783 9.39479 110.834 9.51757 110.835 9.64594V10.6809C110.834 10.8093 110.783 10.9321 110.692 11.0229C110.601 11.1136 110.478 11.1651 110.35 11.1662Z" fill="#E0E0E0"/>
<path d="M166.579 11.1662C166.451 11.1651 166.328 11.1136 166.237 11.0229C166.146 10.9321 166.095 10.8093 166.094 10.6809V9.64594C166.095 9.51757 166.146 9.39479 166.237 9.30402C166.328 9.21325 166.451 9.16177 166.579 9.16064C166.707 9.16178 166.829 9.2134 166.919 9.30429C167.01 9.39518 167.06 9.51797 167.06 9.64594V10.6809C167.06 10.8089 167.01 10.9317 166.919 11.0226C166.829 11.1135 166.707 11.1651 166.579 11.1662Z" fill="#E0E0E0"/>
<path opacity="0.4" d="M171.861 9.16064H112.123V34.2112H171.861V9.16064Z" fill="#E0E0E0"/>
<path d="M117.896 9.16034C117.897 9.51472 117.793 9.86139 117.596 10.1565C117.4 10.4515 117.121 10.6817 116.794 10.8179C116.466 10.9541 116.106 10.9902 115.759 10.9216C115.411 10.853 115.091 10.6828 114.841 10.4325C114.59 10.1822 114.419 9.86311 114.349 9.5156C114.28 9.16809 114.315 8.80779 114.45 8.4803C114.586 8.15281 114.815 7.87287 115.11 7.6759C115.405 7.47892 115.751 7.37378 116.105 7.37378C116.58 7.37378 117.034 7.56187 117.37 7.89679C117.706 8.23171 117.895 8.68612 117.896 9.16034Z" fill="#E0E0E0"/>
<path d="M118.972 113.485H107.471V138.991H118.972V113.485Z" fill="#E6E6E6"/>
<path d="M166.413 138.991H109.686V140.606H166.413V138.991Z" fill="#E6E6E6"/>
<path d="M118.976 138.991H168.617V113.485H118.976V138.991Z" fill="#F0F0F0"/>
<path d="M123.497 124.991H164.094V116.625H123.497V124.991Z" fill="#E6E6E6"/>
<path d="M123.497 135.848H164.094V127.482H123.497V135.848Z" fill="#E6E6E6"/>
<path d="M148.974 120.232H138.628C138.348 120.232 138.121 120.459 138.121 120.739V120.872C138.121 121.152 138.348 121.379 138.628 121.379H148.974C149.253 121.379 149.48 121.152 149.48 120.872V120.739C149.48 120.459 149.253 120.232 148.974 120.232Z" fill="#F0F0F0"/>
<path d="M148.974 131.093H138.628C138.348 131.093 138.121 131.32 138.121 131.6V131.733C138.121 132.013 138.348 132.24 138.628 132.24H148.974C149.253 132.24 149.48 132.013 149.48 131.733V131.6C149.48 131.32 149.253 131.093 148.974 131.093Z" fill="#F0F0F0"/>
<path d="M133.301 109.723C134.701 109.723 135.835 108.588 135.835 107.189C135.835 105.79 134.701 104.655 133.301 104.655C131.902 104.655 130.768 105.79 130.768 107.189C130.768 108.588 131.902 109.723 133.301 109.723Z" fill="#F0F0F0"/>
<path d="M137.286 109.246C138.685 109.246 139.82 108.112 139.82 106.713C139.82 105.313 138.685 104.179 137.286 104.179C135.886 104.179 134.752 105.313 134.752 106.713C134.752 108.112 135.886 109.246 137.286 109.246Z" fill="#F0F0F0"/>
<path d="M152.083 107.885C152.083 108.386 151.935 108.876 151.656 109.293C151.378 109.709 150.982 110.034 150.519 110.226C150.056 110.418 149.547 110.468 149.055 110.37C148.564 110.272 148.112 110.031 147.758 109.677C147.403 109.322 147.162 108.871 147.064 108.379C146.967 107.888 147.017 107.378 147.209 106.915C147.4 106.452 147.725 106.057 148.142 105.778C148.558 105.5 149.048 105.351 149.549 105.351C150.221 105.351 150.866 105.618 151.341 106.093C151.816 106.568 152.083 107.213 152.083 107.885Z" fill="#F0F0F0"/>
<path d="M145.541 109.053C145.542 109.555 145.394 110.047 145.115 110.465C144.837 110.883 144.44 111.209 143.976 111.401C143.512 111.594 143.002 111.645 142.509 111.547C142.016 111.449 141.563 111.207 141.208 110.852C140.853 110.497 140.611 110.044 140.513 109.551C140.416 109.059 140.466 108.548 140.659 108.084C140.852 107.62 141.177 107.224 141.596 106.945C142.014 106.666 142.505 106.518 143.007 106.519C143.679 106.519 144.324 106.786 144.799 107.261C145.274 107.736 145.541 108.381 145.541 109.053Z" fill="#F0F0F0"/>
<path d="M125.949 107.653C125.949 107.653 126.379 113.485 142.097 113.485C157.815 113.485 158.245 107.653 158.245 107.653H125.949Z" fill="#E6E6E6"/>
<path d="M12.915 104.501H5.08594V138.454H12.915V104.501Z" fill="#E6E6E6"/>
<path d="M45.1975 138.454H6.58887V140.606H45.1975V138.454Z" fill="#E6E6E6"/>
<path d="M12.9105 138.454H46.6963L46.6963 104.501H12.9105L12.9105 138.454Z" fill="#F0F0F0"/>
<path d="M15.9938 119.82H43.6211V108.684H15.9938V119.82Z" fill="#E6E6E6"/>
<path d="M15.9938 134.276H43.6211V123.14H15.9938V134.276Z" fill="#E6E6E6"/>
<path d="M32.9064 115.014H26.705C26.6035 115.014 26.503 114.994 26.4094 114.955C26.3158 114.915 26.231 114.858 26.1598 114.785C26.0887 114.713 26.0326 114.627 25.995 114.533C25.9573 114.439 25.9388 114.338 25.9405 114.237C25.9405 114.034 26.0211 113.839 26.1644 113.696C26.3078 113.553 26.5022 113.472 26.705 113.472H32.9064C33.1092 113.472 33.3036 113.553 33.447 113.696C33.5903 113.839 33.6709 114.034 33.6709 114.237C33.6726 114.338 33.6541 114.439 33.6164 114.533C33.5788 114.627 33.5227 114.713 33.4516 114.785C33.3804 114.858 33.2956 114.915 33.202 114.955C33.1084 114.994 33.0079 115.014 32.9064 115.014Z" fill="#F0F0F0"/>
<path d="M32.9063 129.47H26.7049C26.5021 129.47 26.3077 129.389 26.1643 129.246C26.021 129.103 25.9404 128.908 25.9404 128.705C25.9416 128.503 26.0226 128.31 26.1658 128.168C26.3091 128.025 26.5029 127.945 26.7049 127.945H32.9063C33.1083 127.945 33.3021 128.025 33.4453 128.168C33.5886 128.31 33.6696 128.503 33.6708 128.705C33.6708 128.908 33.5902 129.103 33.4469 129.246C33.3035 129.389 33.1091 129.47 32.9063 129.47Z" fill="#F0F0F0"/>
<path d="M28.1873 97.9735C28.1873 97.9735 21.7454 86.8461 30.6911 77.9863C30.6911 77.9863 33.0274 79.5066 32.993 81.5552C32.9587 83.6037 30.4893 84.1319 31.0175 85.8498C31.5457 87.5676 33.8777 89.2382 32.3488 90.6512C30.8199 92.0641 32.5936 93.3224 32.4906 95.0531C32.3875 96.7839 28.1873 97.9735 28.1873 97.9735Z" fill="#F0F0F0"/>
<path d="M18.7852 96.1997C18.7852 96.1997 18.9999 104.501 27.2327 104.501C35.4655 104.501 35.6759 96.1997 35.6759 96.1997H18.7852Z" fill="#E6E6E6"/>
<path d="M28.6761 98.9909C28.6761 98.9909 31.2958 86.3948 20.001 80.8118C20.001 80.8118 18.2831 82.9934 18.9445 84.926C19.6059 86.8586 22.1268 86.5709 22.1655 88.3617C22.2041 90.1526 20.5163 92.4759 22.4146 93.3349C24.3128 94.1938 23.0244 95.9503 23.6686 97.5608C24.3128 99.1713 28.6761 98.9909 28.6761 98.9909Z" fill="#E6E6E6"/>
<path d="M24.7807 36.8867H11.8926V69.3068H24.7807V36.8867Z" fill="#E0E0E0"/>
<path d="M27.3874 36.8867H13.709V69.3068H27.3874V36.8867Z" fill="#F0F0F0"/>
<path d="M25.3047 67.2235V38.9692H15.7921L15.7921 67.2235H25.3047Z" fill="#FAFAFA"/>
<path d="M93.7392 160C139.727 160 177.008 157.823 177.008 155.138C177.008 152.453 139.727 150.277 93.7392 150.277C47.7513 150.277 10.4707 152.453 10.4707 155.138C10.4707 157.823 47.7513 160 93.7392 160Z" fill="#F5F5F5"/>
<path d="M143.841 60.2925C143.773 61.4993 143.626 62.6073 143.463 63.7583C143.3 64.9092 143.064 66.0258 142.815 67.151C142.304 69.4467 141.545 71.6801 140.552 73.812C140.201 74.4824 139.719 75.0754 139.134 75.5556C138.654 75.9641 138.143 76.3345 137.605 76.6636C136.602 77.2782 135.556 77.8193 134.475 78.2827C132.376 79.1824 130.211 79.919 127.998 80.4858L127.466 78.8925C128.454 78.4631 129.467 77.9864 130.446 77.5011C131.425 77.0158 132.405 76.5262 133.341 75.9937C134.266 75.4864 135.16 74.9227 136.016 74.3059C136.411 74.0229 136.784 73.7114 137.133 73.3739C137.4 73.1297 137.62 72.8386 137.782 72.515C138.174 71.5545 138.511 70.5723 138.791 69.5732C139.066 68.5468 139.319 67.5118 139.534 66.4596C139.748 65.4074 139.92 64.3424 140.075 63.273C140.229 62.2036 140.354 61.1257 140.448 60.095L143.841 60.2925Z" fill="#E58A7B"/>
<path d="M141.525 56.26C140.155 56.6078 139.197 62.2467 139.197 62.2467L142.972 64.8234C142.972 64.8234 146.593 59.1374 145.549 57.6342C144.441 56.0324 143.526 55.7317 141.525 56.26Z" fill="#7E2EBC"/>
<path opacity="0.5" d="M141.525 56.26C140.155 56.6078 139.197 62.2467 139.197 62.2467L142.972 64.8234C142.972 64.8234 146.593 59.1374 145.549 57.6342C144.441 56.0324 143.526 55.7317 141.525 56.26Z" fill="black"/>
<path d="M141.651 57.501L140.599 63.1828L142.72 64.6215L141.651 57.501Z" fill="#7E2EBC"/>
<path opacity="0.7" d="M141.651 57.501L140.599 63.1828L142.72 64.6215L141.651 57.501Z" fill="black"/>
<path d="M128.243 78.8065L125.885 76.4187L125.576 79.7857C125.576 79.7857 127.341 80.9796 128.582 80.3397L128.243 78.8065Z" fill="#E58A7B"/>
<path d="M123.109 76.0627L123.002 78.8929L125.574 79.7862L125.884 76.4192L123.109 76.0627Z" fill="#E58A7B"/>
<path d="M148.937 151.119H145.613L145.39 143.423H148.714L148.937 151.119Z" fill="#E58A7B"/>
<path d="M178.266 135.685L175.732 137.836L169.935 132.661L172.468 130.51L178.266 135.685Z" fill="#E58A7B"/>
<path d="M175.04 137.579L177.484 134.766C177.524 134.716 177.582 134.683 177.645 134.673C177.709 134.664 177.774 134.678 177.827 134.714L180.331 136.337C180.393 136.38 180.444 136.436 180.483 136.5C180.522 136.565 180.547 136.637 180.555 136.711C180.564 136.786 180.557 136.862 180.535 136.933C180.513 137.005 180.475 137.071 180.425 137.128C179.566 138.094 179.081 138.515 178.003 139.752C177.338 140.512 176.444 141.693 175.529 142.758C174.615 143.823 173.524 142.955 173.812 142.436C175.1 140.108 174.791 139.288 174.812 138.141C174.817 137.932 174.898 137.732 175.04 137.579Z" fill="#263238"/>
<path d="M145.498 150.741H149.234C149.298 150.741 149.361 150.763 149.41 150.805C149.459 150.847 149.491 150.905 149.5 150.969L149.93 153.924C149.938 153.998 149.93 154.074 149.906 154.145C149.883 154.216 149.845 154.281 149.795 154.337C149.745 154.393 149.683 154.437 149.615 154.467C149.546 154.497 149.472 154.513 149.397 154.512C148.109 154.512 147.465 154.413 145.824 154.413C144.815 154.413 142.723 154.521 141.332 154.521C139.94 154.521 139.859 153.138 140.443 153.013C143.045 152.455 144.072 151.682 144.948 150.943C145.103 150.816 145.297 150.745 145.498 150.741Z" fill="#263238"/>
<path d="M145.39 143.428L145.506 147.396H148.83L148.718 143.428H145.39Z" fill="#CF6F64"/>
<path d="M172.472 130.51L169.938 132.661L172.928 135.328L175.461 133.176L172.472 130.51Z" fill="#CF6F64"/>
<path d="M141.525 56.2602C141.525 56.2602 139.944 56.8185 143.114 76.3204H156.612C156.384 70.8276 156.38 67.4391 159.004 56.1614C157.115 55.769 155.201 55.515 153.275 55.4013C151.233 55.253 149.184 55.253 147.142 55.4013C144.51 55.6332 141.525 56.2602 141.525 56.2602Z" fill="#7E2EBC"/>
<path opacity="0.5" d="M141.525 56.2602C141.525 56.2602 139.944 56.8185 143.114 76.3204H156.612C156.384 70.8276 156.38 67.4391 159.004 56.1614C157.115 55.769 155.201 55.515 153.275 55.4013C151.233 55.253 149.184 55.253 147.142 55.4013C144.51 55.6332 141.525 56.2602 141.525 56.2602Z" fill="black"/>
<path d="M149.14 56.8011L150.359 59.2919C150.359 59.2919 155.474 57.7287 154.804 55.4783L153.086 55.2808L149.14 56.8011Z" fill="#7E2EBC"/>
<path opacity="0.6" d="M149.14 56.8011L150.359 59.2919C150.359 59.2919 155.474 57.7287 154.804 55.4783L153.086 55.2808L149.14 56.8011Z" fill="#FAFAFA"/>
<path d="M149.045 56.5691L147.327 59.1116C147.327 59.1116 143.685 57.5311 146.197 55.4053L147.267 55.2808L149.045 56.5691Z" fill="#7E2EBC"/>
<path opacity="0.6" d="M149.045 56.5691L147.327 59.1116C147.327 59.1116 143.685 57.5311 146.197 55.4053L147.267 55.2808L149.045 56.5691Z" fill="#FAFAFA"/>
<path d="M154.529 38.2225C156.105 36.7065 154.594 29.5817 158.742 31.9395C164.016 34.9457 167.422 31.0119 165.661 29.5173C169.363 29.7793 169.002 33.9923 167.46 36.2556C163.548 42.0147 155.654 36.539 155.607 39.4637C155.56 42.3883 154.529 38.2225 154.529 38.2225Z" fill="#263238"/>
<path d="M152.254 37.1959C154.062 35.7658 160.238 36.9554 156.003 42.7145L152.254 37.1959Z" fill="#7E2EBC"/>
<path opacity="0.3" d="M152.254 37.1959C154.062 35.7658 160.238 36.9554 156.003 42.7145L152.254 37.1959Z" fill="black"/>
<path d="M153.207 39.8718C158.472 40.6577 158.842 49.2126 150.669 50.5397L153.207 39.8718Z" fill="#263238"/>
<path d="M152.665 48.4912C152.278 50.4624 151.892 54.0742 153.275 55.3927C153.275 55.3927 152.733 57.3897 149.07 57.3897C145.042 57.3897 147.142 55.3927 147.142 55.3927C149.341 54.8644 149.289 53.2454 148.903 51.7036L152.665 48.4912Z" fill="#E58A7B"/>
<path d="M151.133 49.8179L148.904 51.7161C149.002 52.0728 149.066 52.4381 149.093 52.8069C149.952 52.6824 151.09 51.759 151.18 50.8829C151.23 50.528 151.214 50.167 151.133 49.8179Z" fill="#CF6F64"/>
<path d="M144.356 46.2061C142.54 43.8656 140.173 37.8273 147.255 37.2476L144.356 46.2061Z" fill="#263238"/>
<path d="M152.534 43.4574C152.963 46.7299 153.221 48.1042 151.915 50.0797C149.953 53.0559 145.838 52.8798 144.438 49.8049C143.171 47.0392 142.673 42.1562 145.581 40.2494C146.22 39.8257 146.958 39.5726 147.723 39.5141C148.488 39.4556 149.255 39.5936 149.952 39.915C150.648 40.2364 151.251 40.7306 151.703 41.3506C152.155 41.9706 152.441 42.6959 152.534 43.4574Z" fill="#E58A7B"/>
<path d="M143.127 76.303C143.127 76.303 140.508 101.903 140.722 112.039C140.95 122.582 144.815 146.627 144.815 146.627H149.307C149.307 146.627 148.595 123.196 148.994 112.846C149.423 101.555 153.014 76.303 153.014 76.303H143.127Z" fill="#7E2EBC"/>
<path opacity="0.6" d="M143.127 76.303C143.127 76.303 140.508 101.903 140.722 112.039C140.95 122.582 144.815 146.627 144.815 146.627H149.307C149.307 146.627 148.595 123.196 148.994 112.846C149.423 101.555 153.014 76.303 153.014 76.303H143.127Z" fill="#FAFAFA"/>
<path d="M149.685 146.786H144.411L144.024 145.107L149.93 144.901L149.685 146.786Z" fill="#7E2EBC"/>
<path opacity="0.4" d="M149.685 146.786H144.411L144.024 145.107L149.93 144.901L149.685 146.786Z" fill="#FAFAFA"/>
<path d="M148.938 82.6721C145.622 89.3416 148.272 101.508 149.445 106.035C150.046 99.2364 151.059 90.9263 151.85 84.8237C151.347 81.3708 150.467 79.5971 148.938 82.6721Z" fill="#7E2EBC"/>
<path opacity="0.4" d="M148.938 82.6721C145.622 89.3416 148.272 101.508 149.445 106.035C150.046 99.2364 151.059 90.9263 151.85 84.8237C151.347 81.3708 150.467 79.5971 148.938 82.6721Z" fill="#FAFAFA"/>
<path d="M146.679 76.3028C146.679 76.3028 149.736 102.929 152.047 111.463C154.787 121.611 171.802 135.264 171.802 135.264L175.259 132.326C175.259 132.326 162.917 117.497 160.821 112.141C156.346 100.735 160.177 83.7368 156.599 76.2942L146.679 76.3028Z" fill="#7E2EBC"/>
<path opacity="0.6" d="M146.679 76.3028C146.679 76.3028 149.736 102.929 152.047 111.463C154.787 121.611 171.802 135.264 171.802 135.264L175.259 132.326C175.259 132.326 162.917 117.497 160.821 112.141C156.346 100.735 160.177 83.7368 156.599 76.2942L146.679 76.3028Z" fill="#FAFAFA"/>
<path d="M175.822 132.172L171.536 135.809L169.938 134.852L174.783 130.342L175.822 132.172Z" fill="#7E2EBC"/>
<path opacity="0.4" d="M175.822 132.172L171.536 135.809L169.938 134.852L174.783 130.342L175.822 132.172Z" fill="#FAFAFA"/>
<path d="M147.808 45.3257C147.86 45.5877 147.761 45.8282 147.589 45.8625C147.417 45.8969 147.237 45.7079 147.186 45.433C147.134 45.1582 147.233 44.9306 147.405 44.8962C147.576 44.8619 147.757 45.0594 147.808 45.3257Z" fill="#263238"/>
<path d="M144.845 45.9102C144.896 46.1721 144.798 46.4126 144.626 46.447C144.454 46.4813 144.274 46.2924 144.222 46.0175C144.171 45.7427 144.265 45.5151 144.437 45.4807C144.609 45.4463 144.785 45.6439 144.845 45.9102Z" fill="#263238"/>
<path d="M144.511 45.4932L143.841 45.4331C143.841 45.4331 144.262 45.8626 144.511 45.4932Z" fill="#263238"/>
<path d="M145.704 46.2061C145.588 46.852 145.384 47.4791 145.099 48.0699C145.251 48.14 145.416 48.1764 145.584 48.1764C145.751 48.1764 145.917 48.14 146.069 48.0699L145.704 46.2061Z" fill="#DF5753"/>
<path d="M147.191 48.916C147.17 48.916 147.15 48.9078 147.136 48.8933C147.121 48.8788 147.113 48.8592 147.113 48.8387C147.113 48.8182 147.121 48.7985 147.136 48.784C147.15 48.7695 147.17 48.7614 147.191 48.7614C147.519 48.704 147.83 48.5698 148.097 48.3698C148.364 48.1698 148.58 47.9097 148.728 47.6104C148.732 47.6008 148.738 47.5921 148.745 47.5848C148.752 47.5774 148.761 47.5716 148.771 47.5676C148.78 47.5636 148.791 47.5615 148.801 47.5615C148.811 47.5615 148.822 47.5635 148.831 47.5675C148.841 47.5714 148.849 47.5772 148.857 47.5845C148.864 47.5918 148.87 47.6005 148.874 47.6101C148.878 47.6197 148.88 47.6299 148.88 47.6403C148.88 47.6507 148.878 47.661 148.874 47.6705C148.719 47.9955 148.487 48.2783 148.199 48.4951C147.912 48.7118 147.576 48.8562 147.221 48.916H147.191Z" fill="#263238"/>
<path d="M144.416 41.4094C144.416 41.4094 147.211 45.6481 152.365 46.2064C152.365 46.2064 157.686 41.375 154.413 38.0252C149.114 32.6054 142.792 39.5111 144.416 41.4094Z" fill="#263238"/>
<path d="M153.652 45.9872C153.645 46.3027 153.576 46.6136 153.447 46.9019C153.319 47.1902 153.135 47.4501 152.905 47.6664C152.287 48.2462 151.591 47.7867 151.436 47.0008C151.299 46.2922 151.436 45.1412 152.231 44.8535C152.402 44.7959 152.585 44.7822 152.764 44.8136C152.942 44.845 153.109 44.9205 153.25 45.0333C153.392 45.146 153.503 45.2924 153.573 45.4591C153.643 45.6257 153.67 45.8073 153.652 45.9872Z" fill="#E58A7B"/>
<path d="M148.487 44.1921C148.448 44.1926 148.41 44.1789 148.38 44.1535C148.236 44.0179 148.063 43.9181 147.873 43.8621C147.684 43.8062 147.484 43.7956 147.289 43.8314C147.269 43.8372 147.248 43.8389 147.227 43.8364C147.207 43.8339 147.187 43.8272 147.169 43.8168C147.151 43.8063 147.135 43.7924 147.122 43.7757C147.11 43.759 147.101 43.74 147.096 43.7197C147.085 43.6793 147.091 43.6364 147.112 43.6002C147.133 43.564 147.167 43.5375 147.208 43.5265C147.453 43.4763 147.706 43.4855 147.947 43.5535C148.187 43.6215 148.408 43.7463 148.59 43.9173C148.62 43.947 148.636 43.9871 148.636 44.0289C148.636 44.0707 148.62 44.1108 148.59 44.1406C148.564 44.1704 148.527 44.1889 148.487 44.1921Z" fill="#263238"/>
<path d="M143.187 44.8061C143.167 44.8105 143.147 44.8105 143.127 44.8061C143.108 44.7986 143.09 44.7872 143.075 44.7726C143.06 44.7581 143.048 44.7406 143.04 44.7214C143.032 44.7021 143.028 44.6814 143.028 44.6606C143.029 44.6397 143.033 44.6191 143.041 44.6C143.132 44.3669 143.277 44.1591 143.464 43.9939C143.652 43.8287 143.877 43.711 144.119 43.6508C144.139 43.6465 144.16 43.6463 144.18 43.6503C144.2 43.6543 144.219 43.6624 144.236 43.6741C144.253 43.6858 144.268 43.7008 144.278 43.7182C144.289 43.7356 144.297 43.7551 144.3 43.7754C144.304 43.7957 144.304 43.8167 144.3 43.8371C144.296 43.8576 144.288 43.877 144.277 43.8942C144.265 43.9115 144.25 43.9262 144.233 43.9375C144.215 43.9488 144.196 43.9565 144.175 43.9601C143.982 44.0096 143.803 44.1044 143.654 44.2366C143.505 44.3687 143.389 44.5345 143.316 44.7202C143.304 44.7446 143.286 44.7654 143.263 44.7804C143.241 44.7955 143.214 44.8044 143.187 44.8061Z" fill="#263238"/>
<path d="M163.741 72.7211V72.3389C163.741 71.8236 163.668 71.3297 163.617 70.8315C163.357 68.9027 162.946 66.9972 162.388 65.1325C161.849 63.2857 161.207 61.4705 160.464 59.6956L157.299 60.9839C157.939 62.6417 158.545 64.3896 159.099 66.1074C159.365 66.9663 159.618 67.8253 159.837 68.6842C160.056 69.5431 160.267 70.402 160.417 71.261L160.507 71.8321C160.211 71.7334 159.906 71.626 159.597 71.4972C157.974 70.8358 156.316 69.9769 154.68 69.1523L153.73 70.5395C155.187 71.804 156.756 72.9312 158.42 73.9065C158.867 74.1653 159.331 74.3948 159.807 74.5936C160.075 74.7096 160.35 74.8058 160.632 74.8813C160.8 74.9288 160.97 74.9647 161.143 74.9887C161.373 75.018 161.605 75.018 161.834 74.9887C162.213 74.9553 162.576 74.8187 162.882 74.5936C163.264 74.31 163.533 73.9009 163.642 73.4383C163.708 73.2048 163.741 72.9636 163.741 72.7211ZM161.431 72.0812H161.508C161.555 72.0769 161.495 72.0855 161.409 72.0812H161.431Z" fill="#E58A7B"/>
<path d="M159.018 56.1439C160.371 56.5733 161.994 61.2115 161.994 61.2115L156.75 64.965C156.75 64.965 154.835 61.0784 155.406 59.3305C155.982 57.5096 157.463 55.6757 159.018 56.1439Z" fill="#7E2EBC"/>
<path opacity="0.5" d="M159.018 56.1439C160.371 56.5733 161.994 61.2115 161.994 61.2115L156.75 64.965C156.75 64.965 154.835 61.0784 155.406 59.3305C155.982 57.5096 157.463 55.6757 159.018 56.1439Z" fill="black"/>
<path d="M174.129 139.181C174.061 139.179 173.994 139.162 173.933 139.13C173.872 139.099 173.819 139.055 173.777 139C173.744 138.966 173.721 138.924 173.711 138.878C173.7 138.832 173.702 138.783 173.717 138.738C173.837 138.33 175.005 138 175.121 137.965C175.136 137.961 175.153 137.961 175.168 137.965C175.183 137.97 175.197 137.979 175.207 137.991C175.215 138.004 175.219 138.019 175.219 138.034C175.219 138.049 175.215 138.064 175.207 138.077C175.001 138.468 174.589 139.129 174.172 139.181H174.129ZM174.988 138.171C174.529 138.317 173.936 138.571 173.871 138.786C173.865 138.805 173.864 138.826 173.869 138.846C173.875 138.866 173.886 138.884 173.902 138.897C173.931 138.94 173.971 138.974 174.018 138.995C174.065 139.017 174.116 139.026 174.168 139.022C174.387 138.996 174.687 138.683 174.984 138.171H174.988Z" fill="#7E2EBC"/>
<path d="M174.62 138.184C174.277 138.219 173.933 138.123 173.658 137.913C173.618 137.865 173.597 137.804 173.597 137.741C173.597 137.679 173.618 137.618 173.658 137.57C173.692 137.521 173.736 137.479 173.787 137.448C173.838 137.417 173.895 137.397 173.955 137.389C174.427 137.333 175.157 137.952 175.187 137.982C175.198 137.99 175.207 138.001 175.211 138.014C175.216 138.028 175.216 138.042 175.213 138.055C175.211 138.069 175.205 138.082 175.196 138.093C175.187 138.103 175.175 138.111 175.161 138.115C174.985 138.164 174.803 138.188 174.62 138.184ZM174.036 137.54H173.985C173.947 137.544 173.91 137.557 173.877 137.577C173.845 137.597 173.817 137.624 173.796 137.656C173.74 137.737 173.761 137.784 173.796 137.814C173.937 137.999 174.59 138.068 174.99 137.999C174.722 137.766 174.397 137.607 174.049 137.54H174.036Z" fill="#7E2EBC"/>
<path d="M144.252 151.317C143.967 151.343 143.682 151.27 143.445 151.111C143.391 151.064 143.35 151.005 143.326 150.938C143.301 150.871 143.293 150.799 143.303 150.729C143.306 150.685 143.319 150.643 143.342 150.606C143.366 150.57 143.398 150.539 143.436 150.518C143.844 150.299 145.154 150.974 145.317 151.051C145.332 151.059 145.344 151.071 145.351 151.085C145.359 151.1 145.362 151.116 145.36 151.133C145.358 151.148 145.352 151.163 145.341 151.175C145.33 151.186 145.316 151.194 145.3 151.197C144.955 151.271 144.605 151.312 144.252 151.317ZM143.659 150.63C143.609 150.627 143.559 150.637 143.513 150.66C143.498 150.667 143.485 150.679 143.476 150.693C143.467 150.708 143.462 150.725 143.462 150.742C143.454 150.788 143.457 150.836 143.473 150.88C143.489 150.925 143.516 150.964 143.552 150.995C143.754 151.175 144.299 151.21 145.038 151.085C144.608 150.856 144.141 150.702 143.659 150.63Z" fill="#7E2EBC"/>
<path d="M145.275 151.201H145.241C144.846 151.02 144.064 150.308 144.124 149.912C144.124 149.822 144.202 149.711 144.421 149.689C144.498 149.681 144.576 149.688 144.65 149.712C144.724 149.736 144.792 149.775 144.85 149.827C145.28 150.174 145.348 151.068 145.348 151.115C145.351 151.128 145.349 151.142 145.344 151.154C145.338 151.166 145.329 151.176 145.318 151.184C145.306 151.194 145.291 151.2 145.275 151.201ZM144.485 149.852H144.438C144.292 149.852 144.283 149.921 144.279 149.942C144.245 150.166 144.773 150.733 145.177 150.977C145.147 150.598 144.996 150.239 144.747 149.951C144.676 149.892 144.587 149.857 144.494 149.852H144.485Z" fill="#7E2EBC"/>
<path d="M155.152 69.5346L154.036 66.1204L152.258 68.9935C152.258 68.9935 153.306 70.853 154.689 70.823L155.152 69.5346Z" fill="#E58A7B"/>
<path d="M151.703 64.5654L150.346 67.052L152.244 68.9932L154.022 66.1201L151.703 64.5654Z" fill="#E58A7B"/>
<path d="M147.482 44.9093L146.816 44.8491C146.816 44.8491 147.237 45.2786 147.482 44.9093Z" fill="#263238"/>
<path d="M156.814 75.5085L157.162 76.7195C157.209 76.8097 157.097 76.9085 156.938 76.9085H143.049C142.925 76.9085 142.826 76.8484 142.818 76.7711L142.697 75.5858C142.697 75.4999 142.792 75.4312 142.925 75.4312H156.595C156.635 75.4249 156.676 75.4287 156.714 75.4422C156.752 75.4557 156.786 75.4784 156.814 75.5085Z" fill="#263238"/>
<path d="M154.98 77.0373H155.345C155.418 77.0373 155.474 76.9986 155.469 76.9557L155.298 75.3838C155.298 75.3366 155.229 75.3022 155.156 75.3022H154.791C154.718 75.3022 154.662 75.3366 154.666 75.3838L154.838 76.9557C154.842 76.9986 154.907 77.0373 154.98 77.0373Z" fill="#7E2EBC"/>
<path opacity="0.6" d="M154.98 77.0373H155.345C155.418 77.0373 155.474 76.9986 155.469 76.9557L155.298 75.3838C155.298 75.3366 155.229 75.3022 155.156 75.3022H154.791C154.718 75.3022 154.662 75.3366 154.666 75.3838L154.838 76.9557C154.842 76.9986 154.907 77.0373 154.98 77.0373Z" fill="#FAFAFA"/>
<path d="M144.076 77.0373H144.441C144.514 77.0373 144.57 76.9986 144.566 76.9557L144.394 75.3838C144.394 75.3366 144.326 75.3022 144.253 75.3022H143.887C143.814 75.3022 143.759 75.3366 143.763 75.3838L143.935 76.9557C143.939 76.9986 143.986 77.0373 144.076 77.0373Z" fill="#7E2EBC"/>
<path opacity="0.6" d="M144.076 77.0373H144.441C144.514 77.0373 144.57 76.9986 144.566 76.9557L144.394 75.3838C144.394 75.3366 144.326 75.3022 144.253 75.3022H143.887C143.814 75.3022 143.759 75.3366 143.763 75.3838L143.935 76.9557C143.939 76.9986 143.986 77.0373 144.076 77.0373Z" fill="#FAFAFA"/>
<path d="M149.526 77.0373H149.895C149.968 77.0373 150.024 76.9986 150.015 76.9557L149.843 75.3838C149.843 75.3366 149.775 75.3022 149.702 75.3022H149.337C149.264 75.3022 149.208 75.3366 149.212 75.3838L149.384 76.9557C149.396 76.9827 149.416 77.0052 149.441 77.0199C149.467 77.0345 149.496 77.0406 149.526 77.0373Z" fill="#7E2EBC"/>
<path opacity="0.6" d="M149.526 77.0373H149.895C149.968 77.0373 150.024 76.9986 150.015 76.9557L149.843 75.3838C149.843 75.3366 149.775 75.3022 149.702 75.3022H149.337C149.264 75.3022 149.208 75.3366 149.212 75.3838L149.384 76.9557C149.396 76.9827 149.416 77.0052 149.441 77.0199C149.467 77.0345 149.496 77.0406 149.526 77.0373Z" fill="#FAFAFA"/>
<path d="M106.45 155.139H134.859C135.522 155.147 136.179 155.016 136.788 154.755C137.397 154.494 137.945 154.108 138.396 153.623C138.847 153.138 139.192 152.564 139.408 151.937C139.625 151.311 139.708 150.646 139.652 149.986L132.858 52.8243C132.74 51.4349 132.111 50.1388 131.092 49.1867C130.073 48.2346 128.738 47.6945 127.344 47.6707H98.9346C98.272 47.663 97.615 47.7939 97.006 48.055C96.3969 48.3161 95.8491 48.7017 95.3978 49.1869C94.9465 49.6722 94.6017 50.2464 94.3854 50.8728C94.1691 51.4992 94.0861 52.1639 94.1418 52.8243L100.936 149.99C101.055 151.379 101.684 152.674 102.703 153.625C103.722 154.576 105.057 155.116 106.45 155.139Z" fill="#7E2EBC"/>
<path opacity="0.2" d="M106.45 155.139H134.859C135.522 155.147 136.179 155.016 136.788 154.755C137.397 154.494 137.945 154.108 138.396 153.623C138.847 153.138 139.192 152.564 139.408 151.937C139.625 151.311 139.708 150.646 139.652 149.986L132.858 52.8243C132.74 51.4349 132.111 50.1388 131.092 49.1867C130.073 48.2346 128.738 47.6945 127.344 47.6707H98.9346C98.272 47.663 97.615 47.7939 97.006 48.055C96.3969 48.3161 95.8491 48.7017 95.3978 49.1869C94.9465 49.6722 94.6017 50.2464 94.3854 50.8728C94.1691 51.4992 94.0861 52.1639 94.1418 52.8243L100.936 149.99C101.055 151.379 101.684 152.674 102.703 153.625C103.722 154.576 105.057 155.116 106.45 155.139Z" fill="black"/>
<path d="M91.444 82.7847L91.0156 82.8147L91.489 89.5837L91.9174 89.5537L91.444 82.7847Z" fill="#7E2EBC"/>
<path opacity="0.5" d="M91.444 82.7847L91.0156 82.8147L91.489 89.5837L91.9174 89.5537L91.444 82.7847Z" fill="black"/>
<path d="M102.731 155.139H131.136C131.799 155.147 132.456 155.016 133.065 154.755C133.674 154.494 134.222 154.108 134.673 153.623C135.124 153.138 135.469 152.564 135.685 151.937C135.902 151.311 135.985 150.646 135.929 149.986L129.135 52.8243C129.017 51.4349 128.388 50.1388 127.369 49.1867C126.35 48.2346 125.015 47.6945 123.621 47.6707H95.2159C94.5532 47.663 93.8963 47.7939 93.2872 48.055C92.6781 48.3161 92.1304 48.7017 91.6791 49.1869C91.2278 49.6722 90.8829 50.2464 90.6666 50.8728C90.4503 51.4992 90.3674 52.1639 90.4231 52.8243L97.2172 149.986C97.335 151.375 97.9642 152.671 98.9829 153.623C100.002 154.575 101.337 155.116 102.731 155.139Z" fill="#7E2EBC"/>
<path opacity="0.5" d="M102.731 155.139H131.136C131.799 155.147 132.456 155.016 133.065 154.755C133.674 154.494 134.222 154.108 134.673 153.623C135.124 153.138 135.469 152.564 135.685 151.937C135.902 151.311 135.985 150.646 135.929 149.986L129.135 52.8243C129.017 51.4349 128.388 50.1388 127.369 49.1867C126.35 48.2346 125.015 47.6945 123.621 47.6707H95.2159C94.5532 47.663 93.8963 47.7939 93.2872 48.055C92.6781 48.3161 92.1304 48.7017 91.6791 49.1869C91.2278 49.6722 90.8829 50.2464 90.6666 50.8728C90.4503 51.4992 90.3674 52.1639 90.4231 52.8243L97.2172 149.986C97.335 151.375 97.9642 152.671 98.9829 153.623C100.002 154.575 101.337 155.116 102.731 155.139Z" fill="black"/>
<path d="M114.291 93.5642L114.073 89.4074L109.701 89.6365L109.919 93.7933L106.4 96.0618L108.783 99.7115L112.302 97.443L116.039 99.3312L118.027 95.4525L114.291 93.5642Z" fill="#E9DBFF"/>
<path d="M120.628 103.259L120.411 99.102L116.039 99.3311L116.257 103.488L112.738 105.756L115.121 109.406L118.64 107.138L122.376 109.026L124.365 105.147L120.628 103.259Z" fill="#E9DBFF"/>
<path d="M108.783 99.7114L104.411 99.9405L104.629 104.097L101.11 106.366L103.493 110.015L107.012 107.747L110.748 109.635L112.737 105.756L109.001 103.868L108.783 99.7114Z" fill="#E9DBFF"/>
<path d="M108.005 78.6179H113.262C113.386 78.623 113.509 78.6013 113.623 78.5543C113.738 78.5072 113.841 78.436 113.925 78.3455C114.01 78.2549 114.074 78.1472 114.113 78.0296C114.152 77.9121 114.165 77.7875 114.151 77.6645L112.893 59.67C112.871 59.4125 112.755 59.1721 112.566 58.9958C112.377 58.8196 112.129 58.72 111.87 58.7166H106.622C106.499 58.7122 106.376 58.7343 106.262 58.7816C106.148 58.8289 106.046 58.9003 105.962 58.9907C105.878 59.0812 105.814 59.1887 105.776 59.306C105.737 59.4232 105.724 59.5474 105.738 59.67L106.996 77.6645C107.017 77.9199 107.132 78.1585 107.318 78.3344C107.504 78.5104 107.749 78.6113 108.005 78.6179Z" fill="#7E2EBC"/>
<path opacity="0.2" d="M108.005 78.6179H113.262C113.386 78.623 113.509 78.6013 113.623 78.5543C113.738 78.5072 113.841 78.436 113.925 78.3455C114.01 78.2549 114.074 78.1472 114.113 78.0296C114.152 77.9121 114.165 77.7875 114.151 77.6645L112.893 59.67C112.871 59.4125 112.755 59.1721 112.566 58.9958C112.377 58.8196 112.129 58.72 111.87 58.7166H106.622C106.499 58.7122 106.376 58.7343 106.262 58.7816C106.148 58.8289 106.046 58.9003 105.962 58.9907C105.878 59.0812 105.814 59.1887 105.776 59.306C105.737 59.4232 105.724 59.5474 105.738 59.67L106.996 77.6645C107.017 77.9199 107.132 78.1585 107.318 78.3344C107.504 78.5104 107.749 78.6113 108.005 78.6179Z" fill="black"/>
<path d="M75.8094 155.139H47.4005C46.7378 155.147 46.0809 155.016 45.4718 154.755C44.8627 154.494 44.3149 154.108 43.8636 153.623C43.4123 153.138 43.0675 152.563 42.8512 151.937C42.6349 151.311 42.5519 150.646 42.6077 149.985L49.4017 52.824C49.5205 51.435 50.15 50.1394 51.1685 49.1875C52.187 48.2357 53.5222 47.6952 54.9161 47.6705H83.325C83.9876 47.6628 84.6446 47.7936 85.2537 48.0547C85.8627 48.3159 86.4105 48.7014 86.8618 49.1867C87.3131 49.6719 87.658 50.2462 87.8743 50.8726C88.0906 51.499 88.1735 52.1637 88.1178 52.824L81.3237 149.985C81.2058 151.375 80.5767 152.671 79.558 153.623C78.5393 154.575 77.2035 155.115 75.8094 155.139Z" fill="#7E2EBC"/>
<path opacity="0.5" d="M75.8094 155.139H47.4005C46.7378 155.147 46.0809 155.016 45.4718 154.755C44.8627 154.494 44.3149 154.108 43.8636 153.623C43.4123 153.138 43.0675 152.563 42.8512 151.937C42.6349 151.311 42.5519 150.646 42.6077 149.985L49.4017 52.824C49.5205 51.435 50.15 50.1394 51.1685 49.1875C52.187 48.2357 53.5222 47.6952 54.9161 47.6705H83.325C83.9876 47.6628 84.6446 47.7936 85.2537 48.0547C85.8627 48.3159 86.4105 48.7014 86.8618 49.1867C87.3131 49.6719 87.658 50.2462 87.8743 50.8726C88.0906 51.499 88.1735 52.1637 88.1178 52.824L81.3237 149.985C81.2058 151.375 80.5767 152.671 79.558 153.623C78.5393 154.575 77.2035 155.115 75.8094 155.139Z" fill="black"/>
<path d="M63.8617 46.1631H62.2598V46.5925H63.8617V46.1631Z" fill="#7E2EBC"/>
<path opacity="0.3" d="M63.8617 46.1631H62.2598V46.5925H63.8617V46.1631Z" fill="black"/>
<path d="M59.3872 46.1631H54.3496V46.5925H59.3872V46.1631Z" fill="#7E2EBC"/>
<path opacity="0.3" d="M59.3872 46.1631H54.3496V46.5925H59.3872V46.1631Z" fill="black"/>
<path d="M72.0854 155.139H43.6807C43.0181 155.147 42.3611 155.016 41.7521 154.755C41.143 154.494 40.5952 154.108 40.1439 153.623C39.6926 153.138 39.3478 152.563 39.1315 151.937C38.9152 151.311 38.8322 150.646 38.8879 149.985L45.682 52.824C45.7999 51.4347 46.4291 50.1385 47.4478 49.1865C48.4665 48.2344 49.8022 47.6942 51.1963 47.6705H79.601C80.2636 47.6628 80.9206 47.7936 81.5296 48.0547C82.1387 48.3159 82.6865 48.7014 83.1378 49.1867C83.5891 49.6719 83.934 50.2462 84.1502 50.8726C84.3665 51.499 84.4495 52.1637 84.3938 52.824L77.5997 149.985C77.4818 151.375 76.8526 152.671 75.8339 153.623C74.8152 154.575 73.4795 155.115 72.0854 155.139Z" fill="#7E2EBC"/>
<path opacity="0.3" d="M72.0854 155.139H43.6807C43.0181 155.147 42.3611 155.016 41.7521 154.755C41.143 154.494 40.5952 154.108 40.1439 153.623C39.6926 153.138 39.3478 152.563 39.1315 151.937C38.9152 151.311 38.8322 150.646 38.8879 149.985L45.682 52.824C45.7999 51.4347 46.4291 50.1385 47.4478 49.1865C48.4665 48.2344 49.8022 47.6942 51.1963 47.6705H79.601C80.2636 47.6628 80.9206 47.7936 81.5296 48.0547C82.1387 48.3159 82.6865 48.7014 83.1378 49.1867C83.5891 49.6719 83.934 50.2462 84.1502 50.8726C84.3665 51.499 84.4495 52.1637 84.3938 52.824L77.5997 149.985C77.4818 151.375 76.8526 152.671 75.8339 153.623C74.8152 154.575 73.4795 155.115 72.0854 155.139Z" fill="black"/>
<path d="M76.3471 149.547H38.9452C38.8555 149.547 38.7669 149.528 38.6848 149.492C38.6026 149.456 38.5287 149.404 38.4675 149.338C38.4064 149.273 38.3593 149.195 38.3292 149.111C38.2991 149.027 38.2866 148.937 38.2924 148.847L44.9104 54.1982C44.9224 54.0323 44.9969 53.877 45.1188 53.7638C45.2408 53.6507 45.4011 53.588 45.5675 53.5884H82.9651C83.0551 53.5882 83.1442 53.6065 83.2269 53.6422C83.3096 53.6778 83.384 53.7301 83.4456 53.7958C83.5072 53.8614 83.5547 53.939 83.5851 54.0237C83.6154 54.1085 83.6281 54.1986 83.6222 54.2884L76.9913 148.938C76.9805 149.102 76.9081 149.256 76.7887 149.369C76.6693 149.482 76.5115 149.546 76.3471 149.547Z" fill="#7E2EBC"/>
<path opacity="0.9" d="M76.3471 149.547H38.9452C38.8555 149.547 38.7669 149.528 38.6848 149.492C38.6026 149.456 38.5287 149.404 38.4675 149.338C38.4064 149.273 38.3593 149.195 38.3292 149.111C38.2991 149.027 38.2866 148.937 38.2924 148.847L44.9104 54.1982C44.9224 54.0323 44.9969 53.877 45.1188 53.7638C45.2408 53.6507 45.4011 53.588 45.5675 53.5884H82.9651C83.0551 53.5882 83.1442 53.6065 83.2269 53.6422C83.3096 53.6778 83.384 53.7301 83.4456 53.7958C83.5072 53.8614 83.5547 53.939 83.5851 54.0237C83.6154 54.1085 83.6281 54.1986 83.6222 54.2884L76.9913 148.938C76.9805 149.102 76.9081 149.256 76.7887 149.369C76.6693 149.482 76.5115 149.546 76.3471 149.547Z" fill="#FAFAFA"/>
<path d="M75.4359 63.277H51.1584C50.4985 63.2884 49.8662 63.5441 49.3839 63.9947C48.9016 64.4453 48.6035 65.0587 48.5473 65.7163L46.0177 101.877C45.9913 102.19 46.0307 102.505 46.1333 102.801C46.2359 103.098 46.3994 103.37 46.6134 103.6C46.8273 103.83 47.087 104.012 47.3757 104.135C47.6644 104.259 47.9757 104.32 48.2896 104.316H49.9731L49.1142 106.966C51.1005 106.787 52.9372 105.836 54.2291 104.316H72.5671C73.227 104.305 73.8593 104.049 74.3416 103.599C74.8239 103.148 75.122 102.535 75.1782 101.877L77.7078 65.7163C77.7335 65.4036 77.6937 65.089 77.5908 64.7926C77.488 64.4962 77.3244 64.2245 77.1106 63.9949C76.8968 63.7653 76.6374 63.5828 76.349 63.4592C76.0606 63.3356 75.7496 63.2735 75.4359 63.277Z" fill="#7E2EBC"/>
<path opacity="0.6" d="M75.4359 63.277H51.1584C50.4985 63.2884 49.8662 63.5441 49.3839 63.9947C48.9016 64.4453 48.6035 65.0587 48.5473 65.7163L46.0177 101.877C45.9913 102.19 46.0307 102.505 46.1333 102.801C46.2359 103.098 46.3994 103.37 46.6134 103.6C46.8273 103.83 47.087 104.012 47.3757 104.135C47.6644 104.259 47.9757 104.32 48.2896 104.316H49.9731L49.1142 106.966C51.1005 106.787 52.9372 105.836 54.2291 104.316H72.5671C73.227 104.305 73.8593 104.049 74.3416 103.599C74.8239 103.148 75.122 102.535 75.1782 101.877L77.7078 65.7163C77.7335 65.4036 77.6937 65.089 77.5908 64.7926C77.488 64.4962 77.3244 64.2245 77.1106 63.9949C76.8968 63.7653 76.6374 63.5828 76.349 63.4592C76.0606 63.3356 75.7496 63.2735 75.4359 63.277Z" fill="#FAFAFA"/>
<path d="M47.7875 111.596H72.065C72.3789 111.592 72.6902 111.654 72.9789 111.777C73.2676 111.9 73.5272 112.083 73.7412 112.313C73.9552 112.542 74.1187 112.814 74.2213 113.111C74.3239 113.408 74.3632 113.723 74.3368 114.035L73.2503 129.569C73.1941 130.227 72.896 130.84 72.4137 131.291C71.9314 131.741 71.2991 131.997 70.6392 132.008H68.9514L69.4238 134.658C68.4926 134.58 67.5889 134.304 66.7739 133.846C65.9589 133.389 65.2516 132.763 64.6997 132.008H46.3531C46.0391 132.013 45.7278 131.951 45.4392 131.828C45.1505 131.704 44.8908 131.522 44.6768 131.292C44.4629 131.062 44.2993 130.79 44.1968 130.494C44.0942 130.197 44.0548 129.882 44.0812 129.569L45.1677 114.035C45.2241 113.376 45.5235 112.762 46.0076 112.311C46.4917 111.86 47.126 111.605 47.7875 111.596Z" fill="#7E2EBC"/>
<path opacity="0.6" d="M47.7875 111.596H72.065C72.3789 111.592 72.6902 111.654 72.9789 111.777C73.2676 111.9 73.5272 112.083 73.7412 112.313C73.9552 112.542 74.1187 112.814 74.2213 113.111C74.3239 113.408 74.3632 113.723 74.3368 114.035L73.2503 129.569C73.1941 130.227 72.896 130.84 72.4137 131.291C71.9314 131.741 71.2991 131.997 70.6392 132.008H68.9514L69.4238 134.658C68.4926 134.58 67.5889 134.304 66.7739 133.846C65.9589 133.389 65.2516 132.763 64.6997 132.008H46.3531C46.0391 132.013 45.7278 131.951 45.4392 131.828C45.1505 131.704 44.8908 131.522 44.6768 131.292C44.4629 131.062 44.2993 130.79 44.1968 130.494C44.0942 130.197 44.0548 129.882 44.0812 129.569L45.1677 114.035C45.2241 113.376 45.5235 112.762 46.0076 112.311C46.4917 111.86 47.126 111.605 47.7875 111.596Z" fill="#FAFAFA"/>
<path d="M69.7103 50.3887C69.6934 50.6064 69.596 50.81 69.4373 50.96C69.2786 51.11 69.0698 51.1957 68.8514 51.2004C68.7469 51.2019 68.6432 51.1816 68.5471 51.1406C68.4509 51.0996 68.3644 51.0389 68.2932 50.9624C68.2219 50.8859 68.1675 50.7953 68.1335 50.6965C68.0995 50.5977 68.0865 50.4928 68.0956 50.3887C68.1144 50.1716 68.2123 49.9691 68.3706 49.8194C68.529 49.6698 68.7367 49.5835 68.9545 49.577C69.059 49.5754 69.1627 49.5958 69.2589 49.6367C69.355 49.6777 69.4415 49.7384 69.5127 49.8149C69.584 49.8914 69.6384 49.982 69.6724 50.0808C69.7064 50.1797 69.7194 50.2845 69.7103 50.3887Z" fill="#7E2EBC"/>
<path opacity="0.5" d="M69.7103 50.3887C69.6934 50.6064 69.596 50.81 69.4373 50.96C69.2786 51.11 69.0698 51.1957 68.8514 51.2004C68.7469 51.2019 68.6432 51.1816 68.5471 51.1406C68.4509 51.0996 68.3644 51.0389 68.2932 50.9624C68.2219 50.8859 68.1675 50.7953 68.1335 50.6965C68.0995 50.5977 68.0865 50.4928 68.0956 50.3887C68.1144 50.1716 68.2123 49.9691 68.3706 49.8194C68.529 49.6698 68.7367 49.5835 68.9545 49.577C69.059 49.5754 69.1627 49.5958 69.2589 49.6367C69.355 49.6777 69.4415 49.7384 69.5127 49.8149C69.584 49.8914 69.6384 49.982 69.6724 50.0808C69.7064 50.1797 69.7194 50.2845 69.7103 50.3887Z" fill="black"/>
<path d="M65.5283 51.2005H59.8637C59.7594 51.2015 59.656 51.1807 59.5602 51.1395C59.4643 51.0983 59.3781 51.0375 59.307 50.9612C59.2359 50.8848 59.1815 50.7945 59.1472 50.696C59.1129 50.5975 59.0995 50.4929 59.1079 50.3889C59.1258 50.1715 59.2234 49.9684 59.3819 49.8186C59.5405 49.6688 59.7488 49.5828 59.9668 49.5772H65.6314C65.7357 49.5762 65.8391 49.597 65.935 49.6383C66.0308 49.6795 66.117 49.7402 66.1881 49.8165C66.2592 49.8929 66.3137 49.9832 66.3479 50.0817C66.3822 50.1803 66.3956 50.2849 66.3873 50.3889C66.3693 50.6062 66.2717 50.8093 66.1132 50.9591C65.9547 51.109 65.7464 51.1949 65.5283 51.2005Z" fill="#7E2EBC"/>
<path opacity="0.5" d="M65.5283 51.2005H59.8637C59.7594 51.2015 59.656 51.1807 59.5602 51.1395C59.4643 51.0983 59.3781 51.0375 59.307 50.9612C59.2359 50.8848 59.1815 50.7945 59.1472 50.696C59.1129 50.5975 59.0995 50.4929 59.1079 50.3889C59.1258 50.1715 59.2234 49.9684 59.3819 49.8186C59.5405 49.6688 59.7488 49.5828 59.9668 49.5772H65.6314C65.7357 49.5762 65.8391 49.597 65.935 49.6383C66.0308 49.6795 66.117 49.7402 66.1881 49.8165C66.2592 49.8929 66.3137 49.9832 66.3479 50.0817C66.3822 50.1803 66.3956 50.2849 66.3873 50.3889C66.3693 50.6062 66.2717 50.8093 66.1132 50.9591C65.9547 51.109 65.7464 51.1949 65.5283 51.2005Z" fill="black"/>
<path d="M35.2852 69.8606L35.9595 71.179C36.1957 71.6085 36.4362 72.0766 36.6853 72.519C37.1834 73.408 37.6902 74.2883 38.2227 75.143C39.2392 76.8263 40.4033 78.4158 41.7014 79.8928C42.0235 80.2149 42.3714 80.6014 42.5947 80.7775C42.9067 81.0293 43.2401 81.2535 43.591 81.4475C44.4273 81.8886 45.2976 82.262 46.1936 82.5641C48.1241 83.205 50.09 83.7341 52.0815 84.1488L51.9441 86.5151C49.7075 86.6462 47.4634 86.5151 45.2573 86.1243C44.082 85.9208 42.9307 85.597 41.8216 85.158C41.2045 84.9117 40.6144 84.6022 40.0608 84.2347C39.7743 84.0438 39.5016 83.8328 39.2449 83.6034L38.5663 83.0064C36.9276 81.4164 35.4726 79.6474 34.2287 77.7326C33.606 76.8007 33.0177 75.8559 32.4808 74.8853C32.2103 74.4 31.944 73.9104 31.6906 73.4165C31.4372 72.9227 31.1967 72.4417 30.9434 71.8834L35.2852 69.8606Z" fill="#E58A7B"/>
<path d="M51.2224 84.1488L53.1336 82.8003L54.1428 86.6998C54.1428 86.6998 52.4593 87.2925 51.1924 86.4378L51.2224 84.1488Z" fill="#E58A7B"/>
<path d="M55.7711 81.9155L56.4496 85.1794L54.1391 86.6997L53.1299 82.8002L55.7711 81.9155Z" fill="#E58A7B"/>
<path d="M67.9105 78.4583L67.3909 78.3638C66.848 78.2699 66.2907 78.3037 65.7632 78.4626L64.2644 78.9178C65.0294 77.3365 65.316 75.5663 65.0889 73.8244C64.9086 72.5102 63.9208 72.8109 63.9208 72.8109C63.9208 72.8109 62.4735 78.2736 59.4673 80.3694L58.5225 81.0265L59.871 90.6507L60.9833 90.5477C61.4127 90.5477 63.8564 90.5477 65.4325 90.5477C65.8957 90.5277 66.3485 90.4039 66.7573 90.1854C67.1662 89.9668 67.5207 89.6591 67.7946 89.285C68.5977 88.2222 69.0576 86.9398 69.113 85.6088L69.3965 81.1296C69.4652 79.8068 68.8296 78.6172 67.9105 78.4583Z" fill="#7E2EBC"/>
<path opacity="0.9" d="M67.9105 78.4583L67.3909 78.3638C66.848 78.2699 66.2907 78.3037 65.7632 78.4626L64.2644 78.9178C65.0294 77.3365 65.316 75.5663 65.0889 73.8244C64.9086 72.5102 63.9208 72.8109 63.9208 72.8109C63.9208 72.8109 62.4735 78.2736 59.4673 80.3694L58.5225 81.0265L59.871 90.6507L60.9833 90.5477C61.4127 90.5477 63.8564 90.5477 65.4325 90.5477C65.8957 90.5277 66.3485 90.4039 66.7573 90.1854C67.1662 89.9668 67.5207 89.6591 67.7946 89.285C68.5977 88.2222 69.0576 86.9398 69.113 85.6088L69.3965 81.1296C69.4652 79.8068 68.8296 78.6172 67.9105 78.4583Z" fill="#FAFAFA"/>
<path d="M55.6978 92.8841L59.9323 91.9608C60.263 91.8921 60.4949 91.4368 60.4434 90.9515L59.3397 79.9272C59.2881 79.4419 58.9789 79.107 58.6482 79.1757L54.4137 80.099C54.083 80.1677 53.8511 80.623 53.9027 81.1083L55.0064 92.1325C55.0579 92.6178 55.3671 92.9528 55.6978 92.8841Z" fill="#7E2EBC"/>
<path d="M47.537 56.543C47.4854 56.7921 47.5756 57.0197 47.7388 57.0541C47.902 57.0885 48.0781 56.9167 48.1296 56.6676C48.1812 56.4185 48.091 56.1866 47.9278 56.1522C47.7646 56.1179 47.5885 56.294 47.537 56.543Z" fill="#263238"/>
<path d="M47.555 57.0156C47.6932 57.8388 47.9432 58.6393 48.298 59.3948C48.1033 59.4816 47.8919 59.5242 47.6788 59.5198C47.4658 59.5153 47.2563 59.4639 47.0654 59.3691L47.555 57.0156Z" fill="#DF5753"/>
<path d="M48.2167 55.0186C48.1876 55.0181 48.1593 55.0092 48.1351 54.9929C47.9703 54.9036 47.7866 54.8548 47.5992 54.8503C47.4119 54.8458 47.2261 54.8858 47.0572 54.9671C47.0212 54.9832 46.9804 54.9846 46.9435 54.971C46.9065 54.9573 46.8764 54.9297 46.8596 54.8941C46.8512 54.8761 46.8465 54.8566 46.8458 54.8368C46.8451 54.8169 46.8485 54.7971 46.8557 54.7787C46.863 54.7602 46.8739 54.7433 46.8879 54.7292C46.9018 54.7151 46.9185 54.704 46.9369 54.6965C47.151 54.5946 47.3864 54.5456 47.6234 54.5539C47.8603 54.5621 48.0918 54.6272 48.2983 54.7438C48.315 54.7542 48.3294 54.7679 48.3406 54.7841C48.3518 54.8002 48.3597 54.8184 48.3637 54.8377C48.3677 54.8569 48.3678 54.8768 48.3639 54.8961C48.3601 54.9154 48.3524 54.9337 48.3413 54.9499C48.3281 54.971 48.3097 54.9884 48.2879 55.0005C48.2661 55.0125 48.2416 55.0187 48.2167 55.0186Z" fill="#263238"/>
<path d="M38.7002 57.342C39.1297 59.6483 39.6021 63.8785 37.9873 65.4159C37.9873 65.4159 38.6186 67.7608 42.9089 67.7608C47.633 67.7608 45.1593 65.4159 45.1593 65.4159C42.5826 64.8018 42.6556 62.895 43.1022 61.1213L38.7002 57.342Z" fill="#E58A7B"/>
<path d="M37.3326 66.0772C37.0234 65.3213 37.075 63.9299 37.3026 63.9084C38.1959 63.8483 42.9629 63.8354 44.539 64.441C44.7475 64.5067 44.9408 64.6132 45.1077 64.7543C45.2746 64.8955 45.4118 65.0683 45.5113 65.263C45.6108 65.4576 45.6706 65.67 45.6873 65.8879C45.7039 66.1059 45.6771 66.325 45.6084 66.5324L37.3326 66.0772Z" fill="#7E2EBC"/>
<path d="M26.7991 152.459C26.5219 152.457 26.2456 152.427 25.9746 152.369C25.9606 152.366 25.9478 152.36 25.9378 152.35C25.9278 152.34 25.9212 152.327 25.9187 152.313C25.9168 152.299 25.9186 152.284 25.9238 152.27C25.9291 152.257 25.9377 152.245 25.9488 152.236C25.9874 152.21 26.8592 151.617 27.3188 151.72C27.3684 151.731 27.4152 151.752 27.4559 151.783C27.4967 151.813 27.5304 151.852 27.555 151.896C27.5924 151.948 27.6125 152.011 27.6125 152.075C27.6125 152.139 27.5924 152.201 27.555 152.253C27.4491 152.336 27.3277 152.397 27.1979 152.432C27.0681 152.468 26.9325 152.477 26.7991 152.459ZM26.185 152.261C26.6574 152.339 27.3016 152.339 27.439 152.158C27.439 152.158 27.4906 152.09 27.439 151.969C27.4251 151.943 27.4056 151.92 27.3818 151.902C27.3581 151.885 27.3307 151.872 27.3016 151.866C26.8974 151.886 26.5086 152.027 26.185 152.27V152.261Z" fill="#7E2EBC"/>
<path d="M25.9916 152.382H25.9529C25.941 152.375 25.9313 152.365 25.9252 152.353C25.9191 152.34 25.9168 152.327 25.9185 152.313C25.9185 152.274 25.9958 151.364 26.348 151.063C26.3926 151.027 26.4441 150.999 26.4994 150.983C26.5548 150.967 26.6128 150.962 26.6701 150.969C26.7261 150.97 26.7802 150.99 26.8232 151.026C26.8661 151.062 26.8955 151.111 26.9063 151.166C26.9707 151.518 26.3394 152.206 26.0173 152.386L25.9916 152.382ZM26.6272 151.093C26.5654 151.094 26.506 151.117 26.4597 151.158C26.2365 151.441 26.106 151.786 26.086 152.145C26.4081 151.901 26.8118 151.381 26.7732 151.171C26.7732 151.171 26.7732 151.106 26.6615 151.093H26.6272Z" fill="#7E2EBC"/>
<path d="M22.3496 152.304H25.5062L28.4136 144.999H25.2614L22.3496 152.304Z" fill="#E58A7B"/>
<path d="M25.7557 151.94H22.2126C22.1494 151.94 22.0881 151.962 22.039 152.002C21.9898 152.042 21.9557 152.097 21.942 152.159L21.3193 154.963C21.3051 155.031 21.3065 155.102 21.3233 155.17C21.3401 155.237 21.372 155.3 21.4166 155.354C21.4612 155.408 21.5173 155.451 21.5808 155.48C21.6442 155.509 21.7134 155.523 21.7831 155.521C23.02 155.5 23.6212 155.427 25.1802 155.427C26.1379 155.427 28.1134 155.53 29.4404 155.53C30.7675 155.53 30.935 154.242 30.3939 154.1C27.9631 153.567 27.0483 152.833 26.271 152.137C26.1298 152.01 25.9461 151.939 25.7557 151.94Z" fill="#263238"/>
<path d="M51.4419 68.4866C52.3825 70.2044 53.3101 71.9652 54.2248 73.7088L56.9648 78.944L57.652 80.2324C57.7973 80.5446 57.9697 80.8435 58.1673 81.1256C58.6471 81.704 59.2294 82.1888 59.8852 82.5557C61.4724 83.4614 63.1583 84.1819 64.9099 84.7031L64.6436 87.0565C64.1048 87.0679 63.5658 87.0507 63.0288 87.005C62.4949 86.971 61.9631 86.9094 61.4355 86.8203C60.3436 86.652 59.2735 86.3639 58.2446 85.9614C57.0728 85.5213 56.001 84.8511 55.0924 83.9902C54.6403 83.5222 54.2439 83.0034 53.9113 82.4441L53.104 81.1557C52.0475 79.4379 51.0296 77.7114 50.0505 75.9764C49.0756 74.2285 48.1308 72.4763 47.2246 70.6854L51.4419 68.4866Z" fill="#E58A7B"/>
<path d="M29.982 68.0313C28.6936 70.7842 32.8122 79.4765 32.8122 79.4765L39.8468 76.2126C39.0791 73.7464 38.1229 71.3429 36.9866 69.0234C35.1485 65.3773 31.2876 65.2184 29.982 68.0313Z" fill="#7E2EBC"/>
<path opacity="0.8" d="M29.982 68.0313C28.6936 70.7842 32.8122 79.4765 32.8122 79.4765L39.8468 76.2126C39.0791 73.7464 38.1229 71.3429 36.9866 69.0234C35.1485 65.3773 31.2876 65.2184 29.982 68.0313Z" fill="#FAFAFA"/>
<path d="M33.756 68.5938L32.167 78.0204C32.5449 78.9094 32.8112 79.4763 32.8112 79.4763L39.8458 76.2124C39.8458 76.2124 36.6678 70.7196 33.756 68.5938Z" fill="#7E2EBC"/>
<path opacity="0.7" d="M33.756 68.5938L32.167 78.0204C32.5449 78.9094 32.8112 79.4763 32.8112 79.4763L39.8458 76.2124C39.8458 76.2124 36.6678 70.7196 33.756 68.5938Z" fill="#FAFAFA"/>
<path d="M50.0112 66.2917C50.0112 66.2917 53.3696 70.0882 50.2002 93.5626H33.3266C33.2064 90.9858 34.834 78.3382 32.3389 66.1285C34.204 65.7694 36.0904 65.5313 37.9863 65.4156C40.375 65.2781 42.7696 65.2781 45.1583 65.4156C46.796 65.5831 48.4184 65.876 50.0112 66.2917Z" fill="#7E2EBC"/>
<path opacity="0.8" d="M50.0112 66.2917C50.0112 66.2917 53.3696 70.0882 50.2002 93.5626H33.3266C33.2064 90.9858 34.834 78.3382 32.3389 66.1285C34.204 65.7694 36.0904 65.5313 37.9863 65.4156C40.375 65.2781 42.7696 65.2781 45.1583 65.4156C46.796 65.5831 48.4184 65.876 50.0112 66.2917Z" fill="#FAFAFA"/>
<path d="M51.3715 71.8792L48.7646 78.3211L51.3715 82.1132C51.6291 78.7067 51.6291 75.2856 51.3715 71.8792Z" fill="#7E2EBC"/>
<path opacity="0.7" d="M51.3715 71.8792L48.7646 78.3211L51.3715 82.1132C51.6291 78.7067 51.6291 75.2856 51.3715 71.8792Z" fill="#FAFAFA"/>
<path d="M45.9064 68.3746C44.8671 71.209 49.0415 79.8069 49.0415 79.8069L56.6001 75.9975C55.6318 73.4204 54.3908 70.9541 52.8981 68.6409C50.6348 65.334 47.0488 65.2782 45.9064 68.3746Z" fill="#7E2EBC"/>
<path opacity="0.8" d="M45.9064 68.3746C44.8671 71.209 49.0415 79.8069 49.0415 79.8069L56.6001 75.9975C55.6318 73.4204 54.3908 70.9541 52.8981 68.6409C50.6348 65.334 47.0488 65.2782 45.9064 68.3746Z" fill="#FAFAFA"/>
<path d="M64.2832 84.8145L67.3754 83.5776L68.2343 87.3054C68.2343 87.3054 65.7778 88.1944 63.9912 86.9017L64.2832 84.8145Z" fill="#E58A7B"/>
<path d="M70.784 83.6163L70.3073 86.9489L68.2287 87.3054L67.374 83.5776L70.784 83.6163Z" fill="#E58A7B"/>
<path d="M25.2576 145.004H28.4142L26.3227 150.252L23.4023 149.659L25.2576 145.004Z" fill="#CF6F64"/>
<path d="M39.3395 54.2841C38.91 57.3806 38.4805 59.1714 39.6873 61.0653C41.5211 63.9127 45.5881 63.2985 46.9538 60.3954C48.1864 57.7843 48.7146 53.1547 45.9746 51.3123C45.3704 50.9093 44.6739 50.6662 43.9501 50.6056C43.2264 50.545 42.4991 50.6689 41.8363 50.9658C41.1735 51.2626 40.5968 51.7228 40.1601 52.3031C39.7235 52.8834 39.4411 53.565 39.3395 54.2841Z" fill="#E58A7B"/>
<path d="M51.2449 49.079C48.5737 46.6096 50.6866 45.9826 50.6866 45.9826C50.6866 45.9826 47.7577 44.7715 48.9172 47.3654C50.5363 50.9815 46.0012 49.8692 43.8281 47.3654C42.4882 45.8194 38.9623 47.4041 39.1341 48.9115C39.3059 50.4189 33.7658 49.2508 36.2738 52.5405C36.3211 55.9762 37.6567 59.3174 39.4304 60.2235C42.471 61.7739 44.7514 57.4363 45.6018 53.962C50.1884 56.1651 54.0106 51.6343 51.2449 49.079Z" fill="#263238"/>
<path d="M43.2822 56.0319C43.2995 56.8135 43.5726 57.5678 44.0596 58.1792C44.7081 58.9695 45.4467 58.5357 45.6185 57.6209C45.7731 56.7964 45.6185 55.392 44.8025 54.9325C43.9866 54.473 43.278 55.0957 43.2822 56.0319Z" fill="#E58A7B"/>
<path d="M36.3027 49.3238C37.681 49.2714 39.0329 49.7114 40.1164 50.5649C40.1164 50.5649 39.339 47.2409 36.3027 49.3238Z" fill="#263238"/>
<path d="M42.8093 93.5627C42.8093 93.5627 43.4406 106.344 45.7726 117.613C46.5156 121.181 46.0303 125.004 43.9388 127.988C37.7932 136.754 28.0487 148.427 28.0487 148.427L22.9424 147.855C22.9424 147.855 31.2095 132.528 35.444 124.913C36.406 123.196 37.2564 121.624 36.5306 119.76C29.5175 101.959 33.3096 93.5627 33.3096 93.5627H42.8093Z" fill="#7E2EBC"/>
<path opacity="0.3" d="M42.8093 93.5627C42.8093 93.5627 43.4406 106.344 45.7726 117.613C46.5156 121.181 46.0303 125.004 43.9388 127.988C37.7932 136.754 28.0487 148.427 28.0487 148.427L22.9424 147.855C22.9424 147.855 31.2095 132.528 35.444 124.913C36.406 123.196 37.2564 121.624 36.5306 119.76C29.5175 101.959 33.3096 93.5627 33.3096 93.5627H42.8093Z" fill="black"/>
<path d="M43.7589 104.609L38.8716 98.7766C38.687 101.392 40.2674 111.175 45.6872 117.188C44.824 112.949 44.2013 108.478 43.7589 104.609Z" fill="#7E2EBC"/>
<path opacity="0.4" d="M43.7589 104.609L38.8716 98.7766C38.687 101.392 40.2674 111.175 45.6872 117.188C44.824 112.949 44.2013 108.478 43.7589 104.609Z" fill="black"/>
<path d="M29.4879 147.649L28.4872 149.719L22.333 148.139L22.8226 146.219L29.4879 147.649Z" fill="#7E2EBC"/>
<path opacity="0.1" d="M29.4879 147.649L28.4872 149.719L22.333 148.139L22.8226 146.219L29.4879 147.649Z" fill="black"/>
<path d="M47.8262 152.304H50.9784L51.9018 144.999H48.7495L47.8262 152.304Z" fill="#E58A7B"/>
<path d="M52.3609 152.459C52.0352 152.459 51.7103 152.429 51.3903 152.369C51.3752 152.367 51.3613 152.359 51.3506 152.349C51.3398 152.338 51.3326 152.324 51.3302 152.309C51.3275 152.294 51.3299 152.278 51.3368 152.264C51.3438 152.25 51.355 152.239 51.3688 152.232C51.416 152.206 52.5155 151.579 53.0437 151.721C53.0931 151.732 53.1395 151.754 53.1801 151.784C53.2208 151.814 53.2547 151.853 53.2799 151.897C53.3135 151.944 53.3316 152.001 53.3316 152.06C53.3316 152.118 53.3135 152.175 53.2799 152.223C53.1554 152.412 52.7646 152.459 52.3609 152.459ZM51.6308 152.262C52.2234 152.343 53.0222 152.33 53.164 152.133C53.164 152.107 53.2026 152.064 53.164 151.97C53.1482 151.943 53.1271 151.92 53.1019 151.903C53.0768 151.885 53.0482 151.872 53.0179 151.867C52.6787 151.785 52.0173 152.073 51.6522 152.27L51.6308 152.262Z" fill="#7E2EBC"/>
<path d="M51.4032 152.382C51.3891 152.386 51.3743 152.386 51.3602 152.382C51.3503 152.374 51.3425 152.363 51.3373 152.351C51.3321 152.339 51.3296 152.326 51.3301 152.313C51.3301 152.275 51.4203 151.424 51.8197 151.098C51.8778 151.047 51.9462 151.009 52.0204 150.987C52.0945 150.964 52.1726 150.958 52.2492 150.969C52.4553 150.991 52.5112 151.094 52.524 151.18C52.5842 151.536 51.8283 152.219 51.4504 152.386L51.4032 152.382ZM52.1762 151.094C52.0797 151.093 51.9863 151.128 51.9142 151.192C51.6751 151.464 51.5252 151.803 51.4848 152.163C51.8756 151.931 52.3866 151.394 52.3437 151.18C52.3437 151.18 52.3437 151.111 52.1977 151.094H52.1762Z" fill="#7E2EBC"/>
<path d="M51.0682 151.94H47.6325C47.5696 151.94 47.5086 151.961 47.46 152.001C47.4114 152.041 47.3783 152.097 47.3663 152.159L46.7393 154.963C46.7244 155.031 46.725 155.101 46.741 155.168C46.757 155.236 46.7881 155.299 46.8319 155.352C46.8757 155.406 46.931 155.449 46.9938 155.478C47.0566 155.508 47.1252 155.522 47.1945 155.521C48.4399 155.5 50.2351 155.427 51.794 155.427C53.6236 155.427 55.1997 155.53 57.3427 155.53C58.6311 155.53 58.9961 154.242 58.455 154.1C55.9856 153.559 53.9714 153.503 51.837 152.189C51.61 152.034 51.3431 151.947 51.0682 151.94Z" fill="#263238"/>
<path d="M48.7489 145.004H51.9054L51.2269 150.325L48.1348 149.848L48.7489 145.004Z" fill="#CF6F64"/>
<path d="M50.2015 93.5627C50.2015 93.5627 52.8426 102.392 57.206 113.747C58.6275 117.441 59.1772 120.997 58.1895 124.123C55.1274 133.829 52.4819 148.427 52.4819 148.427L47.221 147.855C47.221 147.855 47.0191 132.966 48.883 125.291C49.8407 121.353 49.5143 119.919 48.5308 118.618C35.1316 100.791 38.7305 93.5756 38.7305 93.5756L50.2015 93.5627Z" fill="#7E2EBC"/>
<path opacity="0.3" d="M50.2015 93.5627C50.2015 93.5627 52.8426 102.392 57.206 113.747C58.6275 117.441 59.1772 120.997 58.1895 124.123C55.1274 133.829 52.4819 148.427 52.4819 148.427L47.221 147.855C47.221 147.855 47.0191 132.966 48.883 125.291C49.8407 121.353 49.5143 119.919 48.5308 118.618C35.1316 100.791 38.7305 93.5756 38.7305 93.5756L50.2015 93.5627Z" fill="black"/>
<path d="M53.3912 147.533L53.1164 149.629L46.9063 148.577L46.7217 146.662L53.3912 147.533Z" fill="#7E2EBC"/>
<path opacity="0.1" d="M53.3912 147.533L53.1164 149.629L46.9063 148.577L46.7217 146.662L53.3912 147.533Z" fill="black"/>
<path d="M99.0343 40.2578H93.666V40.6873H99.0343V40.2578Z" fill="#7E2EBC"/>
<path opacity="0.2" d="M99.0343 40.2578H93.666V40.6873H99.0343V40.2578Z" fill="black"/>
<path d="M83.3641 22.5381H112.452C113.227 22.5392 113.97 22.8477 114.518 23.3959C115.067 23.9442 115.375 24.6874 115.376 25.4627V36.2594C115.375 37.0347 115.067 37.7779 114.518 38.3262C113.97 38.8744 113.227 39.1829 112.452 39.184H110.433L111.219 42.3578C110.078 42.254 108.971 41.9191 107.964 41.3734C106.957 40.8278 106.071 40.0829 105.361 39.184H83.3641C82.5891 39.1818 81.8465 38.8729 81.2986 38.3249C80.7506 37.7769 80.4417 37.0344 80.4395 36.2594V25.4627C80.4417 24.6878 80.7506 23.9452 81.2986 23.3972C81.8465 22.8492 82.5891 22.5404 83.3641 22.5381Z" fill="#7E2EBC"/>
<path opacity="0.2" d="M83.3641 22.5381H112.452C113.227 22.5392 113.97 22.8477 114.518 23.3959C115.067 23.9442 115.375 24.6874 115.376 25.4627V36.2594C115.375 37.0347 115.067 37.7779 114.518 38.3262C113.97 38.8744 113.227 39.1829 112.452 39.184H110.433L111.219 42.3578C110.078 42.254 108.971 41.9191 107.964 41.3734C106.957 40.8278 106.071 40.0829 105.361 39.184H83.3641C82.5891 39.1818 81.8465 38.8729 81.2986 38.3249C80.7506 37.7769 80.4417 37.0344 80.4395 36.2594V25.4627C80.4417 24.6878 80.7506 23.9452 81.2986 23.3972C81.8465 22.8492 82.5891 22.5404 83.3641 22.5381Z" fill="black"/>
<path d="M99.4119 7.37354H98.9824V10.951H99.4119V7.37354Z" fill="#7E2EBC"/>
<path opacity="0.1" d="M99.4119 7.37354H98.9824V10.951H99.4119V7.37354Z" fill="#FAFAFA"/>
<path d="M94.9858 2.66675H65.8983C65.1244 2.66788 64.3825 2.97519 63.8345 3.52157C63.2865 4.06794 62.977 4.80897 62.9736 5.58279V16.3881C62.9748 17.1634 63.2833 17.9066 63.8315 18.4548C64.3797 19.0031 65.123 19.3116 65.8983 19.3127H67.9167L67.1137 22.4864C68.2563 22.3865 69.3667 22.0547 70.3768 21.5112C71.3869 20.9677 72.2756 20.2241 72.9887 19.3256H94.9858C95.7607 19.3233 96.5033 19.0145 97.0513 18.4665C97.5993 17.9185 97.9081 17.1759 97.9104 16.4009V5.58279C97.9059 4.80932 97.596 4.06894 97.0483 3.52281C96.5005 2.97668 95.7593 2.669 94.9858 2.66675Z" fill="#7E2EBC"/>
<path opacity="0.1" d="M94.9858 2.66675H65.8983C65.1244 2.66788 64.3825 2.97519 63.8345 3.52157C63.2865 4.06794 62.977 4.80897 62.9736 5.58279V16.3881C62.9748 17.1634 63.2833 17.9066 63.8315 18.4548C64.3797 19.0031 65.123 19.3116 65.8983 19.3127H67.9167L67.1137 22.4864C68.2563 22.3865 69.3667 22.0547 70.3768 21.5112C71.3869 20.9677 72.2756 20.2241 72.9887 19.3256H94.9858C95.7607 19.3233 96.5033 19.0145 97.0513 18.4665C97.5993 17.9185 97.9081 17.1759 97.9104 16.4009V5.58279C97.9059 4.80932 97.596 4.06894 97.0483 3.52281C96.5005 2.97668 95.7593 2.669 94.9858 2.66675Z" fill="#FAFAFA"/>
</svg>
