<svg width="12" height="12" viewBox="0 0 12 12" fill="none" xmlns="http://www.w3.org/2000/svg">
<path d="M5 4V3.5M5 6.25V5.75M5 8.5V8M2.6 2H9.4C9.96005 2 10.2401 2 10.454 2.10899C10.6422 2.20487 10.7951 2.35785 10.891 2.54601C11 2.75992 11 3.03995 11 3.6V3.6C11 3.74973 11 3.82459 10.9919 3.86895C10.9583 4.05394 10.9221 4.10683 10.762 4.20536C10.7236 4.22898 10.604 4.27562 10.3647 4.3689C9.71227 4.6232 9.25 5.25762 9.25 6C9.25 6.74238 9.71227 7.3768 10.3647 7.6311C10.604 7.72438 10.7236 7.77102 10.762 7.79464C10.9221 7.89317 10.9583 7.94606 10.9919 8.13105C11 8.17541 11 8.25027 11 8.4V8.4C11 8.96005 11 9.24008 10.891 9.45399C10.7951 9.64215 10.6422 9.79513 10.454 9.89101C10.2401 10 9.96005 10 9.4 10H2.6C2.03995 10 1.75992 10 1.54601 9.89101C1.35785 9.79513 1.20487 9.64215 1.10899 9.45399C1 9.24008 1 8.96005 1 8.4V8.4C1 8.25027 1 8.17541 1.00807 8.13105C1.0417 7.94606 1.07786 7.89317 1.238 7.79464C1.2764 7.77102 1.39605 7.72438 1.63534 7.6311C2.28773 7.3768 2.75 6.74238 2.75 6C2.75 5.25762 2.28773 4.6232 1.63534 4.3689C1.39605 4.27562 1.2764 4.22898 1.238 4.20536C1.07786 4.10683 1.0417 4.05394 1.00807 3.86895C1 3.82459 1 3.74973 1 3.6V3.6C1 3.03995 1 2.75992 1.10899 2.54601C1.20487 2.35785 1.35785 2.20487 1.54601 2.10899C1.75992 2 2.03995 2 2.6 2Z" stroke="url(#paint0_linear_26292_188377)" stroke-linecap="round" stroke-linejoin="round"/>
<defs>
<linearGradient id="paint0_linear_26292_188377" x1="2.46447" y1="8.82843" x2="7.32685" y2="2.83199" gradientUnits="userSpaceOnUse">
<stop stop-color="#7D2EBD"/>
<stop offset="1" stop-color="#C054EE"/>
</linearGradient>
</defs>
</svg>
