<svg width="40" height="40" viewBox="0 0 40 40" fill="none" xmlns="http://www.w3.org/2000/svg">
<g filter="url(#filter0_d_16892_4115)">
<path fill-rule="evenodd" clip-rule="evenodd" d="M10.3352 6.84717H26.6078C27.8923 6.84717 28.9433 7.88424 28.9433 9.15189V25.0619C28.9433 26.3294 27.8923 27.3666 26.6078 27.3666H10.3352C9.05071 27.3666 7.99976 26.3295 7.99976 25.0619V9.15189C7.99976 7.88424 9.05071 6.84717 10.3352 6.84717Z" fill="#E3CEFF"/>
<path fill-rule="evenodd" clip-rule="evenodd" d="M28.9438 9.15186L31.9573 21.4932C32.2582 22.7254 30.9062 23.7979 29.6219 23.7979H28.9438V9.15186Z" fill="#D4B3F4"/>
<path fill-rule="evenodd" clip-rule="evenodd" d="M10.3352 6.84717H26.6078C27.8923 6.84717 28.9433 7.88437 28.9433 9.15189V20.768L24.0648 25.5823H10.3352C9.05078 25.5823 7.99976 24.5452 7.99976 23.2775V9.15189C7.99976 7.88424 9.05071 6.84717 10.3352 6.84717Z" fill="white"/>
<path fill-rule="evenodd" clip-rule="evenodd" d="M10.3352 6.84717H26.6079C27.8924 6.84717 28.9433 7.88437 28.9433 9.15189V12.2666H7.99976V9.15189C7.99976 7.8843 9.05071 6.84717 10.3352 6.84717Z" fill="#D4B3F4"/>
<path d="M13.0612 9.75825C13.2754 9.75825 13.449 9.5869 13.449 9.37559C13.449 9.16422 13.2753 8.99294 13.0612 8.99294C12.8951 8.99294 12.7438 8.92561 12.6339 8.8171C12.524 8.70865 12.4557 8.55927 12.4557 8.39538V6.22963C12.4557 6.06573 12.524 5.91636 12.6339 5.80791C12.7438 5.69946 12.8951 5.63207 13.0612 5.63207H13.8622C14.0282 5.63207 14.1795 5.69946 14.2895 5.80791C14.3994 5.91642 14.4677 6.06573 14.4677 6.22963V6.84787H15.2433V6.22963C15.2433 5.85449 15.088 5.5136 14.8379 5.26676C14.5877 5.01999 14.2424 4.8667 13.8622 4.8667H13.0612C12.681 4.8667 12.3356 5.01993 12.0856 5.26676C11.8354 5.5136 11.6802 5.85443 11.6802 6.22963V8.39538C11.6802 8.77052 11.8354 9.11141 12.0856 9.35825C12.3356 9.60502 12.681 9.75825 13.0612 9.75825Z" fill="white"/>
<path d="M18.0707 9.75825C18.2848 9.75825 18.4585 9.5869 18.4585 9.37559C18.4585 9.16422 18.2848 8.99294 18.0707 8.99294C17.9046 8.99294 17.7533 8.92561 17.6434 8.8171C17.5335 8.70865 17.4652 8.55927 17.4652 8.39538V6.22963C17.4652 6.06573 17.5334 5.91636 17.6434 5.80791C17.7533 5.69946 17.9046 5.63207 18.0707 5.63207H18.8716C19.0377 5.63207 19.189 5.69946 19.299 5.80791C19.4089 5.91642 19.4771 6.06573 19.4771 6.22963V6.84787H20.2527V6.22963C20.2527 5.85449 20.0974 5.5136 19.8473 5.26676C19.5972 5.01999 19.2518 4.8667 18.8717 4.8667H18.0708C17.6906 4.8667 17.3452 5.01993 17.0951 5.26676C16.845 5.5136 16.6897 5.85443 16.6897 6.22963V8.39538C16.6897 8.77052 16.845 9.11141 17.0951 9.35825C17.3452 9.60502 17.6905 9.75825 18.0707 9.75825Z" fill="white"/>
<path d="M23.0806 9.75825C23.2947 9.75825 23.4683 9.5869 23.4683 9.37559C23.4683 9.16422 23.2947 8.99294 23.0806 8.99294C22.9144 8.99294 22.7631 8.92561 22.6532 8.8171C22.5433 8.70865 22.475 8.55927 22.475 8.39538V6.22963C22.475 6.06573 22.5433 5.91636 22.6532 5.80791C22.7631 5.69946 22.9144 5.63207 23.0806 5.63207H23.8814C24.0475 5.63207 24.1989 5.69946 24.3088 5.80791C24.4187 5.91642 24.487 6.06573 24.487 6.22963V6.84787H25.2625V6.22963C25.2625 5.85449 25.1073 5.5136 24.8571 5.26676C24.607 5.01999 24.2616 4.8667 23.8814 4.8667H23.0806C22.7004 4.8667 22.355 5.01993 22.1049 5.26676C21.8547 5.5136 21.6995 5.85443 21.6995 6.22963V8.39538C21.6995 8.77058 21.8547 9.11141 22.1049 9.35825C22.355 9.60502 22.7004 9.75825 23.0806 9.75825Z" fill="white"/>
<path fill-rule="evenodd" clip-rule="evenodd" d="M26.4004 20.769C25.116 20.769 24.0649 21.8062 24.0649 23.0738V25.5833L28.9434 20.769H26.4004Z" fill="#D4B3F4"/>
<ellipse cx="18.4994" cy="18.1251" rx="3.74991" ry="3.7501" fill="#D4B3F4"/>
<path d="M17.8414 18.5082C17.8414 18.3852 17.8789 18.2835 17.9539 18.2031C18.0289 18.118 18.1238 18.0754 18.2386 18.0754C18.4195 18.0754 18.5828 18.047 18.7284 17.9903C18.8741 17.9288 18.9888 17.8318 19.0727 17.6994C19.1609 17.5669 19.2051 17.3919 19.2051 17.1744C19.2051 17.0136 19.1676 16.8717 19.0925 16.7487C19.0219 16.6257 18.9226 16.5287 18.7946 16.4578C18.6711 16.3868 18.5298 16.3514 18.371 16.3514C18.2474 16.3514 18.1304 16.375 18.0201 16.4223C17.9142 16.4696 17.8171 16.5335 17.7288 16.6139C17.6582 16.6801 17.5722 16.7298 17.4707 16.7629C17.3736 16.7912 17.2743 16.7652 17.1728 16.6848C17.0669 16.5997 17.0095 16.498 17.0007 16.3798C16.9918 16.2615 17.0338 16.1527 17.1264 16.0534C17.2853 15.8784 17.4707 15.7436 17.6825 15.649C17.8988 15.5497 18.1282 15.5 18.371 15.5C18.6755 15.5 18.9491 15.5757 19.1918 15.727C19.439 15.8737 19.6354 16.0723 19.781 16.323C19.9266 16.5737 19.9994 16.8575 19.9994 17.1744C19.9994 17.4109 19.9663 17.6213 19.9001 17.8058C19.8339 17.9855 19.7391 18.1416 19.6155 18.2741C19.4963 18.4018 19.3551 18.5058 19.1918 18.5862C19.0329 18.6619 18.8586 18.7163 18.6689 18.7494C18.66 18.7541 18.6512 18.7589 18.6424 18.7636C18.638 18.7683 18.6358 18.7754 18.6358 18.7849V19.0474C18.6358 19.1704 18.5982 19.2744 18.5232 19.3596C18.4482 19.44 18.3533 19.4802 18.2386 19.4802C18.1238 19.4802 18.0289 19.44 17.9539 19.3596C17.8789 19.2744 17.8414 19.1704 17.8414 19.0474V18.5082ZM18.2055 20.7501C18.0775 20.7501 17.9782 20.7147 17.9076 20.6437C17.8414 20.568 17.8083 20.4616 17.8083 20.3244V20.2038C17.8083 20.0667 17.8414 19.9626 17.9076 19.8917C17.9782 19.816 18.0775 19.7782 18.2055 19.7782H18.2915C18.4195 19.7782 18.5166 19.816 18.5828 19.8917C18.6534 19.9626 18.6887 20.0667 18.6887 20.2038V20.3244C18.6887 20.4616 18.6534 20.568 18.5828 20.6437C18.5166 20.7147 18.4195 20.7501 18.2915 20.7501H18.2055Z" fill="white"/>
</g>
<defs>
<filter id="filter0_d_16892_4115" x="-0.000244141" y="0.866699" width="40" height="38.5" filterUnits="userSpaceOnUse" color-interpolation-filters="sRGB">
<feFlood flood-opacity="0" result="BackgroundImageFix"/>
<feColorMatrix in="SourceAlpha" type="matrix" values="0 0 0 0 0 0 0 0 0 0 0 0 0 0 0 0 0 0 127 0" result="hardAlpha"/>
<feOffset dy="4"/>
<feGaussianBlur stdDeviation="4"/>
<feComposite in2="hardAlpha" operator="out"/>
<feColorMatrix type="matrix" values="0 0 0 0 0 0 0 0 0 0 0 0 0 0 0 0 0 0 0.04 0"/>
<feBlend mode="normal" in2="BackgroundImageFix" result="effect1_dropShadow_16892_4115"/>
<feBlend mode="normal" in="SourceGraphic" in2="effect1_dropShadow_16892_4115" result="shape"/>
</filter>
</defs>
</svg>
