<svg width="24" height="24" viewBox="0 0 24 24" fill="none" xmlns="http://www.w3.org/2000/svg">
<path fill-rule="evenodd" clip-rule="evenodd" d="M2 7.20052C2 5.38017 2 4.46999 2.35426 3.77471C2.66587 3.16312 3.1631 2.66588 3.77468 2.35426C4.46996 2 5.38012 2 7.20045 2H16.3012C18.1215 2 19.0317 2 19.727 2.35426C20.3386 2.66588 20.8358 3.16312 21.1474 3.77471C21.5017 4.46999 21.5017 5.38017 21.5017 7.20052V13.0511C21.5017 14.8715 21.5017 15.7816 21.1474 16.4769C20.8358 17.0885 20.3386 17.5857 19.727 17.8974C19.0317 18.2516 18.1215 18.2516 16.3012 18.2516H13.5751C12.8989 18.2516 12.5609 18.2516 12.2375 18.318C11.9506 18.3769 11.673 18.4743 11.4122 18.6075C11.1183 18.7577 10.8544 18.9688 10.3265 19.3912L10.3264 19.3912L10.3264 19.3912L7.74189 21.4588C7.2911 21.8195 7.0657 21.9998 6.876 22C6.71103 22.0002 6.55496 21.9252 6.45204 21.7962C6.3337 21.648 6.3337 21.3593 6.3337 20.782V18.2516C5.32615 18.2516 4.82237 18.2516 4.40904 18.1409C3.2874 17.8403 2.41129 16.9642 2.11075 15.8425C2 15.4292 2 14.9254 2 13.9179V7.20052ZM6.3337 7.41721C6.3337 6.81885 6.81877 6.33378 7.41713 6.33378L11.7508 6.33378C12.3492 6.33378 12.8343 6.81885 12.8343 7.41721C12.8343 8.01557 12.3492 8.50064 11.7508 8.50064L7.41713 8.50064C6.81877 8.50064 6.3337 8.01557 6.3337 7.41721ZM11.7508 10.6675C11.1525 10.6675 10.6674 11.1526 10.6674 11.751C10.6674 12.3493 11.1525 12.8344 11.7508 12.8344L16.0845 12.8344C16.6829 12.8344 17.168 12.3493 17.168 11.751C17.168 11.1526 16.6829 10.6675 16.0845 10.6675H11.7508Z" fill="url(#paint0_linear_11640_53516)"/>
<defs>
<linearGradient id="paint0_linear_11640_53516" x1="4.85595" y1="19.0711" x2="17.2707" y2="7.12807" gradientUnits="userSpaceOnUse">
<stop stop-color="#7D2EBD"/>
<stop offset="1" stop-color="#C054EE"/>
</linearGradient>
</defs>
</svg>
