<svg width="16" height="16" viewBox="0 0 16 16" fill="none" xmlns="http://www.w3.org/2000/svg">
<path d="M15.8123 7.61959L14.1011 6.35902L14.9264 4.42644C14.9841 4.29085 14.9749 4.13556 14.9012 4.00776C14.8275 3.87995 14.698 3.7943 14.5515 3.77645L12.4664 3.52544L12.2155 1.43894C12.1977 1.29235 12.1121 1.16273 11.9844 1.089C11.8562 1.01526 11.7024 1.0061 11.566 1.06379L9.63469 1.88965L8.37494 0.177273C8.28656 0.0591013 8.14328 0 8 0C7.85672 0 7.71344 0.0591013 7.62509 0.177273L6.36534 1.88965L4.43403 1.06376C4.29806 1.00513 4.14428 1.01476 4.01562 1.08896C3.88791 1.1627 3.80231 1.29235 3.78447 1.43891L3.53363 3.52541L1.4485 3.77642C1.302 3.79427 1.17247 3.87995 1.09878 4.00772C1.02509 4.13553 1.01594 4.29082 1.07359 4.4264L1.89894 6.35899L0.187688 7.61956C0.0695937 7.708 0 7.84724 0 7.99475C0 8.14225 0.0695937 8.2815 0.187688 8.3699L1.89894 9.63048L1.07359 11.5631C1.01591 11.6986 1.02506 11.8539 1.09878 11.9817C1.1725 12.1095 1.30203 12.1952 1.4485 12.213L3.53363 12.4641L3.78447 14.5505C3.80231 14.6971 3.88794 14.8268 4.01562 14.9005C4.14472 14.9752 4.29944 14.9839 4.43403 14.9257L6.36534 14.0998L7.62509 15.8122C7.71344 15.9304 7.85259 16 8 16C8.14741 16 8.28656 15.9304 8.37491 15.8122L9.63466 14.0998L11.566 14.9257C11.7015 14.983 11.8557 14.9743 11.9844 14.9005C12.1121 14.8268 12.1977 14.6971 12.2155 14.5505L12.4664 12.4641L14.5515 12.213C14.698 12.1952 14.8275 12.1095 14.9012 11.9817C14.9749 11.854 14.9841 11.6986 14.9264 11.5631L14.1011 9.63048L15.8123 8.3699C15.9304 8.2815 16 8.14225 16 7.99475C16 7.84724 15.9304 7.708 15.8123 7.61959Z" fill="#FFCE32"/>
<path d="M7.8125 6.40717C7.8125 5.63123 7.18169 5 6.40625 5C5.63081 5 5 5.63123 5 6.40717C5 7.18312 5.63081 7.81435 6.40625 7.81435C7.18169 7.81435 7.8125 7.18312 7.8125 6.40717ZM5.9375 6.40717C5.9375 6.14838 6.14762 5.93812 6.40625 5.93812C6.66488 5.93812 6.875 6.14838 6.875 6.40717C6.875 6.66597 6.66488 6.87623 6.40625 6.87623C6.14762 6.87623 5.9375 6.66597 5.9375 6.40717ZM10.1562 7.81435C9.38081 7.81435 8.75 8.44557 8.75 9.22152C8.75 9.99747 9.38081 10.6287 10.1562 10.6287C10.9317 10.6287 11.5625 9.99747 11.5625 9.22152C11.5625 8.44557 10.9317 7.81435 10.1562 7.81435ZM10.1562 9.69058C9.89762 9.69058 9.6875 9.48032 9.6875 9.22152C9.6875 8.96273 9.89762 8.75246 10.1562 8.75246C10.4149 8.75246 10.625 8.96273 10.625 9.22152C10.625 9.48032 10.4149 9.69058 10.1562 9.69058ZM10.4492 5.1026C10.2473 4.9409 9.95253 4.9748 9.79003 5.1759L6.04003 9.86648C5.87844 10.069 5.91141 10.3639 6.11328 10.5261C6.31478 10.6872 6.60928 10.6555 6.77247 10.4528L10.5225 5.76222C10.6841 5.55974 10.6511 5.26474 10.4492 5.1026Z" fill="#D42F55"/>
</svg>
