<svg width="41" height="40" viewBox="0 0 41 40" fill="none" xmlns="http://www.w3.org/2000/svg">
<circle cx="20.5" cy="20" r="20" fill="#FBF7EB"/>
<g clip-path="url(#clip0_12035_51757)">
<path d="M24.7656 16.5312C20.5009 16.5312 17.0312 20.0009 17.0312 24.2656C17.0312 28.5304 20.5009 32 24.7656 32C29.0304 32 32.5 28.5304 32.5 24.2656C32.5 20.0009 29.0304 16.5312 24.7656 16.5312ZM24.7656 23.5625C25.9288 23.5625 26.875 24.5087 26.875 25.6719C26.875 26.5873 26.2854 27.3605 25.4688 27.6517V29.1875H24.0625V27.6517C23.2458 27.3605 22.6562 26.5873 22.6562 25.6719H24.0625C24.0625 26.0598 24.3777 26.375 24.7656 26.375C25.1536 26.375 25.4688 26.0598 25.4688 25.6719C25.4688 25.2839 25.1536 24.9688 24.7656 24.9688C23.6025 24.9688 22.6562 24.0225 22.6562 22.8594C22.6562 21.9439 23.2458 21.1708 24.0625 20.8795V19.3438H25.4688V20.8795C26.2854 21.1708 26.875 21.9439 26.875 22.8594H25.4688C25.4688 22.4714 25.1536 22.1562 24.7656 22.1562C24.3777 22.1562 24.0625 22.4714 24.0625 22.8594C24.0625 23.2473 24.3777 23.5625 24.7656 23.5625Z" fill="#D4AF37"/>
<path d="M16.3281 16.5312C20.665 16.5312 24.0625 14.678 24.0625 12.3125C24.0625 9.947 20.665 8 16.3281 8C11.9913 8 8.5 9.947 8.5 12.3125C8.5 14.678 11.9913 16.5312 16.3281 16.5312Z" fill="#D4AF37"/>
<path d="M8.5 23.8232V24.9689C8.5 27.3344 11.9913 29.1877 16.3281 29.1877C16.5741 29.1877 16.8125 29.165 17.0547 29.1532C16.5153 28.3051 16.1131 27.3642 15.8763 26.3582C12.7401 26.2717 10.017 25.308 8.5 23.8232Z" fill="#D4AF37"/>
<path d="M15.6588 24.9331C15.6427 24.7119 15.625 24.491 15.625 24.2658C15.625 23.5328 15.721 22.8234 15.8848 22.1399C12.7448 22.0548 10.0183 21.0906 8.5 19.6045V20.7502C8.5 22.9902 11.6529 24.7506 15.6588 24.9331Z" fill="#D4AF37"/>
<path d="M16.3281 20.7502C16.3289 20.7502 16.3295 20.7501 16.3303 20.7501C16.794 19.6418 17.4681 18.6427 18.3053 17.8056C17.6702 17.8858 17.014 17.9377 16.3281 17.9377C12.9898 17.9377 10.0903 16.9422 8.5 15.3857V16.5314C8.5 18.8969 11.9913 20.7502 16.3281 20.7502Z" fill="#D4AF37"/>
</g>
<defs>
<clipPath id="clip0_12035_51757">
<rect width="24" height="24" fill="white" transform="translate(8.5 8)"/>
</clipPath>
</defs>
</svg>
