<svg width="16" height="16" viewBox="0 0 16 16" fill="none" xmlns="http://www.w3.org/2000/svg">
<path d="M2.05057 4.98847L4.90927 7.03035C5.05802 7.1366 5.1324 7.18973 5.21024 7.20197C5.27873 7.21274 5.34887 7.20188 5.41091 7.17092C5.48141 7.13572 5.53625 7.0626 5.64593 6.91636L6.24999 6.11093C6.28101 6.06957 6.29652 6.0489 6.31475 6.03106C6.33093 6.01522 6.34869 6.00107 6.36774 5.98884C6.3892 5.97505 6.41282 5.96456 6.46006 5.94356L9.03912 4.79731C9.14603 4.7498 9.19948 4.72604 9.23979 4.68893C9.27544 4.65612 9.30351 4.61592 9.32204 4.57115C9.34299 4.52052 9.34688 4.46216 9.35466 4.34542L9.5435 1.51286M8.99992 8.99992L10.7439 9.74735C10.9463 9.83407 11.0474 9.87743 11.101 9.94945C11.1481 10.0126 11.1712 10.0904 11.1663 10.169C11.1608 10.2586 11.0997 10.3502 10.9776 10.5334L10.1582 11.7624C10.1004 11.8493 10.0714 11.8927 10.0332 11.9241C9.99932 11.9519 9.96032 11.9728 9.91839 11.9855C9.87102 11.9999 9.81884 11.9999 9.71449 11.9999H8.38432C8.24609 11.9999 8.17698 11.9999 8.11817 11.9768C8.06624 11.9564 8.02027 11.9232 7.98447 11.8804C7.94393 11.832 7.92207 11.7664 7.87836 11.6353L7.40311 10.2095C7.37733 10.1321 7.36444 10.0935 7.36104 10.0542C7.35804 10.0193 7.36053 9.98422 7.36844 9.95014C7.37736 9.91171 7.39559 9.87525 7.43205 9.80233L7.79306 9.08031C7.86641 8.93361 7.90308 8.86026 7.95957 8.81472C8.00935 8.77459 8.06962 8.74963 8.1332 8.7428C8.20535 8.73506 8.28314 8.76099 8.43874 8.81286L8.99992 8.99992ZM14.6666 7.99992C14.6666 11.6818 11.6818 14.6666 7.99992 14.6666C4.31802 14.6666 1.33325 11.6818 1.33325 7.99992C1.33325 4.31802 4.31802 1.33325 7.99992 1.33325C11.6818 1.33325 14.6666 4.31802 14.6666 7.99992Z" stroke="white" stroke-width="1.33" stroke-linecap="round" stroke-linejoin="round"/>
</svg>
