<svg width="68" height="58" viewBox="0 0 68 58" fill="none" xmlns="http://www.w3.org/2000/svg">
<g opacity="0.15" clip-path="url(#clip0_18263_35992)">
<path d="M44.0701 49.6649L54.7367 68.1401L45.4991 73.4734C43.6616 74.5343 41.478 74.8217 39.4286 74.2726C37.3791 73.7235 35.6318 72.3827 34.5709 70.5452L29.2376 61.3076C28.884 60.6951 28.7881 59.9672 28.9712 59.2841C29.1542 58.6009 29.6012 58.0185 30.2137 57.6649L44.0701 49.6649ZM62.5453 38.9982C63.1578 38.6446 63.8856 38.5487 64.5688 38.7318C65.2519 38.9148 65.8344 39.3618 66.188 39.9743L71.5213 49.2119C72.5822 51.0493 72.8697 53.233 72.3205 55.2824C71.7714 57.3318 70.4306 59.0792 68.5931 60.1401L59.3555 65.4734L48.6889 46.9982L62.5453 38.9982ZM40.7718 14.6187C42.1353 13.8311 43.676 13.4012 45.2504 13.3692C46.8248 13.3372 48.3817 13.7041 49.7761 14.4357C51.1706 15.1672 52.3573 16.2397 53.2257 17.5533C54.0942 18.8668 54.6161 20.3788 54.7431 21.9484L55.5213 21.499C56.7463 20.7918 58.2021 20.6001 59.5684 20.9662C60.9347 21.3323 62.0996 22.2262 62.8068 23.4512L64.1401 25.7606C64.8474 26.9856 65.039 28.4413 64.6729 29.8076C64.3068 31.1739 63.413 32.3388 62.188 33.0461L46.0222 42.3794L39.3555 30.8324L34.7367 33.499L41.4034 45.046L25.2376 54.3794C24.0126 55.0866 22.5568 55.2783 21.1906 54.9122C19.8243 54.5461 18.6594 53.6522 17.9521 52.4272L16.6188 50.1178C15.9115 48.8929 15.7199 47.4371 16.086 46.0708C16.4521 44.7045 17.3459 43.5396 18.5709 42.8324L19.3492 42.383C18.2103 41.5974 17.2611 40.5674 16.5709 39.3683C13.9936 34.9042 15.5231 29.196 19.9479 26.6414C23.9609 24.2321 29.0526 24.7472 33.9774 27.5758L34.6155 27.9557C34.4491 22.1581 36.3755 17.3509 40.2918 14.902L40.7718 14.6187ZM22.6538 31.2375C21.7351 31.7679 21.0647 32.6416 20.7901 33.6663C20.5155 34.6911 20.6593 35.7829 21.1897 36.7016C21.7202 37.6203 22.5938 38.2907 23.6185 38.5653C24.6433 38.8399 25.7351 38.6961 26.6538 38.1657L33.9123 33.975C29.661 30.5636 25.3846 29.5993 22.6538 31.2375ZM43.3992 19.2602C40.6474 20.7873 39.3526 24.9713 40.18 30.3564L47.4384 26.1657C48.3542 25.6301 49.0196 24.7526 49.2884 23.7263C49.5571 22.7001 49.4072 21.609 48.8716 20.6933C48.3359 19.7776 47.4585 19.1121 46.4322 18.8434C45.4059 18.5746 44.3149 18.7245 43.3992 19.2602Z" fill="url(#paint0_linear_18263_35992)"/>
</g>
<defs>
<linearGradient id="paint0_linear_18263_35992" x1="36.8108" y1="69.4705" x2="49.1595" y2="24.6016" gradientUnits="userSpaceOnUse">
<stop stop-color="#7D2EBD"/>
<stop offset="1" stop-color="#C054EE"/>
</linearGradient>
<clipPath id="clip0_18263_35992">
<rect width="64" height="64" fill="white" transform="translate(0 32) rotate(-30)"/>
</clipPath>
</defs>
</svg>
