<svg width="32" height="32" viewBox="0 0 32 32" fill="none" xmlns="http://www.w3.org/2000/svg">
<path d="M29.0733 13.3887H27.9993V13.3334H15.9993V18.6667H23.5347C22.4354 21.7714 19.4813 24.0001 15.9993 24.0001C11.5813 24.0001 7.99935 20.4181 7.99935 16.0001C7.99935 11.5821 11.5813 8.00008 15.9993 8.00008C18.0387 8.00008 19.894 8.76941 21.3067 10.0261L25.078 6.25475C22.6967 4.03541 19.5113 2.66675 15.9993 2.66675C8.63602 2.66675 2.66602 8.63675 2.66602 16.0001C2.66602 23.3634 8.63602 29.3334 15.9993 29.3334C23.3627 29.3334 29.3327 23.3634 29.3327 16.0001C29.3327 15.1061 29.2407 14.2334 29.0733 13.3887Z" fill="#FFC107"/>
<path d="M4.20335 9.79408L8.58402 13.0067C9.76935 10.0721 12.64 8.00008 15.9993 8.00008C18.0387 8.00008 19.894 8.76941 21.3067 10.0261L25.078 6.25475C22.6967 4.03541 19.5113 2.66675 15.9993 2.66675C10.878 2.66675 6.43668 5.55808 4.20335 9.79408Z" fill="#FF3D00"/>
<path d="M15.9993 29.3334C19.4433 29.3334 22.5727 28.0154 24.9387 25.8721L20.812 22.3801C19.4284 23.4323 17.7377 24.0015 15.9993 24.0001C12.5313 24.0001 9.58668 21.7887 8.47735 18.7027L4.12935 22.0527C6.33602 26.3707 10.8173 29.3334 15.9993 29.3334Z" fill="#4CAF50"/>
<path d="M29.0733 13.3887H27.9993V13.3334H15.9993V18.6667H23.5347C23.0088 20.1444 22.0616 21.4355 20.81 22.3807L20.812 22.3801L24.9387 25.8721C24.6467 26.1374 29.3327 22.6667 29.3327 16.0001C29.3327 15.1061 29.2407 14.2334 29.0733 13.3887Z" fill="#1976D2"/>
</svg>
