<svg width="24" height="24" viewBox="0 0 24 24" fill="none" xmlns="http://www.w3.org/2000/svg">
<path fill-rule="evenodd" clip-rule="evenodd" d="M3.62799 1.51052C3.80498 1.1952 4.13841 1 4.5 1H19.5C19.8616 1 20.195 1.1952 20.372 1.51052L23.872 7.74581C23.9559 7.89531 24 8.06386 24 8.23529C24 9.00876 23.792 10.1571 23.131 11.1445C22.8401 11.5791 22.4655 11.9743 22 12.2871V20.4615C22 21.2321 21.6006 21.8984 21.0239 22.342C20.453 22.7812 19.7229 23 19 23H15H9H5C4.27711 23 3.54699 22.7812 2.97608 22.342C2.39938 21.8984 2 21.2321 2 20.4615V12.2007C0.78008 11.3343 0 9.85657 0 8.23529C0 8.06386 0.0440723 7.89531 0.127985 7.74581L3.62799 1.51052ZM10 21H14V17H10V21ZM16 21V16C16 15.4477 15.5523 15 15 15H9C8.44771 15 8 15.4477 8 16V21H5C4.66202 21 4.37473 20.8946 4.1955 20.7568C4.02205 20.6234 4 20.507 4 20.4615V12.9714C4.16374 12.9903 4.33053 13 4.5 13C5.94857 13 7.2022 12.2905 8.01566 11.2087C8.81189 12.2419 10.1068 13 12 13C13.8637 13 15.1476 12.2653 15.9467 11.2569C16.652 12.2436 17.8061 13 19.5 13C19.6722 13 19.8389 12.9922 20 12.9771V20.4615C20 20.507 19.9779 20.6233 19.8045 20.7568C19.6253 20.8946 19.338 21 19 21H16ZM9 8.23529C9 8.68995 9.1536 9.40463 9.59424 9.98064C9.99886 10.5096 10.7011 11 12 11C13.2989 11 14.0011 10.5096 14.4058 9.98064C14.8464 9.40463 15 8.68995 15 8.23529C15 7.68301 15.4477 7.23529 16 7.23529C16.5523 7.23529 17 7.68301 17 8.23529C17 8.71673 17.142 9.45076 17.531 10.032C17.8842 10.5596 18.4577 11 19.5 11C20.5423 11 21.1158 10.5596 21.469 10.032C21.7973 9.54145 21.9497 8.94209 21.9892 8.47758L18.9146 3H5.08545L2.00941 8.48C2.12334 9.95002 3.25476 11 4.5 11C5.8133 11 7 9.83211 7 8.23529C7 7.68301 7.44772 7.23529 8 7.23529C8.55228 7.23529 9 7.68301 9 8.23529Z" fill="#3C3C43" fill-opacity="0.3"/>
</svg>
