<svg width="24" height="24" viewBox="0 0 24 24" fill="none" xmlns="http://www.w3.org/2000/svg">
<path fill-rule="evenodd" clip-rule="evenodd" d="M8 7.57754C8 9.46771 5.933 11 4 11C2.067 11 0 9.25381 0 7.36364L4 1H20L24 7.36364C24 8.50446 22.8 11 20 11C17.2 11 16 8.71836 16 7.57754C16 8.71836 15.2 11 12 11C8.8 11 8 8.71836 8 7.57754ZM21 21.1066V13.0001C21 13.0001 19.0805 12.9931 18 12.5C17.1118 12.0947 16 11.0001 16 11.0001C16 11.0001 14.8895 12.0977 14 12.5C13.2665 12.8318 12.8051 12.9998 12 12.9998C11.1949 12.9998 10.781 12.8905 10 12.5C9.21895 12.1095 8 11.0001 8 11.0001C8 11.0001 7 12 6 12.5C5 13 3 13.0001 3 13.0001V21.1066C3 21.6088 3.21071 22.0904 3.58579 22.4455C3.96086 22.8006 4.46957 23.0001 5 23.0001H8C8.55228 23.0001 9 22.5524 9 22.0001V17H15V22.0001C15 22.5524 15.4477 23.0001 16 23.0001H19C19.5304 23.0001 20.0391 22.8006 20.4142 22.4455C20.7893 22.0904 21 21.6088 21 21.1066Z" fill="url(#paint0_linear_11640_53095)"/>
<defs>
<linearGradient id="paint0_linear_11640_53095" x1="3.51472" y1="19.7782" x2="17.1444" y2="5.10904" gradientUnits="userSpaceOnUse">
<stop stop-color="#7D2EBD"/>
<stop offset="1" stop-color="#C054EE"/>
</linearGradient>
</defs>
</svg>
