<svg width="80" height="80" viewBox="0 0 80 80" fill="none" xmlns="http://www.w3.org/2000/svg">
<path d="M6.66669 15.3333C6.66669 13.4665 6.66669 12.5331 7.03 11.82C7.34958 11.1928 7.85951 10.6829 8.48672 10.3633C9.19976 10 10.1332 10 12 10H68C69.8669 10 70.8003 10 71.5133 10.3633C72.1405 10.6829 72.6505 11.1928 72.97 11.82C73.3334 12.5331 73.3334 13.4665 73.3334 15.3333V17.5646C73.3334 18.4606 73.3334 18.9086 73.2239 19.3252C73.1268 19.6944 72.9671 20.0441 72.7517 20.3592C72.5086 20.7148 72.1701 21.0082 71.493 21.595L50.1737 40.0717C49.4966 40.6585 49.1581 40.9519 48.915 41.3075C48.6996 41.6226 48.5399 41.9723 48.4428 42.3415C48.3334 42.758 48.3334 43.206 48.3334 44.102V61.5279C48.3334 62.1798 48.3334 62.5057 48.2282 62.7875C48.1353 63.0365 47.9842 63.2597 47.7875 63.4384C47.5649 63.6407 47.2623 63.7617 46.6571 64.0038L35.3237 68.5372C34.0986 69.0272 33.486 69.2723 32.9943 69.1701C32.5642 69.0807 32.1869 68.8252 31.9442 68.4592C31.6667 68.0405 31.6667 67.3808 31.6667 66.0612V44.102C31.6667 43.206 31.6667 42.758 31.5572 42.3415C31.4602 41.9723 31.3005 41.6226 31.085 41.3075C30.842 40.9519 30.5034 40.6585 29.8263 40.0717L8.50706 21.595C7.82997 21.0082 7.49142 20.7148 7.24833 20.3592C7.0329 20.0441 6.8732 19.6944 6.77617 19.3252C6.66669 18.9086 6.66669 18.4606 6.66669 17.5646V15.3333Z" stroke="#3C3C43" stroke-opacity="0.3" stroke-width="5" stroke-linecap="round" stroke-linejoin="round"/>
</svg>
