<svg width="32" height="32" viewBox="0 0 32 32" fill="none" xmlns="http://www.w3.org/2000/svg">
<path fill-rule="evenodd" clip-rule="evenodd" d="M2.66797 26.0779V5.67127L18.1918 2.6665V29.3332L2.66797 26.0779ZM11.9319 20.2922C12.3801 20.0662 12.7662 19.734 13.0565 19.3246C13.7551 18.3271 14.1018 17.1256 14.0423 15.9094C14.0985 14.7287 13.7638 13.5624 13.0899 12.5913C12.8099 12.1944 12.4369 11.8722 12.0036 11.6528C11.5703 11.4335 11.0898 11.3238 10.6042 11.3332C10.0939 11.3219 9.5887 11.4362 9.133 11.6661C8.6773 11.8959 8.28507 12.2342 7.99083 12.6513C7.29309 13.6599 6.94639 14.87 7.00416 16.0951C6.94957 17.2629 7.29012 18.4151 7.97083 19.3656C8.25787 19.7618 8.63636 20.0828 9.07411 20.3014C9.51186 20.5199 9.99592 20.6295 10.4851 20.6208C10.987 20.6309 11.4836 20.5181 11.9319 20.2922ZM19.1732 8.32113V13.5373L20.9979 14.6849C21.0639 14.6991 21.132 14.6991 21.1979 14.6849L29.0437 9.39541C29.0379 9.1387 28.944 8.89178 28.7777 8.69615C28.6114 8.50051 28.3828 8.36809 28.1303 8.32113H19.1732ZM19.1735 15.4825L20.8373 16.6253C20.9152 16.673 21.0046 16.6982 21.0959 16.6982C21.1872 16.6982 21.2766 16.673 21.3545 16.6253C21.0688 16.7977 29.043 11.5034 29.043 11.5034V21.0901C29.0638 21.2843 29.0419 21.4808 28.9789 21.6657C28.9158 21.8506 28.8131 22.0195 28.6779 22.1606C28.5428 22.3016 28.3784 22.4115 28.1964 22.4824C28.0143 22.5533 27.819 22.5835 27.624 22.571H19.1726L19.1735 15.4825ZM10.5602 13.0777C10.2838 13.0765 10.0121 13.15 9.77408 13.2905C9.53601 13.431 9.34035 13.6332 9.20781 13.8758C8.84596 14.519 8.67236 15.251 8.70685 15.9882C8.66925 16.7238 8.84309 17.4549 9.20781 18.0948C9.33972 18.3275 9.53054 18.5213 9.7611 18.6569C9.99166 18.7924 10.2538 18.8649 10.5213 18.867C10.7887 18.8692 11.052 18.8009 11.2847 18.669C11.5174 18.5371 11.7113 18.3463 11.8469 18.1158C12.2083 17.479 12.3786 16.7516 12.3373 16.0206C12.3786 15.2666 12.214 14.5157 11.8611 13.8482C11.7347 13.6137 11.5468 13.4181 11.3176 13.2824C11.0884 13.1466 10.8266 13.0759 10.5602 13.0777Z" fill="#0072C6"/>
</svg>
