<svg width="17" height="16" viewBox="0 0 17 16" fill="none" xmlns="http://www.w3.org/2000/svg">
<g clip-path="url(#clip0_16746_17448)">
<path d="M3.83355 9.33333H12.5905C13.2657 9.33333 13.6033 9.33333 13.8721 9.20745C14.1088 9.09655 14.3078 8.91851 14.4441 8.69545C14.5989 8.44223 14.6362 8.10669 14.7108 7.43563M3.50022 3.33346H9.03546M1.8335 1.3335H2.66577C2.84218 1.3335 2.93039 1.3335 2.9994 1.36705C3.06015 1.39658 3.11049 1.44388 3.14376 1.50267C3.18155 1.56945 3.18705 1.65748 3.19806 1.83355L3.8022 11.4999C3.81321 11.676 3.81871 11.764 3.8565 11.8308C3.88976 11.8896 3.94011 11.9369 4.00086 11.9664C4.06987 11.9999 4.15807 11.9999 4.33449 11.9999H13.1666M5.50009 14.3332H5.50675M11.5 14.3332H11.5066M15.1666 1.3335L13.1666 3.33346M13.1666 3.33346L11.1666 5.33341M13.1666 3.33346L11.1666 1.3335M13.1666 3.33346L15.1666 5.33341M5.83341 14.3332C5.83341 14.5173 5.68418 14.6666 5.50009 14.6666C5.316 14.6666 5.16676 14.5173 5.16676 14.3332C5.16676 14.1491 5.316 13.9999 5.50009 13.9999C5.68418 13.9999 5.83341 14.1491 5.83341 14.3332ZM11.8333 14.3332C11.8333 14.5173 11.6841 14.6666 11.5 14.6666C11.3159 14.6666 11.1666 14.5173 11.1666 14.3332C11.1666 14.1491 11.3159 13.9999 11.5 13.9999C11.6841 13.9999 11.8333 14.1491 11.8333 14.3332Z" stroke="#3C3C43" stroke-opacity="0.3" stroke-width="1.67" stroke-linecap="round" stroke-linejoin="round"/>
</g>
<defs>
<clipPath id="clip0_16746_17448">
<rect width="15.9997" height="15.9997" fill="white" transform="translate(0.500244 0.000183105)"/>
</clipPath>
</defs>
</svg>
