<svg width="16" height="16" viewBox="0 0 16 16" fill="none" xmlns="http://www.w3.org/2000/svg">
<path d="M6.6745 1.99988C7.19541 1.99988 7.34722 2.00416 7.48282 2.03672C7.61887 2.06938 7.74893 2.12325 7.86822 2.19636C7.98713 2.26922 8.0975 2.37353 8.46584 2.74188L13.5286 7.80462C13.7889 8.06497 14.211 8.06497 14.4714 7.80462C14.7317 7.54427 14.7317 7.12216 14.4714 6.86181L9.36064 1.75102C9.06144 1.45154 8.83537 1.22526 8.56489 1.05951C8.3263 0.913295 8.06618 0.805551 7.79408 0.740226C7.48562 0.666171 7.16575 0.666323 6.74242 0.666524L3.99999 0.666546C3.6318 0.666546 3.33332 0.965023 3.33332 1.33321C3.33332 1.7014 3.6318 1.99988 3.99999 1.99988L6.6745 1.99988Z" fill="#3C3C43" fill-opacity="0.3"/>
<path d="M4.83332 6.99988C5.29356 6.99988 5.66665 6.62678 5.66665 6.16655C5.66665 5.70631 5.29356 5.33321 4.83332 5.33321C4.37308 5.33321 3.99999 5.70631 3.99999 6.16655C3.99999 6.62678 4.37308 6.99988 4.83332 6.99988Z" fill="#3C3C43" fill-opacity="0.3"/>
<path fill-rule="evenodd" clip-rule="evenodd" d="M6.91459 3.05514C6.6823 2.99937 6.44313 2.99959 6.17187 2.99985L4.10762 2.99988C3.75619 2.99987 3.45302 2.99986 3.2033 3.02026C2.93974 3.04179 2.67759 3.08934 2.42534 3.21787C2.04901 3.40961 1.74305 3.71557 1.55131 4.0919C1.42278 4.34415 1.37523 4.6063 1.3537 4.86986C1.3333 5.11958 1.33331 5.42275 1.33332 5.77419L1.33329 7.17176C1.33303 7.44302 1.33281 7.68219 1.38858 7.91448C1.43757 8.11856 1.51838 8.31365 1.62804 8.49259C1.75286 8.69628 1.92213 8.86524 2.11412 9.05687L7.37161 14.3143C7.62008 14.5628 7.83447 14.7772 8.02545 14.9393C8.22705 15.1105 8.44603 15.2622 8.71529 15.3497C9.11697 15.4802 9.54967 15.4802 9.95135 15.3497C10.2206 15.2622 10.4396 15.1105 10.6412 14.9393C10.8322 14.7772 11.0466 14.5628 11.295 14.3143L12.9811 12.6282C13.2296 12.3798 13.444 12.1654 13.6061 11.9744C13.7773 11.7728 13.929 11.5538 14.0165 11.2846C14.147 10.8829 14.147 10.4502 14.0165 10.0485C13.929 9.77926 13.7773 9.56028 13.6061 9.35868C13.444 9.16768 13.2296 8.95331 12.9811 8.70483L8.05698 3.78068C7.86535 3.58869 7.69639 3.41942 7.4927 3.2946C7.31375 3.18494 7.11867 3.10413 6.91459 3.05514ZM6.11633 4.33321C6.47418 4.33321 6.54445 4.3375 6.60333 4.35163C6.67136 4.36796 6.73639 4.3949 6.79603 4.43145C6.84766 4.46309 6.90038 4.50975 7.15342 4.76279L12.0201 9.62946C12.2919 9.90125 12.467 10.0771 12.5897 10.2216C12.7073 10.3601 12.737 10.4254 12.7484 10.4605C12.7919 10.5944 12.7919 10.7387 12.7484 10.8726C12.737 10.9077 12.7073 10.973 12.5897 11.1115C12.467 11.256 12.2919 11.4318 12.0201 11.7036L10.3704 13.3533C10.0986 13.6251 9.92276 13.8002 9.77828 13.9229C9.63976 14.0405 9.57452 14.0702 9.53933 14.0816C9.40544 14.1251 9.2612 14.1251 9.12731 14.0816C9.09212 14.0702 9.02688 14.0405 8.88836 13.9229C8.74388 13.8002 8.56802 13.6251 8.29623 13.3533L3.09623 8.15331C2.84319 7.90027 2.79653 7.84756 2.76489 7.79593C2.72834 7.73628 2.7014 7.67125 2.68507 7.60322C2.67094 7.54435 2.66665 7.47408 2.66665 7.11622L2.66665 5.79988C2.66665 5.41551 2.66717 5.16733 2.6826 4.97844C2.6974 4.79733 2.72252 4.73018 2.73932 4.69722C2.80323 4.57178 2.90522 4.46979 3.03066 4.40588C3.06362 4.38908 3.13077 4.36396 3.31188 4.34916C3.50077 4.33373 3.74895 4.33321 4.13332 4.33321H6.11633Z" fill="#3C3C43" fill-opacity="0.3"/>
<path d="M2.73932 4.69722L2.49181 4.57111C2.58236 4.3934 2.72684 4.24892 2.90455 4.15837C2.98335 4.11822 3.09123 4.08849 3.28926 4.07231C3.49213 4.05573 3.75373 4.05543 4.13332 4.05543H6.11633C6.45794 4.05543 6.56923 4.05778 6.66818 4.08153C6.76455 4.10467 6.85667 4.14283 6.94117 4.19461C7.02794 4.24778 7.10828 4.32481 7.34984 4.56637L12.2165 9.43304C12.4849 9.70145 12.6697 9.88664 12.8014 10.0418C12.93 10.1933 12.9853 10.2906 13.0126 10.3747M2.73932 4.69722L12.7484 10.4605M2.73932 4.69722L2.49181 4.57111C2.45167 4.64991 2.42193 4.75779 2.40575 4.95582C2.38917 5.15869 2.38888 5.42029 2.38888 5.79988L2.38888 7.11622C2.38888 7.45784 2.39122 7.56912 2.41497 7.66807C2.43811 7.76444 2.47627 7.85656 2.52805 7.94107C2.58122 8.02783 2.65825 8.10817 2.89981 8.34973L8.09981 13.5497C8.36823 13.8181 8.55341 14.0029 8.70859 14.1346C8.86005 14.2632 8.95737 14.3185 9.04147 14.3458C9.23116 14.4074 9.43548 14.4074 9.62517 14.3458C9.70928 14.3185 9.80659 14.2632 9.95806 14.1346C10.1132 14.0029 10.2984 13.8181 10.5668 13.5497L12.2165 11.9001C12.4849 11.6316 12.6697 11.4465 12.8014 11.2913C12.93 11.1398 12.9853 11.0425 13.0126 10.9584M2.73932 4.69722L12.7484 10.8726M13.0126 10.3747L12.7484 10.4605M13.0126 10.3747C13.0126 10.3747 13.0126 10.3747 13.0126 10.3747L12.7484 10.4605M13.0126 10.3747C13.0742 10.5644 13.0742 10.7687 13.0126 10.9584M12.7484 10.4605C12.7919 10.5944 12.7919 10.7387 12.7484 10.8726M13.0126 10.9584C13.0126 10.9584 13.0126 10.9584 13.0126 10.9584L12.7484 10.8726M13.0126 10.9584L12.7484 10.8726M9.16412 1.94735L9.16422 1.94744L14.275 7.05823C14.4268 7.2101 14.4268 7.45633 14.275 7.6082C14.1231 7.76007 13.8769 7.76007 13.725 7.6082L8.66226 2.54546C8.3045 2.1877 8.16717 2.05377 8.01336 1.95951C7.86921 1.87118 7.71206 1.80608 7.54767 1.76662C7.37226 1.72451 7.18045 1.7221 6.6745 1.7221L3.99999 1.7221C3.78521 1.7221 3.6111 1.54799 3.6111 1.33321C3.6111 1.11844 3.78521 0.944324 3.99999 0.944324L6.74243 0.944302L6.74256 0.944302C7.17429 0.944097 7.45899 0.945448 7.72923 1.01033C7.97299 1.06885 8.20601 1.16537 8.41975 1.29635C8.65672 1.44157 8.85899 1.64192 9.16412 1.94735ZM6.17187 3.27762L6.17213 3.27762C6.45021 3.27736 6.65526 3.27855 6.84975 3.32524C7.02548 3.36743 7.19347 3.43702 7.34756 3.53144C7.5181 3.63595 7.66393 3.7801 7.86038 3.97692L7.86056 3.9771L12.7847 8.90124L12.7847 8.90125C13.0359 9.15249 13.2411 9.35798 13.3943 9.53845C13.5543 9.72684 13.6806 9.91381 13.7523 10.1343C13.8647 10.4802 13.8647 10.8528 13.7523 11.1987C13.6806 11.4193 13.5543 11.6063 13.3943 11.7946C13.2411 11.9751 13.0359 12.1806 12.7847 12.4318L12.7847 12.4318L11.0986 14.1179L11.0986 14.1179C10.8474 14.3691 10.6419 14.5744 10.4614 14.7276C10.273 14.8875 10.0861 15.0139 9.86552 15.0855C9.51962 15.1979 9.14702 15.1979 8.80112 15.0855C8.58058 15.0139 8.39361 14.8875 8.20523 14.7276L8.02545 14.9393L8.20523 14.7276C8.02477 14.5744 7.81925 14.3691 7.56804 14.1179L7.56803 14.1179L2.31054 8.86045L2.31036 8.86027C2.11354 8.66382 1.96939 8.51799 1.86488 8.34745C1.77046 8.19336 1.70087 8.02537 1.65868 7.84964C1.61199 7.65515 1.6108 7.45011 1.61106 7.17202V7.17177L1.6111 5.77419V5.77418C1.61109 5.41886 1.61128 5.12843 1.63055 4.89248C1.65068 4.64618 1.69353 4.42462 1.79881 4.21801L1.55131 4.0919L1.79881 4.21801C1.96392 3.89395 2.22739 3.63048 2.55145 3.46537C2.75806 3.36009 2.97962 3.31724 3.22592 3.29711C3.46187 3.27784 3.7523 3.27764 4.10761 3.27766L4.10763 3.27766L6.17187 3.27762ZM5.38888 6.16655C5.38888 6.47337 5.14014 6.7221 4.83332 6.7221C4.52649 6.7221 4.27776 6.47337 4.27776 6.16655C4.27776 5.85972 4.52649 5.61099 4.83332 5.61099C5.14014 5.61099 5.38888 5.85972 5.38888 6.16655Z" stroke="#3C3C43" stroke-opacity="0.3" stroke-width="0.555556"/>
</svg>
