<svg width="16" height="16" viewBox="0 0 16 16" fill="none" xmlns="http://www.w3.org/2000/svg">
<path d="M5.3335 5.33342V4.66675M5.3335 8.33342V7.66675M5.3335 11.3334V10.6667M4.5335 13.3334H11.4668C12.5869 13.3334 13.147 13.3334 13.5748 13.1154C13.9511 12.9237 14.2571 12.6177 14.4488 12.2414C14.6668 11.8136 14.6668 11.2535 14.6668 10.1334V5.86675C14.6668 4.74664 14.6668 4.18659 14.4488 3.75877C14.2571 3.38244 13.9511 3.07648 13.5748 2.88474C13.147 2.66675 12.5869 2.66675 11.4668 2.66675H4.5335C3.41339 2.66675 2.85334 2.66675 2.42552 2.88474C2.04919 3.07648 1.74323 3.38244 1.55148 3.75877C1.3335 4.18659 1.3335 4.74664 1.3335 5.86675V10.1334C1.3335 11.2535 1.3335 11.8136 1.55148 12.2414C1.74323 12.6177 2.04919 12.9237 2.42552 13.1154C2.85334 13.3334 3.41339 13.3334 4.5335 13.3334Z" stroke="#3C3C43" stroke-opacity="0.6" stroke-width="1.33333" stroke-linecap="round" stroke-linejoin="round"/>
</svg>
