<svg width="120" height="184" viewBox="0 0 120 184" fill="none" xmlns="http://www.w3.org/2000/svg">
<path d="M50.858 137.455L40.179 168H30.6335L19.9545 137.455H28.9034L35.2472 159.31H35.5653L41.8892 137.455H50.858ZM54.6332 168V137.455H63.1048V168H54.6332ZM58.8889 133.517C57.6294 133.517 56.5489 133.099 55.6474 132.264C54.7591 131.416 54.315 130.402 54.315 129.222C54.315 128.055 54.7591 127.054 55.6474 126.219C56.5489 125.37 57.6294 124.946 58.8889 124.946C60.1483 124.946 61.2222 125.37 62.1105 126.219C63.012 127.054 63.4627 128.055 63.4627 129.222C63.4627 130.402 63.012 131.416 62.1105 132.264C61.2222 133.099 60.1483 133.517 58.8889 133.517ZM83.1321 168.597C80.0431 168.597 77.3717 167.94 75.1179 166.628C72.8774 165.302 71.1473 163.459 69.9276 161.099C68.7079 158.726 68.098 155.975 68.098 152.847C68.098 149.691 68.7079 146.934 69.9276 144.574C71.1473 142.201 72.8774 140.358 75.1179 139.045C77.3717 137.72 80.0431 137.057 83.1321 137.057C86.2211 137.057 88.8859 137.72 91.1265 139.045C93.3802 140.358 95.117 142.201 96.3367 144.574C97.5564 146.934 98.1662 149.691 98.1662 152.847C98.1662 155.975 97.5564 158.726 96.3367 161.099C95.117 163.459 93.3802 165.302 91.1265 166.628C88.8859 167.94 86.2211 168.597 83.1321 168.597ZM83.1719 162.034C84.5772 162.034 85.7505 161.636 86.6918 160.841C87.6331 160.032 88.3424 158.932 88.8196 157.54C89.3102 156.148 89.5554 154.563 89.5554 152.787C89.5554 151.01 89.3102 149.426 88.8196 148.034C88.3424 146.642 87.6331 145.542 86.6918 144.733C85.7505 143.924 84.5772 143.52 83.1719 143.52C81.7533 143.52 80.5602 143.924 79.5924 144.733C78.6378 145.542 77.9153 146.642 77.4247 148.034C76.9475 149.426 76.7088 151.01 76.7088 152.787C76.7088 154.563 76.9475 156.148 77.4247 157.54C77.9153 158.932 78.6378 160.032 79.5924 160.841C80.5602 161.636 81.7533 162.034 83.1719 162.034Z" fill="white"/>
<path d="M71.28 21.4504V0L48.72 0V21.4504L30 32.1756L41.28 51.6001L60 40.8749L78.72 51.6001L90 32.1756L71.28 21.4504Z" fill="white"/>
<path d="M101.28 73.0503V51.5999H78.72V73.0503L60 83.7755L71.28 103.2L90 92.4748L108.72 103.2L120 83.7755L101.28 73.0503Z" fill="white"/>
<path d="M41.28 51.5999H18.72L18.72 73.0503L0 83.7755L11.28 103.2L30 92.4748L48.72 103.2L60 83.7755L41.28 73.0503L41.28 51.5999Z" fill="white"/>
</svg>
