<svg width="21" height="20" viewBox="0 0 21 20" fill="none" xmlns="http://www.w3.org/2000/svg">
<path d="M18.7914 10.6072C19.0355 10.398 19.1575 10.2933 19.2023 10.1688C19.2415 10.0596 19.2415 9.94004 19.2023 9.83077C19.1575 9.70627 19.0355 9.60164 18.7914 9.3924L10.3206 2.13178C9.9004 1.77158 9.69029 1.59148 9.5124 1.58707C9.3578 1.58323 9.21012 1.65115 9.11242 1.77103C9 1.90897 9 2.18571 9 2.73918V7.03444C6.86532 7.40789 4.91159 8.48956 3.45971 10.1137C1.87682 11.8843 1.00123 14.1757 1 16.5508V17.1628C2.04934 15.8987 3.35951 14.8763 4.84076 14.1657C6.1467 13.5392 7.55842 13.1681 9 13.0703V17.2604C9 17.8139 9 18.0906 9.11242 18.2286C9.21012 18.3485 9.3578 18.4164 9.5124 18.4125C9.69029 18.4081 9.9004 18.228 10.3206 17.8678L18.7914 10.6072Z" stroke="black" stroke-width="1.8" stroke-linecap="round" stroke-linejoin="round"/>
</svg>
