<svg width="16" height="16" viewBox="0 0 16 16" fill="none" xmlns="http://www.w3.org/2000/svg">
<path d="M7.99967 11.6665H8.00634M5.46634 14.6665H10.533C11.2797 14.6665 11.6531 14.6665 11.9383 14.5211C12.1892 14.3933 12.3932 14.1893 12.521 13.9385C12.6663 13.6532 12.6663 13.2799 12.6663 12.5331V3.46646C12.6663 2.71973 12.6663 2.34636 12.521 2.06114C12.3932 1.81026 12.1892 1.60629 11.9383 1.47845C11.6531 1.33313 11.2797 1.33313 10.533 1.33313H5.46634C4.7196 1.33313 4.34624 1.33313 4.06102 1.47845C3.81014 1.60629 3.60616 1.81026 3.47833 2.06114C3.33301 2.34636 3.33301 2.71973 3.33301 3.46646V12.5331C3.33301 13.2799 3.33301 13.6532 3.47833 13.9385C3.60616 14.1893 3.81014 14.3933 4.06102 14.5211C4.34624 14.6665 4.7196 14.6665 5.46634 14.6665ZM8.33301 11.6665C8.33301 11.8506 8.18377 11.9998 7.99967 11.9998C7.81558 11.9998 7.66634 11.8506 7.66634 11.6665C7.66634 11.4824 7.81558 11.3331 7.99967 11.3331C8.18377 11.3331 8.33301 11.4824 8.33301 11.6665Z" stroke="#7E2EBC" stroke-width="1.28" stroke-linecap="round" stroke-linejoin="round"/>
</svg>
